<?xml version="1.0" standalone="no"?>
 <!DOCTYPE svg PUBLIC "-//W3C//DTD SVG 1.1//EN" 
 "http://www.w3.org/Graphics/SVG/1.1/DTD/svg11.dtd"> 
<svg xmlns="http://www.w3.org/2000/svg" version="1.1" 
    width="29.7002cm" height="21.0007cm" viewBox="0 0 116930 82680 ">
<title>SVG Picture created as poncho_rescatAR-B_Cu.svg date 2015/12/02 16:20:12 </title>
  <desc>Picture generated by PCBNEW </desc>
<g style="fill:#000000; fill-opacity:1;stroke:#000000; stroke-opacity:1;
stroke-linecap:round; stroke-linejoin:round; "
 transform="translate(0 0) scale(1 1)">
</g>
<g style="fill:#000000; fill-opacity:0.0; 
stroke:#000000; stroke-width:39.3701; stroke-opacity:1; 
stroke-linecap:round; stroke-linejoin:round;">
<path d="M4000 78680
L112930 78680
L112930 4000
L4000 4000
L4000 78680
" />
<path d="M4700 77980
L112230 77980
L112230 4700
L4700 4700
L4700 77980
" />
<path d="M25780 78680
L25780 77980
" />
<path d="M15032 78127
L14747 78127
" />
<path d="M14890 78127
L14890 78627
L14842 78556
L14794 78508
L14747 78484
" />
<path d="M25780 4000
L25780 4700
" />
<path d="M15032 4147
L14747 4147
" />
<path d="M14890 4147
L14890 4647
L14842 4576
L14794 4528
L14747 4504
" />
<path d="M47560 78680
L47560 77980
" />
<path d="M36527 78580
L36550 78603
L36598 78627
L36717 78627
L36765 78603
L36789 78580
L36812 78532
L36812 78484
L36789 78413
L36503 78127
L36812 78127
" />
<path d="M47560 4000
L47560 4700
" />
<path d="M36527 4600
L36550 4623
L36598 4647
L36717 4647
L36765 4623
L36789 4600
L36812 4552
L36812 4504
L36789 4433
L36503 4147
L36812 4147
" />
<path d="M69340 78680
L69340 77980
" />
<path d="M58283 78627
L58592 78627
L58426 78437
L58497 78437
L58545 78413
L58569 78389
L58592 78341
L58592 78222
L58569 78175
L58545 78151
L58497 78127
L58354 78127
L58307 78151
L58283 78175
" />
<path d="M69340 4000
L69340 4700
" />
<path d="M58283 4647
L58592 4647
L58426 4457
L58497 4457
L58545 4433
L58569 4409
L58592 4361
L58592 4242
L58569 4195
L58545 4171
L58497 4147
L58354 4147
L58307 4171
L58283 4195
" />
<path d="M91120 78680
L91120 77980
" />
<path d="M80325 78460
L80325 78127
" />
<path d="M80206 78651
L80087 78294
L80396 78294
" />
<path d="M91120 4000
L91120 4700
" />
<path d="M80325 4480
L80325 4147
" />
<path d="M80206 4671
L80087 4314
L80396 4314
" />
<path d="M102129 78627
L101890 78627
L101867 78389
L101890 78413
L101938 78437
L102057 78437
L102105 78413
L102129 78389
L102152 78341
L102152 78222
L102129 78175
L102105 78151
L102057 78127
L101938 78127
L101890 78151
L101867 78175
" />
<path d="M102129 4647
L101890 4647
L101867 4409
L101890 4433
L101938 4457
L102057 4457
L102105 4433
L102129 4409
L102152 4361
L102152 4242
L102129 4195
L102105 4171
L102057 4147
L101938 4147
L101890 4171
L101867 4195
" />
<path d="M4000 53790
L4700 53790
" />
<path d="M4230 66170
L4469 66170
" />
<path d="M4183 66027
L4350 66527
L4516 66027
" />
<path d="M112930 53790
L112230 53790
" />
<path d="M112460 66170
L112699 66170
" />
<path d="M112413 66027
L112580 66527
L112746 66027
" />
<path d="M4000 28900
L4700 28900
" />
<path d="M4385 41399
L4457 41375
L4480 41351
L4504 41304
L4504 41232
L4480 41185
L4457 41161
L4409 41137
L4219 41137
L4219 41637
L4385 41637
L4433 41613
L4457 41590
L4480 41542
L4480 41494
L4457 41447
L4433 41423
L4385 41399
L4219 41399
" />
<path d="M112930 28900
L112230 28900
" />
<path d="M112615 41399
L112687 41375
L112710 41351
L112734 41304
L112734 41232
L112710 41185
L112687 41161
L112639 41137
L112449 41137
L112449 41637
L112615 41637
L112663 41613
L112687 41590
L112710 41542
L112710 41494
L112687 41447
L112663 41423
L112615 41399
L112449 41399
" />
<path d="M4504 16295
L4480 16271
L4409 16247
L4361 16247
L4290 16271
L4242 16319
L4219 16366
L4195 16461
L4195 16533
L4219 16628
L4242 16676
L4290 16723
L4361 16747
L4409 16747
L4480 16723
L4504 16700
" />
<path d="M112734 16295
L112710 16271
L112639 16247
L112591 16247
L112520 16271
L112472 16319
L112449 16366
L112425 16461
L112425 16533
L112449 16628
L112472 16676
L112520 16723
L112591 16747
L112639 16747
L112710 16723
L112734 16700
" />
<path d="M79380 6257
L79455 6857
L79597 6857
L79680 6828
L79730 6771
L79751 6714
L79765 6600
L79755 6514
L79712 6400
L79676 6342
L79612 6285
L79522 6257
L79380 6257
" />
<path d="M80237 6257
L80276 6571
L80255 6628
L80201 6657
L80087 6657
L80026 6628
" />
<path d="M80240 6285
L80180 6257
L80037 6257
L79983 6285
L79962 6342
L79969 6400
L80005 6457
L80065 6485
L80208 6485
L80269 6514
" />
<path d="M80487 6657
L80715 6657
" />
<path d="M80597 6857
L80533 6342
L80555 6285
L80608 6257
L80665 6257
" />
<path d="M81097 6285
L81037 6257
L80922 6257
L80869 6285
L80847 6342
L80876 6571
L80912 6628
L80972 6657
L81087 6657
L81140 6628
L81162 6571
L81155 6514
L80862 6457
" />
<path d="M81387 6314
L81412 6285
L81380 6257
L81355 6285
L81387 6314
L81380 6257
" />
<path d="M81426 6628
L81451 6600
L81419 6571
L81394 6600
L81426 6628
L81419 6571
" />
<path d="M70972 5057
L70972 5657
" />
<path d="M71315 5057
L71058 5400
" />
<path d="M71315 5657
L70972 5314
" />
<path d="M71572 5057
L71572 5457
" />
<path d="M71572 5657
L71544 5628
L71572 5600
L71601 5628
L71572 5657
L71572 5600
" />
<path d="M72201 5114
L72172 5085
L72087 5057
L72030 5057
L71944 5085
L71887 5142
L71858 5200
L71830 5314
L71830 5400
L71858 5514
L71887 5571
L71944 5628
L72030 5657
L72087 5657
L72172 5628
L72201 5600
" />
<path d="M72715 5057
L72715 5371
L72687 5428
L72630 5457
L72515 5457
L72458 5428
" />
<path d="M72715 5085
L72658 5057
L72515 5057
L72458 5085
L72430 5142
L72430 5200
L72458 5257
L72515 5285
L72658 5285
L72715 5314
" />
<path d="M73258 5057
L73258 5657
" />
<path d="M73258 5085
L73201 5057
L73087 5057
L73030 5085
L73001 5114
L72972 5171
L72972 5342
L73001 5400
L73030 5428
L73087 5457
L73201 5457
L73258 5428
" />
<path d="M74001 5371
L74201 5371
" />
<path d="M74287 5057
L74001 5057
L74001 5657
L74287 5657
" />
<path d="M74544 5114
L74572 5085
L74544 5057
L74515 5085
L74544 5114
L74544 5057
" />
<path d="M74829 5057
L74829 5657
L74972 5657
L75058 5628
L75115 5571
L75144 5514
L75172 5400
L75172 5314
L75144 5200
L75115 5142
L75058 5085
L74972 5057
L74829 5057
" />
<path d="M75429 5114
L75458 5085
L75429 5057
L75401 5085
L75429 5114
L75429 5057
" />
<path d="M75687 5228
L75972 5228
" />
<path d="M75629 5057
L75829 5657
L76029 5057
" />
<path d="M76229 5114
L76258 5085
L76229 5057
L76201 5085
L76229 5114
L76229 5057
" />
<path d="M104522 6257
L104358 6542
" />
<path d="M104180 6257
L104255 6857
L104483 6857
L104537 6828
L104562 6800
L104583 6742
L104572 6657
L104537 6600
L104505 6571
L104444 6542
L104215 6542
" />
<path d="M105012 6285
L104951 6257
L104837 6257
L104783 6285
L104762 6342
L104790 6571
L104826 6628
L104887 6657
L105001 6657
L105055 6628
L105076 6571
L105069 6514
L104776 6457
" />
<path d="M105287 6657
L105380 6257
L105572 6657
" />
<path d="M105758 6314
L105783 6285
L105751 6257
L105726 6285
L105758 6314
L105751 6257
" />
<path d="M105797 6628
L105822 6600
L105790 6571
L105765 6600
L105797 6628
L105790 6571
" />
<path d="M70944 6285
L71030 6257
L71172 6257
L71230 6285
L71258 6314
L71287 6371
L71287 6428
L71258 6485
L71230 6514
L71172 6542
L71058 6571
L71001 6600
L70972 6628
L70944 6685
L70944 6742
L70972 6800
L71001 6828
L71058 6857
L71201 6857
L71287 6828
" />
<path d="M71544 6257
L71544 6657
" />
<path d="M71544 6857
L71515 6828
L71544 6800
L71572 6828
L71544 6857
L71544 6800
" />
<path d="M71772 6657
L72087 6657
L71772 6257
L72087 6257
" />
<path d="M72544 6285
L72487 6257
L72372 6257
L72315 6285
L72287 6342
L72287 6571
L72315 6628
L72372 6657
L72487 6657
L72544 6628
L72572 6571
L72572 6514
L72287 6457
" />
<path d="M72830 6314
L72858 6285
L72830 6257
L72801 6285
L72830 6314
L72830 6257
" />
<path d="M72830 6628
L72858 6600
L72830 6571
L72801 6600
L72830 6628
L72830 6571
" />
<path d="M73544 6428
L73830 6428
" />
<path d="M73487 6257
L73687 6857
L73887 6257
" />
<path d="M74344 6657
L74344 6257
" />
<path d="M74201 6885
L74058 6457
L74430 6457
" />
<path d="M104172 5057
L104172 5657
" />
<path d="M104715 5057
L104715 5657
" />
<path d="M104715 5085
L104658 5057
L104544 5057
L104487 5085
L104458 5114
L104430 5171
L104430 5342
L104458 5400
L104487 5428
L104544 5457
L104658 5457
L104715 5428
" />
<path d="M105001 5114
L105030 5085
L105001 5057
L104972 5085
L105001 5114
L105001 5057
" />
<path d="M105001 5428
L105030 5400
L105001 5371
L104972 5400
L105001 5428
L105001 5371
" />
<path d="M106058 5057
L105715 5057
" />
<path d="M105887 5057
L105887 5657
L105829 5571
L105772 5514
L105715 5485
" />
<path d="M106744 5685
L106230 4914
" />
<path d="M107258 5057
L106915 5057
" />
<path d="M107087 5057
L107087 5657
L107029 5571
L106972 5514
L106915 5485
" />
<path d="M70969 8057
L71312 8057
" />
<path d="M71065 7457
L71140 8057
" />
<path d="M71437 7457
L71487 7857
" />
<path d="M71512 8057
L71480 8028
L71505 8000
L71537 8028
L71512 8057
L71505 8000
" />
<path d="M71687 7857
L71915 7857
" />
<path d="M71797 8057
L71733 7542
L71755 7485
L71808 7457
L71865 7457
" />
<path d="M72151 7457
L72097 7485
L72076 7542
L72140 8057
" />
<path d="M72612 7485
L72551 7457
L72437 7457
L72383 7485
L72362 7542
L72390 7771
L72426 7828
L72487 7857
L72601 7857
L72655 7828
L72676 7771
L72669 7714
L72376 7657
" />
<path d="M72901 7514
L72926 7485
L72894 7457
L72869 7485
L72901 7514
L72894 7457
" />
<path d="M72940 7828
L72965 7800
L72933 7771
L72908 7800
L72940 7828
L72933 7771
" />
<path d="M73637 7457
L73687 7857
" />
<path d="M73672 7742
L73708 7800
L73740 7828
L73801 7857
L73858 7857
" />
<path d="M74240 7485
L74180 7457
L74065 7457
L74012 7485
L73990 7542
L74019 7771
L74055 7828
L74115 7857
L74230 7857
L74283 7828
L74305 7771
L74297 7714
L74005 7657
" />
<path d="M74497 7485
L74551 7457
L74665 7457
L74726 7485
L74762 7542
L74765 7571
L74744 7628
L74690 7657
L74605 7657
L74551 7685
L74530 7742
L74533 7771
L74569 7828
L74630 7857
L74715 7857
L74769 7828
" />
<path d="M75269 7485
L75208 7457
L75094 7457
L75040 7485
L75015 7514
L74994 7571
L75015 7742
L75051 7800
L75083 7828
L75144 7857
L75258 7857
L75312 7828
" />
<path d="M75780 7457
L75819 7771
L75797 7828
L75744 7857
L75630 7857
L75569 7828
" />
<path d="M75783 7485
L75722 7457
L75580 7457
L75526 7485
L75505 7542
L75512 7600
L75547 7657
L75608 7685
L75751 7685
L75812 7714
" />
<path d="M76030 7857
L76258 7857
" />
<path d="M76140 8057
L76076 7542
L76097 7485
L76151 7457
L76208 7457
" />
<path d="M76401 7628
L76687 7628
" />
<path d="M76322 7457
L76597 8057
L76722 7457
" />
<path d="M77265 7457
L77101 7742
" />
<path d="M76922 7457
L76997 8057
L77226 8057
L77280 8028
L77305 8000
L77326 7942
L77315 7857
L77280 7800
L77247 7771
L77187 7742
L76958 7742
" />
<path d="M71172 10171
L70972 10171
" />
<path d="M70972 9857
L70972 10457
L71258 10457
" />
<path d="M71487 9857
L71487 10257
" />
<path d="M71487 10457
L71458 10428
L71487 10400
L71515 10428
L71487 10457
L71487 10400
" />
<path d="M71858 9857
L71801 9885
L71772 9942
L71772 10457
" />
<path d="M72315 9885
L72258 9857
L72144 9857
L72087 9885
L72058 9942
L72058 10171
L72087 10228
L72144 10257
L72258 10257
L72315 10228
L72344 10171
L72344 10114
L72058 10057
" />
<path d="M72601 9914
L72630 9885
L72601 9857
L72572 9885
L72601 9914
L72601 9857
" />
<path d="M72601 10228
L72630 10200
L72601 10171
L72572 10200
L72601 10228
L72601 10171
" />
<path d="M73344 10257
L73344 9657
" />
<path d="M73344 10228
L73401 10257
L73515 10257
L73572 10228
L73601 10200
L73630 10142
L73630 9971
L73601 9914
L73572 9885
L73515 9857
L73401 9857
L73344 9885
" />
<path d="M73972 9857
L73915 9885
L73887 9914
L73858 9971
L73858 10142
L73887 10200
L73915 10228
L73972 10257
L74058 10257
L74115 10228
L74144 10200
L74172 10142
L74172 9971
L74144 9914
L74115 9885
L74058 9857
L73972 9857
" />
<path d="M74430 10257
L74430 9857
" />
<path d="M74430 10200
L74458 10228
L74515 10257
L74601 10257
L74658 10228
L74687 10171
L74687 9857
" />
<path d="M75230 9885
L75172 9857
L75058 9857
L75001 9885
L74972 9914
L74944 9971
L74944 10142
L74972 10200
L75001 10228
L75058 10257
L75172 10257
L75230 10228
" />
<path d="M75487 9857
L75487 10457
" />
<path d="M75744 9857
L75744 10171
L75715 10228
L75658 10257
L75572 10257
L75515 10228
L75487 10200
" />
<path d="M76115 9857
L76058 9885
L76030 9914
L76001 9971
L76001 10142
L76030 10200
L76058 10228
L76115 10257
L76201 10257
L76258 10228
L76287 10200
L76315 10142
L76315 9971
L76287 9914
L76258 9885
L76201 9857
L76115 9857
" />
<path d="M76430 9800
L76887 9800
" />
<path d="M77030 9857
L77030 10257
" />
<path d="M77030 10142
L77058 10200
L77087 10228
L77144 10257
L77201 10257
" />
<path d="M77630 9885
L77572 9857
L77458 9857
L77401 9885
L77372 9942
L77372 10171
L77401 10228
L77458 10257
L77572 10257
L77630 10228
L77658 10171
L77658 10114
L77372 10057
" />
<path d="M77887 9885
L77944 9857
L78058 9857
L78115 9885
L78144 9942
L78144 9971
L78115 10028
L78058 10057
L77972 10057
L77915 10085
L77887 10142
L77887 10171
L77915 10228
L77972 10257
L78058 10257
L78115 10228
" />
<path d="M78658 9885
L78601 9857
L78487 9857
L78430 9885
L78401 9914
L78372 9971
L78372 10142
L78401 10200
L78430 10228
L78487 10257
L78601 10257
L78658 10228
" />
<path d="M79172 9857
L79172 10171
L79144 10228
L79087 10257
L78972 10257
L78915 10228
" />
<path d="M79172 9885
L79115 9857
L78972 9857
L78915 9885
L78887 9942
L78887 10000
L78915 10057
L78972 10085
L79115 10085
L79172 10114
" />
<path d="M79372 10257
L79601 10257
" />
<path d="M79458 10457
L79458 9942
L79487 9885
L79544 9857
L79601 9857
" />
<path d="M79772 10028
L80058 10028
" />
<path d="M79715 9857
L79915 10457
L80115 9857
" />
<path d="M80658 9857
L80458 10142
" />
<path d="M80315 9857
L80315 10457
L80544 10457
L80601 10428
L80630 10400
L80658 10342
L80658 10257
L80630 10200
L80601 10171
L80544 10142
L80315 10142
" />
<path d="M80915 9914
L80944 9885
L80915 9857
L80887 9885
L80915 9914
L80915 9857
" />
<path d="M81201 9857
L81201 10457
" />
<path d="M81258 10085
L81430 9857
" />
<path d="M81430 10257
L81201 10028
" />
<path d="M81687 9857
L81687 10257
" />
<path d="M81687 10457
L81658 10428
L81687 10400
L81715 10428
L81687 10457
L81687 10400
" />
<path d="M82230 9885
L82172 9857
L82058 9857
L82001 9885
L81972 9914
L81944 9971
L81944 10142
L81972 10200
L82001 10228
L82058 10257
L82172 10257
L82230 10228
" />
<path d="M82744 9857
L82744 10171
L82715 10228
L82658 10257
L82544 10257
L82487 10228
" />
<path d="M82744 9885
L82687 9857
L82544 9857
L82487 9885
L82458 9942
L82458 10000
L82487 10057
L82544 10085
L82687 10085
L82744 10114
" />
<path d="M83287 9857
L83287 10457
" />
<path d="M83287 9885
L83230 9857
L83115 9857
L83058 9885
L83030 9914
L83001 9971
L83001 10142
L83030 10200
L83058 10228
L83115 10257
L83230 10257
L83287 10228
" />
<path d="M83430 9800
L83887 9800
" />
<path d="M84030 10257
L84030 9657
" />
<path d="M84030 10228
L84087 10257
L84201 10257
L84258 10228
L84287 10200
L84315 10142
L84315 9971
L84287 9914
L84258 9885
L84201 9857
L84087 9857
L84030 9885
" />
<path d="M84830 9885
L84772 9857
L84658 9857
L84601 9885
L84572 9914
L84544 9971
L84544 10142
L84572 10200
L84601 10228
L84658 10257
L84772 10257
L84830 10228
" />
<path d="M85087 9857
L85087 10457
" />
<path d="M85087 10228
L85144 10257
L85258 10257
L85315 10228
L85344 10200
L85372 10142
L85372 9971
L85344 9914
L85315 9885
L85258 9857
L85144 9857
L85087 9885
" />
<path d="M70944 8685
L71030 8657
L71172 8657
L71230 8685
L71258 8714
L71287 8771
L71287 8828
L71258 8885
L71230 8914
L71172 8942
L71058 8971
L71001 9000
L70972 9028
L70944 9085
L70944 9142
L70972 9200
L71001 9228
L71058 9257
L71201 9257
L71287 9228
" />
<path d="M71544 8657
L71544 9257
" />
<path d="M71801 8657
L71801 8971
L71772 9028
L71715 9057
L71630 9057
L71572 9028
L71544 9000
" />
<path d="M72315 8685
L72258 8657
L72144 8657
L72087 8685
L72058 8742
L72058 8971
L72087 9028
L72144 9057
L72258 9057
L72315 9028
L72344 8971
L72344 8914
L72058 8857
" />
<path d="M72830 8685
L72772 8657
L72658 8657
L72601 8685
L72572 8742
L72572 8971
L72601 9028
L72658 9057
L72772 9057
L72830 9028
L72858 8971
L72858 8914
L72572 8857
" />
<path d="M73030 9057
L73258 9057
" />
<path d="M73115 9257
L73115 8742
L73144 8685
L73201 8657
L73258 8657
" />
<path d="M73458 8714
L73487 8685
L73458 8657
L73430 8685
L73458 8714
L73458 8657
" />
<path d="M73458 9028
L73487 9000
L73458 8971
L73430 9000
L73458 9028
L73458 8971
" />
<path d="M70230 10700
L70230 4700
" />
<path d="M70230 10700
L112230 10700
" />
<path d="M70230 10700
L112230 10700
" />
<path d="M70230 8300
L112230 8300
" />
<path d="M103430 7100
L103430 4700
" />
<path d="M70230 5900
L112230 5900
" />
<path d="M70230 7100
L112230 7100
" />
<path d="M76830 7100
L76830 5900
" />
</g>
<g style="fill:#000000; fill-opacity:0.0; 
stroke:#000000; stroke-width:787.402; stroke-opacity:1; 
stroke-linecap:round; stroke-linejoin:round;">
<path d="M66299 59215
L66299 59215
" />
<path d="M66299 60770
L66299 60770
" />
<path d="M66299 57660
L66299 57660
" />
<path d="M66299 62345
L66299 62345
" />
</g>
<g style="fill:#000000; fill-opacity:0.0; 
stroke:#000000; stroke-width:669.291; stroke-opacity:1; 
stroke-linecap:round; stroke-linejoin:round;">
<path d="M62092 60770
L62092 60455
" />
<path d="M61092 60770
L61092 60455
" />
<path d="M60092 60770
L60092 60455
" />
</g>
<g style="fill:#000000; fill-opacity:0.0; 
stroke:#000000; stroke-width:787.402; stroke-opacity:1; 
stroke-linecap:round; stroke-linejoin:round;">
<path d="M57000 61715
L57000 61715
" />
<path d="M53000 61715
L53000 61715
" />
<path d="M61112 51077
L61112 51077
" />
<path d="M61112 47077
L61112 47077
" />
<path d="M57748 59077
L57748 59077
" />
<path d="M53748 59077
L53748 59077
" />
<path d="M33562 56437
L33562 56437
" />
<path d="M33562 55437
L33562 55437
" />
<path d="M60501 43030
L60501 43030
" />
<path d="M60501 42030
L60501 42030
" />
<path d="M60501 41030
L60501 41030
" />
<path d="M60501 40030
L60501 40030
" />
<path d="M60501 39030
L60501 39030
" />
<path d="M60501 38030
L60501 38030
" />
<path d="M60501 37030
L60501 37030
" />
<path d="M60501 36030
L60501 36030
" />
<path d="M38531 26227
L38531 26227
" />
<path d="M38531 27227
L38531 27227
" />
<path d="M39531 26227
L39531 26227
" />
<path d="M39531 27227
L39531 27227
" />
<path d="M40531 26227
L40531 26227
" />
<path d="M40531 27227
L40531 27227
" />
<path d="M41531 26227
L41531 26227
" />
<path d="M41531 27227
L41531 27227
" />
<path d="M42531 26227
L42531 26227
" />
<path d="M42531 27227
L42531 27227
" />
<path d="M43531 26227
L43531 26227
" />
<path d="M43531 27227
L43531 27227
" />
<path d="M44531 26227
L44531 26227
" />
<path d="M44531 27227
L44531 27227
" />
<path d="M45531 26227
L45531 26227
" />
<path d="M45531 27227
L45531 27227
" />
<path d="M46531 26227
L46531 26227
" />
<path d="M46531 27227
L46531 27227
" />
<path d="M47531 26227
L47531 26227
" />
<path d="M47531 27227
L47531 27227
" />
<path d="M48531 26227
L48531 26227
" />
<path d="M48531 27227
L48531 27227
" />
<path d="M49531 26227
L49531 26227
" />
<path d="M49531 27227
L49531 27227
" />
<path d="M50531 26227
L50531 26227
" />
<path d="M50531 27227
L50531 27227
" />
<path d="M51531 26227
L51531 26227
" />
<path d="M51531 27227
L51531 27227
" />
<path d="M52531 26227
L52531 26227
" />
<path d="M52531 27227
L52531 27227
" />
<path d="M53531 26227
L53531 26227
" />
<path d="M53531 27227
L53531 27227
" />
<path d="M54531 26227
L54531 26227
" />
<path d="M54531 27227
L54531 27227
" />
<path d="M55531 26227
L55531 26227
" />
<path d="M55531 27227
L55531 27227
" />
<path d="M56531 26227
L56531 26227
" />
<path d="M56531 27227
L56531 27227
" />
<path d="M57531 26227
L57531 26227
" />
<path d="M57531 27227
L57531 27227
" />
<path d="M38531 54227
L38531 54227
" />
<path d="M38531 55227
L38531 55227
" />
<path d="M39531 54227
L39531 54227
" />
<path d="M39531 55227
L39531 55227
" />
<path d="M40531 54227
L40531 54227
" />
<path d="M40531 55227
L40531 55227
" />
<path d="M41531 54227
L41531 54227
" />
<path d="M41531 55227
L41531 55227
" />
<path d="M42531 54227
L42531 54227
" />
<path d="M42531 55227
L42531 55227
" />
<path d="M43531 54227
L43531 54227
" />
<path d="M43531 55227
L43531 55227
" />
<path d="M44531 54227
L44531 54227
" />
<path d="M44531 55227
L44531 55227
" />
<path d="M45531 54227
L45531 54227
" />
<path d="M45531 55227
L45531 55227
" />
<path d="M46531 54227
L46531 54227
" />
<path d="M46531 55227
L46531 55227
" />
<path d="M47531 54227
L47531 54227
" />
<path d="M47531 55227
L47531 55227
" />
<path d="M48531 54227
L48531 54227
" />
<path d="M48531 55227
L48531 55227
" />
<path d="M49531 54227
L49531 54227
" />
<path d="M49531 55227
L49531 55227
" />
<path d="M50531 54227
L50531 54227
" />
<path d="M50531 55227
L50531 55227
" />
<path d="M51531 54227
L51531 54227
" />
<path d="M51531 55227
L51531 55227
" />
<path d="M52531 54227
L52531 54227
" />
<path d="M52531 55227
L52531 55227
" />
<path d="M53531 54227
L53531 54227
" />
<path d="M53531 55227
L53531 55227
" />
<path d="M54531 54227
L54531 54227
" />
<path d="M54531 55227
L54531 55227
" />
<path d="M55531 54227
L55531 54227
" />
<path d="M55531 55227
L55531 55227
" />
<path d="M56531 54227
L56531 54227
" />
<path d="M56531 55227
L56531 55227
" />
<path d="M57531 54227
L57531 54227
" />
<path d="M57531 55227
L57531 55227
" />
<path d="M63129 44935
L63129 44935
" />
<path d="M64129 44935
L64129 44935
" />
<path d="M63129 43935
L63129 43935
" />
<path d="M64129 43935
L64129 43935
" />
<path d="M63129 42935
L63129 42935
" />
<path d="M64129 42935
L64129 42935
" />
<path d="M63129 41935
L63129 41935
" />
<path d="M64129 41935
L64129 41935
" />
<path d="M63129 40935
L63129 40935
" />
<path d="M64129 40935
L64129 40935
" />
<path d="M63129 39935
L63129 39935
" />
<path d="M64129 39935
L64129 39935
" />
<path d="M63129 38935
L63129 38935
" />
<path d="M64129 38935
L64129 38935
" />
<path d="M63129 37935
L63129 37935
" />
<path d="M64129 37935
L64129 37935
" />
<path d="M63129 36935
L63129 36935
" />
<path d="M64129 36935
L64129 36935
" />
<path d="M63129 35935
L63129 35935
" />
<path d="M64129 35935
L64129 35935
" />
<path d="M63129 34935
L63129 34935
" />
<path d="M64129 34935
L64129 34935
" />
<path d="M63129 33935
L63129 33935
" />
<path d="M64129 33935
L64129 33935
" />
<path d="M63129 32935
L63129 32935
" />
<path d="M64129 32935
L64129 32935
" />
<path d="M63129 31935
L63129 31935
" />
<path d="M64129 31935
L64129 31935
" />
<path d="M63129 30935
L63129 30935
" />
<path d="M64129 30935
L64129 30935
" />
<path d="M63129 29935
L63129 29935
" />
<path d="M64129 29935
L64129 29935
" />
<path d="M63129 28935
L63129 28935
" />
<path d="M64129 28935
L64129 28935
" />
<path d="M63129 27935
L63129 27935
" />
<path d="M64129 27935
L64129 27935
" />
<path d="M63129 26935
L63129 26935
" />
<path d="M64129 26935
L64129 26935
" />
<path d="M63129 25935
L63129 25935
" />
<path d="M64129 25935
L64129 25935
" />
<path d="M35129 44935
L35129 44935
" />
<path d="M36129 44935
L36129 44935
" />
<path d="M35129 43935
L35129 43935
" />
<path d="M36129 43935
L36129 43935
" />
<path d="M35129 42935
L35129 42935
" />
<path d="M36129 42935
L36129 42935
" />
<path d="M35129 41935
L35129 41935
" />
<path d="M36129 41935
L36129 41935
" />
<path d="M35129 40935
L35129 40935
" />
<path d="M36129 40935
L36129 40935
" />
<path d="M35129 39935
L35129 39935
" />
<path d="M36129 39935
L36129 39935
" />
<path d="M35129 38935
L35129 38935
" />
<path d="M36129 38935
L36129 38935
" />
<path d="M35129 37935
L35129 37935
" />
<path d="M36129 37935
L36129 37935
" />
<path d="M35129 36935
L35129 36935
" />
<path d="M36129 36935
L36129 36935
" />
<path d="M35129 35935
L35129 35935
" />
<path d="M36129 35935
L36129 35935
" />
<path d="M35129 34935
L35129 34935
" />
<path d="M36129 34935
L36129 34935
" />
<path d="M35129 33935
L35129 33935
" />
<path d="M36129 33935
L36129 33935
" />
<path d="M35129 32935
L35129 32935
" />
<path d="M36129 32935
L36129 32935
" />
<path d="M35129 31935
L35129 31935
" />
<path d="M36129 31935
L36129 31935
" />
<path d="M35129 30935
L35129 30935
" />
<path d="M36129 30935
L36129 30935
" />
<path d="M35129 29935
L35129 29935
" />
<path d="M36129 29935
L36129 29935
" />
<path d="M35129 28935
L35129 28935
" />
<path d="M36129 28935
L36129 28935
" />
<path d="M35129 27935
L35129 27935
" />
<path d="M36129 27935
L36129 27935
" />
<path d="M35129 26935
L35129 26935
" />
<path d="M36129 26935
L36129 26935
" />
<path d="M35129 25935
L35129 25935
" />
<path d="M36129 25935
L36129 25935
" />
</g>
<g style="fill:#000000; fill-opacity:0.0; 
stroke:#000000; stroke-width:669.291; stroke-opacity:1; 
stroke-linecap:round; stroke-linejoin:round;">
<path d="M41112 60471
L41427 60471
" />
<path d="M41112 59471
L41427 59471
" />
<path d="M41112 58471
L41427 58471
" />
</g>
<g style="fill:#000000; fill-opacity:0.0; 
stroke:#000000; stroke-width:787.402; stroke-opacity:1; 
stroke-linecap:round; stroke-linejoin:round;">
<path d="M60204 46754
L60204 46754
" />
<path d="M59204 46754
L59204 46754
" />
</g>
<g style="fill:#000000; fill-opacity:0.0; 
stroke:#000000; stroke-width:39.3701; stroke-opacity:1; 
stroke-linecap:round; stroke-linejoin:round;">
</g>
<g style="fill:#000000; fill-opacity:1.0; 
stroke:#000000; stroke-width:39.3701; stroke-opacity:1; 
stroke-linecap:round; stroke-linejoin:round;">
<circle cx="64045.3" cy="60487.1" r="374.016" /> 
<circle cx="64045.3" cy="61487.1" r="374.016" /> 
<circle cx="61104.3" cy="62099.3" r="374.016" /> 
<circle cx="62104.3" cy="62099.3" r="374.016" /> 
<circle cx="39153.5" cy="58469.4" r="374.016" /> 
<circle cx="39153.5" cy="59469.4" r="374.016" /> 
<circle cx="41238.2" cy="62050.1" r="374.016" /> 
<circle cx="40238.2" cy="62050.1" r="374.016" /> 
</g>
<g style="fill:#000000; fill-opacity:1.0; 
stroke:#000000; stroke-width:787.402; stroke-opacity:1; 
stroke-linecap:round; stroke-linejoin:round;">
<path d="M64547 58908
L64547 58908
" />
</g>
<g style="fill:#000000; fill-opacity:1.0; 
stroke:#000000; stroke-width:39.3701; stroke-opacity:1; 
stroke-linecap:round; stroke-linejoin:round;">
<circle cx="64547.2" cy="57908.3" r="374.016" /> 
</g>
<g style="fill:#000000; fill-opacity:1.0; 
stroke:#000000; stroke-width:787.402; stroke-opacity:1; 
stroke-linecap:round; stroke-linejoin:round;">
<path d="M36309 59000
L36309 59000
" />
</g>
<g style="fill:#000000; fill-opacity:1.0; 
stroke:#000000; stroke-width:39.3701; stroke-opacity:1; 
stroke-linecap:round; stroke-linejoin:round;">
<circle cx="36309.1" cy="60000.9" r="374.016" /> 
</g>
<g style="fill:#000000; fill-opacity:1.0; 
stroke:#000000; stroke-width:100; stroke-opacity:1; 
stroke-linecap:round; stroke-linejoin:round;">
<path d="M47643 67505
L47637 67494
" />
<path d="M47637 67494
L47643 67505
" />
<path d="M47643 67505
L47543 67605
" />
</g>
<g style="fill:#000000; fill-opacity:1.0; 
stroke:#000000; stroke-width:314.961; stroke-opacity:1; 
stroke-linecap:round; stroke-linejoin:round;">
<path d="M45531 54227
L45531 47424
" />
<path d="M45531 47424
L45295 47187
" />
<path d="M35129 27935
L35110 27916
" />
<path d="M32677 47187
L45295 47187
" />
<path d="M32677 27916
L32677 47187
" />
<path d="M35110 27916
L32677 27916
" />
<path d="M46531 54227
L46531 46780
" />
<path d="M46531 46780
L46053 46302
" />
<path d="M35124 28930
L35129 28935
" />
<path d="M33730 28930
L35124 28930
" />
<path d="M33730 46302
L33730 28930
" />
<path d="M46053 46302
L33730 46302
" />
<path d="M63129 34935
L63118 34924
" />
<path d="M60468 40996
L60501 41030
" />
<path d="M59232 40996
L60468 40996
" />
<path d="M59232 34924
L59232 40996
" />
<path d="M63118 34924
L59232 34924
" />
<path d="M60501 40030
L60553 40081
" />
<path d="M63118 35947
L63129 35935
" />
<path d="M61633 35947
L63118 35947
" />
<path d="M61633 40081
L61633 35947
" />
<path d="M60553 40081
L61633 40081
" />
<path d="M46929 28516
L45551 28516
" />
<path d="M45531 28496
L45531 27227
" />
<path d="M45551 28516
L45531 28496
" />
<path d="M63084 33890
L63129 33935
" />
<path d="M60728 33890
L63084 33890
" />
<path d="M60728 28516
L60728 33890
" />
<path d="M46929 28516
L60728 28516
" />
<path d="M47883 24766
L46555 24766
" />
<path d="M46531 24790
L46531 26227
" />
<path d="M46555 24766
L46531 24790
" />
<path d="M61811 24766
L47883 24766
" />
<path d="M61811 32916
L61811 24766
" />
<path d="M63110 32916
L61811 32916
" />
<path d="M63129 32935
L63110 32916
" />
<path d="M48531 54227
L48531 52652
" />
<path d="M54429 46754
L59204 46754
" />
<path d="M48531 52652
L54429 46754
" />
</g>
<g style="fill:#000000; fill-opacity:1.0; 
stroke:#000000; stroke-width:393.701; stroke-opacity:1; 
stroke-linecap:round; stroke-linejoin:round;">
<path d="M62047 59077
L62047 52012
" />
<path d="M62047 52012
L61112 51077
" />
<path d="M38531 55227
L39531 54227
" />
<path d="M38531 54227
L38531 55227
" />
<path d="M38531 55227
L39531 55227
" />
<path d="M39531 55227
L39531 54227
" />
<path d="M39531 54227
L38531 54227
" />
<path d="M38531 54227
L39531 55227
" />
<path d="M39531 55227
L39531 56699
" />
<path d="M39531 56699
L39862 57030
" />
<path d="M39862 57030
L59153 57030
" />
<path d="M59153 57030
L61200 59077
" />
<path d="M64045 60487
L64045 59410
" />
<path d="M64045 59410
L64547 58908
" />
<path d="M57748 59077
L61200 59077
" />
<path d="M61200 59077
L62047 59077
" />
<path d="M62047 59077
L62066 59077
" />
<path d="M62092 59103
L62092 60613
" />
<path d="M62066 59077
L62092 59103
" />
<path d="M64045 60487
L62218 60487
" />
<path d="M62218 60487
L62092 60613
" />
</g>
<g style="fill:#000000; fill-opacity:1.0; 
stroke:#000000; stroke-width:314.961; stroke-opacity:1; 
stroke-linecap:round; stroke-linejoin:round;">
<path d="M60501 43030
L60501 44185
" />
<path d="M64129 45912
L64129 44935
" />
<path d="M64124 45918
L64129 45912
" />
<path d="M62234 45918
L64124 45918
" />
<path d="M60501 44185
L62234 45918
" />
<path d="M61112 47077
L61326 46863
" />
<path d="M61326 46863
L60204 46754
" />
<path d="M57000 61715
L57000 60906
" />
<path d="M57000 60906
L57293 60613
" />
<path d="M53748 59077
L53748 60050
" />
<path d="M54311 60613
L57293 60613
" />
<path d="M57293 60613
L60092 60613
" />
<path d="M53748 60050
L54311 60613
" />
</g>
<g style="fill:#000000; fill-opacity:1.0; 
stroke:#000000; stroke-width:393.701; stroke-opacity:1; 
stroke-linecap:round; stroke-linejoin:round;">
<path d="M41267 58469
L41269 58471
" />
<path d="M36840 58469
L41267 58469
" />
<path d="M36309 59000
L36840 58469
" />
<path d="M34844 59000
L36309 59000
" />
<path d="M33562 57719
L34844 59000
" />
<path d="M33562 56437
L33562 57719
" />
<path d="M41269 60471
L41269 62018
" />
<path d="M41269 62018
L41238 62050
" />
<path d="M41238 62050
L49370 62050
" />
<path d="M50226 62906
L61122 62906
" />
<path d="M49370 62050
L50226 62906
" />
<path d="M66299 62345
L64163 62345
" />
<path d="M61092 62087
L61092 60613
" />
<path d="M61122 62117
L61092 62087
" />
<path d="M61122 63034
L61122 62906
" />
<path d="M61122 62906
L61122 62117
" />
<path d="M61131 63044
L61122 63034
" />
<path d="M63464 63044
L61131 63044
" />
<path d="M64163 62345
L63464 63044
" />
</g>
<g style="fill:#FFFFFF; fill-opacity:1.0; 
stroke:#FFFFFF; stroke-width:39.3701; stroke-opacity:1; 
stroke-linecap:round; stroke-linejoin:round;">
<circle cx="66299.2" cy="59215.4" r="118.11" /> 
<circle cx="66299.2" cy="60770.6" r="118.11" /> 
<circle cx="66299.2" cy="57660.3" r="118.11" /> 
<circle cx="66299.2" cy="62345.4" r="118.11" /> 
<circle cx="62092.5" cy="60613.1" r="118.11" /> 
<circle cx="61092.5" cy="60613.1" r="118.11" /> 
<circle cx="60092.5" cy="60613.1" r="118.11" /> 
<circle cx="57000" cy="61715.4" r="118.11" /> 
<circle cx="53000" cy="61715.4" r="118.11" /> 
<circle cx="61112.2" cy="51077.6" r="118.11" /> 
<circle cx="61112.2" cy="47077.6" r="118.11" /> 
<circle cx="57748" cy="59077.6" r="118.11" /> 
<circle cx="53748" cy="59077.6" r="118.11" /> 
<circle cx="33563" cy="56437.9" r="118.11" /> 
<circle cx="33563" cy="55437.9" r="118.11" /> 
<circle cx="60502" cy="43030.4" r="118.11" /> 
<circle cx="60502" cy="42030.4" r="118.11" /> 
<circle cx="60502" cy="41030.4" r="118.11" /> 
<circle cx="60502" cy="40030.4" r="118.11" /> 
<circle cx="60502" cy="39030.4" r="118.11" /> 
<circle cx="60502" cy="38030.4" r="118.11" /> 
<circle cx="60502" cy="37030.4" r="118.11" /> 
<circle cx="60502" cy="36030.4" r="118.11" /> 
<circle cx="38531.5" cy="26227.2" r="118.11" /> 
<circle cx="38531.5" cy="27227.2" r="118.11" /> 
<circle cx="39531.5" cy="26227.2" r="118.11" /> 
<circle cx="39531.5" cy="27227.2" r="118.11" /> 
<circle cx="40531.5" cy="26227.2" r="118.11" /> 
<circle cx="40531.5" cy="27227.2" r="118.11" /> 
<circle cx="41531.5" cy="26227.2" r="118.11" /> 
<circle cx="41531.5" cy="27227.2" r="118.11" /> 
<circle cx="42531.5" cy="26227.2" r="118.11" /> 
<circle cx="42531.5" cy="27227.2" r="118.11" /> 
<circle cx="43531.5" cy="26227.2" r="118.11" /> 
<circle cx="43531.5" cy="27227.2" r="118.11" /> 
<circle cx="44531.5" cy="26227.2" r="118.11" /> 
<circle cx="44531.5" cy="27227.2" r="118.11" /> 
<circle cx="45531.5" cy="26227.2" r="118.11" /> 
<circle cx="45531.5" cy="27227.2" r="118.11" /> 
<circle cx="46531.5" cy="26227.2" r="118.11" /> 
<circle cx="46531.5" cy="27227.2" r="118.11" /> 
<circle cx="47531.5" cy="26227.2" r="118.11" /> 
<circle cx="47531.5" cy="27227.2" r="118.11" /> 
<circle cx="48531.5" cy="26227.2" r="118.11" /> 
<circle cx="48531.5" cy="27227.2" r="118.11" /> 
<circle cx="49531.5" cy="26227.2" r="118.11" /> 
<circle cx="49531.5" cy="27227.2" r="118.11" /> 
<circle cx="50531.5" cy="26227.2" r="118.11" /> 
<circle cx="50531.5" cy="27227.2" r="118.11" /> 
<circle cx="51531.5" cy="26227.2" r="118.11" /> 
<circle cx="51531.5" cy="27227.2" r="118.11" /> 
<circle cx="52531.5" cy="26227.2" r="118.11" /> 
<circle cx="52531.5" cy="27227.2" r="118.11" /> 
<circle cx="53531.5" cy="26227.2" r="118.11" /> 
<circle cx="53531.5" cy="27227.2" r="118.11" /> 
<circle cx="54531.5" cy="26227.2" r="118.11" /> 
<circle cx="54531.5" cy="27227.2" r="118.11" /> 
<circle cx="55531.5" cy="26227.2" r="118.11" /> 
<circle cx="55531.5" cy="27227.2" r="118.11" /> 
<circle cx="56531.5" cy="26227.2" r="118.11" /> 
<circle cx="56531.5" cy="27227.2" r="118.11" /> 
<circle cx="57531.5" cy="26227.2" r="118.11" /> 
<circle cx="57531.5" cy="27227.2" r="118.11" /> 
<circle cx="38531.5" cy="54227.2" r="118.11" /> 
<circle cx="38531.5" cy="55227.2" r="118.11" /> 
<circle cx="39531.5" cy="54227.2" r="118.11" /> 
<circle cx="39531.5" cy="55227.2" r="118.11" /> 
<circle cx="40531.5" cy="54227.2" r="118.11" /> 
<circle cx="40531.5" cy="55227.2" r="118.11" /> 
<circle cx="41531.5" cy="54227.2" r="118.11" /> 
<circle cx="41531.5" cy="55227.2" r="118.11" /> 
<circle cx="42531.5" cy="54227.2" r="118.11" /> 
<circle cx="42531.5" cy="55227.2" r="118.11" /> 
<circle cx="43531.5" cy="54227.2" r="118.11" /> 
<circle cx="43531.5" cy="55227.2" r="118.11" /> 
<circle cx="44531.5" cy="54227.2" r="118.11" /> 
<circle cx="44531.5" cy="55227.2" r="118.11" /> 
<circle cx="45531.5" cy="54227.2" r="118.11" /> 
<circle cx="45531.5" cy="55227.2" r="118.11" /> 
<circle cx="46531.5" cy="54227.2" r="118.11" /> 
<circle cx="46531.5" cy="55227.2" r="118.11" /> 
<circle cx="47531.5" cy="54227.2" r="118.11" /> 
<circle cx="47531.5" cy="55227.2" r="118.11" /> 
<circle cx="48531.5" cy="54227.2" r="118.11" /> 
<circle cx="48531.5" cy="55227.2" r="118.11" /> 
<circle cx="49531.5" cy="54227.2" r="118.11" /> 
<circle cx="49531.5" cy="55227.2" r="118.11" /> 
<circle cx="50531.5" cy="54227.2" r="118.11" /> 
<circle cx="50531.5" cy="55227.2" r="118.11" /> 
<circle cx="51531.5" cy="54227.2" r="118.11" /> 
<circle cx="51531.5" cy="55227.2" r="118.11" /> 
<circle cx="52531.5" cy="54227.2" r="118.11" /> 
<circle cx="52531.5" cy="55227.2" r="118.11" /> 
<circle cx="53531.5" cy="54227.2" r="118.11" /> 
<circle cx="53531.5" cy="55227.2" r="118.11" /> 
<circle cx="54531.5" cy="54227.2" r="118.11" /> 
<circle cx="54531.5" cy="55227.2" r="118.11" /> 
<circle cx="55531.5" cy="54227.2" r="118.11" /> 
<circle cx="55531.5" cy="55227.2" r="118.11" /> 
<circle cx="56531.5" cy="54227.2" r="118.11" /> 
<circle cx="56531.5" cy="55227.2" r="118.11" /> 
<circle cx="57531.5" cy="54227.2" r="118.11" /> 
<circle cx="57531.5" cy="55227.2" r="118.11" /> 
<circle cx="63129.9" cy="44935.9" r="118.11" /> 
<circle cx="64129.9" cy="44935.9" r="118.11" /> 
<circle cx="63129.9" cy="43935.9" r="118.11" /> 
<circle cx="64129.9" cy="43935.9" r="118.11" /> 
<circle cx="63129.9" cy="42935.9" r="118.11" /> 
<circle cx="64129.9" cy="42935.9" r="118.11" /> 
<circle cx="63129.9" cy="41935.9" r="118.11" /> 
<circle cx="64129.9" cy="41935.9" r="118.11" /> 
<circle cx="63129.9" cy="40935.9" r="118.11" /> 
<circle cx="64129.9" cy="40935.9" r="118.11" /> 
<circle cx="63129.9" cy="39935.9" r="118.11" /> 
<circle cx="64129.9" cy="39935.9" r="118.11" /> 
<circle cx="63129.9" cy="38935.9" r="118.11" /> 
<circle cx="64129.9" cy="38935.9" r="118.11" /> 
<circle cx="63129.9" cy="37935.9" r="118.11" /> 
<circle cx="64129.9" cy="37935.9" r="118.11" /> 
<circle cx="63129.9" cy="36935.9" r="118.11" /> 
<circle cx="64129.9" cy="36935.9" r="118.11" /> 
<circle cx="63129.9" cy="35935.9" r="118.11" /> 
<circle cx="64129.9" cy="35935.9" r="118.11" /> 
<circle cx="63129.9" cy="34935.9" r="118.11" /> 
<circle cx="64129.9" cy="34935.9" r="118.11" /> 
<circle cx="63129.9" cy="33935.9" r="118.11" /> 
<circle cx="64129.9" cy="33935.9" r="118.11" /> 
<circle cx="63129.9" cy="32935.9" r="118.11" /> 
<circle cx="64129.9" cy="32935.9" r="118.11" /> 
<circle cx="63129.9" cy="31935.9" r="118.11" /> 
<circle cx="64129.9" cy="31935.9" r="118.11" /> 
<circle cx="63129.9" cy="30935.9" r="118.11" /> 
<circle cx="64129.9" cy="30935.9" r="118.11" /> 
<circle cx="63129.9" cy="29935.9" r="118.11" /> 
<circle cx="64129.9" cy="29935.9" r="118.11" /> 
<circle cx="63129.9" cy="28935.9" r="118.11" /> 
<circle cx="64129.9" cy="28935.9" r="118.11" /> 
<circle cx="63129.9" cy="27935.9" r="118.11" /> 
<circle cx="64129.9" cy="27935.9" r="118.11" /> 
<circle cx="63129.9" cy="26935.9" r="118.11" /> 
<circle cx="64129.9" cy="26935.9" r="118.11" /> 
<circle cx="63129.9" cy="25935.9" r="118.11" /> 
<circle cx="64129.9" cy="25935.9" r="118.11" /> 
<circle cx="35129.9" cy="44935.9" r="118.11" /> 
<circle cx="36129.9" cy="44935.9" r="118.11" /> 
<circle cx="35129.9" cy="43935.9" r="118.11" /> 
<circle cx="36129.9" cy="43935.9" r="118.11" /> 
<circle cx="35129.9" cy="42935.9" r="118.11" /> 
<circle cx="36129.9" cy="42935.9" r="118.11" /> 
<circle cx="35129.9" cy="41935.9" r="118.11" /> 
<circle cx="36129.9" cy="41935.9" r="118.11" /> 
<circle cx="35129.9" cy="40935.9" r="118.11" /> 
<circle cx="36129.9" cy="40935.9" r="118.11" /> 
<circle cx="35129.9" cy="39935.9" r="118.11" /> 
<circle cx="36129.9" cy="39935.9" r="118.11" /> 
<circle cx="35129.9" cy="38935.9" r="118.11" /> 
<circle cx="36129.9" cy="38935.9" r="118.11" /> 
<circle cx="35129.9" cy="37935.9" r="118.11" /> 
<circle cx="36129.9" cy="37935.9" r="118.11" /> 
<circle cx="35129.9" cy="36935.9" r="118.11" /> 
<circle cx="36129.9" cy="36935.9" r="118.11" /> 
<circle cx="35129.9" cy="35935.9" r="118.11" /> 
<circle cx="36129.9" cy="35935.9" r="118.11" /> 
<circle cx="35129.9" cy="34935.9" r="118.11" /> 
<circle cx="36129.9" cy="34935.9" r="118.11" /> 
<circle cx="35129.9" cy="33935.9" r="118.11" /> 
<circle cx="36129.9" cy="33935.9" r="118.11" /> 
<circle cx="35129.9" cy="32935.9" r="118.11" /> 
<circle cx="36129.9" cy="32935.9" r="118.11" /> 
<circle cx="35129.9" cy="31935.9" r="118.11" /> 
<circle cx="36129.9" cy="31935.9" r="118.11" /> 
<circle cx="35129.9" cy="30935.9" r="118.11" /> 
<circle cx="36129.9" cy="30935.9" r="118.11" /> 
<circle cx="35129.9" cy="29935.9" r="118.11" /> 
<circle cx="36129.9" cy="29935.9" r="118.11" /> 
<circle cx="35129.9" cy="28935.9" r="118.11" /> 
<circle cx="36129.9" cy="28935.9" r="118.11" /> 
<circle cx="35129.9" cy="27935.9" r="118.11" /> 
<circle cx="36129.9" cy="27935.9" r="118.11" /> 
<circle cx="35129.9" cy="26935.9" r="118.11" /> 
<circle cx="36129.9" cy="26935.9" r="118.11" /> 
<circle cx="35129.9" cy="25935.9" r="118.11" /> 
<circle cx="36129.9" cy="25935.9" r="118.11" /> 
<circle cx="41269.7" cy="60471.3" r="118.11" /> 
<circle cx="41269.7" cy="59471.3" r="118.11" /> 
<circle cx="41269.7" cy="58471.3" r="118.11" /> 
<circle cx="60204.7" cy="46754.8" r="118.11" /> 
<circle cx="59204.7" cy="46754.8" r="118.11" /> 
<circle cx="64045.3" cy="60487.1" r="118.11" /> 
<circle cx="64045.3" cy="61487.1" r="118.11" /> 
<circle cx="61104.3" cy="62099.3" r="118.11" /> 
<circle cx="62104.3" cy="62099.3" r="118.11" /> 
<circle cx="39153.5" cy="58469.4" r="118.11" /> 
<circle cx="39153.5" cy="59469.4" r="118.11" /> 
<circle cx="41238.2" cy="62050.1" r="118.11" /> 
<circle cx="40238.2" cy="62050.1" r="118.11" /> 
<circle cx="64547.2" cy="58908.3" r="118.11" /> 
<circle cx="64547.2" cy="57908.3" r="118.11" /> 
<circle cx="36309.1" cy="59000.9" r="118.11" /> 
<circle cx="36309.1" cy="60000.9" r="118.11" /> 
</g> 
</svg>
