<?xml version="1.0" standalone="no"?>
 <!DOCTYPE svg PUBLIC "-//W3C//DTD SVG 1.1//EN" 
 "http://www.w3.org/Graphics/SVG/1.1/DTD/svg11.dtd"> 
<svg xmlns="http://www.w3.org/2000/svg" version="1.1" 
    width="14.6812cm" height="16.1315cm" viewBox="0 0 57800 63510 ">
<title>SVG Picture created as poncho_rescatAR-Dwgs_User.svg date 2015/12/02 13:37:01 </title>
  <desc>Picture generated by PCBNEW </desc>
<g style="fill:#000000; fill-opacity:1;stroke:#000000; stroke-opacity:1;
stroke-linecap:round; stroke-linejoin:round; "
 transform="translate(0 0) scale(1 1)">
</g>
<g style="fill:#000000; fill-opacity:0.0; 
stroke:#000000; stroke-width:98.4252; stroke-opacity:1; 
stroke-linecap:round; stroke-linejoin:round;">
<path d="M45621 34711
L45621 34486
" />
<path d="M45621 34599
L45228 34599
L45284 34561
L45321 34524
L45340 34486
" />
<path d="M45228 34955
L45228 34992
L45247 35030
L45265 35049
L45303 35067
L45378 35086
L45471 35086
L45546 35067
L45584 35049
L45603 35030
L45621 34992
L45621 34955
L45603 34917
L45584 34899
L45546 34880
L45471 34861
L45378 34861
L45303 34880
L45265 34899
L45247 34917
L45228 34955
" />
<path d="M45228 35330
L45228 35367
L45247 35405
L45265 35424
L45303 35442
L45378 35461
L45471 35461
L45546 35442
L45584 35424
L45603 35405
L45621 35367
L45621 35330
L45603 35292
L45584 35274
L45546 35255
L45471 35236
L45378 35236
L45303 35255
L45265 35274
L45247 35292
L45228 35330
" />
<path d="M45603 35649
L45621 35649
L45659 35630
L45678 35611
" />
<path d="M45228 35892
L45228 35930
L45247 35967
L45265 35986
L45303 36005
L45378 36024
L45471 36024
L45546 36005
L45584 35986
L45603 35967
L45621 35930
L45621 35892
L45603 35855
L45584 35836
L45546 35817
L45471 35799
L45378 35799
L45303 35817
L45265 35836
L45247 35855
L45228 35892
" />
<path d="M45228 36267
L45228 36305
L45247 36342
L45265 36361
L45303 36380
L45378 36399
L45471 36399
L45546 36380
L45584 36361
L45603 36342
L45621 36305
L45621 36267
L45603 36230
L45584 36211
L45546 36192
L45471 36174
L45378 36174
L45303 36192
L45265 36211
L45247 36230
L45228 36267
" />
<path d="M45228 36642
L45228 36680
L45247 36717
L45265 36736
L45303 36755
L45378 36773
L45471 36773
L45546 36755
L45584 36736
L45603 36717
L45621 36680
L45621 36642
L45603 36605
L45584 36586
L45546 36567
L45471 36548
L45378 36548
L45303 36567
L45265 36586
L45247 36605
L45228 36642
" />
<path d="M45621 37242
L45359 37242
" />
<path d="M45396 37242
L45378 37261
L45359 37298
L45359 37355
L45378 37392
L45415 37411
L45621 37411
" />
<path d="M45415 37411
L45378 37430
L45359 37467
L45359 37523
L45378 37561
L45415 37580
L45621 37580
" />
<path d="M45621 37767
L45359 37767
" />
<path d="M45396 37767
L45378 37786
L45359 37823
L45359 37880
L45378 37917
L45415 37936
L45621 37936
" />
<path d="M45415 37936
L45378 37955
L45359 37992
L45359 38048
L45378 38086
L45415 38105
L45621 38105
" />
<path d="M45068 16620
L45068 55990
" />
<path d="M36909 16620
L45856 16620
" />
<path d="M36909 55990
L45856 55990
" />
<path d="M45068 55990
L45299 55546
" />
<path d="M45068 55990
L44838 55546
" />
<path d="M45068 16620
L45299 17063
" />
<path d="M45068 16620
L44838 17063
" />
<path d="M18787 622
L19049 621
L18880 228
" />
<path d="M19162 621
L19405 621
L19274 471
L19330 471
L19367 452
L19386 433
L19405 396
L19405 302
L19386 264
L19367 246
L19330 227
L19217 227
L19180 246
L19161 265
" />
<path d="M19592 245
L19592 227
L19573 189
L19554 170
" />
<path d="M19724 620
L19986 620
L19817 226
" />
<path d="M20324 619
L20136 619
L20117 432
L20136 451
L20174 469
L20267 469
L20305 450
L20324 432
L20342 394
L20342 300
L20323 263
L20304 244
L20267 225
L20173 226
L20136 244
L20117 263
" />
<path d="M20586 619
L20624 619
L20661 600
L20680 581
L20699 543
L20717 468
L20717 375
L20698 300
L20679 262
L20661 244
L20623 225
L20586 225
L20548 244
L20529 262
L20511 300
L20492 375
L20492 469
L20511 544
L20530 581
L20549 600
L20586 619
" />
<path d="M21186 224
L21186 486
" />
<path d="M21186 449
L21205 468
L21242 486
L21299 486
L21336 467
L21355 430
L21354 224
" />
<path d="M21355 430
L21373 467
L21411 486
L21467 486
L21505 467
L21523 429
L21523 223
" />
<path d="M21711 223
L21711 485
" />
<path d="M21711 448
L21730 467
L21767 485
L21823 485
L21861 466
L21880 429
L21879 223
" />
<path d="M21880 429
L21898 466
L21936 485
L21992 485
L22030 466
L22048 429
L22048 222
" />
<path d="M5918 783
L34954 773
" />
<path d="M5925 19464
L5918 -3
" />
<path d="M34960 19454
L34954 -13
" />
<path d="M34954 773
L34510 543
" />
<path d="M34954 773
L34510 1004
" />
<path d="M5918 783
L6362 552
" />
<path d="M5918 783
L6362 1014
" />
<path d="M1635 16575
L1635 16837
L2029 16668
" />
<path d="M2010 17006
L2029 17006
L2066 16987
L2085 16968
" />
<path d="M1673 17156
L1654 17175
L1635 17212
L1635 17306
L1654 17343
L1673 17362
L1710 17381
L1748 17381
L1804 17362
L2029 17137
L2029 17381
" />
<path d="M1635 17625
L1635 17662
L1654 17700
L1673 17718
L1710 17737
L1785 17756
L1879 17756
L1954 17737
L1991 17718
L2010 17700
L2029 17662
L2029 17625
L2010 17587
L1991 17568
L1954 17550
L1879 17531
L1785 17531
L1710 17550
L1673 17568
L1654 17587
L1635 17625
" />
<path d="M1635 18000
L1635 18037
L1654 18075
L1673 18093
L1710 18112
L1785 18131
L1879 18131
L1954 18112
L1991 18093
L2010 18075
L2029 18037
L2029 18000
L2010 17962
L1991 17943
L1954 17925
L1879 17906
L1785 17906
L1710 17925
L1673 17943
L1654 17962
L1635 18000
" />
<path d="M2029 18599
L1766 18599
" />
<path d="M1804 18599
L1785 18618
L1766 18656
L1766 18712
L1785 18749
L1823 18768
L2029 18768
" />
<path d="M1823 18768
L1785 18787
L1766 18824
L1766 18881
L1785 18918
L1823 18937
L2029 18937
" />
<path d="M2029 19124
L1766 19124
" />
<path d="M1804 19124
L1785 19143
L1766 19181
L1766 19237
L1785 19274
L1823 19293
L2029 19293
" />
<path d="M1823 19293
L1785 19312
L1766 19349
L1766 19406
L1785 19443
L1823 19462
L2029 19462
" />
<path d="M2263 16620
L2263 19454
" />
<path d="M3444 16620
L1476 16620
" />
<path d="M3444 19454
L1476 19454
" />
<path d="M2263 19454
L2494 19011
" />
<path d="M2263 19454
L2032 19011
" />
<path d="M2263 16620
L2494 17063
" />
<path d="M2263 16620
L2032 17063
" />
<path d="M3448 14954
L3373 14954
L3336 14936
L3317 14917
L3279 14861
L3261 14786
L3261 14636
L3279 14598
L3298 14580
L3336 14561
L3411 14561
L3448 14580
L3467 14598
L3486 14636
L3486 14730
L3467 14767
L3448 14786
L3411 14804
L3336 14804
L3298 14786
L3279 14767
L3261 14730
" />
<path d="M3673 14580
L3673 14561
L3654 14523
L3636 14505
" />
<path d="M4011 14823
L4011 14561
" />
<path d="M3917 14973
L3823 14692
L4067 14692
" />
<path d="M4292 14954
L4329 14954
L4367 14936
L4386 14917
L4404 14879
L4423 14804
L4423 14711
L4404 14636
L4386 14598
L4367 14580
L4329 14561
L4292 14561
L4254 14580
L4236 14598
L4217 14636
L4198 14711
L4198 14804
L4217 14879
L4236 14917
L4254 14936
L4292 14954
" />
<path d="M4667 14954
L4704 14954
L4742 14936
L4760 14917
L4779 14879
L4798 14804
L4798 14711
L4779 14636
L4760 14598
L4742 14580
L4704 14561
L4667 14561
L4629 14580
L4610 14598
L4592 14636
L4573 14711
L4573 14804
L4592 14879
L4610 14917
L4629 14936
L4667 14954
" />
<path d="M5267 14561
L5267 14823
" />
<path d="M5267 14786
L5285 14804
L5323 14823
L5379 14823
L5417 14804
L5435 14767
L5435 14561
" />
<path d="M5435 14767
L5454 14804
L5492 14823
L5548 14823
L5585 14804
L5604 14767
L5604 14561
" />
<path d="M5792 14561
L5792 14823
" />
<path d="M5792 14786
L5810 14804
L5848 14823
L5904 14823
L5942 14804
L5960 14767
L5960 14561
" />
<path d="M5960 14767
L5979 14804
L6017 14823
L6073 14823
L6110 14804
L6129 14767
L6129 14561
" />
<path d="M3444 15114
L5964 15114
" />
<path d="M3444 16620
L3444 14326
" />
<path d="M5964 16620
L5964 14326
" />
<path d="M5964 15114
L5521 14883
" />
<path d="M5964 15114
L5521 15345
" />
<path d="M3444 15114
L3888 14883
" />
<path d="M3444 15114
L3888 15345
" />
<path d="M56025 38451
L56025 38226
" />
<path d="M56025 38339
L55631 38339
L55688 38301
L55725 38264
L55744 38226
" />
<path d="M56025 38826
L56025 38601
" />
<path d="M56025 38714
L55631 38714
L55688 38676
L55725 38639
L55744 38601
" />
<path d="M56025 39014
L56025 39089
L56006 39126
L55988 39145
L55931 39183
L55856 39201
L55706 39201
L55669 39183
L55650 39164
L55631 39126
L55631 39051
L55650 39014
L55669 38995
L55706 38976
L55800 38976
L55838 38995
L55856 39014
L55875 39051
L55875 39126
L55856 39164
L55838 39183
L55800 39201
" />
<path d="M56006 39389
L56025 39389
L56062 39370
L56081 39351
" />
<path d="M55631 39632
L55631 39670
L55650 39707
L55669 39726
L55706 39745
L55781 39764
L55875 39764
L55950 39745
L55988 39726
L56006 39707
L56025 39670
L56025 39632
L56006 39595
L55988 39576
L55950 39557
L55875 39539
L55781 39539
L55706 39557
L55669 39576
L55650 39595
L55631 39632
" />
<path d="M55631 40007
L55631 40045
L55650 40082
L55669 40101
L55706 40120
L55781 40139
L55875 40139
L55950 40120
L55988 40101
L56006 40082
L56025 40045
L56025 40007
L56006 39970
L55988 39951
L55950 39932
L55875 39914
L55781 39914
L55706 39932
L55669 39951
L55650 39970
L55631 40007
" />
<path d="M55631 40382
L55631 40420
L55650 40457
L55669 40476
L55706 40495
L55781 40514
L55875 40514
L55950 40495
L55988 40476
L56006 40457
L56025 40420
L56025 40382
L56006 40345
L55988 40326
L55950 40307
L55875 40289
L55781 40289
L55706 40307
L55669 40326
L55650 40345
L55631 40382
" />
<path d="M56025 40982
L55763 40982
" />
<path d="M55800 40982
L55781 41001
L55763 41039
L55763 41095
L55781 41132
L55819 41151
L56025 41151
" />
<path d="M55819 41151
L55781 41170
L55763 41207
L55763 41264
L55781 41301
L55819 41320
L56025 41320
" />
<path d="M56025 41507
L55763 41507
" />
<path d="M55800 41507
L55781 41526
L55763 41563
L55763 41620
L55781 41657
L55819 41676
L56025 41676
" />
<path d="M55819 41676
L55781 41695
L55763 41732
L55763 41788
L55781 41826
L55819 41845
L56025 41845
" />
<path d="M55472 16620
L55472 63470
" />
<path d="M36909 16620
L56259 16620
" />
<path d="M36909 63470
L56259 63470
" />
<path d="M55472 63470
L55703 63027
" />
<path d="M55472 63470
L55241 63027
" />
<path d="M55472 16620
L55703 17063
" />
<path d="M55472 16620
L55241 17063
" />
</g>
<g style="fill:#000000; fill-opacity:0.0; 
stroke:#000000; stroke-width:78.7402; stroke-opacity:1; 
stroke-linecap:round; stroke-linejoin:round;">
<path d="M36909 16620
L36909 16610
" />
</g>
<g style="fill:#000000; fill-opacity:0.0; 
stroke:#000000; stroke-width:98.4252; stroke-opacity:1; 
stroke-linecap:round; stroke-linejoin:round;">
<path d="M18621 10878
L18583 10897
L18564 10916
L18546 10953
L18546 10972
L18564 11010
L18583 11028
L18621 11047
L18696 11047
L18733 11028
L18752 11010
L18771 10972
L18771 10953
L18752 10916
L18733 10897
L18696 10878
L18621 10878
L18583 10860
L18564 10841
L18546 10803
L18546 10728
L18564 10691
L18583 10672
L18621 10653
L18696 10653
L18733 10672
L18752 10691
L18771 10728
L18771 10803
L18752 10841
L18733 10860
L18696 10878
" />
<path d="M19127 11047
L18939 11047
L18921 10860
L18939 10878
L18977 10897
L19071 10897
L19108 10878
L19127 10860
L19146 10822
L19146 10728
L19127 10691
L19108 10672
L19071 10653
L18977 10653
L18939 10672
L18921 10691
" />
<path d="M19333 10672
L19333 10653
L19314 10616
L19296 10597
" />
<path d="M19577 11047
L19614 11047
L19652 11028
L19670 11010
L19689 10972
L19708 10897
L19708 10803
L19689 10728
L19670 10691
L19652 10672
L19614 10653
L19577 10653
L19539 10672
L19520 10691
L19502 10728
L19483 10803
L19483 10897
L19502 10972
L19520 11010
L19539 11028
L19577 11047
" />
<path d="M19952 11047
L19989 11047
L20027 11028
L20045 11010
L20064 10972
L20083 10897
L20083 10803
L20064 10728
L20045 10691
L20027 10672
L19989 10653
L19952 10653
L19914 10672
L19895 10691
L19877 10728
L19858 10803
L19858 10897
L19877 10972
L19895 11010
L19914 11028
L19952 11047
" />
<path d="M20327 11047
L20364 11047
L20402 11028
L20420 11010
L20439 10972
L20458 10897
L20458 10803
L20439 10728
L20420 10691
L20402 10672
L20364 10653
L20327 10653
L20289 10672
L20270 10691
L20252 10728
L20233 10803
L20233 10897
L20252 10972
L20270 11010
L20289 11028
L20327 11047
" />
<path d="M20927 10653
L20927 10916
" />
<path d="M20927 10878
L20945 10897
L20983 10916
L21039 10916
L21077 10897
L21095 10860
L21095 10653
" />
<path d="M21095 10860
L21114 10897
L21152 10916
L21208 10916
L21245 10897
L21264 10860
L21264 10653
" />
<path d="M21452 10653
L21452 10916
" />
<path d="M21452 10878
L21470 10897
L21508 10916
L21564 10916
L21601 10897
L21620 10860
L21620 10653
" />
<path d="M21620 10860
L21639 10897
L21676 10916
L21733 10916
L21770 10897
L21789 10860
L21789 10653
" />
<path d="M36909 11206
L3444 11206
" />
<path d="M36909 16610
L36909 10419
" />
<path d="M3444 16610
L3444 10419
" />
<path d="M3444 11206
L3888 11437
" />
<path d="M3444 11206
L3888 10975
" />
<path d="M36909 11206
L36465 11437
" />
<path d="M36909 11206
L36465 10975
" />
</g> 
</svg>
