<?xml version="1.0" standalone="no"?>
 <!DOCTYPE svg PUBLIC "-//W3C//DTD SVG 1.1//EN" 
 "http://www.w3.org/Graphics/SVG/1.1/DTD/svg11.dtd"> 
<svg xmlns="http://www.w3.org/2000/svg" version="1.1" 
    width="29.7002cm" height="21.0007cm" viewBox="0 0 116930 82680 ">
<title>SVG Picture created as poncho_rescatAR-B_Cu.svg date 2015/12/04 11:41:41 </title>
  <desc>Picture generated by PCBNEW </desc>
<g style="fill:#000000; fill-opacity:1;stroke:#000000; stroke-opacity:1;
stroke-linecap:round; stroke-linejoin:round; "
 transform="translate(0 0) scale(1 1)">
</g>
<g style="fill:#000000; fill-opacity:0.0; 
stroke:#000000; stroke-width:98.4252; stroke-opacity:1; 
stroke-linecap:round; stroke-linejoin:round;">
<path d="M86722 46792
L86722 47054
" />
<path d="M86722 46979
L86703 47017
L86684 47036
L86647 47054
L86609 47054
" />
<path d="M86328 46811
L86366 46792
L86441 46792
L86478 46811
L86497 46848
L86497 46998
L86478 47036
L86441 47054
L86366 47054
L86328 47036
L86309 46998
L86309 46961
L86497 46923
" />
<path d="M86160 46811
L86122 46792
L86047 46792
L86010 46811
L85991 46848
L85991 46867
L86010 46904
L86047 46923
L86103 46923
L86141 46942
L86160 46979
L86160 46998
L86141 47036
L86103 47054
L86047 47054
L86010 47036
" />
<path d="M85653 46811
L85691 46792
L85766 46792
L85803 46811
L85822 46829
L85841 46867
L85841 46979
L85822 47017
L85803 47036
L85766 47054
L85691 47054
L85653 47036
" />
<path d="M85316 46792
L85316 46998
L85335 47036
L85372 47054
L85447 47054
L85485 47036
" />
<path d="M85316 46811
L85353 46792
L85447 46792
L85485 46811
L85503 46848
L85503 46886
L85485 46923
L85447 46942
L85353 46942
L85316 46961
" />
<path d="M85185 47054
L85035 47054
" />
<path d="M85128 47185
L85128 46848
L85110 46811
L85072 46792
L85035 46792
" />
<path d="M84922 46904
L84735 46904
" />
<path d="M84960 46792
L84828 47185
L84697 46792
" />
<path d="M84341 46792
L84472 46979
" />
<path d="M84566 46792
L84566 47185
L84416 47185
L84378 47167
L84360 47148
L84341 47111
L84341 47054
L84360 47017
L84378 46998
L84416 46979
L84566 46979
" />
</g>
<g style="fill:#000000; fill-opacity:0.0; 
stroke:#000000; stroke-width:669.291; stroke-opacity:1; 
stroke-linecap:round; stroke-linejoin:round;">
<path d="M103080 69910
L103395 69910
" />
<path d="M103080 68910
L103395 68910
" />
<path d="M103080 67910
L103395 67910
" />
</g>
<g style="fill:#000000; fill-opacity:0.0; 
stroke:#000000; stroke-width:787.402; stroke-opacity:1; 
stroke-linecap:round; stroke-linejoin:round;">
<path d="M91210 68418
L91210 68418
" />
<path d="M89655 68418
L89655 68418
" />
<path d="M92765 68418
L92765 68418
" />
<path d="M88080 68418
L88080 68418
" />
<path d="M98187 66075
L98187 66075
" />
<path d="M102187 66075
L102187 66075
" />
<path d="M96978 63695
L96978 63695
" />
<path d="M96978 59695
L96978 59695
" />
<path d="M97271 67542
L97271 67542
" />
<path d="M101271 67542
L101271 67542
" />
<path d="M68622 66004
L68622 66004
" />
<path d="M68622 65004
L68622 65004
" />
<path d="M98159 52597
L98159 52597
" />
<path d="M98159 51597
L98159 51597
" />
<path d="M98159 50597
L98159 50597
" />
<path d="M98159 49597
L98159 49597
" />
<path d="M98159 48597
L98159 48597
" />
<path d="M98159 47597
L98159 47597
" />
<path d="M98159 46597
L98159 46597
" />
<path d="M98159 45597
L98159 45597
" />
<path d="M75145 35794
L75145 35794
" />
<path d="M75145 36794
L75145 36794
" />
<path d="M76145 35794
L76145 35794
" />
<path d="M76145 36794
L76145 36794
" />
<path d="M77145 35794
L77145 35794
" />
<path d="M77145 36794
L77145 36794
" />
<path d="M78145 35794
L78145 35794
" />
<path d="M78145 36794
L78145 36794
" />
<path d="M79145 35794
L79145 35794
" />
<path d="M79145 36794
L79145 36794
" />
<path d="M80145 35794
L80145 35794
" />
<path d="M80145 36794
L80145 36794
" />
<path d="M81145 35794
L81145 35794
" />
<path d="M81145 36794
L81145 36794
" />
<path d="M82145 35794
L82145 35794
" />
<path d="M82145 36794
L82145 36794
" />
<path d="M83145 35794
L83145 35794
" />
<path d="M83145 36794
L83145 36794
" />
<path d="M84145 35794
L84145 35794
" />
<path d="M84145 36794
L84145 36794
" />
<path d="M85145 35794
L85145 35794
" />
<path d="M85145 36794
L85145 36794
" />
<path d="M86145 35794
L86145 35794
" />
<path d="M86145 36794
L86145 36794
" />
<path d="M87145 35794
L87145 35794
" />
<path d="M87145 36794
L87145 36794
" />
<path d="M88145 35794
L88145 35794
" />
<path d="M88145 36794
L88145 36794
" />
<path d="M89145 35794
L89145 35794
" />
<path d="M89145 36794
L89145 36794
" />
<path d="M90145 35794
L90145 35794
" />
<path d="M90145 36794
L90145 36794
" />
<path d="M91145 35794
L91145 35794
" />
<path d="M91145 36794
L91145 36794
" />
<path d="M92145 35794
L92145 35794
" />
<path d="M92145 36794
L92145 36794
" />
<path d="M93145 35794
L93145 35794
" />
<path d="M93145 36794
L93145 36794
" />
<path d="M94145 35794
L94145 35794
" />
<path d="M94145 36794
L94145 36794
" />
<path d="M75145 63794
L75145 63794
" />
<path d="M75145 64794
L75145 64794
" />
<path d="M76145 63794
L76145 63794
" />
<path d="M76145 64794
L76145 64794
" />
<path d="M77145 63794
L77145 63794
" />
<path d="M77145 64794
L77145 64794
" />
<path d="M78145 63794
L78145 63794
" />
<path d="M78145 64794
L78145 64794
" />
<path d="M79145 63794
L79145 63794
" />
<path d="M79145 64794
L79145 64794
" />
<path d="M80145 63794
L80145 63794
" />
<path d="M80145 64794
L80145 64794
" />
<path d="M81145 63794
L81145 63794
" />
<path d="M81145 64794
L81145 64794
" />
<path d="M82145 63794
L82145 63794
" />
<path d="M82145 64794
L82145 64794
" />
<path d="M83145 63794
L83145 63794
" />
<path d="M83145 64794
L83145 64794
" />
<path d="M84145 63794
L84145 63794
" />
<path d="M84145 64794
L84145 64794
" />
<path d="M85145 63794
L85145 63794
" />
<path d="M85145 64794
L85145 64794
" />
<path d="M86145 63794
L86145 63794
" />
<path d="M86145 64794
L86145 64794
" />
<path d="M87145 63794
L87145 63794
" />
<path d="M87145 64794
L87145 64794
" />
<path d="M88145 63794
L88145 63794
" />
<path d="M88145 64794
L88145 64794
" />
<path d="M89145 63794
L89145 63794
" />
<path d="M89145 64794
L89145 64794
" />
<path d="M90145 63794
L90145 63794
" />
<path d="M90145 64794
L90145 64794
" />
<path d="M91145 63794
L91145 63794
" />
<path d="M91145 64794
L91145 64794
" />
<path d="M92145 63794
L92145 63794
" />
<path d="M92145 64794
L92145 64794
" />
<path d="M93145 63794
L93145 63794
" />
<path d="M93145 64794
L93145 64794
" />
<path d="M94145 63794
L94145 63794
" />
<path d="M94145 64794
L94145 64794
" />
<path d="M100787 54502
L100787 54502
" />
<path d="M101787 54502
L101787 54502
" />
<path d="M100787 53502
L100787 53502
" />
<path d="M101787 53502
L101787 53502
" />
<path d="M100787 52502
L100787 52502
" />
<path d="M101787 52502
L101787 52502
" />
<path d="M100787 51502
L100787 51502
" />
<path d="M101787 51502
L101787 51502
" />
<path d="M100787 50502
L100787 50502
" />
<path d="M101787 50502
L101787 50502
" />
<path d="M100787 49502
L100787 49502
" />
<path d="M101787 49502
L101787 49502
" />
<path d="M100787 48502
L100787 48502
" />
<path d="M101787 48502
L101787 48502
" />
<path d="M100787 47502
L100787 47502
" />
<path d="M101787 47502
L101787 47502
" />
<path d="M100787 46502
L100787 46502
" />
<path d="M101787 46502
L101787 46502
" />
<path d="M100787 45502
L100787 45502
" />
<path d="M101787 45502
L101787 45502
" />
<path d="M100787 44502
L100787 44502
" />
<path d="M101787 44502
L101787 44502
" />
<path d="M100787 43502
L100787 43502
" />
<path d="M101787 43502
L101787 43502
" />
<path d="M100787 42502
L100787 42502
" />
<path d="M101787 42502
L101787 42502
" />
<path d="M100787 41502
L100787 41502
" />
<path d="M101787 41502
L101787 41502
" />
<path d="M100787 40502
L100787 40502
" />
<path d="M101787 40502
L101787 40502
" />
<path d="M100787 39502
L100787 39502
" />
<path d="M101787 39502
L101787 39502
" />
<path d="M100787 38502
L100787 38502
" />
<path d="M101787 38502
L101787 38502
" />
<path d="M100787 37502
L100787 37502
" />
<path d="M101787 37502
L101787 37502
" />
<path d="M100787 36502
L100787 36502
" />
<path d="M101787 36502
L101787 36502
" />
<path d="M100787 35502
L100787 35502
" />
<path d="M101787 35502
L101787 35502
" />
<path d="M72787 54502
L72787 54502
" />
<path d="M73787 54502
L73787 54502
" />
<path d="M72787 53502
L72787 53502
" />
<path d="M73787 53502
L73787 53502
" />
<path d="M72787 52502
L72787 52502
" />
<path d="M73787 52502
L73787 52502
" />
<path d="M72787 51502
L72787 51502
" />
<path d="M73787 51502
L73787 51502
" />
<path d="M72787 50502
L72787 50502
" />
<path d="M73787 50502
L73787 50502
" />
<path d="M72787 49502
L72787 49502
" />
<path d="M73787 49502
L73787 49502
" />
<path d="M72787 48502
L72787 48502
" />
<path d="M73787 48502
L73787 48502
" />
<path d="M72787 47502
L72787 47502
" />
<path d="M73787 47502
L73787 47502
" />
<path d="M72787 46502
L72787 46502
" />
<path d="M73787 46502
L73787 46502
" />
<path d="M72787 45502
L72787 45502
" />
<path d="M73787 45502
L73787 45502
" />
<path d="M72787 44502
L72787 44502
" />
<path d="M73787 44502
L73787 44502
" />
<path d="M72787 43502
L72787 43502
" />
<path d="M73787 43502
L73787 43502
" />
<path d="M72787 42502
L72787 42502
" />
<path d="M73787 42502
L73787 42502
" />
<path d="M72787 41502
L72787 41502
" />
<path d="M73787 41502
L73787 41502
" />
<path d="M72787 40502
L72787 40502
" />
<path d="M73787 40502
L73787 40502
" />
<path d="M72787 39502
L72787 39502
" />
<path d="M73787 39502
L73787 39502
" />
<path d="M72787 38502
L72787 38502
" />
<path d="M73787 38502
L73787 38502
" />
<path d="M72787 37502
L72787 37502
" />
<path d="M73787 37502
L73787 37502
" />
<path d="M72787 36502
L72787 36502
" />
<path d="M73787 36502
L73787 36502
" />
<path d="M72787 35502
L72787 35502
" />
<path d="M73787 35502
L73787 35502
" />
</g>
<g style="fill:#000000; fill-opacity:0.0; 
stroke:#000000; stroke-width:669.291; stroke-opacity:1; 
stroke-linecap:round; stroke-linejoin:round;">
<path d="M72257 68536
L72257 68851
" />
<path d="M73257 68536
L73257 68851
" />
<path d="M74257 68536
L74257 68851
" />
</g>
<g style="fill:#000000; fill-opacity:0.0; 
stroke:#000000; stroke-width:787.402; stroke-opacity:1; 
stroke-linecap:round; stroke-linejoin:round;">
<path d="M96958 58209
L96958 58209
" />
<path d="M96958 57209
L96958 57209
" />
</g>
<g style="fill:#000000; fill-opacity:0.0; 
stroke:#000000; stroke-width:39.3701; stroke-opacity:1; 
stroke-linecap:round; stroke-linejoin:round;">
</g>
<g style="fill:#000000; fill-opacity:1.0; 
stroke:#000000; stroke-width:39.3701; stroke-opacity:1; 
stroke-linecap:round; stroke-linejoin:round;">
<circle cx="97726.4" cy="68981.2" r="374.016" /> 
<circle cx="97726.4" cy="69981.2" r="374.016" /> 
<circle cx="101614" cy="69906.4" r="374.016" /> 
<circle cx="101614" cy="70906.4" r="374.016" /> 
<circle cx="76683.1" cy="68701.7" r="374.016" /> 
<circle cx="76683.1" cy="67701.7" r="374.016" /> 
<circle cx="69960.6" cy="68701.7" r="374.016" /> 
<circle cx="69960.6" cy="67701.7" r="374.016" /> 
</g>
<g style="fill:#000000; fill-opacity:1.0; 
stroke:#000000; stroke-width:787.402; stroke-opacity:1; 
stroke-linecap:round; stroke-linejoin:round;">
<path d="M99832 68961
L99832 68961
" />
</g>
<g style="fill:#000000; fill-opacity:1.0; 
stroke:#000000; stroke-width:39.3701; stroke-opacity:1; 
stroke-linecap:round; stroke-linejoin:round;">
<circle cx="99832.7" cy="69961.5" r="374.016" /> 
</g>
<g style="fill:#000000; fill-opacity:1.0; 
stroke:#000000; stroke-width:787.402; stroke-opacity:1; 
stroke-linecap:round; stroke-linejoin:round;">
<path d="M78740 68701
L78740 68701
" />
</g>
<g style="fill:#000000; fill-opacity:1.0; 
stroke:#000000; stroke-width:39.3701; stroke-opacity:1; 
stroke-linecap:round; stroke-linejoin:round;">
<circle cx="78740.2" cy="67701.7" r="374.016" /> 
<circle cx="69655.5" cy="63113.1" r="570.866" /> 
<circle cx="78750" cy="61774.5" r="570.866" /> 
<circle cx="96299.2" cy="46607.2" r="570.866" /> 
<circle cx="97096.5" cy="36331.6" r="570.866" /> 
<circle cx="71023.6" cy="35563.9" r="570.866" /> 
<circle cx="103632" cy="36302" r="570.866" /> 
<circle cx="81446.9" cy="67542.2" r="570.866" /> 
<circle cx="94744.1" cy="61981.2" r="570.866" /> 
</g>
<g style="fill:#000000; fill-opacity:1.0; 
stroke:#000000; stroke-width:787.402; stroke-opacity:1; 
stroke-linecap:round; stroke-linejoin:round;">
<path d="M83643 67317
L83643 67317
" />
<path d="M83643 68317
L83643 68317
" />
<path d="M84643 67317
L84643 67317
" />
<path d="M84643 68317
L84643 68317
" />
</g>
<g style="fill:#000000; fill-opacity:1.0; 
stroke:#000000; stroke-width:39.3701; stroke-opacity:1; 
stroke-linecap:round; stroke-linejoin:round;">
<circle cx="95442.9" cy="51705.6" r="570.866" /> 
<circle cx="95698.8" cy="69943.8" r="570.866" /> 
<circle cx="100594" cy="60400.5" r="570.866" /> 
<circle cx="102594" cy="60400.5" r="570.866" /> 
<circle cx="100594" cy="57400.5" r="570.866" /> 
<circle cx="102594" cy="57400.5" r="570.866" /> 
<polyline style="fill-rule:evenodd;"
points="97243,51441
96732,51441
96732,51751
97243,51751
97243,51441
" /> 
<polyline style="fill-rule:evenodd;"
points="97243,52191
96732,52191
96732,52501
97243,52501
97243,52191
" /> 
<polyline style="fill-rule:evenodd;"
points="96996,53368
96996,52857
96686,52857
96686,53368
96996,53368
" /> 
<polyline style="fill-rule:evenodd;"
points="96246,53368
96246,52857
95936,52857
95936,53368
96246,53368
" /> 
</g>
<g style="fill:#000000; fill-opacity:1.0; 
stroke:#000000; stroke-width:787.402; stroke-opacity:1; 
stroke-linecap:round; stroke-linejoin:round;">
<path d="M101291 62760
L101291 62760
" />
<path d="M101291 63760
L101291 63760
" />
<path d="M102291 62760
L102291 62760
" />
<path d="M102291 63760
L102291 63760
" />
</g>
<g style="fill:#000000; fill-opacity:1.0; 
stroke:#000000; stroke-width:314.961; stroke-opacity:1; 
stroke-linecap:round; stroke-linejoin:round;">
<path d="M80757 56754
L82145 58142
" />
<path d="M82145 58142
L82145 63794
" />
<path d="M70334 38201
L70334 38103
" />
<path d="M72767 37483
L70954 37483
" />
<path d="M72787 37502
L72767 37483
" />
<path d="M70334 38103
L70954 37483
" />
<path d="M70334 38201
L70334 55996
" />
<path d="M70334 55996
L71102 56764
" />
<path d="M71122 56754
L80757 56754
" />
<path d="M71102 56764
L71122 56764
" />
<path d="M71122 56764
L71122 56754
" />
<path d="M83145 63794
L83145 57390
" />
<path d="M83145 57390
L81624 55868
" />
<path d="M71387 38930
L71820 38496
" />
<path d="M72781 38496
L72787 38502
" />
<path d="M81624 55868
L72234 55868
" />
<path d="M71387 55061
L71387 38930
" />
<path d="M71387 55022
L71387 55052
" />
<path d="M71387 55052
L71397 55061
" />
<path d="M71397 55061
L71387 55061
" />
<path d="M72234 55868
L71387 55022
" />
<path d="M71791 38496
L72781 38496
" />
<path d="M71820 38496
L71820 38526
" />
<path d="M71820 38526
L71791 38555
" />
<path d="M71791 38555
L71791 38496
" />
<path d="M93145 36794
L93799 36794
" />
<path d="M93799 36794
L94145 36794
" />
<path d="M94145 36794
L94145 35794
" />
<path d="M80145 35794
L81145 36794
" />
<path d="M81145 36794
L80145 36794
" />
<path d="M80145 36794
L81145 35794
" />
<path d="M77145 35794
L77145 34973
" />
<path d="M77145 34973
L77047 34874
" />
<path d="M93145 64794
L94145 64794
" />
<path d="M94145 64794
L94145 63794
" />
<path d="M94145 63794
L94744 63195
" />
<path d="M94744 63195
L94744 61981
" />
<path d="M87145 64794
L87145 63794
" />
<path d="M87145 63794
L88145 63794
" />
<path d="M88145 63794
L88145 64794
" />
<path d="M88145 64794
L87145 64794
" />
<path d="M87145 64794
L88145 63794
" />
<path d="M88145 63794
L88145 62910
" />
<path d="M88145 62910
L89074 61981
" />
<path d="M89074 61981
L94744 61981
" />
<path d="M80145 64794
L81145 63794
" />
<path d="M81145 63794
L81145 64794
" />
<path d="M81145 64794
L80145 63794
" />
<path d="M80145 63794
L80145 63170
" />
<path d="M80145 63170
L78750 61774
" />
<path d="M77145 64794
L78145 63794
" />
<path d="M78145 63794
L78145 64794
" />
<path d="M78145 64794
L77145 63794
" />
<path d="M77145 63794
L77145 63378
" />
<path d="M77145 63378
L78750 61774
" />
<path d="M99832 69961
L100777 70906
" />
<path d="M100777 70906
L101614 70906
" />
<path d="M96091 53113
L95442 52464
" />
<path d="M95442 52464
L95442 51705
" />
<path d="M101787 35502
L101787 36502
" />
<path d="M101787 36502
L103431 36502
" />
<path d="M103431 36502
L103631 36302
" />
<path d="M94188 36794
L95188 36794
" />
<path d="M95188 36794
L95188 35794
" />
<path d="M95188 35794
L96559 35794
" />
<path d="M96559 35794
L97096 36331
" />
<path d="M72787 36502
L72787 35502
" />
<path d="M72787 35502
L71084 35502
" />
<path d="M71084 35502
L71023 35563
" />
<path d="M98159 51597
L98158 51596
" />
<path d="M98158 51596
L96988 51596
" />
<path d="M95442 51705
L95552 51596
" />
<path d="M95552 51596
L96988 51596
" />
<path d="M68622 65004
L68486 65004
" />
<path d="M68486 65004
L67736 64254
" />
<path d="M98159 46597
L97125 46597
" />
<path d="M97125 46597
L97027 46695
" />
<path d="M101787 45502
L102600 45502
" />
<path d="M102600 45502
L102883 45219
" />
<path d="M101787 44502
L102783 44502
" />
<path d="M102783 44502
L102883 44402
" />
<path d="M101787 43502
L102681 43502
" />
<path d="M102681 43502
L102726 43457
" />
<path d="M101787 42502
L102627 42502
" />
<path d="M102627 42502
L102637 42512
" />
<path d="M101787 41502
L102653 41502
" />
<path d="M102653 41502
L102814 41341
" />
<path d="M101787 40502
L103210 40502
" />
<path d="M103210 40502
L103228 40485
" />
<path d="M101787 39502
L102620 39502
" />
<path d="M102620 39502
L102992 39874
" />
<path d="M101787 53502
L103124 53502
" />
<path d="M103124 53502
L103139 53487
" />
<path d="M97559 44491
L96318 44491
" />
<path d="M96440 50597
L98159 50597
" />
<path d="M95068 49225
L96440 50597
" />
<path d="M95068 45741
L95068 49225
" />
<path d="M96318 44491
L95068 45741
" />
<path d="M100787 44502
L100775 44491
" />
<path d="M100775 44491
L97559 44491
" />
<path d="M98159 49597
L98929 49597
" />
<path d="M99903 45502
L100787 45502
" />
<path d="M99458 45947
L99903 45502
" />
<path d="M99458 49067
L99458 45947
" />
<path d="M98929 49597
L99458 49067
" />
<path d="M100594 57400
L100594 60400
" />
<path d="M99301 56107
L100594 57400
" />
<path d="M99301 54284
L99301 56107
" />
<path d="M100082 53502
L99301 54284
" />
<path d="M100787 53502
L100082 53502
" />
<path d="M83681 38083
L82687 38083
" />
<path d="M82145 37542
L82145 36794
" />
<path d="M82687 38083
L82145 37542
" />
<path d="M97736 38083
L97736 38113
" />
<path d="M97736 38113
L98385 38762
" />
<path d="M98385 42699
L98385 42719
" />
<path d="M98385 42719
L99124 43457
" />
<path d="M84586 38083
L83681 38083
" />
<path d="M100742 43457
L100787 43502
" />
<path d="M99124 43457
L100742 43457
" />
<path d="M98385 38762
L98385 42699
" />
<path d="M84586 38083
L97736 38083
" />
<path d="M83145 35794
L83145 34987
" />
<path d="M100088 42502
L100787 42502
" />
<path d="M99340 41754
L100088 42502
" />
<path d="M99340 36065
L99340 41754
" />
<path d="M97795 34520
L99340 36065
" />
<path d="M83612 34520
L97795 34520
" />
<path d="M83145 34987
L83612 34520
" />
<path d="M89596 57209
L88718 57209
" />
<path d="M85145 60782
L85145 63794
" />
<path d="M88718 57209
L85145 60782
" />
<path d="M96958 57209
L89596 57209
" />
</g>
<g style="fill:#000000; fill-opacity:1.0; 
stroke:#000000; stroke-width:393.701; stroke-opacity:1; 
stroke-linecap:round; stroke-linejoin:round;">
<path d="M75145 64794
L76145 63794
" />
<path d="M76145 63794
L76145 65233
" />
<path d="M76145 65233
L76145 64794
" />
<path d="M76145 64794
L75145 63794
" />
<path d="M77194 66115
L76643 66115
" />
<path d="M76145 65617
L76145 64794
" />
<path d="M76643 66115
L76145 65617
" />
<path d="M97293 65081
L99970 65081
" />
<path d="M99970 65081
L101291 63760
" />
<path d="M97096 64884
L97293 65081
" />
<path d="M97293 65081
L96909 65081
" />
<path d="M96909 65081
L95875 66115
" />
<path d="M95875 66115
L77194 66115
" />
<path d="M77194 66115
L77188 66109
" />
<path d="M97271 67542
L97271 68526
" />
<path d="M97271 68526
L97726 68981
" />
<path d="M99832 68961
L97746 68961
" />
<path d="M97746 68961
L97726 68981
" />
<path d="M103238 68910
L99883 68910
" />
<path d="M99883 68910
L99832 68961
" />
<path d="M97096 64884
L97096 67367
" />
<path d="M97096 67367
L97271 67542
" />
<path d="M102291 63760
L101291 63760
" />
<path d="M96978 63695
L96978 64766
" />
<path d="M96978 64766
L97096 64884
" />
<path d="M96841 53113
L97357 52597
" />
<path d="M97357 52597
L98159 52597
" />
<path d="M96988 52346
L97239 52597
" />
<path d="M97239 52597
L98159 52597
" />
<path d="M98159 52597
L98159 52876
" />
<path d="M96533 54502
L73787 54502
" />
<path d="M98159 52876
L96533 54502
" />
<path d="M76683 68701
L78740 68701
" />
<path d="M74257 68693
L76675 68693
" />
<path d="M76675 68693
L76683 68701
" />
<path d="M68622 66004
L73954 66004
" />
<path d="M73954 66004
L74257 66307
" />
<path d="M78740 68701
L83269 68691
" />
<path d="M83269 68691
L83643 68317
" />
<path d="M83643 68317
L83643 67317
" />
<path d="M74257 66307
L74257 68693
" />
</g>
<g style="fill:#000000; fill-opacity:1.0; 
stroke:#000000; stroke-width:314.961; stroke-opacity:1; 
stroke-linecap:round; stroke-linejoin:round;">
<path d="M101271 67542
L102870 67542
" />
<path d="M102870 67542
L103238 67910
" />
<path d="M98187 66075
L99805 66075
" />
<path d="M99805 66075
L101271 67542
" />
<path d="M96978 59695
L96978 58229
" />
<path d="M96978 58229
L96958 58209
" />
</g>
<g style="fill:#000000; fill-opacity:1.0; 
stroke:#000000; stroke-width:393.701; stroke-opacity:1; 
stroke-linecap:round; stroke-linejoin:round;">
<path d="M72257 68693
L72257 69859
" />
<path d="M86338 71262
L88080 69520
" />
<path d="M73661 71262
L86338 71262
" />
<path d="M72257 69859
L73661 71262
" />
<path d="M69960 68701
L69968 68693
" />
<path d="M69968 68693
L72257 68693
" />
<path d="M103238 69910
L103238 71430
" />
<path d="M103238 71430
L102391 72276
" />
<path d="M102391 72276
L90816 72276
" />
<path d="M90816 72276
L88070 69530
" />
<path d="M88070 69530
L88080 69520
" />
<path d="M88080 69520
L88080 69422
" />
<path d="M88080 69422
L88080 68418
" />
<path d="M101614 69906
L103234 69906
" />
<path d="M103234 69906
L103238 69910
" />
</g>
<g style="fill:#000000; fill-opacity:1.0; 
stroke:#000000; stroke-width:39.3701; stroke-opacity:1; 
stroke-linecap:round; stroke-linejoin:round;">
<polyline style="fill-rule:evenodd;"
points="82456,67660
82388,67317
82421,67149
77194,67149
77194,67149
77194,67149
76643,67149
76643,67149
76423,67105
76247,67070
75912,66846
75912,66846
75414,66348
75251,66105
75292,66307
75292,67659
75983,67659
75984,67658
76437,67470
76926,67470
77379,67657
77389,67667
78078,67667
78269,67540
78740,67446
79211,67540
79400,67666
82456,67660
" /> 
</g>
<g style="fill:#000000; fill-opacity:0.0; 
stroke:#000000; stroke-width:100; stroke-opacity:1; 
stroke-linecap:round; stroke-linejoin:round;">
<polyline fill="none;"
points="82456,67660
82388,67317
82421,67149
77194,67149
77194,67149
77194,67149
76643,67149
76643,67149
76423,67105
76247,67070
75912,66846
75912,66846
75414,66348
75251,66105
75292,66307
75292,67659
75983,67659
75984,67658
76437,67470
76926,67470
77379,67657
77389,67667
78078,67667
78269,67540
78740,67446
79211,67540
79400,67666
82456,67660
" /> 
</g>
<g style="fill:#000000; fill-opacity:1.0; 
stroke:#000000; stroke-width:39.3701; stroke-opacity:1; 
stroke-linecap:round; stroke-linejoin:round;">
<polyline style="fill-rule:evenodd;"
points="97446,46597
97288,46491
97022,46092
96928,45621
96928,45573
96945,45485
96730,45485
96063,46153
96063,48813
96853,49602
96928,49602
96928,49573
97022,49102
97025,49097
97022,49092
96928,48621
96928,48573
97022,48102
97025,48097
97022,48092
96928,47621
96928,47573
97022,47102
97288,46702
97446,46597
" /> 
</g>
<g style="fill:#000000; fill-opacity:0.0; 
stroke:#000000; stroke-width:100; stroke-opacity:1; 
stroke-linecap:round; stroke-linejoin:round;">
<polyline fill="none;"
points="97446,46597
97288,46491
97022,46092
96928,45621
96928,45573
96945,45485
96730,45485
96063,46153
96063,48813
96853,49602
96928,49602
96928,49573
97022,49102
97025,49097
97022,49092
96928,48621
96928,48573
97022,48102
97025,48097
97022,48092
96928,47621
96928,47573
97022,47102
97288,46702
97446,46597
" /> 
</g>
<g style="fill:#000000; fill-opacity:1.0; 
stroke:#000000; stroke-width:39.3701; stroke-opacity:1; 
stroke-linecap:round; stroke-linejoin:round;">
<polyline style="fill-rule:evenodd;"
points="97755,43496
97682,43422
97466,43100
97390,42719
97390,42699
97390,39174
97294,39078
87702,39078
87702,45789
87702,48212
83379,48212
83379,45789
87702,45789
87702,39078
84586,39078
83681,39078
82687,39078
82306,39002
81983,38787
81983,38787
81442,38245
81226,37922
81150,37542
81150,37514
80984,37265
80890,36794
80984,36323
81003,36294
80984,36265
80890,35794
80984,35323
81251,34923
81650,34656
82121,34563
82169,34563
82245,34578
82442,34283
82908,33817
82974,33773
66250,33773
66250,72757
89835,72757
88070,70993
87069,71994
86734,72218
86338,72296
86338,72296
73661,72296
73265,72218
72930,71994
72930,71994
71526,70590
71302,70254
71223,69859
71223,69859
71223,69728
70675,69728
70658,69744
70206,69932
69716,69932
69264,69745
68917,69399
68729,68947
68729,68457
68916,68005
69262,67658
69714,67470
70204,67470
70657,67657
70659,67659
71461,67659
71809,67427
72257,67338
72706,67427
73086,67681
73223,67886
73223,67039
69283,67039
69093,67166
68622,67260
68150,67166
67751,66899
67484,66500
67390,66028
67390,65980
67484,65509
67751,65110
68150,64843
68622,64749
69093,64843
69283,64970
73925,64970
73890,64794
73984,64323
74003,64294
73984,64265
73890,63794
73984,63323
74251,62923
74650,62656
75121,62563
75169,62563
75640,62656
75645,62659
75650,62656
76121,62563
76169,62563
76640,62656
77040,62923
77307,63323
77400,63794
77307,64265
77287,64294
77307,64323
77400,64794
77343,65080
77947,65080
77890,64794
77984,64323
78003,64294
77984,64265
77890,63794
77984,63323
78251,62923
78650,62656
79121,62563
79169,62563
79640,62656
80040,62923
80307,63323
80400,63794
80307,64265
80287,64294
80307,64323
80400,64794
80343,65080
80947,65080
80890,64794
80984,64323
81003,64294
80984,64265
80890,63794
80984,63323
81150,63073
81150,58554
80345,57749
71171,57749
71122,57759
71102,57759
70721,57683
70398,57468
69631,56700
69415,56377
69339,55996
69339,38201
69339,38103
69415,37722
69631,37399
70251,36779
70573,36563
70573,36563
70954,36488
72096,36488
72316,36341
72594,36285
72650,36007
72653,36002
72650,35998
72556,35526
72556,35478
72650,35007
72916,34608
73316,34341
73787,34247
74258,34341
74657,34608
74685,34649
75121,34563
75169,34563
75640,34656
75645,34659
75650,34656
76121,34563
76169,34563
76640,34656
77040,34923
77145,35081
77251,34923
77650,34656
78121,34563
78169,34563
78640,34656
78645,34659
78650,34656
79121,34563
79169,34563
79640,34656
80040,34923
80307,35323
80400,35794
80307,36265
80287,36294
80307,36323
80400,36794
80307,37265
80040,37664
79640,37931
79169,38025
79121,38025
78650,37931
78645,37928
78640,37931
78169,38025
78121,38025
77650,37931
77645,37928
77640,37931
77169,38025
77121,38025
76650,37931
76645,37928
76640,37931
76169,38025
76121,38025
75650,37931
75645,37928
75640,37931
75169,38025
75121,38025
74927,37986
74924,37998
74921,38002
74924,38007
75018,38478
75018,38526
74924,38998
74921,39002
74924,39007
75018,39478
75018,39526
74924,39998
74921,40002
74924,40007
75018,40478
75018,40526
74924,40998
74921,41002
74924,41007
75018,41478
75018,41526
74924,41998
74921,42002
74924,42007
75018,42478
75018,42526
74924,42998
74921,43002
74924,43007
75018,43478
75018,43526
74924,43998
74921,44002
74924,44007
75018,44478
75018,44526
74924,44998
74921,45002
74924,45007
75018,45478
75018,45526
74924,45998
74921,46002
74924,46007
75018,46478
75018,46526
74924,46998
74921,47002
74924,47007
75018,47478
75018,47526
74924,47998
74921,48002
74924,48007
75018,48478
75018,48526
74924,48998
74921,49002
74924,49007
75018,49478
75018,49526
74924,49998
74921,50002
74924,50007
75018,50478
75018,50526
74924,50998
74921,51002
74924,51007
75018,51478
75018,51526
74924,51998
74921,52002
74924,52007
75018,52478
75018,52526
74924,52998
74921,53002
74924,53007
75016,53468
95829,53468
95828,53222
95828,53222
95807,53113
95828,53003
95828,52672
95875,52558
95875,52355
95875,52005
96002,51697
96163,51536
96060,51516
95737,51300
94365,49928
94149,49606
94074,49225
94074,45741
94149,45360
94365,45037
95615,43787
95938,43571
96318,43496
97559,43496
97755,43496
" /> 
</g>
<g style="fill:#000000; fill-opacity:0.0; 
stroke:#000000; stroke-width:100; stroke-opacity:1; 
stroke-linecap:round; stroke-linejoin:round;">
<polyline fill="none;"
points="97755,43496
97682,43422
97466,43100
97390,42719
97390,42699
97390,39174
97294,39078
87702,39078
87702,45789
87702,48212
83379,48212
83379,45789
87702,45789
87702,39078
84586,39078
83681,39078
82687,39078
82306,39002
81983,38787
81983,38787
81442,38245
81226,37922
81150,37542
81150,37514
80984,37265
80890,36794
80984,36323
81003,36294
80984,36265
80890,35794
80984,35323
81251,34923
81650,34656
82121,34563
82169,34563
82245,34578
82442,34283
82908,33817
82974,33773
66250,33773
66250,72757
89835,72757
88070,70993
87069,71994
86734,72218
86338,72296
86338,72296
73661,72296
73265,72218
72930,71994
72930,71994
71526,70590
71302,70254
71223,69859
71223,69859
71223,69728
70675,69728
70658,69744
70206,69932
69716,69932
69264,69745
68917,69399
68729,68947
68729,68457
68916,68005
69262,67658
69714,67470
70204,67470
70657,67657
70659,67659
71461,67659
71809,67427
72257,67338
72706,67427
73086,67681
73223,67886
73223,67039
69283,67039
69093,67166
68622,67260
68150,67166
67751,66899
67484,66500
67390,66028
67390,65980
67484,65509
67751,65110
68150,64843
68622,64749
69093,64843
69283,64970
73925,64970
73890,64794
73984,64323
74003,64294
73984,64265
73890,63794
73984,63323
74251,62923
74650,62656
75121,62563
75169,62563
75640,62656
75645,62659
75650,62656
76121,62563
76169,62563
76640,62656
77040,62923
77307,63323
77400,63794
77307,64265
77287,64294
77307,64323
77400,64794
77343,65080
77947,65080
77890,64794
77984,64323
78003,64294
77984,64265
77890,63794
77984,63323
78251,62923
78650,62656
79121,62563
79169,62563
79640,62656
80040,62923
80307,63323
80400,63794
80307,64265
80287,64294
80307,64323
80400,64794
80343,65080
80947,65080
80890,64794
80984,64323
81003,64294
80984,64265
80890,63794
80984,63323
81150,63073
81150,58554
80345,57749
71171,57749
71122,57759
71102,57759
70721,57683
70398,57468
69631,56700
69415,56377
69339,55996
69339,38201
69339,38103
69415,37722
69631,37399
70251,36779
70573,36563
70573,36563
70954,36488
72096,36488
72316,36341
72594,36285
72650,36007
72653,36002
72650,35998
72556,35526
72556,35478
72650,35007
72916,34608
73316,34341
73787,34247
74258,34341
74657,34608
74685,34649
75121,34563
75169,34563
75640,34656
75645,34659
75650,34656
76121,34563
76169,34563
76640,34656
77040,34923
77145,35081
77251,34923
77650,34656
78121,34563
78169,34563
78640,34656
78645,34659
78650,34656
79121,34563
79169,34563
79640,34656
80040,34923
80307,35323
80400,35794
80307,36265
80287,36294
80307,36323
80400,36794
80307,37265
80040,37664
79640,37931
79169,38025
79121,38025
78650,37931
78645,37928
78640,37931
78169,38025
78121,38025
77650,37931
77645,37928
77640,37931
77169,38025
77121,38025
76650,37931
76645,37928
76640,37931
76169,38025
76121,38025
75650,37931
75645,37928
75640,37931
75169,38025
75121,38025
74927,37986
74924,37998
74921,38002
74924,38007
75018,38478
75018,38526
74924,38998
74921,39002
74924,39007
75018,39478
75018,39526
74924,39998
74921,40002
74924,40007
75018,40478
75018,40526
74924,40998
74921,41002
74924,41007
75018,41478
75018,41526
74924,41998
74921,42002
74924,42007
75018,42478
75018,42526
74924,42998
74921,43002
74924,43007
75018,43478
75018,43526
74924,43998
74921,44002
74924,44007
75018,44478
75018,44526
74924,44998
74921,45002
74924,45007
75018,45478
75018,45526
74924,45998
74921,46002
74924,46007
75018,46478
75018,46526
74924,46998
74921,47002
74924,47007
75018,47478
75018,47526
74924,47998
74921,48002
74924,48007
75018,48478
75018,48526
74924,48998
74921,49002
74924,49007
75018,49478
75018,49526
74924,49998
74921,50002
74924,50007
75018,50478
75018,50526
74924,50998
74921,51002
74924,51007
75018,51478
75018,51526
74924,51998
74921,52002
74924,52007
75018,52478
75018,52526
74924,52998
74921,53002
74924,53007
75016,53468
95829,53468
95828,53222
95828,53222
95807,53113
95828,53003
95828,52672
95875,52558
95875,52355
95875,52005
96002,51697
96163,51536
96060,51516
95737,51300
94365,49928
94149,49606
94074,49225
94074,45741
94149,45360
94365,45037
95615,43787
95938,43571
96318,43496
97559,43496
97755,43496
" /> 
</g>
<g style="fill:#000000; fill-opacity:1.0; 
stroke:#000000; stroke-width:39.3701; stroke-opacity:1; 
stroke-linecap:round; stroke-linejoin:round;">
<polyline style="fill-rule:evenodd;"
points="98345,36477
97383,35515
94345,35515
94400,35794
94307,36265
94040,36664
93640,36931
93362,36986
93342,37088
97736,37088
98116,37164
98345,37317
98345,36477
" /> 
</g>
<g style="fill:#000000; fill-opacity:0.0; 
stroke:#000000; stroke-width:100; stroke-opacity:1; 
stroke-linecap:round; stroke-linejoin:round;">
<polyline fill="none;"
points="98345,36477
97383,35515
94345,35515
94400,35794
94307,36265
94040,36664
93640,36931
93362,36986
93342,37088
97736,37088
98116,37164
98345,37317
98345,36477
" /> 
</g>
<g style="fill:#000000; fill-opacity:1.0; 
stroke:#000000; stroke-width:39.3701; stroke-opacity:1; 
stroke-linecap:round; stroke-linejoin:round;">
<polyline style="fill-rule:evenodd;"
points="102203,70994
101860,71137
101370,71137
100917,70950
100571,70604
100383,70152
100383,70069
100303,70123
99832,70216
99361,70123
99171,69995
98453,69995
98424,70024
97972,70212
97482,70212
97029,70025
96683,69679
96495,69227
96495,69190
96316,68922
96237,68526
96237,68526
96237,68203
96110,68013
96016,67542
96062,67312
96062,67112
95875,67149
95875,67149
94020,67149
94020,68418
93927,68889
93660,69288
93260,69555
92789,69649
92741,69649
92270,69555
91988,69366
91705,69555
91234,69649
91186,69649
90715,69555
90315,69288
90049,68889
89955,68418
90049,67947
90315,67547
90715,67280
91186,67187
91234,67187
91705,67280
91988,67469
92270,67280
92741,67187
92789,67187
93260,67280
93660,67547
93927,67947
94020,68418
94020,67149
84865,67149
84898,67317
84805,67788
84785,67817
84805,67846
84898,68317
84805,68788
84538,69188
84138,69455
83878,69507
83667,69648
83271,69727
79403,69734
79211,69863
78740,69956
78269,69863
78078,69735
77390,69735
77381,69744
76929,69932
76439,69932
75986,69745
75968,69728
75053,69728
74706,69960
74257,70049
73824,69963
74089,70228
85910,70228
87046,69092
87046,69079
86919,68889
86825,68418
86919,67947
87186,67547
87585,67280
88056,67187
88104,67187
88575,67280
88975,67547
89242,67947
89335,68418
89242,68889
89114,69079
89114,69111
91245,71242
101963,71242
102203,71001
102203,70994
" /> 
</g>
<g style="fill:#000000; fill-opacity:0.0; 
stroke:#000000; stroke-width:100; stroke-opacity:1; 
stroke-linecap:round; stroke-linejoin:round;">
<polyline fill="none;"
points="102203,70994
101860,71137
101370,71137
100917,70950
100571,70604
100383,70152
100383,70069
100303,70123
99832,70216
99361,70123
99171,69995
98453,69995
98424,70024
97972,70212
97482,70212
97029,70025
96683,69679
96495,69227
96495,69190
96316,68922
96237,68526
96237,68526
96237,68203
96110,68013
96016,67542
96062,67312
96062,67112
95875,67149
95875,67149
94020,67149
94020,68418
93927,68889
93660,69288
93260,69555
92789,69649
92741,69649
92270,69555
91988,69366
91705,69555
91234,69649
91186,69649
90715,69555
90315,69288
90049,68889
89955,68418
90049,67947
90315,67547
90715,67280
91186,67187
91234,67187
91705,67280
91988,67469
92270,67280
92741,67187
92789,67187
93260,67280
93660,67547
93927,67947
94020,68418
94020,67149
84865,67149
84898,67317
84805,67788
84785,67817
84805,67846
84898,68317
84805,68788
84538,69188
84138,69455
83878,69507
83667,69648
83271,69727
79403,69734
79211,69863
78740,69956
78269,69863
78078,69735
77390,69735
77381,69744
76929,69932
76439,69932
75986,69745
75968,69728
75053,69728
74706,69960
74257,70049
73824,69963
74089,70228
85910,70228
87046,69092
87046,69079
86919,68889
86825,68418
86919,67947
87186,67547
87585,67280
88056,67187
88104,67187
88575,67280
88975,67547
89242,67947
89335,68418
89242,68889
89114,69079
89114,69111
91245,71242
101963,71242
102203,71001
102203,70994
" /> 
</g>
<g style="fill:#000000; fill-opacity:1.0; 
stroke:#000000; stroke-width:39.3701; stroke-opacity:1; 
stroke-linecap:round; stroke-linejoin:round;">
<polyline style="fill-rule:evenodd;"
points="104703,33773
98433,33773
98498,33817
99665,34984
99916,34608
100316,34341
100787,34247
101258,34341
101657,34608
101924,35007
102018,35478
102018,35526
101924,35998
101921,36002
101924,36007
101980,36285
102258,36341
102657,36608
102924,37007
103018,37478
103018,37526
102924,37998
102921,38002
102924,38007
103018,38478
103018,38526
102924,38998
102657,39397
102258,39664
101980,39719
101924,39998
101921,40002
101924,40007
102018,40478
102018,40526
101924,40998
101921,41002
101924,41007
102018,41478
102018,41526
101924,41998
101921,42002
101924,42007
102018,42478
102018,42526
101924,42998
101921,43002
101924,43007
102018,43478
102018,43526
101924,43998
101921,44002
101924,44007
102018,44478
102018,44526
101924,44998
101921,45002
101924,45007
101980,45285
102258,45341
102657,45608
102924,46007
103018,46478
103018,46526
102924,46998
102921,47002
102924,47007
103018,47478
103018,47526
102924,47998
102921,48002
102924,48007
103018,48478
103018,48526
102924,48998
102921,49002
102924,49007
103018,49478
103018,49526
102924,49998
102921,50002
102924,50007
103018,50478
103018,50526
102924,50998
102921,51002
102924,51007
103018,51478
103018,51526
102924,51998
102921,52002
102924,52007
103018,52478
103018,52526
102924,52998
102657,53397
102500,53502
102657,53608
102924,54007
103018,54478
103018,54526
102924,54998
102657,55397
102258,55664
101787,55758
101316,55664
101287,55645
101258,55664
100787,55758
100316,55664
100296,55650
100296,55695
100573,55972
100877,55972
101402,56189
101804,56590
102022,57115
102022,57683
101805,58208
101589,58425
101589,59375
101804,59590
102022,60115
102022,60683
101805,61208
101404,61610
100879,61828
100311,61828
99786,61611
99384,61210
99166,60685
99166,60117
99383,59592
99599,59375
99599,58424
99384,58210
99166,57685
99166,57379
98597,56810
98382,56487
98306,56107
98306,54284
98329,54169
97264,55234
96929,55458
96533,55537
96533,55537
82699,55537
83849,56687
84064,57009
84064,57009
84140,57390
84140,62563
84150,62563
84150,60782
84226,60401
84442,60078
88015,56506
88337,56290
88718,56214
89596,56214
96238,56214
96487,56048
96958,55954
97429,56048
97829,56314
98096,56714
98189,57185
98189,57233
98096,57704
98092,57709
98096,57714
98189,58185
98189,58233
98096,58704
97973,58888
97973,58987
98115,59200
98209,59671
98209,59719
98115,60190
97848,60590
97449,60857
96978,60950
96507,60857
96107,60590
95840,60190
95747,59719
95747,59671
95840,59200
95983,58987
95983,58947
95821,58704
95727,58233
95727,58204
89596,58204
89130,58204
86140,61194
86140,62563
86169,62563
86640,62656
87040,62923
87307,63323
87400,63794
87307,64265
87287,64294
87307,64323
87400,64794
87343,65080
87947,65080
87890,64794
87984,64323
88003,64294
87984,64265
87890,63794
87984,63323
88251,62923
88650,62656
89121,62563
89169,62563
89640,62656
89645,62659
89650,62656
90121,62563
90169,62563
90640,62656
90645,62659
90650,62656
91121,62563
91169,62563
91640,62656
91645,62659
91650,62656
92121,62563
92169,62563
92640,62656
92645,62659
92650,62656
93121,62563
93169,62563
93640,62656
94040,62923
94307,63323
94400,63794
94307,64265
94040,64664
93640,64931
93362,64986
93343,65080
95447,65080
95944,64584
95944,64345
95840,64190
95747,63719
95747,63671
95840,63200
96107,62801
96507,62534
96978,62440
97449,62534
97848,62801
98115,63200
98209,63671
98209,63719
98144,64047
99542,64047
100087,63501
100129,63289
100396,62890
100796,62623
101267,62529
101315,62529
101786,62623
101791,62626
101796,62623
102267,62529
102315,62529
102786,62623
103185,62890
103452,63289
103546,63760
103452,64231
103185,64631
102786,64898
102315,64991
102267,64991
101796,64898
101791,64894
101786,64898
101574,64940
100825,65689
101485,66348
101766,66404
101980,66547
102870,66547
103250,66623
103423,66738
103870,66827
104250,67081
104504,67461
104593,67910
104504,68358
104470,68410
104504,68461
104593,68910
104504,69358
104470,69410
104504,69461
104593,69910
104504,70358
104272,70706
104272,71429
104272,71430
104272,71430
104228,71649
104193,71825
104193,71825
103969,72161
103969,72161
103372,72757
104703,72757
104703,33773
" /> 
</g>
<g style="fill:#000000; fill-opacity:0.0; 
stroke:#000000; stroke-width:100; stroke-opacity:1; 
stroke-linecap:round; stroke-linejoin:round;">
<polyline fill="none;"
points="104703,33773
98433,33773
98498,33817
99665,34984
99916,34608
100316,34341
100787,34247
101258,34341
101657,34608
101924,35007
102018,35478
102018,35526
101924,35998
101921,36002
101924,36007
101980,36285
102258,36341
102657,36608
102924,37007
103018,37478
103018,37526
102924,37998
102921,38002
102924,38007
103018,38478
103018,38526
102924,38998
102657,39397
102258,39664
101980,39719
101924,39998
101921,40002
101924,40007
102018,40478
102018,40526
101924,40998
101921,41002
101924,41007
102018,41478
102018,41526
101924,41998
101921,42002
101924,42007
102018,42478
102018,42526
101924,42998
101921,43002
101924,43007
102018,43478
102018,43526
101924,43998
101921,44002
101924,44007
102018,44478
102018,44526
101924,44998
101921,45002
101924,45007
101980,45285
102258,45341
102657,45608
102924,46007
103018,46478
103018,46526
102924,46998
102921,47002
102924,47007
103018,47478
103018,47526
102924,47998
102921,48002
102924,48007
103018,48478
103018,48526
102924,48998
102921,49002
102924,49007
103018,49478
103018,49526
102924,49998
102921,50002
102924,50007
103018,50478
103018,50526
102924,50998
102921,51002
102924,51007
103018,51478
103018,51526
102924,51998
102921,52002
102924,52007
103018,52478
103018,52526
102924,52998
102657,53397
102500,53502
102657,53608
102924,54007
103018,54478
103018,54526
102924,54998
102657,55397
102258,55664
101787,55758
101316,55664
101287,55645
101258,55664
100787,55758
100316,55664
100296,55650
100296,55695
100573,55972
100877,55972
101402,56189
101804,56590
102022,57115
102022,57683
101805,58208
101589,58425
101589,59375
101804,59590
102022,60115
102022,60683
101805,61208
101404,61610
100879,61828
100311,61828
99786,61611
99384,61210
99166,60685
99166,60117
99383,59592
99599,59375
99599,58424
99384,58210
99166,57685
99166,57379
98597,56810
98382,56487
98306,56107
98306,54284
98329,54169
97264,55234
96929,55458
96533,55537
96533,55537
82699,55537
83849,56687
84064,57009
84064,57009
84140,57390
84140,62563
84150,62563
84150,60782
84226,60401
84442,60078
88015,56506
88337,56290
88718,56214
89596,56214
96238,56214
96487,56048
96958,55954
97429,56048
97829,56314
98096,56714
98189,57185
98189,57233
98096,57704
98092,57709
98096,57714
98189,58185
98189,58233
98096,58704
97973,58888
97973,58987
98115,59200
98209,59671
98209,59719
98115,60190
97848,60590
97449,60857
96978,60950
96507,60857
96107,60590
95840,60190
95747,59719
95747,59671
95840,59200
95983,58987
95983,58947
95821,58704
95727,58233
95727,58204
89596,58204
89130,58204
86140,61194
86140,62563
86169,62563
86640,62656
87040,62923
87307,63323
87400,63794
87307,64265
87287,64294
87307,64323
87400,64794
87343,65080
87947,65080
87890,64794
87984,64323
88003,64294
87984,64265
87890,63794
87984,63323
88251,62923
88650,62656
89121,62563
89169,62563
89640,62656
89645,62659
89650,62656
90121,62563
90169,62563
90640,62656
90645,62659
90650,62656
91121,62563
91169,62563
91640,62656
91645,62659
91650,62656
92121,62563
92169,62563
92640,62656
92645,62659
92650,62656
93121,62563
93169,62563
93640,62656
94040,62923
94307,63323
94400,63794
94307,64265
94040,64664
93640,64931
93362,64986
93343,65080
95447,65080
95944,64584
95944,64345
95840,64190
95747,63719
95747,63671
95840,63200
96107,62801
96507,62534
96978,62440
97449,62534
97848,62801
98115,63200
98209,63671
98209,63719
98144,64047
99542,64047
100087,63501
100129,63289
100396,62890
100796,62623
101267,62529
101315,62529
101786,62623
101791,62626
101796,62623
102267,62529
102315,62529
102786,62623
103185,62890
103452,63289
103546,63760
103452,64231
103185,64631
102786,64898
102315,64991
102267,64991
101796,64898
101791,64894
101786,64898
101574,64940
100825,65689
101485,66348
101766,66404
101980,66547
102870,66547
103250,66623
103423,66738
103870,66827
104250,67081
104504,67461
104593,67910
104504,68358
104470,68410
104504,68461
104593,68910
104504,69358
104470,69410
104504,69461
104593,69910
104504,70358
104272,70706
104272,71429
104272,71430
104272,71430
104228,71649
104193,71825
104193,71825
103969,72161
103969,72161
103372,72757
104703,72757
104703,33773
" /> 
</g>
<g style="fill:#FFFFFF; fill-opacity:0.0; 
stroke:#FFFFFF; stroke-width:39.3701; stroke-opacity:1; 
stroke-linecap:round; stroke-linejoin:round;">
</g>
<g style="fill:#FFFFFF; fill-opacity:1.0; 
stroke:#FFFFFF; stroke-width:39.3701; stroke-opacity:1; 
stroke-linecap:round; stroke-linejoin:round;">
<circle cx="103238" cy="69910.3" r="118.11" /> 
<circle cx="103238" cy="68910.3" r="118.11" /> 
<circle cx="103238" cy="67910.3" r="118.11" /> 
<circle cx="91210.6" cy="68418.2" r="118.11" /> 
<circle cx="89655.5" cy="68418.2" r="118.11" /> 
<circle cx="92765.7" cy="68418.2" r="118.11" /> 
<circle cx="88080.7" cy="68418.2" r="118.11" /> 
<circle cx="98187" cy="66075.7" r="118.11" /> 
<circle cx="102187" cy="66075.7" r="118.11" /> 
<circle cx="96978.3" cy="63695.7" r="118.11" /> 
<circle cx="96978.3" cy="59695.7" r="118.11" /> 
<circle cx="97271.7" cy="67542.2" r="118.11" /> 
<circle cx="101272" cy="67542.2" r="118.11" /> 
<circle cx="68622" cy="66004.8" r="118.11" /> 
<circle cx="68622" cy="65004.8" r="118.11" /> 
<circle cx="98159.4" cy="52597.3" r="118.11" /> 
<circle cx="98159.4" cy="51597.3" r="118.11" /> 
<circle cx="98159.4" cy="50597.3" r="118.11" /> 
<circle cx="98159.4" cy="49597.3" r="118.11" /> 
<circle cx="98159.4" cy="48597.3" r="118.11" /> 
<circle cx="98159.4" cy="47597.3" r="118.11" /> 
<circle cx="98159.4" cy="46597.3" r="118.11" /> 
<circle cx="98159.4" cy="45597.3" r="118.11" /> 
<circle cx="75145.7" cy="35794.2" r="118.11" /> 
<circle cx="75145.7" cy="36794.2" r="118.11" /> 
<circle cx="76145.7" cy="35794.2" r="118.11" /> 
<circle cx="76145.7" cy="36794.2" r="118.11" /> 
<circle cx="77145.7" cy="35794.2" r="118.11" /> 
<circle cx="77145.7" cy="36794.2" r="118.11" /> 
<circle cx="78145.7" cy="35794.2" r="118.11" /> 
<circle cx="78145.7" cy="36794.2" r="118.11" /> 
<circle cx="79145.7" cy="35794.2" r="118.11" /> 
<circle cx="79145.7" cy="36794.2" r="118.11" /> 
<circle cx="80145.7" cy="35794.2" r="118.11" /> 
<circle cx="80145.7" cy="36794.2" r="118.11" /> 
<circle cx="81145.7" cy="35794.2" r="118.11" /> 
<circle cx="81145.7" cy="36794.2" r="118.11" /> 
<circle cx="82145.7" cy="35794.2" r="118.11" /> 
<circle cx="82145.7" cy="36794.2" r="118.11" /> 
<circle cx="83145.7" cy="35794.2" r="118.11" /> 
<circle cx="83145.7" cy="36794.2" r="118.11" /> 
<circle cx="84145.7" cy="35794.2" r="118.11" /> 
<circle cx="84145.7" cy="36794.2" r="118.11" /> 
<circle cx="85145.7" cy="35794.2" r="118.11" /> 
<circle cx="85145.7" cy="36794.2" r="118.11" /> 
<circle cx="86145.7" cy="35794.2" r="118.11" /> 
<circle cx="86145.7" cy="36794.2" r="118.11" /> 
<circle cx="87145.7" cy="35794.2" r="118.11" /> 
<circle cx="87145.7" cy="36794.2" r="118.11" /> 
<circle cx="88145.7" cy="35794.2" r="118.11" /> 
<circle cx="88145.7" cy="36794.2" r="118.11" /> 
<circle cx="89145.7" cy="35794.2" r="118.11" /> 
<circle cx="89145.7" cy="36794.2" r="118.11" /> 
<circle cx="90145.7" cy="35794.2" r="118.11" /> 
<circle cx="90145.7" cy="36794.2" r="118.11" /> 
<circle cx="91145.7" cy="35794.2" r="118.11" /> 
<circle cx="91145.7" cy="36794.2" r="118.11" /> 
<circle cx="92145.7" cy="35794.2" r="118.11" /> 
<circle cx="92145.7" cy="36794.2" r="118.11" /> 
<circle cx="93145.7" cy="35794.2" r="118.11" /> 
<circle cx="93145.7" cy="36794.2" r="118.11" /> 
<circle cx="94145.7" cy="35794.2" r="118.11" /> 
<circle cx="94145.7" cy="36794.2" r="118.11" /> 
<circle cx="75145.7" cy="63794.2" r="118.11" /> 
<circle cx="75145.7" cy="64794.2" r="118.11" /> 
<circle cx="76145.7" cy="63794.2" r="118.11" /> 
<circle cx="76145.7" cy="64794.2" r="118.11" /> 
<circle cx="77145.7" cy="63794.2" r="118.11" /> 
<circle cx="77145.7" cy="64794.2" r="118.11" /> 
<circle cx="78145.7" cy="63794.2" r="118.11" /> 
<circle cx="78145.7" cy="64794.2" r="118.11" /> 
<circle cx="79145.7" cy="63794.2" r="118.11" /> 
<circle cx="79145.7" cy="64794.2" r="118.11" /> 
<circle cx="80145.7" cy="63794.2" r="118.11" /> 
<circle cx="80145.7" cy="64794.2" r="118.11" /> 
<circle cx="81145.7" cy="63794.2" r="118.11" /> 
<circle cx="81145.7" cy="64794.2" r="118.11" /> 
<circle cx="82145.7" cy="63794.2" r="118.11" /> 
<circle cx="82145.7" cy="64794.2" r="118.11" /> 
<circle cx="83145.7" cy="63794.2" r="118.11" /> 
<circle cx="83145.7" cy="64794.2" r="118.11" /> 
<circle cx="84145.7" cy="63794.2" r="118.11" /> 
<circle cx="84145.7" cy="64794.2" r="118.11" /> 
<circle cx="85145.7" cy="63794.2" r="118.11" /> 
<circle cx="85145.7" cy="64794.2" r="118.11" /> 
<circle cx="86145.7" cy="63794.2" r="118.11" /> 
<circle cx="86145.7" cy="64794.2" r="118.11" /> 
<circle cx="87145.7" cy="63794.2" r="118.11" /> 
<circle cx="87145.7" cy="64794.2" r="118.11" /> 
<circle cx="88145.7" cy="63794.2" r="118.11" /> 
<circle cx="88145.7" cy="64794.2" r="118.11" /> 
<circle cx="89145.7" cy="63794.2" r="118.11" /> 
<circle cx="89145.7" cy="64794.2" r="118.11" /> 
<circle cx="90145.7" cy="63794.2" r="118.11" /> 
<circle cx="90145.7" cy="64794.2" r="118.11" /> 
<circle cx="91145.7" cy="63794.2" r="118.11" /> 
<circle cx="91145.7" cy="64794.2" r="118.11" /> 
<circle cx="92145.7" cy="63794.2" r="118.11" /> 
<circle cx="92145.7" cy="64794.2" r="118.11" /> 
<circle cx="93145.7" cy="63794.2" r="118.11" /> 
<circle cx="93145.7" cy="64794.2" r="118.11" /> 
<circle cx="94145.7" cy="63794.2" r="118.11" /> 
<circle cx="94145.7" cy="64794.2" r="118.11" /> 
<circle cx="100787" cy="54502.8" r="118.11" /> 
<circle cx="101787" cy="54502.8" r="118.11" /> 
<circle cx="100787" cy="53502.8" r="118.11" /> 
<circle cx="101787" cy="53502.8" r="118.11" /> 
<circle cx="100787" cy="52502.8" r="118.11" /> 
<circle cx="101787" cy="52502.8" r="118.11" /> 
<circle cx="100787" cy="51502.8" r="118.11" /> 
<circle cx="101787" cy="51502.8" r="118.11" /> 
<circle cx="100787" cy="50502.8" r="118.11" /> 
<circle cx="101787" cy="50502.8" r="118.11" /> 
<circle cx="100787" cy="49502.8" r="118.11" /> 
<circle cx="101787" cy="49502.8" r="118.11" /> 
<circle cx="100787" cy="48502.8" r="118.11" /> 
<circle cx="101787" cy="48502.8" r="118.11" /> 
<circle cx="100787" cy="47502.8" r="118.11" /> 
<circle cx="101787" cy="47502.8" r="118.11" /> 
<circle cx="100787" cy="46502.8" r="118.11" /> 
<circle cx="101787" cy="46502.8" r="118.11" /> 
<circle cx="100787" cy="45502.8" r="118.11" /> 
<circle cx="101787" cy="45502.8" r="118.11" /> 
<circle cx="100787" cy="44502.8" r="118.11" /> 
<circle cx="101787" cy="44502.8" r="118.11" /> 
<circle cx="100787" cy="43502.8" r="118.11" /> 
<circle cx="101787" cy="43502.8" r="118.11" /> 
<circle cx="100787" cy="42502.8" r="118.11" /> 
<circle cx="101787" cy="42502.8" r="118.11" /> 
<circle cx="100787" cy="41502.8" r="118.11" /> 
<circle cx="101787" cy="41502.8" r="118.11" /> 
<circle cx="100787" cy="40502.8" r="118.11" /> 
<circle cx="101787" cy="40502.8" r="118.11" /> 
<circle cx="100787" cy="39502.8" r="118.11" /> 
<circle cx="101787" cy="39502.8" r="118.11" /> 
<circle cx="100787" cy="38502.8" r="118.11" /> 
<circle cx="101787" cy="38502.8" r="118.11" /> 
<circle cx="100787" cy="37502.8" r="118.11" /> 
<circle cx="101787" cy="37502.8" r="118.11" /> 
<circle cx="100787" cy="36502.8" r="118.11" /> 
<circle cx="101787" cy="36502.8" r="118.11" /> 
<circle cx="100787" cy="35502.8" r="118.11" /> 
<circle cx="101787" cy="35502.8" r="118.11" /> 
<circle cx="72787.4" cy="54502.8" r="118.11" /> 
<circle cx="73787.4" cy="54502.8" r="118.11" /> 
<circle cx="72787.4" cy="53502.8" r="118.11" /> 
<circle cx="73787.4" cy="53502.8" r="118.11" /> 
<circle cx="72787.4" cy="52502.8" r="118.11" /> 
<circle cx="73787.4" cy="52502.8" r="118.11" /> 
<circle cx="72787.4" cy="51502.8" r="118.11" /> 
<circle cx="73787.4" cy="51502.8" r="118.11" /> 
<circle cx="72787.4" cy="50502.8" r="118.11" /> 
<circle cx="73787.4" cy="50502.8" r="118.11" /> 
<circle cx="72787.4" cy="49502.8" r="118.11" /> 
<circle cx="73787.4" cy="49502.8" r="118.11" /> 
<circle cx="72787.4" cy="48502.8" r="118.11" /> 
<circle cx="73787.4" cy="48502.8" r="118.11" /> 
<circle cx="72787.4" cy="47502.8" r="118.11" /> 
<circle cx="73787.4" cy="47502.8" r="118.11" /> 
<circle cx="72787.4" cy="46502.8" r="118.11" /> 
<circle cx="73787.4" cy="46502.8" r="118.11" /> 
<circle cx="72787.4" cy="45502.8" r="118.11" /> 
<circle cx="73787.4" cy="45502.8" r="118.11" /> 
<circle cx="72787.4" cy="44502.8" r="118.11" /> 
<circle cx="73787.4" cy="44502.8" r="118.11" /> 
<circle cx="72787.4" cy="43502.8" r="118.11" /> 
<circle cx="73787.4" cy="43502.8" r="118.11" /> 
<circle cx="72787.4" cy="42502.8" r="118.11" /> 
<circle cx="73787.4" cy="42502.8" r="118.11" /> 
<circle cx="72787.4" cy="41502.8" r="118.11" /> 
<circle cx="73787.4" cy="41502.8" r="118.11" /> 
<circle cx="72787.4" cy="40502.8" r="118.11" /> 
<circle cx="73787.4" cy="40502.8" r="118.11" /> 
<circle cx="72787.4" cy="39502.8" r="118.11" /> 
<circle cx="73787.4" cy="39502.8" r="118.11" /> 
<circle cx="72787.4" cy="38502.8" r="118.11" /> 
<circle cx="73787.4" cy="38502.8" r="118.11" /> 
<circle cx="72787.4" cy="37502.8" r="118.11" /> 
<circle cx="73787.4" cy="37502.8" r="118.11" /> 
<circle cx="72787.4" cy="36502.8" r="118.11" /> 
<circle cx="73787.4" cy="36502.8" r="118.11" /> 
<circle cx="72787.4" cy="35502.8" r="118.11" /> 
<circle cx="73787.4" cy="35502.8" r="118.11" /> 
<circle cx="72257.9" cy="68693.8" r="118.11" /> 
<circle cx="73257.9" cy="68693.8" r="118.11" /> 
<circle cx="74257.9" cy="68693.8" r="118.11" /> 
<circle cx="96958.7" cy="58209.5" r="118.11" /> 
<circle cx="96958.7" cy="57209.5" r="118.11" /> 
<circle cx="97726.4" cy="68981.2" r="118.11" /> 
<circle cx="97726.4" cy="69981.2" r="118.11" /> 
<circle cx="101614" cy="69906.4" r="118.11" /> 
<circle cx="101614" cy="70906.4" r="118.11" /> 
<circle cx="76683.1" cy="68701.7" r="118.11" /> 
<circle cx="76683.1" cy="67701.7" r="118.11" /> 
<circle cx="69960.6" cy="68701.7" r="118.11" /> 
<circle cx="69960.6" cy="67701.7" r="118.11" /> 
<circle cx="99832.7" cy="68961.5" r="118.11" /> 
<circle cx="99832.7" cy="69961.5" r="118.11" /> 
<circle cx="78740.2" cy="68701.7" r="118.11" /> 
<circle cx="78740.2" cy="67701.7" r="118.11" /> 
<circle cx="69655.5" cy="63113.1" r="118.11" /> 
<circle cx="78750" cy="61774.5" r="118.11" /> 
<circle cx="96299.2" cy="46607.2" r="118.11" /> 
<circle cx="97096.5" cy="36331.6" r="118.11" /> 
<circle cx="71023.6" cy="35563.9" r="118.11" /> 
<circle cx="103632" cy="36302" r="118.11" /> 
<circle cx="81446.9" cy="67542.2" r="118.11" /> 
<circle cx="94744.1" cy="61981.2" r="118.11" /> 
<circle cx="83643.7" cy="67317.8" r="118.11" /> 
<circle cx="83643.7" cy="68317.8" r="118.11" /> 
<circle cx="84643.7" cy="67317.8" r="118.11" /> 
<circle cx="84643.7" cy="68317.8" r="118.11" /> 
<circle cx="95442.9" cy="51705.6" r="118.11" /> 
<circle cx="95698.8" cy="69943.8" r="118.11" /> 
<circle cx="100594" cy="60400.5" r="118.11" /> 
<circle cx="102594" cy="60400.5" r="118.11" /> 
<circle cx="100594" cy="57400.5" r="118.11" /> 
<circle cx="102594" cy="57400.5" r="118.11" /> 
<circle cx="101291" cy="62760.7" r="118.11" /> 
<circle cx="101291" cy="63760.7" r="118.11" /> 
<circle cx="102291" cy="62760.7" r="118.11" /> 
<circle cx="102291" cy="63760.7" r="118.11" /> 
</g> 
</svg>
