<?xml version="1.0" standalone="no"?>
 <!DOCTYPE svg PUBLIC "-//W3C//DTD SVG 1.1//EN" 
 "http://www.w3.org/Graphics/SVG/1.1/DTD/svg11.dtd"> 
<svg xmlns="http://www.w3.org/2000/svg" version="1.1" 
    width="29.7002cm" height="21.0007cm" viewBox="0 0 116930 82680 ">
<title>SVG Picture created as poncho_rescatAR-F_Cu.svg date 2015/12/02 18:51:10 </title>
  <desc>Picture generated by PCBNEW </desc>
<g style="fill:#000000; fill-opacity:1;stroke:#000000; stroke-opacity:1;
stroke-linecap:round; stroke-linejoin:round; "
 transform="translate(0 0) scale(1 1)">
</g>
<g style="fill:#000000; fill-opacity:0.0; 
stroke:#000000; stroke-width:787.402; stroke-opacity:1; 
stroke-linecap:round; stroke-linejoin:round;">
<path d="M38976 73880
L38976 73880
" />
<path d="M37421 73880
L37421 73880
" />
<path d="M40531 73880
L40531 73880
" />
<path d="M35846 73880
L35846 73880
" />
</g>
<g style="fill:#000000; fill-opacity:0.0; 
stroke:#000000; stroke-width:669.291; stroke-opacity:1; 
stroke-linecap:round; stroke-linejoin:round;">
<path d="M44852 68069
L45167 68069
" />
<path d="M44852 67069
L45167 67069
" />
<path d="M44852 66069
L45167 66069
" />
</g>
<g style="fill:#000000; fill-opacity:0.0; 
stroke:#000000; stroke-width:787.402; stroke-opacity:1; 
stroke-linecap:round; stroke-linejoin:round;">
<path d="M38809 64591
L38809 64591
" />
<path d="M38809 60591
L38809 60591
" />
<path d="M40915 62878
L40915 62878
" />
<path d="M40915 58878
L40915 58878
" />
<path d="M40108 70122
L40108 70122
" />
<path d="M40108 66122
L40108 66122
" />
<path d="M10767 68239
L10767 68239
" />
<path d="M10767 67239
L10767 67239
" />
<path d="M40305 54831
L40305 54831
" />
<path d="M40305 53831
L40305 53831
" />
<path d="M40305 52831
L40305 52831
" />
<path d="M40305 51831
L40305 51831
" />
<path d="M40305 50831
L40305 50831
" />
<path d="M40305 49831
L40305 49831
" />
<path d="M40305 48831
L40305 48831
" />
<path d="M40305 47831
L40305 47831
" />
<path d="M18334 38028
L18334 38028
" />
<path d="M18334 39028
L18334 39028
" />
<path d="M19334 38028
L19334 38028
" />
<path d="M19334 39028
L19334 39028
" />
<path d="M20334 38028
L20334 38028
" />
<path d="M20334 39028
L20334 39028
" />
<path d="M21334 38028
L21334 38028
" />
<path d="M21334 39028
L21334 39028
" />
<path d="M22334 38028
L22334 38028
" />
<path d="M22334 39028
L22334 39028
" />
<path d="M23334 38028
L23334 38028
" />
<path d="M23334 39028
L23334 39028
" />
<path d="M24334 38028
L24334 38028
" />
<path d="M24334 39028
L24334 39028
" />
<path d="M25334 38028
L25334 38028
" />
<path d="M25334 39028
L25334 39028
" />
<path d="M26334 38028
L26334 38028
" />
<path d="M26334 39028
L26334 39028
" />
<path d="M27334 38028
L27334 38028
" />
<path d="M27334 39028
L27334 39028
" />
<path d="M28334 38028
L28334 38028
" />
<path d="M28334 39028
L28334 39028
" />
<path d="M29334 38028
L29334 38028
" />
<path d="M29334 39028
L29334 39028
" />
<path d="M30334 38028
L30334 38028
" />
<path d="M30334 39028
L30334 39028
" />
<path d="M31334 38028
L31334 38028
" />
<path d="M31334 39028
L31334 39028
" />
<path d="M32334 38028
L32334 38028
" />
<path d="M32334 39028
L32334 39028
" />
<path d="M33334 38028
L33334 38028
" />
<path d="M33334 39028
L33334 39028
" />
<path d="M34334 38028
L34334 38028
" />
<path d="M34334 39028
L34334 39028
" />
<path d="M35334 38028
L35334 38028
" />
<path d="M35334 39028
L35334 39028
" />
<path d="M36334 38028
L36334 38028
" />
<path d="M36334 39028
L36334 39028
" />
<path d="M37334 38028
L37334 38028
" />
<path d="M37334 39028
L37334 39028
" />
<path d="M18334 66028
L18334 66028
" />
<path d="M18334 67028
L18334 67028
" />
<path d="M19334 66028
L19334 66028
" />
<path d="M19334 67028
L19334 67028
" />
<path d="M20334 66028
L20334 66028
" />
<path d="M20334 67028
L20334 67028
" />
<path d="M21334 66028
L21334 66028
" />
<path d="M21334 67028
L21334 67028
" />
<path d="M22334 66028
L22334 66028
" />
<path d="M22334 67028
L22334 67028
" />
<path d="M23334 66028
L23334 66028
" />
<path d="M23334 67028
L23334 67028
" />
<path d="M24334 66028
L24334 66028
" />
<path d="M24334 67028
L24334 67028
" />
<path d="M25334 66028
L25334 66028
" />
<path d="M25334 67028
L25334 67028
" />
<path d="M26334 66028
L26334 66028
" />
<path d="M26334 67028
L26334 67028
" />
<path d="M27334 66028
L27334 66028
" />
<path d="M27334 67028
L27334 67028
" />
<path d="M28334 66028
L28334 66028
" />
<path d="M28334 67028
L28334 67028
" />
<path d="M29334 66028
L29334 66028
" />
<path d="M29334 67028
L29334 67028
" />
<path d="M30334 66028
L30334 66028
" />
<path d="M30334 67028
L30334 67028
" />
<path d="M31334 66028
L31334 66028
" />
<path d="M31334 67028
L31334 67028
" />
<path d="M32334 66028
L32334 66028
" />
<path d="M32334 67028
L32334 67028
" />
<path d="M33334 66028
L33334 66028
" />
<path d="M33334 67028
L33334 67028
" />
<path d="M34334 66028
L34334 66028
" />
<path d="M34334 67028
L34334 67028
" />
<path d="M35334 66028
L35334 66028
" />
<path d="M35334 67028
L35334 67028
" />
<path d="M36334 66028
L36334 66028
" />
<path d="M36334 67028
L36334 67028
" />
<path d="M37334 66028
L37334 66028
" />
<path d="M37334 67028
L37334 67028
" />
<path d="M42933 56737
L42933 56737
" />
<path d="M43933 56737
L43933 56737
" />
<path d="M42933 55737
L42933 55737
" />
<path d="M43933 55737
L43933 55737
" />
<path d="M42933 54737
L42933 54737
" />
<path d="M43933 54737
L43933 54737
" />
<path d="M42933 53737
L42933 53737
" />
<path d="M43933 53737
L43933 53737
" />
<path d="M42933 52737
L42933 52737
" />
<path d="M43933 52737
L43933 52737
" />
<path d="M42933 51737
L42933 51737
" />
<path d="M43933 51737
L43933 51737
" />
<path d="M42933 50737
L42933 50737
" />
<path d="M43933 50737
L43933 50737
" />
<path d="M42933 49737
L42933 49737
" />
<path d="M43933 49737
L43933 49737
" />
<path d="M42933 48737
L42933 48737
" />
<path d="M43933 48737
L43933 48737
" />
<path d="M42933 47737
L42933 47737
" />
<path d="M43933 47737
L43933 47737
" />
<path d="M42933 46737
L42933 46737
" />
<path d="M43933 46737
L43933 46737
" />
<path d="M42933 45737
L42933 45737
" />
<path d="M43933 45737
L43933 45737
" />
<path d="M42933 44737
L42933 44737
" />
<path d="M43933 44737
L43933 44737
" />
<path d="M42933 43737
L42933 43737
" />
<path d="M43933 43737
L43933 43737
" />
<path d="M42933 42737
L42933 42737
" />
<path d="M43933 42737
L43933 42737
" />
<path d="M42933 41737
L42933 41737
" />
<path d="M43933 41737
L43933 41737
" />
<path d="M42933 40737
L42933 40737
" />
<path d="M43933 40737
L43933 40737
" />
<path d="M42933 39737
L42933 39737
" />
<path d="M43933 39737
L43933 39737
" />
<path d="M42933 38737
L42933 38737
" />
<path d="M43933 38737
L43933 38737
" />
<path d="M42933 37737
L42933 37737
" />
<path d="M43933 37737
L43933 37737
" />
<path d="M14933 56737
L14933 56737
" />
<path d="M15933 56737
L15933 56737
" />
<path d="M14933 55737
L14933 55737
" />
<path d="M15933 55737
L15933 55737
" />
<path d="M14933 54737
L14933 54737
" />
<path d="M15933 54737
L15933 54737
" />
<path d="M14933 53737
L14933 53737
" />
<path d="M15933 53737
L15933 53737
" />
<path d="M14933 52737
L14933 52737
" />
<path d="M15933 52737
L15933 52737
" />
<path d="M14933 51737
L14933 51737
" />
<path d="M15933 51737
L15933 51737
" />
<path d="M14933 50737
L14933 50737
" />
<path d="M15933 50737
L15933 50737
" />
<path d="M14933 49737
L14933 49737
" />
<path d="M15933 49737
L15933 49737
" />
<path d="M14933 48737
L14933 48737
" />
<path d="M15933 48737
L15933 48737
" />
<path d="M14933 47737
L14933 47737
" />
<path d="M15933 47737
L15933 47737
" />
<path d="M14933 46737
L14933 46737
" />
<path d="M15933 46737
L15933 46737
" />
<path d="M14933 45737
L14933 45737
" />
<path d="M15933 45737
L15933 45737
" />
<path d="M14933 44737
L14933 44737
" />
<path d="M15933 44737
L15933 44737
" />
<path d="M14933 43737
L14933 43737
" />
<path d="M15933 43737
L15933 43737
" />
<path d="M14933 42737
L14933 42737
" />
<path d="M15933 42737
L15933 42737
" />
<path d="M14933 41737
L14933 41737
" />
<path d="M15933 41737
L15933 41737
" />
<path d="M14933 40737
L14933 40737
" />
<path d="M15933 40737
L15933 40737
" />
<path d="M14933 39737
L14933 39737
" />
<path d="M15933 39737
L15933 39737
" />
<path d="M14933 38737
L14933 38737
" />
<path d="M15933 38737
L15933 38737
" />
<path d="M14933 37737
L14933 37737
" />
<path d="M15933 37737
L15933 37737
" />
</g>
<g style="fill:#000000; fill-opacity:0.0; 
stroke:#000000; stroke-width:669.291; stroke-opacity:1; 
stroke-linecap:round; stroke-linejoin:round;">
<path d="M19137 72305
L19137 72620
" />
<path d="M20137 72305
L20137 72620
" />
<path d="M21137 72305
L21137 72620
" />
</g>
<g style="fill:#000000; fill-opacity:0.0; 
stroke:#000000; stroke-width:787.402; stroke-opacity:1; 
stroke-linecap:round; stroke-linejoin:round;">
<path d="M40007 58555
L40007 58555
" />
<path d="M39007 58555
L39007 58555
" />
</g>
<g style="fill:#000000; fill-opacity:0.0; 
stroke:#000000; stroke-width:39.3701; stroke-opacity:1; 
stroke-linecap:round; stroke-linejoin:round;">
</g>
<g style="fill:#000000; fill-opacity:1.0; 
stroke:#000000; stroke-width:39.3701; stroke-opacity:1; 
stroke-linecap:round; stroke-linejoin:round;">
<circle cx="42037.4" cy="70079.6" r="374.016" /> 
<circle cx="42037.4" cy="69079.6" r="374.016" /> 
<circle cx="42785.4" cy="67126.9" r="374.016" /> 
<circle cx="42785.4" cy="66126.9" r="374.016" /> 
<circle cx="22687" cy="72451.7" r="374.016" /> 
<circle cx="22687" cy="71451.7" r="374.016" /> 
<circle cx="17185" cy="72432" r="374.016" /> 
<circle cx="17185" cy="71432" r="374.016" /> 
</g>
<g style="fill:#000000; fill-opacity:1.0; 
stroke:#000000; stroke-width:787.402; stroke-opacity:1; 
stroke-linecap:round; stroke-linejoin:round;">
<path d="M43564 70101
L43564 70101
" />
</g>
<g style="fill:#000000; fill-opacity:1.0; 
stroke:#000000; stroke-width:39.3701; stroke-opacity:1; 
stroke-linecap:round; stroke-linejoin:round;">
<circle cx="44565" cy="70101.3" r="374.016" /> 
</g>
<g style="fill:#000000; fill-opacity:1.0; 
stroke:#000000; stroke-width:787.402; stroke-opacity:1; 
stroke-linecap:round; stroke-linejoin:round;">
<path d="M24547 72451
L24547 72451
" />
</g>
<g style="fill:#000000; fill-opacity:1.0; 
stroke:#000000; stroke-width:39.3701; stroke-opacity:1; 
stroke-linecap:round; stroke-linejoin:round;">
<circle cx="24547.2" cy="71451.7" r="374.016" /> 
</g>
<g style="fill:#FFFFFF; fill-opacity:1.0; 
stroke:#FFFFFF; stroke-width:39.3701; stroke-opacity:1; 
stroke-linecap:round; stroke-linejoin:round;">
<circle cx="38976.4" cy="73880.8" r="118.11" /> 
<circle cx="37421.3" cy="73880.8" r="118.11" /> 
<circle cx="40531.5" cy="73880.8" r="118.11" /> 
<circle cx="35846.5" cy="73880.8" r="118.11" /> 
<circle cx="45009.8" cy="68069.8" r="118.11" /> 
<circle cx="45009.8" cy="67069.8" r="118.11" /> 
<circle cx="45009.8" cy="66069.8" r="118.11" /> 
<circle cx="38809.1" cy="64591.4" r="118.11" /> 
<circle cx="38809.1" cy="60591.4" r="118.11" /> 
<circle cx="40915.4" cy="62878.8" r="118.11" /> 
<circle cx="40915.4" cy="58878.8" r="118.11" /> 
<circle cx="40108.3" cy="70122.9" r="118.11" /> 
<circle cx="40108.3" cy="66122.9" r="118.11" /> 
<circle cx="10767.7" cy="68239.1" r="118.11" /> 
<circle cx="10767.7" cy="67239.1" r="118.11" /> 
<circle cx="40305.1" cy="54831.6" r="118.11" /> 
<circle cx="40305.1" cy="53831.6" r="118.11" /> 
<circle cx="40305.1" cy="52831.6" r="118.11" /> 
<circle cx="40305.1" cy="51831.6" r="118.11" /> 
<circle cx="40305.1" cy="50831.6" r="118.11" /> 
<circle cx="40305.1" cy="49831.6" r="118.11" /> 
<circle cx="40305.1" cy="48831.6" r="118.11" /> 
<circle cx="40305.1" cy="47831.6" r="118.11" /> 
<circle cx="18334.6" cy="38028.4" r="118.11" /> 
<circle cx="18334.6" cy="39028.4" r="118.11" /> 
<circle cx="19334.6" cy="38028.4" r="118.11" /> 
<circle cx="19334.6" cy="39028.4" r="118.11" /> 
<circle cx="20334.6" cy="38028.4" r="118.11" /> 
<circle cx="20334.6" cy="39028.4" r="118.11" /> 
<circle cx="21334.6" cy="38028.4" r="118.11" /> 
<circle cx="21334.6" cy="39028.4" r="118.11" /> 
<circle cx="22334.6" cy="38028.4" r="118.11" /> 
<circle cx="22334.6" cy="39028.4" r="118.11" /> 
<circle cx="23334.6" cy="38028.4" r="118.11" /> 
<circle cx="23334.6" cy="39028.4" r="118.11" /> 
<circle cx="24334.6" cy="38028.4" r="118.11" /> 
<circle cx="24334.6" cy="39028.4" r="118.11" /> 
<circle cx="25334.6" cy="38028.4" r="118.11" /> 
<circle cx="25334.6" cy="39028.4" r="118.11" /> 
<circle cx="26334.6" cy="38028.4" r="118.11" /> 
<circle cx="26334.6" cy="39028.4" r="118.11" /> 
<circle cx="27334.6" cy="38028.4" r="118.11" /> 
<circle cx="27334.6" cy="39028.4" r="118.11" /> 
<circle cx="28334.6" cy="38028.4" r="118.11" /> 
<circle cx="28334.6" cy="39028.4" r="118.11" /> 
<circle cx="29334.6" cy="38028.4" r="118.11" /> 
<circle cx="29334.6" cy="39028.4" r="118.11" /> 
<circle cx="30334.6" cy="38028.4" r="118.11" /> 
<circle cx="30334.6" cy="39028.4" r="118.11" /> 
<circle cx="31334.6" cy="38028.4" r="118.11" /> 
<circle cx="31334.6" cy="39028.4" r="118.11" /> 
<circle cx="32334.6" cy="38028.4" r="118.11" /> 
<circle cx="32334.6" cy="39028.4" r="118.11" /> 
<circle cx="33334.6" cy="38028.4" r="118.11" /> 
<circle cx="33334.6" cy="39028.4" r="118.11" /> 
<circle cx="34334.6" cy="38028.4" r="118.11" /> 
<circle cx="34334.6" cy="39028.4" r="118.11" /> 
<circle cx="35334.6" cy="38028.4" r="118.11" /> 
<circle cx="35334.6" cy="39028.4" r="118.11" /> 
<circle cx="36334.6" cy="38028.4" r="118.11" /> 
<circle cx="36334.6" cy="39028.4" r="118.11" /> 
<circle cx="37334.6" cy="38028.4" r="118.11" /> 
<circle cx="37334.6" cy="39028.4" r="118.11" /> 
<circle cx="18334.6" cy="66028.4" r="118.11" /> 
<circle cx="18334.6" cy="67028.4" r="118.11" /> 
<circle cx="19334.6" cy="66028.4" r="118.11" /> 
<circle cx="19334.6" cy="67028.4" r="118.11" /> 
<circle cx="20334.6" cy="66028.4" r="118.11" /> 
<circle cx="20334.6" cy="67028.4" r="118.11" /> 
<circle cx="21334.6" cy="66028.4" r="118.11" /> 
<circle cx="21334.6" cy="67028.4" r="118.11" /> 
<circle cx="22334.6" cy="66028.4" r="118.11" /> 
<circle cx="22334.6" cy="67028.4" r="118.11" /> 
<circle cx="23334.6" cy="66028.4" r="118.11" /> 
<circle cx="23334.6" cy="67028.4" r="118.11" /> 
<circle cx="24334.6" cy="66028.4" r="118.11" /> 
<circle cx="24334.6" cy="67028.4" r="118.11" /> 
<circle cx="25334.6" cy="66028.4" r="118.11" /> 
<circle cx="25334.6" cy="67028.4" r="118.11" /> 
<circle cx="26334.6" cy="66028.4" r="118.11" /> 
<circle cx="26334.6" cy="67028.4" r="118.11" /> 
<circle cx="27334.6" cy="66028.4" r="118.11" /> 
<circle cx="27334.6" cy="67028.4" r="118.11" /> 
<circle cx="28334.6" cy="66028.4" r="118.11" /> 
<circle cx="28334.6" cy="67028.4" r="118.11" /> 
<circle cx="29334.6" cy="66028.4" r="118.11" /> 
<circle cx="29334.6" cy="67028.4" r="118.11" /> 
<circle cx="30334.6" cy="66028.4" r="118.11" /> 
<circle cx="30334.6" cy="67028.4" r="118.11" /> 
<circle cx="31334.6" cy="66028.4" r="118.11" /> 
<circle cx="31334.6" cy="67028.4" r="118.11" /> 
<circle cx="32334.6" cy="66028.4" r="118.11" /> 
<circle cx="32334.6" cy="67028.4" r="118.11" /> 
<circle cx="33334.6" cy="66028.4" r="118.11" /> 
<circle cx="33334.6" cy="67028.4" r="118.11" /> 
<circle cx="34334.6" cy="66028.4" r="118.11" /> 
<circle cx="34334.6" cy="67028.4" r="118.11" /> 
<circle cx="35334.6" cy="66028.4" r="118.11" /> 
<circle cx="35334.6" cy="67028.4" r="118.11" /> 
<circle cx="36334.6" cy="66028.4" r="118.11" /> 
<circle cx="36334.6" cy="67028.4" r="118.11" /> 
<circle cx="37334.6" cy="66028.4" r="118.11" /> 
<circle cx="37334.6" cy="67028.4" r="118.11" /> 
<circle cx="42933.1" cy="56737.1" r="118.11" /> 
<circle cx="43933.1" cy="56737.1" r="118.11" /> 
<circle cx="42933.1" cy="55737.1" r="118.11" /> 
<circle cx="43933.1" cy="55737.1" r="118.11" /> 
<circle cx="42933.1" cy="54737.1" r="118.11" /> 
<circle cx="43933.1" cy="54737.1" r="118.11" /> 
<circle cx="42933.1" cy="53737.1" r="118.11" /> 
<circle cx="43933.1" cy="53737.1" r="118.11" /> 
<circle cx="42933.1" cy="52737.1" r="118.11" /> 
<circle cx="43933.1" cy="52737.1" r="118.11" /> 
<circle cx="42933.1" cy="51737.1" r="118.11" /> 
<circle cx="43933.1" cy="51737.1" r="118.11" /> 
<circle cx="42933.1" cy="50737.1" r="118.11" /> 
<circle cx="43933.1" cy="50737.1" r="118.11" /> 
<circle cx="42933.1" cy="49737.1" r="118.11" /> 
<circle cx="43933.1" cy="49737.1" r="118.11" /> 
<circle cx="42933.1" cy="48737.1" r="118.11" /> 
<circle cx="43933.1" cy="48737.1" r="118.11" /> 
<circle cx="42933.1" cy="47737.1" r="118.11" /> 
<circle cx="43933.1" cy="47737.1" r="118.11" /> 
<circle cx="42933.1" cy="46737.1" r="118.11" /> 
<circle cx="43933.1" cy="46737.1" r="118.11" /> 
<circle cx="42933.1" cy="45737.1" r="118.11" /> 
<circle cx="43933.1" cy="45737.1" r="118.11" /> 
<circle cx="42933.1" cy="44737.1" r="118.11" /> 
<circle cx="43933.1" cy="44737.1" r="118.11" /> 
<circle cx="42933.1" cy="43737.1" r="118.11" /> 
<circle cx="43933.1" cy="43737.1" r="118.11" /> 
<circle cx="42933.1" cy="42737.1" r="118.11" /> 
<circle cx="43933.1" cy="42737.1" r="118.11" /> 
<circle cx="42933.1" cy="41737.1" r="118.11" /> 
<circle cx="43933.1" cy="41737.1" r="118.11" /> 
<circle cx="42933.1" cy="40737.1" r="118.11" /> 
<circle cx="43933.1" cy="40737.1" r="118.11" /> 
<circle cx="42933.1" cy="39737.1" r="118.11" /> 
<circle cx="43933.1" cy="39737.1" r="118.11" /> 
<circle cx="42933.1" cy="38737.1" r="118.11" /> 
<circle cx="43933.1" cy="38737.1" r="118.11" /> 
<circle cx="42933.1" cy="37737.1" r="118.11" /> 
<circle cx="43933.1" cy="37737.1" r="118.11" /> 
<circle cx="14933.1" cy="56737.1" r="118.11" /> 
<circle cx="15933.1" cy="56737.1" r="118.11" /> 
<circle cx="14933.1" cy="55737.1" r="118.11" /> 
<circle cx="15933.1" cy="55737.1" r="118.11" /> 
<circle cx="14933.1" cy="54737.1" r="118.11" /> 
<circle cx="15933.1" cy="54737.1" r="118.11" /> 
<circle cx="14933.1" cy="53737.1" r="118.11" /> 
<circle cx="15933.1" cy="53737.1" r="118.11" /> 
<circle cx="14933.1" cy="52737.1" r="118.11" /> 
<circle cx="15933.1" cy="52737.1" r="118.11" /> 
<circle cx="14933.1" cy="51737.1" r="118.11" /> 
<circle cx="15933.1" cy="51737.1" r="118.11" /> 
<circle cx="14933.1" cy="50737.1" r="118.11" /> 
<circle cx="15933.1" cy="50737.1" r="118.11" /> 
<circle cx="14933.1" cy="49737.1" r="118.11" /> 
<circle cx="15933.1" cy="49737.1" r="118.11" /> 
<circle cx="14933.1" cy="48737.1" r="118.11" /> 
<circle cx="15933.1" cy="48737.1" r="118.11" /> 
<circle cx="14933.1" cy="47737.1" r="118.11" /> 
<circle cx="15933.1" cy="47737.1" r="118.11" /> 
<circle cx="14933.1" cy="46737.1" r="118.11" /> 
<circle cx="15933.1" cy="46737.1" r="118.11" /> 
<circle cx="14933.1" cy="45737.1" r="118.11" /> 
<circle cx="15933.1" cy="45737.1" r="118.11" /> 
<circle cx="14933.1" cy="44737.1" r="118.11" /> 
<circle cx="15933.1" cy="44737.1" r="118.11" /> 
<circle cx="14933.1" cy="43737.1" r="118.11" /> 
<circle cx="15933.1" cy="43737.1" r="118.11" /> 
<circle cx="14933.1" cy="42737.1" r="118.11" /> 
<circle cx="15933.1" cy="42737.1" r="118.11" /> 
<circle cx="14933.1" cy="41737.1" r="118.11" /> 
<circle cx="15933.1" cy="41737.1" r="118.11" /> 
<circle cx="14933.1" cy="40737.1" r="118.11" /> 
<circle cx="15933.1" cy="40737.1" r="118.11" /> 
<circle cx="14933.1" cy="39737.1" r="118.11" /> 
<circle cx="15933.1" cy="39737.1" r="118.11" /> 
<circle cx="14933.1" cy="38737.1" r="118.11" /> 
<circle cx="15933.1" cy="38737.1" r="118.11" /> 
<circle cx="14933.1" cy="37737.1" r="118.11" /> 
<circle cx="15933.1" cy="37737.1" r="118.11" /> 
<circle cx="19137.8" cy="72463.5" r="118.11" /> 
<circle cx="20137.8" cy="72463.5" r="118.11" /> 
<circle cx="21137.8" cy="72463.5" r="118.11" /> 
<circle cx="40007.9" cy="58556" r="118.11" /> 
<circle cx="39007.9" cy="58556" r="118.11" /> 
<circle cx="42037.4" cy="70079.6" r="118.11" /> 
<circle cx="42037.4" cy="69079.6" r="118.11" /> 
<circle cx="42785.4" cy="67126.9" r="118.11" /> 
<circle cx="42785.4" cy="66126.9" r="118.11" /> 
<circle cx="22687" cy="72451.7" r="118.11" /> 
<circle cx="22687" cy="71451.7" r="118.11" /> 
<circle cx="17185" cy="72432" r="118.11" /> 
<circle cx="17185" cy="71432" r="118.11" /> 
<circle cx="43565" cy="70101.3" r="118.11" /> 
<circle cx="44565" cy="70101.3" r="118.11" /> 
<circle cx="24547.2" cy="72451.7" r="118.11" /> 
<circle cx="24547.2" cy="71451.7" r="118.11" /> 
</g> 
</svg>
