<?xml version="1.0" standalone="no"?>
 <!DOCTYPE svg PUBLIC "-//W3C//DTD SVG 1.1//EN" 
 "http://www.w3.org/Graphics/SVG/1.1/DTD/svg11.dtd"> 
<svg xmlns="http://www.w3.org/2000/svg" version="1.1" 
    width="29.7002cm" height="21.0007cm" viewBox="0 0 116930 82680 ">
<title>SVG Picture created as poncho_rescatAR-F_SilkS.svg date 2015/12/04 11:41:41 </title>
  <desc>Picture generated by PCBNEW </desc>
<g style="fill:#000000; fill-opacity:1;stroke:#000000; stroke-opacity:1;
stroke-linecap:round; stroke-linejoin:round; "
 transform="translate(0 0) scale(1 1)">
</g>
<g style="fill:#000000; fill-opacity:0.0; 
stroke:#000000; stroke-width:80; stroke-opacity:1; 
stroke-linecap:round; stroke-linejoin:round;">
<path d="M101631 68605
L102116 68605
L102173 68624
L102202 68643
L102231 68681
L102231 68757
L102202 68796
L102173 68815
L102116 68834
L101631 68834
" />
<path d="M102231 69234
L102231 69005
" />
<path d="M102231 69119
L101631 69119
L101716 69081
L101773 69043
L101802 69005
" />
<path d="M102659 71167
L102469 71167
L102469 71767
" />
<path d="M102792 71167
L102792 71767
L102926 71338
L103059 71767
L103059 71167
" />
<path d="M103211 71767
L103459 71767
L103326 71538
L103383 71538
L103421 71510
L103440 71481
L103459 71424
L103459 71281
L103440 71224
L103421 71196
L103383 71167
L103269 71167
L103231 71196
L103211 71224
" />
<path d="M103840 71167
L103611 71167
" />
<path d="M103726 71167
L103726 71767
L103688 71681
L103650 71624
L103611 71596
" />
<path d="M103973 71767
L104240 71767
L104069 71167
" />
<path d="M104335 71767
L104564 71767
" />
<path d="M104450 71167
L104450 71767
" />
<path d="M89947 69465
L90004 69446
L90023 69427
L90042 69389
L90042 69332
L90023 69294
L90004 69275
L89966 69256
L89814 69256
L89814 69656
L89947 69656
L89985 69637
L90004 69618
L90023 69580
L90023 69541
L90004 69503
L89985 69484
L89947 69465
L89814 69465
" />
<path d="M90194 69370
L90385 69370
" />
<path d="M90156 69256
L90290 69656
L90423 69256
" />
<path d="M90499 69656
L90728 69656
" />
<path d="M90614 69256
L90614 69656
" />
<path d="M91071 69256
L90842 69256
" />
<path d="M90956 69256
L90956 69656
L90918 69599
L90880 69561
L90842 69541
" />
<path d="M100103 65853
L99937 66114
" />
<path d="M99817 65853
L99817 66403
L100008 66403
L100056 66376
L100079 66350
L100103 66298
L100103 66219
L100079 66167
L100056 66141
L100008 66114
L99817 66114
" />
<path d="M100532 66219
L100532 65853
" />
<path d="M100413 66429
L100294 66036
L100603 66036
" />
<path d="M97200 61612
L96939 61445
" />
<path d="M97200 61326
L96650 61326
L96650 61517
L96677 61564
L96703 61588
L96755 61612
L96834 61612
L96886 61588
L96912 61564
L96939 61517
L96939 61326
" />
<path d="M97200 62088
L97200 61802
" />
<path d="M97200 61945
L96650 61945
L96729 61898
L96781 61850
L96808 61802
" />
<path d="M99188 67319
L99021 67581
" />
<path d="M98902 67319
L98902 67869
L99093 67869
L99140 67843
L99164 67817
L99188 67764
L99188 67686
L99164 67633
L99140 67607
L99093 67581
L98902 67581
" />
<path d="M99640 67869
L99402 67869
L99378 67607
L99402 67633
L99450 67660
L99569 67660
L99616 67633
L99640 67607
L99664 67555
L99664 67424
L99640 67371
L99616 67345
L99569 67319
L99450 67319
L99402 67345
L99378 67371
" />
</g>
<g style="fill:#000000; fill-opacity:0.0; 
stroke:#000000; stroke-width:47.2441; stroke-opacity:1; 
stroke-linecap:round; stroke-linejoin:round;">
<path d="M70284 65272
L69970 65272
L69970 65392
L69985 65422
L70000 65437
L70029 65452
L70074 65452
L70104 65437
L70119 65422
L70134 65392
L70134 65272
" />
<path d="M70284 65752
L70284 65572
" />
<path d="M70284 65662
L69970 65662
L70014 65632
L70044 65602
L70059 65572
" />
<path d="M66934 64874
L66934 64724
L67084 64709
L67069 64724
L67054 64754
L67054 64829
L67069 64859
L67084 64874
L67114 64889
L67189 64889
L67219 64874
L67234 64859
L67249 64829
L67249 64754
L67234 64724
L67219 64709
" />
<path d="M66934 64979
L67249 65084
L66934 65189
" />
<path d="M67279 65219
L67279 65459
" />
<path d="M66934 65594
L66934 65654
L66949 65684
L66979 65714
L67039 65729
L67144 65729
L67204 65714
L67234 65684
L67249 65654
L67249 65594
L67234 65564
L67204 65534
L67144 65519
L67039 65519
L66979 65534
L66949 65564
L66934 65594
" />
<path d="M66934 65864
L67189 65864
L67219 65879
L67234 65894
L67249 65924
L67249 65984
L67234 66014
L67219 66029
L67189 66044
L66934 66044
" />
<path d="M66934 66149
L66934 66329
" />
<path d="M67249 66239
L66934 66239
" />
</g>
<g style="fill:#000000; fill-opacity:0.0; 
stroke:#000000; stroke-width:80; stroke-opacity:1; 
stroke-linecap:round; stroke-linejoin:round;">
<path d="M99171 48802
L98771 48802
L98771 48954
L98790 48992
L98809 49011
L98847 49030
L98904 49030
L98942 49011
L98961 48992
L98980 48954
L98980 48802
" />
<path d="M98809 49183
L98790 49202
L98771 49240
L98771 49335
L98790 49373
L98809 49392
L98847 49411
L98885 49411
L98942 49392
L99171 49163
L99171 49411
" />
<path d="M83226 37670
L83207 37651
L83150 37632
L83112 37632
L83055 37651
L83017 37689
L82998 37727
L82979 37803
L82979 37860
L82998 37937
L83017 37975
L83055 38013
L83112 38032
L83150 38032
L83207 38013
L83226 37994
" />
<path d="M83474 38032
L83550 38032
L83588 38013
L83626 37975
L83645 37898
L83645 37765
L83626 37689
L83588 37651
L83550 37632
L83474 37632
L83436 37651
L83398 37689
L83379 37765
L83379 37898
L83398 37975
L83436 38013
L83474 38032
" />
<path d="M83817 37632
L83817 38032
L84045 37632
L84045 38032
" />
<path d="M84140 37594
L84445 37594
" />
<path d="M84521 37651
L84579 37632
L84674 37632
L84712 37651
L84731 37670
L84750 37708
L84750 37746
L84731 37784
L84712 37803
L84674 37822
L84598 37841
L84559 37860
L84540 37879
L84521 37917
L84521 37956
L84540 37994
L84559 38013
L84598 38032
L84693 38032
L84750 38013
" />
<path d="M84998 38032
L85074 38032
L85112 38013
L85150 37975
L85169 37898
L85169 37765
L85150 37689
L85112 37651
L85074 37632
L84998 37632
L84959 37651
L84921 37689
L84902 37765
L84902 37898
L84921 37975
L84959 38013
L84998 38032
" />
<path d="M85550 37632
L85321 37632
" />
<path d="M85436 37632
L85436 38032
L85398 37975
L85359 37937
L85321 37917
" />
<path d="M85798 38032
L85836 38032
L85874 38013
L85893 37994
L85912 37956
L85931 37879
L85931 37784
L85912 37708
L85893 37670
L85874 37651
L85836 37632
L85798 37632
L85759 37651
L85740 37670
L85721 37708
L85702 37784
L85702 37879
L85721 37956
L85740 37994
L85759 38013
L85798 38032
" />
<path d="M86312 37632
L86083 37632
" />
<path d="M86198 37632
L86198 38032
L86159 37975
L86121 37937
L86083 37917
" />
<path d="M83226 65670
L83207 65651
L83150 65632
L83112 65632
L83055 65651
L83017 65689
L82998 65727
L82979 65803
L82979 65860
L82998 65937
L83017 65975
L83055 66013
L83112 66032
L83150 66032
L83207 66013
L83226 65994
" />
<path d="M83474 66032
L83550 66032
L83588 66013
L83626 65975
L83645 65898
L83645 65765
L83626 65689
L83588 65651
L83550 65632
L83474 65632
L83436 65651
L83398 65689
L83379 65765
L83379 65898
L83398 65975
L83436 66013
L83474 66032
" />
<path d="M83817 65632
L83817 66032
L84045 65632
L84045 66032
" />
<path d="M84140 65594
L84445 65594
" />
<path d="M84521 65651
L84579 65632
L84674 65632
L84712 65651
L84731 65670
L84750 65708
L84750 65746
L84731 65784
L84712 65803
L84674 65822
L84598 65841
L84559 65860
L84540 65879
L84521 65917
L84521 65956
L84540 65994
L84559 66013
L84598 66032
L84693 66032
L84750 66013
" />
<path d="M84998 66032
L85074 66032
L85112 66013
L85150 65975
L85169 65898
L85169 65765
L85150 65689
L85112 65651
L85074 65632
L84998 65632
L84959 65651
L84921 65689
L84902 65765
L84902 65898
L84921 65975
L84959 66013
L84998 66032
" />
<path d="M85550 65632
L85321 65632
" />
<path d="M85436 65632
L85436 66032
L85398 65975
L85359 65937
L85321 65917
" />
<path d="M85798 66032
L85836 66032
L85874 66013
L85893 65994
L85912 65956
L85931 65879
L85931 65784
L85912 65708
L85893 65670
L85874 65651
L85836 65632
L85798 65632
L85759 65651
L85740 65670
L85721 65708
L85702 65784
L85702 65879
L85721 65956
L85740 65994
L85759 66013
L85798 66032
" />
<path d="M86274 65898
L86274 65632
" />
<path d="M86179 66051
L86083 65765
L86331 65765
" />
<path d="M102911 43298
L102930 43279
L102949 43221
L102949 43183
L102930 43126
L102892 43088
L102854 43069
L102777 43050
L102720 43050
L102644 43069
L102606 43088
L102568 43126
L102549 43183
L102549 43221
L102568 43279
L102587 43298
" />
<path d="M102549 43545
L102549 43621
L102568 43659
L102606 43698
L102682 43717
L102815 43717
L102892 43698
L102930 43659
L102949 43621
L102949 43545
L102930 43507
L102892 43469
L102815 43450
L102682 43450
L102606 43469
L102568 43507
L102549 43545
" />
<path d="M102949 43888
L102549 43888
L102949 44117
L102549 44117
" />
<path d="M102987 44212
L102987 44517
" />
<path d="M102739 44612
L102739 44745
" />
<path d="M102949 44802
L102949 44612
L102549 44612
L102549 44802
" />
<path d="M102796 44974
L102796 45279
" />
<path d="M102911 45698
L102930 45679
L102949 45621
L102949 45583
L102930 45526
L102892 45488
L102854 45469
L102777 45450
L102720 45450
L102644 45469
L102606 45488
L102568 45526
L102549 45583
L102549 45621
L102568 45679
L102587 45698
" />
<path d="M102949 45869
L102549 45869
" />
<path d="M102835 46040
L102835 46231
" />
<path d="M102949 46002
L102549 46136
L102949 46269
" />
<path d="M102835 46383
L102835 46574
" />
<path d="M102949 46345
L102549 46479
L102949 46612
" />
<path d="M102949 46955
L102949 46726
" />
<path d="M102949 46840
L102549 46840
L102606 46802
L102644 46764
L102663 46726
" />
<path d="M74911 43298
L74930 43279
L74949 43221
L74949 43183
L74930 43126
L74892 43088
L74854 43069
L74777 43050
L74720 43050
L74644 43069
L74606 43088
L74568 43126
L74549 43183
L74549 43221
L74568 43279
L74587 43298
" />
<path d="M74549 43545
L74549 43621
L74568 43659
L74606 43698
L74682 43717
L74815 43717
L74892 43698
L74930 43659
L74949 43621
L74949 43545
L74930 43507
L74892 43469
L74815 43450
L74682 43450
L74606 43469
L74568 43507
L74549 43545
" />
<path d="M74949 43888
L74549 43888
L74949 44117
L74549 44117
" />
<path d="M74987 44212
L74987 44517
" />
<path d="M74739 44612
L74739 44745
" />
<path d="M74949 44802
L74949 44612
L74549 44612
L74549 44802
" />
<path d="M74796 44974
L74796 45279
" />
<path d="M74911 45698
L74930 45679
L74949 45621
L74949 45583
L74930 45526
L74892 45488
L74854 45469
L74777 45450
L74720 45450
L74644 45469
L74606 45488
L74568 45526
L74549 45583
L74549 45621
L74568 45679
L74587 45698
" />
<path d="M74949 45869
L74549 45869
" />
<path d="M74835 46040
L74835 46231
" />
<path d="M74949 46002
L74549 46136
L74949 46269
" />
<path d="M74835 46383
L74835 46574
" />
<path d="M74949 46345
L74549 46479
L74949 46612
" />
<path d="M74587 46726
L74568 46745
L74549 46783
L74549 46879
L74568 46917
L74587 46936
L74625 46955
L74663 46955
L74720 46936
L74949 46707
L74949 46955
" />
<path d="M72953 70550
L72953 70065
L72972 70008
L72991 69979
L73029 69950
L73105 69950
L73143 69979
L73162 70008
L73181 70065
L73181 70550
" />
<path d="M73353 70493
L73372 70522
L73410 70550
L73505 70550
L73543 70522
L73562 70493
L73581 70436
L73581 70379
L73562 70293
L73334 69950
L73581 69950
" />
<path d="M72141 67200
L71950 67200
L71950 67800
" />
<path d="M72274 67200
L72274 67800
L72407 67372
L72541 67800
L72541 67200
" />
<path d="M72693 67800
L72960 67800
L72788 67200
" />
<path d="M73169 67543
L73131 67572
L73112 67600
L73093 67658
L73093 67686
L73112 67743
L73131 67772
L73169 67800
L73245 67800
L73284 67772
L73303 67743
L73322 67686
L73322 67658
L73303 67600
L73284 67572
L73245 67543
L73169 67543
L73131 67515
L73112 67486
L73093 67429
L73093 67315
L73112 67258
L73131 67229
L73169 67200
L73245 67200
L73284 67229
L73303 67258
L73322 67315
L73322 67429
L73303 67486
L73284 67515
L73245 67543
" />
<path d="M73569 67800
L73607 67800
L73645 67772
L73665 67743
L73684 67686
L73703 67572
L73703 67429
L73684 67315
L73665 67258
L73645 67229
L73607 67200
L73569 67200
L73531 67229
L73512 67258
L73493 67315
L73474 67429
L73474 67572
L73493 67686
L73512 67743
L73531 67772
L73569 67800
" />
<path d="M74065 67800
L73874 67800
L73855 67515
L73874 67543
L73912 67572
L74007 67572
L74045 67543
L74065 67515
L74084 67458
L74084 67315
L74065 67258
L74045 67229
L74007 67200
L73912 67200
L73874 67229
L73855 67258
" />
</g>
<g style="fill:#000000; fill-opacity:0.0; 
stroke:#000000; stroke-width:35; stroke-opacity:1; 
stroke-linecap:round; stroke-linejoin:round;">
<path d="M98180 56788
L97880 56788
L97880 56859
L97894 56902
L97922 56930
L97951 56945
L98008 56959
L98051 56959
L98108 56945
L98137 56930
L98165 56902
L98180 56859
L98180 56788
" />
<path d="M98180 57245
L98180 57073
" />
<path d="M98180 57159
L97880 57159
L97922 57130
L97951 57102
L97965 57073
" />
<path d="M96080 57516
L96080 57373
L95780 57373
" />
<path d="M95922 57616
L95922 57716
" />
<path d="M96080 57759
L96080 57616
L95780 57616
L95780 57759
" />
<path d="M96080 57888
L95780 57888
L95780 57959
L95794 58002
L95822 58030
L95851 58045
L95908 58059
L95951 58059
L96008 58045
L96037 58030
L96065 58002
L96080 57959
L96080 57888
" />
</g>
<g style="fill:#000000; fill-opacity:0.0; 
stroke:#000000; stroke-width:80; stroke-opacity:1; 
stroke-linecap:round; stroke-linejoin:round;">
<path d="M96950 69514
L96969 69495
L96988 69438
L96988 69400
L96969 69343
L96931 69304
L96893 69285
L96816 69266
L96759 69266
L96683 69285
L96645 69304
L96607 69343
L96588 69400
L96588 69438
L96607 69495
L96626 69514
" />
<path d="M96721 69857
L96988 69857
" />
<path d="M96569 69762
L96854 69666
L96854 69914
" />
<path d="M100837 70439
L100857 70420
L100876 70363
L100876 70325
L100857 70268
L100818 70230
L100780 70211
L100704 70192
L100647 70192
L100571 70211
L100533 70230
L100495 70268
L100476 70325
L100476 70363
L100495 70420
L100514 70439
" />
<path d="M100476 70573
L100476 70820
L100628 70687
L100628 70744
L100647 70782
L100666 70801
L100704 70820
L100799 70820
L100837 70801
L100857 70782
L100876 70744
L100876 70630
L100857 70592
L100837 70573
" />
<path d="M77706 68034
L77725 68015
L77744 67958
L77744 67920
L77725 67863
L77687 67825
L77649 67806
L77573 67787
L77516 67787
L77440 67806
L77402 67825
L77364 67863
L77344 67920
L77344 67958
L77364 68015
L77383 68034
" />
<path d="M77344 68377
L77344 68301
L77364 68263
L77383 68244
L77440 68206
L77516 68187
L77668 68187
L77706 68206
L77725 68225
L77744 68263
L77744 68339
L77725 68377
L77706 68396
L77668 68415
L77573 68415
L77535 68396
L77516 68377
L77497 68339
L77497 68263
L77516 68225
L77535 68206
L77573 68187
" />
<path d="M70984 68034
L71003 68015
L71022 67958
L71022 67920
L71003 67863
L70965 67825
L70927 67806
L70851 67787
L70793 67787
L70717 67806
L70679 67825
L70641 67863
L70622 67920
L70622 67958
L70641 68015
L70660 68034
" />
<path d="M70622 68396
L70622 68206
L70813 68187
L70793 68206
L70774 68244
L70774 68339
L70793 68377
L70813 68396
L70851 68415
L70946 68415
L70984 68396
L71003 68377
L71022 68339
L71022 68244
L71003 68206
L70984 68187
" />
</g>
<g style="fill:#000000; fill-opacity:0.0; 
stroke:#000000; stroke-width:50; stroke-opacity:1; 
stroke-linecap:round; stroke-linejoin:round;">
<path d="M99426 69411
L99440 69397
L99455 69354
L99455 69325
L99440 69282
L99412 69254
L99383 69240
L99326 69225
L99283 69225
L99226 69240
L99197 69254
L99169 69282
L99155 69325
L99155 69354
L99169 69397
L99183 69411
" />
<path d="M99455 69697
L99455 69525
" />
<path d="M99455 69611
L99155 69611
L99197 69582
L99226 69554
L99240 69525
" />
<path d="M100454 69193
L100454 69050
" />
<path d="M100454 69122
L100154 69122
L100196 69098
L100225 69074
L100239 69050
" />
<path d="M100154 69348
L100154 69372
L100168 69396
L100182 69407
L100211 69419
L100268 69431
L100339 69431
L100396 69419
L100425 69407
L100439 69396
L100454 69372
L100454 69348
L100439 69324
L100425 69312
L100396 69300
L100339 69288
L100268 69288
L100211 69300
L100182 69312
L100168 69324
L100154 69348
" />
<path d="M100254 69646
L100454 69646
" />
<path d="M100254 69538
L100411 69538
L100439 69550
L100454 69574
L100454 69610
L100439 69634
L100425 69646
" />
<path d="M100296 69848
L100296 69765
" />
<path d="M100454 69765
L100154 69765
L100154 69884
" />
</g>
<g style="fill:#000000; fill-opacity:0.0; 
stroke:#000000; stroke-width:80; stroke-opacity:1; 
stroke-linecap:round; stroke-linejoin:round;">
</g>
<g style="fill:#000000; fill-opacity:0.0; 
stroke:#000000; stroke-width:75; stroke-opacity:1; 
stroke-linecap:round; stroke-linejoin:round;">
<path d="M99839 68447
L99839 68675
" />
<path d="M99954 68561
L99725 68561
" />
</g>
<g style="fill:#000000; fill-opacity:0.0; 
stroke:#000000; stroke-width:80; stroke-opacity:1; 
stroke-linecap:round; stroke-linejoin:round;">
</g>
<g style="fill:#000000; fill-opacity:0.0; 
stroke:#000000; stroke-width:50; stroke-opacity:1; 
stroke-linecap:round; stroke-linejoin:round;">
<path d="M79332 68151
L79346 68137
L79360 68094
L79360 68065
L79346 68023
L79317 67994
L79289 67980
L79232 67965
L79189 67965
L79132 67980
L79103 67994
L79074 68023
L79060 68065
L79060 68094
L79074 68137
L79089 68151
" />
<path d="M79089 68265
L79074 68280
L79060 68308
L79060 68380
L79074 68408
L79089 68423
L79117 68437
L79146 68437
L79189 68423
L79360 68251
L79360 68437
" />
<path d="M78361 67933
L78361 67790
" />
<path d="M78361 67862
L78061 67862
L78104 67838
L78133 67814
L78147 67790
" />
<path d="M78061 68088
L78061 68112
L78075 68136
L78090 68148
L78118 68159
L78175 68171
L78247 68171
L78304 68159
L78333 68148
L78347 68136
L78361 68112
L78361 68088
L78347 68064
L78333 68052
L78304 68040
L78247 68029
L78175 68029
L78118 68040
L78090 68052
L78075 68064
L78061 68088
" />
<path d="M78161 68386
L78361 68386
" />
<path d="M78161 68279
L78318 68279
L78347 68290
L78361 68314
L78361 68350
L78347 68374
L78333 68386
" />
<path d="M78204 68588
L78204 68505
" />
<path d="M78361 68505
L78061 68505
L78061 68624
" />
</g>
<g style="fill:#000000; fill-opacity:0.0; 
stroke:#000000; stroke-width:80; stroke-opacity:1; 
stroke-linecap:round; stroke-linejoin:round;">
</g>
<g style="fill:#000000; fill-opacity:0.0; 
stroke:#000000; stroke-width:75; stroke-opacity:1; 
stroke-linecap:round; stroke-linejoin:round;">
<path d="M78747 68987
L78747 69215
" />
<path d="M78861 69101
L78633 69101
" />
</g>
<g style="fill:#000000; fill-opacity:0.0; 
stroke:#000000; stroke-width:80; stroke-opacity:1; 
stroke-linecap:round; stroke-linejoin:round;">
</g>
<g style="fill:#000000; fill-opacity:0.0; 
stroke:#000000; stroke-width:100; stroke-opacity:1; 
stroke-linecap:round; stroke-linejoin:round;">
<path d="M70636 62808
L70617 62770
L70617 62713
L70636 62655
L70674 62617
L70712 62598
L70788 62579
L70845 62579
L70922 62598
L70960 62617
L70998 62655
L71017 62713
L71017 62751
L70998 62808
L70979 62827
L70845 62827
L70845 62751
" />
<path d="M71017 62998
L70617 62998
L71017 63227
L70617 63227
" />
<path d="M71017 63417
L70617 63417
L70617 63513
L70636 63570
L70674 63608
L70712 63627
L70788 63646
L70845 63646
L70922 63627
L70960 63608
L70998 63570
L71017 63513
L71017 63417
" />
<path d="M79730 61469
L79711 61431
L79711 61374
L79730 61317
L79769 61279
L79807 61260
L79883 61241
L79940 61241
L80016 61260
L80054 61279
L80092 61317
L80111 61374
L80111 61412
L80092 61469
L80073 61488
L79940 61488
L79940 61412
" />
<path d="M80111 61660
L79711 61660
L80111 61888
L79711 61888
" />
<path d="M80111 62079
L79711 62079
L79711 62174
L79730 62231
L79769 62269
L79807 62288
L79883 62307
L79940 62307
L80016 62288
L80054 62269
L80092 62231
L80111 62174
L80111 62079
" />
<path d="M95994 48026
L95956 48045
L95899 48045
L95842 48026
L95803 47988
L95784 47950
L95765 47873
L95765 47816
L95784 47740
L95803 47702
L95842 47664
L95899 47645
L95937 47645
L95994 47664
L96013 47683
L96013 47816
L95937 47816
" />
<path d="M96184 47645
L96184 48045
L96413 47645
L96413 48045
" />
<path d="M96603 47645
L96603 48045
L96699 48045
L96756 48026
L96794 47988
L96813 47950
L96832 47873
L96832 47816
L96813 47740
L96794 47702
L96756 47664
L96699 47645
L96603 47645
" />
<path d="M96791 37750
L96753 37769
L96696 37769
L96639 37750
L96601 37712
L96582 37674
L96563 37598
L96563 37541
L96582 37464
L96601 37426
L96639 37388
L96696 37369
L96734 37369
L96791 37388
L96810 37407
L96810 37541
L96734 37541
" />
<path d="M96982 37369
L96982 37769
L97210 37369
L97210 37769
" />
<path d="M97401 37369
L97401 37769
L97496 37769
L97553 37750
L97591 37712
L97610 37674
L97629 37598
L97629 37541
L97610 37464
L97591 37426
L97553 37388
L97496 37369
L97401 37369
" />
<path d="M70718 36982
L70680 37001
L70623 37001
L70566 36982
L70528 36944
L70509 36906
L70490 36830
L70490 36773
L70509 36697
L70528 36659
L70566 36621
L70623 36601
L70661 36601
L70718 36621
L70737 36640
L70737 36773
L70661 36773
" />
<path d="M70909 36601
L70909 37001
L71137 36601
L71137 37001
" />
<path d="M71328 36601
L71328 37001
L71423 37001
L71480 36982
L71518 36944
L71537 36906
L71556 36830
L71556 36773
L71537 36697
L71518 36659
L71480 36621
L71423 36601
L71328 36601
" />
<path d="M103327 37721
L103289 37740
L103231 37740
L103174 37721
L103136 37682
L103117 37644
L103098 37568
L103098 37511
L103117 37435
L103136 37397
L103174 37359
L103231 37340
L103269 37340
L103327 37359
L103346 37378
L103346 37511
L103269 37511
" />
<path d="M103517 37340
L103517 37740
L103746 37340
L103746 37740
" />
<path d="M103936 37340
L103936 37740
L104031 37740
L104089 37721
L104127 37682
L104146 37644
L104165 37568
L104165 37511
L104146 37435
L104127 37397
L104089 37359
L104031 37340
L103936 37340
" />
<path d="M82427 67237
L82408 67199
L82408 67142
L82427 67085
L82465 67046
L82503 67027
L82580 67008
L82637 67008
L82713 67027
L82751 67046
L82789 67085
L82808 67142
L82808 67180
L82789 67237
L82770 67256
L82637 67256
L82637 67180
" />
<path d="M82808 67427
L82408 67427
L82808 67656
L82408 67656
" />
<path d="M82808 67846
L82408 67846
L82408 67942
L82427 67999
L82465 68037
L82503 68056
L82580 68075
L82637 68075
L82713 68056
L82751 68037
L82789 67999
L82808 67942
L82808 67846
" />
<path d="M95725 61676
L95705 61638
L95705 61581
L95725 61524
L95763 61485
L95801 61466
L95877 61447
L95934 61447
L96010 61466
L96048 61485
L96086 61524
L96105 61581
L96105 61619
L96086 61676
L96067 61695
L95934 61695
L95934 61619
" />
<path d="M96105 61866
L95705 61866
L96105 62095
L95705 62095
" />
<path d="M96105 62285
L95705 62285
L95705 62381
L95725 62438
L95763 62476
L95801 62495
L95877 62514
L95934 62514
L96010 62495
L96048 62476
L96086 62438
L96105 62381
L96105 62285
" />
</g>
<g style="fill:#000000; fill-opacity:0.0; 
stroke:#000000; stroke-width:80; stroke-opacity:1; 
stroke-linecap:round; stroke-linejoin:round;">
<path d="M83193 69405
L83003 69405
L82984 69215
L83003 69234
L83041 69253
L83136 69253
L83174 69234
L83193 69215
L83212 69177
L83212 69082
L83193 69043
L83174 69024
L83136 69005
L83041 69005
L83003 69024
L82984 69043
" />
<path d="M83327 69405
L83460 69005
L83593 69405
" />
<path d="M83631 68967
L83936 68967
" />
<path d="M84107 69405
L84184 69405
L84222 69386
L84260 69348
L84279 69272
L84279 69139
L84260 69063
L84222 69024
L84184 69005
L84107 69005
L84069 69024
L84031 69063
L84012 69139
L84012 69272
L84031 69348
L84069 69386
L84107 69405
" />
<path d="M84450 69405
L84450 69082
L84469 69043
L84488 69024
L84527 69005
L84603 69005
L84641 69024
L84660 69043
L84679 69082
L84679 69405
" />
<path d="M84812 69405
L85041 69405
" />
<path d="M84927 69005
L84927 69405
" />
</g>
<g style="fill:#000000; fill-opacity:0.0; 
stroke:#000000; stroke-width:100; stroke-opacity:1; 
stroke-linecap:round; stroke-linejoin:round;">
<path d="M95138 53124
L95100 53143
L95042 53143
L94985 53124
L94947 53086
L94928 53048
L94909 52972
L94909 52915
L94928 52838
L94947 52800
L94985 52762
L95042 52743
L95081 52743
L95138 52762
L95157 52781
L95157 52915
L95081 52915
" />
<path d="M95328 52743
L95328 53143
L95557 52743
L95557 53143
" />
<path d="M95747 52743
L95747 53143
L95842 53143
L95900 53124
L95938 53086
L95957 53048
L95976 52972
L95976 52915
L95957 52838
L95938 52800
L95900 52762
L95842 52743
L95747 52743
" />
<path d="M95394 71362
L95355 71381
L95298 71381
L95241 71362
L95203 71324
L95184 71286
L95165 71210
L95165 71153
L95184 71077
L95203 71039
L95241 71000
L95298 70981
L95336 70981
L95394 71000
L95413 71019
L95413 71153
L95336 71153
" />
<path d="M95584 70981
L95584 71381
L95813 70981
L95813 71381
" />
<path d="M96003 70981
L96003 71381
L96098 71381
L96155 71362
L96194 71324
L96213 71286
L96232 71210
L96232 71153
L96213 71077
L96194 71039
L96155 71000
L96098 70981
L96003 70981
" />
</g>
<g style="fill:#000000; fill-opacity:0.0; 
stroke:#000000; stroke-width:80; stroke-opacity:1; 
stroke-linecap:round; stroke-linejoin:round;">
<path d="M101437 58367
L101456 58424
L101456 58519
L101437 58557
L101418 58576
L101380 58595
L101342 58595
L101304 58576
L101284 58557
L101265 58519
L101246 58443
L101227 58405
L101208 58386
L101170 58367
L101132 58367
L101094 58386
L101075 58405
L101056 58443
L101056 58538
L101075 58595
" />
<path d="M101056 58729
L101456 58824
L101170 58900
L101456 58976
L101056 59071
" />
<path d="M101456 59433
L101456 59205
" />
<path d="M101456 59319
L101056 59319
L101113 59281
L101151 59243
L101170 59205
" />
<path d="M102156 57624
L101965 57490
" />
<path d="M102156 57395
L101756 57395
L101756 57548
L101775 57586
L101794 57605
L101832 57624
L101889 57624
L101927 57605
L101946 57586
L101965 57548
L101965 57395
" />
<path d="M102137 57948
L102156 57909
L102156 57833
L102137 57795
L102099 57776
L101946 57776
L101908 57795
L101889 57833
L101889 57909
L101908 57948
L101946 57967
L101984 57967
L102023 57776
" />
<path d="M102137 58119
L102156 58157
L102156 58233
L102137 58271
L102099 58290
L102080 58290
L102042 58271
L102023 58233
L102023 58176
L102004 58138
L101965 58119
L101946 58119
L101908 58138
L101889 58176
L101889 58233
L101908 58271
" />
<path d="M102137 58614
L102156 58576
L102156 58500
L102137 58462
L102099 58443
L101946 58443
L101908 58462
L101889 58500
L101889 58576
L101908 58614
L101946 58633
L101984 58633
L102023 58443
" />
<path d="M101889 58748
L101889 58900
" />
<path d="M101756 58805
L102099 58805
L102137 58824
L102156 58862
L102156 58900
" />
<path d="M102194 58938
L102194 59243
" />
<path d="M102137 59509
L102156 59471
L102156 59395
L102137 59357
L102118 59338
L102080 59319
L101965 59319
L101927 59338
L101908 59357
L101889 59395
L101889 59471
L101908 59509
" />
<path d="M102156 59681
L101889 59681
" />
<path d="M101756 59681
L101775 59662
L101794 59681
L101775 59700
L101756 59681
L101794 59681
" />
<path d="M102156 60043
L101946 60043
L101908 60024
L101889 59986
L101889 59909
L101908 59871
" />
<path d="M102137 60043
L102156 60005
L102156 59909
L102137 59871
L102099 59852
L102061 59852
L102023 59871
L102004 59909
L102004 60005
L101984 60043
" />
<path d="M102156 60405
L101946 60405
L101908 60386
L101889 60348
L101889 60271
L101908 60233
" />
<path d="M102137 60405
L102156 60367
L102156 60271
L102137 60233
L102099 60214
L102061 60214
L102023 60233
L102004 60271
L102004 60367
L101984 60405
" />
<path d="M100327 64848
L100574 64848
L100441 64696
L100498 64696
L100536 64677
L100555 64658
L100574 64620
L100574 64524
L100555 64486
L100536 64467
L100498 64448
L100384 64448
L100346 64467
L100327 64486
" />
<path d="M100746 64486
L100765 64467
L100746 64448
L100727 64467
L100746 64486
L100746 64448
" />
<path d="M100993 64677
L100955 64696
L100936 64715
L100917 64753
L100917 64772
L100936 64810
L100955 64829
L100993 64848
L101069 64848
L101108 64829
L101127 64810
L101146 64772
L101146 64753
L101127 64715
L101108 64696
L101069 64677
L100993 64677
L100955 64658
L100936 64639
L100917 64601
L100917 64524
L100936 64486
L100955 64467
L100993 64448
L101069 64448
L101108 64467
L101127 64486
L101146 64524
L101146 64601
L101127 64639
L101108 64658
L101069 64677
" />
<path d="M101260 64848
L101393 64448
L101527 64848
" />
<path d="M101565 64410
L101869 64410
" />
<path d="M102041 64848
L102117 64848
L102155 64829
L102193 64791
L102212 64715
L102212 64582
L102193 64505
L102155 64467
L102117 64448
L102041 64448
L102003 64467
L101965 64505
L101946 64582
L101946 64715
L101965 64791
L102003 64829
L102041 64848
" />
<path d="M102384 64848
L102384 64524
L102403 64486
L102422 64467
L102460 64448
L102536 64448
L102574 64467
L102593 64486
L102612 64524
L102612 64848
" />
<path d="M102746 64848
L102974 64848
" />
<path d="M102860 64448
L102860 64848
" />
</g>
<g style="fill:#000000; fill-opacity:0.0; 
stroke:#000000; stroke-width:150; stroke-opacity:1; 
stroke-linecap:round; stroke-linejoin:round;">
<path d="M103988 70910
L104238 70910
" />
<path d="M104238 70910
L104238 66910
" />
<path d="M104238 66910
L103988 66910
" />
<path d="M102488 70910
L103988 70910
" />
<path d="M103988 70910
L103988 66910
" />
<path d="M103988 66910
L102488 66910
" />
<path d="M102488 66910
L102488 70910
" />
</g>
<g style="fill:#000000; fill-opacity:0.0; 
stroke:#000000; stroke-width:59.0551; stroke-opacity:1; 
stroke-linecap:round; stroke-linejoin:round;">
<path d="M90433 69008
L93661 69008
" />
<path d="M93661 69008
L93661 67827
" />
<path d="M93661 67827
L87204 67827
" />
<path d="M87204 67827
L87204 69008
" />
<path d="M87204 69008
L90433 69008
" />
</g>
<g style="fill:#000000; fill-opacity:0.0; 
stroke:#000000; stroke-width:120; stroke-opacity:1; 
stroke-linecap:round; stroke-linejoin:round;">
<path d="M98187 66075
L98587 66075
" />
<path d="M98587 66075
L98587 66475
" />
<path d="M98587 66475
L101787 66475
" />
<path d="M101787 66475
L101787 65675
" />
<path d="M101787 65675
L98587 65675
" />
<path d="M98587 65675
L98587 66075
" />
<path d="M98587 66275
L98787 66475
" />
<path d="M102187 66075
L101787 66075
" />
<path d="M96978 63695
L96978 63295
" />
<path d="M96978 63295
L97378 63295
" />
<path d="M97378 63295
L97378 60095
" />
<path d="M97378 60095
L96578 60095
" />
<path d="M96578 60095
L96578 63295
" />
<path d="M96578 63295
L96978 63295
" />
<path d="M97178 63295
L97378 63095
" />
<path d="M96978 59695
L96978 60095
" />
<path d="M97271 67542
L97671 67542
" />
<path d="M97671 67542
L97671 67942
" />
<path d="M97671 67942
L100871 67942
" />
<path d="M100871 67942
L100871 67142
" />
<path d="M100871 67142
L97671 67142
" />
<path d="M97671 67142
L97671 67542
" />
<path d="M97671 67742
L97871 67942
" />
<path d="M101271 67542
L100871 67542
" />
</g>
<g style="fill:#000000; fill-opacity:0.0; 
stroke:#000000; stroke-width:100; stroke-opacity:1; 
stroke-linecap:round; stroke-linejoin:round;">
<path d="M69122 64504
L69122 66504
" />
<path d="M67372 64504
L67372 66504
" />
<path d="M69872 66504
L69872 64504
" />
<path d="M69872 66504
L67372 66504
" />
<path d="M69872 64504
L67372 64504
" />
</g>
<g style="fill:#000000; fill-opacity:0.0; 
stroke:#000000; stroke-width:120; stroke-opacity:1; 
stroke-linecap:round; stroke-linejoin:round;">
<path d="M98659 52097
L97659 52097
" />
<path d="M98659 53097
L98659 45097
" />
<path d="M98659 45097
L97659 45097
" />
<path d="M97659 45097
L97659 53097
" />
<path d="M97659 53097
L98659 53097
" />
<path d="M94645 35294
L74645 35294
" />
<path d="M74645 37294
L94645 37294
" />
<path d="M74645 36294
L75645 36294
" />
<path d="M75645 36294
L75645 35294
" />
<path d="M74645 37294
L74645 35294
" />
<path d="M94645 35294
L94645 37294
" />
<path d="M94645 63294
L74645 63294
" />
<path d="M74645 65294
L94645 65294
" />
<path d="M74645 64294
L75645 64294
" />
<path d="M75645 64294
L75645 63294
" />
<path d="M74645 65294
L74645 63294
" />
<path d="M94645 63294
L94645 65294
" />
<path d="M100287 35002
L100287 55002
" />
<path d="M102287 55002
L102287 35002
" />
<path d="M101287 55002
L101287 54002
" />
<path d="M101287 54002
L100287 54002
" />
<path d="M102287 55002
L100287 55002
" />
<path d="M100287 35002
L102287 35002
" />
<path d="M72287 35002
L72287 55002
" />
<path d="M74287 55002
L74287 35002
" />
<path d="M73287 55002
L73287 54002
" />
<path d="M73287 54002
L72287 54002
" />
<path d="M74287 55002
L72287 55002
" />
<path d="M72287 35002
L74287 35002
" />
</g>
<g style="fill:#000000; fill-opacity:0.0; 
stroke:#000000; stroke-width:100; stroke-opacity:1; 
stroke-linecap:round; stroke-linejoin:round;">
<path d="M71507 69443
L71507 69693
" />
<path d="M71507 69693
L75007 69693
" />
<path d="M75007 69693
L75007 69443
" />
<path d="M71507 67943
L71507 69443
" />
<path d="M71507 69443
L75007 69443
" />
<path d="M75007 69443
L75007 67943
" />
<path d="M75007 67943
L71507 67943
" />
<path d="M96458 56989
L97458 56989
" />
</g>
<g style="fill:#000000; fill-opacity:0.0; 
stroke:#000000; stroke-width:60; stroke-opacity:1; 
stroke-linecap:round; stroke-linejoin:round;">
<path d="M96958.7 58209.5 A600 600 0.0 0 0 97342.7 58070.5 " />
<path d="M96560.8 58057.6 A599.256 599.256 0.0 0 0 96958.7 58208.8 " />
<path d="M97348.7 57154.5 A599.27 599.27 0.0 0 0 96958.7 57010.3 " />
<path d="M96958.7 57009.5 A600 600 0.0 0 0 96574.6 57148.6 " />
<path d="M97558.7 57609.5 A600 600 0.0 0 0 97307.9 57121.7 " />
<path d="M97318.9 58089.3 A600 600 0.0 0 0 97558.7 57609.5 " />
<path d="M96590.5 57136.6 A599.294 599.294 0.0 0 0 96359.4 57609.5 " />
<path d="M96358.7 57609.5 A600 600 0.0 0 0 96590.1 58083 " />
<path d="M96958.7 57859.5 A250 250 0.0 0 0 97208.7 57609.5 " />
<path d="M96958.7 58009.5 A400 400 0.0 0 0 97358.7 57609.5 " />
<path d="M96958.7 57359.5 A250 250 0.0 0 0 96708.7 57609.5 " />
<path d="M96958.7 57209.5 A400 400 0.0 0 0 96558.7 57609.5 " />
</g>
<g style="fill:#000000; fill-opacity:0.0; 
stroke:#000000; stroke-width:100; stroke-opacity:1; 
stroke-linecap:round; stroke-linejoin:round;">
<path d="M97758.7 57609.5 A800 800 0.0 0 0 97471.8 56995.8 " />
<path d="M97335 58314.3 A799 799 0.0 0 0 97757.7 57609.5 " />
<path d="M96443 56999.3 A798.972 798.972 0.0 0 0 96159.7 57608.1 " />
<path d="M96158.7 57609.5 A800 800 0.0 0 0 96561.1 58303.7 " />
<path d="M96958.7 58409.5 A800 800 0.0 0 0 97337.9 58313.9 " />
<path d="M96539.7 58290.5 A799.576 799.576 0.0 0 0 96958.7 58409.1 " />
</g>
<g style="fill:#000000; fill-opacity:0.0; 
stroke:#000000; stroke-width:120; stroke-opacity:1; 
stroke-linecap:round; stroke-linejoin:round;">
<path d="M97226 68501
L97226 70481
" />
<path d="M97226 70481
L98226 70481
" />
<path d="M98226 70481
L98226 68481
" />
<path d="M98226 68481
L97226 68481
" />
<path d="M97476 68481
L97226 68731
" />
<path d="M101114 69426
L101114 71406
" />
<path d="M101114 71406
L102114 71406
" />
<path d="M102114 71406
L102114 69406
" />
<path d="M102114 69406
L101114 69406
" />
<path d="M101364 69406
L101114 69656
" />
<path d="M77183 69181
L77183 67201
" />
<path d="M77183 67201
L76183 67201
" />
<path d="M76183 67201
L76183 69201
" />
<path d="M76183 69201
L77183 69201
" />
<path d="M76933 69201
L77183 68951
" />
<path d="M70460 69181
L70460 67201
" />
<path d="M70460 67201
L69460 67201
" />
<path d="M69460 67201
L69460 69201
" />
<path d="M69460 69201
L70460 69201
" />
<path d="M70210 69201
L70460 68951
" />
</g>
<g style="fill:#000000; fill-opacity:0.0; 
stroke:#000000; stroke-width:50; stroke-opacity:1; 
stroke-linecap:round; stroke-linejoin:round;">
<circle cx="99832.7" cy="69461.5" r="1001.25" /> 
<circle cx="78740.2" cy="68201.7" r="1001.25" /> 
</g>
<g style="fill:#000000; fill-opacity:0.0; 
stroke:#000000; stroke-width:150; stroke-opacity:1; 
stroke-linecap:round; stroke-linejoin:round;">
<circle cx="69655.5" cy="63113.1" r="900" /> 
<circle cx="78750" cy="61774.5" r="900" /> 
<circle cx="96299.2" cy="46607.2" r="900" /> 
<circle cx="97096.5" cy="36331.6" r="900" /> 
<circle cx="71023.6" cy="35563.9" r="900" /> 
<circle cx="103632" cy="36302" r="900" /> 
<circle cx="81446.9" cy="67542.2" r="900" /> 
<circle cx="94744.1" cy="61981.2" r="900" /> 
</g>
<g style="fill:#000000; fill-opacity:0.0; 
stroke:#000000; stroke-width:120; stroke-opacity:1; 
stroke-linecap:round; stroke-linejoin:round;">
<path d="M83143 68817
L85143 68817
" />
<path d="M85143 68817
L85143 66817
" />
<path d="M85143 66817
L83143 66817
" />
<path d="M83143 66817
L83143 68817
" />
</g>
<g style="fill:#000000; fill-opacity:0.0; 
stroke:#000000; stroke-width:150; stroke-opacity:1; 
stroke-linecap:round; stroke-linejoin:round;">
<circle cx="95442.9" cy="51705.6" r="900" /> 
<circle cx="95698.8" cy="69943.8" r="900" /> 
</g>
<g style="fill:#000000; fill-opacity:0.0; 
stroke:#000000; stroke-width:50; stroke-opacity:1; 
stroke-linecap:round; stroke-linejoin:round;">
<circle cx="101594" cy="58900.5" r="1000" /> 
<path d="M100094 57400
L100094 60400
" />
<path d="M100094 60400
L103094 60400
" />
<path d="M103094 60400
L103094 57400
" />
<path d="M100094 57400
L103094 57400
" />
</g>
<g style="fill:#000000; fill-opacity:0.0; 
stroke:#000000; stroke-width:120; stroke-opacity:1; 
stroke-linecap:round; stroke-linejoin:round;">
<path d="M100791 64260
L102791 64260
" />
<path d="M102791 64260
L102791 62260
" />
<path d="M102791 62260
L100791 62260
" />
<path d="M100791 62260
L100791 64260
" />
</g>
<g style="fill:#000000; fill-opacity:0.0; 
stroke:#000000; stroke-width:669.291; stroke-opacity:1; 
stroke-linecap:round; stroke-linejoin:round;">
<path d="M103080 69910
L103395 69910
" />
<path d="M103080 68910
L103395 68910
" />
<path d="M103080 67910
L103395 67910
" />
</g>
<g style="fill:#000000; fill-opacity:0.0; 
stroke:#000000; stroke-width:787.402; stroke-opacity:1; 
stroke-linecap:round; stroke-linejoin:round;">
<path d="M91210 68418
L91210 68418
" />
<path d="M89655 68418
L89655 68418
" />
<path d="M92765 68418
L92765 68418
" />
<path d="M88080 68418
L88080 68418
" />
<path d="M98187 66075
L98187 66075
" />
<path d="M102187 66075
L102187 66075
" />
<path d="M96978 63695
L96978 63695
" />
<path d="M96978 59695
L96978 59695
" />
<path d="M97271 67542
L97271 67542
" />
<path d="M101271 67542
L101271 67542
" />
<path d="M68622 66004
L68622 66004
" />
<path d="M68622 65004
L68622 65004
" />
<path d="M98159 52597
L98159 52597
" />
<path d="M98159 51597
L98159 51597
" />
<path d="M98159 50597
L98159 50597
" />
<path d="M98159 49597
L98159 49597
" />
<path d="M98159 48597
L98159 48597
" />
<path d="M98159 47597
L98159 47597
" />
<path d="M98159 46597
L98159 46597
" />
<path d="M98159 45597
L98159 45597
" />
<path d="M75145 35794
L75145 35794
" />
<path d="M75145 36794
L75145 36794
" />
<path d="M76145 35794
L76145 35794
" />
<path d="M76145 36794
L76145 36794
" />
<path d="M77145 35794
L77145 35794
" />
<path d="M77145 36794
L77145 36794
" />
<path d="M78145 35794
L78145 35794
" />
<path d="M78145 36794
L78145 36794
" />
<path d="M79145 35794
L79145 35794
" />
<path d="M79145 36794
L79145 36794
" />
<path d="M80145 35794
L80145 35794
" />
<path d="M80145 36794
L80145 36794
" />
<path d="M81145 35794
L81145 35794
" />
<path d="M81145 36794
L81145 36794
" />
<path d="M82145 35794
L82145 35794
" />
<path d="M82145 36794
L82145 36794
" />
<path d="M83145 35794
L83145 35794
" />
<path d="M83145 36794
L83145 36794
" />
<path d="M84145 35794
L84145 35794
" />
<path d="M84145 36794
L84145 36794
" />
<path d="M85145 35794
L85145 35794
" />
<path d="M85145 36794
L85145 36794
" />
<path d="M86145 35794
L86145 35794
" />
<path d="M86145 36794
L86145 36794
" />
<path d="M87145 35794
L87145 35794
" />
<path d="M87145 36794
L87145 36794
" />
<path d="M88145 35794
L88145 35794
" />
<path d="M88145 36794
L88145 36794
" />
<path d="M89145 35794
L89145 35794
" />
<path d="M89145 36794
L89145 36794
" />
<path d="M90145 35794
L90145 35794
" />
<path d="M90145 36794
L90145 36794
" />
<path d="M91145 35794
L91145 35794
" />
<path d="M91145 36794
L91145 36794
" />
<path d="M92145 35794
L92145 35794
" />
<path d="M92145 36794
L92145 36794
" />
<path d="M93145 35794
L93145 35794
" />
<path d="M93145 36794
L93145 36794
" />
<path d="M94145 35794
L94145 35794
" />
<path d="M94145 36794
L94145 36794
" />
<path d="M75145 63794
L75145 63794
" />
<path d="M75145 64794
L75145 64794
" />
<path d="M76145 63794
L76145 63794
" />
<path d="M76145 64794
L76145 64794
" />
<path d="M77145 63794
L77145 63794
" />
<path d="M77145 64794
L77145 64794
" />
<path d="M78145 63794
L78145 63794
" />
<path d="M78145 64794
L78145 64794
" />
<path d="M79145 63794
L79145 63794
" />
<path d="M79145 64794
L79145 64794
" />
<path d="M80145 63794
L80145 63794
" />
<path d="M80145 64794
L80145 64794
" />
<path d="M81145 63794
L81145 63794
" />
<path d="M81145 64794
L81145 64794
" />
<path d="M82145 63794
L82145 63794
" />
<path d="M82145 64794
L82145 64794
" />
<path d="M83145 63794
L83145 63794
" />
<path d="M83145 64794
L83145 64794
" />
<path d="M84145 63794
L84145 63794
" />
<path d="M84145 64794
L84145 64794
" />
<path d="M85145 63794
L85145 63794
" />
<path d="M85145 64794
L85145 64794
" />
<path d="M86145 63794
L86145 63794
" />
<path d="M86145 64794
L86145 64794
" />
<path d="M87145 63794
L87145 63794
" />
<path d="M87145 64794
L87145 64794
" />
<path d="M88145 63794
L88145 63794
" />
<path d="M88145 64794
L88145 64794
" />
<path d="M89145 63794
L89145 63794
" />
<path d="M89145 64794
L89145 64794
" />
<path d="M90145 63794
L90145 63794
" />
<path d="M90145 64794
L90145 64794
" />
<path d="M91145 63794
L91145 63794
" />
<path d="M91145 64794
L91145 64794
" />
<path d="M92145 63794
L92145 63794
" />
<path d="M92145 64794
L92145 64794
" />
<path d="M93145 63794
L93145 63794
" />
<path d="M93145 64794
L93145 64794
" />
<path d="M94145 63794
L94145 63794
" />
<path d="M94145 64794
L94145 64794
" />
<path d="M100787 54502
L100787 54502
" />
<path d="M101787 54502
L101787 54502
" />
<path d="M100787 53502
L100787 53502
" />
<path d="M101787 53502
L101787 53502
" />
<path d="M100787 52502
L100787 52502
" />
<path d="M101787 52502
L101787 52502
" />
<path d="M100787 51502
L100787 51502
" />
<path d="M101787 51502
L101787 51502
" />
<path d="M100787 50502
L100787 50502
" />
<path d="M101787 50502
L101787 50502
" />
<path d="M100787 49502
L100787 49502
" />
<path d="M101787 49502
L101787 49502
" />
<path d="M100787 48502
L100787 48502
" />
<path d="M101787 48502
L101787 48502
" />
<path d="M100787 47502
L100787 47502
" />
<path d="M101787 47502
L101787 47502
" />
<path d="M100787 46502
L100787 46502
" />
<path d="M101787 46502
L101787 46502
" />
<path d="M100787 45502
L100787 45502
" />
<path d="M101787 45502
L101787 45502
" />
<path d="M100787 44502
L100787 44502
" />
<path d="M101787 44502
L101787 44502
" />
<path d="M100787 43502
L100787 43502
" />
<path d="M101787 43502
L101787 43502
" />
<path d="M100787 42502
L100787 42502
" />
<path d="M101787 42502
L101787 42502
" />
<path d="M100787 41502
L100787 41502
" />
<path d="M101787 41502
L101787 41502
" />
<path d="M100787 40502
L100787 40502
" />
<path d="M101787 40502
L101787 40502
" />
<path d="M100787 39502
L100787 39502
" />
<path d="M101787 39502
L101787 39502
" />
<path d="M100787 38502
L100787 38502
" />
<path d="M101787 38502
L101787 38502
" />
<path d="M100787 37502
L100787 37502
" />
<path d="M101787 37502
L101787 37502
" />
<path d="M100787 36502
L100787 36502
" />
<path d="M101787 36502
L101787 36502
" />
<path d="M100787 35502
L100787 35502
" />
<path d="M101787 35502
L101787 35502
" />
<path d="M72787 54502
L72787 54502
" />
<path d="M73787 54502
L73787 54502
" />
<path d="M72787 53502
L72787 53502
" />
<path d="M73787 53502
L73787 53502
" />
<path d="M72787 52502
L72787 52502
" />
<path d="M73787 52502
L73787 52502
" />
<path d="M72787 51502
L72787 51502
" />
<path d="M73787 51502
L73787 51502
" />
<path d="M72787 50502
L72787 50502
" />
<path d="M73787 50502
L73787 50502
" />
<path d="M72787 49502
L72787 49502
" />
<path d="M73787 49502
L73787 49502
" />
<path d="M72787 48502
L72787 48502
" />
<path d="M73787 48502
L73787 48502
" />
<path d="M72787 47502
L72787 47502
" />
<path d="M73787 47502
L73787 47502
" />
<path d="M72787 46502
L72787 46502
" />
<path d="M73787 46502
L73787 46502
" />
<path d="M72787 45502
L72787 45502
" />
<path d="M73787 45502
L73787 45502
" />
<path d="M72787 44502
L72787 44502
" />
<path d="M73787 44502
L73787 44502
" />
<path d="M72787 43502
L72787 43502
" />
<path d="M73787 43502
L73787 43502
" />
<path d="M72787 42502
L72787 42502
" />
<path d="M73787 42502
L73787 42502
" />
<path d="M72787 41502
L72787 41502
" />
<path d="M73787 41502
L73787 41502
" />
<path d="M72787 40502
L72787 40502
" />
<path d="M73787 40502
L73787 40502
" />
<path d="M72787 39502
L72787 39502
" />
<path d="M73787 39502
L73787 39502
" />
<path d="M72787 38502
L72787 38502
" />
<path d="M73787 38502
L73787 38502
" />
<path d="M72787 37502
L72787 37502
" />
<path d="M73787 37502
L73787 37502
" />
<path d="M72787 36502
L72787 36502
" />
<path d="M73787 36502
L73787 36502
" />
<path d="M72787 35502
L72787 35502
" />
<path d="M73787 35502
L73787 35502
" />
</g>
<g style="fill:#000000; fill-opacity:0.0; 
stroke:#000000; stroke-width:669.291; stroke-opacity:1; 
stroke-linecap:round; stroke-linejoin:round;">
<path d="M72257 68536
L72257 68851
" />
<path d="M73257 68536
L73257 68851
" />
<path d="M74257 68536
L74257 68851
" />
</g>
<g style="fill:#000000; fill-opacity:0.0; 
stroke:#000000; stroke-width:787.402; stroke-opacity:1; 
stroke-linecap:round; stroke-linejoin:round;">
<path d="M96958 58209
L96958 58209
" />
<path d="M96958 57209
L96958 57209
" />
</g>
<g style="fill:#000000; fill-opacity:0.0; 
stroke:#000000; stroke-width:39.3701; stroke-opacity:1; 
stroke-linecap:round; stroke-linejoin:round;">
</g>
<g style="fill:#000000; fill-opacity:1.0; 
stroke:#000000; stroke-width:39.3701; stroke-opacity:1; 
stroke-linecap:round; stroke-linejoin:round;">
<circle cx="97726.4" cy="68981.2" r="374.016" /> 
<circle cx="97726.4" cy="69981.2" r="374.016" /> 
<circle cx="101614" cy="69906.4" r="374.016" /> 
<circle cx="101614" cy="70906.4" r="374.016" /> 
<circle cx="76683.1" cy="68701.7" r="374.016" /> 
<circle cx="76683.1" cy="67701.7" r="374.016" /> 
<circle cx="69960.6" cy="68701.7" r="374.016" /> 
<circle cx="69960.6" cy="67701.7" r="374.016" /> 
</g>
<g style="fill:#000000; fill-opacity:1.0; 
stroke:#000000; stroke-width:787.402; stroke-opacity:1; 
stroke-linecap:round; stroke-linejoin:round;">
<path d="M99832 68961
L99832 68961
" />
</g>
<g style="fill:#000000; fill-opacity:1.0; 
stroke:#000000; stroke-width:39.3701; stroke-opacity:1; 
stroke-linecap:round; stroke-linejoin:round;">
<circle cx="99832.7" cy="69961.5" r="374.016" /> 
</g>
<g style="fill:#000000; fill-opacity:1.0; 
stroke:#000000; stroke-width:787.402; stroke-opacity:1; 
stroke-linecap:round; stroke-linejoin:round;">
<path d="M78740 68701
L78740 68701
" />
</g>
<g style="fill:#000000; fill-opacity:1.0; 
stroke:#000000; stroke-width:39.3701; stroke-opacity:1; 
stroke-linecap:round; stroke-linejoin:round;">
<circle cx="78740.2" cy="67701.7" r="374.016" /> 
<circle cx="69655.5" cy="63113.1" r="570.866" /> 
<circle cx="78750" cy="61774.5" r="570.866" /> 
<circle cx="96299.2" cy="46607.2" r="570.866" /> 
<circle cx="97096.5" cy="36331.6" r="570.866" /> 
<circle cx="71023.6" cy="35563.9" r="570.866" /> 
<circle cx="103632" cy="36302" r="570.866" /> 
<circle cx="81446.9" cy="67542.2" r="570.866" /> 
<circle cx="94744.1" cy="61981.2" r="570.866" /> 
</g>
<g style="fill:#000000; fill-opacity:1.0; 
stroke:#000000; stroke-width:787.402; stroke-opacity:1; 
stroke-linecap:round; stroke-linejoin:round;">
<path d="M83643 67317
L83643 67317
" />
<path d="M83643 68317
L83643 68317
" />
<path d="M84643 67317
L84643 67317
" />
<path d="M84643 68317
L84643 68317
" />
</g>
<g style="fill:#000000; fill-opacity:1.0; 
stroke:#000000; stroke-width:39.3701; stroke-opacity:1; 
stroke-linecap:round; stroke-linejoin:round;">
<circle cx="95442.9" cy="51705.6" r="570.866" /> 
<circle cx="95698.8" cy="69943.8" r="570.866" /> 
<circle cx="100594" cy="60400.5" r="570.866" /> 
<circle cx="102594" cy="60400.5" r="570.866" /> 
<circle cx="100594" cy="57400.5" r="570.866" /> 
<circle cx="102594" cy="57400.5" r="570.866" /> 
</g>
<g style="fill:#000000; fill-opacity:1.0; 
stroke:#000000; stroke-width:787.402; stroke-opacity:1; 
stroke-linecap:round; stroke-linejoin:round;">
<path d="M101291 62760
L101291 62760
" />
<path d="M101291 63760
L101291 63760
" />
<path d="M102291 62760
L102291 62760
" />
<path d="M102291 63760
L102291 63760
" />
</g> 
</svg>
