<?xml version="1.0" standalone="no"?>
 <!DOCTYPE svg PUBLIC "-//W3C//DTD SVG 1.1//EN" 
 "http://www.w3.org/Graphics/SVG/1.1/DTD/svg11.dtd"> 
<svg xmlns="http://www.w3.org/2000/svg" version="1.1" 
    width="29.7002cm" height="21.0007cm" viewBox="0 0 116930 82680 ">
<title>SVG Picture created as poncho_rescatAR--brd.svg date 2015/12/04 09:59:27 </title>
  <desc>Picture generated by PCBNEW </desc>
<g style="fill:#000000; fill-opacity:1;stroke:#000000; stroke-opacity:1;
stroke-linecap:round; stroke-linejoin:round; "
 transform="translate(0 0) scale(1 1)">
</g>
<g style="fill:#000000; fill-opacity:0.0; 
stroke:#000000; stroke-width:98.4252; stroke-opacity:1; 
stroke-linecap:round; stroke-linejoin:round;">
<path d="M26456 31191
L26456 31454
" />
<path d="M26456 31379
L26475 31416
L26494 31435
L26531 31454
L26569 31454
" />
<path d="M26850 31210
L26812 31191
L26737 31191
L26700 31210
L26681 31248
L26681 31398
L26700 31435
L26737 31454
L26812 31454
L26850 31435
L26869 31398
L26869 31360
L26681 31323
" />
<path d="M27019 31210
L27056 31191
L27131 31191
L27169 31210
L27187 31248
L27187 31266
L27169 31304
L27131 31323
L27075 31323
L27037 31341
L27019 31379
L27019 31398
L27037 31435
L27075 31454
L27131 31454
L27169 31435
" />
<path d="M27525 31210
L27487 31191
L27412 31191
L27375 31210
L27356 31229
L27337 31266
L27337 31379
L27356 31416
L27375 31435
L27412 31454
L27487 31454
L27525 31435
" />
<path d="M27862 31191
L27862 31398
L27844 31435
L27806 31454
L27731 31454
L27694 31435
" />
<path d="M27862 31210
L27825 31191
L27731 31191
L27694 31210
L27675 31248
L27675 31285
L27694 31323
L27731 31341
L27825 31341
L27862 31360
" />
<path d="M27994 31454
L28143 31454
" />
<path d="M28050 31585
L28050 31248
L28068 31210
L28106 31191
L28143 31191
" />
<path d="M28256 31304
L28443 31304
" />
<path d="M28218 31191
L28350 31585
L28481 31191
" />
<path d="M28837 31191
L28706 31379
" />
<path d="M28612 31191
L28612 31585
L28762 31585
L28800 31566
L28818 31548
L28837 31510
L28837 31454
L28818 31416
L28800 31398
L28762 31379
L28612 31379
" />
</g>
<g style="fill:#000000; fill-opacity:0.0; 
stroke:#000000; stroke-width:80; stroke-opacity:1; 
stroke-linecap:round; stroke-linejoin:round;">
<path d="M43727 53005
L44213 53005
L44270 53024
L44298 53043
L44327 53081
L44327 53157
L44298 53195
L44270 53214
L44213 53233
L43727 53233
" />
<path d="M44327 53633
L44327 53405
" />
<path d="M44327 53519
L43727 53519
L43813 53481
L43870 53443
L43898 53405
" />
<path d="M44756 55567
L44565 55567
L44565 56167
" />
<path d="M44889 55567
L44889 56167
L45022 55738
L45156 56167
L45156 55567
" />
<path d="M45308 56167
L45556 56167
L45422 55938
L45479 55938
L45517 55909
L45537 55881
L45556 55824
L45556 55681
L45537 55624
L45517 55595
L45479 55567
L45365 55567
L45327 55595
L45308 55624
" />
<path d="M45937 55567
L45708 55567
" />
<path d="M45822 55567
L45822 56167
L45784 56081
L45746 56024
L45708 55995
" />
<path d="M46070 56167
L46337 56167
L46165 55567
" />
<path d="M46432 56167
L46660 56167
" />
<path d="M46546 55567
L46546 56167
" />
<path d="M32043 53865
L32100 53846
L32120 53827
L32139 53789
L32139 53732
L32120 53693
L32100 53674
L32062 53655
L31910 53655
L31910 54055
L32043 54055
L32081 54036
L32100 54017
L32120 53979
L32120 53941
L32100 53903
L32081 53884
L32043 53865
L31910 53865
" />
<path d="M32291 53770
L32481 53770
" />
<path d="M32253 53655
L32386 54055
L32520 53655
" />
<path d="M32596 54055
L32824 54055
" />
<path d="M32710 53655
L32710 54055
" />
<path d="M33167 53655
L32939 53655
" />
<path d="M33053 53655
L33053 54055
L33015 53998
L32977 53960
L32939 53941
" />
<path d="M42200 50252
L42033 50514
" />
<path d="M41914 50252
L41914 50802
L42104 50802
L42152 50776
L42176 50750
L42200 50697
L42200 50619
L42176 50566
L42152 50540
L42104 50514
L41914 50514
" />
<path d="M42628 50619
L42628 50252
" />
<path d="M42509 50828
L42390 50435
L42700 50435
" />
<path d="M39297 46012
L39035 45845
" />
<path d="M39297 45726
L38747 45726
L38747 45916
L38773 45964
L38799 45988
L38852 46012
L38930 46012
L38983 45988
L39009 45964
L39035 45916
L39035 45726
" />
<path d="M39297 46488
L39297 46202
" />
<path d="M39297 46345
L38747 46345
L38825 46297
L38878 46250
L38904 46202
" />
<path d="M41284 51719
L41118 51981
" />
<path d="M40999 51719
L40999 52269
L41189 52269
L41237 52243
L41260 52216
L41284 52164
L41284 52085
L41260 52033
L41237 52007
L41189 51981
L40999 51981
" />
<path d="M41737 52269
L41499 52269
L41475 52007
L41499 52033
L41546 52059
L41665 52059
L41713 52033
L41737 52007
L41760 51954
L41760 51823
L41737 51771
L41713 51745
L41665 51719
L41546 51719
L41499 51745
L41475 51771
" />
</g>
<g style="fill:#000000; fill-opacity:0.0; 
stroke:#000000; stroke-width:47.2441; stroke-opacity:1; 
stroke-linecap:round; stroke-linejoin:round;">
<path d="M12381 49671
L12066 49671
L12066 49791
L12081 49821
L12096 49836
L12126 49851
L12171 49851
L12201 49836
L12216 49821
L12231 49791
L12231 49671
" />
<path d="M12381 50151
L12381 49971
" />
<path d="M12381 50061
L12066 50061
L12111 50031
L12141 50001
L12156 49971
" />
<path d="M9031 49274
L9031 49124
L9181 49109
L9166 49124
L9151 49154
L9151 49229
L9166 49259
L9181 49274
L9211 49289
L9285 49289
L9315 49274
L9330 49259
L9345 49229
L9345 49154
L9330 49124
L9315 49109
" />
<path d="M9031 49379
L9345 49484
L9031 49589
" />
<path d="M9375 49619
L9375 49859
" />
<path d="M9031 49994
L9031 50054
L9046 50084
L9076 50114
L9136 50129
L9241 50129
L9300 50114
L9330 50084
L9345 50054
L9345 49994
L9330 49964
L9300 49934
L9241 49919
L9136 49919
L9076 49934
L9046 49964
L9031 49994
" />
<path d="M9031 50264
L9285 50264
L9315 50279
L9330 50294
L9345 50324
L9345 50384
L9330 50414
L9315 50429
L9285 50444
L9031 50444
" />
<path d="M9031 50549
L9031 50729
" />
<path d="M9345 50639
L9031 50639
" />
</g>
<g style="fill:#000000; fill-opacity:0.0; 
stroke:#000000; stroke-width:80; stroke-opacity:1; 
stroke-linecap:round; stroke-linejoin:round;">
<path d="M41267 33201
L40867 33201
L40867 33354
L40886 33392
L40905 33411
L40944 33430
L41001 33430
L41039 33411
L41058 33392
L41077 33354
L41077 33201
" />
<path d="M40905 33582
L40886 33601
L40867 33639
L40867 33735
L40886 33773
L40905 33792
L40944 33811
L40982 33811
L41039 33792
L41267 33563
L41267 33811
" />
<path d="M26366 22069
L26347 22050
L26290 22031
L26252 22031
L26194 22050
L26156 22089
L26137 22127
L26118 22203
L26118 22260
L26137 22336
L26156 22374
L26194 22412
L26252 22431
L26290 22431
L26347 22412
L26366 22393
" />
<path d="M26614 22431
L26690 22431
L26728 22412
L26766 22374
L26785 22298
L26785 22165
L26766 22089
L26728 22050
L26690 22031
L26614 22031
L26575 22050
L26537 22089
L26518 22165
L26518 22298
L26537 22374
L26575 22412
L26614 22431
" />
<path d="M26956 22031
L26956 22431
L27185 22031
L27185 22431
" />
<path d="M27280 21993
L27585 21993
" />
<path d="M27661 22050
L27718 22031
L27814 22031
L27852 22050
L27871 22069
L27890 22108
L27890 22146
L27871 22184
L27852 22203
L27814 22222
L27737 22241
L27699 22260
L27680 22279
L27661 22317
L27661 22355
L27680 22393
L27699 22412
L27737 22431
L27833 22431
L27890 22412
" />
<path d="M28137 22431
L28214 22431
L28252 22412
L28290 22374
L28309 22298
L28309 22165
L28290 22089
L28252 22050
L28214 22031
L28137 22031
L28099 22050
L28061 22089
L28042 22165
L28042 22298
L28061 22374
L28099 22412
L28137 22431
" />
<path d="M28690 22031
L28461 22031
" />
<path d="M28575 22031
L28575 22431
L28537 22374
L28499 22336
L28461 22317
" />
<path d="M28937 22431
L28975 22431
L29014 22412
L29033 22393
L29052 22355
L29071 22279
L29071 22184
L29052 22108
L29033 22069
L29014 22050
L28975 22031
L28937 22031
L28899 22050
L28880 22069
L28861 22108
L28842 22184
L28842 22279
L28861 22355
L28880 22393
L28899 22412
L28937 22431
" />
<path d="M29452 22031
L29223 22031
" />
<path d="M29337 22031
L29337 22431
L29299 22374
L29261 22336
L29223 22317
" />
<path d="M26366 50069
L26347 50050
L26290 50031
L26252 50031
L26194 50050
L26156 50089
L26137 50127
L26118 50203
L26118 50260
L26137 50336
L26156 50374
L26194 50412
L26252 50431
L26290 50431
L26347 50412
L26366 50393
" />
<path d="M26614 50431
L26690 50431
L26728 50412
L26766 50374
L26785 50298
L26785 50165
L26766 50089
L26728 50050
L26690 50031
L26614 50031
L26575 50050
L26537 50089
L26518 50165
L26518 50298
L26537 50374
L26575 50412
L26614 50431
" />
<path d="M26956 50031
L26956 50431
L27185 50031
L27185 50431
" />
<path d="M27280 49993
L27585 49993
" />
<path d="M27661 50050
L27718 50031
L27814 50031
L27852 50050
L27871 50069
L27890 50108
L27890 50146
L27871 50184
L27852 50203
L27814 50222
L27737 50241
L27699 50260
L27680 50279
L27661 50317
L27661 50355
L27680 50393
L27699 50412
L27737 50431
L27833 50431
L27890 50412
" />
<path d="M28137 50431
L28214 50431
L28252 50412
L28290 50374
L28309 50298
L28309 50165
L28290 50089
L28252 50050
L28214 50031
L28137 50031
L28099 50050
L28061 50089
L28042 50165
L28042 50298
L28061 50374
L28099 50412
L28137 50431
" />
<path d="M28690 50031
L28461 50031
" />
<path d="M28575 50031
L28575 50431
L28537 50374
L28499 50336
L28461 50317
" />
<path d="M28937 50431
L28975 50431
L29014 50412
L29033 50393
L29052 50355
L29071 50279
L29071 50184
L29052 50108
L29033 50069
L29014 50050
L28975 50031
L28937 50031
L28899 50050
L28880 50069
L28861 50108
L28842 50184
L28842 50279
L28861 50355
L28880 50393
L28899 50412
L28937 50431
" />
<path d="M29414 50298
L29414 50031
" />
<path d="M29318 50450
L29223 50165
L29471 50165
" />
<path d="M45007 27697
L45026 27678
L45045 27621
L45045 27583
L45026 27526
L44988 27488
L44950 27469
L44874 27450
L44817 27450
L44741 27469
L44702 27488
L44664 27526
L44645 27583
L44645 27621
L44664 27678
L44683 27697
" />
<path d="M44645 27945
L44645 28021
L44664 28059
L44702 28097
L44779 28116
L44912 28116
L44988 28097
L45026 28059
L45045 28021
L45045 27945
L45026 27907
L44988 27869
L44912 27850
L44779 27850
L44702 27869
L44664 27907
L44645 27945
" />
<path d="M45045 28288
L44645 28288
L45045 28516
L44645 28516
" />
<path d="M45083 28611
L45083 28916
" />
<path d="M44836 29011
L44836 29145
" />
<path d="M45045 29202
L45045 29011
L44645 29011
L44645 29202
" />
<path d="M44893 29373
L44893 29678
" />
<path d="M45007 30097
L45026 30078
L45045 30021
L45045 29983
L45026 29926
L44988 29888
L44950 29869
L44874 29850
L44817 29850
L44741 29869
L44702 29888
L44664 29926
L44645 29983
L44645 30021
L44664 30078
L44683 30097
" />
<path d="M45045 30269
L44645 30269
" />
<path d="M44931 30440
L44931 30631
" />
<path d="M45045 30402
L44645 30535
L45045 30669
" />
<path d="M44931 30783
L44931 30973
" />
<path d="M45045 30745
L44645 30878
L45045 31011
" />
<path d="M45045 31354
L45045 31126
" />
<path d="M45045 31240
L44645 31240
L44702 31202
L44741 31164
L44760 31126
" />
<path d="M17007 27697
L17026 27678
L17045 27621
L17045 27583
L17026 27526
L16988 27488
L16950 27469
L16874 27450
L16817 27450
L16741 27469
L16702 27488
L16664 27526
L16645 27583
L16645 27621
L16664 27678
L16683 27697
" />
<path d="M16645 27945
L16645 28021
L16664 28059
L16702 28097
L16779 28116
L16912 28116
L16988 28097
L17026 28059
L17045 28021
L17045 27945
L17026 27907
L16988 27869
L16912 27850
L16779 27850
L16702 27869
L16664 27907
L16645 27945
" />
<path d="M17045 28288
L16645 28288
L17045 28516
L16645 28516
" />
<path d="M17083 28611
L17083 28916
" />
<path d="M16836 29011
L16836 29145
" />
<path d="M17045 29202
L17045 29011
L16645 29011
L16645 29202
" />
<path d="M16893 29373
L16893 29678
" />
<path d="M17007 30097
L17026 30078
L17045 30021
L17045 29983
L17026 29926
L16988 29888
L16950 29869
L16874 29850
L16817 29850
L16741 29869
L16702 29888
L16664 29926
L16645 29983
L16645 30021
L16664 30078
L16683 30097
" />
<path d="M17045 30269
L16645 30269
" />
<path d="M16931 30440
L16931 30631
" />
<path d="M17045 30402
L16645 30535
L17045 30669
" />
<path d="M16931 30783
L16931 30973
" />
<path d="M17045 30745
L16645 30878
L17045 31011
" />
<path d="M16683 31126
L16664 31145
L16645 31183
L16645 31278
L16664 31316
L16683 31335
L16721 31354
L16760 31354
L16817 31335
L17045 31107
L17045 31354
" />
<path d="M15049 54950
L15049 54464
L15068 54407
L15087 54379
L15125 54350
L15201 54350
L15240 54379
L15259 54407
L15278 54464
L15278 54950
" />
<path d="M15449 54893
L15468 54921
L15506 54950
L15601 54950
L15640 54921
L15659 54893
L15678 54836
L15678 54779
L15659 54693
L15430 54350
L15678 54350
" />
<path d="M14237 51600
L14047 51600
L14047 52200
" />
<path d="M14370 51600
L14370 52200
L14504 51771
L14637 52200
L14637 51600
" />
<path d="M14790 52200
L15056 52200
L14885 51600
" />
<path d="M15266 51943
L15228 51971
L15209 52000
L15190 52057
L15190 52086
L15209 52143
L15228 52171
L15266 52200
L15342 52200
L15380 52171
L15399 52143
L15418 52086
L15418 52057
L15399 52000
L15380 51971
L15342 51943
L15266 51943
L15228 51914
L15209 51886
L15190 51829
L15190 51714
L15209 51657
L15228 51629
L15266 51600
L15342 51600
L15380 51629
L15399 51657
L15418 51714
L15418 51829
L15399 51886
L15380 51914
L15342 51943
" />
<path d="M15666 52200
L15704 52200
L15742 52171
L15761 52143
L15780 52086
L15799 51971
L15799 51829
L15780 51714
L15761 51657
L15742 51629
L15704 51600
L15666 51600
L15628 51629
L15609 51657
L15590 51714
L15570 51829
L15570 51971
L15590 52086
L15609 52143
L15628 52171
L15666 52200
" />
<path d="M16161 52200
L15970 52200
L15951 51914
L15970 51943
L16009 51971
L16104 51971
L16142 51943
L16161 51914
L16180 51857
L16180 51714
L16161 51657
L16142 51629
L16104 51600
L16009 51600
L15970 51629
L15951 51657
" />
</g>
<g style="fill:#000000; fill-opacity:0.0; 
stroke:#000000; stroke-width:35; stroke-opacity:1; 
stroke-linecap:round; stroke-linejoin:round;">
<path d="M40276 41187
L39976 41187
L39976 41259
L39990 41301
L40019 41330
L40047 41344
L40105 41359
L40147 41359
L40205 41344
L40233 41330
L40262 41301
L40276 41259
L40276 41187
" />
<path d="M40276 41644
L40276 41473
" />
<path d="M40276 41559
L39976 41559
L40019 41530
L40047 41501
L40062 41473
" />
<path d="M38176 41916
L38176 41773
L37876 41773
" />
<path d="M38019 42016
L38019 42116
" />
<path d="M38176 42159
L38176 42016
L37876 42016
L37876 42159
" />
<path d="M38176 42287
L37876 42287
L37876 42359
L37890 42401
L37919 42430
L37947 42444
L38005 42459
L38047 42459
L38105 42444
L38133 42430
L38162 42401
L38176 42359
L38176 42287
" />
</g>
<g style="fill:#000000; fill-opacity:0.0; 
stroke:#000000; stroke-width:80; stroke-opacity:1; 
stroke-linecap:round; stroke-linejoin:round;">
<path d="M39046 53914
L39065 53895
L39084 53837
L39084 53799
L39065 53742
L39027 53704
L38989 53685
L38913 53666
L38856 53666
L38779 53685
L38741 53704
L38703 53742
L38684 53799
L38684 53837
L38703 53895
L38722 53914
" />
<path d="M38818 54256
L39084 54256
" />
<path d="M38665 54161
L38951 54066
L38951 54314
" />
<path d="M42934 54839
L42953 54820
L42972 54763
L42972 54725
L42953 54667
L42915 54629
L42877 54610
L42801 54591
L42743 54591
L42667 54610
L42629 54629
L42591 54667
L42572 54725
L42572 54763
L42591 54820
L42610 54839
" />
<path d="M42572 54972
L42572 55220
L42724 55086
L42724 55144
L42743 55182
L42763 55201
L42801 55220
L42896 55220
L42934 55201
L42953 55182
L42972 55144
L42972 55029
L42953 54991
L42934 54972
" />
<path d="M19803 52434
L19822 52415
L19841 52358
L19841 52320
L19822 52263
L19784 52225
L19746 52206
L19670 52186
L19612 52186
L19536 52206
L19498 52225
L19460 52263
L19441 52320
L19441 52358
L19460 52415
L19479 52434
" />
<path d="M19441 52777
L19441 52701
L19460 52663
L19479 52644
L19536 52606
L19612 52586
L19765 52586
L19803 52606
L19822 52625
L19841 52663
L19841 52739
L19822 52777
L19803 52796
L19765 52815
L19670 52815
L19631 52796
L19612 52777
L19593 52739
L19593 52663
L19612 52625
L19631 52606
L19670 52586
" />
<path d="M13080 52434
L13099 52415
L13118 52358
L13118 52320
L13099 52263
L13061 52225
L13023 52206
L12947 52186
L12890 52186
L12814 52206
L12776 52225
L12738 52263
L12718 52320
L12718 52358
L12738 52415
L12757 52434
" />
<path d="M12718 52796
L12718 52606
L12909 52586
L12890 52606
L12871 52644
L12871 52739
L12890 52777
L12909 52796
L12947 52815
L13042 52815
L13080 52796
L13099 52777
L13118 52739
L13118 52644
L13099 52606
L13080 52586
" />
</g>
<g style="fill:#000000; fill-opacity:0.0; 
stroke:#000000; stroke-width:50; stroke-opacity:1; 
stroke-linecap:round; stroke-linejoin:round;">
<path d="M41522 53811
L41537 53796
L41551 53753
L41551 53725
L41537 53682
L41508 53653
L41480 53639
L41422 53625
L41380 53625
L41322 53639
L41294 53653
L41265 53682
L41251 53725
L41251 53753
L41265 53796
L41280 53811
" />
<path d="M41551 54096
L41551 53925
" />
<path d="M41551 54011
L41251 54011
L41294 53982
L41322 53953
L41337 53925
" />
<path d="M42550 53593
L42550 53450
" />
<path d="M42550 53521
L42250 53521
L42293 53498
L42321 53474
L42336 53450
" />
<path d="M42250 53748
L42250 53771
L42264 53795
L42279 53807
L42307 53819
L42364 53831
L42436 53831
L42493 53819
L42521 53807
L42536 53795
L42550 53771
L42550 53748
L42536 53724
L42521 53712
L42493 53700
L42436 53688
L42364 53688
L42307 53700
L42279 53712
L42264 53724
L42250 53748
" />
<path d="M42350 54045
L42550 54045
" />
<path d="M42350 53938
L42507 53938
L42536 53950
L42550 53974
L42550 54009
L42536 54033
L42521 54045
" />
<path d="M42393 54248
L42393 54164
" />
<path d="M42550 54164
L42250 54164
L42250 54283
" />
</g>
<g style="fill:#000000; fill-opacity:0.0; 
stroke:#000000; stroke-width:80; stroke-opacity:1; 
stroke-linecap:round; stroke-linejoin:round;">
</g>
<g style="fill:#000000; fill-opacity:0.0; 
stroke:#000000; stroke-width:75; stroke-opacity:1; 
stroke-linecap:round; stroke-linejoin:round;">
<path d="M41936 52846
L41936 53075
" />
<path d="M42050 52961
L41821 52961
" />
</g>
<g style="fill:#000000; fill-opacity:0.0; 
stroke:#000000; stroke-width:80; stroke-opacity:1; 
stroke-linecap:round; stroke-linejoin:round;">
</g>
<g style="fill:#000000; fill-opacity:0.0; 
stroke:#000000; stroke-width:50; stroke-opacity:1; 
stroke-linecap:round; stroke-linejoin:round;">
<path d="M21428 52551
L21442 52536
L21457 52494
L21457 52465
L21442 52422
L21414 52394
L21385 52379
L21328 52365
L21285 52365
L21228 52379
L21199 52394
L21171 52422
L21157 52465
L21157 52494
L21171 52536
L21185 52551
" />
<path d="M21185 52665
L21171 52679
L21157 52708
L21157 52779
L21171 52808
L21185 52822
L21214 52836
L21242 52836
L21285 52822
L21457 52651
L21457 52836
" />
<path d="M20458 52333
L20458 52190
" />
<path d="M20458 52261
L20158 52261
L20200 52238
L20229 52214
L20243 52190
" />
<path d="M20158 52488
L20158 52511
L20172 52535
L20186 52547
L20215 52559
L20272 52571
L20343 52571
L20400 52559
L20429 52547
L20443 52535
L20458 52511
L20458 52488
L20443 52464
L20429 52452
L20400 52440
L20343 52428
L20272 52428
L20215 52440
L20186 52452
L20172 52464
L20158 52488
" />
<path d="M20258 52785
L20458 52785
" />
<path d="M20258 52678
L20415 52678
L20443 52690
L20458 52714
L20458 52750
L20443 52773
L20429 52785
" />
<path d="M20300 52988
L20300 52904
" />
<path d="M20458 52904
L20158 52904
L20158 53023
" />
</g>
<g style="fill:#000000; fill-opacity:0.0; 
stroke:#000000; stroke-width:80; stroke-opacity:1; 
stroke-linecap:round; stroke-linejoin:round;">
</g>
<g style="fill:#000000; fill-opacity:0.0; 
stroke:#000000; stroke-width:75; stroke-opacity:1; 
stroke-linecap:round; stroke-linejoin:round;">
<path d="M20843 53386
L20843 53615
" />
<path d="M20958 53501
L20729 53501
" />
</g>
<g style="fill:#000000; fill-opacity:0.0; 
stroke:#000000; stroke-width:80; stroke-opacity:1; 
stroke-linecap:round; stroke-linejoin:round;">
</g>
<g style="fill:#000000; fill-opacity:0.0; 
stroke:#000000; stroke-width:100; stroke-opacity:1; 
stroke-linecap:round; stroke-linejoin:round;">
<path d="M12732 47207
L12713 47169
L12713 47112
L12732 47055
L12771 47017
L12809 46998
L12885 46979
L12942 46979
L13018 46998
L13056 47017
L13094 47055
L13113 47112
L13113 47150
L13094 47207
L13075 47226
L12942 47226
L12942 47150
" />
<path d="M13113 47398
L12713 47398
L13113 47626
L12713 47626
" />
<path d="M13113 47817
L12713 47817
L12713 47912
L12732 47969
L12771 48007
L12809 48026
L12885 48046
L12942 48046
L13018 48026
L13056 48007
L13094 47969
L13113 47912
L13113 47817
" />
<path d="M21827 45869
L21808 45831
L21808 45774
L21827 45716
L21865 45678
L21903 45659
L21979 45640
L22036 45640
L22113 45659
L22151 45678
L22189 45716
L22208 45774
L22208 45812
L22189 45869
L22170 45888
L22036 45888
L22036 45812
" />
<path d="M22208 46059
L21808 46059
L22208 46288
L21808 46288
" />
<path d="M22208 46478
L21808 46478
L21808 46574
L21827 46631
L21865 46669
L21903 46688
L21979 46707
L22036 46707
L22113 46688
L22151 46669
L22189 46631
L22208 46574
L22208 46478
" />
<path d="M38090 32425
L38052 32444
L37995 32444
L37938 32425
L37900 32387
L37881 32349
L37862 32273
L37862 32216
L37881 32140
L37900 32102
L37938 32063
L37995 32044
L38033 32044
L38090 32063
L38109 32082
L38109 32216
L38033 32216
" />
<path d="M38281 32044
L38281 32444
L38509 32044
L38509 32444
" />
<path d="M38700 32044
L38700 32444
L38795 32444
L38852 32425
L38890 32387
L38909 32349
L38929 32273
L38929 32216
L38909 32140
L38890 32102
L38852 32063
L38795 32044
L38700 32044
" />
<path d="M38888 22150
L38850 22169
L38792 22169
L38735 22150
L38697 22112
L38678 22074
L38659 21997
L38659 21940
L38678 21864
L38697 21826
L38735 21788
L38792 21769
L38831 21769
L38888 21788
L38907 21807
L38907 21940
L38831 21940
" />
<path d="M39078 21769
L39078 22169
L39307 21769
L39307 22169
" />
<path d="M39497 21769
L39497 22169
L39592 22169
L39650 22150
L39688 22112
L39707 22074
L39726 21997
L39726 21940
L39707 21864
L39688 21826
L39650 21788
L39592 21769
L39497 21769
" />
<path d="M12815 21382
L12777 21401
L12720 21401
L12662 21382
L12624 21344
L12605 21306
L12586 21230
L12586 21172
L12605 21096
L12624 21058
L12662 21020
L12720 21001
L12758 21001
L12815 21020
L12834 21039
L12834 21172
L12758 21172
" />
<path d="M13005 21001
L13005 21401
L13234 21001
L13234 21401
" />
<path d="M13424 21001
L13424 21401
L13520 21401
L13577 21382
L13615 21344
L13634 21306
L13653 21230
L13653 21172
L13634 21096
L13615 21058
L13577 21020
L13520 21001
L13424 21001
" />
<path d="M45423 22120
L45385 22139
L45328 22139
L45271 22120
L45233 22082
L45214 22044
L45195 21968
L45195 21911
L45214 21834
L45233 21796
L45271 21758
L45328 21739
L45366 21739
L45423 21758
L45442 21777
L45442 21911
L45366 21911
" />
<path d="M45614 21739
L45614 22139
L45842 21739
L45842 22139
" />
<path d="M46033 21739
L46033 22139
L46128 22139
L46185 22120
L46223 22082
L46242 22044
L46261 21968
L46261 21911
L46242 21834
L46223 21796
L46185 21758
L46128 21739
L46033 21739
" />
<path d="M24524 51637
L24505 51598
L24505 51541
L24524 51484
L24562 51446
L24600 51427
L24676 51408
L24733 51408
L24809 51427
L24848 51446
L24886 51484
L24905 51541
L24905 51579
L24886 51637
L24867 51656
L24733 51656
L24733 51579
" />
<path d="M24905 51827
L24505 51827
L24905 52056
L24505 52056
" />
<path d="M24905 52246
L24505 52246
L24505 52341
L24524 52398
L24562 52437
L24600 52456
L24676 52475
L24733 52475
L24809 52456
L24848 52437
L24886 52398
L24905 52341
L24905 52246
" />
<path d="M37821 46076
L37802 46037
L37802 45980
L37821 45923
L37859 45885
L37897 45866
L37973 45847
L38031 45847
L38107 45866
L38145 45885
L38183 45923
L38202 45980
L38202 46018
L38183 46076
L38164 46095
L38031 46095
L38031 46018
" />
<path d="M38202 46266
L37802 46266
L38202 46495
L37802 46495
" />
<path d="M38202 46685
L37802 46685
L37802 46780
L37821 46837
L37859 46876
L37897 46895
L37973 46914
L38031 46914
L38107 46895
L38145 46876
L38183 46837
L38202 46780
L38202 46685
" />
</g>
<g style="fill:#000000; fill-opacity:0.0; 
stroke:#000000; stroke-width:80; stroke-opacity:1; 
stroke-linecap:round; stroke-linejoin:round;">
<path d="M25191 53923
L25001 53923
L24982 53733
L25001 53752
L25039 53771
L25134 53771
L25172 53752
L25191 53733
L25210 53695
L25210 53599
L25191 53561
L25172 53542
L25134 53523
L25039 53523
L25001 53542
L24982 53561
" />
<path d="M25325 53923
L25458 53523
L25591 53923
" />
<path d="M25629 53485
L25934 53485
" />
<path d="M26106 53923
L26182 53923
L26220 53904
L26258 53866
L26277 53790
L26277 53656
L26258 53580
L26220 53542
L26182 53523
L26106 53523
L26067 53542
L26029 53580
L26010 53656
L26010 53790
L26029 53866
L26067 53904
L26106 53923
" />
<path d="M26448 53923
L26448 53599
L26467 53561
L26486 53542
L26525 53523
L26601 53523
L26639 53542
L26658 53561
L26677 53599
L26677 53923
" />
<path d="M26810 53923
L27039 53923
" />
<path d="M26925 53523
L26925 53923
" />
</g>
<g style="fill:#000000; fill-opacity:0.0; 
stroke:#000000; stroke-width:100; stroke-opacity:1; 
stroke-linecap:round; stroke-linejoin:round;">
<path d="M37234 37524
L37196 37543
L37139 37543
L37082 37524
L37044 37486
L37025 37448
L37006 37371
L37006 37314
L37025 37238
L37044 37200
L37082 37162
L37139 37143
L37177 37143
L37234 37162
L37253 37181
L37253 37314
L37177 37314
" />
<path d="M37425 37143
L37425 37543
L37653 37143
L37653 37543
" />
<path d="M37844 37143
L37844 37543
L37939 37543
L37996 37524
L38034 37486
L38053 37448
L38072 37371
L38072 37314
L38053 37238
L38034 37200
L37996 37162
L37939 37143
L37844 37143
" />
<path d="M37490 55762
L37452 55781
L37395 55781
L37338 55762
L37300 55724
L37280 55686
L37261 55610
L37261 55552
L37280 55476
L37300 55438
L37338 55400
L37395 55381
L37433 55381
L37490 55400
L37509 55419
L37509 55552
L37433 55552
" />
<path d="M37680 55381
L37680 55781
L37909 55381
L37909 55781
" />
<path d="M38100 55381
L38100 55781
L38195 55781
L38252 55762
L38290 55724
L38309 55686
L38328 55610
L38328 55552
L38309 55476
L38290 55438
L38252 55400
L38195 55381
L38100 55381
" />
</g>
<g style="fill:#000000; fill-opacity:0.0; 
stroke:#000000; stroke-width:80; stroke-opacity:1; 
stroke-linecap:round; stroke-linejoin:round;">
<path d="M43533 42766
L43552 42823
L43552 42919
L43533 42957
L43514 42976
L43476 42995
L43438 42995
L43400 42976
L43381 42957
L43362 42919
L43343 42842
L43324 42804
L43305 42785
L43267 42766
L43229 42766
L43190 42785
L43171 42804
L43152 42842
L43152 42938
L43171 42995
" />
<path d="M43152 43128
L43552 43223
L43267 43300
L43552 43376
L43152 43471
" />
<path d="M43552 43833
L43552 43604
" />
<path d="M43552 43719
L43152 43719
L43209 43681
L43248 43642
L43267 43604
" />
<path d="M44252 42023
L44062 41890
" />
<path d="M44252 41795
L43852 41795
L43852 41947
L43871 41985
L43890 42004
L43929 42023
L43986 42023
L44024 42004
L44043 41985
L44062 41947
L44062 41795
" />
<path d="M44233 42347
L44252 42309
L44252 42233
L44233 42195
L44195 42176
L44043 42176
L44005 42195
L43986 42233
L43986 42309
L44005 42347
L44043 42366
L44081 42366
L44119 42176
" />
<path d="M44233 42519
L44252 42557
L44252 42633
L44233 42671
L44195 42690
L44176 42690
L44138 42671
L44119 42633
L44119 42576
L44100 42538
L44062 42519
L44043 42519
L44005 42538
L43986 42576
L43986 42633
L44005 42671
" />
<path d="M44233 43014
L44252 42976
L44252 42900
L44233 42861
L44195 42842
L44043 42842
L44005 42861
L43986 42900
L43986 42976
L44005 43014
L44043 43033
L44081 43033
L44119 42842
" />
<path d="M43986 43147
L43986 43300
" />
<path d="M43852 43204
L44195 43204
L44233 43223
L44252 43261
L44252 43300
" />
<path d="M44290 43338
L44290 43642
" />
<path d="M44233 43909
L44252 43871
L44252 43795
L44233 43757
L44214 43738
L44176 43719
L44062 43719
L44024 43738
L44005 43757
L43986 43795
L43986 43871
L44005 43909
" />
<path d="M44252 44081
L43986 44081
" />
<path d="M43852 44081
L43871 44061
L43890 44081
L43871 44100
L43852 44081
L43890 44081
" />
<path d="M44252 44442
L44043 44442
L44005 44423
L43986 44385
L43986 44309
L44005 44271
" />
<path d="M44233 44442
L44252 44404
L44252 44309
L44233 44271
L44195 44252
L44157 44252
L44119 44271
L44100 44309
L44100 44404
L44081 44442
" />
<path d="M44252 44804
L44043 44804
L44005 44785
L43986 44747
L43986 44671
L44005 44633
" />
<path d="M44233 44804
L44252 44766
L44252 44671
L44233 44633
L44195 44614
L44157 44614
L44119 44633
L44100 44671
L44100 44766
L44081 44804
" />
<path d="M42423 49248
L42671 49248
L42537 49096
L42594 49096
L42633 49076
L42652 49057
L42671 49019
L42671 48924
L42652 48886
L42633 48867
L42594 48848
L42480 48848
L42442 48867
L42423 48886
" />
<path d="M42842 48886
L42861 48867
L42842 48848
L42823 48867
L42842 48886
L42842 48848
" />
<path d="M43090 49076
L43052 49096
L43033 49115
L43013 49153
L43013 49172
L43033 49210
L43052 49229
L43090 49248
L43166 49248
L43204 49229
L43223 49210
L43242 49172
L43242 49153
L43223 49115
L43204 49096
L43166 49076
L43090 49076
L43052 49057
L43033 49038
L43013 49000
L43013 48924
L43033 48886
L43052 48867
L43090 48848
L43166 48848
L43204 48867
L43223 48886
L43242 48924
L43242 49000
L43223 49038
L43204 49057
L43166 49076
" />
<path d="M43356 49248
L43490 48848
L43623 49248
" />
<path d="M43661 48810
L43966 48810
" />
<path d="M44137 49248
L44213 49248
L44252 49229
L44290 49191
L44309 49115
L44309 48981
L44290 48905
L44252 48867
L44213 48848
L44137 48848
L44099 48867
L44061 48905
L44042 48981
L44042 49115
L44061 49191
L44099 49229
L44137 49248
" />
<path d="M44480 49248
L44480 48924
L44499 48886
L44518 48867
L44556 48848
L44633 48848
L44671 48867
L44690 48886
L44709 48924
L44709 49248
" />
<path d="M44842 49248
L45071 49248
" />
<path d="M44956 48848
L44956 49248
" />
</g>
<g style="fill:#000000; fill-opacity:0.0; 
stroke:#000000; stroke-width:150; stroke-opacity:1; 
stroke-linecap:round; stroke-linejoin:round;">
<path d="M46084 55309
L46334 55309
" />
<path d="M46334 55309
L46334 51309
" />
<path d="M46334 51309
L46084 51309
" />
<path d="M44584 55309
L46084 55309
" />
<path d="M46084 55309
L46084 51309
" />
<path d="M46084 51309
L44584 51309
" />
<path d="M44584 51309
L44584 55309
" />
</g>
<g style="fill:#000000; fill-opacity:0.0; 
stroke:#000000; stroke-width:59.0551; stroke-opacity:1; 
stroke-linecap:round; stroke-linejoin:round;">
<path d="M32529 53408
L35757 53408
" />
<path d="M35757 53408
L35757 52227
" />
<path d="M35757 52227
L29301 52227
" />
<path d="M29301 52227
L29301 53408
" />
<path d="M29301 53408
L32529 53408
" />
</g>
<g style="fill:#000000; fill-opacity:0.0; 
stroke:#000000; stroke-width:120; stroke-opacity:1; 
stroke-linecap:round; stroke-linejoin:round;">
<path d="M40283 50475
L40683 50475
" />
<path d="M40683 50475
L40683 50875
" />
<path d="M40683 50875
L43883 50875
" />
<path d="M43883 50875
L43883 50075
" />
<path d="M43883 50075
L40683 50075
" />
<path d="M40683 50075
L40683 50475
" />
<path d="M40683 50675
L40883 50875
" />
<path d="M44283 50475
L43883 50475
" />
<path d="M39074 48095
L39074 47695
" />
<path d="M39074 47695
L39474 47695
" />
<path d="M39474 47695
L39474 44495
" />
<path d="M39474 44495
L38674 44495
" />
<path d="M38674 44495
L38674 47695
" />
<path d="M38674 47695
L39074 47695
" />
<path d="M39274 47695
L39474 47495
" />
<path d="M39074 44095
L39074 44495
" />
<path d="M39368 51941
L39768 51941
" />
<path d="M39768 51941
L39768 52341
" />
<path d="M39768 52341
L42968 52341
" />
<path d="M42968 52341
L42968 51541
" />
<path d="M42968 51541
L39768 51541
" />
<path d="M39768 51541
L39768 51941
" />
<path d="M39768 52141
L39968 52341
" />
<path d="M43368 51941
L42968 51941
" />
</g>
<g style="fill:#000000; fill-opacity:0.0; 
stroke:#000000; stroke-width:100; stroke-opacity:1; 
stroke-linecap:round; stroke-linejoin:round;">
<path d="M11218 48904
L11218 50904
" />
<path d="M9468 48904
L9468 50904
" />
<path d="M11968 50904
L11968 48904
" />
<path d="M11968 50904
L9468 50904
" />
<path d="M11968 48904
L9468 48904
" />
</g>
<g style="fill:#000000; fill-opacity:0.0; 
stroke:#000000; stroke-width:120; stroke-opacity:1; 
stroke-linecap:round; stroke-linejoin:round;">
<path d="M40755 36496
L39755 36496
" />
<path d="M40755 37496
L40755 29496
" />
<path d="M40755 29496
L39755 29496
" />
<path d="M39755 29496
L39755 37496
" />
<path d="M39755 37496
L40755 37496
" />
<path d="M37785 19693
L17785 19693
" />
<path d="M17785 21693
L37785 21693
" />
<path d="M17785 20693
L18785 20693
" />
<path d="M18785 20693
L18785 19693
" />
<path d="M17785 21693
L17785 19693
" />
<path d="M37785 19693
L37785 21693
" />
<path d="M37785 47693
L17785 47693
" />
<path d="M17785 49693
L37785 49693
" />
<path d="M17785 48693
L18785 48693
" />
<path d="M18785 48693
L18785 47693
" />
<path d="M17785 49693
L17785 47693
" />
<path d="M37785 47693
L37785 49693
" />
<path d="M42383 19402
L42383 39402
" />
<path d="M44383 39402
L44383 19402
" />
<path d="M43383 39402
L43383 38402
" />
<path d="M43383 38402
L42383 38402
" />
<path d="M44383 39402
L42383 39402
" />
<path d="M42383 19402
L44383 19402
" />
<path d="M14383 19402
L14383 39402
" />
<path d="M16383 39402
L16383 19402
" />
<path d="M15383 39402
L15383 38402
" />
<path d="M15383 38402
L14383 38402
" />
<path d="M16383 39402
L14383 39402
" />
<path d="M14383 19402
L16383 19402
" />
</g>
<g style="fill:#000000; fill-opacity:0.0; 
stroke:#000000; stroke-width:100; stroke-opacity:1; 
stroke-linecap:round; stroke-linejoin:round;">
<path d="M13604 53843
L13604 54093
" />
<path d="M13604 54093
L17104 54093
" />
<path d="M17104 54093
L17104 53843
" />
<path d="M13604 52343
L13604 53843
" />
<path d="M13604 53843
L17104 53843
" />
<path d="M17104 53843
L17104 52343
" />
<path d="M17104 52343
L13604 52343
" />
<path d="M38555 41389
L39555 41389
" />
</g>
<g style="fill:#000000; fill-opacity:0.0; 
stroke:#000000; stroke-width:60; stroke-opacity:1; 
stroke-linecap:round; stroke-linejoin:round;">
<path d="M39055.1 42609.1 A600 600 0.0 0 0 39439.2 42470.1 " />
<path d="M38657.3 42457.3 A599.256 599.256 0.0 0 0 39055.1 42608.4 " />
<path d="M39445.1 41554.1 A599.27 599.27 0.0 0 0 39055.1 41409.9 " />
<path d="M39055.1 41409.1 A600 600 0.0 0 0 38671.1 41548.2 " />
<path d="M39655.1 42009.1 A600 600 0.0 0 0 39404.4 41521.3 " />
<path d="M39415.4 42488.9 A600 600 0.0 0 0 39655.1 42009.1 " />
<path d="M38687 41536.2 A599.294 599.294 0.0 0 0 38455.8 42009.1 " />
<path d="M38455.1 42009.1 A600 600 0.0 0 0 38686.5 42482.6 " />
<path d="M39055.1 42259.1 A250 250 0.0 0 0 39305.1 42009.1 " />
<path d="M39055.1 42409.1 A400 400 0.0 0 0 39455.1 42009.1 " />
<path d="M39055.1 41759.1 A250 250 0.0 0 0 38805.1 42009.1 " />
<path d="M39055.1 41609.1 A400 400 0.0 0 0 38655.1 42009.1 " />
</g>
<g style="fill:#000000; fill-opacity:0.0; 
stroke:#000000; stroke-width:100; stroke-opacity:1; 
stroke-linecap:round; stroke-linejoin:round;">
<path d="M39855.1 42009.1 A800 800 0.0 0 0 39568.3 41395.4 " />
<path d="M39431.5 42714 A799 799 0.0 0 0 39854.1 42009.1 " />
<path d="M38539.4 41398.9 A798.972 798.972 0.0 0 0 38256.1 42007.7 " />
<path d="M38255.1 42009.1 A800 800 0.0 0 0 38657.5 42703.3 " />
<path d="M39055.1 42809.1 A800 800 0.0 0 0 39434.4 42713.5 " />
<path d="M38636.2 42690.2 A799.576 799.576 0.0 0 0 39055.1 42808.7 " />
</g>
<g style="fill:#000000; fill-opacity:0.0; 
stroke:#000000; stroke-width:120; stroke-opacity:1; 
stroke-linecap:round; stroke-linejoin:round;">
<path d="M39322 52900
L39322 54880
" />
<path d="M39322 54880
L40322 54880
" />
<path d="M40322 54880
L40322 52880
" />
<path d="M40322 52880
L39322 52880
" />
<path d="M39572 52880
L39322 53130
" />
<path d="M43210 53825
L43210 55805
" />
<path d="M43210 55805
L44210 55805
" />
<path d="M44210 55805
L44210 53805
" />
<path d="M44210 53805
L43210 53805
" />
<path d="M43460 53805
L43210 54055
" />
<path d="M19279 53581
L19279 51601
" />
<path d="M19279 51601
L18279 51601
" />
<path d="M18279 51601
L18279 53601
" />
<path d="M18279 53601
L19279 53601
" />
<path d="M19029 53601
L19279 53351
" />
<path d="M12557 53581
L12557 51601
" />
<path d="M12557 51601
L11557 51601
" />
<path d="M11557 51601
L11557 53601
" />
<path d="M11557 53601
L12557 53601
" />
<path d="M12307 53601
L12557 53351
" />
</g>
<g style="fill:#000000; fill-opacity:0.0; 
stroke:#000000; stroke-width:50; stroke-opacity:1; 
stroke-linecap:round; stroke-linejoin:round;">
<circle cx="41929.1" cy="53861.1" r="1001.25" /> 
<circle cx="20836.6" cy="52601.3" r="1001.25" /> 
</g>
<g style="fill:#000000; fill-opacity:0.0; 
stroke:#000000; stroke-width:150; stroke-opacity:1; 
stroke-linecap:round; stroke-linejoin:round;">
<circle cx="11752" cy="47512.7" r="900" /> 
<circle cx="20846.5" cy="46174.1" r="900" /> 
<circle cx="38395.7" cy="31006.8" r="900" /> 
<circle cx="39192.9" cy="20731.2" r="900" /> 
<circle cx="13120.1" cy="19963.5" r="900" /> 
<circle cx="45728.3" cy="20701.7" r="900" /> 
<circle cx="23543.3" cy="51941.8" r="900" /> 
<circle cx="36840.6" cy="46380.8" r="900" /> 
</g>
<g style="fill:#000000; fill-opacity:0.0; 
stroke:#000000; stroke-width:120; stroke-opacity:1; 
stroke-linecap:round; stroke-linejoin:round;">
<path d="M25141 53335
L27141 53335
" />
<path d="M27141 53335
L27141 51335
" />
<path d="M27141 51335
L25141 51335
" />
<path d="M25141 51335
L25141 53335
" />
</g>
<g style="fill:#000000; fill-opacity:0.0; 
stroke:#000000; stroke-width:150; stroke-opacity:1; 
stroke-linecap:round; stroke-linejoin:round;">
<circle cx="37539.4" cy="36105.2" r="900" /> 
<circle cx="37795.3" cy="54343.4" r="900" /> 
</g>
<g style="fill:#000000; fill-opacity:0.0; 
stroke:#000000; stroke-width:50; stroke-opacity:1; 
stroke-linecap:round; stroke-linejoin:round;">
<circle cx="43690.9" cy="43300.1" r="1000" /> 
<path d="M42190 41800
L42190 44800
" />
<path d="M42190 44800
L45190 44800
" />
<path d="M45190 44800
L45190 41800
" />
<path d="M42190 41800
L45190 41800
" />
</g>
<g style="fill:#000000; fill-opacity:0.0; 
stroke:#000000; stroke-width:120; stroke-opacity:1; 
stroke-linecap:round; stroke-linejoin:round;">
<path d="M42887 48660
L44887 48660
" />
<path d="M44887 48660
L44887 46660
" />
<path d="M44887 46660
L42887 46660
" />
<path d="M42887 46660
L42887 48660
" />
</g>
<g style="fill:#000000; fill-opacity:0.0; 
stroke:#000000; stroke-width:669.291; stroke-opacity:1; 
stroke-linecap:round; stroke-linejoin:round;">
<path d="M45177 54309
L45492 54309
" />
<path d="M45177 53309
L45492 53309
" />
<path d="M45177 52309
L45492 52309
" />
</g>
<g style="fill:#000000; fill-opacity:0.0; 
stroke:#000000; stroke-width:787.402; stroke-opacity:1; 
stroke-linecap:round; stroke-linejoin:round;">
<path d="M33307 52817
L33307 52817
" />
<path d="M31751 52817
L31751 52817
" />
<path d="M34862 52817
L34862 52817
" />
<path d="M30177 52817
L30177 52817
" />
<path d="M40283 50475
L40283 50475
" />
<path d="M44283 50475
L44283 50475
" />
<path d="M39074 48095
L39074 48095
" />
<path d="M39074 44095
L39074 44095
" />
<path d="M39368 51941
L39368 51941
" />
<path d="M43368 51941
L43368 51941
" />
<path d="M10718 50404
L10718 50404
" />
<path d="M10718 49404
L10718 49404
" />
<path d="M40255 36996
L40255 36996
" />
<path d="M40255 35996
L40255 35996
" />
<path d="M40255 34996
L40255 34996
" />
<path d="M40255 33996
L40255 33996
" />
<path d="M40255 32996
L40255 32996
" />
<path d="M40255 31996
L40255 31996
" />
<path d="M40255 30996
L40255 30996
" />
<path d="M40255 29996
L40255 29996
" />
<path d="M18285 20193
L18285 20193
" />
<path d="M18285 21193
L18285 21193
" />
<path d="M19285 20193
L19285 20193
" />
<path d="M19285 21193
L19285 21193
" />
<path d="M20285 20193
L20285 20193
" />
<path d="M20285 21193
L20285 21193
" />
<path d="M21285 20193
L21285 20193
" />
<path d="M21285 21193
L21285 21193
" />
<path d="M22285 20193
L22285 20193
" />
<path d="M22285 21193
L22285 21193
" />
<path d="M23285 20193
L23285 20193
" />
<path d="M23285 21193
L23285 21193
" />
<path d="M24285 20193
L24285 20193
" />
<path d="M24285 21193
L24285 21193
" />
<path d="M25285 20193
L25285 20193
" />
<path d="M25285 21193
L25285 21193
" />
<path d="M26285 20193
L26285 20193
" />
<path d="M26285 21193
L26285 21193
" />
<path d="M27285 20193
L27285 20193
" />
<path d="M27285 21193
L27285 21193
" />
<path d="M28285 20193
L28285 20193
" />
<path d="M28285 21193
L28285 21193
" />
<path d="M29285 20193
L29285 20193
" />
<path d="M29285 21193
L29285 21193
" />
<path d="M30285 20193
L30285 20193
" />
<path d="M30285 21193
L30285 21193
" />
<path d="M31285 20193
L31285 20193
" />
<path d="M31285 21193
L31285 21193
" />
<path d="M32285 20193
L32285 20193
" />
<path d="M32285 21193
L32285 21193
" />
<path d="M33285 20193
L33285 20193
" />
<path d="M33285 21193
L33285 21193
" />
<path d="M34285 20193
L34285 20193
" />
<path d="M34285 21193
L34285 21193
" />
<path d="M35285 20193
L35285 20193
" />
<path d="M35285 21193
L35285 21193
" />
<path d="M36285 20193
L36285 20193
" />
<path d="M36285 21193
L36285 21193
" />
<path d="M37285 20193
L37285 20193
" />
<path d="M37285 21193
L37285 21193
" />
<path d="M18285 48193
L18285 48193
" />
<path d="M18285 49193
L18285 49193
" />
<path d="M19285 48193
L19285 48193
" />
<path d="M19285 49193
L19285 49193
" />
<path d="M20285 48193
L20285 48193
" />
<path d="M20285 49193
L20285 49193
" />
<path d="M21285 48193
L21285 48193
" />
<path d="M21285 49193
L21285 49193
" />
<path d="M22285 48193
L22285 48193
" />
<path d="M22285 49193
L22285 49193
" />
<path d="M23285 48193
L23285 48193
" />
<path d="M23285 49193
L23285 49193
" />
<path d="M24285 48193
L24285 48193
" />
<path d="M24285 49193
L24285 49193
" />
<path d="M25285 48193
L25285 48193
" />
<path d="M25285 49193
L25285 49193
" />
<path d="M26285 48193
L26285 48193
" />
<path d="M26285 49193
L26285 49193
" />
<path d="M27285 48193
L27285 48193
" />
<path d="M27285 49193
L27285 49193
" />
<path d="M28285 48193
L28285 48193
" />
<path d="M28285 49193
L28285 49193
" />
<path d="M29285 48193
L29285 48193
" />
<path d="M29285 49193
L29285 49193
" />
<path d="M30285 48193
L30285 48193
" />
<path d="M30285 49193
L30285 49193
" />
<path d="M31285 48193
L31285 48193
" />
<path d="M31285 49193
L31285 49193
" />
<path d="M32285 48193
L32285 48193
" />
<path d="M32285 49193
L32285 49193
" />
<path d="M33285 48193
L33285 48193
" />
<path d="M33285 49193
L33285 49193
" />
<path d="M34285 48193
L34285 48193
" />
<path d="M34285 49193
L34285 49193
" />
<path d="M35285 48193
L35285 48193
" />
<path d="M35285 49193
L35285 49193
" />
<path d="M36285 48193
L36285 48193
" />
<path d="M36285 49193
L36285 49193
" />
<path d="M37285 48193
L37285 48193
" />
<path d="M37285 49193
L37285 49193
" />
<path d="M42883 38902
L42883 38902
" />
<path d="M43883 38902
L43883 38902
" />
<path d="M42883 37902
L42883 37902
" />
<path d="M43883 37902
L43883 37902
" />
<path d="M42883 36902
L42883 36902
" />
<path d="M43883 36902
L43883 36902
" />
<path d="M42883 35902
L42883 35902
" />
<path d="M43883 35902
L43883 35902
" />
<path d="M42883 34902
L42883 34902
" />
<path d="M43883 34902
L43883 34902
" />
<path d="M42883 33902
L42883 33902
" />
<path d="M43883 33902
L43883 33902
" />
<path d="M42883 32902
L42883 32902
" />
<path d="M43883 32902
L43883 32902
" />
<path d="M42883 31902
L42883 31902
" />
<path d="M43883 31902
L43883 31902
" />
<path d="M42883 30902
L42883 30902
" />
<path d="M43883 30902
L43883 30902
" />
<path d="M42883 29902
L42883 29902
" />
<path d="M43883 29902
L43883 29902
" />
<path d="M42883 28902
L42883 28902
" />
<path d="M43883 28902
L43883 28902
" />
<path d="M42883 27902
L42883 27902
" />
<path d="M43883 27902
L43883 27902
" />
<path d="M42883 26902
L42883 26902
" />
<path d="M43883 26902
L43883 26902
" />
<path d="M42883 25902
L42883 25902
" />
<path d="M43883 25902
L43883 25902
" />
<path d="M42883 24902
L42883 24902
" />
<path d="M43883 24902
L43883 24902
" />
<path d="M42883 23902
L42883 23902
" />
<path d="M43883 23902
L43883 23902
" />
<path d="M42883 22902
L42883 22902
" />
<path d="M43883 22902
L43883 22902
" />
<path d="M42883 21902
L42883 21902
" />
<path d="M43883 21902
L43883 21902
" />
<path d="M42883 20902
L42883 20902
" />
<path d="M43883 20902
L43883 20902
" />
<path d="M42883 19902
L42883 19902
" />
<path d="M43883 19902
L43883 19902
" />
<path d="M14883 38902
L14883 38902
" />
<path d="M15883 38902
L15883 38902
" />
<path d="M14883 37902
L14883 37902
" />
<path d="M15883 37902
L15883 37902
" />
<path d="M14883 36902
L14883 36902
" />
<path d="M15883 36902
L15883 36902
" />
<path d="M14883 35902
L14883 35902
" />
<path d="M15883 35902
L15883 35902
" />
<path d="M14883 34902
L14883 34902
" />
<path d="M15883 34902
L15883 34902
" />
<path d="M14883 33902
L14883 33902
" />
<path d="M15883 33902
L15883 33902
" />
<path d="M14883 32902
L14883 32902
" />
<path d="M15883 32902
L15883 32902
" />
<path d="M14883 31902
L14883 31902
" />
<path d="M15883 31902
L15883 31902
" />
<path d="M14883 30902
L14883 30902
" />
<path d="M15883 30902
L15883 30902
" />
<path d="M14883 29902
L14883 29902
" />
<path d="M15883 29902
L15883 29902
" />
<path d="M14883 28902
L14883 28902
" />
<path d="M15883 28902
L15883 28902
" />
<path d="M14883 27902
L14883 27902
" />
<path d="M15883 27902
L15883 27902
" />
<path d="M14883 26902
L14883 26902
" />
<path d="M15883 26902
L15883 26902
" />
<path d="M14883 25902
L14883 25902
" />
<path d="M15883 25902
L15883 25902
" />
<path d="M14883 24902
L14883 24902
" />
<path d="M15883 24902
L15883 24902
" />
<path d="M14883 23902
L14883 23902
" />
<path d="M15883 23902
L15883 23902
" />
<path d="M14883 22902
L14883 22902
" />
<path d="M15883 22902
L15883 22902
" />
<path d="M14883 21902
L14883 21902
" />
<path d="M15883 21902
L15883 21902
" />
<path d="M14883 20902
L14883 20902
" />
<path d="M15883 20902
L15883 20902
" />
<path d="M14883 19902
L14883 19902
" />
<path d="M15883 19902
L15883 19902
" />
</g>
<g style="fill:#000000; fill-opacity:0.0; 
stroke:#000000; stroke-width:669.291; stroke-opacity:1; 
stroke-linecap:round; stroke-linejoin:round;">
<path d="M14354 52935
L14354 53250
" />
<path d="M15354 52935
L15354 53250
" />
<path d="M16354 52935
L16354 53250
" />
</g>
<g style="fill:#000000; fill-opacity:0.0; 
stroke:#000000; stroke-width:787.402; stroke-opacity:1; 
stroke-linecap:round; stroke-linejoin:round;">
<path d="M39055 42609
L39055 42609
" />
<path d="M39055 41609
L39055 41609
" />
</g>
<g style="fill:#000000; fill-opacity:0.0; 
stroke:#000000; stroke-width:39.3701; stroke-opacity:1; 
stroke-linecap:round; stroke-linejoin:round;">
</g>
<g style="fill:#000000; fill-opacity:1.0; 
stroke:#000000; stroke-width:39.3701; stroke-opacity:1; 
stroke-linecap:round; stroke-linejoin:round;">
<circle cx="39822.8" cy="53380.8" r="374.016" /> 
<circle cx="39822.8" cy="54380.8" r="374.016" /> 
<circle cx="43710.6" cy="54306" r="374.016" /> 
<circle cx="43710.6" cy="55306" r="374.016" /> 
<circle cx="18779.5" cy="53101.3" r="374.016" /> 
<circle cx="18779.5" cy="52101.3" r="374.016" /> 
<circle cx="12057.1" cy="53101.3" r="374.016" /> 
<circle cx="12057.1" cy="52101.3" r="374.016" /> 
</g>
<g style="fill:#000000; fill-opacity:1.0; 
stroke:#000000; stroke-width:787.402; stroke-opacity:1; 
stroke-linecap:round; stroke-linejoin:round;">
<path d="M41929 53361
L41929 53361
" />
</g>
<g style="fill:#000000; fill-opacity:1.0; 
stroke:#000000; stroke-width:39.3701; stroke-opacity:1; 
stroke-linecap:round; stroke-linejoin:round;">
<circle cx="41929.1" cy="54361.1" r="374.016" /> 
</g>
<g style="fill:#000000; fill-opacity:1.0; 
stroke:#000000; stroke-width:787.402; stroke-opacity:1; 
stroke-linecap:round; stroke-linejoin:round;">
<path d="M20836 53101
L20836 53101
" />
</g>
<g style="fill:#000000; fill-opacity:1.0; 
stroke:#000000; stroke-width:39.3701; stroke-opacity:1; 
stroke-linecap:round; stroke-linejoin:round;">
<circle cx="20836.6" cy="52101.3" r="374.016" /> 
<circle cx="11752" cy="47512.7" r="570.866" /> 
<circle cx="20846.5" cy="46174.1" r="570.866" /> 
<circle cx="38395.7" cy="31006.8" r="570.866" /> 
<circle cx="39192.9" cy="20731.2" r="570.866" /> 
<circle cx="13120.1" cy="19963.5" r="570.866" /> 
<circle cx="45728.3" cy="20701.7" r="570.866" /> 
<circle cx="23543.3" cy="51941.8" r="570.866" /> 
<circle cx="36840.6" cy="46380.8" r="570.866" /> 
</g>
<g style="fill:#000000; fill-opacity:1.0; 
stroke:#000000; stroke-width:787.402; stroke-opacity:1; 
stroke-linecap:round; stroke-linejoin:round;">
<path d="M25641 51835
L25641 51835
" />
<path d="M25641 52835
L25641 52835
" />
<path d="M26641 51835
L26641 51835
" />
<path d="M26641 52835
L26641 52835
" />
</g>
<g style="fill:#000000; fill-opacity:1.0; 
stroke:#000000; stroke-width:39.3701; stroke-opacity:1; 
stroke-linecap:round; stroke-linejoin:round;">
<circle cx="37539.4" cy="36105.2" r="570.866" /> 
<circle cx="37795.3" cy="54343.4" r="570.866" /> 
<circle cx="42690.9" cy="44800.1" r="570.866" /> 
<circle cx="44690.9" cy="44800.1" r="570.866" /> 
<circle cx="42690.9" cy="41800.1" r="570.866" /> 
<circle cx="44690.9" cy="41800.1" r="570.866" /> 
<polyline style="fill-rule:evenodd;"
points="39339,35840
38829,35840
38829,36151
39339,36151
39339,35840
" /> 
<polyline style="fill-rule:evenodd;"
points="39339,36590
38829,36590
38829,36901
39339,36901
39339,36590
" /> 
<polyline style="fill-rule:evenodd;"
points="39093,37767
39093,37257
38782,37257
38782,37767
39093,37767
" /> 
<polyline style="fill-rule:evenodd;"
points="38343,37767
38343,37257
38032,37257
38032,37767
38343,37767
" /> 
</g>
<g style="fill:#000000; fill-opacity:1.0; 
stroke:#000000; stroke-width:787.402; stroke-opacity:1; 
stroke-linecap:round; stroke-linejoin:round;">
<path d="M43387 47160
L43387 47160
" />
<path d="M43387 48160
L43387 48160
" />
<path d="M44387 47160
L44387 47160
" />
<path d="M44387 48160
L44387 48160
" />
</g>
<g style="fill:#000000; fill-opacity:1.0; 
stroke:#000000; stroke-width:314.961; stroke-opacity:1; 
stroke-linecap:round; stroke-linejoin:round;">
<path d="M12431 22601
L12431 22502
" />
<path d="M12431 22502
L13051 21882
" />
<path d="M12431 40396
L13198 41164
" />
<path d="M13218 41164
L13218 41154
" />
<path d="M13198 41164
L13218 41164
" />
<path d="M13218 41154
L25049 41154
" />
<path d="M25285 48193
L25285 41390
" />
<path d="M25285 41390
L25049 41154
" />
<path d="M14883 21902
L14864 21882
" />
<path d="M14864 21882
L13051 21882
" />
<path d="M12431 22601
L12431 40396
" />
<path d="M13484 23329
L13917 22896
" />
<path d="M14877 22896
L14883 22902
" />
<path d="M26285 40746
L25807 40268
" />
<path d="M25807 40268
L14330 40268
" />
<path d="M26285 48193
L26285 40746
" />
<path d="M13484 39461
L13484 23329
" />
<path d="M13484 39422
L13484 39451
" />
<path d="M13484 39451
L13494 39461
" />
<path d="M13494 39461
L13484 39461
" />
<path d="M14330 40268
L13484 39422
" />
<path d="M13887 22896
L14877 22896
" />
<path d="M13917 22896
L13917 22926
" />
<path d="M13917 22926
L13887 22955
" />
<path d="M13887 22955
L13887 22896
" />
<path d="M41929 54361
L42874 55305
" />
<path d="M42874 55305
L43710 55305
" />
<path d="M38187 37512
L37539 36864
" />
<path d="M37539 36864
L37539 36105
" />
<path d="M43883 19902
L43883 20902
" />
<path d="M43883 20902
L45527 20902
" />
<path d="M45527 20902
L45728 20701
" />
<path d="M36285 21193
L37285 21193
" />
<path d="M37285 21193
L37285 20193
" />
<path d="M37285 20193
L38655 20193
" />
<path d="M38655 20193
L39192 20731
" />
<path d="M23285 20193
L23285 21193
" />
<path d="M23285 21193
L24285 21193
" />
<path d="M24285 21193
L24285 20193
" />
<path d="M24285 20193
L23285 20193
" />
<path d="M20285 20193
L20275 20183
" />
<path d="M20275 20183
L20275 19028
" />
<path d="M14883 20902
L14883 19902
" />
<path d="M14883 19902
L13181 19902
" />
<path d="M13181 19902
L13120 19963
" />
<path d="M30285 49193
L31285 49193
" />
<path d="M23285 48193
L24285 48193
" />
<path d="M21285 48193
L20285 48193
" />
<path d="M20285 48193
L20285 49193
" />
<path d="M20285 49193
L21285 49193
" />
<path d="M21285 49193
L21285 48193
" />
<path d="M23285 48193
L23285 49193
" />
<path d="M23285 49193
L24285 49193
" />
<path d="M24285 49193
L24285 48193
" />
<path d="M30285 49193
L30285 48193
" />
<path d="M30285 48193
L31285 48193
" />
<path d="M31285 48193
L31285 49193
" />
<path d="M36285 49193
L37285 49193
" />
<path d="M37285 49193
L37285 48193
" />
<path d="M37285 48193
L37285 46825
" />
<path d="M37285 46825
L36840 46380
" />
<path d="M40255 35996
L40254 35995
" />
<path d="M40254 35995
L39084 35995
" />
<path d="M37539 36105
L37648 35995
" />
<path d="M37648 35995
L39084 35995
" />
<path d="M10718 49404
L10582 49404
" />
<path d="M10582 49404
L9832 48654
" />
<path d="M40255 30996
L39222 30996
" />
<path d="M39222 30996
L39124 31095
" />
<path d="M43883 29902
L44696 29902
" />
<path d="M44696 29902
L44980 29618
" />
<path d="M43883 28902
L44879 28902
" />
<path d="M44879 28902
L44980 28802
" />
<path d="M43883 27902
L44777 27902
" />
<path d="M44777 27902
L44822 27857
" />
<path d="M43883 26902
L44724 26902
" />
<path d="M44724 26902
L44734 26912
" />
<path d="M43883 25902
L44750 25902
" />
<path d="M44750 25902
L44911 25741
" />
<path d="M43883 24902
L45307 24902
" />
<path d="M45307 24902
L45324 24884
" />
<path d="M43883 23902
L44716 23902
" />
<path d="M44716 23902
L45088 24274
" />
<path d="M43883 37902
L45220 37902
" />
<path d="M45220 37902
L45236 37886
" />
<path d="M39655 28890
L38415 28890
" />
<path d="M38537 34996
L40255 34996
" />
<path d="M37165 33624
L38537 34996
" />
<path d="M37165 30140
L37165 33624
" />
<path d="M38415 28890
L37165 30140
" />
<path d="M42883 28902
L42872 28890
" />
<path d="M42872 28890
L39655 28890
" />
<path d="M40255 33996
L41025 33996
" />
<path d="M42000 29902
L42883 29902
" />
<path d="M41555 30347
L42000 29902
" />
<path d="M41555 33467
L41555 30347
" />
<path d="M41025 33996
L41555 33467
" />
<path d="M42690 41800
L42690 44800
" />
<path d="M41397 40506
L42690 41800
" />
<path d="M41397 38683
L41397 40506
" />
<path d="M42179 37902
L41397 38683
" />
<path d="M42883 37902
L42179 37902
" />
<path d="M25285 22040
L25334 22040
" />
<path d="M25334 22040
L25777 22483
" />
<path d="M25285 22040
L25285 21193
" />
<path d="M39832 22483
L39832 22512
" />
<path d="M39832 22512
L40482 23162
" />
<path d="M40482 27099
L40482 27118
" />
<path d="M40482 27118
L41220 27857
" />
<path d="M26683 22483
L25777 22483
" />
<path d="M42838 27857
L42883 27902
" />
<path d="M41220 27857
L42838 27857
" />
<path d="M40482 23162
L40482 27099
" />
<path d="M26683 22483
L39832 22483
" />
<path d="M26318 19176
L26761 18733
" />
<path d="M26285 19176
L26318 19176
" />
<path d="M26285 19176
L26285 20193
" />
<path d="M40580 18733
L40610 18733
" />
<path d="M27637 18733
L26761 18733
" />
<path d="M40580 18733
L27637 18733
" />
<path d="M42883 26902
L42864 26882
" />
<path d="M42864 26882
L41919 26882
" />
<path d="M41564 26430
L41564 19687
" />
<path d="M41564 26528
L41919 26882
" />
<path d="M41564 26430
L41564 26528
" />
<path d="M40610 18733
L41564 19687
" />
<path d="M39055 41609
L31622 41609
" />
<path d="M28285 44945
L28285 48193
" />
<path d="M31622 41609
L28285 44945
" />
</g>
<g style="fill:#000000; fill-opacity:1.0; 
stroke:#000000; stroke-width:393.701; stroke-opacity:1; 
stroke-linecap:round; stroke-linejoin:round;">
<path d="M39389 49481
L42066 49481
" />
<path d="M42066 49481
L43387 48160
" />
<path d="M39192 49284
L39389 49481
" />
<path d="M39389 49481
L39005 49481
" />
<path d="M39005 49481
L37972 50514
" />
<path d="M37972 50514
L19291 50514
" />
<path d="M19291 50514
L19285 50508
" />
<path d="M19285 50508
L19285 49193
" />
<path d="M39368 51941
L39368 52926
" />
<path d="M39368 52926
L39822 53380
" />
<path d="M41929 53361
L39842 53361
" />
<path d="M39842 53361
L39822 53380
" />
<path d="M45334 53309
L41980 53309
" />
<path d="M41980 53309
L41929 53361
" />
<path d="M39192 49284
L39192 51766
" />
<path d="M39192 51766
L39368 51941
" />
<path d="M44387 48160
L43387 48160
" />
<path d="M39074 48095
L39074 49166
" />
<path d="M39074 49166
L39192 49284
" />
<path d="M18285 49193
L19285 48193
" />
<path d="M18285 48193
L18285 49193
" />
<path d="M18285 49193
L19285 49193
" />
<path d="M19285 49193
L19285 48193
" />
<path d="M19285 48193
L18285 48193
" />
<path d="M18285 48193
L19285 49193
" />
<path d="M38937 37512
L39453 36996
" />
<path d="M39453 36996
L40255 36996
" />
<path d="M39084 36745
L39335 36996
" />
<path d="M39335 36996
L40255 36996
" />
<path d="M40255 36996
L40255 37276
" />
<path d="M38629 38902
L15883 38902
" />
<path d="M40255 37276
L38629 38902
" />
<path d="M18779 53101
L20836 53101
" />
<path d="M16354 53093
L18771 53093
" />
<path d="M18771 53093
L18779 53101
" />
<path d="M10718 50404
L16051 50404
" />
<path d="M16051 50404
L16354 50707
" />
<path d="M20836 53101
L25267 53209
" />
<path d="M25267 53209
L25641 52835
" />
<path d="M25641 52835
L25641 51835
" />
<path d="M16354 50707
L16354 53093
" />
</g>
<g style="fill:#000000; fill-opacity:1.0; 
stroke:#000000; stroke-width:314.961; stroke-opacity:1; 
stroke-linecap:round; stroke-linejoin:round;">
<path d="M43368 51941
L44966 51941
" />
<path d="M44966 51941
L45334 52309
" />
<path d="M40283 50475
L41901 50475
" />
<path d="M41901 50475
L43368 51941
" />
<path d="M39074 44095
L39074 42628
" />
<path d="M39074 42628
L39055 42609
" />
</g>
<g style="fill:#000000; fill-opacity:1.0; 
stroke:#000000; stroke-width:393.701; stroke-opacity:1; 
stroke-linecap:round; stroke-linejoin:round;">
<path d="M12057 53101
L12064 53093
" />
<path d="M12064 53093
L14354 53093
" />
<path d="M45334 54309
L45334 55829
" />
<path d="M30167 53930
L30177 53920
" />
<path d="M30177 53920
L30177 53821
" />
<path d="M32913 56676
L30167 53930
" />
<path d="M44488 56676
L32913 56676
" />
<path d="M45334 55829
L44488 56676
" />
<path d="M30177 53821
L30177 52817
" />
<path d="M43710 54305
L45330 54305
" />
<path d="M45330 54305
L45334 54309
" />
</g>
<g style="fill:#FFFFFF; fill-opacity:1.0; 
stroke:#FFFFFF; stroke-width:39.3701; stroke-opacity:1; 
stroke-linecap:round; stroke-linejoin:round;">
<circle cx="45334.6" cy="54309.9" r="118.11" /> 
<circle cx="45334.6" cy="53309.9" r="118.11" /> 
<circle cx="45334.6" cy="52309.9" r="118.11" /> 
<circle cx="33307.1" cy="52817.8" r="118.11" /> 
<circle cx="31752" cy="52817.8" r="118.11" /> 
<circle cx="34862.2" cy="52817.8" r="118.11" /> 
<circle cx="30177.2" cy="52817.8" r="118.11" /> 
<circle cx="40283.5" cy="50475.3" r="118.11" /> 
<circle cx="44283.5" cy="50475.3" r="118.11" /> 
<circle cx="39074.8" cy="48095.4" r="118.11" /> 
<circle cx="39074.8" cy="44095.4" r="118.11" /> 
<circle cx="39368.1" cy="51941.8" r="118.11" /> 
<circle cx="43368.1" cy="51941.8" r="118.11" /> 
<circle cx="10718.5" cy="50404.4" r="118.11" /> 
<circle cx="10718.5" cy="49404.4" r="118.11" /> 
<circle cx="40255.9" cy="36996.9" r="118.11" /> 
<circle cx="40255.9" cy="35996.9" r="118.11" /> 
<circle cx="40255.9" cy="34996.9" r="118.11" /> 
<circle cx="40255.9" cy="33996.9" r="118.11" /> 
<circle cx="40255.9" cy="32996.9" r="118.11" /> 
<circle cx="40255.9" cy="31996.9" r="118.11" /> 
<circle cx="40255.9" cy="30996.9" r="118.11" /> 
<circle cx="40255.9" cy="29996.9" r="118.11" /> 
<circle cx="18285.4" cy="20193.8" r="118.11" /> 
<circle cx="18285.4" cy="21193.8" r="118.11" /> 
<circle cx="19285.4" cy="20193.8" r="118.11" /> 
<circle cx="19285.4" cy="21193.8" r="118.11" /> 
<circle cx="20285.4" cy="20193.8" r="118.11" /> 
<circle cx="20285.4" cy="21193.8" r="118.11" /> 
<circle cx="21285.4" cy="20193.8" r="118.11" /> 
<circle cx="21285.4" cy="21193.8" r="118.11" /> 
<circle cx="22285.4" cy="20193.8" r="118.11" /> 
<circle cx="22285.4" cy="21193.8" r="118.11" /> 
<circle cx="23285.4" cy="20193.8" r="118.11" /> 
<circle cx="23285.4" cy="21193.8" r="118.11" /> 
<circle cx="24285.4" cy="20193.8" r="118.11" /> 
<circle cx="24285.4" cy="21193.8" r="118.11" /> 
<circle cx="25285.4" cy="20193.8" r="118.11" /> 
<circle cx="25285.4" cy="21193.8" r="118.11" /> 
<circle cx="26285.4" cy="20193.8" r="118.11" /> 
<circle cx="26285.4" cy="21193.8" r="118.11" /> 
<circle cx="27285.4" cy="20193.8" r="118.11" /> 
<circle cx="27285.4" cy="21193.8" r="118.11" /> 
<circle cx="28285.4" cy="20193.8" r="118.11" /> 
<circle cx="28285.4" cy="21193.8" r="118.11" /> 
<circle cx="29285.4" cy="20193.8" r="118.11" /> 
<circle cx="29285.4" cy="21193.8" r="118.11" /> 
<circle cx="30285.4" cy="20193.8" r="118.11" /> 
<circle cx="30285.4" cy="21193.8" r="118.11" /> 
<circle cx="31285.4" cy="20193.8" r="118.11" /> 
<circle cx="31285.4" cy="21193.8" r="118.11" /> 
<circle cx="32285.4" cy="20193.8" r="118.11" /> 
<circle cx="32285.4" cy="21193.8" r="118.11" /> 
<circle cx="33285.4" cy="20193.8" r="118.11" /> 
<circle cx="33285.4" cy="21193.8" r="118.11" /> 
<circle cx="34285.4" cy="20193.8" r="118.11" /> 
<circle cx="34285.4" cy="21193.8" r="118.11" /> 
<circle cx="35285.4" cy="20193.8" r="118.11" /> 
<circle cx="35285.4" cy="21193.8" r="118.11" /> 
<circle cx="36285.4" cy="20193.8" r="118.11" /> 
<circle cx="36285.4" cy="21193.8" r="118.11" /> 
<circle cx="37285.4" cy="20193.8" r="118.11" /> 
<circle cx="37285.4" cy="21193.8" r="118.11" /> 
<circle cx="18285.4" cy="48193.8" r="118.11" /> 
<circle cx="18285.4" cy="49193.8" r="118.11" /> 
<circle cx="19285.4" cy="48193.8" r="118.11" /> 
<circle cx="19285.4" cy="49193.8" r="118.11" /> 
<circle cx="20285.4" cy="48193.8" r="118.11" /> 
<circle cx="20285.4" cy="49193.8" r="118.11" /> 
<circle cx="21285.4" cy="48193.8" r="118.11" /> 
<circle cx="21285.4" cy="49193.8" r="118.11" /> 
<circle cx="22285.4" cy="48193.8" r="118.11" /> 
<circle cx="22285.4" cy="49193.8" r="118.11" /> 
<circle cx="23285.4" cy="48193.8" r="118.11" /> 
<circle cx="23285.4" cy="49193.8" r="118.11" /> 
<circle cx="24285.4" cy="48193.8" r="118.11" /> 
<circle cx="24285.4" cy="49193.8" r="118.11" /> 
<circle cx="25285.4" cy="48193.8" r="118.11" /> 
<circle cx="25285.4" cy="49193.8" r="118.11" /> 
<circle cx="26285.4" cy="48193.8" r="118.11" /> 
<circle cx="26285.4" cy="49193.8" r="118.11" /> 
<circle cx="27285.4" cy="48193.8" r="118.11" /> 
<circle cx="27285.4" cy="49193.8" r="118.11" /> 
<circle cx="28285.4" cy="48193.8" r="118.11" /> 
<circle cx="28285.4" cy="49193.8" r="118.11" /> 
<circle cx="29285.4" cy="48193.8" r="118.11" /> 
<circle cx="29285.4" cy="49193.8" r="118.11" /> 
<circle cx="30285.4" cy="48193.8" r="118.11" /> 
<circle cx="30285.4" cy="49193.8" r="118.11" /> 
<circle cx="31285.4" cy="48193.8" r="118.11" /> 
<circle cx="31285.4" cy="49193.8" r="118.11" /> 
<circle cx="32285.4" cy="48193.8" r="118.11" /> 
<circle cx="32285.4" cy="49193.8" r="118.11" /> 
<circle cx="33285.4" cy="48193.8" r="118.11" /> 
<circle cx="33285.4" cy="49193.8" r="118.11" /> 
<circle cx="34285.4" cy="48193.8" r="118.11" /> 
<circle cx="34285.4" cy="49193.8" r="118.11" /> 
<circle cx="35285.4" cy="48193.8" r="118.11" /> 
<circle cx="35285.4" cy="49193.8" r="118.11" /> 
<circle cx="36285.4" cy="48193.8" r="118.11" /> 
<circle cx="36285.4" cy="49193.8" r="118.11" /> 
<circle cx="37285.4" cy="48193.8" r="118.11" /> 
<circle cx="37285.4" cy="49193.8" r="118.11" /> 
<circle cx="42883.9" cy="38902.4" r="118.11" /> 
<circle cx="43883.9" cy="38902.4" r="118.11" /> 
<circle cx="42883.9" cy="37902.4" r="118.11" /> 
<circle cx="43883.9" cy="37902.4" r="118.11" /> 
<circle cx="42883.9" cy="36902.4" r="118.11" /> 
<circle cx="43883.9" cy="36902.4" r="118.11" /> 
<circle cx="42883.9" cy="35902.4" r="118.11" /> 
<circle cx="43883.9" cy="35902.4" r="118.11" /> 
<circle cx="42883.9" cy="34902.4" r="118.11" /> 
<circle cx="43883.9" cy="34902.4" r="118.11" /> 
<circle cx="42883.9" cy="33902.4" r="118.11" /> 
<circle cx="43883.9" cy="33902.4" r="118.11" /> 
<circle cx="42883.9" cy="32902.4" r="118.11" /> 
<circle cx="43883.9" cy="32902.4" r="118.11" /> 
<circle cx="42883.9" cy="31902.4" r="118.11" /> 
<circle cx="43883.9" cy="31902.4" r="118.11" /> 
<circle cx="42883.9" cy="30902.4" r="118.11" /> 
<circle cx="43883.9" cy="30902.4" r="118.11" /> 
<circle cx="42883.9" cy="29902.4" r="118.11" /> 
<circle cx="43883.9" cy="29902.4" r="118.11" /> 
<circle cx="42883.9" cy="28902.4" r="118.11" /> 
<circle cx="43883.9" cy="28902.4" r="118.11" /> 
<circle cx="42883.9" cy="27902.4" r="118.11" /> 
<circle cx="43883.9" cy="27902.4" r="118.11" /> 
<circle cx="42883.9" cy="26902.4" r="118.11" /> 
<circle cx="43883.9" cy="26902.4" r="118.11" /> 
<circle cx="42883.9" cy="25902.4" r="118.11" /> 
<circle cx="43883.9" cy="25902.4" r="118.11" /> 
<circle cx="42883.9" cy="24902.4" r="118.11" /> 
<circle cx="43883.9" cy="24902.4" r="118.11" /> 
<circle cx="42883.9" cy="23902.4" r="118.11" /> 
<circle cx="43883.9" cy="23902.4" r="118.11" /> 
<circle cx="42883.9" cy="22902.4" r="118.11" /> 
<circle cx="43883.9" cy="22902.4" r="118.11" /> 
<circle cx="42883.9" cy="21902.4" r="118.11" /> 
<circle cx="43883.9" cy="21902.4" r="118.11" /> 
<circle cx="42883.9" cy="20902.4" r="118.11" /> 
<circle cx="43883.9" cy="20902.4" r="118.11" /> 
<circle cx="42883.9" cy="19902.4" r="118.11" /> 
<circle cx="43883.9" cy="19902.4" r="118.11" /> 
<circle cx="14883.9" cy="38902.4" r="118.11" /> 
<circle cx="15883.9" cy="38902.4" r="118.11" /> 
<circle cx="14883.9" cy="37902.4" r="118.11" /> 
<circle cx="15883.9" cy="37902.4" r="118.11" /> 
<circle cx="14883.9" cy="36902.4" r="118.11" /> 
<circle cx="15883.9" cy="36902.4" r="118.11" /> 
<circle cx="14883.9" cy="35902.4" r="118.11" /> 
<circle cx="15883.9" cy="35902.4" r="118.11" /> 
<circle cx="14883.9" cy="34902.4" r="118.11" /> 
<circle cx="15883.9" cy="34902.4" r="118.11" /> 
<circle cx="14883.9" cy="33902.4" r="118.11" /> 
<circle cx="15883.9" cy="33902.4" r="118.11" /> 
<circle cx="14883.9" cy="32902.4" r="118.11" /> 
<circle cx="15883.9" cy="32902.4" r="118.11" /> 
<circle cx="14883.9" cy="31902.4" r="118.11" /> 
<circle cx="15883.9" cy="31902.4" r="118.11" /> 
<circle cx="14883.9" cy="30902.4" r="118.11" /> 
<circle cx="15883.9" cy="30902.4" r="118.11" /> 
<circle cx="14883.9" cy="29902.4" r="118.11" /> 
<circle cx="15883.9" cy="29902.4" r="118.11" /> 
<circle cx="14883.9" cy="28902.4" r="118.11" /> 
<circle cx="15883.9" cy="28902.4" r="118.11" /> 
<circle cx="14883.9" cy="27902.4" r="118.11" /> 
<circle cx="15883.9" cy="27902.4" r="118.11" /> 
<circle cx="14883.9" cy="26902.4" r="118.11" /> 
<circle cx="15883.9" cy="26902.4" r="118.11" /> 
<circle cx="14883.9" cy="25902.4" r="118.11" /> 
<circle cx="15883.9" cy="25902.4" r="118.11" /> 
<circle cx="14883.9" cy="24902.4" r="118.11" /> 
<circle cx="15883.9" cy="24902.4" r="118.11" /> 
<circle cx="14883.9" cy="23902.4" r="118.11" /> 
<circle cx="15883.9" cy="23902.4" r="118.11" /> 
<circle cx="14883.9" cy="22902.4" r="118.11" /> 
<circle cx="15883.9" cy="22902.4" r="118.11" /> 
<circle cx="14883.9" cy="21902.4" r="118.11" /> 
<circle cx="15883.9" cy="21902.4" r="118.11" /> 
<circle cx="14883.9" cy="20902.4" r="118.11" /> 
<circle cx="15883.9" cy="20902.4" r="118.11" /> 
<circle cx="14883.9" cy="19902.4" r="118.11" /> 
<circle cx="15883.9" cy="19902.4" r="118.11" /> 
<circle cx="14354.3" cy="53093.4" r="118.11" /> 
<circle cx="15354.3" cy="53093.4" r="118.11" /> 
<circle cx="16354.3" cy="53093.4" r="118.11" /> 
<circle cx="39055.1" cy="42609.1" r="118.11" /> 
<circle cx="39055.1" cy="41609.1" r="118.11" /> 
<circle cx="39822.8" cy="53380.8" r="118.11" /> 
<circle cx="39822.8" cy="54380.8" r="118.11" /> 
<circle cx="43710.6" cy="54306" r="118.11" /> 
<circle cx="43710.6" cy="55306" r="118.11" /> 
<circle cx="18779.5" cy="53101.3" r="118.11" /> 
<circle cx="18779.5" cy="52101.3" r="118.11" /> 
<circle cx="12057.1" cy="53101.3" r="118.11" /> 
<circle cx="12057.1" cy="52101.3" r="118.11" /> 
<circle cx="41929.1" cy="53361.1" r="118.11" /> 
<circle cx="41929.1" cy="54361.1" r="118.11" /> 
<circle cx="20836.6" cy="53101.3" r="118.11" /> 
<circle cx="20836.6" cy="52101.3" r="118.11" /> 
<circle cx="11752" cy="47512.7" r="118.11" /> 
<circle cx="20846.5" cy="46174.1" r="118.11" /> 
<circle cx="38395.7" cy="31006.8" r="118.11" /> 
<circle cx="39192.9" cy="20731.2" r="118.11" /> 
<circle cx="13120.1" cy="19963.5" r="118.11" /> 
<circle cx="45728.3" cy="20701.7" r="118.11" /> 
<circle cx="23543.3" cy="51941.8" r="118.11" /> 
<circle cx="36840.6" cy="46380.8" r="118.11" /> 
<circle cx="25641.7" cy="51835.5" r="118.11" /> 
<circle cx="25641.7" cy="52835.5" r="118.11" /> 
<circle cx="26641.7" cy="51835.5" r="118.11" /> 
<circle cx="26641.7" cy="52835.5" r="118.11" /> 
<circle cx="37539.4" cy="36105.2" r="118.11" /> 
<circle cx="37795.3" cy="54343.4" r="118.11" /> 
<circle cx="42690.9" cy="44800.1" r="118.11" /> 
<circle cx="44690.9" cy="44800.1" r="118.11" /> 
<circle cx="42690.9" cy="41800.1" r="118.11" /> 
<circle cx="44690.9" cy="41800.1" r="118.11" /> 
<circle cx="43387.8" cy="47160.3" r="118.11" /> 
<circle cx="43387.8" cy="48160.3" r="118.11" /> 
<circle cx="44387.8" cy="47160.3" r="118.11" /> 
<circle cx="44387.8" cy="48160.3" r="118.11" /> 
</g> 
</svg>
