<?xml version="1.0" standalone="no"?>
 <!DOCTYPE svg PUBLIC "-//W3C//DTD SVG 1.1//EN" 
 "http://www.w3.org/Graphics/SVG/1.1/DTD/svg11.dtd"> 
<svg xmlns="http://www.w3.org/2000/svg" version="1.1" 
    width="29.7002cm" height="21.0007cm" viewBox="0 0 116930 82680 ">
<title>SVG Picture created as poncho_rescatAR--brd.svg date 2015/12/02 18:51:09 </title>
  <desc>Picture generated by PCBNEW </desc>
<g style="fill:#000000; fill-opacity:1;stroke:#000000; stroke-opacity:1;
stroke-linecap:round; stroke-linejoin:round; "
 transform="translate(0 0) scale(1 1)">
</g>
<g style="fill:#000000; fill-opacity:0.0; 
stroke:#000000; stroke-width:78.7402; stroke-opacity:1; 
stroke-linecap:round; stroke-linejoin:round;">
<path d="M47263 35809
L7893 35809
" />
<path d="M47263 75180
L47263 35809
" />
<path d="M7893 75180
L47263 75180
" />
<path d="M7893 35809
L7893 75180
" />
<path d="M11299 35819
L44763 35819
" />
</g>
<g style="fill:#000000; fill-opacity:0.0; 
stroke:#000000; stroke-width:80; stroke-opacity:1; 
stroke-linecap:round; stroke-linejoin:round;">
<path d="M37713 74928
L37770 74909
L37789 74890
L37808 74852
L37808 74795
L37789 74756
L37770 74737
L37732 74718
L37579 74718
L37579 75118
L37713 75118
L37751 75099
L37770 75080
L37789 75042
L37789 75004
L37770 74966
L37751 74947
L37713 74928
L37579 74928
" />
<path d="M37960 74833
L38151 74833
" />
<path d="M37922 74718
L38055 75118
L38189 74718
" />
<path d="M38265 75118
L38494 75118
" />
<path d="M38379 74718
L38379 75118
" />
<path d="M38836 74718
L38608 74718
" />
<path d="M38722 74718
L38722 75118
L38684 75061
L38646 75023
L38608 75004
" />
<path d="M43402 66765
L43888 66765
L43945 66784
L43974 66803
L44002 66841
L44002 66917
L43974 66955
L43945 66974
L43888 66993
L43402 66993
" />
<path d="M44002 67393
L44002 67165
" />
<path d="M44002 67279
L43402 67279
L43488 67241
L43545 67203
L43574 67165
" />
<path d="M44431 69326
L44240 69326
L44240 69926
" />
<path d="M44564 69326
L44564 69926
L44697 69498
L44831 69926
L44831 69326
" />
<path d="M44983 69926
L45231 69926
L45097 69698
L45155 69698
L45193 69669
L45212 69641
L45231 69584
L45231 69441
L45212 69384
L45193 69355
L45155 69326
L45040 69326
L45002 69355
L44983 69384
" />
<path d="M45612 69326
L45383 69326
" />
<path d="M45497 69326
L45497 69926
L45459 69841
L45421 69784
L45383 69755
" />
<path d="M45745 69926
L46012 69926
L45840 69326
" />
<path d="M46107 69926
L46336 69926
" />
<path d="M46221 69326
L46221 69926
" />
<path d="M39031 62508
L38769 62341
" />
<path d="M39031 62222
L38481 62222
L38481 62412
L38507 62460
L38534 62484
L38586 62508
L38665 62508
L38717 62484
L38743 62460
L38769 62412
L38769 62222
" />
<path d="M38665 62936
L39031 62936
" />
<path d="M38455 62817
L38848 62698
L38848 63008
" />
<path d="M41137 60795
L40876 60628
" />
<path d="M41137 60509
L40587 60509
L40587 60700
L40614 60747
L40640 60771
L40692 60795
L40771 60795
L40823 60771
L40849 60747
L40876 60700
L40876 60509
" />
<path d="M41137 61271
L41137 60985
" />
<path d="M41137 61128
L40587 61128
L40666 61081
L40718 61033
L40745 60985
" />
<path d="M40330 68039
L40068 67872
" />
<path d="M40330 67753
L39780 67753
L39780 67944
L39807 67991
L39833 68015
L39885 68039
L39964 68039
L40016 68015
L40042 67991
L40068 67944
L40068 67753
" />
<path d="M39780 68491
L39780 68253
L40042 68230
L40016 68253
L39990 68301
L39990 68420
L40016 68468
L40042 68491
L40095 68515
L40226 68515
L40278 68491
L40304 68468
L40330 68420
L40330 68301
L40304 68253
L40278 68230
" />
</g>
<g style="fill:#000000; fill-opacity:0.0; 
stroke:#000000; stroke-width:47.2441; stroke-opacity:1; 
stroke-linecap:round; stroke-linejoin:round;">
<path d="M12430 67506
L12115 67506
L12115 67626
L12130 67656
L12145 67671
L12175 67686
L12220 67686
L12250 67671
L12265 67656
L12280 67626
L12280 67506
" />
<path d="M12430 67986
L12430 67806
" />
<path d="M12430 67896
L12115 67896
L12160 67866
L12190 67836
L12205 67806
" />
<path d="M9080 67109
L9080 66959
L9230 66944
L9215 66959
L9200 66989
L9200 67064
L9215 67094
L9230 67109
L9260 67124
L9335 67124
L9365 67109
L9380 67094
L9395 67064
L9395 66989
L9380 66959
L9365 66944
" />
<path d="M9080 67214
L9395 67319
L9080 67424
" />
<path d="M9425 67454
L9425 67694
" />
<path d="M9080 67829
L9080 67889
L9095 67919
L9125 67949
L9185 67964
L9290 67964
L9350 67949
L9380 67919
L9395 67889
L9395 67829
L9380 67799
L9350 67769
L9290 67754
L9185 67754
L9125 67769
L9095 67799
L9080 67829
" />
<path d="M9080 68099
L9335 68099
L9365 68114
L9380 68129
L9395 68159
L9395 68218
L9380 68248
L9365 68263
L9335 68278
L9080 68278
" />
<path d="M9080 68383
L9080 68563
" />
<path d="M9395 68473
L9080 68473
" />
</g>
<g style="fill:#000000; fill-opacity:0.0; 
stroke:#000000; stroke-width:80; stroke-opacity:1; 
stroke-linecap:round; stroke-linejoin:round;">
<path d="M41317 51036
L40917 51036
L40917 51188
L40936 51226
L40955 51245
L40993 51264
L41050 51264
L41088 51245
L41107 51226
L41126 51188
L41126 51036
" />
<path d="M40955 51417
L40936 51436
L40917 51474
L40917 51569
L40936 51607
L40955 51626
L40993 51645
L41031 51645
L41088 51626
L41317 51398
L41317 51645
" />
<path d="M26415 39904
L26396 39885
L26339 39866
L26301 39866
L26244 39885
L26206 39923
L26187 39961
L26167 40037
L26167 40095
L26187 40171
L26206 40209
L26244 40247
L26301 40266
L26339 40266
L26396 40247
L26415 40228
" />
<path d="M26663 40266
L26739 40266
L26777 40247
L26815 40209
L26834 40133
L26834 39999
L26815 39923
L26777 39885
L26739 39866
L26663 39866
L26625 39885
L26587 39923
L26567 39999
L26567 40133
L26587 40209
L26625 40247
L26663 40266
" />
<path d="M27006 39866
L27006 40266
L27234 39866
L27234 40266
" />
<path d="M27329 39828
L27634 39828
" />
<path d="M27710 39885
L27767 39866
L27863 39866
L27901 39885
L27920 39904
L27939 39942
L27939 39980
L27920 40018
L27901 40037
L27863 40056
L27787 40076
L27748 40095
L27729 40114
L27710 40152
L27710 40190
L27729 40228
L27748 40247
L27787 40266
L27882 40266
L27939 40247
" />
<path d="M28187 40266
L28263 40266
L28301 40247
L28339 40209
L28358 40133
L28358 39999
L28339 39923
L28301 39885
L28263 39866
L28187 39866
L28148 39885
L28110 39923
L28091 39999
L28091 40133
L28110 40209
L28148 40247
L28187 40266
" />
<path d="M28739 39866
L28510 39866
" />
<path d="M28625 39866
L28625 40266
L28587 40209
L28548 40171
L28510 40152
" />
<path d="M28987 40266
L29025 40266
L29063 40247
L29082 40228
L29101 40190
L29120 40114
L29120 40018
L29101 39942
L29082 39904
L29063 39885
L29025 39866
L28987 39866
L28948 39885
L28929 39904
L28910 39942
L28891 40018
L28891 40114
L28910 40190
L28929 40228
L28948 40247
L28987 40266
" />
<path d="M29501 39866
L29272 39866
" />
<path d="M29387 39866
L29387 40266
L29348 40209
L29310 40171
L29272 40152
" />
<path d="M26415 67904
L26396 67885
L26339 67866
L26301 67866
L26244 67885
L26206 67923
L26187 67961
L26167 68037
L26167 68095
L26187 68171
L26206 68209
L26244 68247
L26301 68266
L26339 68266
L26396 68247
L26415 68228
" />
<path d="M26663 68266
L26739 68266
L26777 68247
L26815 68209
L26834 68133
L26834 67999
L26815 67923
L26777 67885
L26739 67866
L26663 67866
L26625 67885
L26587 67923
L26567 67999
L26567 68133
L26587 68209
L26625 68247
L26663 68266
" />
<path d="M27006 67866
L27006 68266
L27234 67866
L27234 68266
" />
<path d="M27329 67828
L27634 67828
" />
<path d="M27710 67885
L27767 67866
L27863 67866
L27901 67885
L27920 67904
L27939 67942
L27939 67980
L27920 68018
L27901 68037
L27863 68056
L27787 68076
L27748 68095
L27729 68114
L27710 68152
L27710 68190
L27729 68228
L27748 68247
L27787 68266
L27882 68266
L27939 68247
" />
<path d="M28187 68266
L28263 68266
L28301 68247
L28339 68209
L28358 68133
L28358 67999
L28339 67923
L28301 67885
L28263 67866
L28187 67866
L28148 67885
L28110 67923
L28091 67999
L28091 68133
L28110 68209
L28148 68247
L28187 68266
" />
<path d="M28739 67866
L28510 67866
" />
<path d="M28625 67866
L28625 68266
L28587 68209
L28548 68171
L28510 68152
" />
<path d="M28987 68266
L29025 68266
L29063 68247
L29082 68228
L29101 68190
L29120 68114
L29120 68018
L29101 67942
L29082 67904
L29063 67885
L29025 67866
L28987 67866
L28948 67885
L28929 67904
L28910 67942
L28891 68018
L28891 68114
L28910 68190
L28929 68228
L28948 68247
L28987 68266
" />
<path d="M29463 68133
L29463 67866
" />
<path d="M29367 68285
L29272 67999
L29520 67999
" />
<path d="M45056 45532
L45075 45513
L45094 45456
L45094 45418
L45075 45360
L45037 45322
L44999 45303
L44923 45284
L44866 45284
L44790 45303
L44752 45322
L44714 45360
L44694 45418
L44694 45456
L44714 45513
L44733 45532
" />
<path d="M44694 45779
L44694 45856
L44714 45894
L44752 45932
L44828 45951
L44961 45951
L45037 45932
L45075 45894
L45094 45856
L45094 45779
L45075 45741
L45037 45703
L44961 45684
L44828 45684
L44752 45703
L44714 45741
L44694 45779
" />
<path d="M45094 46122
L44694 46122
L45094 46351
L44694 46351
" />
<path d="M45133 46446
L45133 46751
" />
<path d="M44885 46846
L44885 46979
" />
<path d="M45094 47037
L45094 46846
L44694 46846
L44694 47037
" />
<path d="M44942 47208
L44942 47513
" />
<path d="M45056 47932
L45075 47913
L45094 47856
L45094 47818
L45075 47760
L45037 47722
L44999 47703
L44923 47684
L44866 47684
L44790 47703
L44752 47722
L44714 47760
L44694 47818
L44694 47856
L44714 47913
L44733 47932
" />
<path d="M45094 48103
L44694 48103
" />
<path d="M44980 48275
L44980 48465
" />
<path d="M45094 48237
L44694 48370
L45094 48503
" />
<path d="M44980 48618
L44980 48808
" />
<path d="M45094 48579
L44694 48713
L45094 48846
" />
<path d="M45094 49189
L45094 48960
" />
<path d="M45094 49075
L44694 49075
L44752 49037
L44790 48998
L44809 48960
" />
<path d="M17056 45532
L17075 45513
L17094 45456
L17094 45418
L17075 45360
L17037 45322
L16999 45303
L16923 45284
L16866 45284
L16790 45303
L16752 45322
L16714 45360
L16694 45418
L16694 45456
L16714 45513
L16733 45532
" />
<path d="M16694 45779
L16694 45856
L16714 45894
L16752 45932
L16828 45951
L16961 45951
L17037 45932
L17075 45894
L17094 45856
L17094 45779
L17075 45741
L17037 45703
L16961 45684
L16828 45684
L16752 45703
L16714 45741
L16694 45779
" />
<path d="M17094 46122
L16694 46122
L17094 46351
L16694 46351
" />
<path d="M17133 46446
L17133 46751
" />
<path d="M16885 46846
L16885 46979
" />
<path d="M17094 47037
L17094 46846
L16694 46846
L16694 47037
" />
<path d="M16942 47208
L16942 47513
" />
<path d="M17056 47932
L17075 47913
L17094 47856
L17094 47818
L17075 47760
L17037 47722
L16999 47703
L16923 47684
L16866 47684
L16790 47703
L16752 47722
L16714 47760
L16694 47818
L16694 47856
L16714 47913
L16733 47932
" />
<path d="M17094 48103
L16694 48103
" />
<path d="M16980 48275
L16980 48465
" />
<path d="M17094 48237
L16694 48370
L17094 48503
" />
<path d="M16980 48618
L16980 48808
" />
<path d="M17094 48579
L16694 48713
L17094 48846
" />
<path d="M16733 48960
L16714 48979
L16694 49018
L16694 49113
L16714 49151
L16733 49170
L16771 49189
L16809 49189
L16866 49170
L17094 48941
L17094 49189
" />
<path d="M19833 74320
L19833 73834
L19852 73777
L19871 73749
L19909 73720
L19985 73720
L20023 73749
L20042 73777
L20061 73834
L20061 74320
" />
<path d="M20233 74263
L20252 74292
L20290 74320
L20385 74320
L20423 74292
L20442 74263
L20461 74206
L20461 74149
L20442 74063
L20213 73720
L20461 73720
" />
<path d="M19021 70970
L18830 70970
L18830 71570
" />
<path d="M19154 70970
L19154 71570
L19287 71142
L19421 71570
L19421 70970
" />
<path d="M19573 71570
L19840 71570
L19668 70970
" />
<path d="M20049 71313
L20011 71342
L19992 71370
L19973 71427
L19973 71456
L19992 71513
L20011 71542
L20049 71570
L20125 71570
L20163 71542
L20183 71513
L20202 71456
L20202 71427
L20183 71370
L20163 71342
L20125 71313
L20049 71313
L20011 71284
L19992 71256
L19973 71199
L19973 71084
L19992 71027
L20011 70999
L20049 70970
L20125 70970
L20163 70999
L20183 71027
L20202 71084
L20202 71199
L20183 71256
L20163 71284
L20125 71313
" />
<path d="M20449 71570
L20487 71570
L20525 71542
L20544 71513
L20563 71456
L20583 71342
L20583 71199
L20563 71084
L20544 71027
L20525 70999
L20487 70970
L20449 70970
L20411 70999
L20392 71027
L20373 71084
L20354 71199
L20354 71342
L20373 71456
L20392 71513
L20411 71542
L20449 71570
" />
<path d="M20944 71570
L20754 71570
L20735 71284
L20754 71313
L20792 71342
L20887 71342
L20925 71313
L20944 71284
L20963 71227
L20963 71084
L20944 71027
L20925 70999
L20887 70970
L20792 70970
L20754 70999
L20735 71027
" />
</g>
<g style="fill:#000000; fill-opacity:0.0; 
stroke:#000000; stroke-width:35; stroke-opacity:1; 
stroke-linecap:round; stroke-linejoin:round;">
<path d="M38586 57334
L38586 57634
L38657 57634
L38700 57620
L38729 57591
L38743 57563
L38757 57505
L38757 57463
L38743 57405
L38729 57377
L38700 57348
L38657 57334
L38586 57334
" />
<path d="M39043 57334
L38872 57334
" />
<path d="M38957 57334
L38957 57634
L38929 57591
L38900 57563
L38872 57548
" />
<path d="M39315 59434
L39172 59434
L39172 59734
" />
<path d="M39415 59591
L39515 59591
" />
<path d="M39557 59434
L39415 59434
L39415 59734
L39557 59734
" />
<path d="M39686 59434
L39686 59734
L39757 59734
L39800 59720
L39829 59691
L39843 59663
L39857 59605
L39857 59563
L39843 59505
L39829 59477
L39800 59448
L39757 59434
L39686 59434
" />
</g>
<g style="fill:#000000; fill-opacity:0.0; 
stroke:#000000; stroke-width:80; stroke-opacity:1; 
stroke-linecap:round; stroke-linejoin:round;">
<path d="M43061 69412
L43080 69393
L43099 69336
L43099 69298
L43080 69241
L43042 69203
L43004 69184
L42927 69165
L42870 69165
L42794 69184
L42756 69203
L42718 69241
L42699 69298
L42699 69336
L42718 69393
L42737 69412
" />
<path d="M42832 69755
L43099 69755
" />
<path d="M42680 69660
L42965 69565
L42965 69812
" />
<path d="M43809 66460
L43828 66441
L43847 66383
L43847 66345
L43828 66288
L43790 66250
L43752 66231
L43675 66212
L43618 66212
L43542 66231
L43504 66250
L43466 66288
L43447 66345
L43447 66383
L43466 66441
L43485 66460
" />
<path d="M43447 66593
L43447 66841
L43599 66707
L43599 66764
L43618 66803
L43637 66822
L43675 66841
L43771 66841
L43809 66822
L43828 66803
L43847 66764
L43847 66650
L43828 66612
L43809 66593
" />
<path d="M23710 71784
L23729 71765
L23748 71708
L23748 71670
L23729 71613
L23691 71575
L23653 71556
L23577 71537
L23520 71537
L23444 71556
L23406 71575
L23367 71613
L23348 71670
L23348 71708
L23367 71765
L23387 71784
" />
<path d="M23348 72127
L23348 72051
L23367 72013
L23387 71994
L23444 71956
L23520 71937
L23672 71937
L23710 71956
L23729 71975
L23748 72013
L23748 72089
L23729 72127
L23710 72146
L23672 72165
L23577 72165
L23539 72146
L23520 72127
L23501 72089
L23501 72013
L23520 71975
L23539 71956
L23577 71937
" />
<path d="M18208 71765
L18227 71746
L18246 71689
L18246 71651
L18227 71593
L18189 71555
L18151 71536
L18075 71517
L18018 71517
L17942 71536
L17904 71555
L17865 71593
L17846 71651
L17846 71689
L17865 71746
L17885 71765
" />
<path d="M17846 72127
L17846 71936
L18037 71917
L18018 71936
L17999 71974
L17999 72070
L18018 72108
L18037 72127
L18075 72146
L18170 72146
L18208 72127
L18227 72108
L18246 72070
L18246 71974
L18227 71936
L18208 71917
" />
</g>
<g style="fill:#000000; fill-opacity:0.0; 
stroke:#000000; stroke-width:50; stroke-opacity:1; 
stroke-linecap:round; stroke-linejoin:round;">
<path d="M44014 70507
L44000 70493
L43957 70478
L43929 70478
L43886 70493
L43857 70521
L43843 70550
L43829 70607
L43829 70650
L43843 70707
L43857 70735
L43886 70764
L43929 70778
L43957 70778
L44000 70764
L44014 70750
" />
<path d="M44300 70478
L44129 70478
" />
<path d="M44214 70478
L44214 70778
L44186 70735
L44157 70707
L44129 70693
" />
<path d="M43797 69479
L43654 69479
" />
<path d="M43725 69479
L43725 69779
L43701 69736
L43678 69708
L43654 69694
" />
<path d="M43951 69779
L43975 69779
L43999 69765
L44011 69751
L44023 69722
L44035 69665
L44035 69594
L44023 69536
L44011 69508
L43999 69494
L43975 69479
L43951 69479
L43928 69494
L43916 69508
L43904 69536
L43892 69594
L43892 69665
L43904 69722
L43916 69751
L43928 69765
L43951 69779
" />
<path d="M44249 69679
L44249 69479
" />
<path d="M44142 69679
L44142 69522
L44154 69494
L44178 69479
L44213 69479
L44237 69494
L44249 69508
" />
<path d="M44451 69636
L44368 69636
" />
<path d="M44368 69479
L44368 69779
L44487 69779
" />
</g>
<g style="fill:#000000; fill-opacity:0.0; 
stroke:#000000; stroke-width:80; stroke-opacity:1; 
stroke-linecap:round; stroke-linejoin:round;">
</g>
<g style="fill:#000000; fill-opacity:0.0; 
stroke:#000000; stroke-width:75; stroke-opacity:1; 
stroke-linecap:round; stroke-linejoin:round;">
<path d="M43050 70094
L43279 70094
" />
<path d="M43164 69979
L43164 70208
" />
</g>
<g style="fill:#000000; fill-opacity:0.0; 
stroke:#000000; stroke-width:80; stroke-opacity:1; 
stroke-linecap:round; stroke-linejoin:round;">
</g>
<g style="fill:#000000; fill-opacity:0.0; 
stroke:#000000; stroke-width:50; stroke-opacity:1; 
stroke-linecap:round; stroke-linejoin:round;">
<path d="M25139 71901
L25153 71887
L25167 71844
L25167 71815
L25153 71773
L25124 71744
L25096 71730
L25039 71715
L24996 71715
L24939 71730
L24910 71744
L24881 71773
L24867 71815
L24867 71844
L24881 71887
L24896 71901
" />
<path d="M24896 72015
L24881 72030
L24867 72058
L24867 72130
L24881 72158
L24896 72173
L24924 72187
L24953 72187
L24996 72173
L25167 72001
L25167 72187
" />
<path d="M24168 71683
L24168 71540
" />
<path d="M24168 71612
L23868 71612
L23911 71588
L23940 71564
L23954 71540
" />
<path d="M23868 71838
L23868 71862
L23882 71886
L23897 71898
L23925 71909
L23982 71921
L24054 71921
L24111 71909
L24140 71898
L24154 71886
L24168 71862
L24168 71838
L24154 71814
L24140 71802
L24111 71790
L24054 71779
L23982 71779
L23925 71790
L23897 71802
L23882 71814
L23868 71838
" />
<path d="M23968 72136
L24168 72136
" />
<path d="M23968 72029
L24125 72029
L24154 72040
L24168 72064
L24168 72100
L24154 72124
L24140 72136
" />
<path d="M24011 72338
L24011 72255
" />
<path d="M24168 72255
L23868 72255
L23868 72374
" />
</g>
<g style="fill:#000000; fill-opacity:0.0; 
stroke:#000000; stroke-width:80; stroke-opacity:1; 
stroke-linecap:round; stroke-linejoin:round;">
</g>
<g style="fill:#000000; fill-opacity:0.0; 
stroke:#000000; stroke-width:75; stroke-opacity:1; 
stroke-linecap:round; stroke-linejoin:round;">
<path d="M24554 72737
L24554 72965
" />
<path d="M24668 72851
L24440 72851
" />
</g>
<g style="fill:#000000; fill-opacity:0.0; 
stroke:#000000; stroke-width:80; stroke-opacity:1; 
stroke-linecap:round; stroke-linejoin:round;">
</g>
<g style="fill:#000000; fill-opacity:0.0; 
stroke:#000000; stroke-width:59.0551; stroke-opacity:1; 
stroke-linecap:round; stroke-linejoin:round;">
<path d="M38198 74471
L41427 74471
" />
<path d="M41427 74471
L41427 73290
" />
<path d="M41427 73290
L34970 73290
" />
<path d="M34970 73290
L34970 74471
" />
<path d="M34970 74471
L38198 74471
" />
</g>
<g style="fill:#000000; fill-opacity:0.0; 
stroke:#000000; stroke-width:150; stroke-opacity:1; 
stroke-linecap:round; stroke-linejoin:round;">
<path d="M45759 69069
L46009 69069
" />
<path d="M46009 69069
L46009 65069
" />
<path d="M46009 65069
L45759 65069
" />
<path d="M44259 69069
L45759 69069
" />
<path d="M45759 69069
L45759 65069
" />
<path d="M45759 65069
L44259 65069
" />
<path d="M44259 65069
L44259 69069
" />
</g>
<g style="fill:#000000; fill-opacity:0.0; 
stroke:#000000; stroke-width:120; stroke-opacity:1; 
stroke-linecap:round; stroke-linejoin:round;">
<path d="M38809 64591
L38809 64191
" />
<path d="M38809 64191
L39209 64191
" />
<path d="M39209 64191
L39209 60991
" />
<path d="M39209 60991
L38409 60991
" />
<path d="M38409 60991
L38409 64191
" />
<path d="M38409 64191
L38809 64191
" />
<path d="M39009 64191
L39209 63991
" />
<path d="M38809 60591
L38809 60991
" />
<path d="M40915 62878
L40915 62478
" />
<path d="M40915 62478
L41315 62478
" />
<path d="M41315 62478
L41315 59278
" />
<path d="M41315 59278
L40515 59278
" />
<path d="M40515 59278
L40515 62478
" />
<path d="M40515 62478
L40915 62478
" />
<path d="M41115 62478
L41315 62278
" />
<path d="M40915 58878
L40915 59278
" />
<path d="M40108 70122
L40108 69722
" />
<path d="M40108 69722
L40508 69722
" />
<path d="M40508 69722
L40508 66522
" />
<path d="M40508 66522
L39708 66522
" />
<path d="M39708 66522
L39708 69722
" />
<path d="M39708 69722
L40108 69722
" />
<path d="M40308 69722
L40508 69522
" />
<path d="M40108 66122
L40108 66522
" />
</g>
<g style="fill:#000000; fill-opacity:0.0; 
stroke:#000000; stroke-width:100; stroke-opacity:1; 
stroke-linecap:round; stroke-linejoin:round;">
<path d="M11267 66739
L11267 68739
" />
<path d="M9517 66739
L9517 68739
" />
<path d="M12017 68739
L12017 66739
" />
<path d="M12017 68739
L9517 68739
" />
<path d="M12017 66739
L9517 66739
" />
</g>
<g style="fill:#000000; fill-opacity:0.0; 
stroke:#000000; stroke-width:120; stroke-opacity:1; 
stroke-linecap:round; stroke-linejoin:round;">
<path d="M40805 54331
L39805 54331
" />
<path d="M40805 55331
L40805 47331
" />
<path d="M40805 47331
L39805 47331
" />
<path d="M39805 47331
L39805 55331
" />
<path d="M39805 55331
L40805 55331
" />
<path d="M37834 37528
L17834 37528
" />
<path d="M17834 39528
L37834 39528
" />
<path d="M17834 38528
L18834 38528
" />
<path d="M18834 38528
L18834 37528
" />
<path d="M17834 39528
L17834 37528
" />
<path d="M37834 37528
L37834 39528
" />
<path d="M37834 65528
L17834 65528
" />
<path d="M17834 67528
L37834 67528
" />
<path d="M17834 66528
L18834 66528
" />
<path d="M18834 66528
L18834 65528
" />
<path d="M17834 67528
L17834 65528
" />
<path d="M37834 65528
L37834 67528
" />
<path d="M42433 37237
L42433 57237
" />
<path d="M44433 57237
L44433 37237
" />
<path d="M43433 57237
L43433 56237
" />
<path d="M43433 56237
L42433 56237
" />
<path d="M44433 57237
L42433 57237
" />
<path d="M42433 37237
L44433 37237
" />
<path d="M14433 37237
L14433 57237
" />
<path d="M16433 57237
L16433 37237
" />
<path d="M15433 57237
L15433 56237
" />
<path d="M15433 56237
L14433 56237
" />
<path d="M16433 57237
L14433 57237
" />
<path d="M14433 37237
L16433 37237
" />
</g>
<g style="fill:#000000; fill-opacity:0.0; 
stroke:#000000; stroke-width:100; stroke-opacity:1; 
stroke-linecap:round; stroke-linejoin:round;">
<path d="M18387 73213
L18387 73463
" />
<path d="M18387 73463
L21887 73463
" />
<path d="M21887 73463
L21887 73213
" />
<path d="M18387 71713
L18387 73213
" />
<path d="M18387 73213
L21887 73213
" />
<path d="M21887 73213
L21887 71713
" />
<path d="M21887 71713
L18387 71713
" />
<path d="M38787 59055
L38787 58055
" />
</g>
<g style="fill:#000000; fill-opacity:0.0; 
stroke:#000000; stroke-width:60; stroke-opacity:1; 
stroke-linecap:round; stroke-linejoin:round;">
<path d="M40007.9 58556 A600 600 0.0 0 0 39868.8 58171.9 " />
<path d="M39856 58953.8 A599.256 599.256 0.0 0 0 40007.1 58556 " />
<path d="M38952.9 58166 A599.27 599.27 0.0 0 0 38808.6 58556 " />
<path d="M38807.9 58556 A600 600 0.0 0 0 38946.9 58940.1 " />
<path d="M39407.9 57956 A600 600 0.0 0 0 38920 58206.7 " />
<path d="M39887.7 58195.7 A600 600 0.0 0 0 39407.9 57956 " />
<path d="M38935 58924.1 A599.294 599.294 0.0 0 0 39407.9 59155.3 " />
<path d="M39407.9 59156 A600 600 0.0 0 0 39881.3 58924.6 " />
<path d="M39657.9 58556 A250 250 0.0 0 0 39407.9 58306 " />
<path d="M39807.9 58556 A400 400 0.0 0 0 39407.9 58156 " />
<path d="M39157.9 58556 A250 250 0.0 0 0 39407.9 58806 " />
<path d="M39007.9 58556 A400 400 0.0 0 0 39407.9 58956 " />
</g>
<g style="fill:#000000; fill-opacity:0.0; 
stroke:#000000; stroke-width:100; stroke-opacity:1; 
stroke-linecap:round; stroke-linejoin:round;">
<path d="M39407.9 57756 A800 800 0.0 0 0 38794.1 58042.8 " />
<path d="M40112.7 58179.6 A799 799 0.0 0 0 39407.9 57757 " />
<path d="M38797.6 59071.7 A798.972 798.972 0.0 0 0 39406.5 59355 " />
<path d="M39407.9 59356 A800 800 0.0 0 0 40102.1 58953.6 " />
<path d="M40207.9 58556 A800 800 0.0 0 0 40112.3 58176.7 " />
<path d="M40088.9 58975 A799.576 799.576 0.0 0 0 40207.4 58556 " />
</g>
<g style="fill:#000000; fill-opacity:0.0; 
stroke:#000000; stroke-width:120; stroke-opacity:1; 
stroke-linecap:round; stroke-linejoin:round;">
<path d="M42537 70559
L42537 68579
" />
<path d="M42537 68579
L41537 68579
" />
<path d="M41537 68579
L41537 70579
" />
<path d="M41537 70579
L42537 70579
" />
<path d="M42287 70579
L42537 70329
" />
<path d="M43285 67606
L43285 65626
" />
<path d="M43285 65626
L42285 65626
" />
<path d="M42285 65626
L42285 67626
" />
<path d="M42285 67626
L43285 67626
" />
<path d="M43035 67626
L43285 67376
" />
<path d="M23187 72931
L23187 70951
" />
<path d="M23187 70951
L22187 70951
" />
<path d="M22187 70951
L22187 72951
" />
<path d="M22187 72951
L23187 72951
" />
<path d="M22937 72951
L23187 72701
" />
<path d="M17685 72911
L17685 70931
" />
<path d="M17685 70931
L16685 70931
" />
<path d="M16685 70931
L16685 72931
" />
<path d="M16685 72931
L17685 72931
" />
<path d="M17435 72931
L17685 72681
" />
</g>
<g style="fill:#000000; fill-opacity:0.0; 
stroke:#000000; stroke-width:50; stroke-opacity:1; 
stroke-linecap:round; stroke-linejoin:round;">
<circle cx="44065" cy="70101.3" r="1001.25" /> 
<circle cx="24547.2" cy="71951.7" r="1001.25" /> 
</g>
<g style="fill:#000000; fill-opacity:0.0; 
stroke:#000000; stroke-width:787.402; stroke-opacity:1; 
stroke-linecap:round; stroke-linejoin:round;">
<path d="M38976 73880
L38976 73880
" />
<path d="M37421 73880
L37421 73880
" />
<path d="M40531 73880
L40531 73880
" />
<path d="M35846 73880
L35846 73880
" />
</g>
<g style="fill:#000000; fill-opacity:0.0; 
stroke:#000000; stroke-width:669.291; stroke-opacity:1; 
stroke-linecap:round; stroke-linejoin:round;">
<path d="M44852 68069
L45167 68069
" />
<path d="M44852 67069
L45167 67069
" />
<path d="M44852 66069
L45167 66069
" />
</g>
<g style="fill:#000000; fill-opacity:0.0; 
stroke:#000000; stroke-width:787.402; stroke-opacity:1; 
stroke-linecap:round; stroke-linejoin:round;">
<path d="M38809 64591
L38809 64591
" />
<path d="M38809 60591
L38809 60591
" />
<path d="M40915 62878
L40915 62878
" />
<path d="M40915 58878
L40915 58878
" />
<path d="M40108 70122
L40108 70122
" />
<path d="M40108 66122
L40108 66122
" />
<path d="M10767 68239
L10767 68239
" />
<path d="M10767 67239
L10767 67239
" />
<path d="M40305 54831
L40305 54831
" />
<path d="M40305 53831
L40305 53831
" />
<path d="M40305 52831
L40305 52831
" />
<path d="M40305 51831
L40305 51831
" />
<path d="M40305 50831
L40305 50831
" />
<path d="M40305 49831
L40305 49831
" />
<path d="M40305 48831
L40305 48831
" />
<path d="M40305 47831
L40305 47831
" />
<path d="M18334 38028
L18334 38028
" />
<path d="M18334 39028
L18334 39028
" />
<path d="M19334 38028
L19334 38028
" />
<path d="M19334 39028
L19334 39028
" />
<path d="M20334 38028
L20334 38028
" />
<path d="M20334 39028
L20334 39028
" />
<path d="M21334 38028
L21334 38028
" />
<path d="M21334 39028
L21334 39028
" />
<path d="M22334 38028
L22334 38028
" />
<path d="M22334 39028
L22334 39028
" />
<path d="M23334 38028
L23334 38028
" />
<path d="M23334 39028
L23334 39028
" />
<path d="M24334 38028
L24334 38028
" />
<path d="M24334 39028
L24334 39028
" />
<path d="M25334 38028
L25334 38028
" />
<path d="M25334 39028
L25334 39028
" />
<path d="M26334 38028
L26334 38028
" />
<path d="M26334 39028
L26334 39028
" />
<path d="M27334 38028
L27334 38028
" />
<path d="M27334 39028
L27334 39028
" />
<path d="M28334 38028
L28334 38028
" />
<path d="M28334 39028
L28334 39028
" />
<path d="M29334 38028
L29334 38028
" />
<path d="M29334 39028
L29334 39028
" />
<path d="M30334 38028
L30334 38028
" />
<path d="M30334 39028
L30334 39028
" />
<path d="M31334 38028
L31334 38028
" />
<path d="M31334 39028
L31334 39028
" />
<path d="M32334 38028
L32334 38028
" />
<path d="M32334 39028
L32334 39028
" />
<path d="M33334 38028
L33334 38028
" />
<path d="M33334 39028
L33334 39028
" />
<path d="M34334 38028
L34334 38028
" />
<path d="M34334 39028
L34334 39028
" />
<path d="M35334 38028
L35334 38028
" />
<path d="M35334 39028
L35334 39028
" />
<path d="M36334 38028
L36334 38028
" />
<path d="M36334 39028
L36334 39028
" />
<path d="M37334 38028
L37334 38028
" />
<path d="M37334 39028
L37334 39028
" />
<path d="M18334 66028
L18334 66028
" />
<path d="M18334 67028
L18334 67028
" />
<path d="M19334 66028
L19334 66028
" />
<path d="M19334 67028
L19334 67028
" />
<path d="M20334 66028
L20334 66028
" />
<path d="M20334 67028
L20334 67028
" />
<path d="M21334 66028
L21334 66028
" />
<path d="M21334 67028
L21334 67028
" />
<path d="M22334 66028
L22334 66028
" />
<path d="M22334 67028
L22334 67028
" />
<path d="M23334 66028
L23334 66028
" />
<path d="M23334 67028
L23334 67028
" />
<path d="M24334 66028
L24334 66028
" />
<path d="M24334 67028
L24334 67028
" />
<path d="M25334 66028
L25334 66028
" />
<path d="M25334 67028
L25334 67028
" />
<path d="M26334 66028
L26334 66028
" />
<path d="M26334 67028
L26334 67028
" />
<path d="M27334 66028
L27334 66028
" />
<path d="M27334 67028
L27334 67028
" />
<path d="M28334 66028
L28334 66028
" />
<path d="M28334 67028
L28334 67028
" />
<path d="M29334 66028
L29334 66028
" />
<path d="M29334 67028
L29334 67028
" />
<path d="M30334 66028
L30334 66028
" />
<path d="M30334 67028
L30334 67028
" />
<path d="M31334 66028
L31334 66028
" />
<path d="M31334 67028
L31334 67028
" />
<path d="M32334 66028
L32334 66028
" />
<path d="M32334 67028
L32334 67028
" />
<path d="M33334 66028
L33334 66028
" />
<path d="M33334 67028
L33334 67028
" />
<path d="M34334 66028
L34334 66028
" />
<path d="M34334 67028
L34334 67028
" />
<path d="M35334 66028
L35334 66028
" />
<path d="M35334 67028
L35334 67028
" />
<path d="M36334 66028
L36334 66028
" />
<path d="M36334 67028
L36334 67028
" />
<path d="M37334 66028
L37334 66028
" />
<path d="M37334 67028
L37334 67028
" />
<path d="M42933 56737
L42933 56737
" />
<path d="M43933 56737
L43933 56737
" />
<path d="M42933 55737
L42933 55737
" />
<path d="M43933 55737
L43933 55737
" />
<path d="M42933 54737
L42933 54737
" />
<path d="M43933 54737
L43933 54737
" />
<path d="M42933 53737
L42933 53737
" />
<path d="M43933 53737
L43933 53737
" />
<path d="M42933 52737
L42933 52737
" />
<path d="M43933 52737
L43933 52737
" />
<path d="M42933 51737
L42933 51737
" />
<path d="M43933 51737
L43933 51737
" />
<path d="M42933 50737
L42933 50737
" />
<path d="M43933 50737
L43933 50737
" />
<path d="M42933 49737
L42933 49737
" />
<path d="M43933 49737
L43933 49737
" />
<path d="M42933 48737
L42933 48737
" />
<path d="M43933 48737
L43933 48737
" />
<path d="M42933 47737
L42933 47737
" />
<path d="M43933 47737
L43933 47737
" />
<path d="M42933 46737
L42933 46737
" />
<path d="M43933 46737
L43933 46737
" />
<path d="M42933 45737
L42933 45737
" />
<path d="M43933 45737
L43933 45737
" />
<path d="M42933 44737
L42933 44737
" />
<path d="M43933 44737
L43933 44737
" />
<path d="M42933 43737
L42933 43737
" />
<path d="M43933 43737
L43933 43737
" />
<path d="M42933 42737
L42933 42737
" />
<path d="M43933 42737
L43933 42737
" />
<path d="M42933 41737
L42933 41737
" />
<path d="M43933 41737
L43933 41737
" />
<path d="M42933 40737
L42933 40737
" />
<path d="M43933 40737
L43933 40737
" />
<path d="M42933 39737
L42933 39737
" />
<path d="M43933 39737
L43933 39737
" />
<path d="M42933 38737
L42933 38737
" />
<path d="M43933 38737
L43933 38737
" />
<path d="M42933 37737
L42933 37737
" />
<path d="M43933 37737
L43933 37737
" />
<path d="M14933 56737
L14933 56737
" />
<path d="M15933 56737
L15933 56737
" />
<path d="M14933 55737
L14933 55737
" />
<path d="M15933 55737
L15933 55737
" />
<path d="M14933 54737
L14933 54737
" />
<path d="M15933 54737
L15933 54737
" />
<path d="M14933 53737
L14933 53737
" />
<path d="M15933 53737
L15933 53737
" />
<path d="M14933 52737
L14933 52737
" />
<path d="M15933 52737
L15933 52737
" />
<path d="M14933 51737
L14933 51737
" />
<path d="M15933 51737
L15933 51737
" />
<path d="M14933 50737
L14933 50737
" />
<path d="M15933 50737
L15933 50737
" />
<path d="M14933 49737
L14933 49737
" />
<path d="M15933 49737
L15933 49737
" />
<path d="M14933 48737
L14933 48737
" />
<path d="M15933 48737
L15933 48737
" />
<path d="M14933 47737
L14933 47737
" />
<path d="M15933 47737
L15933 47737
" />
<path d="M14933 46737
L14933 46737
" />
<path d="M15933 46737
L15933 46737
" />
<path d="M14933 45737
L14933 45737
" />
<path d="M15933 45737
L15933 45737
" />
<path d="M14933 44737
L14933 44737
" />
<path d="M15933 44737
L15933 44737
" />
<path d="M14933 43737
L14933 43737
" />
<path d="M15933 43737
L15933 43737
" />
<path d="M14933 42737
L14933 42737
" />
<path d="M15933 42737
L15933 42737
" />
<path d="M14933 41737
L14933 41737
" />
<path d="M15933 41737
L15933 41737
" />
<path d="M14933 40737
L14933 40737
" />
<path d="M15933 40737
L15933 40737
" />
<path d="M14933 39737
L14933 39737
" />
<path d="M15933 39737
L15933 39737
" />
<path d="M14933 38737
L14933 38737
" />
<path d="M15933 38737
L15933 38737
" />
<path d="M14933 37737
L14933 37737
" />
<path d="M15933 37737
L15933 37737
" />
</g>
<g style="fill:#000000; fill-opacity:0.0; 
stroke:#000000; stroke-width:669.291; stroke-opacity:1; 
stroke-linecap:round; stroke-linejoin:round;">
<path d="M19137 72305
L19137 72620
" />
<path d="M20137 72305
L20137 72620
" />
<path d="M21137 72305
L21137 72620
" />
</g>
<g style="fill:#000000; fill-opacity:0.0; 
stroke:#000000; stroke-width:787.402; stroke-opacity:1; 
stroke-linecap:round; stroke-linejoin:round;">
<path d="M40007 58555
L40007 58555
" />
<path d="M39007 58555
L39007 58555
" />
</g>
<g style="fill:#000000; fill-opacity:0.0; 
stroke:#000000; stroke-width:39.3701; stroke-opacity:1; 
stroke-linecap:round; stroke-linejoin:round;">
</g>
<g style="fill:#000000; fill-opacity:1.0; 
stroke:#000000; stroke-width:39.3701; stroke-opacity:1; 
stroke-linecap:round; stroke-linejoin:round;">
<circle cx="42037.4" cy="70079.6" r="374.016" /> 
<circle cx="42037.4" cy="69079.6" r="374.016" /> 
<circle cx="42785.4" cy="67126.9" r="374.016" /> 
<circle cx="42785.4" cy="66126.9" r="374.016" /> 
<circle cx="22687" cy="72451.7" r="374.016" /> 
<circle cx="22687" cy="71451.7" r="374.016" /> 
<circle cx="17185" cy="72432" r="374.016" /> 
<circle cx="17185" cy="71432" r="374.016" /> 
</g>
<g style="fill:#000000; fill-opacity:1.0; 
stroke:#000000; stroke-width:787.402; stroke-opacity:1; 
stroke-linecap:round; stroke-linejoin:round;">
<path d="M43564 70101
L43564 70101
" />
</g>
<g style="fill:#000000; fill-opacity:1.0; 
stroke:#000000; stroke-width:39.3701; stroke-opacity:1; 
stroke-linecap:round; stroke-linejoin:round;">
<circle cx="44565" cy="70101.3" r="374.016" /> 
</g>
<g style="fill:#000000; fill-opacity:1.0; 
stroke:#000000; stroke-width:787.402; stroke-opacity:1; 
stroke-linecap:round; stroke-linejoin:round;">
<path d="M24547 72451
L24547 72451
" />
</g>
<g style="fill:#000000; fill-opacity:1.0; 
stroke:#000000; stroke-width:39.3701; stroke-opacity:1; 
stroke-linecap:round; stroke-linejoin:round;">
<circle cx="24547.2" cy="71451.7" r="374.016" /> 
</g>
<g style="fill:#000000; fill-opacity:1.0; 
stroke:#000000; stroke-width:314.961; stroke-opacity:1; 
stroke-linecap:round; stroke-linejoin:round;">
<path d="M25334 66028
L25334 59225
" />
<path d="M25334 59225
L25098 58989
" />
<path d="M14933 39737
L14913 39717
" />
<path d="M12480 58989
L25098 58989
" />
<path d="M12480 39717
L12480 58989
" />
<path d="M14913 39717
L12480 39717
" />
<path d="M26334 66028
L26334 58581
" />
<path d="M26334 58581
L25856 58103
" />
<path d="M14927 40731
L14933 40737
" />
<path d="M13533 40731
L14927 40731
" />
<path d="M13533 58103
L13533 40731
" />
<path d="M25856 58103
L13533 58103
" />
<path d="M42933 46737
L42921 46725
" />
<path d="M40271 52798
L40305 52831
" />
<path d="M39035 52798
L40271 52798
" />
<path d="M39035 46725
L39035 52798
" />
<path d="M42921 46725
L39035 46725
" />
<path d="M40305 51831
L40356 51882
" />
<path d="M42921 47748
L42933 47737
" />
<path d="M41437 47748
L42921 47748
" />
<path d="M41437 51882
L41437 47748
" />
<path d="M40356 51882
L41437 51882
" />
<path d="M26732 40317
L25354 40317
" />
<path d="M25334 40298
L25334 39028
" />
<path d="M25354 40317
L25334 40298
" />
<path d="M42887 45691
L42933 45737
" />
<path d="M40531 45691
L42887 45691
" />
<path d="M40531 40317
L40531 45691
" />
<path d="M26732 40317
L40531 40317
" />
<path d="M27687 36567
L26358 36567
" />
<path d="M26334 36591
L26334 38028
" />
<path d="M26358 36567
L26334 36591
" />
<path d="M41614 36567
L27687 36567
" />
<path d="M41614 44717
L41614 36567
" />
<path d="M42913 44717
L41614 44717
" />
<path d="M42933 44737
L42913 44717
" />
<path d="M28334 66028
L28334 64453
" />
<path d="M34232 58555
L39007 58555
" />
<path d="M28334 64453
L34232 58555
" />
</g>
<g style="fill:#000000; fill-opacity:1.0; 
stroke:#000000; stroke-width:393.701; stroke-opacity:1; 
stroke-linecap:round; stroke-linejoin:round;">
<path d="M45009 68069
L46293 68069
" />
<path d="M45356 62878
L40915 62878
" />
<path d="M46692 64215
L45356 62878
" />
<path d="M46692 67670
L46692 64215
" />
<path d="M46293 68069
L46692 67670
" />
<path d="M43891 68069
L45009 68069
" />
<path d="M43564 68396
L43891 68069
" />
<path d="M43564 70101
L43564 68396
" />
<path d="M40108 70122
L41994 70122
" />
<path d="M41994 70122
L42037 70079
" />
<path d="M18334 67028
L19334 66028
" />
<path d="M18334 66028
L18334 67028
" />
<path d="M18334 67028
L19334 67028
" />
<path d="M19334 67028
L19334 66028
" />
<path d="M19334 66028
L18334 66028
" />
<path d="M18334 66028
L19334 67028
" />
</g>
<g style="fill:#000000; fill-opacity:1.0; 
stroke:#000000; stroke-width:314.961; stroke-opacity:1; 
stroke-linecap:round; stroke-linejoin:round;">
<path d="M40305 54831
L40305 55987
" />
<path d="M43933 57713
L43933 56737
" />
<path d="M43927 57719
L43933 57713
" />
<path d="M42037 57719
L43927 57719
" />
<path d="M40305 55987
L42037 57719
" />
<path d="M40007 58555
L40592 58555
" />
<path d="M40592 58555
L40915 58878
" />
<path d="M43531 64591
L45009 66069
" />
<path d="M38809 64591
L43531 64591
" />
<path d="M40108 65890
L38809 64591
" />
<path d="M40108 66122
L40108 65890
" />
</g>
<g style="fill:#000000; fill-opacity:1.0; 
stroke:#000000; stroke-width:393.701; stroke-opacity:1; 
stroke-linecap:round; stroke-linejoin:round;">
<path d="M21137 72463
L22675 72463
" />
<path d="M22675 72463
L22687 72451
" />
<path d="M24547 72451
L22687 72451
" />
<path d="M10767 68239
L16415 68239
" />
<path d="M21137 70638
L21137 72463
" />
<path d="M20196 69697
L21137 70638
" />
<path d="M17874 69697
L20196 69697
" />
<path d="M16415 68239
L17874 69697
" />
<path d="M17185 72431
L17185 73516
" />
<path d="M17549 73880
L35846 73880
" />
<path d="M17185 73516
L17549 73880
" />
<path d="M42785 67126
L44952 67126
" />
<path d="M44952 67126
L45009 67069
" />
<path d="M42785 67126
L42596 67130
" />
<path d="M42596 67130
L42175 67552
" />
<path d="M42175 67552
L39330 67552
" />
<path d="M39330 67552
L35846 71036
" />
<path d="M35846 71036
L35846 73880
" />
<path d="M19137 72463
L17216 72463
" />
<path d="M17216 72463
L17185 72431
" />
</g>
<g style="fill:#FFFFFF; fill-opacity:1.0; 
stroke:#FFFFFF; stroke-width:39.3701; stroke-opacity:1; 
stroke-linecap:round; stroke-linejoin:round;">
<circle cx="38976.4" cy="73880.8" r="118.11" /> 
<circle cx="37421.3" cy="73880.8" r="118.11" /> 
<circle cx="40531.5" cy="73880.8" r="118.11" /> 
<circle cx="35846.5" cy="73880.8" r="118.11" /> 
<circle cx="45009.8" cy="68069.8" r="118.11" /> 
<circle cx="45009.8" cy="67069.8" r="118.11" /> 
<circle cx="45009.8" cy="66069.8" r="118.11" /> 
<circle cx="38809.1" cy="64591.4" r="118.11" /> 
<circle cx="38809.1" cy="60591.4" r="118.11" /> 
<circle cx="40915.4" cy="62878.8" r="118.11" /> 
<circle cx="40915.4" cy="58878.8" r="118.11" /> 
<circle cx="40108.3" cy="70122.9" r="118.11" /> 
<circle cx="40108.3" cy="66122.9" r="118.11" /> 
<circle cx="10767.7" cy="68239.1" r="118.11" /> 
<circle cx="10767.7" cy="67239.1" r="118.11" /> 
<circle cx="40305.1" cy="54831.6" r="118.11" /> 
<circle cx="40305.1" cy="53831.6" r="118.11" /> 
<circle cx="40305.1" cy="52831.6" r="118.11" /> 
<circle cx="40305.1" cy="51831.6" r="118.11" /> 
<circle cx="40305.1" cy="50831.6" r="118.11" /> 
<circle cx="40305.1" cy="49831.6" r="118.11" /> 
<circle cx="40305.1" cy="48831.6" r="118.11" /> 
<circle cx="40305.1" cy="47831.6" r="118.11" /> 
<circle cx="18334.6" cy="38028.4" r="118.11" /> 
<circle cx="18334.6" cy="39028.4" r="118.11" /> 
<circle cx="19334.6" cy="38028.4" r="118.11" /> 
<circle cx="19334.6" cy="39028.4" r="118.11" /> 
<circle cx="20334.6" cy="38028.4" r="118.11" /> 
<circle cx="20334.6" cy="39028.4" r="118.11" /> 
<circle cx="21334.6" cy="38028.4" r="118.11" /> 
<circle cx="21334.6" cy="39028.4" r="118.11" /> 
<circle cx="22334.6" cy="38028.4" r="118.11" /> 
<circle cx="22334.6" cy="39028.4" r="118.11" /> 
<circle cx="23334.6" cy="38028.4" r="118.11" /> 
<circle cx="23334.6" cy="39028.4" r="118.11" /> 
<circle cx="24334.6" cy="38028.4" r="118.11" /> 
<circle cx="24334.6" cy="39028.4" r="118.11" /> 
<circle cx="25334.6" cy="38028.4" r="118.11" /> 
<circle cx="25334.6" cy="39028.4" r="118.11" /> 
<circle cx="26334.6" cy="38028.4" r="118.11" /> 
<circle cx="26334.6" cy="39028.4" r="118.11" /> 
<circle cx="27334.6" cy="38028.4" r="118.11" /> 
<circle cx="27334.6" cy="39028.4" r="118.11" /> 
<circle cx="28334.6" cy="38028.4" r="118.11" /> 
<circle cx="28334.6" cy="39028.4" r="118.11" /> 
<circle cx="29334.6" cy="38028.4" r="118.11" /> 
<circle cx="29334.6" cy="39028.4" r="118.11" /> 
<circle cx="30334.6" cy="38028.4" r="118.11" /> 
<circle cx="30334.6" cy="39028.4" r="118.11" /> 
<circle cx="31334.6" cy="38028.4" r="118.11" /> 
<circle cx="31334.6" cy="39028.4" r="118.11" /> 
<circle cx="32334.6" cy="38028.4" r="118.11" /> 
<circle cx="32334.6" cy="39028.4" r="118.11" /> 
<circle cx="33334.6" cy="38028.4" r="118.11" /> 
<circle cx="33334.6" cy="39028.4" r="118.11" /> 
<circle cx="34334.6" cy="38028.4" r="118.11" /> 
<circle cx="34334.6" cy="39028.4" r="118.11" /> 
<circle cx="35334.6" cy="38028.4" r="118.11" /> 
<circle cx="35334.6" cy="39028.4" r="118.11" /> 
<circle cx="36334.6" cy="38028.4" r="118.11" /> 
<circle cx="36334.6" cy="39028.4" r="118.11" /> 
<circle cx="37334.6" cy="38028.4" r="118.11" /> 
<circle cx="37334.6" cy="39028.4" r="118.11" /> 
<circle cx="18334.6" cy="66028.4" r="118.11" /> 
<circle cx="18334.6" cy="67028.4" r="118.11" /> 
<circle cx="19334.6" cy="66028.4" r="118.11" /> 
<circle cx="19334.6" cy="67028.4" r="118.11" /> 
<circle cx="20334.6" cy="66028.4" r="118.11" /> 
<circle cx="20334.6" cy="67028.4" r="118.11" /> 
<circle cx="21334.6" cy="66028.4" r="118.11" /> 
<circle cx="21334.6" cy="67028.4" r="118.11" /> 
<circle cx="22334.6" cy="66028.4" r="118.11" /> 
<circle cx="22334.6" cy="67028.4" r="118.11" /> 
<circle cx="23334.6" cy="66028.4" r="118.11" /> 
<circle cx="23334.6" cy="67028.4" r="118.11" /> 
<circle cx="24334.6" cy="66028.4" r="118.11" /> 
<circle cx="24334.6" cy="67028.4" r="118.11" /> 
<circle cx="25334.6" cy="66028.4" r="118.11" /> 
<circle cx="25334.6" cy="67028.4" r="118.11" /> 
<circle cx="26334.6" cy="66028.4" r="118.11" /> 
<circle cx="26334.6" cy="67028.4" r="118.11" /> 
<circle cx="27334.6" cy="66028.4" r="118.11" /> 
<circle cx="27334.6" cy="67028.4" r="118.11" /> 
<circle cx="28334.6" cy="66028.4" r="118.11" /> 
<circle cx="28334.6" cy="67028.4" r="118.11" /> 
<circle cx="29334.6" cy="66028.4" r="118.11" /> 
<circle cx="29334.6" cy="67028.4" r="118.11" /> 
<circle cx="30334.6" cy="66028.4" r="118.11" /> 
<circle cx="30334.6" cy="67028.4" r="118.11" /> 
<circle cx="31334.6" cy="66028.4" r="118.11" /> 
<circle cx="31334.6" cy="67028.4" r="118.11" /> 
<circle cx="32334.6" cy="66028.4" r="118.11" /> 
<circle cx="32334.6" cy="67028.4" r="118.11" /> 
<circle cx="33334.6" cy="66028.4" r="118.11" /> 
<circle cx="33334.6" cy="67028.4" r="118.11" /> 
<circle cx="34334.6" cy="66028.4" r="118.11" /> 
<circle cx="34334.6" cy="67028.4" r="118.11" /> 
<circle cx="35334.6" cy="66028.4" r="118.11" /> 
<circle cx="35334.6" cy="67028.4" r="118.11" /> 
<circle cx="36334.6" cy="66028.4" r="118.11" /> 
<circle cx="36334.6" cy="67028.4" r="118.11" /> 
<circle cx="37334.6" cy="66028.4" r="118.11" /> 
<circle cx="37334.6" cy="67028.4" r="118.11" /> 
<circle cx="42933.1" cy="56737.1" r="118.11" /> 
<circle cx="43933.1" cy="56737.1" r="118.11" /> 
<circle cx="42933.1" cy="55737.1" r="118.11" /> 
<circle cx="43933.1" cy="55737.1" r="118.11" /> 
<circle cx="42933.1" cy="54737.1" r="118.11" /> 
<circle cx="43933.1" cy="54737.1" r="118.11" /> 
<circle cx="42933.1" cy="53737.1" r="118.11" /> 
<circle cx="43933.1" cy="53737.1" r="118.11" /> 
<circle cx="42933.1" cy="52737.1" r="118.11" /> 
<circle cx="43933.1" cy="52737.1" r="118.11" /> 
<circle cx="42933.1" cy="51737.1" r="118.11" /> 
<circle cx="43933.1" cy="51737.1" r="118.11" /> 
<circle cx="42933.1" cy="50737.1" r="118.11" /> 
<circle cx="43933.1" cy="50737.1" r="118.11" /> 
<circle cx="42933.1" cy="49737.1" r="118.11" /> 
<circle cx="43933.1" cy="49737.1" r="118.11" /> 
<circle cx="42933.1" cy="48737.1" r="118.11" /> 
<circle cx="43933.1" cy="48737.1" r="118.11" /> 
<circle cx="42933.1" cy="47737.1" r="118.11" /> 
<circle cx="43933.1" cy="47737.1" r="118.11" /> 
<circle cx="42933.1" cy="46737.1" r="118.11" /> 
<circle cx="43933.1" cy="46737.1" r="118.11" /> 
<circle cx="42933.1" cy="45737.1" r="118.11" /> 
<circle cx="43933.1" cy="45737.1" r="118.11" /> 
<circle cx="42933.1" cy="44737.1" r="118.11" /> 
<circle cx="43933.1" cy="44737.1" r="118.11" /> 
<circle cx="42933.1" cy="43737.1" r="118.11" /> 
<circle cx="43933.1" cy="43737.1" r="118.11" /> 
<circle cx="42933.1" cy="42737.1" r="118.11" /> 
<circle cx="43933.1" cy="42737.1" r="118.11" /> 
<circle cx="42933.1" cy="41737.1" r="118.11" /> 
<circle cx="43933.1" cy="41737.1" r="118.11" /> 
<circle cx="42933.1" cy="40737.1" r="118.11" /> 
<circle cx="43933.1" cy="40737.1" r="118.11" /> 
<circle cx="42933.1" cy="39737.1" r="118.11" /> 
<circle cx="43933.1" cy="39737.1" r="118.11" /> 
<circle cx="42933.1" cy="38737.1" r="118.11" /> 
<circle cx="43933.1" cy="38737.1" r="118.11" /> 
<circle cx="42933.1" cy="37737.1" r="118.11" /> 
<circle cx="43933.1" cy="37737.1" r="118.11" /> 
<circle cx="14933.1" cy="56737.1" r="118.11" /> 
<circle cx="15933.1" cy="56737.1" r="118.11" /> 
<circle cx="14933.1" cy="55737.1" r="118.11" /> 
<circle cx="15933.1" cy="55737.1" r="118.11" /> 
<circle cx="14933.1" cy="54737.1" r="118.11" /> 
<circle cx="15933.1" cy="54737.1" r="118.11" /> 
<circle cx="14933.1" cy="53737.1" r="118.11" /> 
<circle cx="15933.1" cy="53737.1" r="118.11" /> 
<circle cx="14933.1" cy="52737.1" r="118.11" /> 
<circle cx="15933.1" cy="52737.1" r="118.11" /> 
<circle cx="14933.1" cy="51737.1" r="118.11" /> 
<circle cx="15933.1" cy="51737.1" r="118.11" /> 
<circle cx="14933.1" cy="50737.1" r="118.11" /> 
<circle cx="15933.1" cy="50737.1" r="118.11" /> 
<circle cx="14933.1" cy="49737.1" r="118.11" /> 
<circle cx="15933.1" cy="49737.1" r="118.11" /> 
<circle cx="14933.1" cy="48737.1" r="118.11" /> 
<circle cx="15933.1" cy="48737.1" r="118.11" /> 
<circle cx="14933.1" cy="47737.1" r="118.11" /> 
<circle cx="15933.1" cy="47737.1" r="118.11" /> 
<circle cx="14933.1" cy="46737.1" r="118.11" /> 
<circle cx="15933.1" cy="46737.1" r="118.11" /> 
<circle cx="14933.1" cy="45737.1" r="118.11" /> 
<circle cx="15933.1" cy="45737.1" r="118.11" /> 
<circle cx="14933.1" cy="44737.1" r="118.11" /> 
<circle cx="15933.1" cy="44737.1" r="118.11" /> 
<circle cx="14933.1" cy="43737.1" r="118.11" /> 
<circle cx="15933.1" cy="43737.1" r="118.11" /> 
<circle cx="14933.1" cy="42737.1" r="118.11" /> 
<circle cx="15933.1" cy="42737.1" r="118.11" /> 
<circle cx="14933.1" cy="41737.1" r="118.11" /> 
<circle cx="15933.1" cy="41737.1" r="118.11" /> 
<circle cx="14933.1" cy="40737.1" r="118.11" /> 
<circle cx="15933.1" cy="40737.1" r="118.11" /> 
<circle cx="14933.1" cy="39737.1" r="118.11" /> 
<circle cx="15933.1" cy="39737.1" r="118.11" /> 
<circle cx="14933.1" cy="38737.1" r="118.11" /> 
<circle cx="15933.1" cy="38737.1" r="118.11" /> 
<circle cx="14933.1" cy="37737.1" r="118.11" /> 
<circle cx="15933.1" cy="37737.1" r="118.11" /> 
<circle cx="19137.8" cy="72463.5" r="118.11" /> 
<circle cx="20137.8" cy="72463.5" r="118.11" /> 
<circle cx="21137.8" cy="72463.5" r="118.11" /> 
<circle cx="40007.9" cy="58556" r="118.11" /> 
<circle cx="39007.9" cy="58556" r="118.11" /> 
<circle cx="42037.4" cy="70079.6" r="118.11" /> 
<circle cx="42037.4" cy="69079.6" r="118.11" /> 
<circle cx="42785.4" cy="67126.9" r="118.11" /> 
<circle cx="42785.4" cy="66126.9" r="118.11" /> 
<circle cx="22687" cy="72451.7" r="118.11" /> 
<circle cx="22687" cy="71451.7" r="118.11" /> 
<circle cx="17185" cy="72432" r="118.11" /> 
<circle cx="17185" cy="71432" r="118.11" /> 
<circle cx="43565" cy="70101.3" r="118.11" /> 
<circle cx="44565" cy="70101.3" r="118.11" /> 
<circle cx="24547.2" cy="72451.7" r="118.11" /> 
<circle cx="24547.2" cy="71451.7" r="118.11" /> 
</g> 
</svg>
