<?xml version="1.0" standalone="no"?>
 <!DOCTYPE svg PUBLIC "-//W3C//DTD SVG 1.1//EN" 
 "http://www.w3.org/Graphics/SVG/1.1/DTD/svg11.dtd"> 
<svg xmlns="http://www.w3.org/2000/svg" version="1.1" 
    width="29.7002cm" height="21.0007cm" viewBox="0 0 116930 82680 ">
<title>SVG Picture created as poncho_rescatAR-B_Cu.svg date 2015/12/03 12:40:11 </title>
  <desc>Picture generated by PCBNEW </desc>
<g style="fill:#000000; fill-opacity:1;stroke:#000000; stroke-opacity:1;
stroke-linecap:round; stroke-linejoin:round; "
 transform="translate(0 0) scale(1 1)">
</g>
<g style="fill:#000000; fill-opacity:0.0; 
stroke:#000000; stroke-width:787.402; stroke-opacity:1; 
stroke-linecap:round; stroke-linejoin:round;">
<path d="M90059 14507
L90059 14507
" />
<path d="M88503 14507
L88503 14507
" />
<path d="M91614 14507
L91614 14507
" />
<path d="M86929 14507
L86929 14507
" />
</g>
<g style="fill:#000000; fill-opacity:0.0; 
stroke:#000000; stroke-width:669.291; stroke-opacity:1; 
stroke-linecap:round; stroke-linejoin:round;">
<path d="M101929 13015
L102244 13015
" />
<path d="M101929 14015
L102244 14015
" />
<path d="M101929 15015
L102244 15015
" />
</g>
<g style="fill:#000000; fill-opacity:0.0; 
stroke:#000000; stroke-width:787.402; stroke-opacity:1; 
stroke-linecap:round; stroke-linejoin:round;">
<path d="M96405 16269
L96405 16269
" />
<path d="M100405 16269
L100405 16269
" />
<path d="M95826 19230
L95826 19230
" />
<path d="M95826 23230
L95826 23230
" />
<path d="M94862 11070
L94862 11070
" />
<path d="M94862 15070
L94862 15070
" />
<path d="M67470 16921
L67470 16921
" />
<path d="M67470 17921
L67470 17921
" />
<path d="M97007 30328
L97007 30328
" />
<path d="M97007 31328
L97007 31328
" />
<path d="M97007 32328
L97007 32328
" />
<path d="M97007 33328
L97007 33328
" />
<path d="M97007 34328
L97007 34328
" />
<path d="M97007 35328
L97007 35328
" />
<path d="M97007 36328
L97007 36328
" />
<path d="M97007 37328
L97007 37328
" />
<path d="M75037 47131
L75037 47131
" />
<path d="M75037 46131
L75037 46131
" />
<path d="M76037 47131
L76037 47131
" />
<path d="M76037 46131
L76037 46131
" />
<path d="M77037 47131
L77037 47131
" />
<path d="M77037 46131
L77037 46131
" />
<path d="M78037 47131
L78037 47131
" />
<path d="M78037 46131
L78037 46131
" />
<path d="M79037 47131
L79037 47131
" />
<path d="M79037 46131
L79037 46131
" />
<path d="M80037 47131
L80037 47131
" />
<path d="M80037 46131
L80037 46131
" />
<path d="M81037 47131
L81037 47131
" />
<path d="M81037 46131
L81037 46131
" />
<path d="M82037 47131
L82037 47131
" />
<path d="M82037 46131
L82037 46131
" />
<path d="M83037 47131
L83037 47131
" />
<path d="M83037 46131
L83037 46131
" />
<path d="M84037 47131
L84037 47131
" />
<path d="M84037 46131
L84037 46131
" />
<path d="M85037 47131
L85037 47131
" />
<path d="M85037 46131
L85037 46131
" />
<path d="M86037 47131
L86037 47131
" />
<path d="M86037 46131
L86037 46131
" />
<path d="M87037 47131
L87037 47131
" />
<path d="M87037 46131
L87037 46131
" />
<path d="M88037 47131
L88037 47131
" />
<path d="M88037 46131
L88037 46131
" />
<path d="M89037 47131
L89037 47131
" />
<path d="M89037 46131
L89037 46131
" />
<path d="M90037 47131
L90037 47131
" />
<path d="M90037 46131
L90037 46131
" />
<path d="M91037 47131
L91037 47131
" />
<path d="M91037 46131
L91037 46131
" />
<path d="M92037 47131
L92037 47131
" />
<path d="M92037 46131
L92037 46131
" />
<path d="M93037 47131
L93037 47131
" />
<path d="M93037 46131
L93037 46131
" />
<path d="M94037 47131
L94037 47131
" />
<path d="M94037 46131
L94037 46131
" />
<path d="M75037 19131
L75037 19131
" />
<path d="M75037 18131
L75037 18131
" />
<path d="M76037 19131
L76037 19131
" />
<path d="M76037 18131
L76037 18131
" />
<path d="M77037 19131
L77037 19131
" />
<path d="M77037 18131
L77037 18131
" />
<path d="M78037 19131
L78037 19131
" />
<path d="M78037 18131
L78037 18131
" />
<path d="M79037 19131
L79037 19131
" />
<path d="M79037 18131
L79037 18131
" />
<path d="M80037 19131
L80037 19131
" />
<path d="M80037 18131
L80037 18131
" />
<path d="M81037 19131
L81037 19131
" />
<path d="M81037 18131
L81037 18131
" />
<path d="M82037 19131
L82037 19131
" />
<path d="M82037 18131
L82037 18131
" />
<path d="M83037 19131
L83037 19131
" />
<path d="M83037 18131
L83037 18131
" />
<path d="M84037 19131
L84037 19131
" />
<path d="M84037 18131
L84037 18131
" />
<path d="M85037 19131
L85037 19131
" />
<path d="M85037 18131
L85037 18131
" />
<path d="M86037 19131
L86037 19131
" />
<path d="M86037 18131
L86037 18131
" />
<path d="M87037 19131
L87037 19131
" />
<path d="M87037 18131
L87037 18131
" />
<path d="M88037 19131
L88037 19131
" />
<path d="M88037 18131
L88037 18131
" />
<path d="M89037 19131
L89037 19131
" />
<path d="M89037 18131
L89037 18131
" />
<path d="M90037 19131
L90037 19131
" />
<path d="M90037 18131
L90037 18131
" />
<path d="M91037 19131
L91037 19131
" />
<path d="M91037 18131
L91037 18131
" />
<path d="M92037 19131
L92037 19131
" />
<path d="M92037 18131
L92037 18131
" />
<path d="M93037 19131
L93037 19131
" />
<path d="M93037 18131
L93037 18131
" />
<path d="M94037 19131
L94037 19131
" />
<path d="M94037 18131
L94037 18131
" />
<path d="M99635 28423
L99635 28423
" />
<path d="M100635 28423
L100635 28423
" />
<path d="M99635 29423
L99635 29423
" />
<path d="M100635 29423
L100635 29423
" />
<path d="M99635 30423
L99635 30423
" />
<path d="M100635 30423
L100635 30423
" />
<path d="M99635 31423
L99635 31423
" />
<path d="M100635 31423
L100635 31423
" />
<path d="M99635 32423
L99635 32423
" />
<path d="M100635 32423
L100635 32423
" />
<path d="M99635 33423
L99635 33423
" />
<path d="M100635 33423
L100635 33423
" />
<path d="M99635 34423
L99635 34423
" />
<path d="M100635 34423
L100635 34423
" />
<path d="M99635 35423
L99635 35423
" />
<path d="M100635 35423
L100635 35423
" />
<path d="M99635 36423
L99635 36423
" />
<path d="M100635 36423
L100635 36423
" />
<path d="M99635 37423
L99635 37423
" />
<path d="M100635 37423
L100635 37423
" />
<path d="M99635 38423
L99635 38423
" />
<path d="M100635 38423
L100635 38423
" />
<path d="M99635 39423
L99635 39423
" />
<path d="M100635 39423
L100635 39423
" />
<path d="M99635 40423
L99635 40423
" />
<path d="M100635 40423
L100635 40423
" />
<path d="M99635 41423
L99635 41423
" />
<path d="M100635 41423
L100635 41423
" />
<path d="M99635 42423
L99635 42423
" />
<path d="M100635 42423
L100635 42423
" />
<path d="M99635 43423
L99635 43423
" />
<path d="M100635 43423
L100635 43423
" />
<path d="M99635 44423
L99635 44423
" />
<path d="M100635 44423
L100635 44423
" />
<path d="M99635 45423
L99635 45423
" />
<path d="M100635 45423
L100635 45423
" />
<path d="M99635 46423
L99635 46423
" />
<path d="M100635 46423
L100635 46423
" />
<path d="M99635 47423
L99635 47423
" />
<path d="M100635 47423
L100635 47423
" />
<path d="M71635 28423
L71635 28423
" />
<path d="M72635 28423
L72635 28423
" />
<path d="M71635 29423
L71635 29423
" />
<path d="M72635 29423
L72635 29423
" />
<path d="M71635 30423
L71635 30423
" />
<path d="M72635 30423
L72635 30423
" />
<path d="M71635 31423
L71635 31423
" />
<path d="M72635 31423
L72635 31423
" />
<path d="M71635 32423
L71635 32423
" />
<path d="M72635 32423
L72635 32423
" />
<path d="M71635 33423
L71635 33423
" />
<path d="M72635 33423
L72635 33423
" />
<path d="M71635 34423
L71635 34423
" />
<path d="M72635 34423
L72635 34423
" />
<path d="M71635 35423
L71635 35423
" />
<path d="M72635 35423
L72635 35423
" />
<path d="M71635 36423
L71635 36423
" />
<path d="M72635 36423
L72635 36423
" />
<path d="M71635 37423
L71635 37423
" />
<path d="M72635 37423
L72635 37423
" />
<path d="M71635 38423
L71635 38423
" />
<path d="M72635 38423
L72635 38423
" />
<path d="M71635 39423
L71635 39423
" />
<path d="M72635 39423
L72635 39423
" />
<path d="M71635 40423
L71635 40423
" />
<path d="M72635 40423
L72635 40423
" />
<path d="M71635 41423
L71635 41423
" />
<path d="M72635 41423
L72635 41423
" />
<path d="M71635 42423
L71635 42423
" />
<path d="M72635 42423
L72635 42423
" />
<path d="M71635 43423
L71635 43423
" />
<path d="M72635 43423
L72635 43423
" />
<path d="M71635 44423
L71635 44423
" />
<path d="M72635 44423
L72635 44423
" />
<path d="M71635 45423
L71635 45423
" />
<path d="M72635 45423
L72635 45423
" />
<path d="M71635 46423
L71635 46423
" />
<path d="M72635 46423
L72635 46423
" />
<path d="M71635 47423
L71635 47423
" />
<path d="M72635 47423
L72635 47423
" />
</g>
<g style="fill:#000000; fill-opacity:0.0; 
stroke:#000000; stroke-width:669.291; stroke-opacity:1; 
stroke-linecap:round; stroke-linejoin:round;">
<path d="M73064 13090
L73064 12775
" />
<path d="M74064 13090
L74064 12775
" />
<path d="M75064 13090
L75064 12775
" />
</g>
<g style="fill:#000000; fill-opacity:0.0; 
stroke:#000000; stroke-width:787.402; stroke-opacity:1; 
stroke-linecap:round; stroke-linejoin:round;">
<path d="M95807 24716
L95807 24716
" />
<path d="M95807 25716
L95807 25716
" />
</g>
<g style="fill:#000000; fill-opacity:0.0; 
stroke:#000000; stroke-width:39.3701; stroke-opacity:1; 
stroke-linecap:round; stroke-linejoin:round;">
</g>
<g style="fill:#000000; fill-opacity:1.0; 
stroke:#000000; stroke-width:39.3701; stroke-opacity:1; 
stroke-linecap:round; stroke-linejoin:round;">
<circle cx="96289.4" cy="12000" r="374.016" /> 
<circle cx="96289.4" cy="13000" r="374.016" /> 
<circle cx="99832.7" cy="14023.6" r="374.016" /> 
<circle cx="99832.7" cy="13023.6" r="374.016" /> 
<circle cx="76614.2" cy="12944.9" r="374.016" /> 
<circle cx="76614.2" cy="13944.9" r="374.016" /> 
<circle cx="71112.2" cy="12964.6" r="374.016" /> 
<circle cx="71112.2" cy="13964.6" r="374.016" /> 
</g>
<g style="fill:#000000; fill-opacity:1.0; 
stroke:#000000; stroke-width:787.402; stroke-opacity:1; 
stroke-linecap:round; stroke-linejoin:round;">
<path d="M98070 12029
L98070 12029
" />
</g>
<g style="fill:#000000; fill-opacity:1.0; 
stroke:#000000; stroke-width:39.3701; stroke-opacity:1; 
stroke-linecap:round; stroke-linejoin:round;">
<circle cx="98070.9" cy="13029.5" r="374.016" /> 
</g>
<g style="fill:#000000; fill-opacity:1.0; 
stroke:#000000; stroke-width:787.402; stroke-opacity:1; 
stroke-linecap:round; stroke-linejoin:round;">
<path d="M78474 12944
L78474 12944
" />
</g>
<g style="fill:#000000; fill-opacity:1.0; 
stroke:#000000; stroke-width:39.3701; stroke-opacity:1; 
stroke-linecap:round; stroke-linejoin:round;">
<circle cx="78474.4" cy="13944.9" r="374.016" /> 
<circle cx="68503.9" cy="19813" r="570.866" /> 
<circle cx="77598.4" cy="21151.6" r="570.866" /> 
<circle cx="95147.6" cy="36318.9" r="570.866" /> 
<circle cx="95944.9" cy="46594.5" r="570.866" /> 
<circle cx="69872" cy="47362.2" r="570.866" /> 
<circle cx="102480" cy="46624" r="570.866" /> 
<circle cx="77687" cy="15492.1" r="570.866" /> 
<circle cx="93592.5" cy="20944.9" r="570.866" /> 
<circle cx="81645.7" cy="13895.7" r="374.016" /> 
<circle cx="81645.7" cy="12895.7" r="374.016" /> 
<circle cx="82645.7" cy="13895.7" r="374.016" /> 
<circle cx="82645.7" cy="12895.7" r="374.016" /> 
<circle cx="94291.3" cy="31220.5" r="570.866" /> 
</g>
<g style="fill:#000000; fill-opacity:1.0; 
stroke:#000000; stroke-width:314.961; stroke-opacity:1; 
stroke-linecap:round; stroke-linejoin:round;">
<path d="M69183 44724
L69183 44822
" />
<path d="M69183 44822
L69803 45442
" />
<path d="M69183 26929
L69950 26161
" />
<path d="M69970 26161
L69970 26171
" />
<path d="M69950 26161
L69970 26161
" />
<path d="M69970 26171
L81801 26171
" />
<path d="M82037 19131
L82037 25935
" />
<path d="M82037 25935
L81801 26171
" />
<path d="M71635 45423
L71616 45442
" />
<path d="M71616 45442
L69803 45442
" />
<path d="M69183 44724
L69183 26929
" />
<path d="M70236 43996
L70669 44429
" />
<path d="M71629 44429
L71635 44423
" />
<path d="M83037 26578
L82559 27057
" />
<path d="M82559 27057
L71082 27057
" />
<path d="M83037 19131
L83037 26578
" />
<path d="M70236 27864
L70236 43996
" />
<path d="M70236 27903
L70236 27874
" />
<path d="M70236 27874
L70246 27864
" />
<path d="M70246 27864
L70236 27864
" />
<path d="M71082 27057
L70236 27903
" />
<path d="M70639 44429
L71629 44429
" />
<path d="M70669 44429
L70669 44399
" />
<path d="M70669 44399
L70639 44370
" />
<path d="M70639 44370
L70639 44429
" />
<path d="M96289 13000
L95559 13000
" />
<path d="M95559 13000
L95521 12962
" />
<path d="M96289 13000
L99809 13000
" />
<path d="M99809 13000
L99832 13023
" />
<path d="M96407 38435
L95167 38435
" />
<path d="M95289 32328
L97007 32328
" />
<path d="M93917 33700
L95289 32328
" />
<path d="M93917 37185
L93917 33700
" />
<path d="M95167 38435
L93917 37185
" />
<path d="M99635 38423
L99624 38435
" />
<path d="M99624 38435
L96407 38435
" />
<path d="M97007 33328
L97777 33328
" />
<path d="M98751 37423
L99635 37423
" />
<path d="M98307 36978
L98751 37423
" />
<path d="M98307 33858
L98307 36978
" />
<path d="M97777 33328
L98307 33858
" />
<path d="M82037 45285
L82086 45285
" />
<path d="M82086 45285
L82529 44842
" />
<path d="M82037 45285
L82037 46131
" />
<path d="M96584 44842
L96584 44812
" />
<path d="M96584 44812
L97234 44163
" />
<path d="M97234 40226
L97234 40206
" />
<path d="M97234 40206
L97972 39468
" />
<path d="M83435 44842
L82529 44842
" />
<path d="M99590 39468
L99635 39423
" />
<path d="M97972 39468
L99590 39468
" />
<path d="M97234 44163
L97234 40226
" />
<path d="M83435 44842
L96584 44842
" />
<path d="M83070 48149
L83513 48592
" />
<path d="M83037 48149
L83070 48149
" />
<path d="M83037 48149
L83037 47131
" />
<path d="M97332 48592
L97362 48592
" />
<path d="M84389 48592
L83513 48592
" />
<path d="M97332 48592
L84389 48592
" />
<path d="M99635 40423
L99616 40442
" />
<path d="M99616 40442
L98671 40442
" />
<path d="M98316 40895
L98316 47637
" />
<path d="M98316 40797
L98671 40442
" />
<path d="M98316 40895
L98316 40797
" />
<path d="M97362 48592
L98316 47637
" />
<path d="M95807 25716
L88374 25716
" />
<path d="M85037 22379
L85037 19131
" />
<path d="M88374 25716
L85037 22379
" />
</g>
<g style="fill:#000000; fill-opacity:1.0; 
stroke:#000000; stroke-width:393.701; stroke-opacity:1; 
stroke-linecap:round; stroke-linejoin:round;">
<path d="M102982 13090
L103523 13631
" />
<path d="M102982 13015
L102982 13090
" />
<path d="M103523 13631
L103523 16515
" />
<path d="M102086 13015
L102982 13015
" />
<path d="M103523 16515
L102194 17844
" />
<path d="M102194 17844
L96141 17844
" />
<path d="M94862 11070
L95795 11070
" />
<path d="M96289 11564
L96289 12000
" />
<path d="M95795 11070
L96289 11564
" />
<path d="M96289 12000
L96318 12029
" />
<path d="M96318 12029
L98070 12029
" />
<path d="M102086 13015
L101100 12029
" />
<path d="M101100 12029
L98070 12029
" />
<path d="M95826 19230
L95826 18159
" />
<path d="M95826 18159
L96141 17844
" />
<path d="M76037 16816
L76037 18131
" />
<path d="M76043 16811
L76037 16816
" />
<path d="M94724 16811
L76043 16811
" />
<path d="M95757 17844
L94724 16811
" />
<path d="M96141 17844
L95757 17844
" />
<path d="M75037 18131
L76037 19131
" />
<path d="M75037 19131
L75037 18131
" />
<path d="M75037 18131
L76037 18131
" />
<path d="M76037 18131
L76037 19131
" />
<path d="M76037 19131
L75037 19131
" />
<path d="M75037 19131
L76037 18131
" />
<path d="M97007 30328
L97007 27952
" />
<path d="M100635 27555
L100635 28423
" />
<path d="M99990 26909
L100635 27555
" />
<path d="M98051 26909
L99990 26909
" />
<path d="M97007 27952
L98051 26909
" />
</g>
<g style="fill:#000000; fill-opacity:1.0; 
stroke:#000000; stroke-width:314.961; stroke-opacity:1; 
stroke-linecap:round; stroke-linejoin:round;">
<path d="M95826 23230
L95826 24696
" />
<path d="M95826 24696
L95807 24716
" />
<path d="M102086 15015
L94917 15015
" />
<path d="M94917 15015
L94862 15070
" />
<path d="M94862 15070
L96338 16202
" />
<path d="M96338 16202
L96405 16269
" />
</g>
<g style="fill:#000000; fill-opacity:1.0; 
stroke:#000000; stroke-width:393.701; stroke-opacity:1; 
stroke-linecap:round; stroke-linejoin:round;">
<path d="M78474 12944
L82596 12944
" />
<path d="M82596 12944
L82645 12895
" />
<path d="M67470 16921
L72094 16921
" />
<path d="M75064 13950
L75064 12933
" />
<path d="M72094 16921
L75064 13950
" />
<path d="M75064 12933
L76602 12933
" />
<path d="M76602 12933
L76614 12944
" />
<path d="M78474 12944
L76614 12944
" />
<path d="M73064 12933
L73064 11856
" />
<path d="M85049 11525
L86929 13405
" />
<path d="M73395 11525
L85049 11525
" />
<path d="M73064 11856
L73395 11525
" />
<path d="M86929 13405
L86929 13503
" />
<path d="M86929 13503
L86929 14507
" />
<path d="M87391 12942
L86929 13405
" />
<path d="M99832 14023
L94496 14023
" />
<path d="M94496 14023
L93415 12942
" />
<path d="M93415 12942
L87391 12942
" />
<path d="M102086 14015
L99840 14015
" />
<path d="M99840 14015
L99832 14023
" />
<path d="M73064 12933
L71143 12933
" />
<path d="M71143 12933
L71112 12964
" />
</g>
<g style="fill:#000000; fill-opacity:1.0; 
stroke:#000000; stroke-width:39.3701; stroke-opacity:1; 
stroke-linecap:round; stroke-linejoin:round;">
<polyline style="fill-rule:evenodd;"
points="94095,18181
94087,18181
94087,18189
93987,18189
93987,18181
93979,18181
93979,18081
93987,18081
93987,18074
94087,18074
94087,18081
94095,18081
94095,18181
" /> 
</g>
<g style="fill:#000000; fill-opacity:0.0; 
stroke:#000000; stroke-width:100; stroke-opacity:1; 
stroke-linecap:round; stroke-linejoin:round;">
<polyline fill="none;"
points="94095,18181
94087,18181
94087,18189
93987,18189
93987,18181
93979,18181
93979,18081
93987,18081
93987,18074
94087,18074
94087,18081
94095,18081
94095,18181
" /> 
</g>
<g style="fill:#000000; fill-opacity:1.0; 
stroke:#000000; stroke-width:39.3701; stroke-opacity:1; 
stroke-linecap:round; stroke-linejoin:round;">
<polyline style="fill-rule:evenodd;"
points="95537,12989
94924,12989
94146,12211
93811,11987
93415,11908
93415,11908
87391,11908
87391,11908
87293,11928
86995,11987
86995,11987
86995,11987
86982,11996
85780,10794
85445,10570
85049,10491
85049,10491
73395,10491
72999,10570
72664,10794
72664,10794
72333,11124
72109,11460
72030,11856
72030,11856
72030,11898
71755,11898
71358,11733
70868,11733
70415,11920
70069,12266
69881,12718
69880,13208
70067,13661
70413,14007
70470,14031
70473,14116
70553,14308
70658,14347
70826,14179
70866,14195
70951,14195
70729,14418
70768,14523
71008,14612
71263,14603
71456,14523
71495,14418
71272,14195
71356,14195
71397,14178
71565,14347
71671,14308
71760,14068
71758,14029
71808,14008
71850,13967
72269,13967
72616,14199
73064,14288
73313,14239
71666,15887
68132,15887
67941,15759
67470,15666
66999,15759
66599,16026
66333,16426
66239,16897
66239,16945
66333,17416
66599,17815
66826,17967
66826,17971
66832,17971
66877,18001
66844,18071
66949,18299
67133,18469
67320,18547
67420,18500
67420,18166
67470,18176
67520,18166
67520,18500
67620,18547
67807,18469
67991,18299
68096,18071
68063,18001
68108,17971
68114,17971
68114,17967
68132,17955
72094,17955
72094,17955
72094,17955
72490,17876
72490,17876
72825,17652
75796,14682
75796,14682
75796,14682
76020,14346
76020,14346
76039,14250
76055,14289
76160,14327
76328,14159
76368,14175
76453,14175
76231,14398
76269,14503
76510,14592
76765,14583
76958,14503
76997,14398
76774,14176
76857,14176
76899,14159
77067,14327
77172,14289
77262,14049
77260,14009
77310,13989
77320,13979
77812,13979
77832,13991
77835,14096
77915,14289
78020,14327
78202,14146
78320,14169
78091,14398
78130,14503
78370,14592
78626,14583
78818,14503
78857,14398
78628,14169
78746,14146
78928,14327
79033,14289
79122,14049
79120,13989
79135,13979
81004,13979
81007,14047
81086,14239
81191,14278
81360,14110
81399,14126
81485,14126
81262,14349
81301,14454
81541,14543
81797,14534
81989,14454
82028,14349
81806,14126
81889,14126
81930,14109
82099,14278
82145,14261
82191,14278
82360,14110
82399,14126
82485,14126
82262,14349
82301,14454
82541,14543
82797,14534
82989,14454
83028,14349
82806,14126
82889,14126
82930,14109
83099,14278
83204,14239
83293,13999
83292,13960
83342,13939
83688,13593
83876,13141
83876,12651
83838,12559
84620,12559
85894,13833
85894,13846
85767,14036
85673,14507
85767,14978
86034,15378
86433,15645
86905,15738
86953,15738
87424,15645
87823,15378
88086,14985
88125,15028
88354,15133
88453,15087
88453,14557
88446,14557
88446,14457
88453,14457
88453,14450
88553,14450
88553,14457
88561,14457
88561,14557
88553,14557
88553,15087
88653,15133
88881,15028
88910,14998
89164,15378
89563,15645
90034,15738
90083,15738
90554,15645
90836,15456
91118,15645
91590,15738
91638,15738
92109,15645
92508,15378
92775,14978
92869,14507
92775,14036
92735,13977
92986,13977
93701,14691
93631,15046
93631,15094
93724,15566
93865,15776
78478,15776
78530,15643
78524,15308
78408,15029
78283,14966
78212,15037
78212,14896
78149,14770
77838,14648
77503,14654
77224,14770
77161,14896
77687,15421
78212,14896
78212,15037
77757,15492
77763,15497
77692,15568
77687,15562
77681,15568
77610,15497
77616,15492
77090,14966
76965,15029
76843,15341
76849,15675
76891,15776
76043,15776
76043,15776
75823,15820
75647,15855
75311,16079
75311,16079
75306,16085
75081,16421
75003,16816
75003,16816
75003,16902
74542,16994
74142,17261
73875,17660
73782,18131
73875,18603
73895,18631
73875,18660
73782,19131
73875,19603
74142,20002
74542,20269
75013,20362
75061,20362
75532,20269
75537,20266
75542,20269
76013,20362
76061,20362
76532,20269
76932,20002
77083,19775
77087,19775
77087,19769
77117,19725
77187,19757
77415,19652
77537,19521
77659,19652
77887,19757
77957,19725
77987,19769
77987,19775
77991,19775
78142,20002
78542,20269
79013,20362
79061,20362
79532,20269
79932,20002
80083,19775
80087,19775
80087,19769
80117,19725
80187,19757
80415,19652
80537,19521
80659,19652
80887,19757
80957,19725
80987,19769
80987,19775
80991,19775
81042,19852
81042,25176
78442,25176
78442,21302
78435,20968
78319,20689
78194,20626
78123,20696
78123,20555
78060,20430
77749,20307
77415,20314
77135,20430
77073,20555
77598,21080
78123,20555
78123,20696
77669,21151
78194,21676
78319,21614
78442,21302
78442,25176
78123,25176
78123,21747
77598,21222
77527,21292
77527,21151
77002,20626
76876,20689
76754,21000
76761,21334
76876,21614
77002,21676
77527,21151
77527,21292
77073,21747
77135,21873
77447,21995
77781,21988
78060,21873
78123,21747
78123,25176
70019,25176
69970,25166
69950,25166
69570,25242
69347,25390
69347,19964
69341,19629
69225,19350
69099,19287
69029,19358
69029,19216
68966,19091
68655,18969
68320,18975
68041,19091
67978,19216
68503,19742
69029,19216
69029,19358
68574,19812
69099,20338
69225,20275
69347,19964
69347,25390
69247,25457
69029,25675
69029,20409
68503,19883
68433,19954
68433,19812
67907,19287
67782,19350
67660,19661
67666,19996
67782,20275
67907,20338
68433,19812
68433,19954
67978,20409
68041,20534
68352,20656
68687,20650
68966,20534
69029,20409
69029,25675
68479,26225
68263,26548
68188,26929
68188,44724
68188,44822
68263,45203
68479,45526
69099,46146
69422,46362
69422,46362
69803,46437
70944,46437
70992,46469
70992,46473
70997,46473
71042,46503
71009,46573
71114,46801
71246,46923
71114,47045
71009,47273
71056,47373
71409,47373
71404,47399
71404,47447
71409,47473
71056,47473
71009,47573
71114,47801
71299,47971
71486,48049
71561,48013
71585,48049
71585,48066
71597,48066
71765,48317
72164,48584
72635,48678
73106,48584
73506,48317
73773,47918
73855,47502
73875,47603
74142,48002
74542,48269
75013,48362
75061,48362
75532,48269
75537,48266
75542,48269
76013,48362
76061,48362
76532,48269
76932,48002
77037,47844
77142,48002
77542,48269
78013,48362
78061,48362
78532,48269
78537,48266
78542,48269
79013,48362
79061,48362
79532,48269
79932,48002
80083,47775
80087,47775
80087,47769
80117,47725
80187,47757
80415,47652
80537,47521
80659,47652
80887,47757
80957,47725
80987,47769
80987,47775
80991,47775
81142,48002
81542,48269
82013,48362
82061,48362
82084,48358
82118,48530
82333,48853
82434,48920
82667,49152
70715,49152
70715,47513
70709,47178
70593,46899
70468,46836
70397,46907
70397,46766
70334,46640
70023,46518
69688,46525
69409,46640
69346,46766
69872,47291
70397,46766
70397,46907
69942,47362
70468,47887
70593,47824
70715,47513
70715,49152
70397,49152
70397,47958
69872,47432
69801,47503
69801,47362
69275,46836
69150,46899
69028,47211
69034,47545
69150,47824
69275,47887
69801,47362
69801,47503
69346,47958
69409,48083
69720,48205
70055,48199
70334,48083
70397,47958
70397,49152
65099,49152
65099,10168
94003,10168
93991,10176
93724,10575
93631,11046
93631,11094
93724,11566
93991,11965
94391,12232
94862,12326
95074,12283
95245,12696
95537,12989
" /> 
</g>
<g style="fill:#000000; fill-opacity:0.0; 
stroke:#000000; stroke-width:100; stroke-opacity:1; 
stroke-linecap:round; stroke-linejoin:round;">
<polyline fill="none;"
points="95537,12989
94924,12989
94146,12211
93811,11987
93415,11908
93415,11908
87391,11908
87391,11908
87293,11928
86995,11987
86995,11987
86995,11987
86982,11996
85780,10794
85445,10570
85049,10491
85049,10491
73395,10491
72999,10570
72664,10794
72664,10794
72333,11124
72109,11460
72030,11856
72030,11856
72030,11898
71755,11898
71358,11733
70868,11733
70415,11920
70069,12266
69881,12718
69880,13208
70067,13661
70413,14007
70470,14031
70473,14116
70553,14308
70658,14347
70826,14179
70866,14195
70951,14195
70729,14418
70768,14523
71008,14612
71263,14603
71456,14523
71495,14418
71272,14195
71356,14195
71397,14178
71565,14347
71671,14308
71760,14068
71758,14029
71808,14008
71850,13967
72269,13967
72616,14199
73064,14288
73313,14239
71666,15887
68132,15887
67941,15759
67470,15666
66999,15759
66599,16026
66333,16426
66239,16897
66239,16945
66333,17416
66599,17815
66826,17967
66826,17971
66832,17971
66877,18001
66844,18071
66949,18299
67133,18469
67320,18547
67420,18500
67420,18166
67470,18176
67520,18166
67520,18500
67620,18547
67807,18469
67991,18299
68096,18071
68063,18001
68108,17971
68114,17971
68114,17967
68132,17955
72094,17955
72094,17955
72094,17955
72490,17876
72490,17876
72825,17652
75796,14682
75796,14682
75796,14682
76020,14346
76020,14346
76039,14250
76055,14289
76160,14327
76328,14159
76368,14175
76453,14175
76231,14398
76269,14503
76510,14592
76765,14583
76958,14503
76997,14398
76774,14176
76857,14176
76899,14159
77067,14327
77172,14289
77262,14049
77260,14009
77310,13989
77320,13979
77812,13979
77832,13991
77835,14096
77915,14289
78020,14327
78202,14146
78320,14169
78091,14398
78130,14503
78370,14592
78626,14583
78818,14503
78857,14398
78628,14169
78746,14146
78928,14327
79033,14289
79122,14049
79120,13989
79135,13979
81004,13979
81007,14047
81086,14239
81191,14278
81360,14110
81399,14126
81485,14126
81262,14349
81301,14454
81541,14543
81797,14534
81989,14454
82028,14349
81806,14126
81889,14126
81930,14109
82099,14278
82145,14261
82191,14278
82360,14110
82399,14126
82485,14126
82262,14349
82301,14454
82541,14543
82797,14534
82989,14454
83028,14349
82806,14126
82889,14126
82930,14109
83099,14278
83204,14239
83293,13999
83292,13960
83342,13939
83688,13593
83876,13141
83876,12651
83838,12559
84620,12559
85894,13833
85894,13846
85767,14036
85673,14507
85767,14978
86034,15378
86433,15645
86905,15738
86953,15738
87424,15645
87823,15378
88086,14985
88125,15028
88354,15133
88453,15087
88453,14557
88446,14557
88446,14457
88453,14457
88453,14450
88553,14450
88553,14457
88561,14457
88561,14557
88553,14557
88553,15087
88653,15133
88881,15028
88910,14998
89164,15378
89563,15645
90034,15738
90083,15738
90554,15645
90836,15456
91118,15645
91590,15738
91638,15738
92109,15645
92508,15378
92775,14978
92869,14507
92775,14036
92735,13977
92986,13977
93701,14691
93631,15046
93631,15094
93724,15566
93865,15776
78478,15776
78530,15643
78524,15308
78408,15029
78283,14966
78212,15037
78212,14896
78149,14770
77838,14648
77503,14654
77224,14770
77161,14896
77687,15421
78212,14896
78212,15037
77757,15492
77763,15497
77692,15568
77687,15562
77681,15568
77610,15497
77616,15492
77090,14966
76965,15029
76843,15341
76849,15675
76891,15776
76043,15776
76043,15776
75823,15820
75647,15855
75311,16079
75311,16079
75306,16085
75081,16421
75003,16816
75003,16816
75003,16902
74542,16994
74142,17261
73875,17660
73782,18131
73875,18603
73895,18631
73875,18660
73782,19131
73875,19603
74142,20002
74542,20269
75013,20362
75061,20362
75532,20269
75537,20266
75542,20269
76013,20362
76061,20362
76532,20269
76932,20002
77083,19775
77087,19775
77087,19769
77117,19725
77187,19757
77415,19652
77537,19521
77659,19652
77887,19757
77957,19725
77987,19769
77987,19775
77991,19775
78142,20002
78542,20269
79013,20362
79061,20362
79532,20269
79932,20002
80083,19775
80087,19775
80087,19769
80117,19725
80187,19757
80415,19652
80537,19521
80659,19652
80887,19757
80957,19725
80987,19769
80987,19775
80991,19775
81042,19852
81042,25176
78442,25176
78442,21302
78435,20968
78319,20689
78194,20626
78123,20696
78123,20555
78060,20430
77749,20307
77415,20314
77135,20430
77073,20555
77598,21080
78123,20555
78123,20696
77669,21151
78194,21676
78319,21614
78442,21302
78442,25176
78123,25176
78123,21747
77598,21222
77527,21292
77527,21151
77002,20626
76876,20689
76754,21000
76761,21334
76876,21614
77002,21676
77527,21151
77527,21292
77073,21747
77135,21873
77447,21995
77781,21988
78060,21873
78123,21747
78123,25176
70019,25176
69970,25166
69950,25166
69570,25242
69347,25390
69347,19964
69341,19629
69225,19350
69099,19287
69029,19358
69029,19216
68966,19091
68655,18969
68320,18975
68041,19091
67978,19216
68503,19742
69029,19216
69029,19358
68574,19812
69099,20338
69225,20275
69347,19964
69347,25390
69247,25457
69029,25675
69029,20409
68503,19883
68433,19954
68433,19812
67907,19287
67782,19350
67660,19661
67666,19996
67782,20275
67907,20338
68433,19812
68433,19954
67978,20409
68041,20534
68352,20656
68687,20650
68966,20534
69029,20409
69029,25675
68479,26225
68263,26548
68188,26929
68188,44724
68188,44822
68263,45203
68479,45526
69099,46146
69422,46362
69422,46362
69803,46437
70944,46437
70992,46469
70992,46473
70997,46473
71042,46503
71009,46573
71114,46801
71246,46923
71114,47045
71009,47273
71056,47373
71409,47373
71404,47399
71404,47447
71409,47473
71056,47473
71009,47573
71114,47801
71299,47971
71486,48049
71561,48013
71585,48049
71585,48066
71597,48066
71765,48317
72164,48584
72635,48678
73106,48584
73506,48317
73773,47918
73855,47502
73875,47603
74142,48002
74542,48269
75013,48362
75061,48362
75532,48269
75537,48266
75542,48269
76013,48362
76061,48362
76532,48269
76932,48002
77037,47844
77142,48002
77542,48269
78013,48362
78061,48362
78532,48269
78537,48266
78542,48269
79013,48362
79061,48362
79532,48269
79932,48002
80083,47775
80087,47775
80087,47769
80117,47725
80187,47757
80415,47652
80537,47521
80659,47652
80887,47757
80957,47725
80987,47769
80987,47775
80991,47775
81142,48002
81542,48269
82013,48362
82061,48362
82084,48358
82118,48530
82333,48853
82434,48920
82667,49152
70715,49152
70715,47513
70709,47178
70593,46899
70468,46836
70397,46907
70397,46766
70334,46640
70023,46518
69688,46525
69409,46640
69346,46766
69872,47291
70397,46766
70397,46907
69942,47362
70468,47887
70593,47824
70715,47513
70715,49152
70397,49152
70397,47958
69872,47432
69801,47503
69801,47362
69275,46836
69150,46899
69028,47211
69034,47545
69150,47824
69275,47887
69801,47362
69801,47503
69346,47958
69409,48083
69720,48205
70055,48199
70334,48083
70397,47958
70397,49152
65099,49152
65099,10168
94003,10168
93991,10176
93724,10575
93631,11046
93631,11094
93724,11566
93991,11965
94391,12232
94862,12326
95074,12283
95245,12696
95537,12989
" /> 
</g>
<g style="fill:#000000; fill-opacity:1.0; 
stroke:#000000; stroke-width:39.3701; stroke-opacity:1; 
stroke-linecap:round; stroke-linejoin:round;">
<polyline style="fill-rule:evenodd;"
points="96295,36328
96137,36434
95991,36652
95991,36470
95984,36135
95869,35856
95743,35793
95218,36318
95743,36844
95869,36781
95991,36470
95991,36652
95870,36833
95776,37304
95776,37352
95794,37440
95579,37440
95296,37156
95330,37156
95610,37040
95672,36914
95147,36389
95142,36395
95071,36324
95076,36318
95071,36313
95142,36242
95147,36248
95672,35722
95610,35597
95298,35475
94964,35481
94912,35503
94912,34112
95701,33323
95776,33323
95776,33352
95870,33823
95873,33828
95870,33833
95776,34304
95776,34352
95870,34823
95873,34828
95870,34833
95776,35304
95776,35352
95870,35823
96137,36223
96295,36328
" /> 
</g>
<g style="fill:#000000; fill-opacity:0.0; 
stroke:#000000; stroke-width:100; stroke-opacity:1; 
stroke-linecap:round; stroke-linejoin:round;">
<polyline fill="none;"
points="96295,36328
96137,36434
95991,36652
95991,36470
95984,36135
95869,35856
95743,35793
95218,36318
95743,36844
95869,36781
95991,36470
95991,36652
95870,36833
95776,37304
95776,37352
95794,37440
95579,37440
95296,37156
95330,37156
95610,37040
95672,36914
95147,36389
95142,36395
95071,36324
95076,36318
95071,36313
95142,36242
95147,36248
95672,35722
95610,35597
95298,35475
94964,35481
94912,35503
94912,34112
95701,33323
95776,33323
95776,33352
95870,33823
95873,33828
95870,33833
95776,34304
95776,34352
95870,34823
95873,34828
95870,34833
95776,35304
95776,35352
95870,35823
96137,36223
96295,36328
" /> 
</g>
<g style="fill:#000000; fill-opacity:1.0; 
stroke:#000000; stroke-width:39.3701; stroke-opacity:1; 
stroke-linecap:round; stroke-linejoin:round;">
<polyline style="fill-rule:evenodd;"
points="97322,47225
96950,47597
96788,47597
96788,46745
96782,46411
96666,46132
96540,46069
96015,46594
96540,47119
96666,47056
96788,46745
96788,47597
96470,47597
96470,47190
95944,46665
95874,46735
95874,46594
95348,46069
95223,46132
95101,46443
95107,46777
95223,47056
95348,47119
95874,46594
95874,46735
95419,47190
95482,47316
95793,47438
96128,47431
96407,47316
96470,47190
96470,47597
94466,47597
94585,47468
94663,47281
94616,47181
94282,47181
94292,47131
94282,47081
94616,47081
94663,46982
94585,46795
94434,46631
94585,46468
94663,46281
94616,46181
94087,46181
94087,46189
93987,46189
93987,46181
93979,46181
93979,46081
93987,46081
93987,46074
94087,46074
94087,46081
94616,46081
94663,45982
94603,45837
95568,45837
95482,45872
95419,45998
95944,46523
96470,45998
96407,45872
96316,45837
96584,45837
96965,45761
97288,45546
97322,45495
97322,47225
" /> 
</g>
<g style="fill:#000000; fill-opacity:0.0; 
stroke:#000000; stroke-width:100; stroke-opacity:1; 
stroke-linecap:round; stroke-linejoin:round;">
<polyline fill="none;"
points="97322,47225
96950,47597
96788,47597
96788,46745
96782,46411
96666,46132
96540,46069
96015,46594
96540,47119
96666,47056
96788,46745
96788,47597
96470,47597
96470,47190
95944,46665
95874,46735
95874,46594
95348,46069
95223,46132
95101,46443
95107,46777
95223,47056
95348,47119
95874,46594
95874,46735
95419,47190
95482,47316
95793,47438
96128,47431
96407,47316
96470,47190
96470,47597
94466,47597
94585,47468
94663,47281
94616,47181
94282,47181
94292,47131
94282,47081
94616,47081
94663,46982
94585,46795
94434,46631
94585,46468
94663,46281
94616,46181
94087,46181
94087,46189
93987,46189
93987,46181
93979,46181
93979,46081
93987,46081
93987,46074
94087,46074
94087,46081
94616,46081
94663,45982
94603,45837
95568,45837
95482,45872
95419,45998
95944,46523
96470,45998
96407,45872
96316,45837
96584,45837
96965,45761
97288,45546
97322,45495
97322,47225
" /> 
</g>
<g style="fill:#000000; fill-opacity:1.0; 
stroke:#000000; stroke-width:39.3701; stroke-opacity:1; 
stroke-linecap:round; stroke-linejoin:round;">
<polyline style="fill-rule:evenodd;"
points="102418,16158
101766,16810
100741,16810
100783,16790
100954,16606
101031,16419
100984,16319
100455,16319
100455,16327
100355,16327
100355,16319
99826,16319
99779,16419
99856,16606
100027,16790
100069,16810
97520,16810
97567,16740
97660,16269
97609,16010
99824,16010
99779,16119
99826,16219
100355,16219
100355,16211
100455,16211
100455,16219
100984,16219
101031,16119
100986,16010
101322,16010
101454,16098
101903,16187
102270,16187
102418,16158
" /> 
</g>
<g style="fill:#000000; fill-opacity:0.0; 
stroke:#000000; stroke-width:100; stroke-opacity:1; 
stroke-linecap:round; stroke-linejoin:round;">
<polyline fill="none;"
points="102418,16158
101766,16810
100741,16810
100783,16790
100954,16606
101031,16419
100984,16319
100455,16319
100455,16327
100355,16327
100355,16319
99826,16319
99779,16419
99856,16606
100027,16790
100069,16810
97520,16810
97567,16740
97660,16269
97609,16010
99824,16010
99779,16119
99826,16219
100355,16219
100355,16211
100455,16211
100455,16219
100984,16219
101031,16119
100986,16010
101322,16010
101454,16098
101903,16187
102270,16187
102418,16158
" /> 
</g>
<g style="fill:#000000; fill-opacity:1.0; 
stroke:#000000; stroke-width:39.3701; stroke-opacity:1; 
stroke-linecap:round; stroke-linejoin:round;">
<polyline style="fill-rule:evenodd;"
points="103552,49152
103323,49152
103323,46775
103317,46440
103201,46161
103076,46098
103005,46169
103005,46027
102942,45902
102631,45780
102297,45786
102017,45902
101954,46027
102480,46553
103005,46027
103005,46169
102551,46624
103076,47149
103201,47086
103323,46775
103323,49152
103005,49152
103005,47220
102480,46694
102409,46765
102409,46624
101884,46098
101758,46161
101636,46472
101643,46807
101758,47086
101884,47149
102409,46624
102409,46765
101954,47220
102017,47345
102329,47467
102663,47461
102942,47345
103005,47220
103005,49152
98208,49152
98932,48429
99164,48584
99635,48678
100106,48584
100506,48317
100674,48066
100685,48066
100685,48049
100709,48013
100785,48049
100972,47971
101156,47801
101261,47573
101215,47473
100861,47473
100866,47447
100866,47399
100861,47373
101215,47373
101261,47273
101156,47045
101025,46923
101156,46801
101261,46573
101229,46503
101273,46473
101279,46473
101279,46469
101506,46317
101773,45918
101866,45447
101866,45399
101773,44927
101770,44923
101773,44918
101866,44447
101866,44399
101773,43927
101506,43528
101279,43377
101279,43373
101273,43373
101229,43343
101261,43273
101156,43045
101025,42923
101156,42801
101261,42573
101215,42473
100861,42473
100866,42447
100866,42399
100861,42373
101215,42373
101261,42273
101156,42045
101025,41923
101156,41801
101261,41573
101215,41473
100861,41473
100866,41447
100866,41399
100861,41373
101215,41373
101261,41273
101156,41045
101025,40923
101156,40801
101261,40573
101215,40473
100861,40473
100866,40447
100866,40399
100861,40373
101215,40373
101261,40273
101156,40045
101025,39923
101156,39801
101261,39573
101215,39473
100861,39473
100866,39447
100866,39399
100861,39373
101215,39373
101261,39273
101156,39045
101025,38923
101156,38801
101261,38573
101215,38473
100861,38473
100866,38447
100866,38399
100861,38373
101215,38373
101261,38273
101156,38045
101025,37923
101156,37801
101261,37573
101229,37503
101273,37473
101279,37473
101279,37469
101506,37317
101773,36918
101866,36447
101866,36399
101773,35927
101770,35923
101773,35918
101866,35447
101866,35399
101773,34927
101770,34923
101773,34918
101866,34447
101866,34399
101773,33927
101770,33923
101773,33918
101866,33447
101866,33399
101773,32927
101770,32923
101773,32918
101866,32447
101866,32399
101773,31927
101770,31923
101773,31918
101866,31447
101866,31399
101773,30927
101770,30923
101773,30918
101866,30447
101866,30399
101773,29927
101506,29528
101348,29423
101506,29317
101773,28918
101866,28447
101866,28399
101773,27927
101670,27773
101670,27555
101670,27555
101670,27555
101626,27335
101591,27159
101591,27159
101367,26823
101367,26823
100721,26178
100385,25953
99990,25875
99990,25875
98051,25875
98051,25875
97952,25894
97655,25953
97655,25953
97655,25953
97570,26010
97319,26178
97319,26178
96276,27221
96052,27556
95973,27952
95973,27952
95973,29679
95870,29833
95776,30304
95776,30352
95870,30823
96137,31223
96295,31328
96287,31333
95289,31333
95134,31364
95128,31037
95012,30758
94887,30695
94816,30765
94816,30624
94753,30498
94442,30376
94108,30383
93828,30498
93765,30624
94291,31149
94816,30624
94816,30765
94362,31220
94367,31226
94296,31296
94291,31291
94220,31361
94220,31220
93695,30695
93569,30758
93447,31069
93454,31403
93569,31682
93695,31745
94220,31220
94220,31361
93765,31816
93828,31942
94140,32064
94147,32063
93213,32997
92998,33320
92922,33700
92922,37185
92998,37565
93213,37888
94463,39138
94786,39354
95167,39429
96407,39429
96604,39429
96530,39503
96315,39825
96239,40206
96239,40226
96239,43751
96143,43847
83435,43847
82529,43847
82148,43923
81826,44139
81482,44482
81333,44581
81118,44904
81042,45285
81042,45411
80991,45488
80987,45488
80987,45493
80957,45538
80887,45505
80659,45610
80537,45742
80415,45610
80187,45505
80117,45538
80087,45493
80087,45488
80083,45488
79932,45261
79532,44994
79061,44900
79013,44900
78542,44994
78537,44997
78532,44994
78061,44900
78013,44900
77542,44994
77537,44997
77532,44994
77061,44900
77013,44900
76542,44994
76537,44997
76532,44994
76061,44900
76013,44900
75542,44994
75537,44997
75532,44994
75061,44900
75013,44900
74542,44994
74142,45261
73875,45660
73797,46052
73773,45927
73770,45923
73773,45918
73866,45447
73866,45399
73773,44927
73770,44923
73773,44918
73866,44447
73866,44399
73773,43927
73770,43923
73773,43918
73866,43447
73866,43399
73773,42927
73770,42923
73773,42918
73866,42447
73866,42399
73773,41927
73770,41923
73773,41918
73866,41447
73866,41399
73773,40927
73770,40923
73773,40918
73866,40447
73866,40399
73773,39927
73770,39923
73773,39918
73866,39447
73866,39399
73773,38927
73770,38923
73773,38918
73866,38447
73866,38399
73773,37927
73770,37923
73773,37918
73866,37447
73866,37399
73773,36927
73770,36923
73773,36918
73866,36447
73866,36399
73773,35927
73770,35923
73773,35918
73866,35447
73866,35399
73773,34927
73770,34923
73773,34918
73866,34447
73866,34399
73773,33927
73770,33923
73773,33918
73866,33447
73866,33399
73773,32927
73770,32923
73773,32918
73866,32447
73866,32399
73773,31927
73770,31923
73773,31918
73866,31447
73866,31399
73773,30927
73770,30923
73773,30918
73866,30447
73866,30399
73773,29927
73770,29923
73773,29918
73866,29447
73866,29399
73773,28927
73770,28923
73773,28918
73866,28447
73866,28399
73797,28051
82559,28051
82939,27976
83262,27760
83740,27282
83740,27282
83740,27282
83870,27088
83956,26959
83956,26959
84032,26578
84032,20362
84042,20362
84042,22379
84118,22760
84333,23083
87670,26420
87670,26420
87993,26635
87993,26635
88298,26696
88374,26711
88374,26711
88374,26711
95086,26711
95335,26878
95807,26971
96278,26878
96677,26611
96944,26211
97038,25740
97038,25692
96944,25221
96941,25216
96944,25211
97038,24740
97038,24692
96944,24221
96821,24037
96821,23938
96964,23725
97057,23254
97057,23206
96964,22735
96697,22335
96297,22068
95826,21975
95355,22068
94956,22335
94689,22735
94595,23206
94595,23254
94689,23725
94831,23938
94831,23978
94669,24221
94575,24692
94575,24721
94436,24721
94436,21095
94429,20761
94314,20482
94188,20419
93663,20944
94188,21470
94314,21407
94436,21095
94436,24721
94117,24721
94117,21540
93592,21015
93521,21086
93067,21540
93130,21666
93441,21788
93775,21782
94054,21666
94117,21540
94117,24721
88786,24721
86032,21967
86032,20362
86061,20362
86532,20269
86932,20002
87083,19775
87087,19775
87087,19769
87117,19725
87187,19757
87415,19652
87537,19521
87659,19652
87887,19757
87957,19725
87987,19769
87987,19775
87991,19775
88142,20002
88542,20269
89013,20362
89061,20362
89532,20269
89537,20266
89542,20269
90013,20362
90061,20362
90532,20269
90537,20266
90542,20269
91013,20362
91061,20362
91532,20269
91537,20266
91542,20269
92013,20362
92061,20362
92532,20269
92537,20266
92542,20269
92971,20354
92951,20374
92996,20419
92870,20482
92748,20793
92755,21128
92870,21407
92996,21470
93521,20944
93516,20939
93586,20868
93592,20874
94117,20348
94054,20223
93769,20111
93932,20002
94083,19775
94087,19775
94087,19769
94117,19725
94187,19757
94415,19652
94585,19468
94621,19383
94689,19725
94956,20124
95355,20391
95826,20485
96297,20391
96697,20124
96964,19725
97057,19254
97057,19206
96992,18878
102194,18878
102194,18878
102194,18878
102590,18800
102590,18800
102926,18575
103552,17949
103552,49152
" /> 
</g>
<g style="fill:#000000; fill-opacity:0.0; 
stroke:#000000; stroke-width:100; stroke-opacity:1; 
stroke-linecap:round; stroke-linejoin:round;">
<polyline fill="none;"
points="103552,49152
103323,49152
103323,46775
103317,46440
103201,46161
103076,46098
103005,46169
103005,46027
102942,45902
102631,45780
102297,45786
102017,45902
101954,46027
102480,46553
103005,46027
103005,46169
102551,46624
103076,47149
103201,47086
103323,46775
103323,49152
103005,49152
103005,47220
102480,46694
102409,46765
102409,46624
101884,46098
101758,46161
101636,46472
101643,46807
101758,47086
101884,47149
102409,46624
102409,46765
101954,47220
102017,47345
102329,47467
102663,47461
102942,47345
103005,47220
103005,49152
98208,49152
98932,48429
99164,48584
99635,48678
100106,48584
100506,48317
100674,48066
100685,48066
100685,48049
100709,48013
100785,48049
100972,47971
101156,47801
101261,47573
101215,47473
100861,47473
100866,47447
100866,47399
100861,47373
101215,47373
101261,47273
101156,47045
101025,46923
101156,46801
101261,46573
101229,46503
101273,46473
101279,46473
101279,46469
101506,46317
101773,45918
101866,45447
101866,45399
101773,44927
101770,44923
101773,44918
101866,44447
101866,44399
101773,43927
101506,43528
101279,43377
101279,43373
101273,43373
101229,43343
101261,43273
101156,43045
101025,42923
101156,42801
101261,42573
101215,42473
100861,42473
100866,42447
100866,42399
100861,42373
101215,42373
101261,42273
101156,42045
101025,41923
101156,41801
101261,41573
101215,41473
100861,41473
100866,41447
100866,41399
100861,41373
101215,41373
101261,41273
101156,41045
101025,40923
101156,40801
101261,40573
101215,40473
100861,40473
100866,40447
100866,40399
100861,40373
101215,40373
101261,40273
101156,40045
101025,39923
101156,39801
101261,39573
101215,39473
100861,39473
100866,39447
100866,39399
100861,39373
101215,39373
101261,39273
101156,39045
101025,38923
101156,38801
101261,38573
101215,38473
100861,38473
100866,38447
100866,38399
100861,38373
101215,38373
101261,38273
101156,38045
101025,37923
101156,37801
101261,37573
101229,37503
101273,37473
101279,37473
101279,37469
101506,37317
101773,36918
101866,36447
101866,36399
101773,35927
101770,35923
101773,35918
101866,35447
101866,35399
101773,34927
101770,34923
101773,34918
101866,34447
101866,34399
101773,33927
101770,33923
101773,33918
101866,33447
101866,33399
101773,32927
101770,32923
101773,32918
101866,32447
101866,32399
101773,31927
101770,31923
101773,31918
101866,31447
101866,31399
101773,30927
101770,30923
101773,30918
101866,30447
101866,30399
101773,29927
101506,29528
101348,29423
101506,29317
101773,28918
101866,28447
101866,28399
101773,27927
101670,27773
101670,27555
101670,27555
101670,27555
101626,27335
101591,27159
101591,27159
101367,26823
101367,26823
100721,26178
100385,25953
99990,25875
99990,25875
98051,25875
98051,25875
97952,25894
97655,25953
97655,25953
97655,25953
97570,26010
97319,26178
97319,26178
96276,27221
96052,27556
95973,27952
95973,27952
95973,29679
95870,29833
95776,30304
95776,30352
95870,30823
96137,31223
96295,31328
96287,31333
95289,31333
95134,31364
95128,31037
95012,30758
94887,30695
94816,30765
94816,30624
94753,30498
94442,30376
94108,30383
93828,30498
93765,30624
94291,31149
94816,30624
94816,30765
94362,31220
94367,31226
94296,31296
94291,31291
94220,31361
94220,31220
93695,30695
93569,30758
93447,31069
93454,31403
93569,31682
93695,31745
94220,31220
94220,31361
93765,31816
93828,31942
94140,32064
94147,32063
93213,32997
92998,33320
92922,33700
92922,37185
92998,37565
93213,37888
94463,39138
94786,39354
95167,39429
96407,39429
96604,39429
96530,39503
96315,39825
96239,40206
96239,40226
96239,43751
96143,43847
83435,43847
82529,43847
82148,43923
81826,44139
81482,44482
81333,44581
81118,44904
81042,45285
81042,45411
80991,45488
80987,45488
80987,45493
80957,45538
80887,45505
80659,45610
80537,45742
80415,45610
80187,45505
80117,45538
80087,45493
80087,45488
80083,45488
79932,45261
79532,44994
79061,44900
79013,44900
78542,44994
78537,44997
78532,44994
78061,44900
78013,44900
77542,44994
77537,44997
77532,44994
77061,44900
77013,44900
76542,44994
76537,44997
76532,44994
76061,44900
76013,44900
75542,44994
75537,44997
75532,44994
75061,44900
75013,44900
74542,44994
74142,45261
73875,45660
73797,46052
73773,45927
73770,45923
73773,45918
73866,45447
73866,45399
73773,44927
73770,44923
73773,44918
73866,44447
73866,44399
73773,43927
73770,43923
73773,43918
73866,43447
73866,43399
73773,42927
73770,42923
73773,42918
73866,42447
73866,42399
73773,41927
73770,41923
73773,41918
73866,41447
73866,41399
73773,40927
73770,40923
73773,40918
73866,40447
73866,40399
73773,39927
73770,39923
73773,39918
73866,39447
73866,39399
73773,38927
73770,38923
73773,38918
73866,38447
73866,38399
73773,37927
73770,37923
73773,37918
73866,37447
73866,37399
73773,36927
73770,36923
73773,36918
73866,36447
73866,36399
73773,35927
73770,35923
73773,35918
73866,35447
73866,35399
73773,34927
73770,34923
73773,34918
73866,34447
73866,34399
73773,33927
73770,33923
73773,33918
73866,33447
73866,33399
73773,32927
73770,32923
73773,32918
73866,32447
73866,32399
73773,31927
73770,31923
73773,31918
73866,31447
73866,31399
73773,30927
73770,30923
73773,30918
73866,30447
73866,30399
73773,29927
73770,29923
73773,29918
73866,29447
73866,29399
73773,28927
73770,28923
73773,28918
73866,28447
73866,28399
73797,28051
82559,28051
82939,27976
83262,27760
83740,27282
83740,27282
83740,27282
83870,27088
83956,26959
83956,26959
84032,26578
84032,20362
84042,20362
84042,22379
84118,22760
84333,23083
87670,26420
87670,26420
87993,26635
87993,26635
88298,26696
88374,26711
88374,26711
88374,26711
95086,26711
95335,26878
95807,26971
96278,26878
96677,26611
96944,26211
97038,25740
97038,25692
96944,25221
96941,25216
96944,25211
97038,24740
97038,24692
96944,24221
96821,24037
96821,23938
96964,23725
97057,23254
97057,23206
96964,22735
96697,22335
96297,22068
95826,21975
95355,22068
94956,22335
94689,22735
94595,23206
94595,23254
94689,23725
94831,23938
94831,23978
94669,24221
94575,24692
94575,24721
94436,24721
94436,21095
94429,20761
94314,20482
94188,20419
93663,20944
94188,21470
94314,21407
94436,21095
94436,24721
94117,24721
94117,21540
93592,21015
93521,21086
93067,21540
93130,21666
93441,21788
93775,21782
94054,21666
94117,21540
94117,24721
88786,24721
86032,21967
86032,20362
86061,20362
86532,20269
86932,20002
87083,19775
87087,19775
87087,19769
87117,19725
87187,19757
87415,19652
87537,19521
87659,19652
87887,19757
87957,19725
87987,19769
87987,19775
87991,19775
88142,20002
88542,20269
89013,20362
89061,20362
89532,20269
89537,20266
89542,20269
90013,20362
90061,20362
90532,20269
90537,20266
90542,20269
91013,20362
91061,20362
91532,20269
91537,20266
91542,20269
92013,20362
92061,20362
92532,20269
92537,20266
92542,20269
92971,20354
92951,20374
92996,20419
92870,20482
92748,20793
92755,21128
92870,21407
92996,21470
93521,20944
93516,20939
93586,20868
93592,20874
94117,20348
94054,20223
93769,20111
93932,20002
94083,19775
94087,19775
94087,19769
94117,19725
94187,19757
94415,19652
94585,19468
94621,19383
94689,19725
94956,20124
95355,20391
95826,20485
96297,20391
96697,20124
96964,19725
97057,19254
97057,19206
96992,18878
102194,18878
102194,18878
102194,18878
102590,18800
102590,18800
102926,18575
103552,17949
103552,49152
" /> 
</g>
<g style="fill:#FFFFFF; fill-opacity:0.0; 
stroke:#FFFFFF; stroke-width:39.3701; stroke-opacity:1; 
stroke-linecap:round; stroke-linejoin:round;">
</g>
<g style="fill:#FFFFFF; fill-opacity:1.0; 
stroke:#FFFFFF; stroke-width:39.3701; stroke-opacity:1; 
stroke-linecap:round; stroke-linejoin:round;">
<circle cx="90059.1" cy="14507.9" r="118.11" /> 
<circle cx="88503.9" cy="14507.9" r="118.11" /> 
<circle cx="91614.2" cy="14507.9" r="118.11" /> 
<circle cx="86929.1" cy="14507.9" r="118.11" /> 
<circle cx="102087" cy="13015.7" r="118.11" /> 
<circle cx="102087" cy="14015.7" r="118.11" /> 
<circle cx="102087" cy="15015.7" r="118.11" /> 
<circle cx="96405.5" cy="16269.7" r="118.11" /> 
<circle cx="100406" cy="16269.7" r="118.11" /> 
<circle cx="95826.8" cy="19230.3" r="118.11" /> 
<circle cx="95826.8" cy="23230.3" r="118.11" /> 
<circle cx="94862.2" cy="11070.9" r="118.11" /> 
<circle cx="94862.2" cy="15070.9" r="118.11" /> 
<circle cx="67470.5" cy="16921.3" r="118.11" /> 
<circle cx="67470.5" cy="17921.3" r="118.11" /> 
<circle cx="97007.9" cy="30328.7" r="118.11" /> 
<circle cx="97007.9" cy="31328.7" r="118.11" /> 
<circle cx="97007.9" cy="32328.7" r="118.11" /> 
<circle cx="97007.9" cy="33328.7" r="118.11" /> 
<circle cx="97007.9" cy="34328.7" r="118.11" /> 
<circle cx="97007.9" cy="35328.7" r="118.11" /> 
<circle cx="97007.9" cy="36328.7" r="118.11" /> 
<circle cx="97007.9" cy="37328.7" r="118.11" /> 
<circle cx="75037.4" cy="47131.9" r="118.11" /> 
<circle cx="75037.4" cy="46131.9" r="118.11" /> 
<circle cx="76037.4" cy="47131.9" r="118.11" /> 
<circle cx="76037.4" cy="46131.9" r="118.11" /> 
<circle cx="77037.4" cy="47131.9" r="118.11" /> 
<circle cx="77037.4" cy="46131.9" r="118.11" /> 
<circle cx="78037.4" cy="47131.9" r="118.11" /> 
<circle cx="78037.4" cy="46131.9" r="118.11" /> 
<circle cx="79037.4" cy="47131.9" r="118.11" /> 
<circle cx="79037.4" cy="46131.9" r="118.11" /> 
<circle cx="80037.4" cy="47131.9" r="118.11" /> 
<circle cx="80037.4" cy="46131.9" r="118.11" /> 
<circle cx="81037.4" cy="47131.9" r="118.11" /> 
<circle cx="81037.4" cy="46131.9" r="118.11" /> 
<circle cx="82037.4" cy="47131.9" r="118.11" /> 
<circle cx="82037.4" cy="46131.9" r="118.11" /> 
<circle cx="83037.4" cy="47131.9" r="118.11" /> 
<circle cx="83037.4" cy="46131.9" r="118.11" /> 
<circle cx="84037.4" cy="47131.9" r="118.11" /> 
<circle cx="84037.4" cy="46131.9" r="118.11" /> 
<circle cx="85037.4" cy="47131.9" r="118.11" /> 
<circle cx="85037.4" cy="46131.9" r="118.11" /> 
<circle cx="86037.4" cy="47131.9" r="118.11" /> 
<circle cx="86037.4" cy="46131.9" r="118.11" /> 
<circle cx="87037.4" cy="47131.9" r="118.11" /> 
<circle cx="87037.4" cy="46131.9" r="118.11" /> 
<circle cx="88037.4" cy="47131.9" r="118.11" /> 
<circle cx="88037.4" cy="46131.9" r="118.11" /> 
<circle cx="89037.4" cy="47131.9" r="118.11" /> 
<circle cx="89037.4" cy="46131.9" r="118.11" /> 
<circle cx="90037.4" cy="47131.9" r="118.11" /> 
<circle cx="90037.4" cy="46131.9" r="118.11" /> 
<circle cx="91037.4" cy="47131.9" r="118.11" /> 
<circle cx="91037.4" cy="46131.9" r="118.11" /> 
<circle cx="92037.4" cy="47131.9" r="118.11" /> 
<circle cx="92037.4" cy="46131.9" r="118.11" /> 
<circle cx="93037.4" cy="47131.9" r="118.11" /> 
<circle cx="93037.4" cy="46131.9" r="118.11" /> 
<circle cx="94037.4" cy="47131.9" r="118.11" /> 
<circle cx="94037.4" cy="46131.9" r="118.11" /> 
<circle cx="75037.4" cy="19131.9" r="118.11" /> 
<circle cx="75037.4" cy="18131.9" r="118.11" /> 
<circle cx="76037.4" cy="19131.9" r="118.11" /> 
<circle cx="76037.4" cy="18131.9" r="118.11" /> 
<circle cx="77037.4" cy="19131.9" r="118.11" /> 
<circle cx="77037.4" cy="18131.9" r="118.11" /> 
<circle cx="78037.4" cy="19131.9" r="118.11" /> 
<circle cx="78037.4" cy="18131.9" r="118.11" /> 
<circle cx="79037.4" cy="19131.9" r="118.11" /> 
<circle cx="79037.4" cy="18131.9" r="118.11" /> 
<circle cx="80037.4" cy="19131.9" r="118.11" /> 
<circle cx="80037.4" cy="18131.9" r="118.11" /> 
<circle cx="81037.4" cy="19131.9" r="118.11" /> 
<circle cx="81037.4" cy="18131.9" r="118.11" /> 
<circle cx="82037.4" cy="19131.9" r="118.11" /> 
<circle cx="82037.4" cy="18131.9" r="118.11" /> 
<circle cx="83037.4" cy="19131.9" r="118.11" /> 
<circle cx="83037.4" cy="18131.9" r="118.11" /> 
<circle cx="84037.4" cy="19131.9" r="118.11" /> 
<circle cx="84037.4" cy="18131.9" r="118.11" /> 
<circle cx="85037.4" cy="19131.9" r="118.11" /> 
<circle cx="85037.4" cy="18131.9" r="118.11" /> 
<circle cx="86037.4" cy="19131.9" r="118.11" /> 
<circle cx="86037.4" cy="18131.9" r="118.11" /> 
<circle cx="87037.4" cy="19131.9" r="118.11" /> 
<circle cx="87037.4" cy="18131.9" r="118.11" /> 
<circle cx="88037.4" cy="19131.9" r="118.11" /> 
<circle cx="88037.4" cy="18131.9" r="118.11" /> 
<circle cx="89037.4" cy="19131.9" r="118.11" /> 
<circle cx="89037.4" cy="18131.9" r="118.11" /> 
<circle cx="90037.4" cy="19131.9" r="118.11" /> 
<circle cx="90037.4" cy="18131.9" r="118.11" /> 
<circle cx="91037.4" cy="19131.9" r="118.11" /> 
<circle cx="91037.4" cy="18131.9" r="118.11" /> 
<circle cx="92037.4" cy="19131.9" r="118.11" /> 
<circle cx="92037.4" cy="18131.9" r="118.11" /> 
<circle cx="93037.4" cy="19131.9" r="118.11" /> 
<circle cx="93037.4" cy="18131.9" r="118.11" /> 
<circle cx="94037.4" cy="19131.9" r="118.11" /> 
<circle cx="94037.4" cy="18131.9" r="118.11" /> 
<circle cx="99635.8" cy="28423.2" r="118.11" /> 
<circle cx="100636" cy="28423.2" r="118.11" /> 
<circle cx="99635.8" cy="29423.2" r="118.11" /> 
<circle cx="100636" cy="29423.2" r="118.11" /> 
<circle cx="99635.8" cy="30423.2" r="118.11" /> 
<circle cx="100636" cy="30423.2" r="118.11" /> 
<circle cx="99635.8" cy="31423.2" r="118.11" /> 
<circle cx="100636" cy="31423.2" r="118.11" /> 
<circle cx="99635.8" cy="32423.2" r="118.11" /> 
<circle cx="100636" cy="32423.2" r="118.11" /> 
<circle cx="99635.8" cy="33423.2" r="118.11" /> 
<circle cx="100636" cy="33423.2" r="118.11" /> 
<circle cx="99635.8" cy="34423.2" r="118.11" /> 
<circle cx="100636" cy="34423.2" r="118.11" /> 
<circle cx="99635.8" cy="35423.2" r="118.11" /> 
<circle cx="100636" cy="35423.2" r="118.11" /> 
<circle cx="99635.8" cy="36423.2" r="118.11" /> 
<circle cx="100636" cy="36423.2" r="118.11" /> 
<circle cx="99635.8" cy="37423.2" r="118.11" /> 
<circle cx="100636" cy="37423.2" r="118.11" /> 
<circle cx="99635.8" cy="38423.2" r="118.11" /> 
<circle cx="100636" cy="38423.2" r="118.11" /> 
<circle cx="99635.8" cy="39423.2" r="118.11" /> 
<circle cx="100636" cy="39423.2" r="118.11" /> 
<circle cx="99635.8" cy="40423.2" r="118.11" /> 
<circle cx="100636" cy="40423.2" r="118.11" /> 
<circle cx="99635.8" cy="41423.2" r="118.11" /> 
<circle cx="100636" cy="41423.2" r="118.11" /> 
<circle cx="99635.8" cy="42423.2" r="118.11" /> 
<circle cx="100636" cy="42423.2" r="118.11" /> 
<circle cx="99635.8" cy="43423.2" r="118.11" /> 
<circle cx="100636" cy="43423.2" r="118.11" /> 
<circle cx="99635.8" cy="44423.2" r="118.11" /> 
<circle cx="100636" cy="44423.2" r="118.11" /> 
<circle cx="99635.8" cy="45423.2" r="118.11" /> 
<circle cx="100636" cy="45423.2" r="118.11" /> 
<circle cx="99635.8" cy="46423.2" r="118.11" /> 
<circle cx="100636" cy="46423.2" r="118.11" /> 
<circle cx="99635.8" cy="47423.2" r="118.11" /> 
<circle cx="100636" cy="47423.2" r="118.11" /> 
<circle cx="71635.8" cy="28423.2" r="118.11" /> 
<circle cx="72635.8" cy="28423.2" r="118.11" /> 
<circle cx="71635.8" cy="29423.2" r="118.11" /> 
<circle cx="72635.8" cy="29423.2" r="118.11" /> 
<circle cx="71635.8" cy="30423.2" r="118.11" /> 
<circle cx="72635.8" cy="30423.2" r="118.11" /> 
<circle cx="71635.8" cy="31423.2" r="118.11" /> 
<circle cx="72635.8" cy="31423.2" r="118.11" /> 
<circle cx="71635.8" cy="32423.2" r="118.11" /> 
<circle cx="72635.8" cy="32423.2" r="118.11" /> 
<circle cx="71635.8" cy="33423.2" r="118.11" /> 
<circle cx="72635.8" cy="33423.2" r="118.11" /> 
<circle cx="71635.8" cy="34423.2" r="118.11" /> 
<circle cx="72635.8" cy="34423.2" r="118.11" /> 
<circle cx="71635.8" cy="35423.2" r="118.11" /> 
<circle cx="72635.8" cy="35423.2" r="118.11" /> 
<circle cx="71635.8" cy="36423.2" r="118.11" /> 
<circle cx="72635.8" cy="36423.2" r="118.11" /> 
<circle cx="71635.8" cy="37423.2" r="118.11" /> 
<circle cx="72635.8" cy="37423.2" r="118.11" /> 
<circle cx="71635.8" cy="38423.2" r="118.11" /> 
<circle cx="72635.8" cy="38423.2" r="118.11" /> 
<circle cx="71635.8" cy="39423.2" r="118.11" /> 
<circle cx="72635.8" cy="39423.2" r="118.11" /> 
<circle cx="71635.8" cy="40423.2" r="118.11" /> 
<circle cx="72635.8" cy="40423.2" r="118.11" /> 
<circle cx="71635.8" cy="41423.2" r="118.11" /> 
<circle cx="72635.8" cy="41423.2" r="118.11" /> 
<circle cx="71635.8" cy="42423.2" r="118.11" /> 
<circle cx="72635.8" cy="42423.2" r="118.11" /> 
<circle cx="71635.8" cy="43423.2" r="118.11" /> 
<circle cx="72635.8" cy="43423.2" r="118.11" /> 
<circle cx="71635.8" cy="44423.2" r="118.11" /> 
<circle cx="72635.8" cy="44423.2" r="118.11" /> 
<circle cx="71635.8" cy="45423.2" r="118.11" /> 
<circle cx="72635.8" cy="45423.2" r="118.11" /> 
<circle cx="71635.8" cy="46423.2" r="118.11" /> 
<circle cx="72635.8" cy="46423.2" r="118.11" /> 
<circle cx="71635.8" cy="47423.2" r="118.11" /> 
<circle cx="72635.8" cy="47423.2" r="118.11" /> 
<circle cx="73065" cy="12933.1" r="118.11" /> 
<circle cx="74065" cy="12933.1" r="118.11" /> 
<circle cx="75065" cy="12933.1" r="118.11" /> 
<circle cx="95807.1" cy="24716.5" r="118.11" /> 
<circle cx="95807.1" cy="25716.5" r="118.11" /> 
<circle cx="96289.4" cy="12000" r="118.11" /> 
<circle cx="96289.4" cy="13000" r="118.11" /> 
<circle cx="99832.7" cy="14023.6" r="118.11" /> 
<circle cx="99832.7" cy="13023.6" r="118.11" /> 
<circle cx="76614.2" cy="12944.9" r="118.11" /> 
<circle cx="76614.2" cy="13944.9" r="118.11" /> 
<circle cx="71112.2" cy="12964.6" r="118.11" /> 
<circle cx="71112.2" cy="13964.6" r="118.11" /> 
<circle cx="98070.9" cy="12029.5" r="118.11" /> 
<circle cx="98070.9" cy="13029.5" r="118.11" /> 
<circle cx="78474.4" cy="12944.9" r="118.11" /> 
<circle cx="78474.4" cy="13944.9" r="118.11" /> 
<circle cx="68503.9" cy="19813" r="118.11" /> 
<circle cx="77598.4" cy="21151.6" r="118.11" /> 
<circle cx="95147.6" cy="36318.9" r="118.11" /> 
<circle cx="95944.9" cy="46594.5" r="118.11" /> 
<circle cx="69872" cy="47362.2" r="118.11" /> 
<circle cx="102480" cy="46624" r="118.11" /> 
<circle cx="77687" cy="15492.1" r="118.11" /> 
<circle cx="93592.5" cy="20944.9" r="118.11" /> 
<circle cx="81645.7" cy="13895.7" r="118.11" /> 
<circle cx="81645.7" cy="12895.7" r="118.11" /> 
<circle cx="82645.7" cy="13895.7" r="118.11" /> 
<circle cx="82645.7" cy="12895.7" r="118.11" /> 
<circle cx="94291.3" cy="31220.5" r="118.11" /> 
</g> 
</svg>
