<?xml version="1.0" standalone="no"?>
 <!DOCTYPE svg PUBLIC "-//W3C//DTD SVG 1.1//EN" 
 "http://www.w3.org/Graphics/SVG/1.1/DTD/svg11.dtd"> 
<svg xmlns="http://www.w3.org/2000/svg" version="1.1" 
    width="29.7002cm" height="21.0007cm" viewBox="0 0 116930 82680 ">
<title>SVG Picture created as poncho_rescatAR--brd.svg date 2015/12/02 18:51:49 </title>
  <desc>Picture generated by PCBNEW </desc>
<g style="fill:#000000; fill-opacity:1;stroke:#000000; stroke-opacity:1;
stroke-linecap:round; stroke-linejoin:round; "
 transform="translate(0 0) scale(1 1)">
</g>
<g style="fill:#000000; fill-opacity:0.0; 
stroke:#000000; stroke-width:78.7402; stroke-opacity:1; 
stroke-linecap:round; stroke-linejoin:round;">
<path d="M108592 49763
L69222 49763
" />
<path d="M108592 10393
L108592 49763
" />
<path d="M69222 10393
L108592 10393
" />
<path d="M69222 49763
L69222 10393
" />
<path d="M72627 49753
L106092 49753
" />
</g>
<g style="fill:#000000; fill-opacity:0.0; 
stroke:#000000; stroke-width:80; stroke-opacity:1; 
stroke-linecap:round; stroke-linejoin:round;">
<path d="M99041 10645
L99098 10664
L99118 10683
L99137 10721
L99137 10778
L99118 10816
L99098 10835
L99060 10854
L98908 10854
L98908 10454
L99041 10454
L99079 10473
L99098 10492
L99118 10531
L99118 10569
L99098 10607
L99079 10626
L99041 10645
L98908 10645
" />
<path d="M99289 10740
L99479 10740
" />
<path d="M99251 10854
L99384 10454
L99518 10854
" />
<path d="M99594 10454
L99822 10454
" />
<path d="M99708 10854
L99708 10454
" />
<path d="M100165 10854
L99937 10854
" />
<path d="M100051 10854
L100051 10454
L100013 10511
L99975 10550
L99937 10569
" />
<path d="M104731 18808
L105217 18808
L105274 18789
L105302 18770
L105331 18732
L105331 18656
L105302 18618
L105274 18599
L105217 18580
L104731 18580
" />
<path d="M105331 18180
L105331 18408
" />
<path d="M105331 18294
L104731 18294
L104817 18332
L104874 18370
L104902 18408
" />
<path d="M105760 16246
L105569 16246
L105569 15646
" />
<path d="M105893 16246
L105893 15646
L106026 16075
L106160 15646
L106160 16246
" />
<path d="M106312 15646
L106560 15646
L106426 15875
L106483 15875
L106521 15903
L106540 15932
L106560 15989
L106560 16132
L106540 16189
L106521 16218
L106483 16246
L106369 16246
L106331 16218
L106312 16189
" />
<path d="M106940 16246
L106712 16246
" />
<path d="M106826 16246
L106826 15646
L106788 15732
L106750 15789
L106712 15818
" />
<path d="M107074 15646
L107340 15646
L107169 16246
" />
<path d="M107436 15646
L107664 15646
" />
<path d="M107550 16246
L107550 15646
" />
<path d="M100360 23065
L100098 23232
" />
<path d="M100360 23351
L99810 23351
L99810 23160
L99836 23113
L99862 23089
L99915 23065
L99993 23065
L100046 23089
L100072 23113
L100098 23160
L100098 23351
" />
<path d="M99993 22637
L100360 22637
" />
<path d="M99784 22756
L100177 22875
L100177 22565
" />
<path d="M102466 24778
L102204 24944
" />
<path d="M102466 25063
L101916 25063
L101916 24873
L101942 24825
L101969 24802
L102021 24778
L102100 24778
L102152 24802
L102178 24825
L102204 24873
L102204 25063
" />
<path d="M102466 24302
L102466 24587
" />
<path d="M102466 24444
L101916 24444
L101995 24492
L102047 24540
L102073 24587
" />
<path d="M101659 17534
L101397 17700
" />
<path d="M101659 17819
L101109 17819
L101109 17629
L101135 17581
L101162 17557
L101214 17534
L101292 17534
L101345 17557
L101371 17581
L101397 17629
L101397 17819
" />
<path d="M101109 17081
L101109 17319
L101371 17343
L101345 17319
L101319 17272
L101319 17153
L101345 17105
L101371 17081
L101423 17057
L101554 17057
L101607 17081
L101633 17105
L101659 17153
L101659 17272
L101633 17319
L101607 17343
" />
</g>
<g style="fill:#000000; fill-opacity:0.0; 
stroke:#000000; stroke-width:47.2441; stroke-opacity:1; 
stroke-linecap:round; stroke-linejoin:round;">
<path d="M73759 18067
L73444 18067
L73444 17947
L73459 17917
L73474 17902
L73504 17887
L73549 17887
L73579 17902
L73594 17917
L73609 17947
L73609 18067
" />
<path d="M73759 17587
L73759 17767
" />
<path d="M73759 17677
L73444 17677
L73489 17707
L73519 17737
L73534 17767
" />
<path d="M70408 18464
L70408 18614
L70558 18629
L70543 18614
L70528 18584
L70528 18509
L70543 18479
L70558 18464
L70588 18449
L70663 18449
L70693 18464
L70708 18479
L70723 18509
L70723 18584
L70708 18614
L70693 18629
" />
<path d="M70408 18359
L70723 18254
L70408 18149
" />
<path d="M70753 18119
L70753 17879
" />
<path d="M70408 17744
L70408 17684
L70423 17654
L70453 17624
L70513 17609
L70618 17609
L70678 17624
L70708 17654
L70723 17684
L70723 17744
L70708 17774
L70678 17804
L70618 17819
L70513 17819
L70453 17804
L70423 17774
L70408 17744
" />
<path d="M70408 17474
L70663 17474
L70693 17459
L70708 17444
L70723 17414
L70723 17354
L70708 17324
L70693 17309
L70663 17294
L70408 17294
" />
<path d="M70408 17189
L70408 17009
" />
<path d="M70723 17099
L70408 17099
" />
</g>
<g style="fill:#000000; fill-opacity:0.0; 
stroke:#000000; stroke-width:80; stroke-opacity:1; 
stroke-linecap:round; stroke-linejoin:round;">
<path d="M102645 34537
L102245 34537
L102245 34384
L102264 34346
L102283 34327
L102321 34308
L102379 34308
L102417 34327
L102436 34346
L102455 34384
L102455 34537
" />
<path d="M102283 34156
L102264 34137
L102245 34099
L102245 34004
L102264 33965
L102283 33946
L102321 33927
L102360 33927
L102417 33946
L102645 34175
L102645 33927
" />
<path d="M87744 45669
L87725 45688
L87668 45707
L87630 45707
L87572 45688
L87534 45650
L87515 45611
L87496 45535
L87496 45478
L87515 45402
L87534 45364
L87572 45326
L87630 45307
L87668 45307
L87725 45326
L87744 45345
" />
<path d="M87991 45307
L88068 45307
L88106 45326
L88144 45364
L88163 45440
L88163 45573
L88144 45650
L88106 45688
L88068 45707
L87991 45707
L87953 45688
L87915 45650
L87896 45573
L87896 45440
L87915 45364
L87953 45326
L87991 45307
" />
<path d="M88334 45707
L88334 45307
L88563 45707
L88563 45307
" />
<path d="M88658 45745
L88963 45745
" />
<path d="M89039 45688
L89096 45707
L89191 45707
L89230 45688
L89249 45669
L89268 45630
L89268 45592
L89249 45554
L89230 45535
L89191 45516
L89115 45497
L89077 45478
L89058 45459
L89039 45421
L89039 45383
L89058 45345
L89077 45326
L89115 45307
L89211 45307
L89268 45326
" />
<path d="M89515 45307
L89591 45307
L89630 45326
L89668 45364
L89687 45440
L89687 45573
L89668 45650
L89630 45688
L89591 45707
L89515 45707
L89477 45688
L89439 45650
L89420 45573
L89420 45440
L89439 45364
L89477 45326
L89515 45307
" />
<path d="M90068 45707
L89839 45707
" />
<path d="M89953 45707
L89953 45307
L89915 45364
L89877 45402
L89839 45421
" />
<path d="M90315 45307
L90353 45307
L90391 45326
L90411 45345
L90430 45383
L90449 45459
L90449 45554
L90430 45630
L90411 45669
L90391 45688
L90353 45707
L90315 45707
L90277 45688
L90258 45669
L90239 45630
L90220 45554
L90220 45459
L90239 45383
L90258 45345
L90277 45326
L90315 45307
" />
<path d="M90830 45707
L90601 45707
" />
<path d="M90715 45707
L90715 45307
L90677 45364
L90639 45402
L90601 45421
" />
<path d="M87744 17669
L87725 17688
L87668 17707
L87630 17707
L87572 17688
L87534 17650
L87515 17611
L87496 17535
L87496 17478
L87515 17402
L87534 17364
L87572 17326
L87630 17307
L87668 17307
L87725 17326
L87744 17345
" />
<path d="M87991 17307
L88068 17307
L88106 17326
L88144 17364
L88163 17440
L88163 17573
L88144 17650
L88106 17688
L88068 17707
L87991 17707
L87953 17688
L87915 17650
L87896 17573
L87896 17440
L87915 17364
L87953 17326
L87991 17307
" />
<path d="M88334 17707
L88334 17307
L88563 17707
L88563 17307
" />
<path d="M88658 17745
L88963 17745
" />
<path d="M89039 17688
L89096 17707
L89191 17707
L89230 17688
L89249 17669
L89268 17630
L89268 17592
L89249 17554
L89230 17535
L89191 17516
L89115 17497
L89077 17478
L89058 17459
L89039 17421
L89039 17383
L89058 17345
L89077 17326
L89115 17307
L89211 17307
L89268 17326
" />
<path d="M89515 17307
L89591 17307
L89630 17326
L89668 17364
L89687 17440
L89687 17573
L89668 17650
L89630 17688
L89591 17707
L89515 17707
L89477 17688
L89439 17650
L89420 17573
L89420 17440
L89439 17364
L89477 17326
L89515 17307
" />
<path d="M90068 17707
L89839 17707
" />
<path d="M89953 17707
L89953 17307
L89915 17364
L89877 17402
L89839 17421
" />
<path d="M90315 17307
L90353 17307
L90391 17326
L90411 17345
L90430 17383
L90449 17459
L90449 17554
L90430 17630
L90411 17669
L90391 17688
L90353 17707
L90315 17707
L90277 17688
L90258 17669
L90239 17630
L90220 17554
L90220 17459
L90239 17383
L90258 17345
L90277 17326
L90315 17307
" />
<path d="M90791 17440
L90791 17707
" />
<path d="M90696 17288
L90601 17573
L90849 17573
" />
<path d="M106385 40041
L106404 40060
L106423 40117
L106423 40155
L106404 40212
L106366 40250
L106328 40269
L106252 40288
L106195 40288
L106118 40269
L106080 40250
L106042 40212
L106023 40155
L106023 40117
L106042 40060
L106061 40041
" />
<path d="M106023 39793
L106023 39717
L106042 39679
L106080 39641
L106157 39622
L106290 39622
L106366 39641
L106404 39679
L106423 39717
L106423 39793
L106404 39831
L106366 39869
L106290 39888
L106157 39888
L106080 39869
L106042 39831
L106023 39793
" />
<path d="M106423 39450
L106023 39450
L106423 39222
L106023 39222
" />
<path d="M106461 39127
L106461 38822
" />
<path d="M106214 38727
L106214 38593
" />
<path d="M106423 38536
L106423 38727
L106023 38727
L106023 38536
" />
<path d="M106271 38365
L106271 38060
" />
<path d="M106385 37641
L106404 37660
L106423 37717
L106423 37755
L106404 37812
L106366 37850
L106328 37869
L106252 37888
L106195 37888
L106118 37869
L106080 37850
L106042 37812
L106023 37755
L106023 37717
L106042 37660
L106061 37641
" />
<path d="M106423 37469
L106023 37469
" />
<path d="M106309 37298
L106309 37108
" />
<path d="M106423 37336
L106023 37203
L106423 37069
" />
<path d="M106309 36955
L106309 36765
" />
<path d="M106423 36993
L106023 36860
L106423 36727
" />
<path d="M106423 36384
L106423 36612
" />
<path d="M106423 36498
L106023 36498
L106080 36536
L106118 36574
L106138 36612
" />
<path d="M78385 40041
L78404 40060
L78423 40117
L78423 40155
L78404 40212
L78366 40250
L78328 40269
L78252 40288
L78195 40288
L78118 40269
L78080 40250
L78042 40212
L78023 40155
L78023 40117
L78042 40060
L78061 40041
" />
<path d="M78023 39793
L78023 39717
L78042 39679
L78080 39641
L78157 39622
L78290 39622
L78366 39641
L78404 39679
L78423 39717
L78423 39793
L78404 39831
L78366 39869
L78290 39888
L78157 39888
L78080 39869
L78042 39831
L78023 39793
" />
<path d="M78423 39450
L78023 39450
L78423 39222
L78023 39222
" />
<path d="M78461 39127
L78461 38822
" />
<path d="M78214 38727
L78214 38593
" />
<path d="M78423 38536
L78423 38727
L78023 38727
L78023 38536
" />
<path d="M78271 38365
L78271 38060
" />
<path d="M78385 37641
L78404 37660
L78423 37717
L78423 37755
L78404 37812
L78366 37850
L78328 37869
L78252 37888
L78195 37888
L78118 37869
L78080 37850
L78042 37812
L78023 37755
L78023 37717
L78042 37660
L78061 37641
" />
<path d="M78423 37469
L78023 37469
" />
<path d="M78309 37298
L78309 37108
" />
<path d="M78423 37336
L78023 37203
L78423 37069
" />
<path d="M78309 36955
L78309 36765
" />
<path d="M78423 36993
L78023 36860
L78423 36727
" />
<path d="M78061 36612
L78042 36593
L78023 36555
L78023 36460
L78042 36422
L78061 36403
L78099 36384
L78138 36384
L78195 36403
L78423 36631
L78423 36384
" />
<path d="M81161 11253
L81161 11738
L81180 11795
L81199 11824
L81237 11853
L81314 11853
L81352 11824
L81371 11795
L81390 11738
L81390 11253
" />
<path d="M81561 11310
L81580 11281
L81618 11253
L81714 11253
L81752 11281
L81771 11310
L81790 11367
L81790 11424
L81771 11510
L81542 11853
L81790 11853
" />
<path d="M80349 14603
L80159 14603
L80159 14003
" />
<path d="M80483 14603
L80483 14003
L80616 14431
L80749 14003
L80749 14603
" />
<path d="M80902 14003
L81168 14003
L80997 14603
" />
<path d="M81378 14260
L81340 14231
L81321 14203
L81302 14145
L81302 14117
L81321 14060
L81340 14031
L81378 14003
L81454 14003
L81492 14031
L81511 14060
L81530 14117
L81530 14145
L81511 14203
L81492 14231
L81454 14260
L81378 14260
L81340 14288
L81321 14317
L81302 14374
L81302 14488
L81321 14545
L81340 14574
L81378 14603
L81454 14603
L81492 14574
L81511 14545
L81530 14488
L81530 14374
L81511 14317
L81492 14288
L81454 14260
" />
<path d="M81778 14003
L81816 14003
L81854 14031
L81873 14060
L81892 14117
L81911 14231
L81911 14374
L81892 14488
L81873 14545
L81854 14574
L81816 14603
L81778 14603
L81740 14574
L81721 14545
L81702 14488
L81683 14374
L81683 14231
L81702 14117
L81721 14060
L81740 14031
L81778 14003
" />
<path d="M82273 14003
L82083 14003
L82064 14288
L82083 14260
L82121 14231
L82216 14231
L82254 14260
L82273 14288
L82292 14345
L82292 14488
L82273 14545
L82254 14574
L82216 14603
L82121 14603
L82083 14574
L82064 14545
" />
</g>
<g style="fill:#000000; fill-opacity:0.0; 
stroke:#000000; stroke-width:35; stroke-opacity:1; 
stroke-linecap:round; stroke-linejoin:round;">
<path d="M99915 28239
L99915 27939
L99986 27939
L100029 27953
L100058 27982
L100072 28010
L100086 28067
L100086 28110
L100072 28167
L100058 28196
L100029 28224
L99986 28239
L99915 28239
" />
<path d="M100372 28239
L100200 28239
" />
<path d="M100286 28239
L100286 27939
L100258 27982
L100229 28010
L100200 28024
" />
<path d="M100643 26139
L100500 26139
L100500 25839
" />
<path d="M100743 25982
L100843 25982
" />
<path d="M100886 26139
L100743 26139
L100743 25839
L100886 25839
" />
<path d="M101015 26139
L101015 25839
L101086 25839
L101129 25853
L101158 25882
L101172 25910
L101186 25967
L101186 26010
L101172 26067
L101158 26096
L101129 26124
L101086 26139
L101015 26139
" />
</g>
<g style="fill:#000000; fill-opacity:0.0; 
stroke:#000000; stroke-width:80; stroke-opacity:1; 
stroke-linecap:round; stroke-linejoin:round;">
<path d="M104389 16160
L104408 16179
L104428 16236
L104428 16275
L104408 16332
L104370 16370
L104332 16389
L104256 16408
L104199 16408
L104123 16389
L104085 16370
L104047 16332
L104028 16275
L104028 16236
L104047 16179
L104066 16160
" />
<path d="M104161 15817
L104428 15817
" />
<path d="M104008 15913
L104294 16008
L104294 15760
" />
<path d="M105137 19113
L105157 19132
L105176 19189
L105176 19227
L105157 19284
L105118 19323
L105080 19342
L105004 19361
L104947 19361
L104871 19342
L104833 19323
L104795 19284
L104776 19227
L104776 19189
L104795 19132
L104814 19113
" />
<path d="M104776 18980
L104776 18732
L104928 18865
L104928 18808
L104947 18770
L104966 18751
L105004 18732
L105099 18732
L105137 18751
L105157 18770
L105176 18808
L105176 18923
L105157 18961
L105137 18980
" />
<path d="M85039 13788
L85058 13807
L85077 13864
L85077 13902
L85058 13960
L85020 13998
L84982 14017
L84906 14036
L84849 14036
L84772 14017
L84734 13998
L84696 13960
L84677 13902
L84677 13864
L84696 13807
L84715 13788
" />
<path d="M84677 13445
L84677 13522
L84696 13560
L84715 13579
L84772 13617
L84849 13636
L85001 13636
L85039 13617
L85058 13598
L85077 13560
L85077 13483
L85058 13445
L85039 13426
L85001 13407
L84906 13407
L84868 13426
L84849 13445
L84830 13483
L84830 13560
L84849 13598
L84868 13617
L84906 13636
" />
<path d="M79537 13808
L79556 13827
L79575 13884
L79575 13922
L79556 13979
L79518 14017
L79480 14036
L79404 14056
L79347 14056
L79270 14036
L79232 14017
L79194 13979
L79175 13922
L79175 13884
L79194 13827
L79213 13808
" />
<path d="M79175 13446
L79175 13636
L79366 13656
L79347 13636
L79328 13598
L79328 13503
L79347 13465
L79366 13446
L79404 13427
L79499 13427
L79537 13446
L79556 13465
L79575 13503
L79575 13598
L79556 13636
L79537 13656
" />
</g>
<g style="fill:#000000; fill-opacity:0.0; 
stroke:#000000; stroke-width:50; stroke-opacity:1; 
stroke-linecap:round; stroke-linejoin:round;">
<path d="M105343 15066
L105329 15080
L105286 15094
L105257 15094
L105215 15080
L105186 15052
L105172 15023
L105157 14966
L105157 14923
L105172 14866
L105186 14837
L105215 14809
L105257 14794
L105286 14794
L105329 14809
L105343 14823
" />
<path d="M105629 15094
L105457 15094
" />
<path d="M105543 15094
L105543 14794
L105515 14837
L105486 14866
L105457 14880
" />
<path d="M105125 16093
L104982 16093
" />
<path d="M105054 16093
L105054 15793
L105030 15836
L105006 15865
L104982 15879
" />
<path d="M105280 15793
L105304 15793
L105328 15808
L105340 15822
L105352 15851
L105363 15908
L105363 15979
L105352 16036
L105340 16065
L105328 16079
L105304 16093
L105280 16093
L105256 16079
L105244 16065
L105232 16036
L105221 15979
L105221 15908
L105232 15851
L105244 15822
L105256 15808
L105280 15793
" />
<path d="M105578 15893
L105578 16093
" />
<path d="M105471 15893
L105471 16051
L105482 16079
L105506 16093
L105542 16093
L105566 16079
L105578 16065
" />
<path d="M105780 15936
L105697 15936
" />
<path d="M105697 16093
L105697 15793
L105816 15793
" />
</g>
<g style="fill:#000000; fill-opacity:0.0; 
stroke:#000000; stroke-width:80; stroke-opacity:1; 
stroke-linecap:round; stroke-linejoin:round;">
</g>
<g style="fill:#000000; fill-opacity:0.0; 
stroke:#000000; stroke-width:75; stroke-opacity:1; 
stroke-linecap:round; stroke-linejoin:round;">
<path d="M104379 15479
L104607 15479
" />
<path d="M104493 15593
L104493 15365
" />
</g>
<g style="fill:#000000; fill-opacity:0.0; 
stroke:#000000; stroke-width:80; stroke-opacity:1; 
stroke-linecap:round; stroke-linejoin:round;">
</g>
<g style="fill:#000000; fill-opacity:0.0; 
stroke:#000000; stroke-width:50; stroke-opacity:1; 
stroke-linecap:round; stroke-linejoin:round;">
<path d="M86467 13672
L86482 13686
L86496 13729
L86496 13757
L86482 13800
L86453 13829
L86424 13843
L86367 13857
L86324 13857
L86267 13843
L86239 13829
L86210 13800
L86196 13757
L86196 13729
L86210 13686
L86224 13672
" />
<path d="M86224 13557
L86210 13543
L86196 13514
L86196 13443
L86210 13414
L86224 13400
L86253 13386
L86282 13386
L86324 13400
L86496 13572
L86496 13386
" />
<path d="M85497 13889
L85497 14032
" />
<path d="M85497 13961
L85197 13961
L85240 13985
L85268 14008
L85283 14032
" />
<path d="M85197 13735
L85197 13711
L85211 13687
L85225 13675
L85254 13663
L85311 13651
L85383 13651
L85440 13663
L85468 13675
L85483 13687
L85497 13711
L85497 13735
L85483 13758
L85468 13770
L85440 13782
L85383 13794
L85311 13794
L85254 13782
L85225 13770
L85211 13758
L85197 13735
" />
<path d="M85297 13437
L85497 13437
" />
<path d="M85297 13544
L85454 13544
L85483 13532
L85497 13508
L85497 13473
L85483 13449
L85468 13437
" />
<path d="M85340 13235
L85340 13318
" />
<path d="M85497 13318
L85197 13318
L85197 13199
" />
</g>
<g style="fill:#000000; fill-opacity:0.0; 
stroke:#000000; stroke-width:80; stroke-opacity:1; 
stroke-linecap:round; stroke-linejoin:round;">
</g>
<g style="fill:#000000; fill-opacity:0.0; 
stroke:#000000; stroke-width:75; stroke-opacity:1; 
stroke-linecap:round; stroke-linejoin:round;">
<path d="M85883 12836
L85883 12607
" />
<path d="M85997 12722
L85768 12722
" />
</g>
<g style="fill:#000000; fill-opacity:0.0; 
stroke:#000000; stroke-width:80; stroke-opacity:1; 
stroke-linecap:round; stroke-linejoin:round;">
</g>
<g style="fill:#000000; fill-opacity:0.0; 
stroke:#000000; stroke-width:59.0551; stroke-opacity:1; 
stroke-linecap:round; stroke-linejoin:round;">
<path d="M99527 11102
L102755 11102
" />
<path d="M102755 11102
L102755 12283
" />
<path d="M102755 12283
L96299 12283
" />
<path d="M96299 12283
L96299 11102
" />
<path d="M96299 11102
L99527 11102
" />
</g>
<g style="fill:#000000; fill-opacity:0.0; 
stroke:#000000; stroke-width:150; stroke-opacity:1; 
stroke-linecap:round; stroke-linejoin:round;">
<path d="M107088 16503
L107338 16503
" />
<path d="M107338 16503
L107338 20503
" />
<path d="M107338 20503
L107088 20503
" />
<path d="M105588 16503
L107088 16503
" />
<path d="M107088 16503
L107088 20503
" />
<path d="M107088 20503
L105588 20503
" />
<path d="M105588 20503
L105588 16503
" />
</g>
<g style="fill:#000000; fill-opacity:0.0; 
stroke:#000000; stroke-width:120; stroke-opacity:1; 
stroke-linecap:round; stroke-linejoin:round;">
<path d="M100137 20982
L100137 21382
" />
<path d="M100137 21382
L100537 21382
" />
<path d="M100537 21382
L100537 24582
" />
<path d="M100537 24582
L99737 24582
" />
<path d="M99737 24582
L99737 21382
" />
<path d="M99737 21382
L100137 21382
" />
<path d="M100337 21382
L100537 21582
" />
<path d="M100137 24982
L100137 24582
" />
<path d="M102244 22694
L102244 23094
" />
<path d="M102244 23094
L102644 23094
" />
<path d="M102644 23094
L102644 26294
" />
<path d="M102644 26294
L101844 26294
" />
<path d="M101844 26294
L101844 23094
" />
<path d="M101844 23094
L102244 23094
" />
<path d="M102444 23094
L102644 23294
" />
<path d="M102244 26694
L102244 26294
" />
<path d="M101437 15450
L101437 15850
" />
<path d="M101437 15850
L101837 15850
" />
<path d="M101837 15850
L101837 19050
" />
<path d="M101837 19050
L101037 19050
" />
<path d="M101037 19050
L101037 15850
" />
<path d="M101037 15850
L101437 15850
" />
<path d="M101637 15850
L101837 16050
" />
<path d="M101437 19450
L101437 19050
" />
</g>
<g style="fill:#000000; fill-opacity:0.0; 
stroke:#000000; stroke-width:100; stroke-opacity:1; 
stroke-linecap:round; stroke-linejoin:round;">
<path d="M72596 18834
L72596 16834
" />
<path d="M70846 18834
L70846 16834
" />
<path d="M73346 16834
L73346 18834
" />
<path d="M73346 16834
L70846 16834
" />
<path d="M73346 18834
L70846 18834
" />
</g>
<g style="fill:#000000; fill-opacity:0.0; 
stroke:#000000; stroke-width:120; stroke-opacity:1; 
stroke-linecap:round; stroke-linejoin:round;">
<path d="M102133 31242
L101133 31242
" />
<path d="M102133 30242
L102133 38242
" />
<path d="M102133 38242
L101133 38242
" />
<path d="M101133 38242
L101133 30242
" />
<path d="M101133 30242
L102133 30242
" />
<path d="M99163 48045
L79163 48045
" />
<path d="M79163 46045
L99163 46045
" />
<path d="M79163 47045
L80163 47045
" />
<path d="M80163 47045
L80163 48045
" />
<path d="M79163 46045
L79163 48045
" />
<path d="M99163 48045
L99163 46045
" />
<path d="M99163 20045
L79163 20045
" />
<path d="M79163 18045
L99163 18045
" />
<path d="M79163 19045
L80163 19045
" />
<path d="M80163 19045
L80163 20045
" />
<path d="M79163 18045
L79163 20045
" />
<path d="M99163 20045
L99163 18045
" />
<path d="M103761 48336
L103761 28336
" />
<path d="M105761 28336
L105761 48336
" />
<path d="M104761 28336
L104761 29336
" />
<path d="M104761 29336
L103761 29336
" />
<path d="M105761 28336
L103761 28336
" />
<path d="M103761 48336
L105761 48336
" />
<path d="M75761 48336
L75761 28336
" />
<path d="M77761 28336
L77761 48336
" />
<path d="M76761 28336
L76761 29336
" />
<path d="M76761 29336
L75761 29336
" />
<path d="M77761 28336
L75761 28336
" />
<path d="M75761 48336
L77761 48336
" />
</g>
<g style="fill:#000000; fill-opacity:0.0; 
stroke:#000000; stroke-width:100; stroke-opacity:1; 
stroke-linecap:round; stroke-linejoin:round;">
<path d="M79716 12360
L79716 12110
" />
<path d="M79716 12110
L83216 12110
" />
<path d="M83216 12110
L83216 12360
" />
<path d="M79716 13860
L79716 12360
" />
<path d="M79716 12360
L83216 12360
" />
<path d="M83216 12360
L83216 13860
" />
<path d="M83216 13860
L79716 13860
" />
<path d="M100116 26517
L100116 27517
" />
</g>
<g style="fill:#000000; fill-opacity:0.0; 
stroke:#000000; stroke-width:60; stroke-opacity:1; 
stroke-linecap:round; stroke-linejoin:round;">
<path d="M101198 27401.8 A600 600 0.0 0 0 101337 27017.7 " />
<path d="M101336 27017.7 A599.256 599.256 0.0 0 0 101185 26619.9 " />
<path d="M100137 27017.7 A599.27 599.27 0.0 0 0 100282 27407.7 " />
<path d="M100276 26633.7 A600 600 0.0 0 0 100137 27017.7 " />
<path d="M100249 27367 A600 600 0.0 0 0 100737 27617.7 " />
<path d="M100737 27617.7 A600 600 0.0 0 0 101216 27378 " />
<path d="M100737 26418.4 A599.294 599.294 0.0 0 0 100264 26649.6 " />
<path d="M101210 26649.1 A600 600 0.0 0 0 100737 26417.7 " />
<path d="M100737 27267.7 A250 250 0.0 0 0 100987 27017.7 " />
<path d="M100737 27417.7 A400 400 0.0 0 0 101137 27017.7 " />
<path d="M100737 26767.7 A250 250 0.0 0 0 100487 27017.7 " />
<path d="M100737 26617.7 A400 400 0.0 0 0 100337 27017.7 " />
</g>
<g style="fill:#000000; fill-opacity:0.0; 
stroke:#000000; stroke-width:100; stroke-opacity:1; 
stroke-linecap:round; stroke-linejoin:round;">
<path d="M100123 27530.9 A800 800 0.0 0 0 100737 27817.7 " />
<path d="M100737 27816.7 A799 799 0.0 0 0 101441 27394.1 " />
<path d="M100735 26218.7 A798.972 798.972 0.0 0 0 100126 26502 " />
<path d="M101431 26620.1 A800 800 0.0 0 0 100737 26217.7 " />
<path d="M101441 27397 A800 800 0.0 0 0 101537 27017.7 " />
<path d="M101536 27017.7 A799.576 799.576 0.0 0 0 101418 26598.7 " />
</g>
<g style="fill:#000000; fill-opacity:0.0; 
stroke:#000000; stroke-width:120; stroke-opacity:1; 
stroke-linecap:round; stroke-linejoin:round;">
<path d="M103866 15014
L103866 16994
" />
<path d="M103866 16994
L102866 16994
" />
<path d="M102866 16994
L102866 14994
" />
<path d="M102866 14994
L103866 14994
" />
<path d="M103616 14994
L103866 15244
" />
<path d="M104614 17966
L104614 19946
" />
<path d="M104614 19946
L103614 19946
" />
<path d="M103614 19946
L103614 17946
" />
<path d="M103614 17946
L104614 17946
" />
<path d="M104364 17946
L104614 18196
" />
<path d="M84515 12642
L84515 14622
" />
<path d="M84515 14622
L83515 14622
" />
<path d="M83515 14622
L83515 12622
" />
<path d="M83515 12622
L84515 12622
" />
<path d="M84265 12622
L84515 12872
" />
<path d="M79013 12661
L79013 14641
" />
<path d="M79013 14641
L78013 14641
" />
<path d="M78013 14641
L78013 12641
" />
<path d="M78013 12641
L79013 12641
" />
<path d="M78763 12641
L79013 12891
" />
</g>
<g style="fill:#000000; fill-opacity:0.0; 
stroke:#000000; stroke-width:50; stroke-opacity:1; 
stroke-linecap:round; stroke-linejoin:round;">
<circle cx="105394" cy="15472.4" r="1001.25" /> 
<circle cx="85876" cy="13622" r="1001.25" /> 
</g>
<g style="fill:#000000; fill-opacity:0.0; 
stroke:#000000; stroke-width:787.402; stroke-opacity:1; 
stroke-linecap:round; stroke-linejoin:round;">
<path d="M100305 11692
L100305 11692
" />
<path d="M98750 11692
L98750 11692
" />
<path d="M101860 11692
L101860 11692
" />
<path d="M97175 11692
L97175 11692
" />
</g>
<g style="fill:#000000; fill-opacity:0.0; 
stroke:#000000; stroke-width:669.291; stroke-opacity:1; 
stroke-linecap:round; stroke-linejoin:round;">
<path d="M106181 17503
L106496 17503
" />
<path d="M106181 18503
L106496 18503
" />
<path d="M106181 19503
L106496 19503
" />
</g>
<g style="fill:#000000; fill-opacity:0.0; 
stroke:#000000; stroke-width:787.402; stroke-opacity:1; 
stroke-linecap:round; stroke-linejoin:round;">
<path d="M100137 20982
L100137 20982
" />
<path d="M100137 24982
L100137 24982
" />
<path d="M102244 22694
L102244 22694
" />
<path d="M102244 26694
L102244 26694
" />
<path d="M101437 15450
L101437 15450
" />
<path d="M101437 19450
L101437 19450
" />
<path d="M72096 17334
L72096 17334
" />
<path d="M72096 18334
L72096 18334
" />
<path d="M101633 30742
L101633 30742
" />
<path d="M101633 31742
L101633 31742
" />
<path d="M101633 32742
L101633 32742
" />
<path d="M101633 33742
L101633 33742
" />
<path d="M101633 34742
L101633 34742
" />
<path d="M101633 35742
L101633 35742
" />
<path d="M101633 36742
L101633 36742
" />
<path d="M101633 37742
L101633 37742
" />
<path d="M79663 47545
L79663 47545
" />
<path d="M79663 46545
L79663 46545
" />
<path d="M80663 47545
L80663 47545
" />
<path d="M80663 46545
L80663 46545
" />
<path d="M81663 47545
L81663 47545
" />
<path d="M81663 46545
L81663 46545
" />
<path d="M82663 47545
L82663 47545
" />
<path d="M82663 46545
L82663 46545
" />
<path d="M83663 47545
L83663 47545
" />
<path d="M83663 46545
L83663 46545
" />
<path d="M84663 47545
L84663 47545
" />
<path d="M84663 46545
L84663 46545
" />
<path d="M85663 47545
L85663 47545
" />
<path d="M85663 46545
L85663 46545
" />
<path d="M86663 47545
L86663 47545
" />
<path d="M86663 46545
L86663 46545
" />
<path d="M87663 47545
L87663 47545
" />
<path d="M87663 46545
L87663 46545
" />
<path d="M88663 47545
L88663 47545
" />
<path d="M88663 46545
L88663 46545
" />
<path d="M89663 47545
L89663 47545
" />
<path d="M89663 46545
L89663 46545
" />
<path d="M90663 47545
L90663 47545
" />
<path d="M90663 46545
L90663 46545
" />
<path d="M91663 47545
L91663 47545
" />
<path d="M91663 46545
L91663 46545
" />
<path d="M92663 47545
L92663 47545
" />
<path d="M92663 46545
L92663 46545
" />
<path d="M93663 47545
L93663 47545
" />
<path d="M93663 46545
L93663 46545
" />
<path d="M94663 47545
L94663 47545
" />
<path d="M94663 46545
L94663 46545
" />
<path d="M95663 47545
L95663 47545
" />
<path d="M95663 46545
L95663 46545
" />
<path d="M96663 47545
L96663 47545
" />
<path d="M96663 46545
L96663 46545
" />
<path d="M97663 47545
L97663 47545
" />
<path d="M97663 46545
L97663 46545
" />
<path d="M98663 47545
L98663 47545
" />
<path d="M98663 46545
L98663 46545
" />
<path d="M79663 19545
L79663 19545
" />
<path d="M79663 18545
L79663 18545
" />
<path d="M80663 19545
L80663 19545
" />
<path d="M80663 18545
L80663 18545
" />
<path d="M81663 19545
L81663 19545
" />
<path d="M81663 18545
L81663 18545
" />
<path d="M82663 19545
L82663 19545
" />
<path d="M82663 18545
L82663 18545
" />
<path d="M83663 19545
L83663 19545
" />
<path d="M83663 18545
L83663 18545
" />
<path d="M84663 19545
L84663 19545
" />
<path d="M84663 18545
L84663 18545
" />
<path d="M85663 19545
L85663 19545
" />
<path d="M85663 18545
L85663 18545
" />
<path d="M86663 19545
L86663 19545
" />
<path d="M86663 18545
L86663 18545
" />
<path d="M87663 19545
L87663 19545
" />
<path d="M87663 18545
L87663 18545
" />
<path d="M88663 19545
L88663 19545
" />
<path d="M88663 18545
L88663 18545
" />
<path d="M89663 19545
L89663 19545
" />
<path d="M89663 18545
L89663 18545
" />
<path d="M90663 19545
L90663 19545
" />
<path d="M90663 18545
L90663 18545
" />
<path d="M91663 19545
L91663 19545
" />
<path d="M91663 18545
L91663 18545
" />
<path d="M92663 19545
L92663 19545
" />
<path d="M92663 18545
L92663 18545
" />
<path d="M93663 19545
L93663 19545
" />
<path d="M93663 18545
L93663 18545
" />
<path d="M94663 19545
L94663 19545
" />
<path d="M94663 18545
L94663 18545
" />
<path d="M95663 19545
L95663 19545
" />
<path d="M95663 18545
L95663 18545
" />
<path d="M96663 19545
L96663 19545
" />
<path d="M96663 18545
L96663 18545
" />
<path d="M97663 19545
L97663 19545
" />
<path d="M97663 18545
L97663 18545
" />
<path d="M98663 19545
L98663 19545
" />
<path d="M98663 18545
L98663 18545
" />
<path d="M104261 28836
L104261 28836
" />
<path d="M105261 28836
L105261 28836
" />
<path d="M104261 29836
L104261 29836
" />
<path d="M105261 29836
L105261 29836
" />
<path d="M104261 30836
L104261 30836
" />
<path d="M105261 30836
L105261 30836
" />
<path d="M104261 31836
L104261 31836
" />
<path d="M105261 31836
L105261 31836
" />
<path d="M104261 32836
L104261 32836
" />
<path d="M105261 32836
L105261 32836
" />
<path d="M104261 33836
L104261 33836
" />
<path d="M105261 33836
L105261 33836
" />
<path d="M104261 34836
L104261 34836
" />
<path d="M105261 34836
L105261 34836
" />
<path d="M104261 35836
L104261 35836
" />
<path d="M105261 35836
L105261 35836
" />
<path d="M104261 36836
L104261 36836
" />
<path d="M105261 36836
L105261 36836
" />
<path d="M104261 37836
L104261 37836
" />
<path d="M105261 37836
L105261 37836
" />
<path d="M104261 38836
L104261 38836
" />
<path d="M105261 38836
L105261 38836
" />
<path d="M104261 39836
L104261 39836
" />
<path d="M105261 39836
L105261 39836
" />
<path d="M104261 40836
L104261 40836
" />
<path d="M105261 40836
L105261 40836
" />
<path d="M104261 41836
L104261 41836
" />
<path d="M105261 41836
L105261 41836
" />
<path d="M104261 42836
L104261 42836
" />
<path d="M105261 42836
L105261 42836
" />
<path d="M104261 43836
L104261 43836
" />
<path d="M105261 43836
L105261 43836
" />
<path d="M104261 44836
L104261 44836
" />
<path d="M105261 44836
L105261 44836
" />
<path d="M104261 45836
L104261 45836
" />
<path d="M105261 45836
L105261 45836
" />
<path d="M104261 46836
L104261 46836
" />
<path d="M105261 46836
L105261 46836
" />
<path d="M104261 47836
L104261 47836
" />
<path d="M105261 47836
L105261 47836
" />
<path d="M76261 28836
L76261 28836
" />
<path d="M77261 28836
L77261 28836
" />
<path d="M76261 29836
L76261 29836
" />
<path d="M77261 29836
L77261 29836
" />
<path d="M76261 30836
L76261 30836
" />
<path d="M77261 30836
L77261 30836
" />
<path d="M76261 31836
L76261 31836
" />
<path d="M77261 31836
L77261 31836
" />
<path d="M76261 32836
L76261 32836
" />
<path d="M77261 32836
L77261 32836
" />
<path d="M76261 33836
L76261 33836
" />
<path d="M77261 33836
L77261 33836
" />
<path d="M76261 34836
L76261 34836
" />
<path d="M77261 34836
L77261 34836
" />
<path d="M76261 35836
L76261 35836
" />
<path d="M77261 35836
L77261 35836
" />
<path d="M76261 36836
L76261 36836
" />
<path d="M77261 36836
L77261 36836
" />
<path d="M76261 37836
L76261 37836
" />
<path d="M77261 37836
L77261 37836
" />
<path d="M76261 38836
L76261 38836
" />
<path d="M77261 38836
L77261 38836
" />
<path d="M76261 39836
L76261 39836
" />
<path d="M77261 39836
L77261 39836
" />
<path d="M76261 40836
L76261 40836
" />
<path d="M77261 40836
L77261 40836
" />
<path d="M76261 41836
L76261 41836
" />
<path d="M77261 41836
L77261 41836
" />
<path d="M76261 42836
L76261 42836
" />
<path d="M77261 42836
L77261 42836
" />
<path d="M76261 43836
L76261 43836
" />
<path d="M77261 43836
L77261 43836
" />
<path d="M76261 44836
L76261 44836
" />
<path d="M77261 44836
L77261 44836
" />
<path d="M76261 45836
L76261 45836
" />
<path d="M77261 45836
L77261 45836
" />
<path d="M76261 46836
L76261 46836
" />
<path d="M77261 46836
L77261 46836
" />
<path d="M76261 47836
L76261 47836
" />
<path d="M77261 47836
L77261 47836
" />
</g>
<g style="fill:#000000; fill-opacity:0.0; 
stroke:#000000; stroke-width:669.291; stroke-opacity:1; 
stroke-linecap:round; stroke-linejoin:round;">
<path d="M80466 13267
L80466 12952
" />
<path d="M81466 13267
L81466 12952
" />
<path d="M82466 13267
L82466 12952
" />
</g>
<g style="fill:#000000; fill-opacity:0.0; 
stroke:#000000; stroke-width:787.402; stroke-opacity:1; 
stroke-linecap:round; stroke-linejoin:round;">
<path d="M101336 27017
L101336 27017
" />
<path d="M100336 27017
L100336 27017
" />
</g>
<g style="fill:#000000; fill-opacity:0.0; 
stroke:#000000; stroke-width:39.3701; stroke-opacity:1; 
stroke-linecap:round; stroke-linejoin:round;">
</g>
<g style="fill:#000000; fill-opacity:1.0; 
stroke:#000000; stroke-width:39.3701; stroke-opacity:1; 
stroke-linecap:round; stroke-linejoin:round;">
<circle cx="103366" cy="15494.1" r="374.016" /> 
<circle cx="103366" cy="16494.1" r="374.016" /> 
<circle cx="104114" cy="18446.9" r="374.016" /> 
<circle cx="104114" cy="19446.9" r="374.016" /> 
<circle cx="84015.7" cy="13122" r="374.016" /> 
<circle cx="84015.7" cy="14122" r="374.016" /> 
<circle cx="78513.8" cy="13141.7" r="374.016" /> 
<circle cx="78513.8" cy="14141.7" r="374.016" /> 
</g>
<g style="fill:#000000; fill-opacity:1.0; 
stroke:#000000; stroke-width:787.402; stroke-opacity:1; 
stroke-linecap:round; stroke-linejoin:round;">
<path d="M104893 15472
L104893 15472
" />
</g>
<g style="fill:#000000; fill-opacity:1.0; 
stroke:#000000; stroke-width:39.3701; stroke-opacity:1; 
stroke-linecap:round; stroke-linejoin:round;">
<circle cx="105894" cy="15472.4" r="374.016" /> 
</g>
<g style="fill:#000000; fill-opacity:1.0; 
stroke:#000000; stroke-width:787.402; stroke-opacity:1; 
stroke-linecap:round; stroke-linejoin:round;">
<path d="M85875 13122
L85875 13122
" />
</g>
<g style="fill:#000000; fill-opacity:1.0; 
stroke:#000000; stroke-width:39.3701; stroke-opacity:1; 
stroke-linecap:round; stroke-linejoin:round;">
<circle cx="85876" cy="14122" r="374.016" /> 
</g>
<g style="fill:#000000; fill-opacity:1.0; 
stroke:#000000; stroke-width:314.961; stroke-opacity:1; 
stroke-linecap:round; stroke-linejoin:round;">
<path d="M86663 19545
L86663 26348
" />
<path d="M86663 26348
L86427 26584
" />
<path d="M76261 45836
L76242 45856
" />
<path d="M73809 26584
L86427 26584
" />
<path d="M73809 45856
L73809 26584
" />
<path d="M76242 45856
L73809 45856
" />
<path d="M87663 19545
L87663 26992
" />
<path d="M87663 26992
L87185 27470
" />
<path d="M76255 44842
L76261 44836
" />
<path d="M74862 44842
L76255 44842
" />
<path d="M74862 27470
L74862 44842
" />
<path d="M87185 27470
L74862 27470
" />
<path d="M104261 38836
L104250 38848
" />
<path d="M101600 32775
L101633 32742
" />
<path d="M100364 32775
L101600 32775
" />
<path d="M100364 38848
L100364 32775
" />
<path d="M104250 38848
L100364 38848
" />
<path d="M101633 33742
L101685 33690
" />
<path d="M104250 37824
L104261 37836
" />
<path d="M102765 37824
L104250 37824
" />
<path d="M102765 33690
L102765 37824
" />
<path d="M101685 33690
L102765 33690
" />
<path d="M88061 45255
L86683 45255
" />
<path d="M86663 45275
L86663 46545
" />
<path d="M86683 45255
L86663 45275
" />
<path d="M104216 39881
L104261 39836
" />
<path d="M101860 39881
L104216 39881
" />
<path d="M101860 45255
L101860 39881
" />
<path d="M88061 45255
L101860 45255
" />
<path d="M89015 49005
L87687 49005
" />
<path d="M87663 48982
L87663 47545
" />
<path d="M87687 49005
L87663 48982
" />
<path d="M102942 49005
L89015 49005
" />
<path d="M102942 40856
L102942 49005
" />
<path d="M104242 40856
L102942 40856
" />
<path d="M104261 40836
L104242 40856
" />
<path d="M89663 19545
L89663 21120
" />
<path d="M95561 27017
L100336 27017
" />
<path d="M89663 21120
L95561 27017
" />
</g>
<g style="fill:#000000; fill-opacity:1.0; 
stroke:#000000; stroke-width:393.701; stroke-opacity:1; 
stroke-linecap:round; stroke-linejoin:round;">
<path d="M106338 17503
L107622 17503
" />
<path d="M106685 22694
L102244 22694
" />
<path d="M108021 21358
L106685 22694
" />
<path d="M108021 17903
L108021 21358
" />
<path d="M107622 17503
L108021 17903
" />
<path d="M105220 17503
L106338 17503
" />
<path d="M104893 17177
L105220 17503
" />
<path d="M104893 15472
L104893 17177
" />
<path d="M101437 15450
L103322 15450
" />
<path d="M103322 15450
L103366 15494
" />
<path d="M79663 18545
L80663 19545
" />
<path d="M79663 19545
L79663 18545
" />
<path d="M79663 18545
L80663 18545
" />
<path d="M80663 18545
L80663 19545
" />
<path d="M80663 19545
L79663 19545
" />
<path d="M79663 19545
L80663 18545
" />
</g>
<g style="fill:#000000; fill-opacity:1.0; 
stroke:#000000; stroke-width:314.961; stroke-opacity:1; 
stroke-linecap:round; stroke-linejoin:round;">
<path d="M101633 30742
L101633 29586
" />
<path d="M105261 27860
L105261 28836
" />
<path d="M105255 27854
L105261 27860
" />
<path d="M103366 27854
L105255 27854
" />
<path d="M101633 29586
L103366 27854
" />
<path d="M101336 27017
L101921 27017
" />
<path d="M101921 27017
L102244 26694
" />
<path d="M104860 20982
L106338 19503
" />
<path d="M100137 20982
L104860 20982
" />
<path d="M101437 19683
L100137 20982
" />
<path d="M101437 19450
L101437 19683
" />
</g>
<g style="fill:#000000; fill-opacity:1.0; 
stroke:#000000; stroke-width:393.701; stroke-opacity:1; 
stroke-linecap:round; stroke-linejoin:round;">
<path d="M82466 13110
L84003 13110
" />
<path d="M84003 13110
L84015 13122
" />
<path d="M85875 13122
L84015 13122
" />
<path d="M72096 17334
L77744 17334
" />
<path d="M82466 14935
L82466 13110
" />
<path d="M81525 15875
L82466 14935
" />
<path d="M79202 15875
L81525 15875
" />
<path d="M77744 17334
L79202 15875
" />
<path d="M78513 13141
L78513 12057
" />
<path d="M78877 11692
L97175 11692
" />
<path d="M78513 12057
L78877 11692
" />
<path d="M104114 18446
L106281 18446
" />
<path d="M106281 18446
L106338 18503
" />
<path d="M104114 18446
L103925 18442
" />
<path d="M103925 18442
L103503 18021
" />
<path d="M103503 18021
L100659 18021
" />
<path d="M100659 18021
L97175 14537
" />
<path d="M97175 14537
L97175 11692
" />
<path d="M80466 13110
L78545 13110
" />
<path d="M78545 13110
L78513 13141
" />
</g>
<g style="fill:#FFFFFF; fill-opacity:1.0; 
stroke:#FFFFFF; stroke-width:39.3701; stroke-opacity:1; 
stroke-linecap:round; stroke-linejoin:round;">
<circle cx="100305" cy="11692.9" r="118.11" /> 
<circle cx="98750" cy="11692.9" r="118.11" /> 
<circle cx="101860" cy="11692.9" r="118.11" /> 
<circle cx="97175.2" cy="11692.9" r="118.11" /> 
<circle cx="106339" cy="17503.9" r="118.11" /> 
<circle cx="106339" cy="18503.9" r="118.11" /> 
<circle cx="106339" cy="19503.9" r="118.11" /> 
<circle cx="100138" cy="20982.3" r="118.11" /> 
<circle cx="100138" cy="24982.3" r="118.11" /> 
<circle cx="102244" cy="22694.9" r="118.11" /> 
<circle cx="102244" cy="26694.9" r="118.11" /> 
<circle cx="101437" cy="15450.8" r="118.11" /> 
<circle cx="101437" cy="19450.8" r="118.11" /> 
<circle cx="72096.5" cy="17334.6" r="118.11" /> 
<circle cx="72096.5" cy="18334.6" r="118.11" /> 
<circle cx="101634" cy="30742.1" r="118.11" /> 
<circle cx="101634" cy="31742.1" r="118.11" /> 
<circle cx="101634" cy="32742.1" r="118.11" /> 
<circle cx="101634" cy="33742.1" r="118.11" /> 
<circle cx="101634" cy="34742.1" r="118.11" /> 
<circle cx="101634" cy="35742.1" r="118.11" /> 
<circle cx="101634" cy="36742.1" r="118.11" /> 
<circle cx="101634" cy="37742.1" r="118.11" /> 
<circle cx="79663.4" cy="47545.3" r="118.11" /> 
<circle cx="79663.4" cy="46545.3" r="118.11" /> 
<circle cx="80663.4" cy="47545.3" r="118.11" /> 
<circle cx="80663.4" cy="46545.3" r="118.11" /> 
<circle cx="81663.4" cy="47545.3" r="118.11" /> 
<circle cx="81663.4" cy="46545.3" r="118.11" /> 
<circle cx="82663.4" cy="47545.3" r="118.11" /> 
<circle cx="82663.4" cy="46545.3" r="118.11" /> 
<circle cx="83663.4" cy="47545.3" r="118.11" /> 
<circle cx="83663.4" cy="46545.3" r="118.11" /> 
<circle cx="84663.4" cy="47545.3" r="118.11" /> 
<circle cx="84663.4" cy="46545.3" r="118.11" /> 
<circle cx="85663.4" cy="47545.3" r="118.11" /> 
<circle cx="85663.4" cy="46545.3" r="118.11" /> 
<circle cx="86663.4" cy="47545.3" r="118.11" /> 
<circle cx="86663.4" cy="46545.3" r="118.11" /> 
<circle cx="87663.4" cy="47545.3" r="118.11" /> 
<circle cx="87663.4" cy="46545.3" r="118.11" /> 
<circle cx="88663.4" cy="47545.3" r="118.11" /> 
<circle cx="88663.4" cy="46545.3" r="118.11" /> 
<circle cx="89663.4" cy="47545.3" r="118.11" /> 
<circle cx="89663.4" cy="46545.3" r="118.11" /> 
<circle cx="90663.4" cy="47545.3" r="118.11" /> 
<circle cx="90663.4" cy="46545.3" r="118.11" /> 
<circle cx="91663.4" cy="47545.3" r="118.11" /> 
<circle cx="91663.4" cy="46545.3" r="118.11" /> 
<circle cx="92663.4" cy="47545.3" r="118.11" /> 
<circle cx="92663.4" cy="46545.3" r="118.11" /> 
<circle cx="93663.4" cy="47545.3" r="118.11" /> 
<circle cx="93663.4" cy="46545.3" r="118.11" /> 
<circle cx="94663.4" cy="47545.3" r="118.11" /> 
<circle cx="94663.4" cy="46545.3" r="118.11" /> 
<circle cx="95663.4" cy="47545.3" r="118.11" /> 
<circle cx="95663.4" cy="46545.3" r="118.11" /> 
<circle cx="96663.4" cy="47545.3" r="118.11" /> 
<circle cx="96663.4" cy="46545.3" r="118.11" /> 
<circle cx="97663.4" cy="47545.3" r="118.11" /> 
<circle cx="97663.4" cy="46545.3" r="118.11" /> 
<circle cx="98663.4" cy="47545.3" r="118.11" /> 
<circle cx="98663.4" cy="46545.3" r="118.11" /> 
<circle cx="79663.4" cy="19545.3" r="118.11" /> 
<circle cx="79663.4" cy="18545.3" r="118.11" /> 
<circle cx="80663.4" cy="19545.3" r="118.11" /> 
<circle cx="80663.4" cy="18545.3" r="118.11" /> 
<circle cx="81663.4" cy="19545.3" r="118.11" /> 
<circle cx="81663.4" cy="18545.3" r="118.11" /> 
<circle cx="82663.4" cy="19545.3" r="118.11" /> 
<circle cx="82663.4" cy="18545.3" r="118.11" /> 
<circle cx="83663.4" cy="19545.3" r="118.11" /> 
<circle cx="83663.4" cy="18545.3" r="118.11" /> 
<circle cx="84663.4" cy="19545.3" r="118.11" /> 
<circle cx="84663.4" cy="18545.3" r="118.11" /> 
<circle cx="85663.4" cy="19545.3" r="118.11" /> 
<circle cx="85663.4" cy="18545.3" r="118.11" /> 
<circle cx="86663.4" cy="19545.3" r="118.11" /> 
<circle cx="86663.4" cy="18545.3" r="118.11" /> 
<circle cx="87663.4" cy="19545.3" r="118.11" /> 
<circle cx="87663.4" cy="18545.3" r="118.11" /> 
<circle cx="88663.4" cy="19545.3" r="118.11" /> 
<circle cx="88663.4" cy="18545.3" r="118.11" /> 
<circle cx="89663.4" cy="19545.3" r="118.11" /> 
<circle cx="89663.4" cy="18545.3" r="118.11" /> 
<circle cx="90663.4" cy="19545.3" r="118.11" /> 
<circle cx="90663.4" cy="18545.3" r="118.11" /> 
<circle cx="91663.4" cy="19545.3" r="118.11" /> 
<circle cx="91663.4" cy="18545.3" r="118.11" /> 
<circle cx="92663.4" cy="19545.3" r="118.11" /> 
<circle cx="92663.4" cy="18545.3" r="118.11" /> 
<circle cx="93663.4" cy="19545.3" r="118.11" /> 
<circle cx="93663.4" cy="18545.3" r="118.11" /> 
<circle cx="94663.4" cy="19545.3" r="118.11" /> 
<circle cx="94663.4" cy="18545.3" r="118.11" /> 
<circle cx="95663.4" cy="19545.3" r="118.11" /> 
<circle cx="95663.4" cy="18545.3" r="118.11" /> 
<circle cx="96663.4" cy="19545.3" r="118.11" /> 
<circle cx="96663.4" cy="18545.3" r="118.11" /> 
<circle cx="97663.4" cy="19545.3" r="118.11" /> 
<circle cx="97663.4" cy="18545.3" r="118.11" /> 
<circle cx="98663.4" cy="19545.3" r="118.11" /> 
<circle cx="98663.4" cy="18545.3" r="118.11" /> 
<circle cx="104262" cy="28836.6" r="118.11" /> 
<circle cx="105262" cy="28836.6" r="118.11" /> 
<circle cx="104262" cy="29836.6" r="118.11" /> 
<circle cx="105262" cy="29836.6" r="118.11" /> 
<circle cx="104262" cy="30836.6" r="118.11" /> 
<circle cx="105262" cy="30836.6" r="118.11" /> 
<circle cx="104262" cy="31836.6" r="118.11" /> 
<circle cx="105262" cy="31836.6" r="118.11" /> 
<circle cx="104262" cy="32836.6" r="118.11" /> 
<circle cx="105262" cy="32836.6" r="118.11" /> 
<circle cx="104262" cy="33836.6" r="118.11" /> 
<circle cx="105262" cy="33836.6" r="118.11" /> 
<circle cx="104262" cy="34836.6" r="118.11" /> 
<circle cx="105262" cy="34836.6" r="118.11" /> 
<circle cx="104262" cy="35836.6" r="118.11" /> 
<circle cx="105262" cy="35836.6" r="118.11" /> 
<circle cx="104262" cy="36836.6" r="118.11" /> 
<circle cx="105262" cy="36836.6" r="118.11" /> 
<circle cx="104262" cy="37836.6" r="118.11" /> 
<circle cx="105262" cy="37836.6" r="118.11" /> 
<circle cx="104262" cy="38836.6" r="118.11" /> 
<circle cx="105262" cy="38836.6" r="118.11" /> 
<circle cx="104262" cy="39836.6" r="118.11" /> 
<circle cx="105262" cy="39836.6" r="118.11" /> 
<circle cx="104262" cy="40836.6" r="118.11" /> 
<circle cx="105262" cy="40836.6" r="118.11" /> 
<circle cx="104262" cy="41836.6" r="118.11" /> 
<circle cx="105262" cy="41836.6" r="118.11" /> 
<circle cx="104262" cy="42836.6" r="118.11" /> 
<circle cx="105262" cy="42836.6" r="118.11" /> 
<circle cx="104262" cy="43836.6" r="118.11" /> 
<circle cx="105262" cy="43836.6" r="118.11" /> 
<circle cx="104262" cy="44836.6" r="118.11" /> 
<circle cx="105262" cy="44836.6" r="118.11" /> 
<circle cx="104262" cy="45836.6" r="118.11" /> 
<circle cx="105262" cy="45836.6" r="118.11" /> 
<circle cx="104262" cy="46836.6" r="118.11" /> 
<circle cx="105262" cy="46836.6" r="118.11" /> 
<circle cx="104262" cy="47836.6" r="118.11" /> 
<circle cx="105262" cy="47836.6" r="118.11" /> 
<circle cx="76261.8" cy="28836.6" r="118.11" /> 
<circle cx="77261.8" cy="28836.6" r="118.11" /> 
<circle cx="76261.8" cy="29836.6" r="118.11" /> 
<circle cx="77261.8" cy="29836.6" r="118.11" /> 
<circle cx="76261.8" cy="30836.6" r="118.11" /> 
<circle cx="77261.8" cy="30836.6" r="118.11" /> 
<circle cx="76261.8" cy="31836.6" r="118.11" /> 
<circle cx="77261.8" cy="31836.6" r="118.11" /> 
<circle cx="76261.8" cy="32836.6" r="118.11" /> 
<circle cx="77261.8" cy="32836.6" r="118.11" /> 
<circle cx="76261.8" cy="33836.6" r="118.11" /> 
<circle cx="77261.8" cy="33836.6" r="118.11" /> 
<circle cx="76261.8" cy="34836.6" r="118.11" /> 
<circle cx="77261.8" cy="34836.6" r="118.11" /> 
<circle cx="76261.8" cy="35836.6" r="118.11" /> 
<circle cx="77261.8" cy="35836.6" r="118.11" /> 
<circle cx="76261.8" cy="36836.6" r="118.11" /> 
<circle cx="77261.8" cy="36836.6" r="118.11" /> 
<circle cx="76261.8" cy="37836.6" r="118.11" /> 
<circle cx="77261.8" cy="37836.6" r="118.11" /> 
<circle cx="76261.8" cy="38836.6" r="118.11" /> 
<circle cx="77261.8" cy="38836.6" r="118.11" /> 
<circle cx="76261.8" cy="39836.6" r="118.11" /> 
<circle cx="77261.8" cy="39836.6" r="118.11" /> 
<circle cx="76261.8" cy="40836.6" r="118.11" /> 
<circle cx="77261.8" cy="40836.6" r="118.11" /> 
<circle cx="76261.8" cy="41836.6" r="118.11" /> 
<circle cx="77261.8" cy="41836.6" r="118.11" /> 
<circle cx="76261.8" cy="42836.6" r="118.11" /> 
<circle cx="77261.8" cy="42836.6" r="118.11" /> 
<circle cx="76261.8" cy="43836.6" r="118.11" /> 
<circle cx="77261.8" cy="43836.6" r="118.11" /> 
<circle cx="76261.8" cy="44836.6" r="118.11" /> 
<circle cx="77261.8" cy="44836.6" r="118.11" /> 
<circle cx="76261.8" cy="45836.6" r="118.11" /> 
<circle cx="77261.8" cy="45836.6" r="118.11" /> 
<circle cx="76261.8" cy="46836.6" r="118.11" /> 
<circle cx="77261.8" cy="46836.6" r="118.11" /> 
<circle cx="76261.8" cy="47836.6" r="118.11" /> 
<circle cx="77261.8" cy="47836.6" r="118.11" /> 
<circle cx="80466.5" cy="13110.2" r="118.11" /> 
<circle cx="81466.5" cy="13110.2" r="118.11" /> 
<circle cx="82466.5" cy="13110.2" r="118.11" /> 
<circle cx="101337" cy="27017.7" r="118.11" /> 
<circle cx="100337" cy="27017.7" r="118.11" /> 
<circle cx="103366" cy="15494.1" r="118.11" /> 
<circle cx="103366" cy="16494.1" r="118.11" /> 
<circle cx="104114" cy="18446.9" r="118.11" /> 
<circle cx="104114" cy="19446.9" r="118.11" /> 
<circle cx="84015.7" cy="13122" r="118.11" /> 
<circle cx="84015.7" cy="14122" r="118.11" /> 
<circle cx="78513.8" cy="13141.7" r="118.11" /> 
<circle cx="78513.8" cy="14141.7" r="118.11" /> 
<circle cx="104894" cy="15472.4" r="118.11" /> 
<circle cx="105894" cy="15472.4" r="118.11" /> 
<circle cx="85876" cy="13122" r="118.11" /> 
<circle cx="85876" cy="14122" r="118.11" /> 
</g> 
</svg>
