<?xml version="1.0" standalone="no"?>
 <!DOCTYPE svg PUBLIC "-//W3C//DTD SVG 1.1//EN" 
 "http://www.w3.org/Graphics/SVG/1.1/DTD/svg11.dtd"> 
<svg xmlns="http://www.w3.org/2000/svg" version="1.1" 
    width="29.7002cm" height="21.0007cm" viewBox="0 0 116930 82680 ">
<title>SVG Picture created as poncho_rescatAR-F_Cu.svg date 2015/12/10 14:08:55 </title>
  <desc>Picture generated by PCBNEW </desc>
<g style="fill:#000000; fill-opacity:1;stroke:#000000; stroke-opacity:1;
stroke-linecap:round; stroke-linejoin:round; "
 transform="translate(0 0) scale(1 1)">
</g>
<g style="fill:#000000; fill-opacity:0.0; 
stroke:#000000; stroke-width:98.4252; stroke-opacity:1; 
stroke-linecap:round; stroke-linejoin:round;">
<path d="M87049 15346
L86824 15346
" />
<path d="M86937 15346
L86937 14952
L86899 15008
L86862 15046
L86824 15065
" />
<path d="M87199 14990
L87218 14971
L87255 14952
L87349 14952
L87387 14971
L87405 14990
L87424 15027
L87424 15065
L87405 15121
L87180 15346
L87424 15346
" />
<path d="M87537 14952
L87668 15346
L87799 14952
" />
<path d="M66511 18327
L66473 18308
L66417 18308
L66361 18327
L66323 18365
L66304 18402
L66286 18477
L66286 18533
L66304 18608
L66323 18646
L66361 18683
L66417 18702
L66454 18702
L66511 18683
L66529 18665
L66529 18533
L66454 18533
" />
<path d="M66698 18702
L66698 18308
L66923 18702
L66923 18308
" />
<path d="M67110 18702
L67110 18308
L67204 18308
L67260 18327
L67298 18365
L67317 18402
L67335 18477
L67335 18533
L67317 18608
L67298 18646
L67260 18683
L67204 18702
L67110 18702
" />
<path d="M66676 15543
L66489 15543
L66470 15730
L66489 15711
L66526 15693
L66620 15693
L66658 15711
L66676 15730
L66695 15768
L66695 15861
L66676 15899
L66658 15918
L66620 15936
L66526 15936
L66489 15918
L66470 15899
" />
<path d="M66808 15543
L66939 15936
L67070 15543
" />
<path d="M74285 27177
L74097 27177
L74079 27364
L74097 27345
L74135 27327
L74229 27327
L74266 27345
L74285 27364
L74303 27402
L74303 27495
L74285 27533
L74266 27552
L74229 27570
L74135 27570
L74097 27552
L74079 27533
" />
<path d="M74416 27177
L74547 27570
L74678 27177
" />
<path d="M82710 13190
L82522 13190
L82504 13378
L82522 13359
L82560 13340
L82654 13340
L82691 13359
L82710 13378
L82729 13415
L82729 13509
L82710 13547
L82691 13565
L82654 13584
L82560 13584
L82522 13565
L82504 13547
" />
<path d="M82841 13190
L82972 13584
L83104 13190
" />
<path d="M97410 18466
L97654 18466
L97523 18616
L97579 18616
L97617 18635
L97635 18653
L97654 18691
L97654 18785
L97635 18822
L97617 18841
L97579 18860
L97467 18860
L97429 18841
L97410 18822
" />
<path d="M97823 18822
L97842 18841
L97823 18860
L97804 18841
L97823 18822
L97823 18860
" />
<path d="M98067 18635
L98029 18616
L98010 18597
L97992 18560
L97992 18541
L98010 18503
L98029 18485
L98067 18466
L98142 18466
L98179 18485
L98198 18503
L98217 18541
L98217 18560
L98198 18597
L98179 18616
L98142 18635
L98067 18635
L98029 18653
L98010 18672
L97992 18710
L97992 18785
L98010 18822
L98029 18841
L98067 18860
L98142 18860
L98179 18841
L98198 18822
L98217 18785
L98217 18710
L98198 18672
L98179 18653
L98142 18635
" />
<path d="M98329 18466
L98460 18860
L98592 18466
" />
<path d="M74970 19716
L75213 19716
L75082 19866
L75138 19866
L75176 19885
L75194 19903
L75213 19941
L75213 20035
L75194 20072
L75176 20091
L75138 20110
L75026 20110
L74988 20091
L74970 20072
" />
<path d="M75382 20072
L75401 20091
L75382 20110
L75363 20091
L75382 20072
L75382 20110
" />
<path d="M75626 19885
L75588 19866
L75569 19847
L75551 19810
L75551 19791
L75569 19753
L75588 19735
L75626 19716
L75701 19716
L75738 19735
L75757 19753
L75776 19791
L75776 19810
L75757 19847
L75738 19866
L75701 19885
L75626 19885
L75588 19903
L75569 19922
L75551 19960
L75551 20035
L75569 20072
L75588 20091
L75626 20110
L75701 20110
L75738 20091
L75757 20072
L75776 20035
L75776 19960
L75757 19922
L75738 19903
L75701 19885
" />
<path d="M75888 19716
L76019 20110
L76151 19716
" />
<path d="M76840 32671
L76840 32146
" />
<path d="M76840 32296
L76877 32221
L76915 32183
L76990 32146
L77065 32146
" />
<path d="M77627 32633
L77552 32671
L77402 32671
L77327 32633
L77290 32558
L77290 32258
L77327 32183
L77402 32146
L77552 32146
L77627 32183
L77664 32258
L77664 32333
L77290 32408
" />
<path d="M77964 32633
L78039 32671
L78189 32671
L78264 32633
L78302 32558
L78302 32521
L78264 32446
L78189 32408
L78077 32408
L78002 32371
L77964 32296
L77964 32258
L78002 32183
L78077 32146
L78189 32146
L78264 32183
" />
<path d="M78977 32633
L78902 32671
L78752 32671
L78677 32633
L78639 32596
L78602 32521
L78602 32296
L78639 32221
L78677 32183
L78752 32146
L78902 32146
L78977 32183
" />
<path d="M79652 32671
L79652 32258
L79614 32183
L79539 32146
L79389 32146
L79314 32183
" />
<path d="M79652 32633
L79577 32671
L79389 32671
L79314 32633
L79277 32558
L79277 32483
L79314 32408
L79389 32371
L79577 32371
L79652 32333
" />
<path d="M79914 32146
L80214 32146
" />
<path d="M80027 31883
L80027 32558
L80064 32633
L80139 32671
L80214 32671
" />
<path d="M80439 32446
L80814 32446
" />
<path d="M80364 32671
L80627 31883
L80889 32671
" />
<path d="M81601 32671
L81339 32296
" />
<path d="M81152 32671
L81152 31883
L81452 31883
L81526 31921
L81564 31958
L81601 32033
L81601 32146
L81564 32221
L81526 32258
L81452 32296
L81152 32296
" />
<path d="M82539 32371
L83139 32371
" />
<path d="M84001 31883
L84451 31883
" />
<path d="M84226 32671
L84226 31883
" />
<path d="M84714 32596
L84751 32633
L84714 32671
L84676 32633
L84714 32596
L84714 32671
" />
<path d="M86026 32671
L86026 31883
" />
<path d="M86026 32633
L85951 32671
L85801 32671
L85726 32633
L85688 32596
L85651 32521
L85651 32296
L85688 32221
L85726 32183
L85801 32146
L85951 32146
L86026 32183
" />
<path d="M86701 32633
L86626 32671
L86476 32671
L86401 32633
L86363 32558
L86363 32258
L86401 32183
L86476 32146
L86626 32146
L86701 32183
L86738 32258
L86738 32333
L86363 32408
" />
<path d="M87676 32671
L87676 31883
L87976 31883
L88051 31921
L88088 31958
L88126 32033
L88126 32146
L88088 32221
L88051 32258
L87976 32296
L87676 32296
" />
<path d="M88463 32671
L88463 32146
" />
<path d="M88463 32296
L88501 32221
L88538 32183
L88613 32146
L88688 32146
" />
<path d="M89063 32671
L88988 32633
L88951 32596
L88913 32521
L88913 32296
L88951 32221
L88988 32183
L89063 32146
L89176 32146
L89251 32183
L89288 32221
L89326 32296
L89326 32521
L89288 32596
L89251 32633
L89176 32671
L89063 32671
" />
<path d="M89588 32146
L89775 32671
" />
<path d="M89963 32146
L89775 32671
L89700 32858
L89663 32896
L89588 32933
" />
<path d="M90563 32633
L90488 32671
L90338 32671
L90263 32633
L90225 32558
L90225 32258
L90263 32183
L90338 32146
L90488 32146
L90563 32183
L90600 32258
L90600 32333
L90225 32408
" />
<path d="M91275 32633
L91200 32671
L91050 32671
L90975 32633
L90938 32596
L90900 32521
L90900 32296
L90938 32221
L90975 32183
L91050 32146
L91200 32146
L91275 32183
" />
<path d="M91500 32146
L91800 32146
" />
<path d="M91613 31883
L91613 32558
L91650 32633
L91725 32671
L91800 32671
" />
<path d="M92175 32671
L92100 32633
L92063 32596
L92025 32521
L92025 32296
L92063 32221
L92100 32183
L92175 32146
L92288 32146
L92363 32183
L92400 32221
L92438 32296
L92438 32521
L92400 32596
L92363 32633
L92288 32671
L92175 32671
" />
<path d="M93787 32671
L93338 32671
" />
<path d="M93562 32671
L93562 31883
L93488 31996
L93413 32071
L93338 32108
" />
<path d="M83645 33159
L83682 33121
L83757 33084
L83945 33084
L84020 33121
L84057 33159
L84095 33234
L84095 33309
L84057 33421
L83607 33871
L84095 33871
" />
<path d="M84582 33084
L84657 33084
L84732 33121
L84770 33159
L84807 33234
L84845 33384
L84845 33571
L84807 33721
L84770 33796
L84732 33834
L84657 33871
L84582 33871
L84507 33834
L84470 33796
L84432 33721
L84395 33571
L84395 33384
L84432 33234
L84470 33159
L84507 33121
L84582 33084
" />
<path d="M85595 33871
L85145 33871
" />
<path d="M85370 33871
L85370 33084
L85295 33196
L85220 33271
L85145 33309
" />
<path d="M86307 33084
L85932 33084
L85895 33459
L85932 33421
L86007 33384
L86195 33384
L86270 33421
L86307 33459
L86345 33534
L86345 33721
L86307 33796
L86270 33834
L86195 33871
L86007 33871
L85932 33834
L85895 33796
" />
<path d="M81095 34285
L81358 35072
L81620 34285
" />
<path d="M81883 35072
L81883 34547
" />
<path d="M81883 34285
L81845 34322
L81883 34360
L81920 34322
L81883 34285
L81883 34360
" />
<path d="M82595 35072
L82595 34660
L82558 34585
L82483 34547
L82333 34547
L82258 34585
" />
<path d="M82595 35035
L82520 35072
L82333 35072
L82258 35035
L82220 34960
L82220 34885
L82258 34810
L82333 34772
L82520 34772
L82595 34735
" />
<path d="M82858 34547
L83158 34547
" />
<path d="M82970 34285
L82970 34960
L83008 35035
L83083 35072
L83158 35072
" />
<path d="M83757 34547
L83757 35185
L83720 35260
L83682 35297
L83607 35335
L83495 35335
L83420 35297
" />
<path d="M83757 35035
L83682 35072
L83532 35072
L83458 35035
L83420 34997
L83383 34922
L83383 34697
L83420 34622
L83458 34585
L83532 34547
L83682 34547
L83757 34585
" />
<path d="M84432 35035
L84357 35072
L84207 35072
L84132 35035
L84095 34960
L84095 34660
L84132 34585
L84207 34547
L84357 34547
L84432 34585
L84470 34660
L84470 34735
L84095 34810
" />
<path d="M85670 34660
L85782 34697
L85820 34735
L85857 34810
L85857 34922
L85820 34997
L85782 35035
L85707 35072
L85407 35072
L85407 34285
L85670 34285
L85745 34322
L85782 34360
L85820 34435
L85820 34510
L85782 34585
L85745 34622
L85670 34660
L85407 34660
" />
<path d="M86532 35072
L86532 34660
L86495 34585
L86420 34547
L86270 34547
L86195 34585
" />
<path d="M86532 35035
L86457 35072
L86270 35072
L86195 35035
L86157 34960
L86157 34885
L86195 34810
L86270 34772
L86457 34772
L86532 34735
" />
<path d="M86870 35035
L86945 35072
L87095 35072
L87170 35035
L87207 34960
L87207 34922
L87170 34847
L87095 34810
L86982 34810
L86907 34772
L86870 34697
L86870 34660
L86907 34585
L86982 34547
L87095 34547
L87170 34585
" />
<path d="M87432 34547
L87732 34547
" />
<path d="M87544 34285
L87544 34960
L87582 35035
L87657 35072
L87732 35072
" />
<path d="M87994 35072
L87994 34547
" />
<path d="M87994 34285
L87957 34322
L87994 34360
L88032 34322
L87994 34285
L87994 34360
" />
<path d="M88669 35035
L88594 35072
L88444 35072
L88369 35035
L88332 34960
L88332 34660
L88369 34585
L88444 34547
L88594 34547
L88669 34585
L88707 34660
L88707 34735
L88332 34810
" />
<path d="M89044 34547
L89044 35072
" />
<path d="M89044 34622
L89082 34585
L89157 34547
L89269 34547
L89344 34585
L89382 34660
L89382 35072
" />
<path d="M78602 36273
L78602 35486
L78864 36048
L79127 35486
L79127 36273
" />
<path d="M79502 36273
L79502 35748
" />
<path d="M79502 35486
L79464 35523
L79502 35561
L79539 35523
L79502 35486
L79502 35561
" />
<path d="M79877 35748
L79877 36273
" />
<path d="M79877 35823
L79914 35785
L79989 35748
L80102 35748
L80177 35785
L80214 35860
L80214 36273
" />
<path d="M80589 36273
L80589 35748
" />
<path d="M80589 35486
L80552 35523
L80589 35561
L80627 35523
L80589 35486
L80589 35561
" />
<path d="M81302 35748
L81302 36385
L81264 36460
L81227 36498
L81152 36535
L81039 36535
L80964 36498
" />
<path d="M81302 36235
L81227 36273
L81077 36273
L81002 36235
L80964 36198
L80927 36123
L80927 35898
L80964 35823
L81002 35785
L81077 35748
L81227 35748
L81302 35785
" />
<path d="M82164 35486
L82614 35486
" />
<path d="M82389 36273
L82389 35486
" />
<path d="M82876 36273
L82876 35748
" />
<path d="M82876 35898
L82914 35823
L82951 35785
L83026 35748
L83101 35748
" />
<path d="M83701 36273
L83701 35860
L83664 35785
L83589 35748
L83439 35748
L83364 35785
" />
<path d="M83701 36235
L83626 36273
L83439 36273
L83364 36235
L83326 36160
L83326 36085
L83364 36010
L83439 35973
L83626 35973
L83701 35935
" />
<path d="M84001 35748
L84189 36273
L84376 35748
" />
<path d="M84976 36235
L84901 36273
L84751 36273
L84676 36235
L84639 36160
L84639 35860
L84676 35785
L84751 35748
L84901 35748
L84976 35785
L85014 35860
L85014 35935
L84639 36010
" />
<path d="M85351 36273
L85351 35748
" />
<path d="M85351 35898
L85389 35823
L85426 35785
L85501 35748
L85576 35748
" />
<path d="M85801 36235
L85876 36273
L86026 36273
L86101 36235
L86138 36160
L86138 36123
L86101 36048
L86026 36010
L85913 36010
L85838 35973
L85801 35898
L85801 35860
L85838 35785
L85913 35748
L86026 35748
L86101 35785
" />
<path d="M86588 36273
L86513 36235
L86476 36198
L86438 36123
L86438 35898
L86476 35823
L86513 35785
L86588 35748
L86701 35748
L86776 35785
L86813 35823
L86851 35898
L86851 36123
L86813 36198
L86776 36235
L86701 36273
L86588 36273
" />
<path d="M87788 36273
L87788 35486
L88051 36048
L88313 35486
L88313 36273
" />
<path d="M89026 36273
L89026 35860
L88988 35785
L88913 35748
L88763 35748
L88688 35785
" />
<path d="M89026 36235
L88951 36273
L88763 36273
L88688 36235
L88651 36160
L88651 36085
L88688 36010
L88763 35973
L88951 35973
L89026 35935
" />
<path d="M89401 36273
L89401 35748
" />
<path d="M89401 35898
L89438 35823
L89476 35785
L89550 35748
L89625 35748
" />
<path d="M90225 36235
L90150 36273
L90000 36273
L89925 36235
L89888 36198
L89850 36123
L89850 35898
L89888 35823
L89925 35785
L90000 35748
L90150 35748
L90225 35785
" />
<path d="M90863 36235
L90788 36273
L90638 36273
L90563 36235
L90525 36160
L90525 35860
L90563 35785
L90638 35748
L90788 35748
L90863 35785
L90900 35860
L90900 35935
L90525 36010
" />
<path d="M91350 36273
L91275 36235
L91238 36160
L91238 35486
" />
<path d="M91763 36273
L91688 36235
L91650 36198
L91613 36123
L91613 35898
L91650 35823
L91688 35785
L91763 35748
L91875 35748
L91950 35785
L91988 35823
L92025 35898
L92025 36123
L91988 36198
L91950 36235
L91875 36273
L91763 36273
" />
<path d="M80589 37061
L80702 37099
L80739 37136
L80777 37211
L80777 37324
L80739 37399
L80702 37436
L80627 37474
L80327 37474
L80327 36686
L80589 36686
L80664 36724
L80702 36761
L80739 36836
L80739 36911
L80702 36986
L80664 37024
L80589 37061
L80327 37061
" />
<path d="M81452 37474
L81452 37061
L81414 36986
L81339 36949
L81189 36949
L81114 36986
" />
<path d="M81452 37436
L81377 37474
L81189 37474
L81114 37436
L81077 37361
L81077 37286
L81114 37211
L81189 37174
L81377 37174
L81452 37136
" />
<path d="M81826 37474
L81826 36949
" />
<path d="M81826 37099
L81864 37024
L81901 36986
L81976 36949
L82051 36949
" />
<path d="M82314 37474
L82314 36686
" />
<path d="M82314 36986
L82389 36949
L82539 36949
L82614 36986
L82651 37024
L82689 37099
L82689 37324
L82651 37399
L82614 37436
L82539 37474
L82389 37474
L82314 37436
" />
<path d="M83364 36949
L83364 37474
" />
<path d="M83026 36949
L83026 37361
L83064 37436
L83139 37474
L83251 37474
L83326 37436
L83364 37399
" />
<path d="M83701 37436
L83776 37474
L83926 37474
L84001 37436
L84039 37361
L84039 37324
L84001 37249
L83926 37211
L83814 37211
L83739 37174
L83701 37099
L83701 37061
L83739 36986
L83814 36949
L83926 36949
L84001 36986
" />
<path d="M84339 37436
L84414 37474
L84564 37474
L84639 37436
L84676 37361
L84676 37324
L84639 37249
L84564 37211
L84451 37211
L84376 37174
L84339 37099
L84339 37061
L84376 36986
L84451 36949
L84564 36949
L84639 36986
" />
<path d="M85314 37436
L85239 37474
L85089 37474
L85014 37436
L84976 37361
L84976 37061
L85014 36986
L85089 36949
L85239 36949
L85314 36986
L85351 37061
L85351 37136
L84976 37211
" />
<path d="M86288 37474
L86288 36686
L86738 37474
L86738 36686
" />
<path d="M87113 37474
L87113 36949
" />
<path d="M87113 36686
L87076 36724
L87113 36761
L87151 36724
L87113 36686
L87113 36761
" />
<path d="M87826 37436
L87751 37474
L87601 37474
L87526 37436
L87488 37399
L87451 37324
L87451 37099
L87488 37024
L87526 36986
L87601 36949
L87751 36949
L87826 36986
" />
<path d="M88276 37474
L88201 37436
L88163 37399
L88126 37324
L88126 37099
L88163 37024
L88201 36986
L88276 36949
L88388 36949
L88463 36986
L88501 37024
L88538 37099
L88538 37324
L88501 37399
L88463 37436
L88388 37474
L88276 37474
" />
<path d="M88988 37474
L88913 37436
L88876 37361
L88876 36686
" />
<path d="M89625 37474
L89625 37061
L89588 36986
L89513 36949
L89363 36949
L89288 36986
" />
<path d="M89625 37436
L89550 37474
L89363 37474
L89288 37436
L89251 37361
L89251 37286
L89288 37211
L89363 37174
L89550 37174
L89625 37136
" />
<path d="M89963 37436
L90038 37474
L90188 37474
L90263 37436
L90300 37361
L90300 37324
L90263 37249
L90188 37211
L90075 37211
L90000 37174
L89963 37099
L89963 37061
L90000 36986
L90075 36949
L90188 36949
L90263 36986
" />
<path d="M80233 37887
L80495 38675
L80758 37887
" />
<path d="M81358 38675
L81358 38262
L81320 38187
L81245 38150
L81095 38150
L81020 38187
" />
<path d="M81358 38637
L81283 38675
L81095 38675
L81020 38637
L80983 38562
L80983 38487
L81020 38412
L81095 38375
L81283 38375
L81358 38337
" />
<path d="M81245 37850
L81133 37962
" />
<path d="M81658 38150
L82070 38150
L81658 38675
L82070 38675
" />
<path d="M82708 38150
L82708 38937
" />
<path d="M82708 38637
L82633 38675
L82483 38675
L82408 38637
L82370 38600
L82333 38525
L82333 38300
L82370 38225
L82408 38187
L82483 38150
L82633 38150
L82708 38187
" />
<path d="M83420 38150
L83420 38675
" />
<path d="M83083 38150
L83083 38562
L83120 38637
L83195 38675
L83308 38675
L83383 38637
L83420 38600
" />
<path d="M84095 38637
L84020 38675
L83870 38675
L83795 38637
L83757 38562
L83757 38262
L83795 38187
L83870 38150
L84020 38150
L84095 38187
L84132 38262
L84132 38337
L83757 38412
" />
<path d="M84395 38150
L84807 38150
L84395 38675
L84807 38675
" />
<path d="M85970 38262
L85707 38262
" />
<path d="M85707 38675
L85707 37887
L86082 37887
" />
<path d="M86720 38675
L86720 38262
L86682 38187
L86607 38150
L86457 38150
L86382 38187
" />
<path d="M86720 38637
L86645 38675
L86457 38675
L86382 38637
L86345 38562
L86345 38487
L86382 38412
L86457 38375
L86645 38375
L86720 38337
" />
<path d="M87432 38637
L87357 38675
L87207 38675
L87132 38637
L87095 38600
L87057 38525
L87057 38300
L87095 38225
L87132 38187
L87207 38150
L87357 38150
L87432 38187
" />
<path d="M88107 38150
L88107 38675
" />
<path d="M87769 38150
L87769 38562
L87807 38637
L87882 38675
L87994 38675
L88069 38637
L88107 38600
" />
<path d="M88482 38150
L88482 38675
" />
<path d="M88482 38225
L88519 38187
L88594 38150
L88707 38150
L88782 38187
L88819 38262
L88819 38675
" />
<path d="M89532 38675
L89532 37887
" />
<path d="M89532 38637
L89457 38675
L89307 38675
L89232 38637
L89194 38600
L89157 38525
L89157 38300
L89194 38225
L89232 38187
L89307 38150
L89457 38150
L89532 38187
" />
<path d="M90019 38675
L89944 38637
L89907 38600
L89869 38525
L89869 38300
L89907 38225
L89944 38187
L90019 38150
L90132 38150
L90207 38187
L90244 38225
L90282 38300
L90282 38525
L90244 38600
L90207 38637
L90132 38675
L90019 38675
" />
<path d="M81658 39125
L81583 39088
L81470 39088
L81358 39125
L81283 39200
L81245 39275
L81208 39425
L81208 39538
L81245 39688
L81283 39763
L81358 39838
L81470 39875
L81545 39875
L81658 39838
L81695 39800
L81695 39538
L81545 39538
" />
<path d="M82370 39875
L82370 39463
L82333 39388
L82258 39350
L82108 39350
L82033 39388
" />
<path d="M82370 39838
L82295 39875
L82108 39875
L82033 39838
L81995 39763
L81995 39688
L82033 39613
L82108 39575
L82295 39575
L82370 39538
" />
<path d="M82745 39875
L82745 39350
" />
<path d="M82745 39500
L82783 39425
L82820 39388
L82895 39350
L82970 39350
" />
<path d="M83570 39838
L83495 39875
L83345 39875
L83270 39838
L83233 39800
L83195 39725
L83195 39500
L83233 39425
L83270 39388
L83345 39350
L83495 39350
L83570 39388
" />
<path d="M83907 39875
L83907 39350
" />
<path d="M83907 39088
L83870 39125
L83907 39163
L83945 39125
L83907 39088
L83907 39163
" />
<path d="M84620 39875
L84620 39463
L84582 39388
L84507 39350
L84357 39350
L84282 39388
" />
<path d="M84620 39838
L84545 39875
L84357 39875
L84282 39838
L84245 39763
L84245 39688
L84282 39613
L84357 39575
L84545 39575
L84620 39538
" />
<path d="M85595 39875
L85595 39088
L85857 39650
L86120 39088
L86120 39875
" />
<path d="M86832 39875
L86832 39463
L86795 39388
L86720 39350
L86570 39350
L86495 39388
" />
<path d="M86832 39838
L86757 39875
L86570 39875
L86495 39838
L86457 39763
L86457 39688
L86495 39613
L86570 39575
L86757 39575
L86832 39538
" />
<path d="M87207 39350
L87207 39875
" />
<path d="M87207 39425
L87245 39388
L87320 39350
L87432 39350
L87507 39388
L87544 39463
L87544 39875
" />
<path d="M88257 39350
L88257 39875
" />
<path d="M87919 39350
L87919 39763
L87957 39838
L88032 39875
L88144 39875
L88219 39838
L88257 39800
" />
<path d="M88932 39838
L88857 39875
L88707 39875
L88632 39838
L88594 39763
L88594 39463
L88632 39388
L88707 39350
L88857 39350
L88932 39388
L88969 39463
L88969 39538
L88594 39613
" />
<path d="M89419 39875
L89344 39838
L89307 39763
L89307 39088
" />
</g>
<g style="fill:#000000; fill-opacity:0.0; 
stroke:#000000; stroke-width:669.291; stroke-opacity:1; 
stroke-linecap:round; stroke-linejoin:round;">
<path d="M101122 13104
L101437 13104
" />
<path d="M101122 14104
L101437 14104
" />
<path d="M101122 15104
L101437 15104
" />
</g>
<g style="fill:#000000; fill-opacity:0.0; 
stroke:#000000; stroke-width:787.402; stroke-opacity:1; 
stroke-linecap:round; stroke-linejoin:round;">
<path d="M92332 14379
L92332 14379
" />
<path d="M90777 14379
L90777 14379
" />
<path d="M93887 14379
L93887 14379
" />
<path d="M89202 14379
L89202 14379
" />
<path d="M101104 10423
L101104 10423
" />
<path d="M97104 10423
L97104 10423
" />
<path d="M96978 18984
L96978 18984
" />
<path d="M96978 22984
L96978 22984
" />
<path d="M98671 16409
L98671 16409
" />
<path d="M98671 12409
L98671 12409
" />
<path d="M68622 16675
L68622 16675
" />
<path d="M68622 17675
L68622 17675
" />
<path d="M98159 30082
L98159 30082
" />
<path d="M98159 31082
L98159 31082
" />
<path d="M98159 32082
L98159 32082
" />
<path d="M98159 33082
L98159 33082
" />
<path d="M98159 34082
L98159 34082
" />
<path d="M98159 35082
L98159 35082
" />
<path d="M98159 36082
L98159 36082
" />
<path d="M98159 37082
L98159 37082
" />
<path d="M75145 46885
L75145 46885
" />
<path d="M75145 45885
L75145 45885
" />
<path d="M76145 46885
L76145 46885
" />
<path d="M76145 45885
L76145 45885
" />
<path d="M77145 46885
L77145 46885
" />
<path d="M77145 45885
L77145 45885
" />
<path d="M78145 46885
L78145 46885
" />
<path d="M78145 45885
L78145 45885
" />
<path d="M79145 46885
L79145 46885
" />
<path d="M79145 45885
L79145 45885
" />
<path d="M80145 46885
L80145 46885
" />
<path d="M80145 45885
L80145 45885
" />
<path d="M81145 46885
L81145 46885
" />
<path d="M81145 45885
L81145 45885
" />
<path d="M82145 46885
L82145 46885
" />
<path d="M82145 45885
L82145 45885
" />
<path d="M83145 46885
L83145 46885
" />
<path d="M83145 45885
L83145 45885
" />
<path d="M84145 46885
L84145 46885
" />
<path d="M84145 45885
L84145 45885
" />
<path d="M85145 46885
L85145 46885
" />
<path d="M85145 45885
L85145 45885
" />
<path d="M86145 46885
L86145 46885
" />
<path d="M86145 45885
L86145 45885
" />
<path d="M87145 46885
L87145 46885
" />
<path d="M87145 45885
L87145 45885
" />
<path d="M88145 46885
L88145 46885
" />
<path d="M88145 45885
L88145 45885
" />
<path d="M89145 46885
L89145 46885
" />
<path d="M89145 45885
L89145 45885
" />
<path d="M90145 46885
L90145 46885
" />
<path d="M90145 45885
L90145 45885
" />
<path d="M91145 46885
L91145 46885
" />
<path d="M91145 45885
L91145 45885
" />
<path d="M92145 46885
L92145 46885
" />
<path d="M92145 45885
L92145 45885
" />
<path d="M93145 46885
L93145 46885
" />
<path d="M93145 45885
L93145 45885
" />
<path d="M94145 46885
L94145 46885
" />
<path d="M94145 45885
L94145 45885
" />
<path d="M75145 18885
L75145 18885
" />
<path d="M75145 17885
L75145 17885
" />
<path d="M76145 18885
L76145 18885
" />
<path d="M76145 17885
L76145 17885
" />
<path d="M77145 18885
L77145 18885
" />
<path d="M77145 17885
L77145 17885
" />
<path d="M78145 18885
L78145 18885
" />
<path d="M78145 17885
L78145 17885
" />
<path d="M79145 18885
L79145 18885
" />
<path d="M79145 17885
L79145 17885
" />
<path d="M80145 18885
L80145 18885
" />
<path d="M80145 17885
L80145 17885
" />
<path d="M81145 18885
L81145 18885
" />
<path d="M81145 17885
L81145 17885
" />
<path d="M82145 18885
L82145 18885
" />
<path d="M82145 17885
L82145 17885
" />
<path d="M83145 18885
L83145 18885
" />
<path d="M83145 17885
L83145 17885
" />
<path d="M84145 18885
L84145 18885
" />
<path d="M84145 17885
L84145 17885
" />
<path d="M85145 18885
L85145 18885
" />
<path d="M85145 17885
L85145 17885
" />
<path d="M86145 18885
L86145 18885
" />
<path d="M86145 17885
L86145 17885
" />
<path d="M87145 18885
L87145 18885
" />
<path d="M87145 17885
L87145 17885
" />
<path d="M88145 18885
L88145 18885
" />
<path d="M88145 17885
L88145 17885
" />
<path d="M89145 18885
L89145 18885
" />
<path d="M89145 17885
L89145 17885
" />
<path d="M90145 18885
L90145 18885
" />
<path d="M90145 17885
L90145 17885
" />
<path d="M91145 18885
L91145 18885
" />
<path d="M91145 17885
L91145 17885
" />
<path d="M92145 18885
L92145 18885
" />
<path d="M92145 17885
L92145 17885
" />
<path d="M93145 18885
L93145 18885
" />
<path d="M93145 17885
L93145 17885
" />
<path d="M94145 18885
L94145 18885
" />
<path d="M94145 17885
L94145 17885
" />
<path d="M100787 28177
L100787 28177
" />
<path d="M101787 28177
L101787 28177
" />
<path d="M100787 29177
L100787 29177
" />
<path d="M101787 29177
L101787 29177
" />
<path d="M100787 30177
L100787 30177
" />
<path d="M101787 30177
L101787 30177
" />
<path d="M100787 31177
L100787 31177
" />
<path d="M101787 31177
L101787 31177
" />
<path d="M100787 32177
L100787 32177
" />
<path d="M101787 32177
L101787 32177
" />
<path d="M100787 33177
L100787 33177
" />
<path d="M101787 33177
L101787 33177
" />
<path d="M100787 34177
L100787 34177
" />
<path d="M101787 34177
L101787 34177
" />
<path d="M100787 35177
L100787 35177
" />
<path d="M101787 35177
L101787 35177
" />
<path d="M100787 36177
L100787 36177
" />
<path d="M101787 36177
L101787 36177
" />
<path d="M100787 37177
L100787 37177
" />
<path d="M101787 37177
L101787 37177
" />
<path d="M100787 38177
L100787 38177
" />
<path d="M101787 38177
L101787 38177
" />
<path d="M100787 39177
L100787 39177
" />
<path d="M101787 39177
L101787 39177
" />
<path d="M100787 40177
L100787 40177
" />
<path d="M101787 40177
L101787 40177
" />
<path d="M100787 41177
L100787 41177
" />
<path d="M101787 41177
L101787 41177
" />
<path d="M100787 42177
L100787 42177
" />
<path d="M101787 42177
L101787 42177
" />
<path d="M100787 43177
L100787 43177
" />
<path d="M101787 43177
L101787 43177
" />
<path d="M100787 44177
L100787 44177
" />
<path d="M101787 44177
L101787 44177
" />
<path d="M100787 45177
L100787 45177
" />
<path d="M101787 45177
L101787 45177
" />
<path d="M100787 46177
L100787 46177
" />
<path d="M101787 46177
L101787 46177
" />
<path d="M100787 47177
L100787 47177
" />
<path d="M101787 47177
L101787 47177
" />
<path d="M72787 28177
L72787 28177
" />
<path d="M73787 28177
L73787 28177
" />
<path d="M72787 29177
L72787 29177
" />
<path d="M73787 29177
L73787 29177
" />
<path d="M72787 30177
L72787 30177
" />
<path d="M73787 30177
L73787 30177
" />
<path d="M72787 31177
L72787 31177
" />
<path d="M73787 31177
L73787 31177
" />
<path d="M72787 32177
L72787 32177
" />
<path d="M73787 32177
L73787 32177
" />
<path d="M72787 33177
L72787 33177
" />
<path d="M73787 33177
L73787 33177
" />
<path d="M72787 34177
L72787 34177
" />
<path d="M73787 34177
L73787 34177
" />
<path d="M72787 35177
L72787 35177
" />
<path d="M73787 35177
L73787 35177
" />
<path d="M72787 36177
L72787 36177
" />
<path d="M73787 36177
L73787 36177
" />
<path d="M72787 37177
L72787 37177
" />
<path d="M73787 37177
L73787 37177
" />
<path d="M72787 38177
L72787 38177
" />
<path d="M73787 38177
L73787 38177
" />
<path d="M72787 39177
L72787 39177
" />
<path d="M73787 39177
L73787 39177
" />
<path d="M72787 40177
L72787 40177
" />
<path d="M73787 40177
L73787 40177
" />
<path d="M72787 41177
L72787 41177
" />
<path d="M73787 41177
L73787 41177
" />
<path d="M72787 42177
L72787 42177
" />
<path d="M73787 42177
L73787 42177
" />
<path d="M72787 43177
L72787 43177
" />
<path d="M73787 43177
L73787 43177
" />
<path d="M72787 44177
L72787 44177
" />
<path d="M73787 44177
L73787 44177
" />
<path d="M72787 45177
L72787 45177
" />
<path d="M73787 45177
L73787 45177
" />
<path d="M72787 46177
L72787 46177
" />
<path d="M73787 46177
L73787 46177
" />
<path d="M72787 47177
L72787 47177
" />
<path d="M73787 47177
L73787 47177
" />
</g>
<g style="fill:#000000; fill-opacity:0.0; 
stroke:#000000; stroke-width:669.291; stroke-opacity:1; 
stroke-linecap:round; stroke-linejoin:round;">
<path d="M70289 14143
L70289 13828
" />
<path d="M71289 14143
L71289 13828
" />
<path d="M72289 14143
L72289 13828
" />
</g>
<g style="fill:#000000; fill-opacity:0.0; 
stroke:#000000; stroke-width:787.402; stroke-opacity:1; 
stroke-linecap:round; stroke-linejoin:round;">
<path d="M96958 24470
L96958 24470
" />
<path d="M96958 25470
L96958 25470
" />
<path d="M99852 13551
L99852 13551
" />
<path d="M99852 12551
L99852 12551
" />
<path d="M101100 16771
L101100 16771
" />
<path d="M100100 16771
L100100 16771
" />
<path d="M76683 13978
L76683 13978
" />
<path d="M76683 14978
L76683 14978
" />
<path d="M68750 13978
L68750 13978
" />
<path d="M68750 14978
L68750 14978
" />
<path d="M96820 12596
L96820 12596
" />
<path d="M96820 11596
L96820 11596
" />
<path d="M78740 13978
L78740 13978
" />
<path d="M78740 14978
L78740 14978
" />
<path d="M69655 19566
L69655 19566
" />
<path d="M78750 20905
L78750 20905
" />
<path d="M96535 36062
L96535 36062
" />
<path d="M97096 46348
L97096 46348
" />
<path d="M71023 47116
L71023 47116
" />
<path d="M103631 46377
L103631 46377
" />
<path d="M80098 15226
L80098 15226
" />
<path d="M94744 20698
L94744 20698
" />
<path d="M83643 15362
L83643 15362
" />
<path d="M83643 14362
L83643 14362
" />
<path d="M84643 15362
L84643 15362
" />
<path d="M84643 14362
L84643 14362
" />
<path d="M95442 30974
L95442 30974
" />
<path d="M95334 10639
L95334 10639
" />
</g>
<g style="fill:#000000; fill-opacity:0.0; 
stroke:#000000; stroke-width:39.3701; stroke-opacity:1; 
stroke-linecap:round; stroke-linejoin:round;">
</g>
<g style="fill:#000000; fill-opacity:1.0; 
stroke:#000000; stroke-width:39.3701; stroke-opacity:1; 
stroke-linecap:round; stroke-linejoin:round;">
<circle cx="100594" cy="22279.5" r="570.866" /> 
<circle cx="102594" cy="22279.5" r="570.866" /> 
<circle cx="100594" cy="25279.5" r="570.866" /> 
<circle cx="102594" cy="25279.5" r="570.866" /> 
</g>
<g style="fill:#000000; fill-opacity:1.0; 
stroke:#000000; stroke-width:787.402; stroke-opacity:1; 
stroke-linecap:round; stroke-linejoin:round;">
<path d="M98722 20716
L98722 20716
" />
<path d="M98722 19716
L98722 19716
" />
<path d="M99722 20716
L99722 20716
" />
<path d="M99722 19716
L99722 19716
" />
<path d="M97962 28285
L97962 28285
" />
<path d="M97962 27285
L97962 27285
" />
<path d="M96564 30352
L96564 30352
" />
<path d="M96564 29352
L96564 29352
" />
<path d="M90816 15236
L90816 15236
" />
</g>
<g style="fill:#000000; fill-opacity:1.0; 
stroke:#000000; stroke-width:39.3701; stroke-opacity:1; 
stroke-linecap:round; stroke-linejoin:round;">
<circle cx="102717" cy="10472.4" r="767.717" /> 
<circle cx="102717" cy="17559.1" r="767.717" /> 
<circle cx="84645.7" cy="11899.6" r="767.717" /> 
<circle cx="66929.1" cy="11899.6" r="767.717" /> 
</g>
<g style="fill:#000000; fill-opacity:1.0; 
stroke:#000000; stroke-width:787.402; stroke-opacity:1; 
stroke-linecap:round; stroke-linejoin:round;">
<path d="M72293 11840
L72293 11840
" />
<path d="M66889 14212
L66889 14212
" />
</g>
<g style="fill:#000000; fill-opacity:1.0; 
stroke:#000000; stroke-width:39.3701; stroke-opacity:1; 
stroke-linecap:round; stroke-linejoin:round;">
<polyline style="fill-rule:evenodd;"
points="105068,49054
103947,49054
103947,17315
103760,16862
103414,16515
102962,16328
102472,16327
102233,16426
102233,15104
102174,14806
102039,14604
102174,14402
102233,14104
102174,13806
102039,13604
102174,13402
102233,13104
102174,12806
102005,12553
101753,12385
101455,12325
101103,12325
100805,12385
100553,12553
100384,12806
100367,12891
100172,12761
99852,12697
99531,12761
99356,12878
99444,12746
99508,12425
99508,12393
99444,12072
99263,11800
98991,11619
98671,11555
98350,11619
98079,11800
97897,12072
97833,12393
97833,12425
97897,12746
98079,13017
98350,13199
98671,13263
98991,13199
99166,13082
99078,13214
99014,13534
99014,13567
99078,13888
99260,14159
99531,14341
99852,14404
100172,14341
100349,14223
100384,14402
100519,14604
100384,14806
100325,15104
100384,15402
100553,15654
100805,15823
101103,15882
101455,15882
101753,15823
102005,15654
102174,15402
102233,15104
102233,16426
102020,16514
101922,16612
101890,16451
101708,16179
101437,15997
101116,15934
101083,15934
100763,15997
100491,16179
100310,16451
100246,16771
100310,17092
100491,17363
100763,17545
101083,17609
101116,17609
101437,17545
101485,17513
101485,17802
101672,18255
102018,18602
102470,18789
102960,18790
103412,18603
103759,18257
103947,17805
103947,17315
103947,49054
102624,49054
102624,45193
102624,45160
102561,44840
102452,44677
102561,44514
102624,44193
102624,44160
102561,43840
102379,43568
102107,43387
101787,43323
101591,43362
101624,43193
101624,43160
101561,42840
101452,42677
101561,42514
101624,42193
101624,42160
101561,41840
101452,41677
101561,41514
101624,41193
101624,41160
101561,40840
101452,40677
101561,40514
101624,40193
101624,40160
101561,39840
101452,39677
101561,39514
101624,39193
101624,39160
101561,38840
101452,38677
101561,38514
101624,38193
101624,38160
101561,37840
101452,37677
101561,37514
101624,37193
101624,37160
101591,36991
101787,37030
102107,36967
102379,36785
102561,36514
102624,36193
102624,36160
102561,35840
102452,35677
102561,35514
102624,35193
102624,35160
102561,34840
102452,34677
102561,34514
102624,34193
102624,34160
102561,33840
102452,33677
102561,33514
102624,33193
102624,33160
102561,32840
102452,32677
102561,32514
102624,32193
102624,32160
102561,31840
102452,31677
102561,31514
102624,31193
102624,31160
102561,30840
102452,30677
102561,30514
102624,30193
102624,30160
102561,29840
102379,29568
102107,29387
101787,29323
101591,29362
101624,29193
101624,29160
101591,28991
101787,29030
102107,28967
102379,28785
102561,28514
102624,28193
102624,28160
102561,27840
102379,27568
102107,27387
101787,27323
101628,27354
101628,25074
101628,22074
101471,21694
101181,21403
100801,21245
100576,21245
100576,19716
100512,19396
100330,19124
100059,18942
99738,18879
99706,18879
99508,18918
99508,16425
99508,16393
99444,16072
99263,15800
98991,15619
98671,15555
98350,15619
98079,15800
97897,16072
97833,16393
97833,16425
97897,16746
98079,17017
98350,17199
98671,17263
98991,17199
99263,17017
99444,16746
99508,16425
99508,18918
99385,18942
99222,19051
99122,18985
99122,17833
97658,17833
97658,12612
97658,12580
97594,12259
97412,11987
97141,11806
96820,11742
96500,11806
96228,11987
96047,12259
95983,12580
95983,12612
96047,12933
96228,13204
96500,13386
96820,13450
97141,13386
97412,13204
97594,12933
97658,12612
97658,17833
96861,17833
96861,18153
96657,18194
96386,18375
96204,18647
96140,18967
96140,19000
96204,19321
96386,19592
96657,19774
96978,19838
97298,19774
97570,19592
97652,19469
97917,19469
97868,19716
97932,20036
98113,20308
98385,20490
98706,20553
98738,20553
99059,20490
99222,20381
99385,20490
99706,20553
99738,20553
100059,20490
100330,20308
100512,20036
100576,19716
100576,21245
100389,21245
100009,21402
99718,21692
99560,22072
99560,22484
99717,22864
100007,23155
100387,23313
100799,23313
101179,23156
101470,22866
101628,22486
101628,22074
101628,25074
101471,24694
101181,24403
100801,24245
100389,24245
100009,24402
99718,24692
99560,25072
99560,25484
99717,25864
100007,26155
100387,26313
100799,26313
101179,26156
101470,25866
101628,25486
101628,25074
101628,27354
101466,27387
101287,27507
101107,27387
100787,27323
100466,27387
100195,27568
100013,27840
99950,28160
99950,28193
100013,28514
100122,28677
100013,28840
99950,29160
99950,29193
100013,29514
100122,29677
100013,29840
99950,30160
99950,30193
100013,30514
100122,30677
100013,30840
99950,31160
99950,31193
100013,31514
100122,31677
100013,31840
99950,32160
99950,32193
100013,32514
100122,32677
100013,32840
99950,33160
99950,33193
100013,33514
100122,33677
100013,33840
99950,34160
99950,34193
100013,34514
100122,34677
100013,34840
99950,35160
99950,35193
100013,35514
100122,35677
100013,35840
99950,36160
99950,36193
100013,36514
100122,36677
100013,36840
99950,37160
99950,37193
100013,37514
100122,37677
100013,37840
99950,38160
99950,38193
100013,38514
100122,38677
100013,38840
99950,39160
99950,39193
100013,39514
100122,39677
100013,39840
99950,40160
99950,40193
100013,40514
100122,40677
100013,40840
99950,41160
99950,41193
100013,41514
100122,41677
100013,41840
99950,42160
99950,42193
100013,42514
100122,42677
100013,42840
99950,43160
99950,43193
100013,43514
100122,43677
100013,43840
99950,44160
99950,44193
100013,44514
100122,44677
100013,44840
99950,45160
99950,45193
100013,45514
100122,45677
100013,45840
99950,46160
99950,46193
100013,46514
100122,46677
100013,46840
99950,47160
99950,47193
100013,47514
100195,47785
100466,47967
100787,48030
101107,47967
101379,47785
101561,47514
101624,47193
101624,47160
101561,46840
101452,46677
101561,46514
101624,46193
101624,46160
101591,45991
101787,46030
102107,45967
102379,45785
102561,45514
102624,45193
102624,49054
98996,49054
98996,37099
98996,37066
98996,35099
98996,35066
98933,34745
98824,34582
98933,34419
98996,34099
98996,34066
98933,33745
98824,33582
98933,33419
98996,33099
98996,33066
98933,32745
98824,32582
98933,32419
98996,32099
98996,32066
98996,30099
98996,30066
98933,29745
98800,29546
98800,28301
98800,28269
98736,27948
98554,27676
98283,27495
97962,27431
97815,27460
97815,23000
97815,22967
97752,22647
97570,22375
97298,22194
96978,22130
96657,22194
96386,22375
96204,22647
96140,22967
96140,23000
96204,23321
96386,23592
96577,23720
96366,23861
96185,24133
96121,24454
96121,24486
96185,24807
96294,24970
96185,25133
96121,25454
96121,25486
96185,25807
96366,26079
96638,26260
96958,26324
97279,26260
97550,26079
97732,25807
97796,25486
97796,25454
97732,25133
97623,24970
97732,24807
97796,24486
97796,24454
97732,24133
97550,23861
97359,23733
97570,23592
97752,23321
97815,23000
97815,27460
97642,27495
97370,27676
97188,27948
97125,28269
97125,28301
97188,28622
97370,28893
97642,29075
97962,29139
98283,29075
98554,28893
98736,28622
98800,28301
98800,29546
98751,29474
98479,29292
98159,29228
97838,29292
97567,29474
97402,29721
97402,29368
97402,29335
97338,29015
97157,28743
96885,28562
96564,28498
96244,28562
95972,28743
95791,29015
95727,29335
95727,29368
95791,29689
95972,29960
96244,30142
96564,30206
96885,30142
97157,29960
97338,29689
97402,29368
97402,29721
97385,29745
97322,30066
97322,30099
97385,30419
97567,30691
97838,30872
98159,30936
98479,30872
98751,30691
98933,30419
98996,30099
98996,32066
98933,31745
98751,31474
98479,31292
98159,31228
97838,31292
97567,31474
97385,31745
97322,32066
97322,32099
97385,32419
97494,32582
97385,32745
97322,33066
97322,33099
97385,33419
97494,33582
97385,33745
97322,34066
97322,34099
97385,34419
97494,34582
97385,34745
97322,35066
97322,35099
97385,35419
97567,35691
97838,35872
98159,35936
98479,35872
98751,35691
98933,35419
98996,35099
98996,37066
98933,36745
98751,36474
98479,36292
98159,36228
97838,36292
97567,36474
97385,36745
97322,37066
97322,37099
97385,37419
97567,37691
97838,37872
98159,37936
98479,37872
98751,37691
98933,37419
98996,37099
98996,49054
94741,49054
94741,14379
94677,14059
94496,13787
94224,13606
93904,13542
93871,13542
93550,13606
93279,13787
93110,14040
92941,13787
92669,13606
92349,13542
92316,13542
91995,13606
91724,13787
91542,14059
91478,14379
91542,14700
91724,14972
91995,15153
92316,15217
92349,15217
92669,15153
92941,14972
93110,14719
93279,14972
93550,15153
93871,15217
93904,15217
94224,15153
94496,14972
94677,14700
94741,14379
94741,49054
94430,49054
94430,40601
94430,31209
93999,31209
93999,18885
93935,18565
93754,18293
93482,18112
93162,18048
93129,18048
92960,18082
92999,17885
92935,17565
92754,17293
92482,17112
92162,17048
92129,17048
91808,17112
91645,17221
91482,17112
91162,17048
91129,17048
90808,17112
90645,17221
90482,17112
90162,17048
90129,17048
90056,17062
90056,14379
89992,14059
89811,13787
89539,13606
89219,13542
89186,13542
88865,13606
88594,13787
88412,14059
88348,14379
88412,14700
88594,14972
88865,15153
89186,15217
89219,15217
89539,15153
89811,14972
89992,14700
90056,14379
90056,17062
89808,17112
89645,17221
89482,17112
89162,17048
89129,17048
88808,17112
88537,17293
88355,17565
88329,17694
88329,15955
88329,14320
86256,14320
86256,15955
88329,15955
88329,17694
88291,17885
88355,18206
88475,18385
88355,18565
88291,18885
88355,19206
88537,19477
88808,19659
89129,19723
89162,19723
89482,19659
89645,19550
89808,19659
90129,19723
90162,19723
90482,19659
90645,19550
90808,19659
91129,19723
91162,19723
91482,19659
91645,19550
91808,19659
92129,19723
92162,19723
92482,19659
92645,19550
92808,19659
93129,19723
93162,19723
93482,19659
93754,19477
93935,19206
93999,18885
93999,31209
86999,31209
86999,18885
86935,18565
86815,18385
86935,18206
86999,17885
86935,17565
86754,17293
86482,17112
86162,17048
86129,17048
85876,17098
85876,11655
85689,11203
85343,10856
84891,10668
84401,10668
83949,10855
83602,11201
83414,11653
83414,12143
83585,12558
81936,12558
81936,14193
82823,14193
82789,14362
82853,14682
82973,14862
82853,15041
82789,15362
82853,15682
83035,15954
83306,16135
83627,16199
83660,16199
83980,16135
84252,15954
84433,15682
84497,15362
84433,15041
84313,14862
84433,14682
84497,14362
84433,14041
84252,13770
83980,13588
83660,13524
83634,13524
83634,12629
83947,12942
84399,13130
84889,13130
85342,12943
85688,12597
85876,12145
85876,11655
85876,17098
85808,17112
85645,17221
85482,17112
85162,17048
85129,17048
84808,17112
84645,17221
84482,17112
84162,17048
84129,17048
83808,17112
83645,17221
83482,17112
83162,17048
83129,17048
82808,17112
82645,17221
82482,17112
82162,17048
82129,17048
81808,17112
81537,17293
81355,17565
81291,17885
81355,18206
81475,18385
81355,18565
81291,18885
81355,19206
81537,19477
81808,19659
82129,19723
82162,19723
82482,19659
82645,19550
82808,19659
83129,19723
83162,19723
83482,19659
83645,19550
83808,19659
84129,19723
84162,19723
84482,19659
84645,19550
84808,19659
85129,19723
85162,19723
85482,19659
85645,19550
85808,19659
86129,19723
86162,19723
86482,19659
86754,19477
86935,19206
86999,18885
86999,31209
79999,31209
79999,18885
79935,18565
79815,18385
79935,18206
79999,17885
79935,17565
79754,17293
79577,17175
79577,13994
79577,13961
79513,13641
79332,13369
79060,13188
78740,13124
78419,13188
78148,13369
77966,13641
77902,13961
77902,13994
77966,14315
78148,14586
78419,14768
78740,14832
79060,14768
79332,14586
79513,14315
79577,13994
79577,17175
79482,17112
79162,17048
79129,17048
78808,17112
78537,17293
78355,17565
78291,17885
78355,18206
78475,18385
78355,18565
78291,18885
78355,19206
78537,19477
78808,19659
79129,19723
79162,19723
79482,19659
79754,19477
79935,19206
79999,18885
79999,31209
77520,31209
77520,13994
77520,13961
77456,13641
77275,13369
77003,13188
76683,13124
76362,13188
76090,13369
75909,13641
75845,13961
75845,13994
75909,14315
76090,14586
76362,14768
76683,14832
77003,14768
77275,14586
77456,14315
77520,13994
77520,31209
76999,31209
76999,18885
76935,18565
76815,18385
76935,18206
76999,17885
76935,17565
76754,17293
76482,17112
76162,17048
76129,17048
75808,17112
75645,17221
75482,17112
75162,17048
75129,17048
74808,17112
74537,17293
74355,17565
74291,17885
74355,18206
74475,18385
74355,18565
74291,18885
74355,19206
74420,19303
74420,20719
76681,20719
76681,19526
76754,19477
76935,19206
76999,18885
76999,31209
76159,31209
76159,40601
94430,40601
94430,49054
93999,49054
93999,46885
93935,46565
93754,46293
93482,46112
93162,46048
93129,46048
92960,46082
92999,45885
92935,45565
92754,45293
92482,45112
92162,45048
92129,45048
91808,45112
91645,45221
91482,45112
91162,45048
91129,45048
90808,45112
90645,45221
90482,45112
90162,45048
90129,45048
89808,45112
89645,45221
89482,45112
89162,45048
89129,45048
88808,45112
88537,45293
88355,45565
88291,45885
88355,46206
88475,46385
88355,46565
88291,46885
88355,47206
88537,47477
88808,47659
89129,47723
89162,47723
89482,47659
89645,47550
89808,47659
90129,47723
90162,47723
90482,47659
90645,47550
90808,47659
91129,47723
91162,47723
91482,47659
91645,47550
91808,47659
92129,47723
92162,47723
92482,47659
92645,47550
92808,47659
93129,47723
93162,47723
93482,47659
93754,47477
93935,47206
93999,46885
93999,49054
86999,49054
86999,46885
86935,46565
86815,46385
86935,46206
86999,45885
86935,45565
86754,45293
86482,45112
86162,45048
86129,45048
85808,45112
85645,45221
85482,45112
85162,45048
85129,45048
84808,45112
84645,45221
84482,45112
84162,45048
84129,45048
83808,45112
83645,45221
83482,45112
83162,45048
83129,45048
82808,45112
82645,45221
82482,45112
82162,45048
82129,45048
81808,45112
81537,45293
81355,45565
81291,45885
81355,46206
81475,46385
81355,46565
81291,46885
81355,47206
81537,47477
81808,47659
82129,47723
82162,47723
82482,47659
82645,47550
82808,47659
83129,47723
83162,47723
83482,47659
83754,47477
83935,47206
83999,46885
83960,46689
84129,46723
84162,46723
84330,46689
84291,46885
84355,47206
84537,47477
84808,47659
85129,47723
85162,47723
85482,47659
85645,47550
85808,47659
86129,47723
86162,47723
86482,47659
86754,47477
86935,47206
86999,46885
86999,49054
79999,49054
79999,46885
79935,46565
79815,46385
79935,46206
79999,45885
79935,45565
79754,45293
79482,45112
79162,45048
79129,45048
78808,45112
78645,45221
78482,45112
78162,45048
78129,45048
77808,45112
77645,45221
77482,45112
77162,45048
77129,45048
76808,45112
76645,45221
76482,45112
76162,45048
76129,45048
75808,45112
75645,45221
75482,45112
75162,45048
75129,45048
74808,45112
74615,45241
74624,45193
74624,45160
74561,44840
74452,44677
74561,44514
74624,44193
74624,44160
74561,43840
74452,43677
74561,43514
74624,43193
74624,43160
74561,42840
74452,42677
74561,42514
74624,42193
74624,42160
74561,41840
74452,41677
74561,41514
74624,41193
74624,41160
74561,40840
74452,40677
74561,40514
74624,40193
74624,40160
74561,39840
74452,39677
74561,39514
74624,39193
74624,39160
74561,38840
74452,38677
74561,38514
74624,38193
74624,38160
74561,37840
74452,37677
74561,37514
74624,37193
74624,37160
74561,36840
74452,36677
74561,36514
74624,36193
74624,36160
74561,35840
74452,35677
74561,35514
74624,35193
74624,35160
74561,34840
74452,34677
74561,34514
74624,34193
74624,34160
74561,33840
74452,33677
74561,33514
74624,33193
74624,33160
74561,32840
74452,32677
74561,32514
74624,32193
74624,32160
74561,31840
74452,31677
74561,31514
74624,31193
74624,31160
74561,30840
74452,30677
74561,30514
74624,30193
74624,30160
74561,29840
74452,29677
74561,29514
74624,29193
74624,29160
74561,28840
74452,28677
74561,28514
74624,28193
74624,28179
75209,28179
75209,26544
73511,26544
73511,27378
73466,27387
73287,27507
73107,27387
73067,27379
73067,14162
73067,13810
73008,13512
72839,13260
72587,13091
72289,13032
71991,13091
71738,13260
71570,13512
71511,13810
71511,14162
71570,14459
71738,14712
71991,14881
72289,14940
72587,14881
72839,14712
73008,14459
73067,14162
73067,27379
72787,27323
72466,27387
72195,27568
72013,27840
71950,28160
71950,28193
72013,28514
72195,28785
72466,28967
72787,29030
72983,28991
72950,29160
72950,29193
73013,29514
73122,29677
73013,29840
72950,30160
72950,30193
73013,30514
73122,30677
73013,30840
72950,31160
72950,31193
72983,31362
72787,31323
72466,31387
72195,31568
72013,31840
71950,32160
71950,32193
72013,32514
72195,32785
72466,32967
72787,33030
72983,32991
72950,33160
72950,33193
73013,33514
73122,33677
73013,33840
72950,34160
72950,34193
72983,34362
72787,34323
72466,34387
72195,34568
72013,34840
71950,35160
71950,35193
72013,35514
72195,35785
72466,35967
72787,36030
72983,35991
72950,36160
72950,36193
73013,36514
73122,36677
73013,36840
72950,37160
72950,37193
72983,37362
72787,37323
72466,37387
72195,37568
72013,37840
71950,38160
71950,38193
72013,38514
72122,38677
72013,38840
71950,39160
71950,39193
72013,39514
72195,39785
72466,39967
72787,40030
72983,39991
72950,40160
72950,40193
73013,40514
73122,40677
73013,40840
72950,41160
72950,41193
72983,41362
72787,41323
72466,41387
72195,41568
72013,41840
71950,42160
71950,42193
72013,42514
72122,42677
72013,42840
71950,43160
71950,43193
72013,43514
72122,43677
72013,43840
71950,44160
71950,44193
72013,44514
72122,44677
72013,44840
71950,45160
71950,45193
72013,45514
72195,45785
72466,45967
72787,46030
72983,45991
72950,46160
72950,46193
73013,46514
73122,46677
73013,46840
72950,47160
72950,47193
73013,47514
73195,47785
73466,47967
73787,48030
74107,47967
74379,47785
74561,47514
74564,47496
74808,47659
75129,47723
75162,47723
75482,47659
75645,47550
75808,47659
76129,47723
76162,47723
76482,47659
76754,47477
76935,47206
76999,46885
76960,46689
77129,46723
77162,46723
77330,46689
77291,46885
77355,47206
77537,47477
77808,47659
78129,47723
78162,47723
78482,47659
78645,47550
78808,47659
79129,47723
79162,47723
79482,47659
79754,47477
79935,47206
79999,46885
79999,49054
71067,49054
71067,14162
71067,13810
71008,13512
70839,13260
70587,13091
70289,13032
69991,13091
69738,13260
69570,13512
69534,13694
69523,13641
69342,13369
69070,13188
68750,13124
68429,13188
68157,13369
67976,13641
67912,13961
67912,13994
67976,14315
68157,14586
68429,14768
68750,14832
69070,14768
69342,14586
69523,14315
69532,14270
69570,14459
69738,14712
69991,14881
70289,14940
70587,14881
70839,14712
71008,14459
71067,14162
71067,49054
69459,49054
69459,16691
69459,16658
69395,16338
69214,16066
68942,15885
68622,15821
68301,15885
68029,16066
67848,16338
67784,16658
67784,16691
67848,17012
68029,17283
68301,17465
68622,17529
68942,17465
69214,17283
69395,17012
69459,16691
69459,49054
65798,49054
65798,19311
67903,19311
67903,17676
67601,17676
67601,16546
67601,14910
65902,14910
65902,16546
67601,16546
67601,17676
65798,17676
65798,12385
65884,12596
66230,12942
66683,13130
67172,13130
67625,12943
67972,12597
68160,12145
68160,11655
67973,11203
67627,10856
67175,10668
66685,10668
66232,10855
65886,11201
65798,11413
65798,9784
100565,9784
100495,9831
100314,10102
100250,10423
100314,10743
100495,11015
100767,11196
101087,11260
101120,11260
101441,11196
101631,11069
101672,11168
102018,11515
102470,11703
102960,11703
103412,11516
103759,11170
103947,10718
103947,10228
103764,9784
105068,9784
105068,49054
" /> 
</g>
<g style="fill:#000000; fill-opacity:0.0; 
stroke:#000000; stroke-width:100; stroke-opacity:1; 
stroke-linecap:round; stroke-linejoin:round;">
<polyline fill="none;"
points="105068,49054
103947,49054
103947,17315
103760,16862
103414,16515
102962,16328
102472,16327
102233,16426
102233,15104
102174,14806
102039,14604
102174,14402
102233,14104
102174,13806
102039,13604
102174,13402
102233,13104
102174,12806
102005,12553
101753,12385
101455,12325
101103,12325
100805,12385
100553,12553
100384,12806
100367,12891
100172,12761
99852,12697
99531,12761
99356,12878
99444,12746
99508,12425
99508,12393
99444,12072
99263,11800
98991,11619
98671,11555
98350,11619
98079,11800
97897,12072
97833,12393
97833,12425
97897,12746
98079,13017
98350,13199
98671,13263
98991,13199
99166,13082
99078,13214
99014,13534
99014,13567
99078,13888
99260,14159
99531,14341
99852,14404
100172,14341
100349,14223
100384,14402
100519,14604
100384,14806
100325,15104
100384,15402
100553,15654
100805,15823
101103,15882
101455,15882
101753,15823
102005,15654
102174,15402
102233,15104
102233,16426
102020,16514
101922,16612
101890,16451
101708,16179
101437,15997
101116,15934
101083,15934
100763,15997
100491,16179
100310,16451
100246,16771
100310,17092
100491,17363
100763,17545
101083,17609
101116,17609
101437,17545
101485,17513
101485,17802
101672,18255
102018,18602
102470,18789
102960,18790
103412,18603
103759,18257
103947,17805
103947,17315
103947,49054
102624,49054
102624,45193
102624,45160
102561,44840
102452,44677
102561,44514
102624,44193
102624,44160
102561,43840
102379,43568
102107,43387
101787,43323
101591,43362
101624,43193
101624,43160
101561,42840
101452,42677
101561,42514
101624,42193
101624,42160
101561,41840
101452,41677
101561,41514
101624,41193
101624,41160
101561,40840
101452,40677
101561,40514
101624,40193
101624,40160
101561,39840
101452,39677
101561,39514
101624,39193
101624,39160
101561,38840
101452,38677
101561,38514
101624,38193
101624,38160
101561,37840
101452,37677
101561,37514
101624,37193
101624,37160
101591,36991
101787,37030
102107,36967
102379,36785
102561,36514
102624,36193
102624,36160
102561,35840
102452,35677
102561,35514
102624,35193
102624,35160
102561,34840
102452,34677
102561,34514
102624,34193
102624,34160
102561,33840
102452,33677
102561,33514
102624,33193
102624,33160
102561,32840
102452,32677
102561,32514
102624,32193
102624,32160
102561,31840
102452,31677
102561,31514
102624,31193
102624,31160
102561,30840
102452,30677
102561,30514
102624,30193
102624,30160
102561,29840
102379,29568
102107,29387
101787,29323
101591,29362
101624,29193
101624,29160
101591,28991
101787,29030
102107,28967
102379,28785
102561,28514
102624,28193
102624,28160
102561,27840
102379,27568
102107,27387
101787,27323
101628,27354
101628,25074
101628,22074
101471,21694
101181,21403
100801,21245
100576,21245
100576,19716
100512,19396
100330,19124
100059,18942
99738,18879
99706,18879
99508,18918
99508,16425
99508,16393
99444,16072
99263,15800
98991,15619
98671,15555
98350,15619
98079,15800
97897,16072
97833,16393
97833,16425
97897,16746
98079,17017
98350,17199
98671,17263
98991,17199
99263,17017
99444,16746
99508,16425
99508,18918
99385,18942
99222,19051
99122,18985
99122,17833
97658,17833
97658,12612
97658,12580
97594,12259
97412,11987
97141,11806
96820,11742
96500,11806
96228,11987
96047,12259
95983,12580
95983,12612
96047,12933
96228,13204
96500,13386
96820,13450
97141,13386
97412,13204
97594,12933
97658,12612
97658,17833
96861,17833
96861,18153
96657,18194
96386,18375
96204,18647
96140,18967
96140,19000
96204,19321
96386,19592
96657,19774
96978,19838
97298,19774
97570,19592
97652,19469
97917,19469
97868,19716
97932,20036
98113,20308
98385,20490
98706,20553
98738,20553
99059,20490
99222,20381
99385,20490
99706,20553
99738,20553
100059,20490
100330,20308
100512,20036
100576,19716
100576,21245
100389,21245
100009,21402
99718,21692
99560,22072
99560,22484
99717,22864
100007,23155
100387,23313
100799,23313
101179,23156
101470,22866
101628,22486
101628,22074
101628,25074
101471,24694
101181,24403
100801,24245
100389,24245
100009,24402
99718,24692
99560,25072
99560,25484
99717,25864
100007,26155
100387,26313
100799,26313
101179,26156
101470,25866
101628,25486
101628,25074
101628,27354
101466,27387
101287,27507
101107,27387
100787,27323
100466,27387
100195,27568
100013,27840
99950,28160
99950,28193
100013,28514
100122,28677
100013,28840
99950,29160
99950,29193
100013,29514
100122,29677
100013,29840
99950,30160
99950,30193
100013,30514
100122,30677
100013,30840
99950,31160
99950,31193
100013,31514
100122,31677
100013,31840
99950,32160
99950,32193
100013,32514
100122,32677
100013,32840
99950,33160
99950,33193
100013,33514
100122,33677
100013,33840
99950,34160
99950,34193
100013,34514
100122,34677
100013,34840
99950,35160
99950,35193
100013,35514
100122,35677
100013,35840
99950,36160
99950,36193
100013,36514
100122,36677
100013,36840
99950,37160
99950,37193
100013,37514
100122,37677
100013,37840
99950,38160
99950,38193
100013,38514
100122,38677
100013,38840
99950,39160
99950,39193
100013,39514
100122,39677
100013,39840
99950,40160
99950,40193
100013,40514
100122,40677
100013,40840
99950,41160
99950,41193
100013,41514
100122,41677
100013,41840
99950,42160
99950,42193
100013,42514
100122,42677
100013,42840
99950,43160
99950,43193
100013,43514
100122,43677
100013,43840
99950,44160
99950,44193
100013,44514
100122,44677
100013,44840
99950,45160
99950,45193
100013,45514
100122,45677
100013,45840
99950,46160
99950,46193
100013,46514
100122,46677
100013,46840
99950,47160
99950,47193
100013,47514
100195,47785
100466,47967
100787,48030
101107,47967
101379,47785
101561,47514
101624,47193
101624,47160
101561,46840
101452,46677
101561,46514
101624,46193
101624,46160
101591,45991
101787,46030
102107,45967
102379,45785
102561,45514
102624,45193
102624,49054
98996,49054
98996,37099
98996,37066
98996,35099
98996,35066
98933,34745
98824,34582
98933,34419
98996,34099
98996,34066
98933,33745
98824,33582
98933,33419
98996,33099
98996,33066
98933,32745
98824,32582
98933,32419
98996,32099
98996,32066
98996,30099
98996,30066
98933,29745
98800,29546
98800,28301
98800,28269
98736,27948
98554,27676
98283,27495
97962,27431
97815,27460
97815,23000
97815,22967
97752,22647
97570,22375
97298,22194
96978,22130
96657,22194
96386,22375
96204,22647
96140,22967
96140,23000
96204,23321
96386,23592
96577,23720
96366,23861
96185,24133
96121,24454
96121,24486
96185,24807
96294,24970
96185,25133
96121,25454
96121,25486
96185,25807
96366,26079
96638,26260
96958,26324
97279,26260
97550,26079
97732,25807
97796,25486
97796,25454
97732,25133
97623,24970
97732,24807
97796,24486
97796,24454
97732,24133
97550,23861
97359,23733
97570,23592
97752,23321
97815,23000
97815,27460
97642,27495
97370,27676
97188,27948
97125,28269
97125,28301
97188,28622
97370,28893
97642,29075
97962,29139
98283,29075
98554,28893
98736,28622
98800,28301
98800,29546
98751,29474
98479,29292
98159,29228
97838,29292
97567,29474
97402,29721
97402,29368
97402,29335
97338,29015
97157,28743
96885,28562
96564,28498
96244,28562
95972,28743
95791,29015
95727,29335
95727,29368
95791,29689
95972,29960
96244,30142
96564,30206
96885,30142
97157,29960
97338,29689
97402,29368
97402,29721
97385,29745
97322,30066
97322,30099
97385,30419
97567,30691
97838,30872
98159,30936
98479,30872
98751,30691
98933,30419
98996,30099
98996,32066
98933,31745
98751,31474
98479,31292
98159,31228
97838,31292
97567,31474
97385,31745
97322,32066
97322,32099
97385,32419
97494,32582
97385,32745
97322,33066
97322,33099
97385,33419
97494,33582
97385,33745
97322,34066
97322,34099
97385,34419
97494,34582
97385,34745
97322,35066
97322,35099
97385,35419
97567,35691
97838,35872
98159,35936
98479,35872
98751,35691
98933,35419
98996,35099
98996,37066
98933,36745
98751,36474
98479,36292
98159,36228
97838,36292
97567,36474
97385,36745
97322,37066
97322,37099
97385,37419
97567,37691
97838,37872
98159,37936
98479,37872
98751,37691
98933,37419
98996,37099
98996,49054
94741,49054
94741,14379
94677,14059
94496,13787
94224,13606
93904,13542
93871,13542
93550,13606
93279,13787
93110,14040
92941,13787
92669,13606
92349,13542
92316,13542
91995,13606
91724,13787
91542,14059
91478,14379
91542,14700
91724,14972
91995,15153
92316,15217
92349,15217
92669,15153
92941,14972
93110,14719
93279,14972
93550,15153
93871,15217
93904,15217
94224,15153
94496,14972
94677,14700
94741,14379
94741,49054
94430,49054
94430,40601
94430,31209
93999,31209
93999,18885
93935,18565
93754,18293
93482,18112
93162,18048
93129,18048
92960,18082
92999,17885
92935,17565
92754,17293
92482,17112
92162,17048
92129,17048
91808,17112
91645,17221
91482,17112
91162,17048
91129,17048
90808,17112
90645,17221
90482,17112
90162,17048
90129,17048
90056,17062
90056,14379
89992,14059
89811,13787
89539,13606
89219,13542
89186,13542
88865,13606
88594,13787
88412,14059
88348,14379
88412,14700
88594,14972
88865,15153
89186,15217
89219,15217
89539,15153
89811,14972
89992,14700
90056,14379
90056,17062
89808,17112
89645,17221
89482,17112
89162,17048
89129,17048
88808,17112
88537,17293
88355,17565
88329,17694
88329,15955
88329,14320
86256,14320
86256,15955
88329,15955
88329,17694
88291,17885
88355,18206
88475,18385
88355,18565
88291,18885
88355,19206
88537,19477
88808,19659
89129,19723
89162,19723
89482,19659
89645,19550
89808,19659
90129,19723
90162,19723
90482,19659
90645,19550
90808,19659
91129,19723
91162,19723
91482,19659
91645,19550
91808,19659
92129,19723
92162,19723
92482,19659
92645,19550
92808,19659
93129,19723
93162,19723
93482,19659
93754,19477
93935,19206
93999,18885
93999,31209
86999,31209
86999,18885
86935,18565
86815,18385
86935,18206
86999,17885
86935,17565
86754,17293
86482,17112
86162,17048
86129,17048
85876,17098
85876,11655
85689,11203
85343,10856
84891,10668
84401,10668
83949,10855
83602,11201
83414,11653
83414,12143
83585,12558
81936,12558
81936,14193
82823,14193
82789,14362
82853,14682
82973,14862
82853,15041
82789,15362
82853,15682
83035,15954
83306,16135
83627,16199
83660,16199
83980,16135
84252,15954
84433,15682
84497,15362
84433,15041
84313,14862
84433,14682
84497,14362
84433,14041
84252,13770
83980,13588
83660,13524
83634,13524
83634,12629
83947,12942
84399,13130
84889,13130
85342,12943
85688,12597
85876,12145
85876,11655
85876,17098
85808,17112
85645,17221
85482,17112
85162,17048
85129,17048
84808,17112
84645,17221
84482,17112
84162,17048
84129,17048
83808,17112
83645,17221
83482,17112
83162,17048
83129,17048
82808,17112
82645,17221
82482,17112
82162,17048
82129,17048
81808,17112
81537,17293
81355,17565
81291,17885
81355,18206
81475,18385
81355,18565
81291,18885
81355,19206
81537,19477
81808,19659
82129,19723
82162,19723
82482,19659
82645,19550
82808,19659
83129,19723
83162,19723
83482,19659
83645,19550
83808,19659
84129,19723
84162,19723
84482,19659
84645,19550
84808,19659
85129,19723
85162,19723
85482,19659
85645,19550
85808,19659
86129,19723
86162,19723
86482,19659
86754,19477
86935,19206
86999,18885
86999,31209
79999,31209
79999,18885
79935,18565
79815,18385
79935,18206
79999,17885
79935,17565
79754,17293
79577,17175
79577,13994
79577,13961
79513,13641
79332,13369
79060,13188
78740,13124
78419,13188
78148,13369
77966,13641
77902,13961
77902,13994
77966,14315
78148,14586
78419,14768
78740,14832
79060,14768
79332,14586
79513,14315
79577,13994
79577,17175
79482,17112
79162,17048
79129,17048
78808,17112
78537,17293
78355,17565
78291,17885
78355,18206
78475,18385
78355,18565
78291,18885
78355,19206
78537,19477
78808,19659
79129,19723
79162,19723
79482,19659
79754,19477
79935,19206
79999,18885
79999,31209
77520,31209
77520,13994
77520,13961
77456,13641
77275,13369
77003,13188
76683,13124
76362,13188
76090,13369
75909,13641
75845,13961
75845,13994
75909,14315
76090,14586
76362,14768
76683,14832
77003,14768
77275,14586
77456,14315
77520,13994
77520,31209
76999,31209
76999,18885
76935,18565
76815,18385
76935,18206
76999,17885
76935,17565
76754,17293
76482,17112
76162,17048
76129,17048
75808,17112
75645,17221
75482,17112
75162,17048
75129,17048
74808,17112
74537,17293
74355,17565
74291,17885
74355,18206
74475,18385
74355,18565
74291,18885
74355,19206
74420,19303
74420,20719
76681,20719
76681,19526
76754,19477
76935,19206
76999,18885
76999,31209
76159,31209
76159,40601
94430,40601
94430,49054
93999,49054
93999,46885
93935,46565
93754,46293
93482,46112
93162,46048
93129,46048
92960,46082
92999,45885
92935,45565
92754,45293
92482,45112
92162,45048
92129,45048
91808,45112
91645,45221
91482,45112
91162,45048
91129,45048
90808,45112
90645,45221
90482,45112
90162,45048
90129,45048
89808,45112
89645,45221
89482,45112
89162,45048
89129,45048
88808,45112
88537,45293
88355,45565
88291,45885
88355,46206
88475,46385
88355,46565
88291,46885
88355,47206
88537,47477
88808,47659
89129,47723
89162,47723
89482,47659
89645,47550
89808,47659
90129,47723
90162,47723
90482,47659
90645,47550
90808,47659
91129,47723
91162,47723
91482,47659
91645,47550
91808,47659
92129,47723
92162,47723
92482,47659
92645,47550
92808,47659
93129,47723
93162,47723
93482,47659
93754,47477
93935,47206
93999,46885
93999,49054
86999,49054
86999,46885
86935,46565
86815,46385
86935,46206
86999,45885
86935,45565
86754,45293
86482,45112
86162,45048
86129,45048
85808,45112
85645,45221
85482,45112
85162,45048
85129,45048
84808,45112
84645,45221
84482,45112
84162,45048
84129,45048
83808,45112
83645,45221
83482,45112
83162,45048
83129,45048
82808,45112
82645,45221
82482,45112
82162,45048
82129,45048
81808,45112
81537,45293
81355,45565
81291,45885
81355,46206
81475,46385
81355,46565
81291,46885
81355,47206
81537,47477
81808,47659
82129,47723
82162,47723
82482,47659
82645,47550
82808,47659
83129,47723
83162,47723
83482,47659
83754,47477
83935,47206
83999,46885
83960,46689
84129,46723
84162,46723
84330,46689
84291,46885
84355,47206
84537,47477
84808,47659
85129,47723
85162,47723
85482,47659
85645,47550
85808,47659
86129,47723
86162,47723
86482,47659
86754,47477
86935,47206
86999,46885
86999,49054
79999,49054
79999,46885
79935,46565
79815,46385
79935,46206
79999,45885
79935,45565
79754,45293
79482,45112
79162,45048
79129,45048
78808,45112
78645,45221
78482,45112
78162,45048
78129,45048
77808,45112
77645,45221
77482,45112
77162,45048
77129,45048
76808,45112
76645,45221
76482,45112
76162,45048
76129,45048
75808,45112
75645,45221
75482,45112
75162,45048
75129,45048
74808,45112
74615,45241
74624,45193
74624,45160
74561,44840
74452,44677
74561,44514
74624,44193
74624,44160
74561,43840
74452,43677
74561,43514
74624,43193
74624,43160
74561,42840
74452,42677
74561,42514
74624,42193
74624,42160
74561,41840
74452,41677
74561,41514
74624,41193
74624,41160
74561,40840
74452,40677
74561,40514
74624,40193
74624,40160
74561,39840
74452,39677
74561,39514
74624,39193
74624,39160
74561,38840
74452,38677
74561,38514
74624,38193
74624,38160
74561,37840
74452,37677
74561,37514
74624,37193
74624,37160
74561,36840
74452,36677
74561,36514
74624,36193
74624,36160
74561,35840
74452,35677
74561,35514
74624,35193
74624,35160
74561,34840
74452,34677
74561,34514
74624,34193
74624,34160
74561,33840
74452,33677
74561,33514
74624,33193
74624,33160
74561,32840
74452,32677
74561,32514
74624,32193
74624,32160
74561,31840
74452,31677
74561,31514
74624,31193
74624,31160
74561,30840
74452,30677
74561,30514
74624,30193
74624,30160
74561,29840
74452,29677
74561,29514
74624,29193
74624,29160
74561,28840
74452,28677
74561,28514
74624,28193
74624,28179
75209,28179
75209,26544
73511,26544
73511,27378
73466,27387
73287,27507
73107,27387
73067,27379
73067,14162
73067,13810
73008,13512
72839,13260
72587,13091
72289,13032
71991,13091
71738,13260
71570,13512
71511,13810
71511,14162
71570,14459
71738,14712
71991,14881
72289,14940
72587,14881
72839,14712
73008,14459
73067,14162
73067,27379
72787,27323
72466,27387
72195,27568
72013,27840
71950,28160
71950,28193
72013,28514
72195,28785
72466,28967
72787,29030
72983,28991
72950,29160
72950,29193
73013,29514
73122,29677
73013,29840
72950,30160
72950,30193
73013,30514
73122,30677
73013,30840
72950,31160
72950,31193
72983,31362
72787,31323
72466,31387
72195,31568
72013,31840
71950,32160
71950,32193
72013,32514
72195,32785
72466,32967
72787,33030
72983,32991
72950,33160
72950,33193
73013,33514
73122,33677
73013,33840
72950,34160
72950,34193
72983,34362
72787,34323
72466,34387
72195,34568
72013,34840
71950,35160
71950,35193
72013,35514
72195,35785
72466,35967
72787,36030
72983,35991
72950,36160
72950,36193
73013,36514
73122,36677
73013,36840
72950,37160
72950,37193
72983,37362
72787,37323
72466,37387
72195,37568
72013,37840
71950,38160
71950,38193
72013,38514
72122,38677
72013,38840
71950,39160
71950,39193
72013,39514
72195,39785
72466,39967
72787,40030
72983,39991
72950,40160
72950,40193
73013,40514
73122,40677
73013,40840
72950,41160
72950,41193
72983,41362
72787,41323
72466,41387
72195,41568
72013,41840
71950,42160
71950,42193
72013,42514
72122,42677
72013,42840
71950,43160
71950,43193
72013,43514
72122,43677
72013,43840
71950,44160
71950,44193
72013,44514
72122,44677
72013,44840
71950,45160
71950,45193
72013,45514
72195,45785
72466,45967
72787,46030
72983,45991
72950,46160
72950,46193
73013,46514
73122,46677
73013,46840
72950,47160
72950,47193
73013,47514
73195,47785
73466,47967
73787,48030
74107,47967
74379,47785
74561,47514
74564,47496
74808,47659
75129,47723
75162,47723
75482,47659
75645,47550
75808,47659
76129,47723
76162,47723
76482,47659
76754,47477
76935,47206
76999,46885
76960,46689
77129,46723
77162,46723
77330,46689
77291,46885
77355,47206
77537,47477
77808,47659
78129,47723
78162,47723
78482,47659
78645,47550
78808,47659
79129,47723
79162,47723
79482,47659
79754,47477
79935,47206
79999,46885
79999,49054
71067,49054
71067,14162
71067,13810
71008,13512
70839,13260
70587,13091
70289,13032
69991,13091
69738,13260
69570,13512
69534,13694
69523,13641
69342,13369
69070,13188
68750,13124
68429,13188
68157,13369
67976,13641
67912,13961
67912,13994
67976,14315
68157,14586
68429,14768
68750,14832
69070,14768
69342,14586
69523,14315
69532,14270
69570,14459
69738,14712
69991,14881
70289,14940
70587,14881
70839,14712
71008,14459
71067,14162
71067,49054
69459,49054
69459,16691
69459,16658
69395,16338
69214,16066
68942,15885
68622,15821
68301,15885
68029,16066
67848,16338
67784,16658
67784,16691
67848,17012
68029,17283
68301,17465
68622,17529
68942,17465
69214,17283
69395,17012
69459,16691
69459,49054
65798,49054
65798,19311
67903,19311
67903,17676
67601,17676
67601,16546
67601,14910
65902,14910
65902,16546
67601,16546
67601,17676
65798,17676
65798,12385
65884,12596
66230,12942
66683,13130
67172,13130
67625,12943
67972,12597
68160,12145
68160,11655
67973,11203
67627,10856
67175,10668
66685,10668
66232,10855
65886,11201
65798,11413
65798,9784
100565,9784
100495,9831
100314,10102
100250,10423
100314,10743
100495,11015
100767,11196
101087,11260
101120,11260
101441,11196
101631,11069
101672,11168
102018,11515
102470,11703
102960,11703
103412,11516
103759,11170
103947,10718
103947,10228
103764,9784
105068,9784
105068,49054
" /> 
</g>
<g style="fill:#FFFFFF; fill-opacity:0.0; 
stroke:#FFFFFF; stroke-width:39.3701; stroke-opacity:1; 
stroke-linecap:round; stroke-linejoin:round;">
</g>
<g style="fill:#FFFFFF; fill-opacity:1.0; 
stroke:#FFFFFF; stroke-width:39.3701; stroke-opacity:1; 
stroke-linecap:round; stroke-linejoin:round;">
<circle cx="101280" cy="13104.3" r="118.11" /> 
<circle cx="101280" cy="14104.3" r="118.11" /> 
<circle cx="101280" cy="15104.3" r="118.11" /> 
<circle cx="92332.7" cy="14379.9" r="118.11" /> 
<circle cx="90777.6" cy="14379.9" r="118.11" /> 
<circle cx="93887.8" cy="14379.9" r="118.11" /> 
<circle cx="89202.8" cy="14379.9" r="118.11" /> 
<circle cx="101104" cy="10423.2" r="118.11" /> 
<circle cx="97104.3" cy="10423.2" r="118.11" /> 
<circle cx="96978.3" cy="18984.3" r="118.11" /> 
<circle cx="96978.3" cy="22984.3" r="118.11" /> 
<circle cx="98671.3" cy="16409.4" r="118.11" /> 
<circle cx="98671.3" cy="12409.4" r="118.11" /> 
<circle cx="68622" cy="16675.2" r="118.11" /> 
<circle cx="68622" cy="17675.2" r="118.11" /> 
<circle cx="98159.4" cy="30082.7" r="59.0551" /> 
<circle cx="98159.4" cy="31082.7" r="59.0551" /> 
<circle cx="98159.4" cy="32082.7" r="59.0551" /> 
<circle cx="98159.4" cy="33082.7" r="59.0551" /> 
<circle cx="98159.4" cy="34082.7" r="59.0551" /> 
<circle cx="98159.4" cy="35082.7" r="59.0551" /> 
<circle cx="98159.4" cy="36082.7" r="59.0551" /> 
<circle cx="98159.4" cy="37082.7" r="59.0551" /> 
<circle cx="75145.7" cy="46885.8" r="59.0551" /> 
<circle cx="75145.7" cy="45885.8" r="59.0551" /> 
<circle cx="76145.7" cy="46885.8" r="59.0551" /> 
<circle cx="76145.7" cy="45885.8" r="59.0551" /> 
<circle cx="77145.7" cy="46885.8" r="59.0551" /> 
<circle cx="77145.7" cy="45885.8" r="59.0551" /> 
<circle cx="78145.7" cy="46885.8" r="59.0551" /> 
<circle cx="78145.7" cy="45885.8" r="59.0551" /> 
<circle cx="79145.7" cy="46885.8" r="59.0551" /> 
<circle cx="79145.7" cy="45885.8" r="59.0551" /> 
<circle cx="80145.7" cy="46885.8" r="59.0551" /> 
<circle cx="80145.7" cy="45885.8" r="59.0551" /> 
<circle cx="81145.7" cy="46885.8" r="59.0551" /> 
<circle cx="81145.7" cy="45885.8" r="59.0551" /> 
<circle cx="82145.7" cy="46885.8" r="59.0551" /> 
<circle cx="82145.7" cy="45885.8" r="59.0551" /> 
<circle cx="83145.7" cy="46885.8" r="59.0551" /> 
<circle cx="83145.7" cy="45885.8" r="59.0551" /> 
<circle cx="84145.7" cy="46885.8" r="59.0551" /> 
<circle cx="84145.7" cy="45885.8" r="59.0551" /> 
<circle cx="85145.7" cy="46885.8" r="59.0551" /> 
<circle cx="85145.7" cy="45885.8" r="59.0551" /> 
<circle cx="86145.7" cy="46885.8" r="59.0551" /> 
<circle cx="86145.7" cy="45885.8" r="59.0551" /> 
<circle cx="87145.7" cy="46885.8" r="59.0551" /> 
<circle cx="87145.7" cy="45885.8" r="59.0551" /> 
<circle cx="88145.7" cy="46885.8" r="59.0551" /> 
<circle cx="88145.7" cy="45885.8" r="59.0551" /> 
<circle cx="89145.7" cy="46885.8" r="59.0551" /> 
<circle cx="89145.7" cy="45885.8" r="59.0551" /> 
<circle cx="90145.7" cy="46885.8" r="59.0551" /> 
<circle cx="90145.7" cy="45885.8" r="59.0551" /> 
<circle cx="91145.7" cy="46885.8" r="59.0551" /> 
<circle cx="91145.7" cy="45885.8" r="59.0551" /> 
<circle cx="92145.7" cy="46885.8" r="59.0551" /> 
<circle cx="92145.7" cy="45885.8" r="59.0551" /> 
<circle cx="93145.7" cy="46885.8" r="59.0551" /> 
<circle cx="93145.7" cy="45885.8" r="59.0551" /> 
<circle cx="94145.7" cy="46885.8" r="59.0551" /> 
<circle cx="94145.7" cy="45885.8" r="59.0551" /> 
<circle cx="75145.7" cy="18885.8" r="59.0551" /> 
<circle cx="75145.7" cy="17885.8" r="59.0551" /> 
<circle cx="76145.7" cy="18885.8" r="59.0551" /> 
<circle cx="76145.7" cy="17885.8" r="59.0551" /> 
<circle cx="77145.7" cy="18885.8" r="59.0551" /> 
<circle cx="77145.7" cy="17885.8" r="59.0551" /> 
<circle cx="78145.7" cy="18885.8" r="59.0551" /> 
<circle cx="78145.7" cy="17885.8" r="59.0551" /> 
<circle cx="79145.7" cy="18885.8" r="59.0551" /> 
<circle cx="79145.7" cy="17885.8" r="59.0551" /> 
<circle cx="80145.7" cy="18885.8" r="59.0551" /> 
<circle cx="80145.7" cy="17885.8" r="59.0551" /> 
<circle cx="81145.7" cy="18885.8" r="59.0551" /> 
<circle cx="81145.7" cy="17885.8" r="59.0551" /> 
<circle cx="82145.7" cy="18885.8" r="59.0551" /> 
<circle cx="82145.7" cy="17885.8" r="59.0551" /> 
<circle cx="83145.7" cy="18885.8" r="59.0551" /> 
<circle cx="83145.7" cy="17885.8" r="59.0551" /> 
<circle cx="84145.7" cy="18885.8" r="59.0551" /> 
<circle cx="84145.7" cy="17885.8" r="59.0551" /> 
<circle cx="85145.7" cy="18885.8" r="59.0551" /> 
<circle cx="85145.7" cy="17885.8" r="59.0551" /> 
<circle cx="86145.7" cy="18885.8" r="59.0551" /> 
<circle cx="86145.7" cy="17885.8" r="59.0551" /> 
<circle cx="87145.7" cy="18885.8" r="59.0551" /> 
<circle cx="87145.7" cy="17885.8" r="59.0551" /> 
<circle cx="88145.7" cy="18885.8" r="59.0551" /> 
<circle cx="88145.7" cy="17885.8" r="59.0551" /> 
<circle cx="89145.7" cy="18885.8" r="59.0551" /> 
<circle cx="89145.7" cy="17885.8" r="59.0551" /> 
<circle cx="90145.7" cy="18885.8" r="59.0551" /> 
<circle cx="90145.7" cy="17885.8" r="59.0551" /> 
<circle cx="91145.7" cy="18885.8" r="59.0551" /> 
<circle cx="91145.7" cy="17885.8" r="59.0551" /> 
<circle cx="92145.7" cy="18885.8" r="59.0551" /> 
<circle cx="92145.7" cy="17885.8" r="59.0551" /> 
<circle cx="93145.7" cy="18885.8" r="59.0551" /> 
<circle cx="93145.7" cy="17885.8" r="59.0551" /> 
<circle cx="94145.7" cy="18885.8" r="59.0551" /> 
<circle cx="94145.7" cy="17885.8" r="59.0551" /> 
<circle cx="100787" cy="28177.2" r="59.0551" /> 
<circle cx="101787" cy="28177.2" r="59.0551" /> 
<circle cx="100787" cy="29177.2" r="59.0551" /> 
<circle cx="101787" cy="29177.2" r="59.0551" /> 
<circle cx="100787" cy="30177.2" r="59.0551" /> 
<circle cx="101787" cy="30177.2" r="59.0551" /> 
<circle cx="100787" cy="31177.2" r="59.0551" /> 
<circle cx="101787" cy="31177.2" r="59.0551" /> 
<circle cx="100787" cy="32177.2" r="59.0551" /> 
<circle cx="101787" cy="32177.2" r="59.0551" /> 
<circle cx="100787" cy="33177.2" r="59.0551" /> 
<circle cx="101787" cy="33177.2" r="59.0551" /> 
<circle cx="100787" cy="34177.2" r="59.0551" /> 
<circle cx="101787" cy="34177.2" r="59.0551" /> 
<circle cx="100787" cy="35177.2" r="59.0551" /> 
<circle cx="101787" cy="35177.2" r="59.0551" /> 
<circle cx="100787" cy="36177.2" r="59.0551" /> 
<circle cx="101787" cy="36177.2" r="59.0551" /> 
<circle cx="100787" cy="37177.2" r="59.0551" /> 
<circle cx="101787" cy="37177.2" r="59.0551" /> 
<circle cx="100787" cy="38177.2" r="59.0551" /> 
<circle cx="101787" cy="38177.2" r="59.0551" /> 
<circle cx="100787" cy="39177.2" r="59.0551" /> 
<circle cx="101787" cy="39177.2" r="59.0551" /> 
<circle cx="100787" cy="40177.2" r="59.0551" /> 
<circle cx="101787" cy="40177.2" r="59.0551" /> 
<circle cx="100787" cy="41177.2" r="59.0551" /> 
<circle cx="101787" cy="41177.2" r="59.0551" /> 
<circle cx="100787" cy="42177.2" r="59.0551" /> 
<circle cx="101787" cy="42177.2" r="59.0551" /> 
<circle cx="100787" cy="43177.2" r="59.0551" /> 
<circle cx="101787" cy="43177.2" r="59.0551" /> 
<circle cx="100787" cy="44177.2" r="59.0551" /> 
<circle cx="101787" cy="44177.2" r="59.0551" /> 
<circle cx="100787" cy="45177.2" r="59.0551" /> 
<circle cx="101787" cy="45177.2" r="59.0551" /> 
<circle cx="100787" cy="46177.2" r="59.0551" /> 
<circle cx="101787" cy="46177.2" r="59.0551" /> 
<circle cx="100787" cy="47177.2" r="59.0551" /> 
<circle cx="101787" cy="47177.2" r="59.0551" /> 
<circle cx="72787.4" cy="28177.2" r="59.0551" /> 
<circle cx="73787.4" cy="28177.2" r="59.0551" /> 
<circle cx="72787.4" cy="29177.2" r="59.0551" /> 
<circle cx="73787.4" cy="29177.2" r="59.0551" /> 
<circle cx="72787.4" cy="30177.2" r="59.0551" /> 
<circle cx="73787.4" cy="30177.2" r="59.0551" /> 
<circle cx="72787.4" cy="31177.2" r="59.0551" /> 
<circle cx="73787.4" cy="31177.2" r="59.0551" /> 
<circle cx="72787.4" cy="32177.2" r="59.0551" /> 
<circle cx="73787.4" cy="32177.2" r="59.0551" /> 
<circle cx="72787.4" cy="33177.2" r="59.0551" /> 
<circle cx="73787.4" cy="33177.2" r="59.0551" /> 
<circle cx="72787.4" cy="34177.2" r="59.0551" /> 
<circle cx="73787.4" cy="34177.2" r="59.0551" /> 
<circle cx="72787.4" cy="35177.2" r="59.0551" /> 
<circle cx="73787.4" cy="35177.2" r="59.0551" /> 
<circle cx="72787.4" cy="36177.2" r="59.0551" /> 
<circle cx="73787.4" cy="36177.2" r="59.0551" /> 
<circle cx="72787.4" cy="37177.2" r="59.0551" /> 
<circle cx="73787.4" cy="37177.2" r="59.0551" /> 
<circle cx="72787.4" cy="38177.2" r="59.0551" /> 
<circle cx="73787.4" cy="38177.2" r="59.0551" /> 
<circle cx="72787.4" cy="39177.2" r="59.0551" /> 
<circle cx="73787.4" cy="39177.2" r="59.0551" /> 
<circle cx="72787.4" cy="40177.2" r="59.0551" /> 
<circle cx="73787.4" cy="40177.2" r="59.0551" /> 
<circle cx="72787.4" cy="41177.2" r="59.0551" /> 
<circle cx="73787.4" cy="41177.2" r="59.0551" /> 
<circle cx="72787.4" cy="42177.2" r="59.0551" /> 
<circle cx="73787.4" cy="42177.2" r="59.0551" /> 
<circle cx="72787.4" cy="43177.2" r="59.0551" /> 
<circle cx="73787.4" cy="43177.2" r="59.0551" /> 
<circle cx="72787.4" cy="44177.2" r="59.0551" /> 
<circle cx="73787.4" cy="44177.2" r="59.0551" /> 
<circle cx="72787.4" cy="45177.2" r="59.0551" /> 
<circle cx="73787.4" cy="45177.2" r="59.0551" /> 
<circle cx="72787.4" cy="46177.2" r="59.0551" /> 
<circle cx="73787.4" cy="46177.2" r="59.0551" /> 
<circle cx="72787.4" cy="47177.2" r="59.0551" /> 
<circle cx="73787.4" cy="47177.2" r="59.0551" /> 
<circle cx="70289.4" cy="13986.2" r="118.11" /> 
<circle cx="71289.4" cy="13986.2" r="118.11" /> 
<circle cx="72289.4" cy="13986.2" r="118.11" /> 
<circle cx="96958.7" cy="24470.5" r="118.11" /> 
<circle cx="96958.7" cy="25470.5" r="118.11" /> 
<circle cx="99852.4" cy="13551.2" r="59.0551" /> 
<circle cx="99852.4" cy="12551.2" r="59.0551" /> 
<circle cx="101100" cy="16771.7" r="59.0551" /> 
<circle cx="100100" cy="16771.7" r="59.0551" /> 
<circle cx="76683.1" cy="13978.3" r="59.0551" /> 
<circle cx="76683.1" cy="14978.3" r="59.0551" /> 
<circle cx="68750" cy="13978.3" r="59.0551" /> 
<circle cx="68750" cy="14978.3" r="59.0551" /> 
<circle cx="96820.9" cy="12596.5" r="59.0551" /> 
<circle cx="96820.9" cy="11596.5" r="59.0551" /> 
<circle cx="78740.2" cy="13978.3" r="59.0551" /> 
<circle cx="78740.2" cy="14978.3" r="59.0551" /> 
<circle cx="69655.5" cy="19566.9" r="59.0551" /> 
<circle cx="78750" cy="20905.5" r="59.0551" /> 
<circle cx="96535.4" cy="36063" r="59.0551" /> 
<circle cx="97096.5" cy="46348.4" r="59.0551" /> 
<circle cx="71023.6" cy="47116.1" r="59.0551" /> 
<circle cx="103632" cy="46378" r="59.0551" /> 
<circle cx="80098.4" cy="15226.4" r="59.0551" /> 
<circle cx="94744.1" cy="20698.8" r="59.0551" /> 
<circle cx="83643.7" cy="15362.2" r="59.0551" /> 
<circle cx="83643.7" cy="14362.2" r="59.0551" /> 
<circle cx="84643.7" cy="15362.2" r="59.0551" /> 
<circle cx="84643.7" cy="14362.2" r="59.0551" /> 
<circle cx="95442.9" cy="30974.4" r="59.0551" /> 
<circle cx="95334.6" cy="10639.8" r="59.0551" /> 
<circle cx="100594" cy="22279.5" r="118.11" /> 
<circle cx="102594" cy="22279.5" r="118.11" /> 
<circle cx="100594" cy="25279.5" r="118.11" /> 
<circle cx="102594" cy="25279.5" r="118.11" /> 
<circle cx="98722.4" cy="20716.5" r="59.0551" /> 
<circle cx="98722.4" cy="19716.5" r="59.0551" /> 
<circle cx="99722.4" cy="20716.5" r="59.0551" /> 
<circle cx="99722.4" cy="19716.5" r="59.0551" /> 
<circle cx="97962.6" cy="28285.4" r="59.0551" /> 
<circle cx="97962.6" cy="27285.4" r="59.0551" /> 
<circle cx="96565" cy="30352.4" r="59.0551" /> 
<circle cx="96565" cy="29352.4" r="59.0551" /> 
<circle cx="90816.9" cy="15236.2" r="59.0551" /> 
<circle cx="102717" cy="10472.4" r="177.165" /> 
<circle cx="102717" cy="17559.1" r="177.165" /> 
<circle cx="84645.7" cy="11899.6" r="177.165" /> 
<circle cx="66929.1" cy="11899.6" r="177.165" /> 
<circle cx="72293.3" cy="11840.6" r="59.0551" /> 
<circle cx="66889.8" cy="14212.6" r="59.0551" /> 
</g> 
</svg>
