<?xml version="1.0" standalone="no"?>
 <!DOCTYPE svg PUBLIC "-//W3C//DTD SVG 1.1//EN" 
 "http://www.w3.org/Graphics/SVG/1.1/DTD/svg11.dtd"> 
<svg xmlns="http://www.w3.org/2000/svg" version="1.1" 
    width="29.7002cm" height="21.0007cm" viewBox="0 0 116930 82680 ">
<title>SVG Picture created as poncho_rescatAR-F_Cu.svg date 2015/12/02 16:20:29 </title>
  <desc>Picture generated by PCBNEW </desc>
<g style="fill:#000000; fill-opacity:1;stroke:#000000; stroke-opacity:1;
stroke-linecap:round; stroke-linejoin:round; "
 transform="translate(0 0) scale(1 1)">
</g>
<g style="fill:#000000; fill-opacity:0.0; 
stroke:#000000; stroke-width:39.3701; stroke-opacity:1; 
stroke-linecap:round; stroke-linejoin:round;">
<path d="M4000 4000
L112930 4000
L112930 78680
L4000 78680
L4000 4000
" />
<path d="M4700 4700
L112230 4700
L112230 77980
L4700 77980
L4700 4700
" />
<path d="M25780 4000
L25780 4700
" />
<path d="M15032 4552
L14747 4552
" />
<path d="M14890 4552
L14890 4052
L14842 4123
L14794 4171
L14747 4195
" />
<path d="M25780 78680
L25780 77980
" />
<path d="M15032 78532
L14747 78532
" />
<path d="M14890 78532
L14890 78032
L14842 78103
L14794 78151
L14747 78175
" />
<path d="M47560 4000
L47560 4700
" />
<path d="M36527 4100
L36550 4076
L36598 4052
L36717 4052
L36765 4076
L36789 4100
L36812 4147
L36812 4195
L36789 4266
L36503 4552
L36812 4552
" />
<path d="M47560 78680
L47560 77980
" />
<path d="M36527 78080
L36550 78056
L36598 78032
L36717 78032
L36765 78056
L36789 78080
L36812 78127
L36812 78175
L36789 78246
L36503 78532
L36812 78532
" />
<path d="M69340 4000
L69340 4700
" />
<path d="M58283 4052
L58592 4052
L58426 4242
L58497 4242
L58545 4266
L58569 4290
L58592 4338
L58592 4457
L58569 4504
L58545 4528
L58497 4552
L58354 4552
L58307 4528
L58283 4504
" />
<path d="M69340 78680
L69340 77980
" />
<path d="M58283 78032
L58592 78032
L58426 78222
L58497 78222
L58545 78246
L58569 78270
L58592 78318
L58592 78437
L58569 78484
L58545 78508
L58497 78532
L58354 78532
L58307 78508
L58283 78484
" />
<path d="M91120 4000
L91120 4700
" />
<path d="M80325 4219
L80325 4552
" />
<path d="M80206 4028
L80087 4385
L80396 4385
" />
<path d="M91120 78680
L91120 77980
" />
<path d="M80325 78199
L80325 78532
" />
<path d="M80206 78008
L80087 78365
L80396 78365
" />
<path d="M102129 4052
L101890 4052
L101867 4290
L101890 4266
L101938 4242
L102057 4242
L102105 4266
L102129 4290
L102152 4338
L102152 4457
L102129 4504
L102105 4528
L102057 4552
L101938 4552
L101890 4528
L101867 4504
" />
<path d="M102129 78032
L101890 78032
L101867 78270
L101890 78246
L101938 78222
L102057 78222
L102105 78246
L102129 78270
L102152 78318
L102152 78437
L102129 78484
L102105 78508
L102057 78532
L101938 78532
L101890 78508
L101867 78484
" />
<path d="M4000 28890
L4700 28890
" />
<path d="M4230 16509
L4469 16509
" />
<path d="M4183 16652
L4350 16152
L4516 16652
" />
<path d="M112930 28890
L112230 28890
" />
<path d="M112460 16509
L112699 16509
" />
<path d="M112413 16652
L112580 16152
L112746 16652
" />
<path d="M4000 53780
L4700 53780
" />
<path d="M4385 41280
L4457 41304
L4480 41328
L4504 41375
L4504 41447
L4480 41494
L4457 41518
L4409 41542
L4219 41542
L4219 41042
L4385 41042
L4433 41066
L4457 41090
L4480 41137
L4480 41185
L4457 41232
L4433 41256
L4385 41280
L4219 41280
" />
<path d="M112930 53780
L112230 53780
" />
<path d="M112615 41280
L112687 41304
L112710 41328
L112734 41375
L112734 41447
L112710 41494
L112687 41518
L112639 41542
L112449 41542
L112449 41042
L112615 41042
L112663 41066
L112687 41090
L112710 41137
L112710 41185
L112687 41232
L112663 41256
L112615 41280
L112449 41280
" />
<path d="M4504 66384
L4480 66408
L4409 66432
L4361 66432
L4290 66408
L4242 66360
L4219 66313
L4195 66218
L4195 66146
L4219 66051
L4242 66003
L4290 65956
L4361 65932
L4409 65932
L4480 65956
L4504 65980
" />
<path d="M112734 66384
L112710 66408
L112639 66432
L112591 66432
L112520 66408
L112472 66360
L112449 66313
L112425 66218
L112425 66146
L112449 66051
L112472 66003
L112520 65956
L112591 65932
L112639 65932
L112710 65956
L112734 65980
" />
<path d="M79380 76422
L79455 75822
L79597 75822
L79680 75851
L79730 75908
L79751 75965
L79765 76080
L79755 76165
L79712 76280
L79676 76337
L79612 76394
L79522 76422
L79380 76422
" />
<path d="M80237 76422
L80276 76108
L80255 76051
L80201 76022
L80087 76022
L80026 76051
" />
<path d="M80240 76394
L80180 76422
L80037 76422
L79983 76394
L79962 76337
L79969 76280
L80005 76222
L80065 76194
L80208 76194
L80269 76165
" />
<path d="M80487 76022
L80715 76022
" />
<path d="M80597 75822
L80533 76337
L80555 76394
L80608 76422
L80665 76422
" />
<path d="M81097 76394
L81037 76422
L80922 76422
L80869 76394
L80847 76337
L80876 76108
L80912 76051
L80972 76022
L81087 76022
L81140 76051
L81162 76108
L81155 76165
L80862 76222
" />
<path d="M81387 76365
L81412 76394
L81380 76422
L81355 76394
L81387 76365
L81380 76422
" />
<path d="M81426 76051
L81451 76080
L81419 76108
L81394 76080
L81426 76051
L81419 76108
" />
<path d="M70972 77622
L70972 77022
" />
<path d="M71315 77622
L71058 77280
" />
<path d="M71315 77022
L70972 77365
" />
<path d="M71572 77622
L71572 77222
" />
<path d="M71572 77022
L71544 77051
L71572 77080
L71601 77051
L71572 77022
L71572 77080
" />
<path d="M72201 77565
L72172 77594
L72087 77622
L72030 77622
L71944 77594
L71887 77537
L71858 77480
L71830 77365
L71830 77280
L71858 77165
L71887 77108
L71944 77051
L72030 77022
L72087 77022
L72172 77051
L72201 77080
" />
<path d="M72715 77622
L72715 77308
L72687 77251
L72630 77222
L72515 77222
L72458 77251
" />
<path d="M72715 77594
L72658 77622
L72515 77622
L72458 77594
L72430 77537
L72430 77480
L72458 77422
L72515 77394
L72658 77394
L72715 77365
" />
<path d="M73258 77622
L73258 77022
" />
<path d="M73258 77594
L73201 77622
L73087 77622
L73030 77594
L73001 77565
L72972 77508
L72972 77337
L73001 77280
L73030 77251
L73087 77222
L73201 77222
L73258 77251
" />
<path d="M74001 77308
L74201 77308
" />
<path d="M74287 77622
L74001 77622
L74001 77022
L74287 77022
" />
<path d="M74544 77565
L74572 77594
L74544 77622
L74515 77594
L74544 77565
L74544 77622
" />
<path d="M74829 77622
L74829 77022
L74972 77022
L75058 77051
L75115 77108
L75144 77165
L75172 77280
L75172 77365
L75144 77480
L75115 77537
L75058 77594
L74972 77622
L74829 77622
" />
<path d="M75429 77565
L75458 77594
L75429 77622
L75401 77594
L75429 77565
L75429 77622
" />
<path d="M75687 77451
L75972 77451
" />
<path d="M75629 77622
L75829 77022
L76029 77622
" />
<path d="M76229 77565
L76258 77594
L76229 77622
L76201 77594
L76229 77565
L76229 77622
" />
<path d="M104522 76422
L104358 76137
" />
<path d="M104180 76422
L104255 75822
L104483 75822
L104537 75851
L104562 75880
L104583 75937
L104572 76022
L104537 76080
L104505 76108
L104444 76137
L104215 76137
" />
<path d="M105012 76394
L104951 76422
L104837 76422
L104783 76394
L104762 76337
L104790 76108
L104826 76051
L104887 76022
L105001 76022
L105055 76051
L105076 76108
L105069 76165
L104776 76222
" />
<path d="M105287 76022
L105380 76422
L105572 76022
" />
<path d="M105758 76365
L105783 76394
L105751 76422
L105726 76394
L105758 76365
L105751 76422
" />
<path d="M105797 76051
L105822 76080
L105790 76108
L105765 76080
L105797 76051
L105790 76108
" />
<path d="M70944 76394
L71030 76422
L71172 76422
L71230 76394
L71258 76365
L71287 76308
L71287 76251
L71258 76194
L71230 76165
L71172 76137
L71058 76108
L71001 76080
L70972 76051
L70944 75994
L70944 75937
L70972 75880
L71001 75851
L71058 75822
L71201 75822
L71287 75851
" />
<path d="M71544 76422
L71544 76022
" />
<path d="M71544 75822
L71515 75851
L71544 75880
L71572 75851
L71544 75822
L71544 75880
" />
<path d="M71772 76022
L72087 76022
L71772 76422
L72087 76422
" />
<path d="M72544 76394
L72487 76422
L72372 76422
L72315 76394
L72287 76337
L72287 76108
L72315 76051
L72372 76022
L72487 76022
L72544 76051
L72572 76108
L72572 76165
L72287 76222
" />
<path d="M72830 76365
L72858 76394
L72830 76422
L72801 76394
L72830 76365
L72830 76422
" />
<path d="M72830 76051
L72858 76080
L72830 76108
L72801 76080
L72830 76051
L72830 76108
" />
<path d="M73544 76251
L73830 76251
" />
<path d="M73487 76422
L73687 75822
L73887 76422
" />
<path d="M74344 76022
L74344 76422
" />
<path d="M74201 75794
L74058 76222
L74430 76222
" />
<path d="M104172 77622
L104172 77022
" />
<path d="M104715 77622
L104715 77022
" />
<path d="M104715 77594
L104658 77622
L104544 77622
L104487 77594
L104458 77565
L104430 77508
L104430 77337
L104458 77280
L104487 77251
L104544 77222
L104658 77222
L104715 77251
" />
<path d="M105001 77565
L105030 77594
L105001 77622
L104972 77594
L105001 77565
L105001 77622
" />
<path d="M105001 77251
L105030 77280
L105001 77308
L104972 77280
L105001 77251
L105001 77308
" />
<path d="M106058 77622
L105715 77622
" />
<path d="M105887 77622
L105887 77022
L105829 77108
L105772 77165
L105715 77194
" />
<path d="M106744 76994
L106230 77765
" />
<path d="M107258 77622
L106915 77622
" />
<path d="M107087 77622
L107087 77022
L107029 77108
L106972 77165
L106915 77194
" />
<path d="M70969 74622
L71312 74622
" />
<path d="M71065 75222
L71140 74622
" />
<path d="M71437 75222
L71487 74822
" />
<path d="M71512 74622
L71480 74651
L71505 74680
L71537 74651
L71512 74622
L71505 74680
" />
<path d="M71687 74822
L71915 74822
" />
<path d="M71797 74622
L71733 75137
L71755 75194
L71808 75222
L71865 75222
" />
<path d="M72151 75222
L72097 75194
L72076 75137
L72140 74622
" />
<path d="M72612 75194
L72551 75222
L72437 75222
L72383 75194
L72362 75137
L72390 74908
L72426 74851
L72487 74822
L72601 74822
L72655 74851
L72676 74908
L72669 74965
L72376 75022
" />
<path d="M72901 75165
L72926 75194
L72894 75222
L72869 75194
L72901 75165
L72894 75222
" />
<path d="M72940 74851
L72965 74880
L72933 74908
L72908 74880
L72940 74851
L72933 74908
" />
<path d="M73637 75222
L73687 74822
" />
<path d="M73672 74937
L73708 74880
L73740 74851
L73801 74822
L73858 74822
" />
<path d="M74240 75194
L74180 75222
L74065 75222
L74012 75194
L73990 75137
L74019 74908
L74055 74851
L74115 74822
L74230 74822
L74283 74851
L74305 74908
L74297 74965
L74005 75022
" />
<path d="M74497 75194
L74551 75222
L74665 75222
L74726 75194
L74762 75137
L74765 75108
L74744 75051
L74690 75022
L74605 75022
L74551 74994
L74530 74937
L74533 74908
L74569 74851
L74630 74822
L74715 74822
L74769 74851
" />
<path d="M75269 75194
L75208 75222
L75094 75222
L75040 75194
L75015 75165
L74994 75108
L75015 74937
L75051 74880
L75083 74851
L75144 74822
L75258 74822
L75312 74851
" />
<path d="M75780 75222
L75819 74908
L75797 74851
L75744 74822
L75630 74822
L75569 74851
" />
<path d="M75783 75194
L75722 75222
L75580 75222
L75526 75194
L75505 75137
L75512 75080
L75547 75022
L75608 74994
L75751 74994
L75812 74965
" />
<path d="M76030 74822
L76258 74822
" />
<path d="M76140 74622
L76076 75137
L76097 75194
L76151 75222
L76208 75222
" />
<path d="M76401 75051
L76687 75051
" />
<path d="M76322 75222
L76597 74622
L76722 75222
" />
<path d="M77265 75222
L77101 74937
" />
<path d="M76922 75222
L76997 74622
L77226 74622
L77280 74651
L77305 74680
L77326 74737
L77315 74822
L77280 74880
L77247 74908
L77187 74937
L76958 74937
" />
<path d="M71172 72508
L70972 72508
" />
<path d="M70972 72822
L70972 72222
L71258 72222
" />
<path d="M71487 72822
L71487 72422
" />
<path d="M71487 72222
L71458 72251
L71487 72280
L71515 72251
L71487 72222
L71487 72280
" />
<path d="M71858 72822
L71801 72794
L71772 72737
L71772 72222
" />
<path d="M72315 72794
L72258 72822
L72144 72822
L72087 72794
L72058 72737
L72058 72508
L72087 72451
L72144 72422
L72258 72422
L72315 72451
L72344 72508
L72344 72565
L72058 72622
" />
<path d="M72601 72765
L72630 72794
L72601 72822
L72572 72794
L72601 72765
L72601 72822
" />
<path d="M72601 72451
L72630 72480
L72601 72508
L72572 72480
L72601 72451
L72601 72508
" />
<path d="M73344 72422
L73344 73022
" />
<path d="M73344 72451
L73401 72422
L73515 72422
L73572 72451
L73601 72480
L73630 72537
L73630 72708
L73601 72765
L73572 72794
L73515 72822
L73401 72822
L73344 72794
" />
<path d="M73972 72822
L73915 72794
L73887 72765
L73858 72708
L73858 72537
L73887 72480
L73915 72451
L73972 72422
L74058 72422
L74115 72451
L74144 72480
L74172 72537
L74172 72708
L74144 72765
L74115 72794
L74058 72822
L73972 72822
" />
<path d="M74430 72422
L74430 72822
" />
<path d="M74430 72480
L74458 72451
L74515 72422
L74601 72422
L74658 72451
L74687 72508
L74687 72822
" />
<path d="M75230 72794
L75172 72822
L75058 72822
L75001 72794
L74972 72765
L74944 72708
L74944 72537
L74972 72480
L75001 72451
L75058 72422
L75172 72422
L75230 72451
" />
<path d="M75487 72822
L75487 72222
" />
<path d="M75744 72822
L75744 72508
L75715 72451
L75658 72422
L75572 72422
L75515 72451
L75487 72480
" />
<path d="M76115 72822
L76058 72794
L76030 72765
L76001 72708
L76001 72537
L76030 72480
L76058 72451
L76115 72422
L76201 72422
L76258 72451
L76287 72480
L76315 72537
L76315 72708
L76287 72765
L76258 72794
L76201 72822
L76115 72822
" />
<path d="M76430 72880
L76887 72880
" />
<path d="M77030 72822
L77030 72422
" />
<path d="M77030 72537
L77058 72480
L77087 72451
L77144 72422
L77201 72422
" />
<path d="M77630 72794
L77572 72822
L77458 72822
L77401 72794
L77372 72737
L77372 72508
L77401 72451
L77458 72422
L77572 72422
L77630 72451
L77658 72508
L77658 72565
L77372 72622
" />
<path d="M77887 72794
L77944 72822
L78058 72822
L78115 72794
L78144 72737
L78144 72708
L78115 72651
L78058 72622
L77972 72622
L77915 72594
L77887 72537
L77887 72508
L77915 72451
L77972 72422
L78058 72422
L78115 72451
" />
<path d="M78658 72794
L78601 72822
L78487 72822
L78430 72794
L78401 72765
L78372 72708
L78372 72537
L78401 72480
L78430 72451
L78487 72422
L78601 72422
L78658 72451
" />
<path d="M79172 72822
L79172 72508
L79144 72451
L79087 72422
L78972 72422
L78915 72451
" />
<path d="M79172 72794
L79115 72822
L78972 72822
L78915 72794
L78887 72737
L78887 72680
L78915 72622
L78972 72594
L79115 72594
L79172 72565
" />
<path d="M79372 72422
L79601 72422
" />
<path d="M79458 72222
L79458 72737
L79487 72794
L79544 72822
L79601 72822
" />
<path d="M79772 72651
L80058 72651
" />
<path d="M79715 72822
L79915 72222
L80115 72822
" />
<path d="M80658 72822
L80458 72537
" />
<path d="M80315 72822
L80315 72222
L80544 72222
L80601 72251
L80630 72280
L80658 72337
L80658 72422
L80630 72480
L80601 72508
L80544 72537
L80315 72537
" />
<path d="M80915 72765
L80944 72794
L80915 72822
L80887 72794
L80915 72765
L80915 72822
" />
<path d="M81201 72822
L81201 72222
" />
<path d="M81258 72594
L81430 72822
" />
<path d="M81430 72422
L81201 72651
" />
<path d="M81687 72822
L81687 72422
" />
<path d="M81687 72222
L81658 72251
L81687 72280
L81715 72251
L81687 72222
L81687 72280
" />
<path d="M82230 72794
L82172 72822
L82058 72822
L82001 72794
L81972 72765
L81944 72708
L81944 72537
L81972 72480
L82001 72451
L82058 72422
L82172 72422
L82230 72451
" />
<path d="M82744 72822
L82744 72508
L82715 72451
L82658 72422
L82544 72422
L82487 72451
" />
<path d="M82744 72794
L82687 72822
L82544 72822
L82487 72794
L82458 72737
L82458 72680
L82487 72622
L82544 72594
L82687 72594
L82744 72565
" />
<path d="M83287 72822
L83287 72222
" />
<path d="M83287 72794
L83230 72822
L83115 72822
L83058 72794
L83030 72765
L83001 72708
L83001 72537
L83030 72480
L83058 72451
L83115 72422
L83230 72422
L83287 72451
" />
<path d="M83430 72880
L83887 72880
" />
<path d="M84030 72422
L84030 73022
" />
<path d="M84030 72451
L84087 72422
L84201 72422
L84258 72451
L84287 72480
L84315 72537
L84315 72708
L84287 72765
L84258 72794
L84201 72822
L84087 72822
L84030 72794
" />
<path d="M84830 72794
L84772 72822
L84658 72822
L84601 72794
L84572 72765
L84544 72708
L84544 72537
L84572 72480
L84601 72451
L84658 72422
L84772 72422
L84830 72451
" />
<path d="M85087 72822
L85087 72222
" />
<path d="M85087 72451
L85144 72422
L85258 72422
L85315 72451
L85344 72480
L85372 72537
L85372 72708
L85344 72765
L85315 72794
L85258 72822
L85144 72822
L85087 72794
" />
<path d="M70944 73994
L71030 74022
L71172 74022
L71230 73994
L71258 73965
L71287 73908
L71287 73851
L71258 73794
L71230 73765
L71172 73737
L71058 73708
L71001 73680
L70972 73651
L70944 73594
L70944 73537
L70972 73480
L71001 73451
L71058 73422
L71201 73422
L71287 73451
" />
<path d="M71544 74022
L71544 73422
" />
<path d="M71801 74022
L71801 73708
L71772 73651
L71715 73622
L71630 73622
L71572 73651
L71544 73680
" />
<path d="M72315 73994
L72258 74022
L72144 74022
L72087 73994
L72058 73937
L72058 73708
L72087 73651
L72144 73622
L72258 73622
L72315 73651
L72344 73708
L72344 73765
L72058 73822
" />
<path d="M72830 73994
L72772 74022
L72658 74022
L72601 73994
L72572 73937
L72572 73708
L72601 73651
L72658 73622
L72772 73622
L72830 73651
L72858 73708
L72858 73765
L72572 73822
" />
<path d="M73030 73622
L73258 73622
" />
<path d="M73115 73422
L73115 73937
L73144 73994
L73201 74022
L73258 74022
" />
<path d="M73458 73965
L73487 73994
L73458 74022
L73430 73994
L73458 73965
L73458 74022
" />
<path d="M73458 73651
L73487 73680
L73458 73708
L73430 73680
L73458 73651
L73458 73708
" />
<path d="M70230 71980
L70230 77980
" />
<path d="M70230 71980
L112230 71980
" />
<path d="M70230 71980
L112230 71980
" />
<path d="M70230 74380
L112230 74380
" />
<path d="M103430 75580
L103430 77980
" />
<path d="M70230 76780
L112230 76780
" />
<path d="M70230 75580
L112230 75580
" />
<path d="M76830 75580
L76830 76780
" />
</g>
<g style="fill:#000000; fill-opacity:0.0; 
stroke:#000000; stroke-width:787.402; stroke-opacity:1; 
stroke-linecap:round; stroke-linejoin:round;">
<path d="M66299 23464
L66299 23464
" />
<path d="M66299 21909
L66299 21909
" />
<path d="M66299 25019
L66299 25019
" />
<path d="M66299 20334
L66299 20334
" />
</g>
<g style="fill:#000000; fill-opacity:0.0; 
stroke:#000000; stroke-width:669.291; stroke-opacity:1; 
stroke-linecap:round; stroke-linejoin:round;">
<path d="M62092 21909
L62092 22224
" />
<path d="M61092 21909
L61092 22224
" />
<path d="M60092 21909
L60092 22224
" />
</g>
<g style="fill:#000000; fill-opacity:0.0; 
stroke:#000000; stroke-width:787.402; stroke-opacity:1; 
stroke-linecap:round; stroke-linejoin:round;">
<path d="M57000 20964
L57000 20964
" />
<path d="M53000 20964
L53000 20964
" />
<path d="M61112 31602
L61112 31602
" />
<path d="M61112 35602
L61112 35602
" />
<path d="M57748 23602
L57748 23602
" />
<path d="M53748 23602
L53748 23602
" />
<path d="M33562 26242
L33562 26242
" />
<path d="M33562 27242
L33562 27242
" />
<path d="M60501 39649
L60501 39649
" />
<path d="M60501 40649
L60501 40649
" />
<path d="M60501 41649
L60501 41649
" />
<path d="M60501 42649
L60501 42649
" />
<path d="M60501 43649
L60501 43649
" />
<path d="M60501 44649
L60501 44649
" />
<path d="M60501 45649
L60501 45649
" />
<path d="M60501 46649
L60501 46649
" />
<path d="M38531 56452
L38531 56452
" />
<path d="M38531 55452
L38531 55452
" />
<path d="M39531 56452
L39531 56452
" />
<path d="M39531 55452
L39531 55452
" />
<path d="M40531 56452
L40531 56452
" />
<path d="M40531 55452
L40531 55452
" />
<path d="M41531 56452
L41531 56452
" />
<path d="M41531 55452
L41531 55452
" />
<path d="M42531 56452
L42531 56452
" />
<path d="M42531 55452
L42531 55452
" />
<path d="M43531 56452
L43531 56452
" />
<path d="M43531 55452
L43531 55452
" />
<path d="M44531 56452
L44531 56452
" />
<path d="M44531 55452
L44531 55452
" />
<path d="M45531 56452
L45531 56452
" />
<path d="M45531 55452
L45531 55452
" />
<path d="M46531 56452
L46531 56452
" />
<path d="M46531 55452
L46531 55452
" />
<path d="M47531 56452
L47531 56452
" />
<path d="M47531 55452
L47531 55452
" />
<path d="M48531 56452
L48531 56452
" />
<path d="M48531 55452
L48531 55452
" />
<path d="M49531 56452
L49531 56452
" />
<path d="M49531 55452
L49531 55452
" />
<path d="M50531 56452
L50531 56452
" />
<path d="M50531 55452
L50531 55452
" />
<path d="M51531 56452
L51531 56452
" />
<path d="M51531 55452
L51531 55452
" />
<path d="M52531 56452
L52531 56452
" />
<path d="M52531 55452
L52531 55452
" />
<path d="M53531 56452
L53531 56452
" />
<path d="M53531 55452
L53531 55452
" />
<path d="M54531 56452
L54531 56452
" />
<path d="M54531 55452
L54531 55452
" />
<path d="M55531 56452
L55531 56452
" />
<path d="M55531 55452
L55531 55452
" />
<path d="M56531 56452
L56531 56452
" />
<path d="M56531 55452
L56531 55452
" />
<path d="M57531 56452
L57531 56452
" />
<path d="M57531 55452
L57531 55452
" />
<path d="M38531 28452
L38531 28452
" />
<path d="M38531 27452
L38531 27452
" />
<path d="M39531 28452
L39531 28452
" />
<path d="M39531 27452
L39531 27452
" />
<path d="M40531 28452
L40531 28452
" />
<path d="M40531 27452
L40531 27452
" />
<path d="M41531 28452
L41531 28452
" />
<path d="M41531 27452
L41531 27452
" />
<path d="M42531 28452
L42531 28452
" />
<path d="M42531 27452
L42531 27452
" />
<path d="M43531 28452
L43531 28452
" />
<path d="M43531 27452
L43531 27452
" />
<path d="M44531 28452
L44531 28452
" />
<path d="M44531 27452
L44531 27452
" />
<path d="M45531 28452
L45531 28452
" />
<path d="M45531 27452
L45531 27452
" />
<path d="M46531 28452
L46531 28452
" />
<path d="M46531 27452
L46531 27452
" />
<path d="M47531 28452
L47531 28452
" />
<path d="M47531 27452
L47531 27452
" />
<path d="M48531 28452
L48531 28452
" />
<path d="M48531 27452
L48531 27452
" />
<path d="M49531 28452
L49531 28452
" />
<path d="M49531 27452
L49531 27452
" />
<path d="M50531 28452
L50531 28452
" />
<path d="M50531 27452
L50531 27452
" />
<path d="M51531 28452
L51531 28452
" />
<path d="M51531 27452
L51531 27452
" />
<path d="M52531 28452
L52531 28452
" />
<path d="M52531 27452
L52531 27452
" />
<path d="M53531 28452
L53531 28452
" />
<path d="M53531 27452
L53531 27452
" />
<path d="M54531 28452
L54531 28452
" />
<path d="M54531 27452
L54531 27452
" />
<path d="M55531 28452
L55531 28452
" />
<path d="M55531 27452
L55531 27452
" />
<path d="M56531 28452
L56531 28452
" />
<path d="M56531 27452
L56531 27452
" />
<path d="M57531 28452
L57531 28452
" />
<path d="M57531 27452
L57531 27452
" />
<path d="M63129 37744
L63129 37744
" />
<path d="M64129 37744
L64129 37744
" />
<path d="M63129 38744
L63129 38744
" />
<path d="M64129 38744
L64129 38744
" />
<path d="M63129 39744
L63129 39744
" />
<path d="M64129 39744
L64129 39744
" />
<path d="M63129 40744
L63129 40744
" />
<path d="M64129 40744
L64129 40744
" />
<path d="M63129 41744
L63129 41744
" />
<path d="M64129 41744
L64129 41744
" />
<path d="M63129 42744
L63129 42744
" />
<path d="M64129 42744
L64129 42744
" />
<path d="M63129 43744
L63129 43744
" />
<path d="M64129 43744
L64129 43744
" />
<path d="M63129 44744
L63129 44744
" />
<path d="M64129 44744
L64129 44744
" />
<path d="M63129 45744
L63129 45744
" />
<path d="M64129 45744
L64129 45744
" />
<path d="M63129 46744
L63129 46744
" />
<path d="M64129 46744
L64129 46744
" />
<path d="M63129 47744
L63129 47744
" />
<path d="M64129 47744
L64129 47744
" />
<path d="M63129 48744
L63129 48744
" />
<path d="M64129 48744
L64129 48744
" />
<path d="M63129 49744
L63129 49744
" />
<path d="M64129 49744
L64129 49744
" />
<path d="M63129 50744
L63129 50744
" />
<path d="M64129 50744
L64129 50744
" />
<path d="M63129 51744
L63129 51744
" />
<path d="M64129 51744
L64129 51744
" />
<path d="M63129 52744
L63129 52744
" />
<path d="M64129 52744
L64129 52744
" />
<path d="M63129 53744
L63129 53744
" />
<path d="M64129 53744
L64129 53744
" />
<path d="M63129 54744
L63129 54744
" />
<path d="M64129 54744
L64129 54744
" />
<path d="M63129 55744
L63129 55744
" />
<path d="M64129 55744
L64129 55744
" />
<path d="M63129 56744
L63129 56744
" />
<path d="M64129 56744
L64129 56744
" />
<path d="M35129 37744
L35129 37744
" />
<path d="M36129 37744
L36129 37744
" />
<path d="M35129 38744
L35129 38744
" />
<path d="M36129 38744
L36129 38744
" />
<path d="M35129 39744
L35129 39744
" />
<path d="M36129 39744
L36129 39744
" />
<path d="M35129 40744
L35129 40744
" />
<path d="M36129 40744
L36129 40744
" />
<path d="M35129 41744
L35129 41744
" />
<path d="M36129 41744
L36129 41744
" />
<path d="M35129 42744
L35129 42744
" />
<path d="M36129 42744
L36129 42744
" />
<path d="M35129 43744
L35129 43744
" />
<path d="M36129 43744
L36129 43744
" />
<path d="M35129 44744
L35129 44744
" />
<path d="M36129 44744
L36129 44744
" />
<path d="M35129 45744
L35129 45744
" />
<path d="M36129 45744
L36129 45744
" />
<path d="M35129 46744
L35129 46744
" />
<path d="M36129 46744
L36129 46744
" />
<path d="M35129 47744
L35129 47744
" />
<path d="M36129 47744
L36129 47744
" />
<path d="M35129 48744
L35129 48744
" />
<path d="M36129 48744
L36129 48744
" />
<path d="M35129 49744
L35129 49744
" />
<path d="M36129 49744
L36129 49744
" />
<path d="M35129 50744
L35129 50744
" />
<path d="M36129 50744
L36129 50744
" />
<path d="M35129 51744
L35129 51744
" />
<path d="M36129 51744
L36129 51744
" />
<path d="M35129 52744
L35129 52744
" />
<path d="M36129 52744
L36129 52744
" />
<path d="M35129 53744
L35129 53744
" />
<path d="M36129 53744
L36129 53744
" />
<path d="M35129 54744
L35129 54744
" />
<path d="M36129 54744
L36129 54744
" />
<path d="M35129 55744
L35129 55744
" />
<path d="M36129 55744
L36129 55744
" />
<path d="M35129 56744
L35129 56744
" />
<path d="M36129 56744
L36129 56744
" />
</g>
<g style="fill:#000000; fill-opacity:0.0; 
stroke:#000000; stroke-width:669.291; stroke-opacity:1; 
stroke-linecap:round; stroke-linejoin:round;">
<path d="M41112 22208
L41427 22208
" />
<path d="M41112 23208
L41427 23208
" />
<path d="M41112 24208
L41427 24208
" />
</g>
<g style="fill:#000000; fill-opacity:0.0; 
stroke:#000000; stroke-width:787.402; stroke-opacity:1; 
stroke-linecap:round; stroke-linejoin:round;">
<path d="M60204 35925
L60204 35925
" />
<path d="M59204 35925
L59204 35925
" />
</g>
<g style="fill:#000000; fill-opacity:0.0; 
stroke:#000000; stroke-width:39.3701; stroke-opacity:1; 
stroke-linecap:round; stroke-linejoin:round;">
</g>
<g style="fill:#000000; fill-opacity:1.0; 
stroke:#000000; stroke-width:39.3701; stroke-opacity:1; 
stroke-linecap:round; stroke-linejoin:round;">
<circle cx="64045.3" cy="22192.9" r="374.016" /> 
<circle cx="64045.3" cy="21192.9" r="374.016" /> 
<circle cx="61104.3" cy="20580.7" r="374.016" /> 
<circle cx="62104.3" cy="20580.7" r="374.016" /> 
<circle cx="39153.5" cy="24210.6" r="374.016" /> 
<circle cx="39153.5" cy="23210.6" r="374.016" /> 
<circle cx="41238.2" cy="20629.9" r="374.016" /> 
<circle cx="40238.2" cy="20629.9" r="374.016" /> 
</g>
<g style="fill:#000000; fill-opacity:1.0; 
stroke:#000000; stroke-width:787.402; stroke-opacity:1; 
stroke-linecap:round; stroke-linejoin:round;">
<path d="M64547 23771
L64547 23771
" />
</g>
<g style="fill:#000000; fill-opacity:1.0; 
stroke:#000000; stroke-width:39.3701; stroke-opacity:1; 
stroke-linecap:round; stroke-linejoin:round;">
<circle cx="64547.2" cy="24771.7" r="374.016" /> 
</g>
<g style="fill:#000000; fill-opacity:1.0; 
stroke:#000000; stroke-width:787.402; stroke-opacity:1; 
stroke-linecap:round; stroke-linejoin:round;">
<path d="M36309 23679
L36309 23679
" />
</g>
<g style="fill:#000000; fill-opacity:1.0; 
stroke:#000000; stroke-width:39.3701; stroke-opacity:1; 
stroke-linecap:round; stroke-linejoin:round;">
<circle cx="36309.1" cy="22679.1" r="374.016" /> 
</g>
<g style="fill:#000000; fill-opacity:1.0; 
stroke:#000000; stroke-width:314.961; stroke-opacity:1; 
stroke-linecap:round; stroke-linejoin:round;">
<path d="M45324 19076
L45343 19074
" />
<path d="M45343 19074
L45324 19076
" />
</g>
<g style="fill:#000000; fill-opacity:1.0; 
stroke:#000000; stroke-width:100; stroke-opacity:1; 
stroke-linecap:round; stroke-linejoin:round;">
<path d="M45324 19076
L45343 19074
" />
<path d="M45343 19074
L45324 19076
" />
</g>
<g style="fill:#FFFFFF; fill-opacity:1.0; 
stroke:#FFFFFF; stroke-width:39.3701; stroke-opacity:1; 
stroke-linecap:round; stroke-linejoin:round;">
<circle cx="66299.2" cy="23464.6" r="118.11" /> 
<circle cx="66299.2" cy="21909.4" r="118.11" /> 
<circle cx="66299.2" cy="25019.7" r="118.11" /> 
<circle cx="66299.2" cy="20334.6" r="118.11" /> 
<circle cx="62092.5" cy="22066.9" r="118.11" /> 
<circle cx="61092.5" cy="22066.9" r="118.11" /> 
<circle cx="60092.5" cy="22066.9" r="118.11" /> 
<circle cx="57000" cy="20964.6" r="118.11" /> 
<circle cx="53000" cy="20964.6" r="118.11" /> 
<circle cx="61112.2" cy="31602.4" r="118.11" /> 
<circle cx="61112.2" cy="35602.4" r="118.11" /> 
<circle cx="57748" cy="23602.4" r="118.11" /> 
<circle cx="53748" cy="23602.4" r="118.11" /> 
<circle cx="33563" cy="26242.1" r="118.11" /> 
<circle cx="33563" cy="27242.1" r="118.11" /> 
<circle cx="60502" cy="39649.6" r="118.11" /> 
<circle cx="60502" cy="40649.6" r="118.11" /> 
<circle cx="60502" cy="41649.6" r="118.11" /> 
<circle cx="60502" cy="42649.6" r="118.11" /> 
<circle cx="60502" cy="43649.6" r="118.11" /> 
<circle cx="60502" cy="44649.6" r="118.11" /> 
<circle cx="60502" cy="45649.6" r="118.11" /> 
<circle cx="60502" cy="46649.6" r="118.11" /> 
<circle cx="38531.5" cy="56452.8" r="118.11" /> 
<circle cx="38531.5" cy="55452.8" r="118.11" /> 
<circle cx="39531.5" cy="56452.8" r="118.11" /> 
<circle cx="39531.5" cy="55452.8" r="118.11" /> 
<circle cx="40531.5" cy="56452.8" r="118.11" /> 
<circle cx="40531.5" cy="55452.8" r="118.11" /> 
<circle cx="41531.5" cy="56452.8" r="118.11" /> 
<circle cx="41531.5" cy="55452.8" r="118.11" /> 
<circle cx="42531.5" cy="56452.8" r="118.11" /> 
<circle cx="42531.5" cy="55452.8" r="118.11" /> 
<circle cx="43531.5" cy="56452.8" r="118.11" /> 
<circle cx="43531.5" cy="55452.8" r="118.11" /> 
<circle cx="44531.5" cy="56452.8" r="118.11" /> 
<circle cx="44531.5" cy="55452.8" r="118.11" /> 
<circle cx="45531.5" cy="56452.8" r="118.11" /> 
<circle cx="45531.5" cy="55452.8" r="118.11" /> 
<circle cx="46531.5" cy="56452.8" r="118.11" /> 
<circle cx="46531.5" cy="55452.8" r="118.11" /> 
<circle cx="47531.5" cy="56452.8" r="118.11" /> 
<circle cx="47531.5" cy="55452.8" r="118.11" /> 
<circle cx="48531.5" cy="56452.8" r="118.11" /> 
<circle cx="48531.5" cy="55452.8" r="118.11" /> 
<circle cx="49531.5" cy="56452.8" r="118.11" /> 
<circle cx="49531.5" cy="55452.8" r="118.11" /> 
<circle cx="50531.5" cy="56452.8" r="118.11" /> 
<circle cx="50531.5" cy="55452.8" r="118.11" /> 
<circle cx="51531.5" cy="56452.8" r="118.11" /> 
<circle cx="51531.5" cy="55452.8" r="118.11" /> 
<circle cx="52531.5" cy="56452.8" r="118.11" /> 
<circle cx="52531.5" cy="55452.8" r="118.11" /> 
<circle cx="53531.5" cy="56452.8" r="118.11" /> 
<circle cx="53531.5" cy="55452.8" r="118.11" /> 
<circle cx="54531.5" cy="56452.8" r="118.11" /> 
<circle cx="54531.5" cy="55452.8" r="118.11" /> 
<circle cx="55531.5" cy="56452.8" r="118.11" /> 
<circle cx="55531.5" cy="55452.8" r="118.11" /> 
<circle cx="56531.5" cy="56452.8" r="118.11" /> 
<circle cx="56531.5" cy="55452.8" r="118.11" /> 
<circle cx="57531.5" cy="56452.8" r="118.11" /> 
<circle cx="57531.5" cy="55452.8" r="118.11" /> 
<circle cx="38531.5" cy="28452.8" r="118.11" /> 
<circle cx="38531.5" cy="27452.8" r="118.11" /> 
<circle cx="39531.5" cy="28452.8" r="118.11" /> 
<circle cx="39531.5" cy="27452.8" r="118.11" /> 
<circle cx="40531.5" cy="28452.8" r="118.11" /> 
<circle cx="40531.5" cy="27452.8" r="118.11" /> 
<circle cx="41531.5" cy="28452.8" r="118.11" /> 
<circle cx="41531.5" cy="27452.8" r="118.11" /> 
<circle cx="42531.5" cy="28452.8" r="118.11" /> 
<circle cx="42531.5" cy="27452.8" r="118.11" /> 
<circle cx="43531.5" cy="28452.8" r="118.11" /> 
<circle cx="43531.5" cy="27452.8" r="118.11" /> 
<circle cx="44531.5" cy="28452.8" r="118.11" /> 
<circle cx="44531.5" cy="27452.8" r="118.11" /> 
<circle cx="45531.5" cy="28452.8" r="118.11" /> 
<circle cx="45531.5" cy="27452.8" r="118.11" /> 
<circle cx="46531.5" cy="28452.8" r="118.11" /> 
<circle cx="46531.5" cy="27452.8" r="118.11" /> 
<circle cx="47531.5" cy="28452.8" r="118.11" /> 
<circle cx="47531.5" cy="27452.8" r="118.11" /> 
<circle cx="48531.5" cy="28452.8" r="118.11" /> 
<circle cx="48531.5" cy="27452.8" r="118.11" /> 
<circle cx="49531.5" cy="28452.8" r="118.11" /> 
<circle cx="49531.5" cy="27452.8" r="118.11" /> 
<circle cx="50531.5" cy="28452.8" r="118.11" /> 
<circle cx="50531.5" cy="27452.8" r="118.11" /> 
<circle cx="51531.5" cy="28452.8" r="118.11" /> 
<circle cx="51531.5" cy="27452.8" r="118.11" /> 
<circle cx="52531.5" cy="28452.8" r="118.11" /> 
<circle cx="52531.5" cy="27452.8" r="118.11" /> 
<circle cx="53531.5" cy="28452.8" r="118.11" /> 
<circle cx="53531.5" cy="27452.8" r="118.11" /> 
<circle cx="54531.5" cy="28452.8" r="118.11" /> 
<circle cx="54531.5" cy="27452.8" r="118.11" /> 
<circle cx="55531.5" cy="28452.8" r="118.11" /> 
<circle cx="55531.5" cy="27452.8" r="118.11" /> 
<circle cx="56531.5" cy="28452.8" r="118.11" /> 
<circle cx="56531.5" cy="27452.8" r="118.11" /> 
<circle cx="57531.5" cy="28452.8" r="118.11" /> 
<circle cx="57531.5" cy="27452.8" r="118.11" /> 
<circle cx="63129.9" cy="37744.1" r="118.11" /> 
<circle cx="64129.9" cy="37744.1" r="118.11" /> 
<circle cx="63129.9" cy="38744.1" r="118.11" /> 
<circle cx="64129.9" cy="38744.1" r="118.11" /> 
<circle cx="63129.9" cy="39744.1" r="118.11" /> 
<circle cx="64129.9" cy="39744.1" r="118.11" /> 
<circle cx="63129.9" cy="40744.1" r="118.11" /> 
<circle cx="64129.9" cy="40744.1" r="118.11" /> 
<circle cx="63129.9" cy="41744.1" r="118.11" /> 
<circle cx="64129.9" cy="41744.1" r="118.11" /> 
<circle cx="63129.9" cy="42744.1" r="118.11" /> 
<circle cx="64129.9" cy="42744.1" r="118.11" /> 
<circle cx="63129.9" cy="43744.1" r="118.11" /> 
<circle cx="64129.9" cy="43744.1" r="118.11" /> 
<circle cx="63129.9" cy="44744.1" r="118.11" /> 
<circle cx="64129.9" cy="44744.1" r="118.11" /> 
<circle cx="63129.9" cy="45744.1" r="118.11" /> 
<circle cx="64129.9" cy="45744.1" r="118.11" /> 
<circle cx="63129.9" cy="46744.1" r="118.11" /> 
<circle cx="64129.9" cy="46744.1" r="118.11" /> 
<circle cx="63129.9" cy="47744.1" r="118.11" /> 
<circle cx="64129.9" cy="47744.1" r="118.11" /> 
<circle cx="63129.9" cy="48744.1" r="118.11" /> 
<circle cx="64129.9" cy="48744.1" r="118.11" /> 
<circle cx="63129.9" cy="49744.1" r="118.11" /> 
<circle cx="64129.9" cy="49744.1" r="118.11" /> 
<circle cx="63129.9" cy="50744.1" r="118.11" /> 
<circle cx="64129.9" cy="50744.1" r="118.11" /> 
<circle cx="63129.9" cy="51744.1" r="118.11" /> 
<circle cx="64129.9" cy="51744.1" r="118.11" /> 
<circle cx="63129.9" cy="52744.1" r="118.11" /> 
<circle cx="64129.9" cy="52744.1" r="118.11" /> 
<circle cx="63129.9" cy="53744.1" r="118.11" /> 
<circle cx="64129.9" cy="53744.1" r="118.11" /> 
<circle cx="63129.9" cy="54744.1" r="118.11" /> 
<circle cx="64129.9" cy="54744.1" r="118.11" /> 
<circle cx="63129.9" cy="55744.1" r="118.11" /> 
<circle cx="64129.9" cy="55744.1" r="118.11" /> 
<circle cx="63129.9" cy="56744.1" r="118.11" /> 
<circle cx="64129.9" cy="56744.1" r="118.11" /> 
<circle cx="35129.9" cy="37744.1" r="118.11" /> 
<circle cx="36129.9" cy="37744.1" r="118.11" /> 
<circle cx="35129.9" cy="38744.1" r="118.11" /> 
<circle cx="36129.9" cy="38744.1" r="118.11" /> 
<circle cx="35129.9" cy="39744.1" r="118.11" /> 
<circle cx="36129.9" cy="39744.1" r="118.11" /> 
<circle cx="35129.9" cy="40744.1" r="118.11" /> 
<circle cx="36129.9" cy="40744.1" r="118.11" /> 
<circle cx="35129.9" cy="41744.1" r="118.11" /> 
<circle cx="36129.9" cy="41744.1" r="118.11" /> 
<circle cx="35129.9" cy="42744.1" r="118.11" /> 
<circle cx="36129.9" cy="42744.1" r="118.11" /> 
<circle cx="35129.9" cy="43744.1" r="118.11" /> 
<circle cx="36129.9" cy="43744.1" r="118.11" /> 
<circle cx="35129.9" cy="44744.1" r="118.11" /> 
<circle cx="36129.9" cy="44744.1" r="118.11" /> 
<circle cx="35129.9" cy="45744.1" r="118.11" /> 
<circle cx="36129.9" cy="45744.1" r="118.11" /> 
<circle cx="35129.9" cy="46744.1" r="118.11" /> 
<circle cx="36129.9" cy="46744.1" r="118.11" /> 
<circle cx="35129.9" cy="47744.1" r="118.11" /> 
<circle cx="36129.9" cy="47744.1" r="118.11" /> 
<circle cx="35129.9" cy="48744.1" r="118.11" /> 
<circle cx="36129.9" cy="48744.1" r="118.11" /> 
<circle cx="35129.9" cy="49744.1" r="118.11" /> 
<circle cx="36129.9" cy="49744.1" r="118.11" /> 
<circle cx="35129.9" cy="50744.1" r="118.11" /> 
<circle cx="36129.9" cy="50744.1" r="118.11" /> 
<circle cx="35129.9" cy="51744.1" r="118.11" /> 
<circle cx="36129.9" cy="51744.1" r="118.11" /> 
<circle cx="35129.9" cy="52744.1" r="118.11" /> 
<circle cx="36129.9" cy="52744.1" r="118.11" /> 
<circle cx="35129.9" cy="53744.1" r="118.11" /> 
<circle cx="36129.9" cy="53744.1" r="118.11" /> 
<circle cx="35129.9" cy="54744.1" r="118.11" /> 
<circle cx="36129.9" cy="54744.1" r="118.11" /> 
<circle cx="35129.9" cy="55744.1" r="118.11" /> 
<circle cx="36129.9" cy="55744.1" r="118.11" /> 
<circle cx="35129.9" cy="56744.1" r="118.11" /> 
<circle cx="36129.9" cy="56744.1" r="118.11" /> 
<circle cx="41269.7" cy="22208.7" r="118.11" /> 
<circle cx="41269.7" cy="23208.7" r="118.11" /> 
<circle cx="41269.7" cy="24208.7" r="118.11" /> 
<circle cx="60204.7" cy="35925.2" r="118.11" /> 
<circle cx="59204.7" cy="35925.2" r="118.11" /> 
<circle cx="64045.3" cy="22192.9" r="118.11" /> 
<circle cx="64045.3" cy="21192.9" r="118.11" /> 
<circle cx="61104.3" cy="20580.7" r="118.11" /> 
<circle cx="62104.3" cy="20580.7" r="118.11" /> 
<circle cx="39153.5" cy="24210.6" r="118.11" /> 
<circle cx="39153.5" cy="23210.6" r="118.11" /> 
<circle cx="41238.2" cy="20629.9" r="118.11" /> 
<circle cx="40238.2" cy="20629.9" r="118.11" /> 
<circle cx="64547.2" cy="23771.7" r="118.11" /> 
<circle cx="64547.2" cy="24771.7" r="118.11" /> 
<circle cx="36309.1" cy="23679.1" r="118.11" /> 
<circle cx="36309.1" cy="22679.1" r="118.11" /> 
</g> 
</svg>
