<?xml version="1.0" standalone="no"?>
 <!DOCTYPE svg PUBLIC "-//W3C//DTD SVG 1.1//EN" 
 "http://www.w3.org/Graphics/SVG/1.1/DTD/svg11.dtd"> 
<svg xmlns="http://www.w3.org/2000/svg" version="1.1" 
    width="29.7002cm" height="21.0007cm" viewBox="0 0 116930 82680 ">
<title>SVG Picture created as poncho_rescatAR-F_SilkS.svg date 2015/12/04 11:41:28 </title>
  <desc>Picture generated by PCBNEW </desc>
<g style="fill:#000000; fill-opacity:1;stroke:#000000; stroke-opacity:1;
stroke-linecap:round; stroke-linejoin:round; "
 transform="translate(0 0) scale(1 1)">
</g>
<g style="fill:#000000; fill-opacity:0.0; 
stroke:#000000; stroke-width:80; stroke-opacity:1; 
stroke-linecap:round; stroke-linejoin:round;">
<path d="M101631 14074
L102116 14074
L102173 14055
L102202 14036
L102231 13998
L102231 13922
L102202 13883
L102173 13864
L102116 13845
L101631 13845
" />
<path d="M102231 13445
L102231 13674
" />
<path d="M102231 13560
L101631 13560
L101716 13598
L101773 13636
L101802 13674
" />
<path d="M102659 11512
L102469 11512
L102469 10912
" />
<path d="M102792 11512
L102792 10912
L102926 11341
L103059 10912
L103059 11512
" />
<path d="M103211 10912
L103459 10912
L103326 11141
L103383 11141
L103421 11169
L103440 11198
L103459 11255
L103459 11398
L103440 11455
L103421 11483
L103383 11512
L103269 11512
L103231 11483
L103211 11455
" />
<path d="M103840 11512
L103611 11512
" />
<path d="M103726 11512
L103726 10912
L103688 10998
L103650 11055
L103611 11083
" />
<path d="M103973 10912
L104240 10912
L104069 11512
" />
<path d="M104335 10912
L104564 10912
" />
<path d="M104450 11512
L104450 10912
" />
<path d="M89947 13214
L90004 13233
L90023 13252
L90042 13290
L90042 13347
L90023 13385
L90004 13404
L89966 13423
L89814 13423
L89814 13023
L89947 13023
L89985 13042
L90004 13061
L90023 13099
L90023 13138
L90004 13176
L89985 13195
L89947 13214
L89814 13214
" />
<path d="M90194 13309
L90385 13309
" />
<path d="M90156 13423
L90290 13023
L90423 13423
" />
<path d="M90499 13023
L90728 13023
" />
<path d="M90614 13423
L90614 13023
" />
<path d="M91071 13423
L90842 13423
" />
<path d="M90956 13423
L90956 13023
L90918 13080
L90880 13118
L90842 13138
" />
<path d="M100103 16826
L99937 16565
" />
<path d="M99817 16826
L99817 16276
L100008 16276
L100056 16303
L100079 16329
L100103 16381
L100103 16460
L100079 16512
L100056 16538
L100008 16565
L99817 16565
" />
<path d="M100532 16460
L100532 16826
" />
<path d="M100413 16250
L100294 16643
L100603 16643
" />
<path d="M97200 21067
L96939 21234
" />
<path d="M97200 21353
L96650 21353
L96650 21162
L96677 21115
L96703 21091
L96755 21067
L96834 21067
L96886 21091
L96912 21115
L96939 21162
L96939 21353
" />
<path d="M97200 20591
L97200 20877
" />
<path d="M97200 20734
L96650 20734
L96729 20781
L96781 20829
L96808 20877
" />
<path d="M99188 15360
L99021 15098
" />
<path d="M98902 15360
L98902 14810
L99093 14810
L99140 14836
L99164 14862
L99188 14915
L99188 14993
L99164 15046
L99140 15072
L99093 15098
L98902 15098
" />
<path d="M99640 14810
L99402 14810
L99378 15072
L99402 15046
L99450 15019
L99569 15019
L99616 15046
L99640 15072
L99664 15124
L99664 15255
L99640 15308
L99616 15334
L99569 15360
L99450 15360
L99402 15334
L99378 15308
" />
</g>
<g style="fill:#000000; fill-opacity:0.0; 
stroke:#000000; stroke-width:47.2441; stroke-opacity:1; 
stroke-linecap:round; stroke-linejoin:round;">
<path d="M70284 17407
L69970 17407
L69970 17287
L69985 17257
L70000 17242
L70029 17227
L70074 17227
L70104 17242
L70119 17257
L70134 17287
L70134 17407
" />
<path d="M70284 16927
L70284 17107
" />
<path d="M70284 17017
L69970 17017
L70014 17047
L70044 17077
L70059 17107
" />
<path d="M66934 17805
L66934 17955
L67084 17970
L67069 17955
L67054 17925
L67054 17850
L67069 17820
L67084 17805
L67114 17790
L67189 17790
L67219 17805
L67234 17820
L67249 17850
L67249 17925
L67234 17955
L67219 17970
" />
<path d="M66934 17700
L67249 17595
L66934 17490
" />
<path d="M67279 17460
L67279 17220
" />
<path d="M66934 17085
L66934 17025
L66949 16995
L66979 16965
L67039 16950
L67144 16950
L67204 16965
L67234 16995
L67249 17025
L67249 17085
L67234 17115
L67204 17145
L67144 17160
L67039 17160
L66979 17145
L66949 17115
L66934 17085
" />
<path d="M66934 16815
L67189 16815
L67219 16800
L67234 16785
L67249 16755
L67249 16695
L67234 16665
L67219 16650
L67189 16635
L66934 16635
" />
<path d="M66934 16530
L66934 16350
" />
<path d="M67249 16440
L66934 16440
" />
</g>
<g style="fill:#000000; fill-opacity:0.0; 
stroke:#000000; stroke-width:80; stroke-opacity:1; 
stroke-linecap:round; stroke-linejoin:round;">
<path d="M99171 33877
L98771 33877
L98771 33725
L98790 33687
L98809 33668
L98847 33649
L98904 33649
L98942 33668
L98961 33687
L98980 33725
L98980 33877
" />
<path d="M98809 33496
L98790 33477
L98771 33439
L98771 33344
L98790 33306
L98809 33287
L98847 33268
L98885 33268
L98942 33287
L99171 33516
L99171 33268
" />
<path d="M83226 45009
L83207 45028
L83150 45047
L83112 45047
L83055 45028
L83017 44990
L82998 44952
L82979 44876
L82979 44819
L82998 44742
L83017 44704
L83055 44666
L83112 44647
L83150 44647
L83207 44666
L83226 44685
" />
<path d="M83474 44647
L83550 44647
L83588 44666
L83626 44704
L83645 44781
L83645 44914
L83626 44990
L83588 45028
L83550 45047
L83474 45047
L83436 45028
L83398 44990
L83379 44914
L83379 44781
L83398 44704
L83436 44666
L83474 44647
" />
<path d="M83817 45047
L83817 44647
L84045 45047
L84045 44647
" />
<path d="M84140 45085
L84445 45085
" />
<path d="M84521 45028
L84579 45047
L84674 45047
L84712 45028
L84731 45009
L84750 44971
L84750 44933
L84731 44895
L84712 44876
L84674 44857
L84598 44838
L84559 44819
L84540 44800
L84521 44762
L84521 44723
L84540 44685
L84559 44666
L84598 44647
L84693 44647
L84750 44666
" />
<path d="M84998 44647
L85074 44647
L85112 44666
L85150 44704
L85169 44781
L85169 44914
L85150 44990
L85112 45028
L85074 45047
L84998 45047
L84959 45028
L84921 44990
L84902 44914
L84902 44781
L84921 44704
L84959 44666
L84998 44647
" />
<path d="M85550 45047
L85321 45047
" />
<path d="M85436 45047
L85436 44647
L85398 44704
L85359 44742
L85321 44762
" />
<path d="M85798 44647
L85836 44647
L85874 44666
L85893 44685
L85912 44723
L85931 44800
L85931 44895
L85912 44971
L85893 45009
L85874 45028
L85836 45047
L85798 45047
L85759 45028
L85740 45009
L85721 44971
L85702 44895
L85702 44800
L85721 44723
L85740 44685
L85759 44666
L85798 44647
" />
<path d="M86312 45047
L86083 45047
" />
<path d="M86198 45047
L86198 44647
L86159 44704
L86121 44742
L86083 44762
" />
<path d="M83226 17009
L83207 17028
L83150 17047
L83112 17047
L83055 17028
L83017 16990
L82998 16952
L82979 16876
L82979 16819
L82998 16742
L83017 16704
L83055 16666
L83112 16647
L83150 16647
L83207 16666
L83226 16685
" />
<path d="M83474 16647
L83550 16647
L83588 16666
L83626 16704
L83645 16781
L83645 16914
L83626 16990
L83588 17028
L83550 17047
L83474 17047
L83436 17028
L83398 16990
L83379 16914
L83379 16781
L83398 16704
L83436 16666
L83474 16647
" />
<path d="M83817 17047
L83817 16647
L84045 17047
L84045 16647
" />
<path d="M84140 17085
L84445 17085
" />
<path d="M84521 17028
L84579 17047
L84674 17047
L84712 17028
L84731 17009
L84750 16971
L84750 16933
L84731 16895
L84712 16876
L84674 16857
L84598 16838
L84559 16819
L84540 16800
L84521 16762
L84521 16723
L84540 16685
L84559 16666
L84598 16647
L84693 16647
L84750 16666
" />
<path d="M84998 16647
L85074 16647
L85112 16666
L85150 16704
L85169 16781
L85169 16914
L85150 16990
L85112 17028
L85074 17047
L84998 17047
L84959 17028
L84921 16990
L84902 16914
L84902 16781
L84921 16704
L84959 16666
L84998 16647
" />
<path d="M85550 17047
L85321 17047
" />
<path d="M85436 17047
L85436 16647
L85398 16704
L85359 16742
L85321 16762
" />
<path d="M85798 16647
L85836 16647
L85874 16666
L85893 16685
L85912 16723
L85931 16800
L85931 16895
L85912 16971
L85893 17009
L85874 17028
L85836 17047
L85798 17047
L85759 17028
L85740 17009
L85721 16971
L85702 16895
L85702 16800
L85721 16723
L85740 16685
L85759 16666
L85798 16647
" />
<path d="M86274 16781
L86274 17047
" />
<path d="M86179 16628
L86083 16914
L86331 16914
" />
<path d="M102911 39381
L102930 39400
L102949 39458
L102949 39496
L102930 39553
L102892 39591
L102854 39610
L102777 39629
L102720 39629
L102644 39610
L102606 39591
L102568 39553
L102549 39496
L102549 39458
L102568 39400
L102587 39381
" />
<path d="M102549 39134
L102549 39058
L102568 39020
L102606 38981
L102682 38962
L102815 38962
L102892 38981
L102930 39020
L102949 39058
L102949 39134
L102930 39172
L102892 39210
L102815 39229
L102682 39229
L102606 39210
L102568 39172
L102549 39134
" />
<path d="M102949 38791
L102549 38791
L102949 38562
L102549 38562
" />
<path d="M102987 38467
L102987 38162
" />
<path d="M102739 38067
L102739 37934
" />
<path d="M102949 37877
L102949 38067
L102549 38067
L102549 37877
" />
<path d="M102796 37705
L102796 37400
" />
<path d="M102911 36981
L102930 37000
L102949 37058
L102949 37096
L102930 37153
L102892 37191
L102854 37210
L102777 37229
L102720 37229
L102644 37210
L102606 37191
L102568 37153
L102549 37096
L102549 37058
L102568 37000
L102587 36981
" />
<path d="M102949 36810
L102549 36810
" />
<path d="M102835 36639
L102835 36448
" />
<path d="M102949 36677
L102549 36543
L102949 36410
" />
<path d="M102835 36296
L102835 36105
" />
<path d="M102949 36334
L102549 36200
L102949 36067
" />
<path d="M102949 35724
L102949 35953
" />
<path d="M102949 35839
L102549 35839
L102606 35877
L102644 35915
L102663 35953
" />
<path d="M74911 39381
L74930 39400
L74949 39458
L74949 39496
L74930 39553
L74892 39591
L74854 39610
L74777 39629
L74720 39629
L74644 39610
L74606 39591
L74568 39553
L74549 39496
L74549 39458
L74568 39400
L74587 39381
" />
<path d="M74549 39134
L74549 39058
L74568 39020
L74606 38981
L74682 38962
L74815 38962
L74892 38981
L74930 39020
L74949 39058
L74949 39134
L74930 39172
L74892 39210
L74815 39229
L74682 39229
L74606 39210
L74568 39172
L74549 39134
" />
<path d="M74949 38791
L74549 38791
L74949 38562
L74549 38562
" />
<path d="M74987 38467
L74987 38162
" />
<path d="M74739 38067
L74739 37934
" />
<path d="M74949 37877
L74949 38067
L74549 38067
L74549 37877
" />
<path d="M74796 37705
L74796 37400
" />
<path d="M74911 36981
L74930 37000
L74949 37058
L74949 37096
L74930 37153
L74892 37191
L74854 37210
L74777 37229
L74720 37229
L74644 37210
L74606 37191
L74568 37153
L74549 37096
L74549 37058
L74568 37000
L74587 36981
" />
<path d="M74949 36810
L74549 36810
" />
<path d="M74835 36639
L74835 36448
" />
<path d="M74949 36677
L74549 36543
L74949 36410
" />
<path d="M74835 36296
L74835 36105
" />
<path d="M74949 36334
L74549 36200
L74949 36067
" />
<path d="M74587 35953
L74568 35934
L74549 35896
L74549 35800
L74568 35762
L74587 35743
L74625 35724
L74663 35724
L74720 35743
L74949 35972
L74949 35724
" />
<path d="M72953 12129
L72953 12614
L72972 12671
L72991 12700
L73029 12729
L73105 12729
L73143 12700
L73162 12671
L73181 12614
L73181 12129
" />
<path d="M73353 12186
L73372 12157
L73410 12129
L73505 12129
L73543 12157
L73562 12186
L73581 12243
L73581 12300
L73562 12386
L73334 12729
L73581 12729
" />
<path d="M72141 15479
L71950 15479
L71950 14879
" />
<path d="M72274 15479
L72274 14879
L72407 15307
L72541 14879
L72541 15479
" />
<path d="M72693 14879
L72960 14879
L72788 15479
" />
<path d="M73169 15136
L73131 15107
L73112 15079
L73093 15021
L73093 14993
L73112 14936
L73131 14907
L73169 14879
L73245 14879
L73284 14907
L73303 14936
L73322 14993
L73322 15021
L73303 15079
L73284 15107
L73245 15136
L73169 15136
L73131 15164
L73112 15193
L73093 15250
L73093 15364
L73112 15421
L73131 15450
L73169 15479
L73245 15479
L73284 15450
L73303 15421
L73322 15364
L73322 15250
L73303 15193
L73284 15164
L73245 15136
" />
<path d="M73569 14879
L73607 14879
L73645 14907
L73665 14936
L73684 14993
L73703 15107
L73703 15250
L73684 15364
L73665 15421
L73645 15450
L73607 15479
L73569 15479
L73531 15450
L73512 15421
L73493 15364
L73474 15250
L73474 15107
L73493 14993
L73512 14936
L73531 14907
L73569 14879
" />
<path d="M74065 14879
L73874 14879
L73855 15164
L73874 15136
L73912 15107
L74007 15107
L74045 15136
L74065 15164
L74084 15221
L74084 15364
L74065 15421
L74045 15450
L74007 15479
L73912 15479
L73874 15450
L73855 15421
" />
</g>
<g style="fill:#000000; fill-opacity:0.0; 
stroke:#000000; stroke-width:35; stroke-opacity:1; 
stroke-linecap:round; stroke-linejoin:round;">
<path d="M98180 25891
L97880 25891
L97880 25820
L97894 25777
L97922 25749
L97951 25734
L98008 25720
L98051 25720
L98108 25734
L98137 25749
L98165 25777
L98180 25820
L98180 25891
" />
<path d="M98180 25434
L98180 25606
" />
<path d="M98180 25520
L97880 25520
L97922 25549
L97951 25577
L97965 25606
" />
<path d="M96080 25163
L96080 25306
L95780 25306
" />
<path d="M95922 25063
L95922 24963
" />
<path d="M96080 24920
L96080 25063
L95780 25063
L95780 24920
" />
<path d="M96080 24791
L95780 24791
L95780 24720
L95794 24677
L95822 24649
L95851 24634
L95908 24620
L95951 24620
L96008 24634
L96037 24649
L96065 24677
L96080 24720
L96080 24791
" />
</g>
<g style="fill:#000000; fill-opacity:0.0; 
stroke:#000000; stroke-width:80; stroke-opacity:1; 
stroke-linecap:round; stroke-linejoin:round;">
<path d="M96950 13165
L96969 13184
L96988 13241
L96988 13279
L96969 13336
L96931 13375
L96893 13394
L96816 13413
L96759 13413
L96683 13394
L96645 13375
L96607 13336
L96588 13279
L96588 13241
L96607 13184
L96626 13165
" />
<path d="M96721 12822
L96988 12822
" />
<path d="M96569 12917
L96854 13013
L96854 12765
" />
<path d="M100837 12240
L100857 12259
L100876 12316
L100876 12354
L100857 12411
L100818 12449
L100780 12468
L100704 12487
L100647 12487
L100571 12468
L100533 12449
L100495 12411
L100476 12354
L100476 12316
L100495 12259
L100514 12240
" />
<path d="M100476 12106
L100476 11859
L100628 11992
L100628 11935
L100647 11897
L100666 11878
L100704 11859
L100799 11859
L100837 11878
L100857 11897
L100876 11935
L100876 12049
L100857 12087
L100837 12106
" />
<path d="M77706 14645
L77725 14664
L77744 14721
L77744 14759
L77725 14816
L77687 14854
L77649 14873
L77573 14892
L77516 14892
L77440 14873
L77402 14854
L77364 14816
L77344 14759
L77344 14721
L77364 14664
L77383 14645
" />
<path d="M77344 14302
L77344 14378
L77364 14416
L77383 14435
L77440 14473
L77516 14492
L77668 14492
L77706 14473
L77725 14454
L77744 14416
L77744 14340
L77725 14302
L77706 14283
L77668 14264
L77573 14264
L77535 14283
L77516 14302
L77497 14340
L77497 14416
L77516 14454
L77535 14473
L77573 14492
" />
<path d="M70984 14645
L71003 14664
L71022 14721
L71022 14759
L71003 14816
L70965 14854
L70927 14873
L70851 14892
L70793 14892
L70717 14873
L70679 14854
L70641 14816
L70622 14759
L70622 14721
L70641 14664
L70660 14645
" />
<path d="M70622 14283
L70622 14473
L70813 14492
L70793 14473
L70774 14435
L70774 14340
L70793 14302
L70813 14283
L70851 14264
L70946 14264
L70984 14283
L71003 14302
L71022 14340
L71022 14435
L71003 14473
L70984 14492
" />
</g>
<g style="fill:#000000; fill-opacity:0.0; 
stroke:#000000; stroke-width:50; stroke-opacity:1; 
stroke-linecap:round; stroke-linejoin:round;">
<path d="M99426 13268
L99440 13282
L99455 13325
L99455 13354
L99440 13397
L99412 13425
L99383 13439
L99326 13454
L99283 13454
L99226 13439
L99197 13425
L99169 13397
L99155 13354
L99155 13325
L99169 13282
L99183 13268
" />
<path d="M99455 12982
L99455 13154
" />
<path d="M99455 13068
L99155 13068
L99197 13097
L99226 13125
L99240 13154
" />
<path d="M100454 13486
L100454 13629
" />
<path d="M100454 13557
L100154 13557
L100196 13581
L100225 13605
L100239 13629
" />
<path d="M100154 13331
L100154 13307
L100168 13283
L100182 13272
L100211 13260
L100268 13248
L100339 13248
L100396 13260
L100425 13272
L100439 13283
L100454 13307
L100454 13331
L100439 13355
L100425 13367
L100396 13379
L100339 13391
L100268 13391
L100211 13379
L100182 13367
L100168 13355
L100154 13331
" />
<path d="M100254 13033
L100454 13033
" />
<path d="M100254 13141
L100411 13141
L100439 13129
L100454 13105
L100454 13069
L100439 13045
L100425 13033
" />
<path d="M100296 12831
L100296 12914
" />
<path d="M100454 12914
L100154 12914
L100154 12795
" />
</g>
<g style="fill:#000000; fill-opacity:0.0; 
stroke:#000000; stroke-width:80; stroke-opacity:1; 
stroke-linecap:round; stroke-linejoin:round;">
</g>
<g style="fill:#000000; fill-opacity:0.0; 
stroke:#000000; stroke-width:75; stroke-opacity:1; 
stroke-linecap:round; stroke-linejoin:round;">
<path d="M99839 14232
L99839 14004
" />
<path d="M99954 14118
L99725 14118
" />
</g>
<g style="fill:#000000; fill-opacity:0.0; 
stroke:#000000; stroke-width:80; stroke-opacity:1; 
stroke-linecap:round; stroke-linejoin:round;">
</g>
<g style="fill:#000000; fill-opacity:0.0; 
stroke:#000000; stroke-width:50; stroke-opacity:1; 
stroke-linecap:round; stroke-linejoin:round;">
<path d="M79332 14528
L79346 14542
L79360 14585
L79360 14614
L79346 14656
L79317 14685
L79289 14699
L79232 14714
L79189 14714
L79132 14699
L79103 14685
L79074 14656
L79060 14614
L79060 14585
L79074 14542
L79089 14528
" />
<path d="M79089 14414
L79074 14399
L79060 14371
L79060 14299
L79074 14271
L79089 14256
L79117 14242
L79146 14242
L79189 14256
L79360 14428
L79360 14242
" />
<path d="M78361 14746
L78361 14889
" />
<path d="M78361 14817
L78061 14817
L78104 14841
L78133 14865
L78147 14889
" />
<path d="M78061 14591
L78061 14567
L78075 14543
L78090 14531
L78118 14520
L78175 14508
L78247 14508
L78304 14520
L78333 14531
L78347 14543
L78361 14567
L78361 14591
L78347 14615
L78333 14627
L78304 14639
L78247 14650
L78175 14650
L78118 14639
L78090 14627
L78075 14615
L78061 14591
" />
<path d="M78161 14293
L78361 14293
" />
<path d="M78161 14400
L78318 14400
L78347 14389
L78361 14365
L78361 14329
L78347 14305
L78333 14293
" />
<path d="M78204 14091
L78204 14174
" />
<path d="M78361 14174
L78061 14174
L78061 14055
" />
</g>
<g style="fill:#000000; fill-opacity:0.0; 
stroke:#000000; stroke-width:80; stroke-opacity:1; 
stroke-linecap:round; stroke-linejoin:round;">
</g>
<g style="fill:#000000; fill-opacity:0.0; 
stroke:#000000; stroke-width:75; stroke-opacity:1; 
stroke-linecap:round; stroke-linejoin:round;">
<path d="M78747 13692
L78747 13464
" />
<path d="M78861 13578
L78633 13578
" />
</g>
<g style="fill:#000000; fill-opacity:0.0; 
stroke:#000000; stroke-width:80; stroke-opacity:1; 
stroke-linecap:round; stroke-linejoin:round;">
</g>
<g style="fill:#000000; fill-opacity:0.0; 
stroke:#000000; stroke-width:100; stroke-opacity:1; 
stroke-linecap:round; stroke-linejoin:round;">
<path d="M70636 19871
L70617 19909
L70617 19966
L70636 20024
L70674 20062
L70712 20081
L70788 20100
L70845 20100
L70922 20081
L70960 20062
L70998 20024
L71017 19966
L71017 19928
L70998 19871
L70979 19852
L70845 19852
L70845 19928
" />
<path d="M71017 19681
L70617 19681
L71017 19452
L70617 19452
" />
<path d="M71017 19262
L70617 19262
L70617 19166
L70636 19109
L70674 19071
L70712 19052
L70788 19033
L70845 19033
L70922 19052
L70960 19071
L70998 19109
L71017 19166
L71017 19262
" />
<path d="M79730 21210
L79711 21248
L79711 21305
L79730 21362
L79769 21400
L79807 21419
L79883 21438
L79940 21438
L80016 21419
L80054 21400
L80092 21362
L80111 21305
L80111 21267
L80092 21210
L80073 21191
L79940 21191
L79940 21267
" />
<path d="M80111 21019
L79711 21019
L80111 20791
L79711 20791
" />
<path d="M80111 20600
L79711 20600
L79711 20505
L79730 20448
L79769 20410
L79807 20391
L79883 20372
L79940 20372
L80016 20391
L80054 20410
L80092 20448
L80111 20505
L80111 20600
" />
<path d="M95994 34653
L95956 34634
L95899 34634
L95842 34653
L95803 34691
L95784 34729
L95765 34806
L95765 34863
L95784 34939
L95803 34977
L95842 35015
L95899 35034
L95937 35034
L95994 35015
L96013 34996
L96013 34863
L95937 34863
" />
<path d="M96184 35034
L96184 34634
L96413 35034
L96413 34634
" />
<path d="M96603 35034
L96603 34634
L96699 34634
L96756 34653
L96794 34691
L96813 34729
L96832 34806
L96832 34863
L96813 34939
L96794 34977
L96756 35015
L96699 35034
L96603 35034
" />
<path d="M96791 44929
L96753 44910
L96696 44910
L96639 44929
L96601 44967
L96582 45005
L96563 45081
L96563 45138
L96582 45215
L96601 45253
L96639 45291
L96696 45310
L96734 45310
L96791 45291
L96810 45272
L96810 45138
L96734 45138
" />
<path d="M96982 45310
L96982 44910
L97210 45310
L97210 44910
" />
<path d="M97401 45310
L97401 44910
L97496 44910
L97553 44929
L97591 44967
L97610 45005
L97629 45081
L97629 45138
L97610 45215
L97591 45253
L97553 45291
L97496 45310
L97401 45310
" />
<path d="M70718 45697
L70680 45678
L70623 45678
L70566 45697
L70528 45735
L70509 45773
L70490 45849
L70490 45906
L70509 45982
L70528 46020
L70566 46058
L70623 46078
L70661 46078
L70718 46058
L70737 46039
L70737 45906
L70661 45906
" />
<path d="M70909 46078
L70909 45678
L71137 46078
L71137 45678
" />
<path d="M71328 46078
L71328 45678
L71423 45678
L71480 45697
L71518 45735
L71537 45773
L71556 45849
L71556 45906
L71537 45982
L71518 46020
L71480 46058
L71423 46078
L71328 46078
" />
<path d="M103327 44958
L103289 44939
L103231 44939
L103174 44958
L103136 44997
L103117 45035
L103098 45111
L103098 45168
L103117 45244
L103136 45282
L103174 45320
L103231 45339
L103269 45339
L103327 45320
L103346 45301
L103346 45168
L103269 45168
" />
<path d="M103517 45339
L103517 44939
L103746 45339
L103746 44939
" />
<path d="M103936 45339
L103936 44939
L104031 44939
L104089 44958
L104127 44997
L104146 45035
L104165 45111
L104165 45168
L104146 45244
L104127 45282
L104089 45320
L104031 45339
L103936 45339
" />
<path d="M82427 15442
L82408 15480
L82408 15537
L82427 15594
L82465 15633
L82503 15652
L82580 15671
L82637 15671
L82713 15652
L82751 15633
L82789 15594
L82808 15537
L82808 15499
L82789 15442
L82770 15423
L82637 15423
L82637 15499
" />
<path d="M82808 15252
L82408 15252
L82808 15023
L82408 15023
" />
<path d="M82808 14833
L82408 14833
L82408 14737
L82427 14680
L82465 14642
L82503 14623
L82580 14604
L82637 14604
L82713 14623
L82751 14642
L82789 14680
L82808 14737
L82808 14833
" />
<path d="M95725 21003
L95705 21041
L95705 21098
L95725 21155
L95763 21194
L95801 21213
L95877 21232
L95934 21232
L96010 21213
L96048 21194
L96086 21155
L96105 21098
L96105 21060
L96086 21003
L96067 20984
L95934 20984
L95934 21060
" />
<path d="M96105 20813
L95705 20813
L96105 20584
L95705 20584
" />
<path d="M96105 20394
L95705 20394
L95705 20298
L95725 20241
L95763 20203
L95801 20184
L95877 20165
L95934 20165
L96010 20184
L96048 20203
L96086 20241
L96105 20298
L96105 20394
" />
</g>
<g style="fill:#000000; fill-opacity:0.0; 
stroke:#000000; stroke-width:80; stroke-opacity:1; 
stroke-linecap:round; stroke-linejoin:round;">
<path d="M83193 13274
L83003 13274
L82984 13464
L83003 13445
L83041 13426
L83136 13426
L83174 13445
L83193 13464
L83212 13502
L83212 13597
L83193 13636
L83174 13655
L83136 13674
L83041 13674
L83003 13655
L82984 13636
" />
<path d="M83327 13274
L83460 13674
L83593 13274
" />
<path d="M83631 13712
L83936 13712
" />
<path d="M84107 13274
L84184 13274
L84222 13293
L84260 13331
L84279 13407
L84279 13540
L84260 13616
L84222 13655
L84184 13674
L84107 13674
L84069 13655
L84031 13616
L84012 13540
L84012 13407
L84031 13331
L84069 13293
L84107 13274
" />
<path d="M84450 13274
L84450 13597
L84469 13636
L84488 13655
L84527 13674
L84603 13674
L84641 13655
L84660 13636
L84679 13597
L84679 13274
" />
<path d="M84812 13274
L85041 13274
" />
<path d="M84927 13674
L84927 13274
" />
</g>
<g style="fill:#000000; fill-opacity:0.0; 
stroke:#000000; stroke-width:100; stroke-opacity:1; 
stroke-linecap:round; stroke-linejoin:round;">
<path d="M95138 29555
L95100 29536
L95042 29536
L94985 29555
L94947 29593
L94928 29631
L94909 29707
L94909 29764
L94928 29841
L94947 29879
L94985 29917
L95042 29936
L95081 29936
L95138 29917
L95157 29898
L95157 29764
L95081 29764
" />
<path d="M95328 29936
L95328 29536
L95557 29936
L95557 29536
" />
<path d="M95747 29936
L95747 29536
L95842 29536
L95900 29555
L95938 29593
L95957 29631
L95976 29707
L95976 29764
L95957 29841
L95938 29879
L95900 29917
L95842 29936
L95747 29936
" />
<path d="M95394 11317
L95355 11298
L95298 11298
L95241 11317
L95203 11355
L95184 11393
L95165 11469
L95165 11526
L95184 11602
L95203 11640
L95241 11679
L95298 11698
L95336 11698
L95394 11679
L95413 11660
L95413 11526
L95336 11526
" />
<path d="M95584 11698
L95584 11298
L95813 11698
L95813 11298
" />
<path d="M96003 11698
L96003 11298
L96098 11298
L96155 11317
L96194 11355
L96213 11393
L96232 11469
L96232 11526
L96213 11602
L96194 11640
L96155 11679
L96098 11698
L96003 11698
" />
</g>
<g style="fill:#000000; fill-opacity:0.0; 
stroke:#000000; stroke-width:80; stroke-opacity:1; 
stroke-linecap:round; stroke-linejoin:round;">
<path d="M101437 24312
L101456 24255
L101456 24160
L101437 24122
L101418 24103
L101380 24084
L101342 24084
L101304 24103
L101284 24122
L101265 24160
L101246 24236
L101227 24274
L101208 24293
L101170 24312
L101132 24312
L101094 24293
L101075 24274
L101056 24236
L101056 24141
L101075 24084
" />
<path d="M101056 23950
L101456 23855
L101170 23779
L101456 23703
L101056 23608
" />
<path d="M101456 23246
L101456 23474
" />
<path d="M101456 23360
L101056 23360
L101113 23398
L101151 23436
L101170 23474
" />
<path d="M102156 25055
L101965 25189
" />
<path d="M102156 25284
L101756 25284
L101756 25131
L101775 25093
L101794 25074
L101832 25055
L101889 25055
L101927 25074
L101946 25093
L101965 25131
L101965 25284
" />
<path d="M102137 24731
L102156 24770
L102156 24846
L102137 24884
L102099 24903
L101946 24903
L101908 24884
L101889 24846
L101889 24770
L101908 24731
L101946 24712
L101984 24712
L102023 24903
" />
<path d="M102137 24560
L102156 24522
L102156 24446
L102137 24408
L102099 24389
L102080 24389
L102042 24408
L102023 24446
L102023 24503
L102004 24541
L101965 24560
L101946 24560
L101908 24541
L101889 24503
L101889 24446
L101908 24408
" />
<path d="M102137 24065
L102156 24103
L102156 24179
L102137 24217
L102099 24236
L101946 24236
L101908 24217
L101889 24179
L101889 24103
L101908 24065
L101946 24046
L101984 24046
L102023 24236
" />
<path d="M101889 23931
L101889 23779
" />
<path d="M101756 23874
L102099 23874
L102137 23855
L102156 23817
L102156 23779
" />
<path d="M102194 23741
L102194 23436
" />
<path d="M102137 23170
L102156 23208
L102156 23284
L102137 23322
L102118 23341
L102080 23360
L101965 23360
L101927 23341
L101908 23322
L101889 23284
L101889 23208
L101908 23170
" />
<path d="M102156 22998
L101889 22998
" />
<path d="M101756 22998
L101775 23017
L101794 22998
L101775 22979
L101756 22998
L101794 22998
" />
<path d="M102156 22636
L101946 22636
L101908 22655
L101889 22693
L101889 22770
L101908 22808
" />
<path d="M102137 22636
L102156 22674
L102156 22770
L102137 22808
L102099 22827
L102061 22827
L102023 22808
L102004 22770
L102004 22674
L101984 22636
" />
<path d="M102156 22274
L101946 22274
L101908 22293
L101889 22331
L101889 22408
L101908 22446
" />
<path d="M102137 22274
L102156 22312
L102156 22408
L102137 22446
L102099 22465
L102061 22465
L102023 22446
L102004 22408
L102004 22312
L101984 22274
" />
<path d="M100327 17831
L100574 17831
L100441 17983
L100498 17983
L100536 18002
L100555 18021
L100574 18059
L100574 18155
L100555 18193
L100536 18212
L100498 18231
L100384 18231
L100346 18212
L100327 18193
" />
<path d="M100746 18193
L100765 18212
L100746 18231
L100727 18212
L100746 18193
L100746 18231
" />
<path d="M100993 18002
L100955 17983
L100936 17964
L100917 17926
L100917 17907
L100936 17869
L100955 17850
L100993 17831
L101069 17831
L101108 17850
L101127 17869
L101146 17907
L101146 17926
L101127 17964
L101108 17983
L101069 18002
L100993 18002
L100955 18021
L100936 18040
L100917 18078
L100917 18155
L100936 18193
L100955 18212
L100993 18231
L101069 18231
L101108 18212
L101127 18193
L101146 18155
L101146 18078
L101127 18040
L101108 18021
L101069 18002
" />
<path d="M101260 17831
L101393 18231
L101527 17831
" />
<path d="M101565 18269
L101869 18269
" />
<path d="M102041 17831
L102117 17831
L102155 17850
L102193 17888
L102212 17964
L102212 18097
L102193 18174
L102155 18212
L102117 18231
L102041 18231
L102003 18212
L101965 18174
L101946 18097
L101946 17964
L101965 17888
L102003 17850
L102041 17831
" />
<path d="M102384 17831
L102384 18155
L102403 18193
L102422 18212
L102460 18231
L102536 18231
L102574 18212
L102593 18193
L102612 18155
L102612 17831
" />
<path d="M102746 17831
L102974 17831
" />
<path d="M102860 18231
L102860 17831
" />
</g>
<g style="fill:#000000; fill-opacity:0.0; 
stroke:#000000; stroke-width:150; stroke-opacity:1; 
stroke-linecap:round; stroke-linejoin:round;">
<path d="M103988 11769
L104238 11769
" />
<path d="M104238 11769
L104238 15769
" />
<path d="M104238 15769
L103988 15769
" />
<path d="M102488 11769
L103988 11769
" />
<path d="M103988 11769
L103988 15769
" />
<path d="M103988 15769
L102488 15769
" />
<path d="M102488 15769
L102488 11769
" />
</g>
<g style="fill:#000000; fill-opacity:0.0; 
stroke:#000000; stroke-width:59.0551; stroke-opacity:1; 
stroke-linecap:round; stroke-linejoin:round;">
<path d="M90433 13671
L93661 13671
" />
<path d="M93661 13671
L93661 14852
" />
<path d="M93661 14852
L87204 14852
" />
<path d="M87204 14852
L87204 13671
" />
<path d="M87204 13671
L90433 13671
" />
</g>
<g style="fill:#000000; fill-opacity:0.0; 
stroke:#000000; stroke-width:120; stroke-opacity:1; 
stroke-linecap:round; stroke-linejoin:round;">
<path d="M98187 16604
L98587 16604
" />
<path d="M98587 16604
L98587 16204
" />
<path d="M98587 16204
L101787 16204
" />
<path d="M101787 16204
L101787 17004
" />
<path d="M101787 17004
L98587 17004
" />
<path d="M98587 17004
L98587 16604
" />
<path d="M98587 16404
L98787 16204
" />
<path d="M102187 16604
L101787 16604
" />
<path d="M96978 18984
L96978 19384
" />
<path d="M96978 19384
L97378 19384
" />
<path d="M97378 19384
L97378 22584
" />
<path d="M97378 22584
L96578 22584
" />
<path d="M96578 22584
L96578 19384
" />
<path d="M96578 19384
L96978 19384
" />
<path d="M97178 19384
L97378 19584
" />
<path d="M96978 22984
L96978 22584
" />
<path d="M97271 15137
L97671 15137
" />
<path d="M97671 15137
L97671 14737
" />
<path d="M97671 14737
L100871 14737
" />
<path d="M100871 14737
L100871 15537
" />
<path d="M100871 15537
L97671 15537
" />
<path d="M97671 15537
L97671 15137
" />
<path d="M97671 14937
L97871 14737
" />
<path d="M101271 15137
L100871 15137
" />
</g>
<g style="fill:#000000; fill-opacity:0.0; 
stroke:#000000; stroke-width:100; stroke-opacity:1; 
stroke-linecap:round; stroke-linejoin:round;">
<path d="M69122 18175
L69122 16175
" />
<path d="M67372 18175
L67372 16175
" />
<path d="M69872 16175
L69872 18175
" />
<path d="M69872 16175
L67372 16175
" />
<path d="M69872 18175
L67372 18175
" />
</g>
<g style="fill:#000000; fill-opacity:0.0; 
stroke:#000000; stroke-width:120; stroke-opacity:1; 
stroke-linecap:round; stroke-linejoin:round;">
<path d="M98659 30582
L97659 30582
" />
<path d="M98659 29582
L98659 37582
" />
<path d="M98659 37582
L97659 37582
" />
<path d="M97659 37582
L97659 29582
" />
<path d="M97659 29582
L98659 29582
" />
<path d="M94645 47385
L74645 47385
" />
<path d="M74645 45385
L94645 45385
" />
<path d="M74645 46385
L75645 46385
" />
<path d="M75645 46385
L75645 47385
" />
<path d="M74645 45385
L74645 47385
" />
<path d="M94645 47385
L94645 45385
" />
<path d="M94645 19385
L74645 19385
" />
<path d="M74645 17385
L94645 17385
" />
<path d="M74645 18385
L75645 18385
" />
<path d="M75645 18385
L75645 19385
" />
<path d="M74645 17385
L74645 19385
" />
<path d="M94645 19385
L94645 17385
" />
<path d="M100287 47677
L100287 27677
" />
<path d="M102287 27677
L102287 47677
" />
<path d="M101287 27677
L101287 28677
" />
<path d="M101287 28677
L100287 28677
" />
<path d="M102287 27677
L100287 27677
" />
<path d="M100287 47677
L102287 47677
" />
<path d="M72287 47677
L72287 27677
" />
<path d="M74287 27677
L74287 47677
" />
<path d="M73287 27677
L73287 28677
" />
<path d="M73287 28677
L72287 28677
" />
<path d="M74287 27677
L72287 27677
" />
<path d="M72287 47677
L74287 47677
" />
</g>
<g style="fill:#000000; fill-opacity:0.0; 
stroke:#000000; stroke-width:100; stroke-opacity:1; 
stroke-linecap:round; stroke-linejoin:round;">
<path d="M71507 13236
L71507 12986
" />
<path d="M71507 12986
L75007 12986
" />
<path d="M75007 12986
L75007 13236
" />
<path d="M71507 14736
L71507 13236
" />
<path d="M71507 13236
L75007 13236
" />
<path d="M75007 13236
L75007 14736
" />
<path d="M75007 14736
L71507 14736
" />
<path d="M96458 25690
L97458 25690
" />
</g>
<g style="fill:#000000; fill-opacity:0.0; 
stroke:#000000; stroke-width:60; stroke-opacity:1; 
stroke-linecap:round; stroke-linejoin:round;">
<path d="M97342.7 24609.5 A600 600 0.0 0 0 96958.7 24470.5 " />
<path d="M96958.7 24471.2 A599.256 599.256 0.0 0 0 96560.8 24622.4 " />
<path d="M96958.7 25669.7 A599.27 599.27 0.0 0 0 97348.7 25525.5 " />
<path d="M96574.6 25531.4 A600 600 0.0 0 0 96958.7 25670.5 " />
<path d="M97307.9 25558.3 A600 600 0.0 0 0 97558.7 25070.5 " />
<path d="M97558.7 25070.5 A600 600 0.0 0 0 97318.9 24590.7 " />
<path d="M96359.4 25070.5 A599.294 599.294 0.0 0 0 96590.5 25543.4 " />
<path d="M96590.1 24597 A600 600 0.0 0 0 96358.7 25070.5 " />
<path d="M97208.7 25070.5 A250 250 0.0 0 0 96958.7 24820.5 " />
<path d="M97358.7 25070.5 A400 400 0.0 0 0 96958.7 24670.5 " />
<path d="M96708.7 25070.5 A250 250 0.0 0 0 96958.7 25320.5 " />
<path d="M96558.7 25070.5 A400 400 0.0 0 0 96958.7 25470.5 " />
</g>
<g style="fill:#000000; fill-opacity:0.0; 
stroke:#000000; stroke-width:100; stroke-opacity:1; 
stroke-linecap:round; stroke-linejoin:round;">
<path d="M97471.8 25684.2 A800 800 0.0 0 0 97758.7 25070.5 " />
<path d="M97757.7 25070.5 A799 799 0.0 0 0 97335 24365.7 " />
<path d="M96159.7 25071.9 A798.972 798.972 0.0 0 0 96443 25680.7 " />
<path d="M96561.1 24376.3 A800 800 0.0 0 0 96158.7 25070.5 " />
<path d="M97337.9 24366.1 A800 800 0.0 0 0 96958.7 24270.5 " />
<path d="M96958.7 24270.9 A799.576 799.576 0.0 0 0 96539.7 24389.5 " />
</g>
<g style="fill:#000000; fill-opacity:0.0; 
stroke:#000000; stroke-width:120; stroke-opacity:1; 
stroke-linecap:round; stroke-linejoin:round;">
<path d="M97226 14178
L97226 12198
" />
<path d="M97226 12198
L98226 12198
" />
<path d="M98226 12198
L98226 14198
" />
<path d="M98226 14198
L97226 14198
" />
<path d="M97476 14198
L97226 13948
" />
<path d="M101114 13253
L101114 11273
" />
<path d="M101114 11273
L102114 11273
" />
<path d="M102114 11273
L102114 13273
" />
<path d="M102114 13273
L101114 13273
" />
<path d="M101364 13273
L101114 13023
" />
<path d="M77183 13498
L77183 15478
" />
<path d="M77183 15478
L76183 15478
" />
<path d="M76183 15478
L76183 13478
" />
<path d="M76183 13478
L77183 13478
" />
<path d="M76933 13478
L77183 13728
" />
<path d="M70460 13498
L70460 15478
" />
<path d="M70460 15478
L69460 15478
" />
<path d="M69460 15478
L69460 13478
" />
<path d="M69460 13478
L70460 13478
" />
<path d="M70210 13478
L70460 13728
" />
</g>
<g style="fill:#000000; fill-opacity:0.0; 
stroke:#000000; stroke-width:50; stroke-opacity:1; 
stroke-linecap:round; stroke-linejoin:round;">
<circle cx="99832.7" cy="13218.5" r="1001.25" /> 
<circle cx="78740.2" cy="14478.3" r="1001.25" /> 
</g>
<g style="fill:#000000; fill-opacity:0.0; 
stroke:#000000; stroke-width:150; stroke-opacity:1; 
stroke-linecap:round; stroke-linejoin:round;">
<circle cx="69655.5" cy="19566.9" r="900" /> 
<circle cx="78750" cy="20905.5" r="900" /> 
<circle cx="96299.2" cy="36072.8" r="900" /> 
<circle cx="97096.5" cy="46348.4" r="900" /> 
<circle cx="71023.6" cy="47116.1" r="900" /> 
<circle cx="103632" cy="46378" r="900" /> 
<circle cx="81446.9" cy="15137.8" r="900" /> 
<circle cx="94744.1" cy="20698.8" r="900" /> 
</g>
<g style="fill:#000000; fill-opacity:0.0; 
stroke:#000000; stroke-width:120; stroke-opacity:1; 
stroke-linecap:round; stroke-linejoin:round;">
<path d="M83143 13862
L85143 13862
" />
<path d="M85143 13862
L85143 15862
" />
<path d="M85143 15862
L83143 15862
" />
<path d="M83143 15862
L83143 13862
" />
</g>
<g style="fill:#000000; fill-opacity:0.0; 
stroke:#000000; stroke-width:150; stroke-opacity:1; 
stroke-linecap:round; stroke-linejoin:round;">
<circle cx="95442.9" cy="30974.4" r="900" /> 
<circle cx="95698.8" cy="12736.2" r="900" /> 
</g>
<g style="fill:#000000; fill-opacity:0.0; 
stroke:#000000; stroke-width:50; stroke-opacity:1; 
stroke-linecap:round; stroke-linejoin:round;">
<circle cx="101594" cy="23779.5" r="1000" /> 
<path d="M100094 25279
L100094 22279
" />
<path d="M100094 22279
L103094 22279
" />
<path d="M103094 22279
L103094 25279
" />
<path d="M100094 25279
L103094 25279
" />
</g>
<g style="fill:#000000; fill-opacity:0.0; 
stroke:#000000; stroke-width:120; stroke-opacity:1; 
stroke-linecap:round; stroke-linejoin:round;">
<path d="M100791 18419
L102791 18419
" />
<path d="M102791 18419
L102791 20419
" />
<path d="M102791 20419
L100791 20419
" />
<path d="M100791 20419
L100791 18419
" />
</g>
<g style="fill:#000000; fill-opacity:0.0; 
stroke:#000000; stroke-width:669.291; stroke-opacity:1; 
stroke-linecap:round; stroke-linejoin:round;">
<path d="M103080 12769
L103395 12769
" />
<path d="M103080 13769
L103395 13769
" />
<path d="M103080 14769
L103395 14769
" />
</g>
<g style="fill:#000000; fill-opacity:0.0; 
stroke:#000000; stroke-width:787.402; stroke-opacity:1; 
stroke-linecap:round; stroke-linejoin:round;">
<path d="M91210 14261
L91210 14261
" />
<path d="M89655 14261
L89655 14261
" />
<path d="M92765 14261
L92765 14261
" />
<path d="M88080 14261
L88080 14261
" />
<path d="M98187 16604
L98187 16604
" />
<path d="M102187 16604
L102187 16604
" />
<path d="M96978 18984
L96978 18984
" />
<path d="M96978 22984
L96978 22984
" />
<path d="M97271 15137
L97271 15137
" />
<path d="M101271 15137
L101271 15137
" />
<path d="M68622 16675
L68622 16675
" />
<path d="M68622 17675
L68622 17675
" />
<path d="M98159 30082
L98159 30082
" />
<path d="M98159 31082
L98159 31082
" />
<path d="M98159 32082
L98159 32082
" />
<path d="M98159 33082
L98159 33082
" />
<path d="M98159 34082
L98159 34082
" />
<path d="M98159 35082
L98159 35082
" />
<path d="M98159 36082
L98159 36082
" />
<path d="M98159 37082
L98159 37082
" />
<path d="M75145 46885
L75145 46885
" />
<path d="M75145 45885
L75145 45885
" />
<path d="M76145 46885
L76145 46885
" />
<path d="M76145 45885
L76145 45885
" />
<path d="M77145 46885
L77145 46885
" />
<path d="M77145 45885
L77145 45885
" />
<path d="M78145 46885
L78145 46885
" />
<path d="M78145 45885
L78145 45885
" />
<path d="M79145 46885
L79145 46885
" />
<path d="M79145 45885
L79145 45885
" />
<path d="M80145 46885
L80145 46885
" />
<path d="M80145 45885
L80145 45885
" />
<path d="M81145 46885
L81145 46885
" />
<path d="M81145 45885
L81145 45885
" />
<path d="M82145 46885
L82145 46885
" />
<path d="M82145 45885
L82145 45885
" />
<path d="M83145 46885
L83145 46885
" />
<path d="M83145 45885
L83145 45885
" />
<path d="M84145 46885
L84145 46885
" />
<path d="M84145 45885
L84145 45885
" />
<path d="M85145 46885
L85145 46885
" />
<path d="M85145 45885
L85145 45885
" />
<path d="M86145 46885
L86145 46885
" />
<path d="M86145 45885
L86145 45885
" />
<path d="M87145 46885
L87145 46885
" />
<path d="M87145 45885
L87145 45885
" />
<path d="M88145 46885
L88145 46885
" />
<path d="M88145 45885
L88145 45885
" />
<path d="M89145 46885
L89145 46885
" />
<path d="M89145 45885
L89145 45885
" />
<path d="M90145 46885
L90145 46885
" />
<path d="M90145 45885
L90145 45885
" />
<path d="M91145 46885
L91145 46885
" />
<path d="M91145 45885
L91145 45885
" />
<path d="M92145 46885
L92145 46885
" />
<path d="M92145 45885
L92145 45885
" />
<path d="M93145 46885
L93145 46885
" />
<path d="M93145 45885
L93145 45885
" />
<path d="M94145 46885
L94145 46885
" />
<path d="M94145 45885
L94145 45885
" />
<path d="M75145 18885
L75145 18885
" />
<path d="M75145 17885
L75145 17885
" />
<path d="M76145 18885
L76145 18885
" />
<path d="M76145 17885
L76145 17885
" />
<path d="M77145 18885
L77145 18885
" />
<path d="M77145 17885
L77145 17885
" />
<path d="M78145 18885
L78145 18885
" />
<path d="M78145 17885
L78145 17885
" />
<path d="M79145 18885
L79145 18885
" />
<path d="M79145 17885
L79145 17885
" />
<path d="M80145 18885
L80145 18885
" />
<path d="M80145 17885
L80145 17885
" />
<path d="M81145 18885
L81145 18885
" />
<path d="M81145 17885
L81145 17885
" />
<path d="M82145 18885
L82145 18885
" />
<path d="M82145 17885
L82145 17885
" />
<path d="M83145 18885
L83145 18885
" />
<path d="M83145 17885
L83145 17885
" />
<path d="M84145 18885
L84145 18885
" />
<path d="M84145 17885
L84145 17885
" />
<path d="M85145 18885
L85145 18885
" />
<path d="M85145 17885
L85145 17885
" />
<path d="M86145 18885
L86145 18885
" />
<path d="M86145 17885
L86145 17885
" />
<path d="M87145 18885
L87145 18885
" />
<path d="M87145 17885
L87145 17885
" />
<path d="M88145 18885
L88145 18885
" />
<path d="M88145 17885
L88145 17885
" />
<path d="M89145 18885
L89145 18885
" />
<path d="M89145 17885
L89145 17885
" />
<path d="M90145 18885
L90145 18885
" />
<path d="M90145 17885
L90145 17885
" />
<path d="M91145 18885
L91145 18885
" />
<path d="M91145 17885
L91145 17885
" />
<path d="M92145 18885
L92145 18885
" />
<path d="M92145 17885
L92145 17885
" />
<path d="M93145 18885
L93145 18885
" />
<path d="M93145 17885
L93145 17885
" />
<path d="M94145 18885
L94145 18885
" />
<path d="M94145 17885
L94145 17885
" />
<path d="M100787 28177
L100787 28177
" />
<path d="M101787 28177
L101787 28177
" />
<path d="M100787 29177
L100787 29177
" />
<path d="M101787 29177
L101787 29177
" />
<path d="M100787 30177
L100787 30177
" />
<path d="M101787 30177
L101787 30177
" />
<path d="M100787 31177
L100787 31177
" />
<path d="M101787 31177
L101787 31177
" />
<path d="M100787 32177
L100787 32177
" />
<path d="M101787 32177
L101787 32177
" />
<path d="M100787 33177
L100787 33177
" />
<path d="M101787 33177
L101787 33177
" />
<path d="M100787 34177
L100787 34177
" />
<path d="M101787 34177
L101787 34177
" />
<path d="M100787 35177
L100787 35177
" />
<path d="M101787 35177
L101787 35177
" />
<path d="M100787 36177
L100787 36177
" />
<path d="M101787 36177
L101787 36177
" />
<path d="M100787 37177
L100787 37177
" />
<path d="M101787 37177
L101787 37177
" />
<path d="M100787 38177
L100787 38177
" />
<path d="M101787 38177
L101787 38177
" />
<path d="M100787 39177
L100787 39177
" />
<path d="M101787 39177
L101787 39177
" />
<path d="M100787 40177
L100787 40177
" />
<path d="M101787 40177
L101787 40177
" />
<path d="M100787 41177
L100787 41177
" />
<path d="M101787 41177
L101787 41177
" />
<path d="M100787 42177
L100787 42177
" />
<path d="M101787 42177
L101787 42177
" />
<path d="M100787 43177
L100787 43177
" />
<path d="M101787 43177
L101787 43177
" />
<path d="M100787 44177
L100787 44177
" />
<path d="M101787 44177
L101787 44177
" />
<path d="M100787 45177
L100787 45177
" />
<path d="M101787 45177
L101787 45177
" />
<path d="M100787 46177
L100787 46177
" />
<path d="M101787 46177
L101787 46177
" />
<path d="M100787 47177
L100787 47177
" />
<path d="M101787 47177
L101787 47177
" />
<path d="M72787 28177
L72787 28177
" />
<path d="M73787 28177
L73787 28177
" />
<path d="M72787 29177
L72787 29177
" />
<path d="M73787 29177
L73787 29177
" />
<path d="M72787 30177
L72787 30177
" />
<path d="M73787 30177
L73787 30177
" />
<path d="M72787 31177
L72787 31177
" />
<path d="M73787 31177
L73787 31177
" />
<path d="M72787 32177
L72787 32177
" />
<path d="M73787 32177
L73787 32177
" />
<path d="M72787 33177
L72787 33177
" />
<path d="M73787 33177
L73787 33177
" />
<path d="M72787 34177
L72787 34177
" />
<path d="M73787 34177
L73787 34177
" />
<path d="M72787 35177
L72787 35177
" />
<path d="M73787 35177
L73787 35177
" />
<path d="M72787 36177
L72787 36177
" />
<path d="M73787 36177
L73787 36177
" />
<path d="M72787 37177
L72787 37177
" />
<path d="M73787 37177
L73787 37177
" />
<path d="M72787 38177
L72787 38177
" />
<path d="M73787 38177
L73787 38177
" />
<path d="M72787 39177
L72787 39177
" />
<path d="M73787 39177
L73787 39177
" />
<path d="M72787 40177
L72787 40177
" />
<path d="M73787 40177
L73787 40177
" />
<path d="M72787 41177
L72787 41177
" />
<path d="M73787 41177
L73787 41177
" />
<path d="M72787 42177
L72787 42177
" />
<path d="M73787 42177
L73787 42177
" />
<path d="M72787 43177
L72787 43177
" />
<path d="M73787 43177
L73787 43177
" />
<path d="M72787 44177
L72787 44177
" />
<path d="M73787 44177
L73787 44177
" />
<path d="M72787 45177
L72787 45177
" />
<path d="M73787 45177
L73787 45177
" />
<path d="M72787 46177
L72787 46177
" />
<path d="M73787 46177
L73787 46177
" />
<path d="M72787 47177
L72787 47177
" />
<path d="M73787 47177
L73787 47177
" />
</g>
<g style="fill:#000000; fill-opacity:0.0; 
stroke:#000000; stroke-width:669.291; stroke-opacity:1; 
stroke-linecap:round; stroke-linejoin:round;">
<path d="M72257 14143
L72257 13828
" />
<path d="M73257 14143
L73257 13828
" />
<path d="M74257 14143
L74257 13828
" />
</g>
<g style="fill:#000000; fill-opacity:0.0; 
stroke:#000000; stroke-width:787.402; stroke-opacity:1; 
stroke-linecap:round; stroke-linejoin:round;">
<path d="M96958 24470
L96958 24470
" />
<path d="M96958 25470
L96958 25470
" />
</g>
<g style="fill:#000000; fill-opacity:0.0; 
stroke:#000000; stroke-width:39.3701; stroke-opacity:1; 
stroke-linecap:round; stroke-linejoin:round;">
</g>
<g style="fill:#000000; fill-opacity:1.0; 
stroke:#000000; stroke-width:39.3701; stroke-opacity:1; 
stroke-linecap:round; stroke-linejoin:round;">
<circle cx="97726.4" cy="13698.8" r="374.016" /> 
<circle cx="97726.4" cy="12698.8" r="374.016" /> 
<circle cx="101614" cy="12773.6" r="374.016" /> 
<circle cx="101614" cy="11773.6" r="374.016" /> 
<circle cx="76683.1" cy="13978.3" r="374.016" /> 
<circle cx="76683.1" cy="14978.3" r="374.016" /> 
<circle cx="69960.6" cy="13978.3" r="374.016" /> 
<circle cx="69960.6" cy="14978.3" r="374.016" /> 
</g>
<g style="fill:#000000; fill-opacity:1.0; 
stroke:#000000; stroke-width:787.402; stroke-opacity:1; 
stroke-linecap:round; stroke-linejoin:round;">
<path d="M99832 13718
L99832 13718
" />
</g>
<g style="fill:#000000; fill-opacity:1.0; 
stroke:#000000; stroke-width:39.3701; stroke-opacity:1; 
stroke-linecap:round; stroke-linejoin:round;">
<circle cx="99832.7" cy="12718.5" r="374.016" /> 
</g>
<g style="fill:#000000; fill-opacity:1.0; 
stroke:#000000; stroke-width:787.402; stroke-opacity:1; 
stroke-linecap:round; stroke-linejoin:round;">
<path d="M78740 13978
L78740 13978
" />
</g>
<g style="fill:#000000; fill-opacity:1.0; 
stroke:#000000; stroke-width:39.3701; stroke-opacity:1; 
stroke-linecap:round; stroke-linejoin:round;">
<circle cx="78740.2" cy="14978.3" r="374.016" /> 
<circle cx="69655.5" cy="19566.9" r="570.866" /> 
<circle cx="78750" cy="20905.5" r="570.866" /> 
<circle cx="96299.2" cy="36072.8" r="570.866" /> 
<circle cx="97096.5" cy="46348.4" r="570.866" /> 
<circle cx="71023.6" cy="47116.1" r="570.866" /> 
<circle cx="103632" cy="46378" r="570.866" /> 
<circle cx="81446.9" cy="15137.8" r="570.866" /> 
<circle cx="94744.1" cy="20698.8" r="570.866" /> 
</g>
<g style="fill:#000000; fill-opacity:1.0; 
stroke:#000000; stroke-width:787.402; stroke-opacity:1; 
stroke-linecap:round; stroke-linejoin:round;">
<path d="M83643 15362
L83643 15362
" />
<path d="M83643 14362
L83643 14362
" />
<path d="M84643 15362
L84643 15362
" />
<path d="M84643 14362
L84643 14362
" />
</g>
<g style="fill:#000000; fill-opacity:1.0; 
stroke:#000000; stroke-width:39.3701; stroke-opacity:1; 
stroke-linecap:round; stroke-linejoin:round;">
<circle cx="95442.9" cy="30974.4" r="570.866" /> 
<circle cx="95698.8" cy="12736.2" r="570.866" /> 
<circle cx="100594" cy="22279.5" r="570.866" /> 
<circle cx="102594" cy="22279.5" r="570.866" /> 
<circle cx="100594" cy="25279.5" r="570.866" /> 
<circle cx="102594" cy="25279.5" r="570.866" /> 
</g>
<g style="fill:#000000; fill-opacity:1.0; 
stroke:#000000; stroke-width:787.402; stroke-opacity:1; 
stroke-linecap:round; stroke-linejoin:round;">
<path d="M101291 19919
L101291 19919
" />
<path d="M101291 18919
L101291 18919
" />
<path d="M102291 19919
L102291 19919
" />
<path d="M102291 18919
L102291 18919
" />
</g> 
</svg>
