<?xml version="1.0" standalone="no"?>
 <!DOCTYPE svg PUBLIC "-//W3C//DTD SVG 1.1//EN" 
 "http://www.w3.org/Graphics/SVG/1.1/DTD/svg11.dtd"> 
<svg xmlns="http://www.w3.org/2000/svg" version="1.1" 
    width="29.7002cm" height="21.0007cm" viewBox="0 0 116930 82680 ">
<title>SVG Picture created as poncho_rescatAR-F_Cu.svg date 2015/12/04 23:42:53 </title>
  <desc>Picture generated by PCBNEW </desc>
<g style="fill:#000000; fill-opacity:1;stroke:#000000; stroke-opacity:1;
stroke-linecap:round; stroke-linejoin:round; "
 transform="translate(0 0) scale(1 1)">
</g>
<g style="fill:#000000; fill-opacity:0.0; 
stroke:#000000; stroke-width:98.4252; stroke-opacity:1; 
stroke-linecap:round; stroke-linejoin:round;">
<path d="M76840 50008
L76840 50533
" />
<path d="M76840 50383
L76877 50458
L76915 50496
L76990 50533
L77065 50533
" />
<path d="M77627 50046
L77552 50008
L77402 50008
L77327 50046
L77290 50121
L77290 50421
L77327 50496
L77402 50533
L77552 50533
L77627 50496
L77664 50421
L77664 50346
L77290 50271
" />
<path d="M77964 50046
L78039 50008
L78189 50008
L78264 50046
L78302 50121
L78302 50158
L78264 50233
L78189 50271
L78077 50271
L78002 50308
L77964 50383
L77964 50421
L78002 50496
L78077 50533
L78189 50533
L78264 50496
" />
<path d="M78977 50046
L78902 50008
L78752 50008
L78677 50046
L78639 50083
L78602 50158
L78602 50383
L78639 50458
L78677 50496
L78752 50533
L78902 50533
L78977 50496
" />
<path d="M79652 50008
L79652 50421
L79614 50496
L79539 50533
L79389 50533
L79314 50496
" />
<path d="M79652 50046
L79577 50008
L79389 50008
L79314 50046
L79277 50121
L79277 50196
L79314 50271
L79389 50308
L79577 50308
L79652 50346
" />
<path d="M79914 50533
L80214 50533
" />
<path d="M80027 50796
L80027 50121
L80064 50046
L80139 50008
L80214 50008
" />
<path d="M80439 50233
L80814 50233
" />
<path d="M80364 50008
L80627 50796
L80889 50008
" />
<path d="M81601 50008
L81339 50383
" />
<path d="M81152 50008
L81152 50796
L81452 50796
L81526 50758
L81564 50721
L81601 50646
L81601 50533
L81564 50458
L81526 50421
L81452 50383
L81152 50383
" />
<path d="M82539 50308
L83139 50308
" />
<path d="M84001 50796
L84451 50796
" />
<path d="M84226 50008
L84226 50796
" />
<path d="M84714 50083
L84751 50046
L84714 50008
L84676 50046
L84714 50083
L84714 50008
" />
<path d="M86026 50008
L86026 50796
" />
<path d="M86026 50046
L85951 50008
L85801 50008
L85726 50046
L85688 50083
L85651 50158
L85651 50383
L85688 50458
L85726 50496
L85801 50533
L85951 50533
L86026 50496
" />
<path d="M86701 50046
L86626 50008
L86476 50008
L86401 50046
L86363 50121
L86363 50421
L86401 50496
L86476 50533
L86626 50533
L86701 50496
L86738 50421
L86738 50346
L86363 50271
" />
<path d="M87676 50008
L87676 50796
L87976 50796
L88051 50758
L88088 50721
L88126 50646
L88126 50533
L88088 50458
L88051 50421
L87976 50383
L87676 50383
" />
<path d="M88463 50008
L88463 50533
" />
<path d="M88463 50383
L88501 50458
L88538 50496
L88613 50533
L88688 50533
" />
<path d="M89063 50008
L88988 50046
L88951 50083
L88913 50158
L88913 50383
L88951 50458
L88988 50496
L89063 50533
L89176 50533
L89251 50496
L89288 50458
L89326 50383
L89326 50158
L89288 50083
L89251 50046
L89176 50008
L89063 50008
" />
<path d="M89588 50533
L89775 50008
" />
<path d="M89963 50533
L89775 50008
L89700 49821
L89663 49783
L89588 49746
" />
<path d="M90563 50046
L90488 50008
L90338 50008
L90263 50046
L90225 50121
L90225 50421
L90263 50496
L90338 50533
L90488 50533
L90563 50496
L90600 50421
L90600 50346
L90225 50271
" />
<path d="M91275 50046
L91200 50008
L91050 50008
L90975 50046
L90938 50083
L90900 50158
L90900 50383
L90938 50458
L90975 50496
L91050 50533
L91200 50533
L91275 50496
" />
<path d="M91500 50533
L91800 50533
" />
<path d="M91613 50796
L91613 50121
L91650 50046
L91725 50008
L91800 50008
" />
<path d="M92175 50008
L92100 50046
L92063 50083
L92025 50158
L92025 50383
L92063 50458
L92100 50496
L92175 50533
L92288 50533
L92363 50496
L92400 50458
L92438 50383
L92438 50158
L92400 50083
L92363 50046
L92288 50008
L92175 50008
" />
<path d="M93787 50008
L93338 50008
" />
<path d="M93562 50008
L93562 50796
L93488 50683
L93413 50608
L93338 50571
" />
<path d="M83645 49520
L83682 49558
L83757 49595
L83945 49595
L84020 49558
L84057 49520
L84095 49445
L84095 49370
L84057 49258
L83607 48808
L84095 48808
" />
<path d="M84582 49595
L84657 49595
L84732 49558
L84770 49520
L84807 49445
L84845 49295
L84845 49108
L84807 48958
L84770 48883
L84732 48845
L84657 48808
L84582 48808
L84507 48845
L84470 48883
L84432 48958
L84395 49108
L84395 49295
L84432 49445
L84470 49520
L84507 49558
L84582 49595
" />
<path d="M85595 48808
L85145 48808
" />
<path d="M85370 48808
L85370 49595
L85295 49483
L85220 49408
L85145 49370
" />
<path d="M86307 49595
L85932 49595
L85895 49220
L85932 49258
L86007 49295
L86195 49295
L86270 49258
L86307 49220
L86345 49145
L86345 48958
L86307 48883
L86270 48845
L86195 48808
L86007 48808
L85932 48845
L85895 48883
" />
<path d="M81095 48394
L81358 47607
L81620 48394
" />
<path d="M81883 47607
L81883 48132
" />
<path d="M81883 48394
L81845 48357
L81883 48319
L81920 48357
L81883 48394
L81883 48319
" />
<path d="M82595 47607
L82595 48019
L82558 48094
L82483 48132
L82333 48132
L82258 48094
" />
<path d="M82595 47644
L82520 47607
L82333 47607
L82258 47644
L82220 47719
L82220 47794
L82258 47869
L82333 47907
L82520 47907
L82595 47944
" />
<path d="M82858 48132
L83158 48132
" />
<path d="M82970 48394
L82970 47719
L83008 47644
L83083 47607
L83158 47607
" />
<path d="M83757 48132
L83757 47494
L83720 47419
L83682 47382
L83607 47344
L83495 47344
L83420 47382
" />
<path d="M83757 47644
L83682 47607
L83532 47607
L83458 47644
L83420 47682
L83383 47757
L83383 47982
L83420 48057
L83458 48094
L83532 48132
L83682 48132
L83757 48094
" />
<path d="M84432 47644
L84357 47607
L84207 47607
L84132 47644
L84095 47719
L84095 48019
L84132 48094
L84207 48132
L84357 48132
L84432 48094
L84470 48019
L84470 47944
L84095 47869
" />
<path d="M85670 48019
L85782 47982
L85820 47944
L85857 47869
L85857 47757
L85820 47682
L85782 47644
L85707 47607
L85407 47607
L85407 48394
L85670 48394
L85745 48357
L85782 48319
L85820 48244
L85820 48169
L85782 48094
L85745 48057
L85670 48019
L85407 48019
" />
<path d="M86532 47607
L86532 48019
L86495 48094
L86420 48132
L86270 48132
L86195 48094
" />
<path d="M86532 47644
L86457 47607
L86270 47607
L86195 47644
L86157 47719
L86157 47794
L86195 47869
L86270 47907
L86457 47907
L86532 47944
" />
<path d="M86870 47644
L86945 47607
L87095 47607
L87170 47644
L87207 47719
L87207 47757
L87170 47832
L87095 47869
L86982 47869
L86907 47907
L86870 47982
L86870 48019
L86907 48094
L86982 48132
L87095 48132
L87170 48094
" />
<path d="M87432 48132
L87732 48132
" />
<path d="M87544 48394
L87544 47719
L87582 47644
L87657 47607
L87732 47607
" />
<path d="M87994 47607
L87994 48132
" />
<path d="M87994 48394
L87957 48357
L87994 48319
L88032 48357
L87994 48394
L87994 48319
" />
<path d="M88669 47644
L88594 47607
L88444 47607
L88369 47644
L88332 47719
L88332 48019
L88369 48094
L88444 48132
L88594 48132
L88669 48094
L88707 48019
L88707 47944
L88332 47869
" />
<path d="M89044 48132
L89044 47607
" />
<path d="M89044 48057
L89082 48094
L89157 48132
L89269 48132
L89344 48094
L89382 48019
L89382 47607
" />
<path d="M78602 46406
L78602 47193
L78864 46631
L79127 47193
L79127 46406
" />
<path d="M79502 46406
L79502 46931
" />
<path d="M79502 47193
L79464 47156
L79502 47118
L79539 47156
L79502 47193
L79502 47118
" />
<path d="M79877 46931
L79877 46406
" />
<path d="M79877 46856
L79914 46894
L79989 46931
L80102 46931
L80177 46894
L80214 46819
L80214 46406
" />
<path d="M80589 46406
L80589 46931
" />
<path d="M80589 47193
L80552 47156
L80589 47118
L80627 47156
L80589 47193
L80589 47118
" />
<path d="M81302 46931
L81302 46294
L81264 46219
L81227 46181
L81152 46144
L81039 46144
L80964 46181
" />
<path d="M81302 46444
L81227 46406
L81077 46406
L81002 46444
L80964 46481
L80927 46556
L80927 46781
L80964 46856
L81002 46894
L81077 46931
L81227 46931
L81302 46894
" />
<path d="M82164 47193
L82614 47193
" />
<path d="M82389 46406
L82389 47193
" />
<path d="M82876 46406
L82876 46931
" />
<path d="M82876 46781
L82914 46856
L82951 46894
L83026 46931
L83101 46931
" />
<path d="M83701 46406
L83701 46819
L83664 46894
L83589 46931
L83439 46931
L83364 46894
" />
<path d="M83701 46444
L83626 46406
L83439 46406
L83364 46444
L83326 46519
L83326 46594
L83364 46669
L83439 46706
L83626 46706
L83701 46744
" />
<path d="M84001 46931
L84189 46406
L84376 46931
" />
<path d="M84976 46444
L84901 46406
L84751 46406
L84676 46444
L84639 46519
L84639 46819
L84676 46894
L84751 46931
L84901 46931
L84976 46894
L85014 46819
L85014 46744
L84639 46669
" />
<path d="M85351 46406
L85351 46931
" />
<path d="M85351 46781
L85389 46856
L85426 46894
L85501 46931
L85576 46931
" />
<path d="M85801 46444
L85876 46406
L86026 46406
L86101 46444
L86138 46519
L86138 46556
L86101 46631
L86026 46669
L85913 46669
L85838 46706
L85801 46781
L85801 46819
L85838 46894
L85913 46931
L86026 46931
L86101 46894
" />
<path d="M86588 46406
L86513 46444
L86476 46481
L86438 46556
L86438 46781
L86476 46856
L86513 46894
L86588 46931
L86701 46931
L86776 46894
L86813 46856
L86851 46781
L86851 46556
L86813 46481
L86776 46444
L86701 46406
L86588 46406
" />
<path d="M87788 46406
L87788 47193
L88051 46631
L88313 47193
L88313 46406
" />
<path d="M89026 46406
L89026 46819
L88988 46894
L88913 46931
L88763 46931
L88688 46894
" />
<path d="M89026 46444
L88951 46406
L88763 46406
L88688 46444
L88651 46519
L88651 46594
L88688 46669
L88763 46706
L88951 46706
L89026 46744
" />
<path d="M89401 46406
L89401 46931
" />
<path d="M89401 46781
L89438 46856
L89476 46894
L89550 46931
L89625 46931
" />
<path d="M90225 46444
L90150 46406
L90000 46406
L89925 46444
L89888 46481
L89850 46556
L89850 46781
L89888 46856
L89925 46894
L90000 46931
L90150 46931
L90225 46894
" />
<path d="M90863 46444
L90788 46406
L90638 46406
L90563 46444
L90525 46519
L90525 46819
L90563 46894
L90638 46931
L90788 46931
L90863 46894
L90900 46819
L90900 46744
L90525 46669
" />
<path d="M91350 46406
L91275 46444
L91238 46519
L91238 47193
" />
<path d="M91763 46406
L91688 46444
L91650 46481
L91613 46556
L91613 46781
L91650 46856
L91688 46894
L91763 46931
L91875 46931
L91950 46894
L91988 46856
L92025 46781
L92025 46556
L91988 46481
L91950 46444
L91875 46406
L91763 46406
" />
<path d="M80589 45618
L80702 45580
L80739 45543
L80777 45468
L80777 45355
L80739 45280
L80702 45243
L80627 45205
L80327 45205
L80327 45993
L80589 45993
L80664 45955
L80702 45918
L80739 45843
L80739 45768
L80702 45693
L80664 45655
L80589 45618
L80327 45618
" />
<path d="M81452 45205
L81452 45618
L81414 45693
L81339 45730
L81189 45730
L81114 45693
" />
<path d="M81452 45243
L81377 45205
L81189 45205
L81114 45243
L81077 45318
L81077 45393
L81114 45468
L81189 45505
L81377 45505
L81452 45543
" />
<path d="M81826 45205
L81826 45730
" />
<path d="M81826 45580
L81864 45655
L81901 45693
L81976 45730
L82051 45730
" />
<path d="M82314 45205
L82314 45993
" />
<path d="M82314 45693
L82389 45730
L82539 45730
L82614 45693
L82651 45655
L82689 45580
L82689 45355
L82651 45280
L82614 45243
L82539 45205
L82389 45205
L82314 45243
" />
<path d="M83364 45730
L83364 45205
" />
<path d="M83026 45730
L83026 45318
L83064 45243
L83139 45205
L83251 45205
L83326 45243
L83364 45280
" />
<path d="M83701 45243
L83776 45205
L83926 45205
L84001 45243
L84039 45318
L84039 45355
L84001 45430
L83926 45468
L83814 45468
L83739 45505
L83701 45580
L83701 45618
L83739 45693
L83814 45730
L83926 45730
L84001 45693
" />
<path d="M84339 45243
L84414 45205
L84564 45205
L84639 45243
L84676 45318
L84676 45355
L84639 45430
L84564 45468
L84451 45468
L84376 45505
L84339 45580
L84339 45618
L84376 45693
L84451 45730
L84564 45730
L84639 45693
" />
<path d="M85314 45243
L85239 45205
L85089 45205
L85014 45243
L84976 45318
L84976 45618
L85014 45693
L85089 45730
L85239 45730
L85314 45693
L85351 45618
L85351 45543
L84976 45468
" />
<path d="M86288 45205
L86288 45993
L86738 45205
L86738 45993
" />
<path d="M87113 45205
L87113 45730
" />
<path d="M87113 45993
L87076 45955
L87113 45918
L87151 45955
L87113 45993
L87113 45918
" />
<path d="M87826 45243
L87751 45205
L87601 45205
L87526 45243
L87488 45280
L87451 45355
L87451 45580
L87488 45655
L87526 45693
L87601 45730
L87751 45730
L87826 45693
" />
<path d="M88276 45205
L88201 45243
L88163 45280
L88126 45355
L88126 45580
L88163 45655
L88201 45693
L88276 45730
L88388 45730
L88463 45693
L88501 45655
L88538 45580
L88538 45355
L88501 45280
L88463 45243
L88388 45205
L88276 45205
" />
<path d="M88988 45205
L88913 45243
L88876 45318
L88876 45993
" />
<path d="M89625 45205
L89625 45618
L89588 45693
L89513 45730
L89363 45730
L89288 45693
" />
<path d="M89625 45243
L89550 45205
L89363 45205
L89288 45243
L89251 45318
L89251 45393
L89288 45468
L89363 45505
L89550 45505
L89625 45543
" />
<path d="M89963 45243
L90038 45205
L90188 45205
L90263 45243
L90300 45318
L90300 45355
L90263 45430
L90188 45468
L90075 45468
L90000 45505
L89963 45580
L89963 45618
L90000 45693
L90075 45730
L90188 45730
L90263 45693
" />
<path d="M80233 44792
L80495 44004
L80758 44792
" />
<path d="M81358 44004
L81358 44417
L81320 44492
L81245 44529
L81095 44529
L81020 44492
" />
<path d="M81358 44042
L81283 44004
L81095 44004
L81020 44042
L80983 44117
L80983 44192
L81020 44267
L81095 44304
L81283 44304
L81358 44342
" />
<path d="M81245 44829
L81133 44717
" />
<path d="M81658 44529
L82070 44529
L81658 44004
L82070 44004
" />
<path d="M82708 44529
L82708 43742
" />
<path d="M82708 44042
L82633 44004
L82483 44004
L82408 44042
L82370 44079
L82333 44154
L82333 44379
L82370 44454
L82408 44492
L82483 44529
L82633 44529
L82708 44492
" />
<path d="M83420 44529
L83420 44004
" />
<path d="M83083 44529
L83083 44117
L83120 44042
L83195 44004
L83308 44004
L83383 44042
L83420 44079
" />
<path d="M84095 44042
L84020 44004
L83870 44004
L83795 44042
L83757 44117
L83757 44417
L83795 44492
L83870 44529
L84020 44529
L84095 44492
L84132 44417
L84132 44342
L83757 44267
" />
<path d="M84395 44529
L84807 44529
L84395 44004
L84807 44004
" />
<path d="M85970 44417
L85707 44417
" />
<path d="M85707 44004
L85707 44792
L86082 44792
" />
<path d="M86720 44004
L86720 44417
L86682 44492
L86607 44529
L86457 44529
L86382 44492
" />
<path d="M86720 44042
L86645 44004
L86457 44004
L86382 44042
L86345 44117
L86345 44192
L86382 44267
L86457 44304
L86645 44304
L86720 44342
" />
<path d="M87432 44042
L87357 44004
L87207 44004
L87132 44042
L87095 44079
L87057 44154
L87057 44379
L87095 44454
L87132 44492
L87207 44529
L87357 44529
L87432 44492
" />
<path d="M88107 44529
L88107 44004
" />
<path d="M87769 44529
L87769 44117
L87807 44042
L87882 44004
L87994 44004
L88069 44042
L88107 44079
" />
<path d="M88482 44529
L88482 44004
" />
<path d="M88482 44454
L88519 44492
L88594 44529
L88707 44529
L88782 44492
L88819 44417
L88819 44004
" />
<path d="M89532 44004
L89532 44792
" />
<path d="M89532 44042
L89457 44004
L89307 44004
L89232 44042
L89194 44079
L89157 44154
L89157 44379
L89194 44454
L89232 44492
L89307 44529
L89457 44529
L89532 44492
" />
<path d="M90019 44004
L89944 44042
L89907 44079
L89869 44154
L89869 44379
L89907 44454
L89944 44492
L90019 44529
L90132 44529
L90207 44492
L90244 44454
L90282 44379
L90282 44154
L90244 44079
L90207 44042
L90132 44004
L90019 44004
" />
<path d="M81658 43554
L81583 43591
L81470 43591
L81358 43554
L81283 43479
L81245 43404
L81208 43254
L81208 43141
L81245 42991
L81283 42916
L81358 42841
L81470 42804
L81545 42804
L81658 42841
L81695 42879
L81695 43141
L81545 43141
" />
<path d="M82370 42804
L82370 43216
L82333 43291
L82258 43329
L82108 43329
L82033 43291
" />
<path d="M82370 42841
L82295 42804
L82108 42804
L82033 42841
L81995 42916
L81995 42991
L82033 43066
L82108 43104
L82295 43104
L82370 43141
" />
<path d="M82745 42804
L82745 43329
" />
<path d="M82745 43179
L82783 43254
L82820 43291
L82895 43329
L82970 43329
" />
<path d="M83570 42841
L83495 42804
L83345 42804
L83270 42841
L83233 42879
L83195 42954
L83195 43179
L83233 43254
L83270 43291
L83345 43329
L83495 43329
L83570 43291
" />
<path d="M83907 42804
L83907 43329
" />
<path d="M83907 43591
L83870 43554
L83907 43516
L83945 43554
L83907 43591
L83907 43516
" />
<path d="M84620 42804
L84620 43216
L84582 43291
L84507 43329
L84357 43329
L84282 43291
" />
<path d="M84620 42841
L84545 42804
L84357 42804
L84282 42841
L84245 42916
L84245 42991
L84282 43066
L84357 43104
L84545 43104
L84620 43141
" />
<path d="M85595 42804
L85595 43591
L85857 43029
L86120 43591
L86120 42804
" />
<path d="M86832 42804
L86832 43216
L86795 43291
L86720 43329
L86570 43329
L86495 43291
" />
<path d="M86832 42841
L86757 42804
L86570 42804
L86495 42841
L86457 42916
L86457 42991
L86495 43066
L86570 43104
L86757 43104
L86832 43141
" />
<path d="M87207 43329
L87207 42804
" />
<path d="M87207 43254
L87245 43291
L87320 43329
L87432 43329
L87507 43291
L87544 43216
L87544 42804
" />
<path d="M88257 43329
L88257 42804
" />
<path d="M87919 43329
L87919 42916
L87957 42841
L88032 42804
L88144 42804
L88219 42841
L88257 42879
" />
<path d="M88932 42841
L88857 42804
L88707 42804
L88632 42841
L88594 42916
L88594 43216
L88632 43291
L88707 43329
L88857 43329
L88932 43291
L88969 43216
L88969 43141
L88594 43066
" />
<path d="M89419 42804
L89344 42841
L89307 42916
L89307 43591
" />
</g>
<g style="fill:#000000; fill-opacity:0.0; 
stroke:#000000; stroke-width:669.291; stroke-opacity:1; 
stroke-linecap:round; stroke-linejoin:round;">
<path d="M103080 69910
L103395 69910
" />
<path d="M103080 68910
L103395 68910
" />
<path d="M103080 67910
L103395 67910
" />
</g>
<g style="fill:#000000; fill-opacity:0.0; 
stroke:#000000; stroke-width:787.402; stroke-opacity:1; 
stroke-linecap:round; stroke-linejoin:round;">
<path d="M91210 68418
L91210 68418
" />
<path d="M89655 68418
L89655 68418
" />
<path d="M92765 68418
L92765 68418
" />
<path d="M88080 68418
L88080 68418
" />
<path d="M103259 72197
L103259 72197
" />
<path d="M99259 72197
L99259 72197
" />
<path d="M96978 63695
L96978 63695
" />
<path d="M96978 59695
L96978 59695
" />
<path d="M100738 67156
L100738 67156
" />
<path d="M100738 71156
L100738 71156
" />
<path d="M68622 66004
L68622 66004
" />
<path d="M68622 65004
L68622 65004
" />
<path d="M98159 52597
L98159 52597
" />
<path d="M98159 51597
L98159 51597
" />
<path d="M98159 50597
L98159 50597
" />
<path d="M98159 49597
L98159 49597
" />
<path d="M98159 48597
L98159 48597
" />
<path d="M98159 47597
L98159 47597
" />
<path d="M98159 46597
L98159 46597
" />
<path d="M98159 45597
L98159 45597
" />
<path d="M75145 35794
L75145 35794
" />
<path d="M75145 36794
L75145 36794
" />
<path d="M76145 35794
L76145 35794
" />
<path d="M76145 36794
L76145 36794
" />
<path d="M77145 35794
L77145 35794
" />
<path d="M77145 36794
L77145 36794
" />
<path d="M78145 35794
L78145 35794
" />
<path d="M78145 36794
L78145 36794
" />
<path d="M79145 35794
L79145 35794
" />
<path d="M79145 36794
L79145 36794
" />
<path d="M80145 35794
L80145 35794
" />
<path d="M80145 36794
L80145 36794
" />
<path d="M81145 35794
L81145 35794
" />
<path d="M81145 36794
L81145 36794
" />
<path d="M82145 35794
L82145 35794
" />
<path d="M82145 36794
L82145 36794
" />
<path d="M83145 35794
L83145 35794
" />
<path d="M83145 36794
L83145 36794
" />
<path d="M84145 35794
L84145 35794
" />
<path d="M84145 36794
L84145 36794
" />
<path d="M85145 35794
L85145 35794
" />
<path d="M85145 36794
L85145 36794
" />
<path d="M86145 35794
L86145 35794
" />
<path d="M86145 36794
L86145 36794
" />
<path d="M87145 35794
L87145 35794
" />
<path d="M87145 36794
L87145 36794
" />
<path d="M88145 35794
L88145 35794
" />
<path d="M88145 36794
L88145 36794
" />
<path d="M89145 35794
L89145 35794
" />
<path d="M89145 36794
L89145 36794
" />
<path d="M90145 35794
L90145 35794
" />
<path d="M90145 36794
L90145 36794
" />
<path d="M91145 35794
L91145 35794
" />
<path d="M91145 36794
L91145 36794
" />
<path d="M92145 35794
L92145 35794
" />
<path d="M92145 36794
L92145 36794
" />
<path d="M93145 35794
L93145 35794
" />
<path d="M93145 36794
L93145 36794
" />
<path d="M94145 35794
L94145 35794
" />
<path d="M94145 36794
L94145 36794
" />
<path d="M75145 63794
L75145 63794
" />
<path d="M75145 64794
L75145 64794
" />
<path d="M76145 63794
L76145 63794
" />
<path d="M76145 64794
L76145 64794
" />
<path d="M77145 63794
L77145 63794
" />
<path d="M77145 64794
L77145 64794
" />
<path d="M78145 63794
L78145 63794
" />
<path d="M78145 64794
L78145 64794
" />
<path d="M79145 63794
L79145 63794
" />
<path d="M79145 64794
L79145 64794
" />
<path d="M80145 63794
L80145 63794
" />
<path d="M80145 64794
L80145 64794
" />
<path d="M81145 63794
L81145 63794
" />
<path d="M81145 64794
L81145 64794
" />
<path d="M82145 63794
L82145 63794
" />
<path d="M82145 64794
L82145 64794
" />
<path d="M83145 63794
L83145 63794
" />
<path d="M83145 64794
L83145 64794
" />
<path d="M84145 63794
L84145 63794
" />
<path d="M84145 64794
L84145 64794
" />
<path d="M85145 63794
L85145 63794
" />
<path d="M85145 64794
L85145 64794
" />
<path d="M86145 63794
L86145 63794
" />
<path d="M86145 64794
L86145 64794
" />
<path d="M87145 63794
L87145 63794
" />
<path d="M87145 64794
L87145 64794
" />
<path d="M88145 63794
L88145 63794
" />
<path d="M88145 64794
L88145 64794
" />
<path d="M89145 63794
L89145 63794
" />
<path d="M89145 64794
L89145 64794
" />
<path d="M90145 63794
L90145 63794
" />
<path d="M90145 64794
L90145 64794
" />
<path d="M91145 63794
L91145 63794
" />
<path d="M91145 64794
L91145 64794
" />
<path d="M92145 63794
L92145 63794
" />
<path d="M92145 64794
L92145 64794
" />
<path d="M93145 63794
L93145 63794
" />
<path d="M93145 64794
L93145 64794
" />
<path d="M94145 63794
L94145 63794
" />
<path d="M94145 64794
L94145 64794
" />
<path d="M100787 54502
L100787 54502
" />
<path d="M101787 54502
L101787 54502
" />
<path d="M100787 53502
L100787 53502
" />
<path d="M101787 53502
L101787 53502
" />
<path d="M100787 52502
L100787 52502
" />
<path d="M101787 52502
L101787 52502
" />
<path d="M100787 51502
L100787 51502
" />
<path d="M101787 51502
L101787 51502
" />
<path d="M100787 50502
L100787 50502
" />
<path d="M101787 50502
L101787 50502
" />
<path d="M100787 49502
L100787 49502
" />
<path d="M101787 49502
L101787 49502
" />
<path d="M100787 48502
L100787 48502
" />
<path d="M101787 48502
L101787 48502
" />
<path d="M100787 47502
L100787 47502
" />
<path d="M101787 47502
L101787 47502
" />
<path d="M100787 46502
L100787 46502
" />
<path d="M101787 46502
L101787 46502
" />
<path d="M100787 45502
L100787 45502
" />
<path d="M101787 45502
L101787 45502
" />
<path d="M100787 44502
L100787 44502
" />
<path d="M101787 44502
L101787 44502
" />
<path d="M100787 43502
L100787 43502
" />
<path d="M101787 43502
L101787 43502
" />
<path d="M100787 42502
L100787 42502
" />
<path d="M101787 42502
L101787 42502
" />
<path d="M100787 41502
L100787 41502
" />
<path d="M101787 41502
L101787 41502
" />
<path d="M100787 40502
L100787 40502
" />
<path d="M101787 40502
L101787 40502
" />
<path d="M100787 39502
L100787 39502
" />
<path d="M101787 39502
L101787 39502
" />
<path d="M100787 38502
L100787 38502
" />
<path d="M101787 38502
L101787 38502
" />
<path d="M100787 37502
L100787 37502
" />
<path d="M101787 37502
L101787 37502
" />
<path d="M100787 36502
L100787 36502
" />
<path d="M101787 36502
L101787 36502
" />
<path d="M100787 35502
L100787 35502
" />
<path d="M101787 35502
L101787 35502
" />
<path d="M72787 54502
L72787 54502
" />
<path d="M73787 54502
L73787 54502
" />
<path d="M72787 53502
L72787 53502
" />
<path d="M73787 53502
L73787 53502
" />
<path d="M72787 52502
L72787 52502
" />
<path d="M73787 52502
L73787 52502
" />
<path d="M72787 51502
L72787 51502
" />
<path d="M73787 51502
L73787 51502
" />
<path d="M72787 50502
L72787 50502
" />
<path d="M73787 50502
L73787 50502
" />
<path d="M72787 49502
L72787 49502
" />
<path d="M73787 49502
L73787 49502
" />
<path d="M72787 48502
L72787 48502
" />
<path d="M73787 48502
L73787 48502
" />
<path d="M72787 47502
L72787 47502
" />
<path d="M73787 47502
L73787 47502
" />
<path d="M72787 46502
L72787 46502
" />
<path d="M73787 46502
L73787 46502
" />
<path d="M72787 45502
L72787 45502
" />
<path d="M73787 45502
L73787 45502
" />
<path d="M72787 44502
L72787 44502
" />
<path d="M73787 44502
L73787 44502
" />
<path d="M72787 43502
L72787 43502
" />
<path d="M73787 43502
L73787 43502
" />
<path d="M72787 42502
L72787 42502
" />
<path d="M73787 42502
L73787 42502
" />
<path d="M72787 41502
L72787 41502
" />
<path d="M73787 41502
L73787 41502
" />
<path d="M72787 40502
L72787 40502
" />
<path d="M73787 40502
L73787 40502
" />
<path d="M72787 39502
L72787 39502
" />
<path d="M73787 39502
L73787 39502
" />
<path d="M72787 38502
L72787 38502
" />
<path d="M73787 38502
L73787 38502
" />
<path d="M72787 37502
L72787 37502
" />
<path d="M73787 37502
L73787 37502
" />
<path d="M72787 36502
L72787 36502
" />
<path d="M73787 36502
L73787 36502
" />
<path d="M72787 35502
L72787 35502
" />
<path d="M73787 35502
L73787 35502
" />
</g>
<g style="fill:#000000; fill-opacity:0.0; 
stroke:#000000; stroke-width:669.291; stroke-opacity:1; 
stroke-linecap:round; stroke-linejoin:round;">
<path d="M72257 68536
L72257 68851
" />
<path d="M73257 68536
L73257 68851
" />
<path d="M74257 68536
L74257 68851
" />
</g>
<g style="fill:#000000; fill-opacity:0.0; 
stroke:#000000; stroke-width:787.402; stroke-opacity:1; 
stroke-linecap:round; stroke-linejoin:round;">
<path d="M96958 58209
L96958 58209
" />
<path d="M96958 57209
L96958 57209
" />
<path d="M101811 70014
L101811 70014
" />
<path d="M101811 71014
L101811 71014
" />
<path d="M103088 66223
L103088 66223
" />
<path d="M102088 66223
L102088 66223
" />
<path d="M76683 68701
L76683 68701
" />
<path d="M76683 67701
L76683 67701
" />
<path d="M69960 68701
L69960 68701
" />
<path d="M69960 67701
L69960 67701
" />
<path d="M98976 70024
L98976 70024
" />
<path d="M98976 71024
L98976 71024
" />
<path d="M78740 68701
L78740 68701
" />
<path d="M78740 67701
L78740 67701
" />
</g>
<g style="fill:#000000; fill-opacity:0.0; 
stroke:#000000; stroke-width:39.3701; stroke-opacity:1; 
stroke-linecap:round; stroke-linejoin:round;">
</g>
<g style="fill:#000000; fill-opacity:1.0; 
stroke:#000000; stroke-width:39.3701; stroke-opacity:1; 
stroke-linecap:round; stroke-linejoin:round;">
<circle cx="69655.5" cy="63113.1" r="570.866" /> 
<circle cx="78750" cy="61774.5" r="570.866" /> 
<circle cx="96299.2" cy="46607.2" r="570.866" /> 
<circle cx="97096.5" cy="36331.6" r="570.866" /> 
<circle cx="71023.6" cy="35563.9" r="570.866" /> 
<circle cx="103632" cy="36302" r="570.866" /> 
<circle cx="80098.4" cy="67453.6" r="570.866" /> 
<circle cx="94744.1" cy="61981.2" r="570.866" /> 
</g>
<g style="fill:#000000; fill-opacity:1.0; 
stroke:#000000; stroke-width:787.402; stroke-opacity:1; 
stroke-linecap:round; stroke-linejoin:round;">
<path d="M83643 67317
L83643 67317
" />
<path d="M83643 68317
L83643 68317
" />
<path d="M84643 67317
L84643 67317
" />
<path d="M84643 68317
L84643 68317
" />
</g>
<g style="fill:#000000; fill-opacity:1.0; 
stroke:#000000; stroke-width:39.3701; stroke-opacity:1; 
stroke-linecap:round; stroke-linejoin:round;">
<circle cx="95442.9" cy="51705.6" r="570.866" /> 
<circle cx="96998" cy="71784.3" r="570.866" /> 
<circle cx="100594" cy="60400.5" r="570.866" /> 
<circle cx="102594" cy="60400.5" r="570.866" /> 
<circle cx="100594" cy="57400.5" r="570.866" /> 
<circle cx="102594" cy="57400.5" r="570.866" /> 
</g>
<g style="fill:#000000; fill-opacity:1.0; 
stroke:#000000; stroke-width:787.402; stroke-opacity:1; 
stroke-linecap:round; stroke-linejoin:round;">
<path d="M101291 62760
L101291 62760
" />
<path d="M101291 63760
L101291 63760
" />
<path d="M102291 62760
L102291 62760
" />
<path d="M102291 63760
L102291 63760
" />
<path d="M97962 54394
L97962 54394
" />
<path d="M97962 55394
L97962 55394
" />
<path d="M96564 52327
L96564 52327
" />
<path d="M96564 53327
L96564 53327
" />
</g>
<g style="fill:#000000; fill-opacity:1.0; 
stroke:#000000; stroke-width:39.3701; stroke-opacity:1; 
stroke-linecap:round; stroke-linejoin:round;">
<circle cx="89685" cy="67630.8" r="570.866" /> 
<polyline style="fill-rule:evenodd;"
points="105068,33625
104192,33625
104192,67910
104133,68208
103998,68410
104133,68612
104192,68910
104133,69208
103998,69410
104133,69612
104192,69910
104133,70208
103964,70460
103711,70629
103414,70688
103062,70688
102764,70629
102512,70460
102511,70460
102403,70623
102131,70804
101811,70868
101503,70807
101511,70819
101575,71139
101575,71172
101511,71493
101330,71764
101058,71946
100738,72010
100417,71946
100146,71764
99964,71493
99900,71172
99900,71139
99964,70819
100146,70547
100417,70366
100738,70302
101045,70363
101037,70351
100973,70031
100973,69998
101037,69677
101218,69406
101490,69224
101811,69160
102131,69224
102403,69406
102442,69464
102478,69410
102343,69208
102284,68910
102343,68612
102478,68410
102343,68208
102284,67910
102343,67612
102512,67359
102764,67191
103062,67131
103414,67131
103711,67191
103964,67359
104133,67612
104192,67910
104192,33625
103942,33625
103942,66223
103878,66543
103697,66815
103425,66996
103104,67060
103072,67060
102751,66996
102480,66815
102298,66543
102234,66223
102298,65902
102480,65631
102751,65449
103072,65385
103104,65385
103425,65449
103697,65631
103878,65902
103942,66223
103942,33625
103145,33625
103145,63760
103081,64081
102899,64352
102628,64534
102307,64598
102274,64598
101954,64534
101791,64425
101628,64534
101575,64544
101575,67139
101575,67172
101511,67493
101330,67764
101058,67946
100738,68010
100417,67946
100146,67764
99964,67493
99900,67172
99900,67139
99964,66819
100146,66547
100417,66366
100738,66302
101058,66366
101330,66547
101511,66819
101575,67139
101575,64544
101307,64598
101274,64598
100954,64534
100682,64352
100501,64081
100437,63760
100501,63440
100682,63168
100954,62987
101274,62923
101307,62923
101628,62987
101791,63096
101954,62987
102274,62923
102307,62923
102628,62987
102899,63168
103081,63440
103145,63760
103145,33625
102624,33625
102624,37486
102624,37519
102561,37839
102452,38002
102561,38165
102624,38486
102624,38519
102561,38839
102379,39111
102107,39292
101787,39356
101591,39317
101624,39486
101624,39519
101561,39839
101452,40002
101561,40165
101624,40486
101624,40519
101561,40839
101452,41002
101561,41165
101624,41486
101624,41519
101561,41839
101452,42002
101561,42165
101624,42486
101624,42519
101561,42839
101452,43002
101561,43165
101624,43486
101624,43519
101561,43839
101452,44002
101561,44165
101624,44486
101624,44519
101561,44839
101452,45002
101561,45165
101624,45486
101624,45519
101591,45688
101787,45649
102107,45712
102379,45894
102561,46165
102624,46486
102624,46519
102561,46839
102452,47002
102561,47165
102624,47486
102624,47519
102561,47839
102452,48002
102561,48165
102624,48486
102624,48519
102561,48839
102452,49002
102561,49165
102624,49486
102624,49519
102561,49839
102452,50002
102561,50165
102624,50486
102624,50519
102561,50839
102452,51002
102561,51165
102624,51486
102624,51519
102561,51839
102452,52002
102561,52165
102624,52486
102624,52519
102561,52839
102379,53111
102107,53292
101787,53356
101591,53317
101624,53486
101624,53519
101591,53688
101787,53649
102107,53712
102379,53894
102561,54165
102624,54486
102624,54519
102561,54839
102379,55111
102107,55292
101787,55356
101628,55325
101628,57605
101628,60605
101471,60985
101181,61276
100801,61434
100389,61434
100009,61277
99813,61082
99813,70008
99813,70040
99750,70361
99568,70633
99296,70814
98976,70878
98655,70814
98384,70633
98202,70361
98138,70040
98138,70008
98202,69687
98384,69415
98655,69234
98976,69170
99296,69234
99568,69415
99750,69687
99813,70008
99813,61082
99718,60987
99560,60607
99560,60195
99717,59815
100007,59524
100387,59366
100799,59366
101179,59523
101470,59813
101628,60193
101628,60605
101628,57605
101471,57985
101181,58276
100801,58434
100389,58434
100009,58277
99718,57987
99560,57607
99560,57195
99717,56815
100007,56524
100387,56366
100799,56366
101179,56523
101470,56813
101628,57193
101628,57605
101628,55325
101466,55292
101287,55172
101107,55292
100787,55356
100466,55292
100195,55111
100013,54839
99950,54519
99950,54486
100013,54165
100122,54002
100013,53839
99950,53519
99950,53486
100013,53165
100122,53002
100013,52839
99950,52519
99950,52486
100013,52165
100122,52002
100013,51839
99950,51519
99950,51486
100013,51165
100122,51002
100013,50839
99950,50519
99950,50486
100013,50165
100122,50002
100013,49839
99950,49519
99950,49486
100013,49165
100122,49002
100013,48839
99950,48519
99950,48486
100013,48165
100122,48002
100013,47839
99950,47519
99950,47486
100013,47165
100122,47002
100013,46839
99950,46519
99950,46486
100013,46165
100122,46002
100013,45839
99950,45519
99950,45486
100013,45165
100122,45002
100013,44839
99950,44519
99950,44486
100013,44165
100122,44002
100013,43839
99950,43519
99950,43486
100013,43165
100122,43002
100013,42839
99950,42519
99950,42486
100013,42165
100122,42002
100013,41839
99950,41519
99950,41486
100013,41165
100122,41002
100013,40839
99950,40519
99950,40486
100013,40165
100122,40002
100013,39839
99950,39519
99950,39486
100013,39165
100122,39002
100013,38839
99950,38519
99950,38486
100013,38165
100122,38002
100013,37839
99950,37519
99950,37486
100013,37165
100122,37002
100013,36839
99950,36519
99950,36486
100013,36165
100122,36002
100013,35839
99950,35519
99950,35486
100013,35165
100195,34894
100466,34712
100787,34649
101107,34712
101379,34894
101561,35165
101624,35486
101624,35519
101561,35839
101452,36002
101561,36165
101624,36486
101624,36519
101591,36688
101787,36649
102107,36712
102379,36894
102561,37165
102624,37486
102624,33625
98996,33625
98996,45580
98996,45613
98996,47580
98996,47613
98933,47934
98824,48097
98933,48260
98996,48580
98996,48613
98933,48934
98824,49097
98933,49260
98996,49580
98996,49613
98933,49934
98824,50097
98933,50260
98996,50580
98996,50613
98996,52580
98996,52613
98933,52934
98800,53133
98800,54378
98800,54410
98736,54731
98554,55003
98283,55184
97962,55248
97815,55219
97815,59679
97815,59712
97815,63679
97815,63712
97752,64032
97570,64304
97298,64485
96978,64549
96657,64485
96386,64304
96204,64032
96140,63712
96140,63679
96204,63358
96386,63087
96657,62905
96978,62841
97298,62905
97570,63087
97752,63358
97815,63679
97815,59712
97752,60032
97570,60304
97298,60485
96978,60549
96657,60485
96386,60304
96204,60032
96140,59712
96140,59679
96204,59358
96386,59087
96577,58959
96366,58818
96185,58546
96121,58225
96121,58193
96185,57872
96294,57709
96185,57546
96121,57225
96121,57193
96185,56872
96366,56600
96638,56419
96958,56355
97279,56419
97550,56600
97732,56872
97796,57193
97796,57225
97732,57546
97623,57709
97732,57872
97796,58193
97796,58225
97732,58546
97550,58818
97359,58946
97570,59087
97752,59358
97815,59679
97815,55219
97642,55184
97370,55003
97188,54731
97125,54410
97125,54378
97188,54057
97370,53786
97642,53604
97962,53540
98283,53604
98554,53786
98736,54057
98800,54378
98800,53133
98751,53205
98479,53387
98159,53451
97838,53387
97567,53205
97402,52958
97402,53311
97402,53344
97338,53664
97157,53936
96885,54117
96564,54181
96244,54117
95972,53936
95791,53664
95727,53344
95727,53311
95791,52990
95972,52719
96244,52537
96564,52473
96885,52537
97157,52719
97338,52990
97402,53311
97402,52958
97385,52934
97322,52613
97322,52580
97385,52260
97567,51988
97838,51807
98159,51743
98479,51807
98751,51988
98933,52260
98996,52580
98996,50613
98933,50934
98751,51205
98479,51387
98159,51451
97838,51387
97567,51205
97385,50934
97322,50613
97322,50580
97385,50260
97494,50097
97385,49934
97322,49613
97322,49580
97385,49260
97494,49097
97385,48934
97322,48613
97322,48580
97385,48260
97494,48097
97385,47934
97322,47613
97322,47580
97385,47260
97567,46988
97838,46807
98159,46743
98479,46807
98751,46988
98933,47260
98996,47580
98996,45613
98933,45934
98751,46205
98479,46387
98159,46451
97838,46387
97567,46205
97385,45934
97322,45613
97322,45580
97385,45260
97567,44988
97838,44807
98159,44743
98479,44807
98751,44988
98933,45260
98996,45580
98996,33625
94430,33625
94430,42078
94430,51470
93999,51470
93999,63794
93935,64114
93754,64386
93619,64476
93619,68418
93555,68738
93374,69010
93102,69191
92782,69255
92749,69255
92428,69191
92157,69010
91988,68757
91819,69010
91547,69191
91227,69255
91194,69255
90873,69191
90602,69010
90420,68738
90356,68418
90420,68097
90602,67826
90873,67644
91194,67580
91227,67580
91547,67644
91819,67826
91988,68079
92157,67826
92428,67644
92749,67580
92782,67580
93102,67644
93374,67826
93555,68097
93619,68418
93619,64476
93482,64567
93162,64631
93129,64631
92960,64597
92999,64794
92935,65114
92754,65386
92482,65567
92162,65631
92129,65631
91808,65567
91645,65458
91482,65567
91162,65631
91129,65631
90808,65567
90645,65458
90482,65567
90162,65631
90129,65631
89808,65567
89645,65458
89482,65567
89162,65631
89129,65631
88934,65592
88934,68418
88870,68738
88689,69010
88417,69191
88097,69255
88064,69255
87743,69191
87472,69010
87290,68738
87226,68418
87290,68097
87472,67826
87743,67644
88064,67580
88097,67580
88417,67644
88689,67826
88870,68097
88934,68418
88934,65592
88808,65567
88537,65386
88355,65114
88291,64794
88355,64473
88475,64294
88355,64114
88291,63794
88355,63473
88537,63202
88808,63020
89129,62956
89162,62956
89482,63020
89645,63129
89808,63020
90129,62956
90162,62956
90482,63020
90645,63129
90808,63020
91129,62956
91162,62956
91482,63020
91645,63129
91808,63020
92129,62956
92162,62956
92482,63020
92645,63129
92808,63020
93129,62956
93162,62956
93482,63020
93754,63202
93935,63473
93999,63794
93999,51470
86999,51470
86999,63794
86935,64114
86815,64294
86935,64473
86999,64794
86935,65114
86754,65386
86482,65567
86162,65631
86129,65631
85808,65567
85645,65458
85482,65567
85162,65631
85129,65631
84808,65567
84645,65458
84497,65557
84497,67317
84433,67638
84313,67817
84433,67997
84497,68317
84433,68638
84252,68909
83980,69091
83660,69155
83627,69155
83306,69091
83035,68909
82853,68638
82789,68317
82853,67997
82973,67817
82853,67638
82789,67317
82853,66997
83035,66725
83306,66544
83627,66480
83660,66480
83980,66544
84252,66725
84433,66997
84497,67317
84497,65557
84482,65567
84162,65631
84129,65631
83808,65567
83645,65458
83482,65567
83162,65631
83129,65631
82808,65567
82645,65458
82482,65567
82162,65631
82129,65631
81808,65567
81537,65386
81355,65114
81291,64794
81355,64473
81475,64294
81355,64114
81291,63794
81355,63473
81537,63202
81808,63020
82129,62956
82162,62956
82482,63020
82645,63129
82808,63020
83129,62956
83162,62956
83482,63020
83645,63129
83808,63020
84129,62956
84162,62956
84482,63020
84645,63129
84808,63020
85129,62956
85162,62956
85482,63020
85645,63129
85808,63020
86129,62956
86162,62956
86482,63020
86754,63202
86935,63473
86999,63794
86999,51470
79999,51470
79999,63794
79935,64114
79815,64294
79935,64473
79999,64794
79935,65114
79754,65386
79577,65504
79577,68685
79577,68718
79513,69038
79332,69310
79060,69491
78740,69555
78419,69491
78148,69310
77966,69038
77902,68718
77902,68685
77966,68364
78148,68093
78419,67911
78740,67847
79060,67911
79332,68093
79513,68364
79577,68685
79577,65504
79482,65567
79162,65631
79129,65631
78808,65567
78537,65386
78355,65114
78291,64794
78355,64473
78475,64294
78355,64114
78291,63794
78355,63473
78537,63202
78808,63020
79129,62956
79162,62956
79482,63020
79754,63202
79935,63473
79999,63794
79999,51470
77520,51470
77520,68685
77520,68718
77456,69038
77275,69310
77003,69491
76683,69555
76362,69491
76090,69310
75909,69038
75845,68718
75845,68685
75909,68364
76090,68093
76362,67911
76683,67847
77003,67911
77275,68093
77456,68364
77520,68685
77520,51470
76999,51470
76999,63794
76935,64114
76815,64294
76935,64473
76999,64794
76935,65114
76754,65386
76482,65567
76162,65631
76129,65631
75808,65567
75645,65458
75482,65567
75162,65631
75129,65631
75036,65613
75036,68517
75036,68869
74976,69167
74808,69419
74555,69588
74257,69647
73960,69588
73707,69419
73538,69167
73479,68869
73479,68517
73538,68220
73707,67967
73960,67798
74257,67739
74555,67798
74808,67967
74976,68220
75036,68517
75036,65613
74808,65567
74537,65386
74355,65114
74291,64794
74355,64473
74475,64294
74355,64114
74291,63794
74355,63473
74537,63202
74808,63020
75129,62956
75162,62956
75482,63020
75645,63129
75808,63020
76129,62956
76162,62956
76482,63020
76754,63202
76935,63473
76999,63794
76999,51470
76159,51470
76159,42078
94430,42078
94430,33625
93999,33625
93999,35794
93935,36114
93754,36386
93482,36567
93162,36631
93129,36631
92960,36597
92999,36794
92935,37114
92754,37386
92482,37567
92162,37631
92129,37631
91808,37567
91645,37458
91482,37567
91162,37631
91129,37631
90808,37567
90645,37458
90482,37567
90162,37631
90129,37631
89808,37567
89645,37458
89482,37567
89162,37631
89129,37631
88808,37567
88537,37386
88355,37114
88291,36794
88355,36473
88475,36294
88355,36114
88291,35794
88355,35473
88537,35202
88808,35020
89129,34956
89162,34956
89482,35020
89645,35129
89808,35020
90129,34956
90162,34956
90482,35020
90645,35129
90808,35020
91129,34956
91162,34956
91482,35020
91645,35129
91808,35020
92129,34956
92162,34956
92482,35020
92645,35129
92808,35020
93129,34956
93162,34956
93482,35020
93754,35202
93935,35473
93999,35794
93999,33625
86999,33625
86999,35794
86935,36114
86815,36294
86935,36473
86999,36794
86935,37114
86754,37386
86482,37567
86162,37631
86129,37631
85808,37567
85645,37458
85482,37567
85162,37631
85129,37631
84808,37567
84645,37458
84482,37567
84162,37631
84129,37631
83808,37567
83645,37458
83482,37567
83162,37631
83129,37631
82808,37567
82645,37458
82482,37567
82162,37631
82129,37631
81808,37567
81537,37386
81355,37114
81291,36794
81355,36473
81475,36294
81355,36114
81291,35794
81355,35473
81537,35202
81808,35020
82129,34956
82162,34956
82482,35020
82645,35129
82808,35020
83129,34956
83162,34956
83482,35020
83754,35202
83935,35473
83999,35794
83960,35990
84129,35956
84162,35956
84330,35990
84291,35794
84355,35473
84537,35202
84808,35020
85129,34956
85162,34956
85482,35020
85645,35129
85808,35020
86129,34956
86162,34956
86482,35020
86754,35202
86935,35473
86999,35794
86999,33625
79999,33625
79999,35794
79935,36114
79815,36294
79935,36473
79999,36794
79935,37114
79754,37386
79482,37567
79162,37631
79129,37631
78808,37567
78645,37458
78482,37567
78162,37631
78129,37631
77808,37567
77645,37458
77482,37567
77162,37631
77129,37631
76808,37567
76645,37458
76482,37567
76162,37631
76129,37631
75808,37567
75645,37458
75482,37567
75162,37631
75129,37631
74808,37567
74615,37438
74624,37486
74624,37519
74561,37839
74452,38002
74561,38165
74624,38486
74624,38519
74561,38839
74452,39002
74561,39165
74624,39486
74624,39519
74561,39839
74452,40002
74561,40165
74624,40486
74624,40519
74561,40839
74452,41002
74561,41165
74624,41486
74624,41519
74561,41839
74452,42002
74561,42165
74624,42486
74624,42519
74561,42839
74452,43002
74561,43165
74624,43486
74624,43519
74561,43839
74452,44002
74561,44165
74624,44486
74624,44519
74561,44839
74452,45002
74561,45165
74624,45486
74624,45519
74561,45839
74452,46002
74561,46165
74624,46486
74624,46519
74561,46839
74452,47002
74561,47165
74624,47486
74624,47519
74561,47839
74452,48002
74561,48165
74624,48486
74624,48519
74561,48839
74452,49002
74561,49165
74624,49486
74624,49519
74561,49839
74452,50002
74561,50165
74624,50486
74624,50519
74561,50839
74452,51002
74561,51165
74624,51486
74624,51519
74561,51839
74452,52002
74561,52165
74624,52486
74624,52519
74561,52839
74452,53002
74561,53165
74624,53486
74624,53519
74561,53839
74452,54002
74561,54165
74624,54486
74624,54519
74561,54839
74379,55111
74107,55292
73787,55356
73466,55292
73287,55172
73107,55292
73036,55307
73036,68517
73036,68869
72976,69167
72808,69419
72555,69588
72257,69647
71960,69588
71707,69419
71538,69167
71479,68869
71479,68517
71538,68220
71707,67967
71960,67798
72257,67739
72555,67798
72808,67967
72976,68220
73036,68517
73036,55307
72787,55356
72466,55292
72195,55111
72013,54839
71950,54519
71950,54486
72013,54165
72195,53894
72466,53712
72787,53649
72983,53688
72950,53519
72950,53486
73013,53165
73122,53002
73013,52839
72950,52519
72950,52486
73013,52165
73122,52002
73013,51839
72950,51519
72950,51486
72983,51317
72787,51356
72466,51292
72195,51111
72013,50839
71950,50519
71950,50486
72013,50165
72195,49894
72466,49712
72787,49649
72983,49688
72950,49519
72950,49486
73013,49165
73122,49002
73013,48839
72950,48519
72950,48486
72983,48317
72787,48356
72466,48292
72195,48111
72013,47839
71950,47519
71950,47486
72013,47165
72195,46894
72466,46712
72787,46649
72983,46688
72950,46519
72950,46486
73013,46165
73122,46002
73013,45839
72950,45519
72950,45486
72983,45317
72787,45356
72466,45292
72195,45111
72013,44839
71950,44519
71950,44486
72013,44165
72122,44002
72013,43839
71950,43519
71950,43486
72013,43165
72195,42894
72466,42712
72787,42649
72983,42688
72950,42519
72950,42486
73013,42165
73122,42002
73013,41839
72950,41519
72950,41486
72983,41317
72787,41356
72466,41292
72195,41111
72013,40839
71950,40519
71950,40486
72013,40165
72122,40002
72013,39839
71950,39519
71950,39486
72013,39165
72122,39002
72013,38839
71950,38519
71950,38486
72013,38165
72122,38002
72013,37839
71950,37519
71950,37486
72013,37165
72195,36894
72466,36712
72787,36649
72983,36688
72950,36519
72950,36486
73013,36165
73122,36002
73013,35839
72950,35519
72950,35486
73013,35165
73195,34894
73466,34712
73787,34649
74107,34712
74379,34894
74561,35165
74564,35183
74808,35020
75129,34956
75162,34956
75482,35020
75645,35129
75808,35020
76129,34956
76162,34956
76482,35020
76754,35202
76935,35473
76999,35794
76960,35990
77129,35956
77162,35956
77330,35990
77291,35794
77355,35473
77537,35202
77808,35020
78129,34956
78162,34956
78482,35020
78645,35129
78808,35020
79129,34956
79162,34956
79482,35020
79754,35202
79935,35473
79999,35794
79999,33625
70798,33625
70798,68685
70798,68718
70734,69038
70552,69310
70281,69491
69960,69555
69640,69491
69368,69310
69186,69038
69123,68718
69123,68685
69186,68364
69368,68093
69640,67911
69960,67847
70281,67911
70552,68093
70734,68364
70798,68685
70798,33625
69459,33625
69459,65988
69459,66021
69395,66341
69214,66613
68942,66794
68622,66858
68301,66794
68029,66613
67848,66341
67784,66021
67784,65988
67848,65667
68029,65396
68301,65214
68622,65150
68942,65214
69214,65396
69395,65667
69459,65988
69459,33625
65798,33625
65798,72895
102809,72895
102651,72789
102469,72518
102406,72197
102469,71877
102651,71605
102922,71424
103243,71360
103276,71360
103596,71424
103868,71605
104049,71877
104113,72197
104049,72518
103868,72789
103709,72895
105068,72895
105068,33625
" /> 
</g>
<g style="fill:#000000; fill-opacity:0.0; 
stroke:#000000; stroke-width:100; stroke-opacity:1; 
stroke-linecap:round; stroke-linejoin:round;">
<polyline fill="none;"
points="105068,33625
104192,33625
104192,67910
104133,68208
103998,68410
104133,68612
104192,68910
104133,69208
103998,69410
104133,69612
104192,69910
104133,70208
103964,70460
103711,70629
103414,70688
103062,70688
102764,70629
102512,70460
102511,70460
102403,70623
102131,70804
101811,70868
101503,70807
101511,70819
101575,71139
101575,71172
101511,71493
101330,71764
101058,71946
100738,72010
100417,71946
100146,71764
99964,71493
99900,71172
99900,71139
99964,70819
100146,70547
100417,70366
100738,70302
101045,70363
101037,70351
100973,70031
100973,69998
101037,69677
101218,69406
101490,69224
101811,69160
102131,69224
102403,69406
102442,69464
102478,69410
102343,69208
102284,68910
102343,68612
102478,68410
102343,68208
102284,67910
102343,67612
102512,67359
102764,67191
103062,67131
103414,67131
103711,67191
103964,67359
104133,67612
104192,67910
104192,33625
103942,33625
103942,66223
103878,66543
103697,66815
103425,66996
103104,67060
103072,67060
102751,66996
102480,66815
102298,66543
102234,66223
102298,65902
102480,65631
102751,65449
103072,65385
103104,65385
103425,65449
103697,65631
103878,65902
103942,66223
103942,33625
103145,33625
103145,63760
103081,64081
102899,64352
102628,64534
102307,64598
102274,64598
101954,64534
101791,64425
101628,64534
101575,64544
101575,67139
101575,67172
101511,67493
101330,67764
101058,67946
100738,68010
100417,67946
100146,67764
99964,67493
99900,67172
99900,67139
99964,66819
100146,66547
100417,66366
100738,66302
101058,66366
101330,66547
101511,66819
101575,67139
101575,64544
101307,64598
101274,64598
100954,64534
100682,64352
100501,64081
100437,63760
100501,63440
100682,63168
100954,62987
101274,62923
101307,62923
101628,62987
101791,63096
101954,62987
102274,62923
102307,62923
102628,62987
102899,63168
103081,63440
103145,63760
103145,33625
102624,33625
102624,37486
102624,37519
102561,37839
102452,38002
102561,38165
102624,38486
102624,38519
102561,38839
102379,39111
102107,39292
101787,39356
101591,39317
101624,39486
101624,39519
101561,39839
101452,40002
101561,40165
101624,40486
101624,40519
101561,40839
101452,41002
101561,41165
101624,41486
101624,41519
101561,41839
101452,42002
101561,42165
101624,42486
101624,42519
101561,42839
101452,43002
101561,43165
101624,43486
101624,43519
101561,43839
101452,44002
101561,44165
101624,44486
101624,44519
101561,44839
101452,45002
101561,45165
101624,45486
101624,45519
101591,45688
101787,45649
102107,45712
102379,45894
102561,46165
102624,46486
102624,46519
102561,46839
102452,47002
102561,47165
102624,47486
102624,47519
102561,47839
102452,48002
102561,48165
102624,48486
102624,48519
102561,48839
102452,49002
102561,49165
102624,49486
102624,49519
102561,49839
102452,50002
102561,50165
102624,50486
102624,50519
102561,50839
102452,51002
102561,51165
102624,51486
102624,51519
102561,51839
102452,52002
102561,52165
102624,52486
102624,52519
102561,52839
102379,53111
102107,53292
101787,53356
101591,53317
101624,53486
101624,53519
101591,53688
101787,53649
102107,53712
102379,53894
102561,54165
102624,54486
102624,54519
102561,54839
102379,55111
102107,55292
101787,55356
101628,55325
101628,57605
101628,60605
101471,60985
101181,61276
100801,61434
100389,61434
100009,61277
99813,61082
99813,70008
99813,70040
99750,70361
99568,70633
99296,70814
98976,70878
98655,70814
98384,70633
98202,70361
98138,70040
98138,70008
98202,69687
98384,69415
98655,69234
98976,69170
99296,69234
99568,69415
99750,69687
99813,70008
99813,61082
99718,60987
99560,60607
99560,60195
99717,59815
100007,59524
100387,59366
100799,59366
101179,59523
101470,59813
101628,60193
101628,60605
101628,57605
101471,57985
101181,58276
100801,58434
100389,58434
100009,58277
99718,57987
99560,57607
99560,57195
99717,56815
100007,56524
100387,56366
100799,56366
101179,56523
101470,56813
101628,57193
101628,57605
101628,55325
101466,55292
101287,55172
101107,55292
100787,55356
100466,55292
100195,55111
100013,54839
99950,54519
99950,54486
100013,54165
100122,54002
100013,53839
99950,53519
99950,53486
100013,53165
100122,53002
100013,52839
99950,52519
99950,52486
100013,52165
100122,52002
100013,51839
99950,51519
99950,51486
100013,51165
100122,51002
100013,50839
99950,50519
99950,50486
100013,50165
100122,50002
100013,49839
99950,49519
99950,49486
100013,49165
100122,49002
100013,48839
99950,48519
99950,48486
100013,48165
100122,48002
100013,47839
99950,47519
99950,47486
100013,47165
100122,47002
100013,46839
99950,46519
99950,46486
100013,46165
100122,46002
100013,45839
99950,45519
99950,45486
100013,45165
100122,45002
100013,44839
99950,44519
99950,44486
100013,44165
100122,44002
100013,43839
99950,43519
99950,43486
100013,43165
100122,43002
100013,42839
99950,42519
99950,42486
100013,42165
100122,42002
100013,41839
99950,41519
99950,41486
100013,41165
100122,41002
100013,40839
99950,40519
99950,40486
100013,40165
100122,40002
100013,39839
99950,39519
99950,39486
100013,39165
100122,39002
100013,38839
99950,38519
99950,38486
100013,38165
100122,38002
100013,37839
99950,37519
99950,37486
100013,37165
100122,37002
100013,36839
99950,36519
99950,36486
100013,36165
100122,36002
100013,35839
99950,35519
99950,35486
100013,35165
100195,34894
100466,34712
100787,34649
101107,34712
101379,34894
101561,35165
101624,35486
101624,35519
101561,35839
101452,36002
101561,36165
101624,36486
101624,36519
101591,36688
101787,36649
102107,36712
102379,36894
102561,37165
102624,37486
102624,33625
98996,33625
98996,45580
98996,45613
98996,47580
98996,47613
98933,47934
98824,48097
98933,48260
98996,48580
98996,48613
98933,48934
98824,49097
98933,49260
98996,49580
98996,49613
98933,49934
98824,50097
98933,50260
98996,50580
98996,50613
98996,52580
98996,52613
98933,52934
98800,53133
98800,54378
98800,54410
98736,54731
98554,55003
98283,55184
97962,55248
97815,55219
97815,59679
97815,59712
97815,63679
97815,63712
97752,64032
97570,64304
97298,64485
96978,64549
96657,64485
96386,64304
96204,64032
96140,63712
96140,63679
96204,63358
96386,63087
96657,62905
96978,62841
97298,62905
97570,63087
97752,63358
97815,63679
97815,59712
97752,60032
97570,60304
97298,60485
96978,60549
96657,60485
96386,60304
96204,60032
96140,59712
96140,59679
96204,59358
96386,59087
96577,58959
96366,58818
96185,58546
96121,58225
96121,58193
96185,57872
96294,57709
96185,57546
96121,57225
96121,57193
96185,56872
96366,56600
96638,56419
96958,56355
97279,56419
97550,56600
97732,56872
97796,57193
97796,57225
97732,57546
97623,57709
97732,57872
97796,58193
97796,58225
97732,58546
97550,58818
97359,58946
97570,59087
97752,59358
97815,59679
97815,55219
97642,55184
97370,55003
97188,54731
97125,54410
97125,54378
97188,54057
97370,53786
97642,53604
97962,53540
98283,53604
98554,53786
98736,54057
98800,54378
98800,53133
98751,53205
98479,53387
98159,53451
97838,53387
97567,53205
97402,52958
97402,53311
97402,53344
97338,53664
97157,53936
96885,54117
96564,54181
96244,54117
95972,53936
95791,53664
95727,53344
95727,53311
95791,52990
95972,52719
96244,52537
96564,52473
96885,52537
97157,52719
97338,52990
97402,53311
97402,52958
97385,52934
97322,52613
97322,52580
97385,52260
97567,51988
97838,51807
98159,51743
98479,51807
98751,51988
98933,52260
98996,52580
98996,50613
98933,50934
98751,51205
98479,51387
98159,51451
97838,51387
97567,51205
97385,50934
97322,50613
97322,50580
97385,50260
97494,50097
97385,49934
97322,49613
97322,49580
97385,49260
97494,49097
97385,48934
97322,48613
97322,48580
97385,48260
97494,48097
97385,47934
97322,47613
97322,47580
97385,47260
97567,46988
97838,46807
98159,46743
98479,46807
98751,46988
98933,47260
98996,47580
98996,45613
98933,45934
98751,46205
98479,46387
98159,46451
97838,46387
97567,46205
97385,45934
97322,45613
97322,45580
97385,45260
97567,44988
97838,44807
98159,44743
98479,44807
98751,44988
98933,45260
98996,45580
98996,33625
94430,33625
94430,42078
94430,51470
93999,51470
93999,63794
93935,64114
93754,64386
93619,64476
93619,68418
93555,68738
93374,69010
93102,69191
92782,69255
92749,69255
92428,69191
92157,69010
91988,68757
91819,69010
91547,69191
91227,69255
91194,69255
90873,69191
90602,69010
90420,68738
90356,68418
90420,68097
90602,67826
90873,67644
91194,67580
91227,67580
91547,67644
91819,67826
91988,68079
92157,67826
92428,67644
92749,67580
92782,67580
93102,67644
93374,67826
93555,68097
93619,68418
93619,64476
93482,64567
93162,64631
93129,64631
92960,64597
92999,64794
92935,65114
92754,65386
92482,65567
92162,65631
92129,65631
91808,65567
91645,65458
91482,65567
91162,65631
91129,65631
90808,65567
90645,65458
90482,65567
90162,65631
90129,65631
89808,65567
89645,65458
89482,65567
89162,65631
89129,65631
88934,65592
88934,68418
88870,68738
88689,69010
88417,69191
88097,69255
88064,69255
87743,69191
87472,69010
87290,68738
87226,68418
87290,68097
87472,67826
87743,67644
88064,67580
88097,67580
88417,67644
88689,67826
88870,68097
88934,68418
88934,65592
88808,65567
88537,65386
88355,65114
88291,64794
88355,64473
88475,64294
88355,64114
88291,63794
88355,63473
88537,63202
88808,63020
89129,62956
89162,62956
89482,63020
89645,63129
89808,63020
90129,62956
90162,62956
90482,63020
90645,63129
90808,63020
91129,62956
91162,62956
91482,63020
91645,63129
91808,63020
92129,62956
92162,62956
92482,63020
92645,63129
92808,63020
93129,62956
93162,62956
93482,63020
93754,63202
93935,63473
93999,63794
93999,51470
86999,51470
86999,63794
86935,64114
86815,64294
86935,64473
86999,64794
86935,65114
86754,65386
86482,65567
86162,65631
86129,65631
85808,65567
85645,65458
85482,65567
85162,65631
85129,65631
84808,65567
84645,65458
84497,65557
84497,67317
84433,67638
84313,67817
84433,67997
84497,68317
84433,68638
84252,68909
83980,69091
83660,69155
83627,69155
83306,69091
83035,68909
82853,68638
82789,68317
82853,67997
82973,67817
82853,67638
82789,67317
82853,66997
83035,66725
83306,66544
83627,66480
83660,66480
83980,66544
84252,66725
84433,66997
84497,67317
84497,65557
84482,65567
84162,65631
84129,65631
83808,65567
83645,65458
83482,65567
83162,65631
83129,65631
82808,65567
82645,65458
82482,65567
82162,65631
82129,65631
81808,65567
81537,65386
81355,65114
81291,64794
81355,64473
81475,64294
81355,64114
81291,63794
81355,63473
81537,63202
81808,63020
82129,62956
82162,62956
82482,63020
82645,63129
82808,63020
83129,62956
83162,62956
83482,63020
83645,63129
83808,63020
84129,62956
84162,62956
84482,63020
84645,63129
84808,63020
85129,62956
85162,62956
85482,63020
85645,63129
85808,63020
86129,62956
86162,62956
86482,63020
86754,63202
86935,63473
86999,63794
86999,51470
79999,51470
79999,63794
79935,64114
79815,64294
79935,64473
79999,64794
79935,65114
79754,65386
79577,65504
79577,68685
79577,68718
79513,69038
79332,69310
79060,69491
78740,69555
78419,69491
78148,69310
77966,69038
77902,68718
77902,68685
77966,68364
78148,68093
78419,67911
78740,67847
79060,67911
79332,68093
79513,68364
79577,68685
79577,65504
79482,65567
79162,65631
79129,65631
78808,65567
78537,65386
78355,65114
78291,64794
78355,64473
78475,64294
78355,64114
78291,63794
78355,63473
78537,63202
78808,63020
79129,62956
79162,62956
79482,63020
79754,63202
79935,63473
79999,63794
79999,51470
77520,51470
77520,68685
77520,68718
77456,69038
77275,69310
77003,69491
76683,69555
76362,69491
76090,69310
75909,69038
75845,68718
75845,68685
75909,68364
76090,68093
76362,67911
76683,67847
77003,67911
77275,68093
77456,68364
77520,68685
77520,51470
76999,51470
76999,63794
76935,64114
76815,64294
76935,64473
76999,64794
76935,65114
76754,65386
76482,65567
76162,65631
76129,65631
75808,65567
75645,65458
75482,65567
75162,65631
75129,65631
75036,65613
75036,68517
75036,68869
74976,69167
74808,69419
74555,69588
74257,69647
73960,69588
73707,69419
73538,69167
73479,68869
73479,68517
73538,68220
73707,67967
73960,67798
74257,67739
74555,67798
74808,67967
74976,68220
75036,68517
75036,65613
74808,65567
74537,65386
74355,65114
74291,64794
74355,64473
74475,64294
74355,64114
74291,63794
74355,63473
74537,63202
74808,63020
75129,62956
75162,62956
75482,63020
75645,63129
75808,63020
76129,62956
76162,62956
76482,63020
76754,63202
76935,63473
76999,63794
76999,51470
76159,51470
76159,42078
94430,42078
94430,33625
93999,33625
93999,35794
93935,36114
93754,36386
93482,36567
93162,36631
93129,36631
92960,36597
92999,36794
92935,37114
92754,37386
92482,37567
92162,37631
92129,37631
91808,37567
91645,37458
91482,37567
91162,37631
91129,37631
90808,37567
90645,37458
90482,37567
90162,37631
90129,37631
89808,37567
89645,37458
89482,37567
89162,37631
89129,37631
88808,37567
88537,37386
88355,37114
88291,36794
88355,36473
88475,36294
88355,36114
88291,35794
88355,35473
88537,35202
88808,35020
89129,34956
89162,34956
89482,35020
89645,35129
89808,35020
90129,34956
90162,34956
90482,35020
90645,35129
90808,35020
91129,34956
91162,34956
91482,35020
91645,35129
91808,35020
92129,34956
92162,34956
92482,35020
92645,35129
92808,35020
93129,34956
93162,34956
93482,35020
93754,35202
93935,35473
93999,35794
93999,33625
86999,33625
86999,35794
86935,36114
86815,36294
86935,36473
86999,36794
86935,37114
86754,37386
86482,37567
86162,37631
86129,37631
85808,37567
85645,37458
85482,37567
85162,37631
85129,37631
84808,37567
84645,37458
84482,37567
84162,37631
84129,37631
83808,37567
83645,37458
83482,37567
83162,37631
83129,37631
82808,37567
82645,37458
82482,37567
82162,37631
82129,37631
81808,37567
81537,37386
81355,37114
81291,36794
81355,36473
81475,36294
81355,36114
81291,35794
81355,35473
81537,35202
81808,35020
82129,34956
82162,34956
82482,35020
82645,35129
82808,35020
83129,34956
83162,34956
83482,35020
83754,35202
83935,35473
83999,35794
83960,35990
84129,35956
84162,35956
84330,35990
84291,35794
84355,35473
84537,35202
84808,35020
85129,34956
85162,34956
85482,35020
85645,35129
85808,35020
86129,34956
86162,34956
86482,35020
86754,35202
86935,35473
86999,35794
86999,33625
79999,33625
79999,35794
79935,36114
79815,36294
79935,36473
79999,36794
79935,37114
79754,37386
79482,37567
79162,37631
79129,37631
78808,37567
78645,37458
78482,37567
78162,37631
78129,37631
77808,37567
77645,37458
77482,37567
77162,37631
77129,37631
76808,37567
76645,37458
76482,37567
76162,37631
76129,37631
75808,37567
75645,37458
75482,37567
75162,37631
75129,37631
74808,37567
74615,37438
74624,37486
74624,37519
74561,37839
74452,38002
74561,38165
74624,38486
74624,38519
74561,38839
74452,39002
74561,39165
74624,39486
74624,39519
74561,39839
74452,40002
74561,40165
74624,40486
74624,40519
74561,40839
74452,41002
74561,41165
74624,41486
74624,41519
74561,41839
74452,42002
74561,42165
74624,42486
74624,42519
74561,42839
74452,43002
74561,43165
74624,43486
74624,43519
74561,43839
74452,44002
74561,44165
74624,44486
74624,44519
74561,44839
74452,45002
74561,45165
74624,45486
74624,45519
74561,45839
74452,46002
74561,46165
74624,46486
74624,46519
74561,46839
74452,47002
74561,47165
74624,47486
74624,47519
74561,47839
74452,48002
74561,48165
74624,48486
74624,48519
74561,48839
74452,49002
74561,49165
74624,49486
74624,49519
74561,49839
74452,50002
74561,50165
74624,50486
74624,50519
74561,50839
74452,51002
74561,51165
74624,51486
74624,51519
74561,51839
74452,52002
74561,52165
74624,52486
74624,52519
74561,52839
74452,53002
74561,53165
74624,53486
74624,53519
74561,53839
74452,54002
74561,54165
74624,54486
74624,54519
74561,54839
74379,55111
74107,55292
73787,55356
73466,55292
73287,55172
73107,55292
73036,55307
73036,68517
73036,68869
72976,69167
72808,69419
72555,69588
72257,69647
71960,69588
71707,69419
71538,69167
71479,68869
71479,68517
71538,68220
71707,67967
71960,67798
72257,67739
72555,67798
72808,67967
72976,68220
73036,68517
73036,55307
72787,55356
72466,55292
72195,55111
72013,54839
71950,54519
71950,54486
72013,54165
72195,53894
72466,53712
72787,53649
72983,53688
72950,53519
72950,53486
73013,53165
73122,53002
73013,52839
72950,52519
72950,52486
73013,52165
73122,52002
73013,51839
72950,51519
72950,51486
72983,51317
72787,51356
72466,51292
72195,51111
72013,50839
71950,50519
71950,50486
72013,50165
72195,49894
72466,49712
72787,49649
72983,49688
72950,49519
72950,49486
73013,49165
73122,49002
73013,48839
72950,48519
72950,48486
72983,48317
72787,48356
72466,48292
72195,48111
72013,47839
71950,47519
71950,47486
72013,47165
72195,46894
72466,46712
72787,46649
72983,46688
72950,46519
72950,46486
73013,46165
73122,46002
73013,45839
72950,45519
72950,45486
72983,45317
72787,45356
72466,45292
72195,45111
72013,44839
71950,44519
71950,44486
72013,44165
72122,44002
72013,43839
71950,43519
71950,43486
72013,43165
72195,42894
72466,42712
72787,42649
72983,42688
72950,42519
72950,42486
73013,42165
73122,42002
73013,41839
72950,41519
72950,41486
72983,41317
72787,41356
72466,41292
72195,41111
72013,40839
71950,40519
71950,40486
72013,40165
72122,40002
72013,39839
71950,39519
71950,39486
72013,39165
72122,39002
72013,38839
71950,38519
71950,38486
72013,38165
72122,38002
72013,37839
71950,37519
71950,37486
72013,37165
72195,36894
72466,36712
72787,36649
72983,36688
72950,36519
72950,36486
73013,36165
73122,36002
73013,35839
72950,35519
72950,35486
73013,35165
73195,34894
73466,34712
73787,34649
74107,34712
74379,34894
74561,35165
74564,35183
74808,35020
75129,34956
75162,34956
75482,35020
75645,35129
75808,35020
76129,34956
76162,34956
76482,35020
76754,35202
76935,35473
76999,35794
76960,35990
77129,35956
77162,35956
77330,35990
77291,35794
77355,35473
77537,35202
77808,35020
78129,34956
78162,34956
78482,35020
78645,35129
78808,35020
79129,34956
79162,34956
79482,35020
79754,35202
79935,35473
79999,35794
79999,33625
70798,33625
70798,68685
70798,68718
70734,69038
70552,69310
70281,69491
69960,69555
69640,69491
69368,69310
69186,69038
69123,68718
69123,68685
69186,68364
69368,68093
69640,67911
69960,67847
70281,67911
70552,68093
70734,68364
70798,68685
70798,33625
69459,33625
69459,65988
69459,66021
69395,66341
69214,66613
68942,66794
68622,66858
68301,66794
68029,66613
67848,66341
67784,66021
67784,65988
67848,65667
68029,65396
68301,65214
68622,65150
68942,65214
69214,65396
69395,65667
69459,65988
69459,33625
65798,33625
65798,72895
102809,72895
102651,72789
102469,72518
102406,72197
102469,71877
102651,71605
102922,71424
103243,71360
103276,71360
103596,71424
103868,71605
104049,71877
104113,72197
104049,72518
103868,72789
103709,72895
105068,72895
105068,33625
" /> 
</g>
<g style="fill:#FFFFFF; fill-opacity:0.0; 
stroke:#FFFFFF; stroke-width:39.3701; stroke-opacity:1; 
stroke-linecap:round; stroke-linejoin:round;">
</g>
<g style="fill:#FFFFFF; fill-opacity:1.0; 
stroke:#FFFFFF; stroke-width:39.3701; stroke-opacity:1; 
stroke-linecap:round; stroke-linejoin:round;">
<circle cx="103238" cy="69910.3" r="118.11" /> 
<circle cx="103238" cy="68910.3" r="118.11" /> 
<circle cx="103238" cy="67910.3" r="118.11" /> 
<circle cx="91210.6" cy="68418.2" r="118.11" /> 
<circle cx="89655.5" cy="68418.2" r="118.11" /> 
<circle cx="92765.7" cy="68418.2" r="118.11" /> 
<circle cx="88080.7" cy="68418.2" r="118.11" /> 
<circle cx="103260" cy="72197.7" r="118.11" /> 
<circle cx="99259.8" cy="72197.7" r="118.11" /> 
<circle cx="96978.3" cy="63695.7" r="118.11" /> 
<circle cx="96978.3" cy="59695.7" r="118.11" /> 
<circle cx="100738" cy="67156.4" r="118.11" /> 
<circle cx="100738" cy="71156.4" r="118.11" /> 
<circle cx="68622" cy="66004.8" r="118.11" /> 
<circle cx="68622" cy="65004.8" r="118.11" /> 
<circle cx="98159.4" cy="52597.3" r="118.11" /> 
<circle cx="98159.4" cy="51597.3" r="118.11" /> 
<circle cx="98159.4" cy="50597.3" r="118.11" /> 
<circle cx="98159.4" cy="49597.3" r="118.11" /> 
<circle cx="98159.4" cy="48597.3" r="118.11" /> 
<circle cx="98159.4" cy="47597.3" r="118.11" /> 
<circle cx="98159.4" cy="46597.3" r="118.11" /> 
<circle cx="98159.4" cy="45597.3" r="118.11" /> 
<circle cx="75145.7" cy="35794.2" r="118.11" /> 
<circle cx="75145.7" cy="36794.2" r="118.11" /> 
<circle cx="76145.7" cy="35794.2" r="118.11" /> 
<circle cx="76145.7" cy="36794.2" r="118.11" /> 
<circle cx="77145.7" cy="35794.2" r="118.11" /> 
<circle cx="77145.7" cy="36794.2" r="118.11" /> 
<circle cx="78145.7" cy="35794.2" r="118.11" /> 
<circle cx="78145.7" cy="36794.2" r="118.11" /> 
<circle cx="79145.7" cy="35794.2" r="118.11" /> 
<circle cx="79145.7" cy="36794.2" r="118.11" /> 
<circle cx="80145.7" cy="35794.2" r="118.11" /> 
<circle cx="80145.7" cy="36794.2" r="118.11" /> 
<circle cx="81145.7" cy="35794.2" r="118.11" /> 
<circle cx="81145.7" cy="36794.2" r="118.11" /> 
<circle cx="82145.7" cy="35794.2" r="118.11" /> 
<circle cx="82145.7" cy="36794.2" r="118.11" /> 
<circle cx="83145.7" cy="35794.2" r="118.11" /> 
<circle cx="83145.7" cy="36794.2" r="118.11" /> 
<circle cx="84145.7" cy="35794.2" r="118.11" /> 
<circle cx="84145.7" cy="36794.2" r="118.11" /> 
<circle cx="85145.7" cy="35794.2" r="118.11" /> 
<circle cx="85145.7" cy="36794.2" r="118.11" /> 
<circle cx="86145.7" cy="35794.2" r="118.11" /> 
<circle cx="86145.7" cy="36794.2" r="118.11" /> 
<circle cx="87145.7" cy="35794.2" r="118.11" /> 
<circle cx="87145.7" cy="36794.2" r="118.11" /> 
<circle cx="88145.7" cy="35794.2" r="118.11" /> 
<circle cx="88145.7" cy="36794.2" r="118.11" /> 
<circle cx="89145.7" cy="35794.2" r="118.11" /> 
<circle cx="89145.7" cy="36794.2" r="118.11" /> 
<circle cx="90145.7" cy="35794.2" r="118.11" /> 
<circle cx="90145.7" cy="36794.2" r="118.11" /> 
<circle cx="91145.7" cy="35794.2" r="118.11" /> 
<circle cx="91145.7" cy="36794.2" r="118.11" /> 
<circle cx="92145.7" cy="35794.2" r="118.11" /> 
<circle cx="92145.7" cy="36794.2" r="118.11" /> 
<circle cx="93145.7" cy="35794.2" r="118.11" /> 
<circle cx="93145.7" cy="36794.2" r="118.11" /> 
<circle cx="94145.7" cy="35794.2" r="118.11" /> 
<circle cx="94145.7" cy="36794.2" r="118.11" /> 
<circle cx="75145.7" cy="63794.2" r="118.11" /> 
<circle cx="75145.7" cy="64794.2" r="118.11" /> 
<circle cx="76145.7" cy="63794.2" r="118.11" /> 
<circle cx="76145.7" cy="64794.2" r="118.11" /> 
<circle cx="77145.7" cy="63794.2" r="118.11" /> 
<circle cx="77145.7" cy="64794.2" r="118.11" /> 
<circle cx="78145.7" cy="63794.2" r="118.11" /> 
<circle cx="78145.7" cy="64794.2" r="118.11" /> 
<circle cx="79145.7" cy="63794.2" r="118.11" /> 
<circle cx="79145.7" cy="64794.2" r="118.11" /> 
<circle cx="80145.7" cy="63794.2" r="118.11" /> 
<circle cx="80145.7" cy="64794.2" r="118.11" /> 
<circle cx="81145.7" cy="63794.2" r="118.11" /> 
<circle cx="81145.7" cy="64794.2" r="118.11" /> 
<circle cx="82145.7" cy="63794.2" r="118.11" /> 
<circle cx="82145.7" cy="64794.2" r="118.11" /> 
<circle cx="83145.7" cy="63794.2" r="118.11" /> 
<circle cx="83145.7" cy="64794.2" r="118.11" /> 
<circle cx="84145.7" cy="63794.2" r="118.11" /> 
<circle cx="84145.7" cy="64794.2" r="118.11" /> 
<circle cx="85145.7" cy="63794.2" r="118.11" /> 
<circle cx="85145.7" cy="64794.2" r="118.11" /> 
<circle cx="86145.7" cy="63794.2" r="118.11" /> 
<circle cx="86145.7" cy="64794.2" r="118.11" /> 
<circle cx="87145.7" cy="63794.2" r="118.11" /> 
<circle cx="87145.7" cy="64794.2" r="118.11" /> 
<circle cx="88145.7" cy="63794.2" r="118.11" /> 
<circle cx="88145.7" cy="64794.2" r="118.11" /> 
<circle cx="89145.7" cy="63794.2" r="118.11" /> 
<circle cx="89145.7" cy="64794.2" r="118.11" /> 
<circle cx="90145.7" cy="63794.2" r="118.11" /> 
<circle cx="90145.7" cy="64794.2" r="118.11" /> 
<circle cx="91145.7" cy="63794.2" r="118.11" /> 
<circle cx="91145.7" cy="64794.2" r="118.11" /> 
<circle cx="92145.7" cy="63794.2" r="118.11" /> 
<circle cx="92145.7" cy="64794.2" r="118.11" /> 
<circle cx="93145.7" cy="63794.2" r="118.11" /> 
<circle cx="93145.7" cy="64794.2" r="118.11" /> 
<circle cx="94145.7" cy="63794.2" r="118.11" /> 
<circle cx="94145.7" cy="64794.2" r="118.11" /> 
<circle cx="100787" cy="54502.8" r="118.11" /> 
<circle cx="101787" cy="54502.8" r="118.11" /> 
<circle cx="100787" cy="53502.8" r="118.11" /> 
<circle cx="101787" cy="53502.8" r="118.11" /> 
<circle cx="100787" cy="52502.8" r="118.11" /> 
<circle cx="101787" cy="52502.8" r="118.11" /> 
<circle cx="100787" cy="51502.8" r="118.11" /> 
<circle cx="101787" cy="51502.8" r="118.11" /> 
<circle cx="100787" cy="50502.8" r="118.11" /> 
<circle cx="101787" cy="50502.8" r="118.11" /> 
<circle cx="100787" cy="49502.8" r="118.11" /> 
<circle cx="101787" cy="49502.8" r="118.11" /> 
<circle cx="100787" cy="48502.8" r="118.11" /> 
<circle cx="101787" cy="48502.8" r="118.11" /> 
<circle cx="100787" cy="47502.8" r="118.11" /> 
<circle cx="101787" cy="47502.8" r="118.11" /> 
<circle cx="100787" cy="46502.8" r="118.11" /> 
<circle cx="101787" cy="46502.8" r="118.11" /> 
<circle cx="100787" cy="45502.8" r="118.11" /> 
<circle cx="101787" cy="45502.8" r="118.11" /> 
<circle cx="100787" cy="44502.8" r="118.11" /> 
<circle cx="101787" cy="44502.8" r="118.11" /> 
<circle cx="100787" cy="43502.8" r="118.11" /> 
<circle cx="101787" cy="43502.8" r="118.11" /> 
<circle cx="100787" cy="42502.8" r="118.11" /> 
<circle cx="101787" cy="42502.8" r="118.11" /> 
<circle cx="100787" cy="41502.8" r="118.11" /> 
<circle cx="101787" cy="41502.8" r="118.11" /> 
<circle cx="100787" cy="40502.8" r="118.11" /> 
<circle cx="101787" cy="40502.8" r="118.11" /> 
<circle cx="100787" cy="39502.8" r="118.11" /> 
<circle cx="101787" cy="39502.8" r="118.11" /> 
<circle cx="100787" cy="38502.8" r="118.11" /> 
<circle cx="101787" cy="38502.8" r="118.11" /> 
<circle cx="100787" cy="37502.8" r="118.11" /> 
<circle cx="101787" cy="37502.8" r="118.11" /> 
<circle cx="100787" cy="36502.8" r="118.11" /> 
<circle cx="101787" cy="36502.8" r="118.11" /> 
<circle cx="100787" cy="35502.8" r="118.11" /> 
<circle cx="101787" cy="35502.8" r="118.11" /> 
<circle cx="72787.4" cy="54502.8" r="118.11" /> 
<circle cx="73787.4" cy="54502.8" r="118.11" /> 
<circle cx="72787.4" cy="53502.8" r="118.11" /> 
<circle cx="73787.4" cy="53502.8" r="118.11" /> 
<circle cx="72787.4" cy="52502.8" r="118.11" /> 
<circle cx="73787.4" cy="52502.8" r="118.11" /> 
<circle cx="72787.4" cy="51502.8" r="118.11" /> 
<circle cx="73787.4" cy="51502.8" r="118.11" /> 
<circle cx="72787.4" cy="50502.8" r="118.11" /> 
<circle cx="73787.4" cy="50502.8" r="118.11" /> 
<circle cx="72787.4" cy="49502.8" r="118.11" /> 
<circle cx="73787.4" cy="49502.8" r="118.11" /> 
<circle cx="72787.4" cy="48502.8" r="118.11" /> 
<circle cx="73787.4" cy="48502.8" r="118.11" /> 
<circle cx="72787.4" cy="47502.8" r="118.11" /> 
<circle cx="73787.4" cy="47502.8" r="118.11" /> 
<circle cx="72787.4" cy="46502.8" r="118.11" /> 
<circle cx="73787.4" cy="46502.8" r="118.11" /> 
<circle cx="72787.4" cy="45502.8" r="118.11" /> 
<circle cx="73787.4" cy="45502.8" r="118.11" /> 
<circle cx="72787.4" cy="44502.8" r="118.11" /> 
<circle cx="73787.4" cy="44502.8" r="118.11" /> 
<circle cx="72787.4" cy="43502.8" r="118.11" /> 
<circle cx="73787.4" cy="43502.8" r="118.11" /> 
<circle cx="72787.4" cy="42502.8" r="118.11" /> 
<circle cx="73787.4" cy="42502.8" r="118.11" /> 
<circle cx="72787.4" cy="41502.8" r="118.11" /> 
<circle cx="73787.4" cy="41502.8" r="118.11" /> 
<circle cx="72787.4" cy="40502.8" r="118.11" /> 
<circle cx="73787.4" cy="40502.8" r="118.11" /> 
<circle cx="72787.4" cy="39502.8" r="118.11" /> 
<circle cx="73787.4" cy="39502.8" r="118.11" /> 
<circle cx="72787.4" cy="38502.8" r="118.11" /> 
<circle cx="73787.4" cy="38502.8" r="118.11" /> 
<circle cx="72787.4" cy="37502.8" r="118.11" /> 
<circle cx="73787.4" cy="37502.8" r="118.11" /> 
<circle cx="72787.4" cy="36502.8" r="118.11" /> 
<circle cx="73787.4" cy="36502.8" r="118.11" /> 
<circle cx="72787.4" cy="35502.8" r="118.11" /> 
<circle cx="73787.4" cy="35502.8" r="118.11" /> 
<circle cx="72257.9" cy="68693.8" r="118.11" /> 
<circle cx="73257.9" cy="68693.8" r="118.11" /> 
<circle cx="74257.9" cy="68693.8" r="118.11" /> 
<circle cx="96958.7" cy="58209.5" r="118.11" /> 
<circle cx="96958.7" cy="57209.5" r="118.11" /> 
<circle cx="101811" cy="70014.6" r="118.11" /> 
<circle cx="101811" cy="71014.6" r="118.11" /> 
<circle cx="103089" cy="66223.3" r="118.11" /> 
<circle cx="102089" cy="66223.3" r="118.11" /> 
<circle cx="76683.1" cy="68701.7" r="118.11" /> 
<circle cx="76683.1" cy="67701.7" r="118.11" /> 
<circle cx="69960.6" cy="68701.7" r="118.11" /> 
<circle cx="69960.6" cy="67701.7" r="118.11" /> 
<circle cx="98976.4" cy="70024.5" r="118.11" /> 
<circle cx="98976.4" cy="71024.5" r="118.11" /> 
<circle cx="78740.2" cy="68701.7" r="118.11" /> 
<circle cx="78740.2" cy="67701.7" r="118.11" /> 
<circle cx="69655.5" cy="63113.1" r="118.11" /> 
<circle cx="78750" cy="61774.5" r="118.11" /> 
<circle cx="96299.2" cy="46607.2" r="118.11" /> 
<circle cx="97096.5" cy="36331.6" r="118.11" /> 
<circle cx="71023.6" cy="35563.9" r="118.11" /> 
<circle cx="103632" cy="36302" r="118.11" /> 
<circle cx="80098.4" cy="67453.6" r="118.11" /> 
<circle cx="94744.1" cy="61981.2" r="118.11" /> 
<circle cx="83643.7" cy="67317.8" r="118.11" /> 
<circle cx="83643.7" cy="68317.8" r="118.11" /> 
<circle cx="84643.7" cy="67317.8" r="118.11" /> 
<circle cx="84643.7" cy="68317.8" r="118.11" /> 
<circle cx="95442.9" cy="51705.6" r="118.11" /> 
<circle cx="96998" cy="71784.3" r="118.11" /> 
<circle cx="100594" cy="60400.5" r="118.11" /> 
<circle cx="102594" cy="60400.5" r="118.11" /> 
<circle cx="100594" cy="57400.5" r="118.11" /> 
<circle cx="102594" cy="57400.5" r="118.11" /> 
<circle cx="101291" cy="62760.7" r="118.11" /> 
<circle cx="101291" cy="63760.7" r="118.11" /> 
<circle cx="102291" cy="62760.7" r="118.11" /> 
<circle cx="102291" cy="63760.7" r="118.11" /> 
<circle cx="97962.6" cy="54394.6" r="118.11" /> 
<circle cx="97962.6" cy="55394.6" r="118.11" /> 
<circle cx="96565" cy="52327.6" r="118.11" /> 
<circle cx="96565" cy="53327.6" r="118.11" /> 
<circle cx="89685" cy="67630.8" r="118.11" /> 
</g> 
</svg>
