<?xml version="1.0" standalone="no"?>
 <!DOCTYPE svg PUBLIC "-//W3C//DTD SVG 1.1//EN" 
 "http://www.w3.org/Graphics/SVG/1.1/DTD/svg11.dtd"> 
<svg xmlns="http://www.w3.org/2000/svg" version="1.1" 
    width="29.7002cm" height="21.0007cm" viewBox="0 0 116930 82680 ">
<title>SVG Picture created as poncho_rescatAR-F_Cu.svg date 2015/12/04 13:30:59 </title>
  <desc>Picture generated by PCBNEW </desc>
<g style="fill:#000000; fill-opacity:1;stroke:#000000; stroke-opacity:1;
stroke-linecap:round; stroke-linejoin:round; "
 transform="translate(0 0) scale(1 1)">
</g>
<g style="fill:#000000; fill-opacity:0.0; 
stroke:#000000; stroke-width:98.4252; stroke-opacity:1; 
stroke-linecap:round; stroke-linejoin:round;">
<path d="M93750 32671
L93750 32146
" />
<path d="M93750 32296
L93712 32221
L93675 32183
L93600 32146
L93525 32146
" />
<path d="M92963 32633
L93038 32671
L93188 32671
L93263 32633
L93300 32558
L93300 32258
L93263 32183
L93188 32146
L93038 32146
L92963 32183
L92925 32258
L92925 32333
L93300 32408
" />
<path d="M92625 32633
L92550 32671
L92400 32671
L92325 32633
L92288 32558
L92288 32521
L92325 32446
L92400 32408
L92513 32408
L92588 32371
L92625 32296
L92625 32258
L92588 32183
L92513 32146
L92400 32146
L92325 32183
" />
<path d="M91613 32633
L91688 32671
L91838 32671
L91913 32633
L91950 32596
L91988 32521
L91988 32296
L91950 32221
L91913 32183
L91838 32146
L91688 32146
L91613 32183
" />
<path d="M90938 32671
L90938 32258
L90975 32183
L91050 32146
L91200 32146
L91275 32183
" />
<path d="M90938 32633
L91013 32671
L91200 32671
L91275 32633
L91313 32558
L91313 32483
L91275 32408
L91200 32371
L91013 32371
L90938 32333
" />
<path d="M90675 32146
L90375 32146
" />
<path d="M90563 31883
L90563 32558
L90525 32633
L90450 32671
L90375 32671
" />
<path d="M90150 32446
L89775 32446
" />
<path d="M90225 32671
L89963 31883
L89700 32671
" />
<path d="M88988 32671
L89251 32296
" />
<path d="M89438 32671
L89438 31883
L89138 31883
L89063 31921
L89026 31958
L88988 32033
L88988 32146
L89026 32221
L89063 32258
L89138 32296
L89438 32296
" />
<path d="M88051 32371
L87451 32371
" />
<path d="M86588 31883
L86138 31883
" />
<path d="M86363 32671
L86363 31883
" />
<path d="M85876 32596
L85838 32633
L85876 32671
L85913 32633
L85876 32596
L85876 32671
" />
<path d="M84564 32671
L84564 31883
" />
<path d="M84564 32633
L84639 32671
L84789 32671
L84864 32633
L84901 32596
L84939 32521
L84939 32296
L84901 32221
L84864 32183
L84789 32146
L84639 32146
L84564 32183
" />
<path d="M83889 32633
L83964 32671
L84114 32671
L84189 32633
L84226 32558
L84226 32258
L84189 32183
L84114 32146
L83964 32146
L83889 32183
L83851 32258
L83851 32333
L84226 32408
" />
<path d="M82914 32671
L82914 31883
L82614 31883
L82539 31921
L82501 31958
L82464 32033
L82464 32146
L82501 32221
L82539 32258
L82614 32296
L82914 32296
" />
<path d="M82126 32671
L82126 32146
" />
<path d="M82126 32296
L82089 32221
L82051 32183
L81976 32146
L81901 32146
" />
<path d="M81526 32671
L81601 32633
L81639 32596
L81676 32521
L81676 32296
L81639 32221
L81601 32183
L81526 32146
L81414 32146
L81339 32183
L81302 32221
L81264 32296
L81264 32521
L81302 32596
L81339 32633
L81414 32671
L81526 32671
" />
<path d="M81002 32146
L80814 32671
" />
<path d="M80627 32146
L80814 32671
L80889 32858
L80927 32896
L81002 32933
" />
<path d="M80027 32633
L80102 32671
L80252 32671
L80327 32633
L80364 32558
L80364 32258
L80327 32183
L80252 32146
L80102 32146
L80027 32183
L79989 32258
L79989 32333
L80364 32408
" />
<path d="M79314 32633
L79389 32671
L79539 32671
L79614 32633
L79652 32596
L79689 32521
L79689 32296
L79652 32221
L79614 32183
L79539 32146
L79389 32146
L79314 32183
" />
<path d="M79089 32146
L78789 32146
" />
<path d="M78977 31883
L78977 32558
L78939 32633
L78864 32671
L78789 32671
" />
<path d="M78414 32671
L78489 32633
L78527 32596
L78564 32521
L78564 32296
L78527 32221
L78489 32183
L78414 32146
L78302 32146
L78227 32183
L78189 32221
L78152 32296
L78152 32521
L78189 32596
L78227 32633
L78302 32671
L78414 32671
" />
<path d="M76802 32671
L77252 32671
" />
<path d="M77027 32671
L77027 31883
L77102 31996
L77177 32071
L77252 32108
" />
<path d="M86945 33159
L86907 33121
L86832 33084
L86645 33084
L86570 33121
L86532 33159
L86495 33234
L86495 33309
L86532 33421
L86982 33871
L86495 33871
" />
<path d="M86007 33084
L85932 33084
L85857 33121
L85820 33159
L85782 33234
L85745 33384
L85745 33571
L85782 33721
L85820 33796
L85857 33834
L85932 33871
L86007 33871
L86082 33834
L86120 33796
L86157 33721
L86195 33571
L86195 33384
L86157 33234
L86120 33159
L86082 33121
L86007 33084
" />
<path d="M84995 33871
L85445 33871
" />
<path d="M85220 33871
L85220 33084
L85295 33196
L85370 33271
L85445 33309
" />
<path d="M84282 33084
L84657 33084
L84695 33459
L84657 33421
L84582 33384
L84395 33384
L84320 33421
L84282 33459
L84245 33534
L84245 33721
L84282 33796
L84320 33834
L84395 33871
L84582 33871
L84657 33834
L84695 33796
" />
<path d="M89494 34285
L89232 35072
L88969 34285
" />
<path d="M88707 35072
L88707 34547
" />
<path d="M88707 34285
L88744 34322
L88707 34360
L88669 34322
L88707 34285
L88707 34360
" />
<path d="M87994 35072
L87994 34660
L88032 34585
L88107 34547
L88257 34547
L88332 34585
" />
<path d="M87994 35035
L88069 35072
L88257 35072
L88332 35035
L88369 34960
L88369 34885
L88332 34810
L88257 34772
L88069 34772
L87994 34735
" />
<path d="M87732 34547
L87432 34547
" />
<path d="M87619 34285
L87619 34960
L87582 35035
L87507 35072
L87432 35072
" />
<path d="M86832 34547
L86832 35185
L86870 35260
L86907 35297
L86982 35335
L87095 35335
L87170 35297
" />
<path d="M86832 35035
L86907 35072
L87057 35072
L87132 35035
L87170 34997
L87207 34922
L87207 34697
L87170 34622
L87132 34585
L87057 34547
L86907 34547
L86832 34585
" />
<path d="M86157 35035
L86232 35072
L86382 35072
L86457 35035
L86495 34960
L86495 34660
L86457 34585
L86382 34547
L86232 34547
L86157 34585
L86120 34660
L86120 34735
L86495 34810
" />
<path d="M84920 34660
L84807 34697
L84770 34735
L84732 34810
L84732 34922
L84770 34997
L84807 35035
L84882 35072
L85182 35072
L85182 34285
L84920 34285
L84845 34322
L84807 34360
L84770 34435
L84770 34510
L84807 34585
L84845 34622
L84920 34660
L85182 34660
" />
<path d="M84057 35072
L84057 34660
L84095 34585
L84170 34547
L84320 34547
L84395 34585
" />
<path d="M84057 35035
L84132 35072
L84320 35072
L84395 35035
L84432 34960
L84432 34885
L84395 34810
L84320 34772
L84132 34772
L84057 34735
" />
<path d="M83720 35035
L83645 35072
L83495 35072
L83420 35035
L83383 34960
L83383 34922
L83420 34847
L83495 34810
L83607 34810
L83682 34772
L83720 34697
L83720 34660
L83682 34585
L83607 34547
L83495 34547
L83420 34585
" />
<path d="M83158 34547
L82858 34547
" />
<path d="M83045 34285
L83045 34960
L83008 35035
L82933 35072
L82858 35072
" />
<path d="M82595 35072
L82595 34547
" />
<path d="M82595 34285
L82633 34322
L82595 34360
L82558 34322
L82595 34285
L82595 34360
" />
<path d="M81920 35035
L81995 35072
L82145 35072
L82220 35035
L82258 34960
L82258 34660
L82220 34585
L82145 34547
L81995 34547
L81920 34585
L81883 34660
L81883 34735
L82258 34810
" />
<path d="M81545 34547
L81545 35072
" />
<path d="M81545 34622
L81508 34585
L81433 34547
L81320 34547
L81245 34585
L81208 34660
L81208 35072
" />
<path d="M91988 36273
L91988 35486
L91725 36048
L91463 35486
L91463 36273
" />
<path d="M91088 36273
L91088 35748
" />
<path d="M91088 35486
L91125 35523
L91088 35561
L91050 35523
L91088 35486
L91088 35561
" />
<path d="M90713 35748
L90713 36273
" />
<path d="M90713 35823
L90675 35785
L90600 35748
L90488 35748
L90413 35785
L90375 35860
L90375 36273
" />
<path d="M90000 36273
L90000 35748
" />
<path d="M90000 35486
L90038 35523
L90000 35561
L89963 35523
L90000 35486
L90000 35561
" />
<path d="M89288 35748
L89288 36385
L89326 36460
L89363 36498
L89438 36535
L89550 36535
L89625 36498
" />
<path d="M89288 36235
L89363 36273
L89513 36273
L89588 36235
L89625 36198
L89663 36123
L89663 35898
L89625 35823
L89588 35785
L89513 35748
L89363 35748
L89288 35785
" />
<path d="M88426 35486
L87976 35486
" />
<path d="M88201 36273
L88201 35486
" />
<path d="M87713 36273
L87713 35748
" />
<path d="M87713 35898
L87676 35823
L87638 35785
L87563 35748
L87488 35748
" />
<path d="M86888 36273
L86888 35860
L86926 35785
L87001 35748
L87151 35748
L87226 35785
" />
<path d="M86888 36235
L86963 36273
L87151 36273
L87226 36235
L87263 36160
L87263 36085
L87226 36010
L87151 35973
L86963 35973
L86888 35935
" />
<path d="M86588 35748
L86401 36273
L86213 35748
" />
<path d="M85613 36235
L85688 36273
L85838 36273
L85913 36235
L85951 36160
L85951 35860
L85913 35785
L85838 35748
L85688 35748
L85613 35785
L85576 35860
L85576 35935
L85951 36010
" />
<path d="M85239 36273
L85239 35748
" />
<path d="M85239 35898
L85201 35823
L85164 35785
L85089 35748
L85014 35748
" />
<path d="M84789 36235
L84714 36273
L84564 36273
L84489 36235
L84451 36160
L84451 36123
L84489 36048
L84564 36010
L84676 36010
L84751 35973
L84789 35898
L84789 35860
L84751 35785
L84676 35748
L84564 35748
L84489 35785
" />
<path d="M84001 36273
L84076 36235
L84114 36198
L84151 36123
L84151 35898
L84114 35823
L84076 35785
L84001 35748
L83889 35748
L83814 35785
L83776 35823
L83739 35898
L83739 36123
L83776 36198
L83814 36235
L83889 36273
L84001 36273
" />
<path d="M82801 36273
L82801 35486
L82539 36048
L82276 35486
L82276 36273
" />
<path d="M81564 36273
L81564 35860
L81601 35785
L81676 35748
L81826 35748
L81901 35785
" />
<path d="M81564 36235
L81639 36273
L81826 36273
L81901 36235
L81939 36160
L81939 36085
L81901 36010
L81826 35973
L81639 35973
L81564 35935
" />
<path d="M81189 36273
L81189 35748
" />
<path d="M81189 35898
L81152 35823
L81114 35785
L81039 35748
L80964 35748
" />
<path d="M80364 36235
L80439 36273
L80589 36273
L80664 36235
L80702 36198
L80739 36123
L80739 35898
L80702 35823
L80664 35785
L80589 35748
L80439 35748
L80364 35785
" />
<path d="M79727 36235
L79802 36273
L79952 36273
L80027 36235
L80064 36160
L80064 35860
L80027 35785
L79952 35748
L79802 35748
L79727 35785
L79689 35860
L79689 35935
L80064 36010
" />
<path d="M79239 36273
L79314 36235
L79352 36160
L79352 35486
" />
<path d="M78827 36273
L78902 36235
L78939 36198
L78977 36123
L78977 35898
L78939 35823
L78902 35785
L78827 35748
L78714 35748
L78639 35785
L78602 35823
L78564 35898
L78564 36123
L78602 36198
L78639 36235
L78714 36273
L78827 36273
" />
<path d="M90000 37061
L89888 37099
L89850 37136
L89813 37211
L89813 37324
L89850 37399
L89888 37436
L89963 37474
L90263 37474
L90263 36686
L90000 36686
L89925 36724
L89888 36761
L89850 36836
L89850 36911
L89888 36986
L89925 37024
L90000 37061
L90263 37061
" />
<path d="M89138 37474
L89138 37061
L89176 36986
L89251 36949
L89401 36949
L89476 36986
" />
<path d="M89138 37436
L89213 37474
L89401 37474
L89476 37436
L89513 37361
L89513 37286
L89476 37211
L89401 37174
L89213 37174
L89138 37136
" />
<path d="M88763 37474
L88763 36949
" />
<path d="M88763 37099
L88726 37024
L88688 36986
L88613 36949
L88538 36949
" />
<path d="M88276 37474
L88276 36686
" />
<path d="M88276 36986
L88201 36949
L88051 36949
L87976 36986
L87938 37024
L87901 37099
L87901 37324
L87938 37399
L87976 37436
L88051 37474
L88201 37474
L88276 37436
" />
<path d="M87226 36949
L87226 37474
" />
<path d="M87563 36949
L87563 37361
L87526 37436
L87451 37474
L87338 37474
L87263 37436
L87226 37399
" />
<path d="M86888 37436
L86813 37474
L86663 37474
L86588 37436
L86551 37361
L86551 37324
L86588 37249
L86663 37211
L86776 37211
L86851 37174
L86888 37099
L86888 37061
L86851 36986
L86776 36949
L86663 36949
L86588 36986
" />
<path d="M86251 37436
L86176 37474
L86026 37474
L85951 37436
L85913 37361
L85913 37324
L85951 37249
L86026 37211
L86138 37211
L86213 37174
L86251 37099
L86251 37061
L86213 36986
L86138 36949
L86026 36949
L85951 36986
" />
<path d="M85276 37436
L85351 37474
L85501 37474
L85576 37436
L85613 37361
L85613 37061
L85576 36986
L85501 36949
L85351 36949
L85276 36986
L85239 37061
L85239 37136
L85613 37211
" />
<path d="M84301 37474
L84301 36686
L83851 37474
L83851 36686
" />
<path d="M83476 37474
L83476 36949
" />
<path d="M83476 36686
L83514 36724
L83476 36761
L83439 36724
L83476 36686
L83476 36761
" />
<path d="M82764 37436
L82839 37474
L82989 37474
L83064 37436
L83101 37399
L83139 37324
L83139 37099
L83101 37024
L83064 36986
L82989 36949
L82839 36949
L82764 36986
" />
<path d="M82314 37474
L82389 37436
L82426 37399
L82464 37324
L82464 37099
L82426 37024
L82389 36986
L82314 36949
L82201 36949
L82126 36986
L82089 37024
L82051 37099
L82051 37324
L82089 37399
L82126 37436
L82201 37474
L82314 37474
" />
<path d="M81601 37474
L81676 37436
L81714 37361
L81714 36686
" />
<path d="M80964 37474
L80964 37061
L81002 36986
L81077 36949
L81227 36949
L81302 36986
" />
<path d="M80964 37436
L81039 37474
L81227 37474
L81302 37436
L81339 37361
L81339 37286
L81302 37211
L81227 37174
L81039 37174
L80964 37136
" />
<path d="M80627 37436
L80552 37474
L80402 37474
L80327 37436
L80289 37361
L80289 37324
L80327 37249
L80402 37211
L80514 37211
L80589 37174
L80627 37099
L80627 37061
L80589 36986
L80514 36949
L80402 36949
L80327 36986
" />
<path d="M90357 37887
L90094 38675
L89832 37887
" />
<path d="M89232 38675
L89232 38262
L89269 38187
L89344 38150
L89494 38150
L89569 38187
" />
<path d="M89232 38637
L89307 38675
L89494 38675
L89569 38637
L89607 38562
L89607 38487
L89569 38412
L89494 38375
L89307 38375
L89232 38337
" />
<path d="M89344 37850
L89457 37962
" />
<path d="M88932 38150
L88519 38150
L88932 38675
L88519 38675
" />
<path d="M87882 38150
L87882 38937
" />
<path d="M87882 38637
L87957 38675
L88107 38675
L88182 38637
L88219 38600
L88257 38525
L88257 38300
L88219 38225
L88182 38187
L88107 38150
L87957 38150
L87882 38187
" />
<path d="M87170 38150
L87170 38675
" />
<path d="M87507 38150
L87507 38562
L87470 38637
L87395 38675
L87282 38675
L87207 38637
L87170 38600
" />
<path d="M86495 38637
L86570 38675
L86720 38675
L86795 38637
L86832 38562
L86832 38262
L86795 38187
L86720 38150
L86570 38150
L86495 38187
L86457 38262
L86457 38337
L86832 38412
" />
<path d="M86195 38150
L85782 38150
L86195 38675
L85782 38675
" />
<path d="M84620 38262
L84882 38262
" />
<path d="M84882 38675
L84882 37887
L84507 37887
" />
<path d="M83870 38675
L83870 38262
L83907 38187
L83982 38150
L84132 38150
L84207 38187
" />
<path d="M83870 38637
L83945 38675
L84132 38675
L84207 38637
L84245 38562
L84245 38487
L84207 38412
L84132 38375
L83945 38375
L83870 38337
" />
<path d="M83158 38637
L83233 38675
L83383 38675
L83458 38637
L83495 38600
L83532 38525
L83532 38300
L83495 38225
L83458 38187
L83383 38150
L83233 38150
L83158 38187
" />
<path d="M82483 38150
L82483 38675
" />
<path d="M82820 38150
L82820 38562
L82783 38637
L82708 38675
L82595 38675
L82520 38637
L82483 38600
" />
<path d="M82108 38150
L82108 38675
" />
<path d="M82108 38225
L82070 38187
L81995 38150
L81883 38150
L81808 38187
L81770 38262
L81770 38675
" />
<path d="M81058 38675
L81058 37887
" />
<path d="M81058 38637
L81133 38675
L81283 38675
L81358 38637
L81395 38600
L81433 38525
L81433 38300
L81395 38225
L81358 38187
L81283 38150
L81133 38150
L81058 38187
" />
<path d="M80570 38675
L80645 38637
L80683 38600
L80720 38525
L80720 38300
L80683 38225
L80645 38187
L80570 38150
L80458 38150
L80383 38187
L80345 38225
L80308 38300
L80308 38525
L80345 38600
L80383 38637
L80458 38675
L80570 38675
" />
<path d="M88932 39125
L89007 39088
L89119 39088
L89232 39125
L89307 39200
L89344 39275
L89382 39425
L89382 39538
L89344 39688
L89307 39763
L89232 39838
L89119 39875
L89044 39875
L88932 39838
L88894 39800
L88894 39538
L89044 39538
" />
<path d="M88219 39875
L88219 39463
L88257 39388
L88332 39350
L88482 39350
L88557 39388
" />
<path d="M88219 39838
L88294 39875
L88482 39875
L88557 39838
L88594 39763
L88594 39688
L88557 39613
L88482 39575
L88294 39575
L88219 39538
" />
<path d="M87844 39875
L87844 39350
" />
<path d="M87844 39500
L87807 39425
L87769 39388
L87694 39350
L87619 39350
" />
<path d="M87020 39838
L87095 39875
L87245 39875
L87320 39838
L87357 39800
L87395 39725
L87395 39500
L87357 39425
L87320 39388
L87245 39350
L87095 39350
L87020 39388
" />
<path d="M86682 39875
L86682 39350
" />
<path d="M86682 39088
L86720 39125
L86682 39163
L86645 39125
L86682 39088
L86682 39163
" />
<path d="M85970 39875
L85970 39463
L86007 39388
L86082 39350
L86232 39350
L86307 39388
" />
<path d="M85970 39838
L86045 39875
L86232 39875
L86307 39838
L86345 39763
L86345 39688
L86307 39613
L86232 39575
L86045 39575
L85970 39538
" />
<path d="M84995 39875
L84995 39088
L84732 39650
L84470 39088
L84470 39875
" />
<path d="M83757 39875
L83757 39463
L83795 39388
L83870 39350
L84020 39350
L84095 39388
" />
<path d="M83757 39838
L83832 39875
L84020 39875
L84095 39838
L84132 39763
L84132 39688
L84095 39613
L84020 39575
L83832 39575
L83757 39538
" />
<path d="M83383 39350
L83383 39875
" />
<path d="M83383 39425
L83345 39388
L83270 39350
L83158 39350
L83083 39388
L83045 39463
L83045 39875
" />
<path d="M82333 39350
L82333 39875
" />
<path d="M82670 39350
L82670 39763
L82633 39838
L82558 39875
L82445 39875
L82370 39838
L82333 39800
" />
<path d="M81658 39838
L81733 39875
L81883 39875
L81958 39838
L81995 39763
L81995 39463
L81958 39388
L81883 39350
L81733 39350
L81658 39388
L81620 39463
L81620 39538
L81995 39613
" />
<path d="M81170 39875
L81245 39838
L81283 39763
L81283 39088
" />
</g>
<g style="fill:#000000; fill-opacity:0.0; 
stroke:#000000; stroke-width:669.291; stroke-opacity:1; 
stroke-linecap:round; stroke-linejoin:round;">
<path d="M103080 12769
L103395 12769
" />
<path d="M103080 13769
L103395 13769
" />
<path d="M103080 14769
L103395 14769
" />
</g>
<g style="fill:#000000; fill-opacity:0.0; 
stroke:#000000; stroke-width:787.402; stroke-opacity:1; 
stroke-linecap:round; stroke-linejoin:round;">
<path d="M91210 14261
L91210 14261
" />
<path d="M89655 14261
L89655 14261
" />
<path d="M92765 14261
L92765 14261
" />
<path d="M88080 14261
L88080 14261
" />
<path d="M98187 16604
L98187 16604
" />
<path d="M102187 16604
L102187 16604
" />
<path d="M96978 18984
L96978 18984
" />
<path d="M96978 22984
L96978 22984
" />
<path d="M97271 15137
L97271 15137
" />
<path d="M101271 15137
L101271 15137
" />
<path d="M68622 16675
L68622 16675
" />
<path d="M68622 17675
L68622 17675
" />
<path d="M98159 30082
L98159 30082
" />
<path d="M98159 31082
L98159 31082
" />
<path d="M98159 32082
L98159 32082
" />
<path d="M98159 33082
L98159 33082
" />
<path d="M98159 34082
L98159 34082
" />
<path d="M98159 35082
L98159 35082
" />
<path d="M98159 36082
L98159 36082
" />
<path d="M98159 37082
L98159 37082
" />
<path d="M75145 46885
L75145 46885
" />
<path d="M75145 45885
L75145 45885
" />
<path d="M76145 46885
L76145 46885
" />
<path d="M76145 45885
L76145 45885
" />
<path d="M77145 46885
L77145 46885
" />
<path d="M77145 45885
L77145 45885
" />
<path d="M78145 46885
L78145 46885
" />
<path d="M78145 45885
L78145 45885
" />
<path d="M79145 46885
L79145 46885
" />
<path d="M79145 45885
L79145 45885
" />
<path d="M80145 46885
L80145 46885
" />
<path d="M80145 45885
L80145 45885
" />
<path d="M81145 46885
L81145 46885
" />
<path d="M81145 45885
L81145 45885
" />
<path d="M82145 46885
L82145 46885
" />
<path d="M82145 45885
L82145 45885
" />
<path d="M83145 46885
L83145 46885
" />
<path d="M83145 45885
L83145 45885
" />
<path d="M84145 46885
L84145 46885
" />
<path d="M84145 45885
L84145 45885
" />
<path d="M85145 46885
L85145 46885
" />
<path d="M85145 45885
L85145 45885
" />
<path d="M86145 46885
L86145 46885
" />
<path d="M86145 45885
L86145 45885
" />
<path d="M87145 46885
L87145 46885
" />
<path d="M87145 45885
L87145 45885
" />
<path d="M88145 46885
L88145 46885
" />
<path d="M88145 45885
L88145 45885
" />
<path d="M89145 46885
L89145 46885
" />
<path d="M89145 45885
L89145 45885
" />
<path d="M90145 46885
L90145 46885
" />
<path d="M90145 45885
L90145 45885
" />
<path d="M91145 46885
L91145 46885
" />
<path d="M91145 45885
L91145 45885
" />
<path d="M92145 46885
L92145 46885
" />
<path d="M92145 45885
L92145 45885
" />
<path d="M93145 46885
L93145 46885
" />
<path d="M93145 45885
L93145 45885
" />
<path d="M94145 46885
L94145 46885
" />
<path d="M94145 45885
L94145 45885
" />
<path d="M75145 18885
L75145 18885
" />
<path d="M75145 17885
L75145 17885
" />
<path d="M76145 18885
L76145 18885
" />
<path d="M76145 17885
L76145 17885
" />
<path d="M77145 18885
L77145 18885
" />
<path d="M77145 17885
L77145 17885
" />
<path d="M78145 18885
L78145 18885
" />
<path d="M78145 17885
L78145 17885
" />
<path d="M79145 18885
L79145 18885
" />
<path d="M79145 17885
L79145 17885
" />
<path d="M80145 18885
L80145 18885
" />
<path d="M80145 17885
L80145 17885
" />
<path d="M81145 18885
L81145 18885
" />
<path d="M81145 17885
L81145 17885
" />
<path d="M82145 18885
L82145 18885
" />
<path d="M82145 17885
L82145 17885
" />
<path d="M83145 18885
L83145 18885
" />
<path d="M83145 17885
L83145 17885
" />
<path d="M84145 18885
L84145 18885
" />
<path d="M84145 17885
L84145 17885
" />
<path d="M85145 18885
L85145 18885
" />
<path d="M85145 17885
L85145 17885
" />
<path d="M86145 18885
L86145 18885
" />
<path d="M86145 17885
L86145 17885
" />
<path d="M87145 18885
L87145 18885
" />
<path d="M87145 17885
L87145 17885
" />
<path d="M88145 18885
L88145 18885
" />
<path d="M88145 17885
L88145 17885
" />
<path d="M89145 18885
L89145 18885
" />
<path d="M89145 17885
L89145 17885
" />
<path d="M90145 18885
L90145 18885
" />
<path d="M90145 17885
L90145 17885
" />
<path d="M91145 18885
L91145 18885
" />
<path d="M91145 17885
L91145 17885
" />
<path d="M92145 18885
L92145 18885
" />
<path d="M92145 17885
L92145 17885
" />
<path d="M93145 18885
L93145 18885
" />
<path d="M93145 17885
L93145 17885
" />
<path d="M94145 18885
L94145 18885
" />
<path d="M94145 17885
L94145 17885
" />
<path d="M100787 28177
L100787 28177
" />
<path d="M101787 28177
L101787 28177
" />
<path d="M100787 29177
L100787 29177
" />
<path d="M101787 29177
L101787 29177
" />
<path d="M100787 30177
L100787 30177
" />
<path d="M101787 30177
L101787 30177
" />
<path d="M100787 31177
L100787 31177
" />
<path d="M101787 31177
L101787 31177
" />
<path d="M100787 32177
L100787 32177
" />
<path d="M101787 32177
L101787 32177
" />
<path d="M100787 33177
L100787 33177
" />
<path d="M101787 33177
L101787 33177
" />
<path d="M100787 34177
L100787 34177
" />
<path d="M101787 34177
L101787 34177
" />
<path d="M100787 35177
L100787 35177
" />
<path d="M101787 35177
L101787 35177
" />
<path d="M100787 36177
L100787 36177
" />
<path d="M101787 36177
L101787 36177
" />
<path d="M100787 37177
L100787 37177
" />
<path d="M101787 37177
L101787 37177
" />
<path d="M100787 38177
L100787 38177
" />
<path d="M101787 38177
L101787 38177
" />
<path d="M100787 39177
L100787 39177
" />
<path d="M101787 39177
L101787 39177
" />
<path d="M100787 40177
L100787 40177
" />
<path d="M101787 40177
L101787 40177
" />
<path d="M100787 41177
L100787 41177
" />
<path d="M101787 41177
L101787 41177
" />
<path d="M100787 42177
L100787 42177
" />
<path d="M101787 42177
L101787 42177
" />
<path d="M100787 43177
L100787 43177
" />
<path d="M101787 43177
L101787 43177
" />
<path d="M100787 44177
L100787 44177
" />
<path d="M101787 44177
L101787 44177
" />
<path d="M100787 45177
L100787 45177
" />
<path d="M101787 45177
L101787 45177
" />
<path d="M100787 46177
L100787 46177
" />
<path d="M101787 46177
L101787 46177
" />
<path d="M100787 47177
L100787 47177
" />
<path d="M101787 47177
L101787 47177
" />
<path d="M72787 28177
L72787 28177
" />
<path d="M73787 28177
L73787 28177
" />
<path d="M72787 29177
L72787 29177
" />
<path d="M73787 29177
L73787 29177
" />
<path d="M72787 30177
L72787 30177
" />
<path d="M73787 30177
L73787 30177
" />
<path d="M72787 31177
L72787 31177
" />
<path d="M73787 31177
L73787 31177
" />
<path d="M72787 32177
L72787 32177
" />
<path d="M73787 32177
L73787 32177
" />
<path d="M72787 33177
L72787 33177
" />
<path d="M73787 33177
L73787 33177
" />
<path d="M72787 34177
L72787 34177
" />
<path d="M73787 34177
L73787 34177
" />
<path d="M72787 35177
L72787 35177
" />
<path d="M73787 35177
L73787 35177
" />
<path d="M72787 36177
L72787 36177
" />
<path d="M73787 36177
L73787 36177
" />
<path d="M72787 37177
L72787 37177
" />
<path d="M73787 37177
L73787 37177
" />
<path d="M72787 38177
L72787 38177
" />
<path d="M73787 38177
L73787 38177
" />
<path d="M72787 39177
L72787 39177
" />
<path d="M73787 39177
L73787 39177
" />
<path d="M72787 40177
L72787 40177
" />
<path d="M73787 40177
L73787 40177
" />
<path d="M72787 41177
L72787 41177
" />
<path d="M73787 41177
L73787 41177
" />
<path d="M72787 42177
L72787 42177
" />
<path d="M73787 42177
L73787 42177
" />
<path d="M72787 43177
L72787 43177
" />
<path d="M73787 43177
L73787 43177
" />
<path d="M72787 44177
L72787 44177
" />
<path d="M73787 44177
L73787 44177
" />
<path d="M72787 45177
L72787 45177
" />
<path d="M73787 45177
L73787 45177
" />
<path d="M72787 46177
L72787 46177
" />
<path d="M73787 46177
L73787 46177
" />
<path d="M72787 47177
L72787 47177
" />
<path d="M73787 47177
L73787 47177
" />
</g>
<g style="fill:#000000; fill-opacity:0.0; 
stroke:#000000; stroke-width:669.291; stroke-opacity:1; 
stroke-linecap:round; stroke-linejoin:round;">
<path d="M72257 14143
L72257 13828
" />
<path d="M73257 14143
L73257 13828
" />
<path d="M74257 14143
L74257 13828
" />
</g>
<g style="fill:#000000; fill-opacity:0.0; 
stroke:#000000; stroke-width:787.402; stroke-opacity:1; 
stroke-linecap:round; stroke-linejoin:round;">
<path d="M96958 24470
L96958 24470
" />
<path d="M96958 25470
L96958 25470
" />
<path d="M97726 13698
L97726 13698
" />
<path d="M97726 12698
L97726 12698
" />
<path d="M101614 12773
L101614 12773
" />
<path d="M101614 11773
L101614 11773
" />
<path d="M76683 13978
L76683 13978
" />
<path d="M76683 14978
L76683 14978
" />
<path d="M69960 13978
L69960 13978
" />
<path d="M69960 14978
L69960 14978
" />
<path d="M99832 13718
L99832 13718
" />
<path d="M99832 12718
L99832 12718
" />
<path d="M78740 13978
L78740 13978
" />
<path d="M78740 14978
L78740 14978
" />
</g>
<g style="fill:#000000; fill-opacity:0.0; 
stroke:#000000; stroke-width:39.3701; stroke-opacity:1; 
stroke-linecap:round; stroke-linejoin:round;">
</g>
<g style="fill:#000000; fill-opacity:1.0; 
stroke:#000000; stroke-width:39.3701; stroke-opacity:1; 
stroke-linecap:round; stroke-linejoin:round;">
<circle cx="69655.5" cy="19566.9" r="570.866" /> 
<circle cx="78750" cy="20905.5" r="570.866" /> 
<circle cx="96299.2" cy="36072.8" r="570.866" /> 
<circle cx="97096.5" cy="46348.4" r="570.866" /> 
<circle cx="71023.6" cy="47116.1" r="570.866" /> 
<circle cx="103632" cy="46378" r="570.866" /> 
<circle cx="81446.9" cy="15137.8" r="570.866" /> 
<circle cx="94744.1" cy="20698.8" r="570.866" /> 
</g>
<g style="fill:#000000; fill-opacity:1.0; 
stroke:#000000; stroke-width:787.402; stroke-opacity:1; 
stroke-linecap:round; stroke-linejoin:round;">
<path d="M83643 15362
L83643 15362
" />
<path d="M83643 14362
L83643 14362
" />
<path d="M84643 15362
L84643 15362
" />
<path d="M84643 14362
L84643 14362
" />
</g>
<g style="fill:#000000; fill-opacity:1.0; 
stroke:#000000; stroke-width:39.3701; stroke-opacity:1; 
stroke-linecap:round; stroke-linejoin:round;">
<circle cx="95442.9" cy="30974.4" r="570.866" /> 
<circle cx="95698.8" cy="12736.2" r="570.866" /> 
<circle cx="100594" cy="22279.5" r="570.866" /> 
<circle cx="102594" cy="22279.5" r="570.866" /> 
<circle cx="100594" cy="25279.5" r="570.866" /> 
<circle cx="102594" cy="25279.5" r="570.866" /> 
</g>
<g style="fill:#000000; fill-opacity:1.0; 
stroke:#000000; stroke-width:787.402; stroke-opacity:1; 
stroke-linecap:round; stroke-linejoin:round;">
<path d="M101291 19919
L101291 19919
" />
<path d="M101291 18919
L101291 18919
" />
<path d="M102291 19919
L102291 19919
" />
<path d="M102291 18919
L102291 18919
" />
<path d="M97962 28285
L97962 28285
" />
<path d="M97962 27285
L97962 27285
" />
<path d="M96564 30352
L96564 30352
" />
<path d="M96564 29352
L96564 29352
" />
</g>
<g style="fill:#000000; fill-opacity:1.0; 
stroke:#000000; stroke-width:39.3701; stroke-opacity:1; 
stroke-linecap:round; stroke-linejoin:round;">
<polyline style="fill-rule:evenodd;"
points="105068,49054
104192,49054
104192,14769
104133,14471
103998,14269
104133,14067
104192,13769
104133,13471
103998,13269
104133,13067
104192,12769
104133,12471
103964,12219
103711,12050
103414,11991
103062,11991
102764,12050
102512,12219
102377,12420
102206,12165
101934,11983
101614,11919
101293,11983
101022,12165
100840,12436
100776,12757
100776,12790
100840,13110
101022,13382
101293,13563
101614,13627
101934,13563
102206,13382
102379,13122
102478,13269
102343,13471
102284,13769
102343,14067
102478,14269
102343,14471
102284,14769
102343,15067
102512,15320
102764,15488
103062,15548
103414,15548
103711,15488
103964,15320
104133,15067
104192,14769
104192,49054
103145,49054
103145,18919
103081,18598
102899,18327
102628,18145
102307,18081
102274,18081
102125,18111
102125,15137
102061,14817
101880,14545
101608,14364
101288,14300
101255,14300
100934,14364
100670,14541
100670,13734
100670,13702
100606,13381
100424,13109
100153,12928
99832,12864
99512,12928
99240,13109
99059,13381
98995,13702
98995,13734
99059,14055
99240,14327
99512,14508
99832,14572
100153,14508
100424,14327
100606,14055
100670,13734
100670,14541
100663,14545
100481,14817
100417,15137
100481,15458
100663,15729
100934,15911
101255,15975
101288,15975
101608,15911
101880,15729
102061,15458
102125,15137
102125,18111
101954,18145
101791,18254
101628,18145
101307,18081
101274,18081
100954,18145
100682,18327
100501,18598
100437,18919
100501,19239
100682,19511
100954,19692
101274,19756
101307,19756
101628,19692
101791,19583
101954,19692
102274,19756
102307,19756
102628,19692
102899,19511
103081,19239
103145,18919
103145,49054
102624,49054
102624,45193
102624,45160
102561,44840
102452,44677
102561,44514
102624,44193
102624,44160
102561,43840
102379,43568
102107,43387
101787,43323
101591,43362
101624,43193
101624,43160
101561,42840
101452,42677
101561,42514
101624,42193
101624,42160
101561,41840
101452,41677
101561,41514
101624,41193
101624,41160
101561,40840
101452,40677
101561,40514
101624,40193
101624,40160
101561,39840
101452,39677
101561,39514
101624,39193
101624,39160
101561,38840
101452,38677
101561,38514
101624,38193
101624,38160
101561,37840
101452,37677
101561,37514
101624,37193
101624,37160
101591,36991
101787,37030
102107,36967
102379,36785
102561,36514
102624,36193
102624,36160
102561,35840
102452,35677
102561,35514
102624,35193
102624,35160
102561,34840
102452,34677
102561,34514
102624,34193
102624,34160
102561,33840
102452,33677
102561,33514
102624,33193
102624,33160
102561,32840
102452,32677
102561,32514
102624,32193
102624,32160
102561,31840
102452,31677
102561,31514
102624,31193
102624,31160
102561,30840
102452,30677
102561,30514
102624,30193
102624,30160
102561,29840
102379,29568
102107,29387
101787,29323
101591,29362
101624,29193
101624,29160
101591,28991
101787,29030
102107,28967
102379,28785
102561,28514
102624,28193
102624,28160
102561,27840
102379,27568
102107,27387
101787,27323
101628,27354
101628,25074
101628,22074
101471,21694
101181,21403
100801,21245
100389,21245
100009,21402
99718,21692
99560,22072
99560,22484
99717,22864
100007,23155
100387,23313
100799,23313
101179,23156
101470,22866
101628,22486
101628,22074
101628,25074
101471,24694
101181,24403
100801,24245
100389,24245
100009,24402
99718,24692
99560,25072
99560,25484
99717,25864
100007,26155
100387,26313
100799,26313
101179,26156
101470,25866
101628,25486
101628,25074
101628,27354
101466,27387
101287,27507
101107,27387
100787,27323
100466,27387
100195,27568
100013,27840
99950,28160
99950,28193
100013,28514
100122,28677
100013,28840
99950,29160
99950,29193
100013,29514
100122,29677
100013,29840
99950,30160
99950,30193
100013,30514
100122,30677
100013,30840
99950,31160
99950,31193
100013,31514
100122,31677
100013,31840
99950,32160
99950,32193
100013,32514
100122,32677
100013,32840
99950,33160
99950,33193
100013,33514
100122,33677
100013,33840
99950,34160
99950,34193
100013,34514
100122,34677
100013,34840
99950,35160
99950,35193
100013,35514
100122,35677
100013,35840
99950,36160
99950,36193
100013,36514
100122,36677
100013,36840
99950,37160
99950,37193
100013,37514
100122,37677
100013,37840
99950,38160
99950,38193
100013,38514
100122,38677
100013,38840
99950,39160
99950,39193
100013,39514
100122,39677
100013,39840
99950,40160
99950,40193
100013,40514
100122,40677
100013,40840
99950,41160
99950,41193
100013,41514
100122,41677
100013,41840
99950,42160
99950,42193
100013,42514
100122,42677
100013,42840
99950,43160
99950,43193
100013,43514
100122,43677
100013,43840
99950,44160
99950,44193
100013,44514
100122,44677
100013,44840
99950,45160
99950,45193
100013,45514
100122,45677
100013,45840
99950,46160
99950,46193
100013,46514
100122,46677
100013,46840
99950,47160
99950,47193
100013,47514
100195,47785
100466,47967
100787,48030
101107,47967
101379,47785
101561,47514
101624,47193
101624,47160
101561,46840
101452,46677
101561,46514
101624,46193
101624,46160
101591,45991
101787,46030
102107,45967
102379,45785
102561,45514
102624,45193
102624,49054
99040,49054
99040,16604
98977,16283
98795,16012
98563,15857
98563,13715
98563,13682
98500,13361
98318,13090
98046,12908
97726,12845
97405,12908
97134,13090
96952,13361
96888,13682
96888,13715
96952,14035
97134,14307
97153,14320
96934,14364
96663,14545
96481,14817
96417,15137
96481,15458
96663,15729
96934,15911
97255,15975
97288,15975
97608,15911
97880,15729
98061,15458
98125,15137
98061,14817
97880,14545
97852,14527
98046,14488
98318,14307
98500,14035
98563,13715
98563,15857
98523,15830
98203,15766
98170,15766
97850,15830
97578,16012
97396,16283
97333,16604
97396,16924
97578,17196
97850,17377
98170,17441
98203,17441
98523,17377
98795,17196
98977,16924
99040,16604
99040,49054
98996,49054
98996,37099
98996,37066
98996,35099
98996,35066
98933,34745
98824,34582
98933,34419
98996,34099
98996,34066
98933,33745
98824,33582
98933,33419
98996,33099
98996,33066
98933,32745
98824,32582
98933,32419
98996,32099
98996,32066
98996,30099
98996,30066
98933,29745
98800,29546
98800,28301
98800,28269
98736,27948
98554,27676
98283,27495
97962,27431
97815,27460
97815,23000
97815,22967
97815,19000
97815,18967
97752,18647
97570,18375
97298,18194
96978,18130
96657,18194
96386,18375
96204,18647
96140,18967
96140,19000
96204,19321
96386,19592
96657,19774
96978,19838
97298,19774
97570,19592
97752,19321
97815,19000
97815,22967
97752,22647
97570,22375
97298,22194
96978,22130
96657,22194
96386,22375
96204,22647
96140,22967
96140,23000
96204,23321
96386,23592
96577,23720
96366,23861
96185,24133
96121,24454
96121,24486
96185,24807
96294,24970
96185,25133
96121,25454
96121,25486
96185,25807
96366,26079
96638,26260
96958,26324
97279,26260
97550,26079
97732,25807
97796,25486
97796,25454
97732,25133
97623,24970
97732,24807
97796,24486
97796,24454
97732,24133
97550,23861
97359,23733
97570,23592
97752,23321
97815,23000
97815,27460
97642,27495
97370,27676
97188,27948
97125,28269
97125,28301
97188,28622
97370,28893
97642,29075
97962,29139
98283,29075
98554,28893
98736,28622
98800,28301
98800,29546
98751,29474
98479,29292
98159,29228
97838,29292
97567,29474
97402,29721
97402,29368
97402,29335
97338,29015
97157,28743
96885,28562
96564,28498
96244,28562
95972,28743
95791,29015
95727,29335
95727,29368
95791,29689
95972,29960
96244,30142
96564,30206
96885,30142
97157,29960
97338,29689
97402,29368
97402,29721
97385,29745
97322,30066
97322,30099
97385,30419
97567,30691
97838,30872
98159,30936
98479,30872
98751,30691
98933,30419
98996,30099
98996,32066
98933,31745
98751,31474
98479,31292
98159,31228
97838,31292
97567,31474
97385,31745
97322,32066
97322,32099
97385,32419
97494,32582
97385,32745
97322,33066
97322,33099
97385,33419
97494,33582
97385,33745
97322,34066
97322,34099
97385,34419
97494,34582
97385,34745
97322,35066
97322,35099
97385,35419
97567,35691
97838,35872
98159,35936
98479,35872
98751,35691
98933,35419
98996,35099
98996,37066
98933,36745
98751,36474
98479,36292
98159,36228
97838,36292
97567,36474
97385,36745
97322,37066
97322,37099
97385,37419
97567,37691
97838,37872
98159,37936
98479,37872
98751,37691
98933,37419
98996,37099
98996,49054
94430,49054
94430,40601
94430,31209
93999,31209
93999,18885
93935,18565
93754,18293
93619,18203
93619,14261
93555,13941
93374,13669
93102,13488
92782,13424
92749,13424
92428,13488
92157,13669
91988,13922
91819,13669
91547,13488
91227,13424
91194,13424
90873,13488
90602,13669
90420,13941
90356,14261
90420,14582
90602,14853
90873,15035
91194,15099
91227,15099
91547,15035
91819,14853
91988,14600
92157,14853
92428,15035
92749,15099
92782,15099
93102,15035
93374,14853
93555,14582
93619,14261
93619,18203
93482,18112
93162,18048
93129,18048
92960,18082
92999,17885
92935,17565
92754,17293
92482,17112
92162,17048
92129,17048
91808,17112
91645,17221
91482,17112
91162,17048
91129,17048
90808,17112
90645,17221
90482,17112
90162,17048
90129,17048
89808,17112
89645,17221
89482,17112
89162,17048
89129,17048
88934,17087
88934,14261
88870,13941
88689,13669
88417,13488
88097,13424
88064,13424
87743,13488
87472,13669
87290,13941
87226,14261
87290,14582
87472,14853
87743,15035
88064,15099
88097,15099
88417,15035
88689,14853
88870,14582
88934,14261
88934,17087
88808,17112
88537,17293
88355,17565
88291,17885
88355,18206
88475,18385
88355,18565
88291,18885
88355,19206
88537,19477
88808,19659
89129,19723
89162,19723
89482,19659
89645,19550
89808,19659
90129,19723
90162,19723
90482,19659
90645,19550
90808,19659
91129,19723
91162,19723
91482,19659
91645,19550
91808,19659
92129,19723
92162,19723
92482,19659
92645,19550
92808,19659
93129,19723
93162,19723
93482,19659
93754,19477
93935,19206
93999,18885
93999,31209
86999,31209
86999,18885
86935,18565
86815,18385
86935,18206
86999,17885
86935,17565
86754,17293
86482,17112
86162,17048
86129,17048
85808,17112
85645,17221
85482,17112
85162,17048
85129,17048
84808,17112
84645,17221
84497,17122
84497,15362
84433,15041
84313,14862
84433,14682
84497,14362
84433,14041
84252,13770
83980,13588
83660,13524
83627,13524
83306,13588
83035,13770
82853,14041
82789,14362
82853,14682
82973,14862
82853,15041
82789,15362
82853,15682
83035,15954
83306,16135
83627,16199
83660,16199
83980,16135
84252,15954
84433,15682
84497,15362
84497,17122
84482,17112
84162,17048
84129,17048
83808,17112
83645,17221
83482,17112
83162,17048
83129,17048
82808,17112
82645,17221
82482,17112
82162,17048
82129,17048
81808,17112
81537,17293
81355,17565
81291,17885
81355,18206
81475,18385
81355,18565
81291,18885
81355,19206
81537,19477
81808,19659
82129,19723
82162,19723
82482,19659
82645,19550
82808,19659
83129,19723
83162,19723
83482,19659
83645,19550
83808,19659
84129,19723
84162,19723
84482,19659
84645,19550
84808,19659
85129,19723
85162,19723
85482,19659
85645,19550
85808,19659
86129,19723
86162,19723
86482,19659
86754,19477
86935,19206
86999,18885
86999,31209
79999,31209
79999,18885
79935,18565
79815,18385
79935,18206
79999,17885
79935,17565
79754,17293
79577,17175
79577,13994
79577,13961
79513,13641
79332,13369
79060,13188
78740,13124
78419,13188
78148,13369
77966,13641
77902,13961
77902,13994
77966,14315
78148,14586
78419,14768
78740,14832
79060,14768
79332,14586
79513,14315
79577,13994
79577,17175
79482,17112
79162,17048
79129,17048
78808,17112
78537,17293
78355,17565
78291,17885
78355,18206
78475,18385
78355,18565
78291,18885
78355,19206
78537,19477
78808,19659
79129,19723
79162,19723
79482,19659
79754,19477
79935,19206
79999,18885
79999,31209
77520,31209
77520,13994
77520,13961
77456,13641
77275,13369
77003,13188
76683,13124
76362,13188
76090,13369
75909,13641
75845,13961
75845,13994
75909,14315
76090,14586
76362,14768
76683,14832
77003,14768
77275,14586
77456,14315
77520,13994
77520,31209
76999,31209
76999,18885
76935,18565
76815,18385
76935,18206
76999,17885
76935,17565
76754,17293
76482,17112
76162,17048
76129,17048
75808,17112
75645,17221
75482,17112
75162,17048
75129,17048
75036,17066
75036,14162
75036,13810
74976,13512
74808,13260
74555,13091
74257,13032
73960,13091
73707,13260
73538,13512
73479,13810
73479,14162
73538,14459
73707,14712
73960,14881
74257,14940
74555,14881
74808,14712
74976,14459
75036,14162
75036,17066
74808,17112
74537,17293
74355,17565
74291,17885
74355,18206
74475,18385
74355,18565
74291,18885
74355,19206
74537,19477
74808,19659
75129,19723
75162,19723
75482,19659
75645,19550
75808,19659
76129,19723
76162,19723
76482,19659
76754,19477
76935,19206
76999,18885
76999,31209
76159,31209
76159,40601
94430,40601
94430,49054
93999,49054
93999,46885
93935,46565
93754,46293
93482,46112
93162,46048
93129,46048
92960,46082
92999,45885
92935,45565
92754,45293
92482,45112
92162,45048
92129,45048
91808,45112
91645,45221
91482,45112
91162,45048
91129,45048
90808,45112
90645,45221
90482,45112
90162,45048
90129,45048
89808,45112
89645,45221
89482,45112
89162,45048
89129,45048
88808,45112
88537,45293
88355,45565
88291,45885
88355,46206
88475,46385
88355,46565
88291,46885
88355,47206
88537,47477
88808,47659
89129,47723
89162,47723
89482,47659
89645,47550
89808,47659
90129,47723
90162,47723
90482,47659
90645,47550
90808,47659
91129,47723
91162,47723
91482,47659
91645,47550
91808,47659
92129,47723
92162,47723
92482,47659
92645,47550
92808,47659
93129,47723
93162,47723
93482,47659
93754,47477
93935,47206
93999,46885
93999,49054
86999,49054
86999,46885
86935,46565
86815,46385
86935,46206
86999,45885
86935,45565
86754,45293
86482,45112
86162,45048
86129,45048
85808,45112
85645,45221
85482,45112
85162,45048
85129,45048
84808,45112
84645,45221
84482,45112
84162,45048
84129,45048
83808,45112
83645,45221
83482,45112
83162,45048
83129,45048
82808,45112
82645,45221
82482,45112
82162,45048
82129,45048
81808,45112
81537,45293
81355,45565
81291,45885
81355,46206
81475,46385
81355,46565
81291,46885
81355,47206
81537,47477
81808,47659
82129,47723
82162,47723
82482,47659
82645,47550
82808,47659
83129,47723
83162,47723
83482,47659
83754,47477
83935,47206
83999,46885
83960,46689
84129,46723
84162,46723
84330,46689
84291,46885
84355,47206
84537,47477
84808,47659
85129,47723
85162,47723
85482,47659
85645,47550
85808,47659
86129,47723
86162,47723
86482,47659
86754,47477
86935,47206
86999,46885
86999,49054
79999,49054
79999,46885
79935,46565
79815,46385
79935,46206
79999,45885
79935,45565
79754,45293
79482,45112
79162,45048
79129,45048
78808,45112
78645,45221
78482,45112
78162,45048
78129,45048
77808,45112
77645,45221
77482,45112
77162,45048
77129,45048
76808,45112
76645,45221
76482,45112
76162,45048
76129,45048
75808,45112
75645,45221
75482,45112
75162,45048
75129,45048
74808,45112
74615,45241
74624,45193
74624,45160
74561,44840
74452,44677
74561,44514
74624,44193
74624,44160
74561,43840
74452,43677
74561,43514
74624,43193
74624,43160
74561,42840
74452,42677
74561,42514
74624,42193
74624,42160
74561,41840
74452,41677
74561,41514
74624,41193
74624,41160
74561,40840
74452,40677
74561,40514
74624,40193
74624,40160
74561,39840
74452,39677
74561,39514
74624,39193
74624,39160
74561,38840
74452,38677
74561,38514
74624,38193
74624,38160
74561,37840
74452,37677
74561,37514
74624,37193
74624,37160
74561,36840
74452,36677
74561,36514
74624,36193
74624,36160
74561,35840
74452,35677
74561,35514
74624,35193
74624,35160
74561,34840
74452,34677
74561,34514
74624,34193
74624,34160
74561,33840
74452,33677
74561,33514
74624,33193
74624,33160
74561,32840
74452,32677
74561,32514
74624,32193
74624,32160
74561,31840
74452,31677
74561,31514
74624,31193
74624,31160
74561,30840
74452,30677
74561,30514
74624,30193
74624,30160
74561,29840
74452,29677
74561,29514
74624,29193
74624,29160
74561,28840
74452,28677
74561,28514
74624,28193
74624,28160
74561,27840
74379,27568
74107,27387
73787,27323
73466,27387
73287,27507
73107,27387
73036,27372
73036,14162
73036,13810
72976,13512
72808,13260
72555,13091
72257,13032
71960,13091
71707,13260
71538,13512
71479,13810
71479,14162
71538,14459
71707,14712
71960,14881
72257,14940
72555,14881
72808,14712
72976,14459
73036,14162
73036,27372
72787,27323
72466,27387
72195,27568
72013,27840
71950,28160
71950,28193
72013,28514
72195,28785
72466,28967
72787,29030
72983,28991
72950,29160
72950,29193
73013,29514
73122,29677
73013,29840
72950,30160
72950,30193
73013,30514
73122,30677
73013,30840
72950,31160
72950,31193
72983,31362
72787,31323
72466,31387
72195,31568
72013,31840
71950,32160
71950,32193
72013,32514
72195,32785
72466,32967
72787,33030
72983,32991
72950,33160
72950,33193
73013,33514
73122,33677
73013,33840
72950,34160
72950,34193
72983,34362
72787,34323
72466,34387
72195,34568
72013,34840
71950,35160
71950,35193
72013,35514
72195,35785
72466,35967
72787,36030
72983,35991
72950,36160
72950,36193
73013,36514
73122,36677
73013,36840
72950,37160
72950,37193
72983,37362
72787,37323
72466,37387
72195,37568
72013,37840
71950,38160
71950,38193
72013,38514
72122,38677
72013,38840
71950,39160
71950,39193
72013,39514
72195,39785
72466,39967
72787,40030
72983,39991
72950,40160
72950,40193
73013,40514
73122,40677
73013,40840
72950,41160
72950,41193
72983,41362
72787,41323
72466,41387
72195,41568
72013,41840
71950,42160
71950,42193
72013,42514
72122,42677
72013,42840
71950,43160
71950,43193
72013,43514
72122,43677
72013,43840
71950,44160
71950,44193
72013,44514
72122,44677
72013,44840
71950,45160
71950,45193
72013,45514
72195,45785
72466,45967
72787,46030
72983,45991
72950,46160
72950,46193
73013,46514
73122,46677
73013,46840
72950,47160
72950,47193
73013,47514
73195,47785
73466,47967
73787,48030
74107,47967
74379,47785
74561,47514
74564,47496
74808,47659
75129,47723
75162,47723
75482,47659
75645,47550
75808,47659
76129,47723
76162,47723
76482,47659
76754,47477
76935,47206
76999,46885
76960,46689
77129,46723
77162,46723
77330,46689
77291,46885
77355,47206
77537,47477
77808,47659
78129,47723
78162,47723
78482,47659
78645,47550
78808,47659
79129,47723
79162,47723
79482,47659
79754,47477
79935,47206
79999,46885
79999,49054
70798,49054
70798,13994
70798,13961
70734,13641
70552,13369
70281,13188
69960,13124
69640,13188
69368,13369
69186,13641
69123,13961
69123,13994
69186,14315
69368,14586
69640,14768
69960,14832
70281,14768
70552,14586
70734,14315
70798,13994
70798,49054
69459,49054
69459,16691
69459,16658
69395,16338
69214,16066
68942,15885
68622,15821
68301,15885
68029,16066
67848,16338
67784,16658
67784,16691
67848,17012
68029,17283
68301,17465
68622,17529
68942,17465
69214,17283
69395,17012
69459,16691
69459,49054
65798,49054
65798,9784
105068,9784
105068,49054
" /> 
</g>
<g style="fill:#000000; fill-opacity:0.0; 
stroke:#000000; stroke-width:100; stroke-opacity:1; 
stroke-linecap:round; stroke-linejoin:round;">
<polyline fill="none;"
points="105068,49054
104192,49054
104192,14769
104133,14471
103998,14269
104133,14067
104192,13769
104133,13471
103998,13269
104133,13067
104192,12769
104133,12471
103964,12219
103711,12050
103414,11991
103062,11991
102764,12050
102512,12219
102377,12420
102206,12165
101934,11983
101614,11919
101293,11983
101022,12165
100840,12436
100776,12757
100776,12790
100840,13110
101022,13382
101293,13563
101614,13627
101934,13563
102206,13382
102379,13122
102478,13269
102343,13471
102284,13769
102343,14067
102478,14269
102343,14471
102284,14769
102343,15067
102512,15320
102764,15488
103062,15548
103414,15548
103711,15488
103964,15320
104133,15067
104192,14769
104192,49054
103145,49054
103145,18919
103081,18598
102899,18327
102628,18145
102307,18081
102274,18081
102125,18111
102125,15137
102061,14817
101880,14545
101608,14364
101288,14300
101255,14300
100934,14364
100670,14541
100670,13734
100670,13702
100606,13381
100424,13109
100153,12928
99832,12864
99512,12928
99240,13109
99059,13381
98995,13702
98995,13734
99059,14055
99240,14327
99512,14508
99832,14572
100153,14508
100424,14327
100606,14055
100670,13734
100670,14541
100663,14545
100481,14817
100417,15137
100481,15458
100663,15729
100934,15911
101255,15975
101288,15975
101608,15911
101880,15729
102061,15458
102125,15137
102125,18111
101954,18145
101791,18254
101628,18145
101307,18081
101274,18081
100954,18145
100682,18327
100501,18598
100437,18919
100501,19239
100682,19511
100954,19692
101274,19756
101307,19756
101628,19692
101791,19583
101954,19692
102274,19756
102307,19756
102628,19692
102899,19511
103081,19239
103145,18919
103145,49054
102624,49054
102624,45193
102624,45160
102561,44840
102452,44677
102561,44514
102624,44193
102624,44160
102561,43840
102379,43568
102107,43387
101787,43323
101591,43362
101624,43193
101624,43160
101561,42840
101452,42677
101561,42514
101624,42193
101624,42160
101561,41840
101452,41677
101561,41514
101624,41193
101624,41160
101561,40840
101452,40677
101561,40514
101624,40193
101624,40160
101561,39840
101452,39677
101561,39514
101624,39193
101624,39160
101561,38840
101452,38677
101561,38514
101624,38193
101624,38160
101561,37840
101452,37677
101561,37514
101624,37193
101624,37160
101591,36991
101787,37030
102107,36967
102379,36785
102561,36514
102624,36193
102624,36160
102561,35840
102452,35677
102561,35514
102624,35193
102624,35160
102561,34840
102452,34677
102561,34514
102624,34193
102624,34160
102561,33840
102452,33677
102561,33514
102624,33193
102624,33160
102561,32840
102452,32677
102561,32514
102624,32193
102624,32160
102561,31840
102452,31677
102561,31514
102624,31193
102624,31160
102561,30840
102452,30677
102561,30514
102624,30193
102624,30160
102561,29840
102379,29568
102107,29387
101787,29323
101591,29362
101624,29193
101624,29160
101591,28991
101787,29030
102107,28967
102379,28785
102561,28514
102624,28193
102624,28160
102561,27840
102379,27568
102107,27387
101787,27323
101628,27354
101628,25074
101628,22074
101471,21694
101181,21403
100801,21245
100389,21245
100009,21402
99718,21692
99560,22072
99560,22484
99717,22864
100007,23155
100387,23313
100799,23313
101179,23156
101470,22866
101628,22486
101628,22074
101628,25074
101471,24694
101181,24403
100801,24245
100389,24245
100009,24402
99718,24692
99560,25072
99560,25484
99717,25864
100007,26155
100387,26313
100799,26313
101179,26156
101470,25866
101628,25486
101628,25074
101628,27354
101466,27387
101287,27507
101107,27387
100787,27323
100466,27387
100195,27568
100013,27840
99950,28160
99950,28193
100013,28514
100122,28677
100013,28840
99950,29160
99950,29193
100013,29514
100122,29677
100013,29840
99950,30160
99950,30193
100013,30514
100122,30677
100013,30840
99950,31160
99950,31193
100013,31514
100122,31677
100013,31840
99950,32160
99950,32193
100013,32514
100122,32677
100013,32840
99950,33160
99950,33193
100013,33514
100122,33677
100013,33840
99950,34160
99950,34193
100013,34514
100122,34677
100013,34840
99950,35160
99950,35193
100013,35514
100122,35677
100013,35840
99950,36160
99950,36193
100013,36514
100122,36677
100013,36840
99950,37160
99950,37193
100013,37514
100122,37677
100013,37840
99950,38160
99950,38193
100013,38514
100122,38677
100013,38840
99950,39160
99950,39193
100013,39514
100122,39677
100013,39840
99950,40160
99950,40193
100013,40514
100122,40677
100013,40840
99950,41160
99950,41193
100013,41514
100122,41677
100013,41840
99950,42160
99950,42193
100013,42514
100122,42677
100013,42840
99950,43160
99950,43193
100013,43514
100122,43677
100013,43840
99950,44160
99950,44193
100013,44514
100122,44677
100013,44840
99950,45160
99950,45193
100013,45514
100122,45677
100013,45840
99950,46160
99950,46193
100013,46514
100122,46677
100013,46840
99950,47160
99950,47193
100013,47514
100195,47785
100466,47967
100787,48030
101107,47967
101379,47785
101561,47514
101624,47193
101624,47160
101561,46840
101452,46677
101561,46514
101624,46193
101624,46160
101591,45991
101787,46030
102107,45967
102379,45785
102561,45514
102624,45193
102624,49054
99040,49054
99040,16604
98977,16283
98795,16012
98563,15857
98563,13715
98563,13682
98500,13361
98318,13090
98046,12908
97726,12845
97405,12908
97134,13090
96952,13361
96888,13682
96888,13715
96952,14035
97134,14307
97153,14320
96934,14364
96663,14545
96481,14817
96417,15137
96481,15458
96663,15729
96934,15911
97255,15975
97288,15975
97608,15911
97880,15729
98061,15458
98125,15137
98061,14817
97880,14545
97852,14527
98046,14488
98318,14307
98500,14035
98563,13715
98563,15857
98523,15830
98203,15766
98170,15766
97850,15830
97578,16012
97396,16283
97333,16604
97396,16924
97578,17196
97850,17377
98170,17441
98203,17441
98523,17377
98795,17196
98977,16924
99040,16604
99040,49054
98996,49054
98996,37099
98996,37066
98996,35099
98996,35066
98933,34745
98824,34582
98933,34419
98996,34099
98996,34066
98933,33745
98824,33582
98933,33419
98996,33099
98996,33066
98933,32745
98824,32582
98933,32419
98996,32099
98996,32066
98996,30099
98996,30066
98933,29745
98800,29546
98800,28301
98800,28269
98736,27948
98554,27676
98283,27495
97962,27431
97815,27460
97815,23000
97815,22967
97815,19000
97815,18967
97752,18647
97570,18375
97298,18194
96978,18130
96657,18194
96386,18375
96204,18647
96140,18967
96140,19000
96204,19321
96386,19592
96657,19774
96978,19838
97298,19774
97570,19592
97752,19321
97815,19000
97815,22967
97752,22647
97570,22375
97298,22194
96978,22130
96657,22194
96386,22375
96204,22647
96140,22967
96140,23000
96204,23321
96386,23592
96577,23720
96366,23861
96185,24133
96121,24454
96121,24486
96185,24807
96294,24970
96185,25133
96121,25454
96121,25486
96185,25807
96366,26079
96638,26260
96958,26324
97279,26260
97550,26079
97732,25807
97796,25486
97796,25454
97732,25133
97623,24970
97732,24807
97796,24486
97796,24454
97732,24133
97550,23861
97359,23733
97570,23592
97752,23321
97815,23000
97815,27460
97642,27495
97370,27676
97188,27948
97125,28269
97125,28301
97188,28622
97370,28893
97642,29075
97962,29139
98283,29075
98554,28893
98736,28622
98800,28301
98800,29546
98751,29474
98479,29292
98159,29228
97838,29292
97567,29474
97402,29721
97402,29368
97402,29335
97338,29015
97157,28743
96885,28562
96564,28498
96244,28562
95972,28743
95791,29015
95727,29335
95727,29368
95791,29689
95972,29960
96244,30142
96564,30206
96885,30142
97157,29960
97338,29689
97402,29368
97402,29721
97385,29745
97322,30066
97322,30099
97385,30419
97567,30691
97838,30872
98159,30936
98479,30872
98751,30691
98933,30419
98996,30099
98996,32066
98933,31745
98751,31474
98479,31292
98159,31228
97838,31292
97567,31474
97385,31745
97322,32066
97322,32099
97385,32419
97494,32582
97385,32745
97322,33066
97322,33099
97385,33419
97494,33582
97385,33745
97322,34066
97322,34099
97385,34419
97494,34582
97385,34745
97322,35066
97322,35099
97385,35419
97567,35691
97838,35872
98159,35936
98479,35872
98751,35691
98933,35419
98996,35099
98996,37066
98933,36745
98751,36474
98479,36292
98159,36228
97838,36292
97567,36474
97385,36745
97322,37066
97322,37099
97385,37419
97567,37691
97838,37872
98159,37936
98479,37872
98751,37691
98933,37419
98996,37099
98996,49054
94430,49054
94430,40601
94430,31209
93999,31209
93999,18885
93935,18565
93754,18293
93619,18203
93619,14261
93555,13941
93374,13669
93102,13488
92782,13424
92749,13424
92428,13488
92157,13669
91988,13922
91819,13669
91547,13488
91227,13424
91194,13424
90873,13488
90602,13669
90420,13941
90356,14261
90420,14582
90602,14853
90873,15035
91194,15099
91227,15099
91547,15035
91819,14853
91988,14600
92157,14853
92428,15035
92749,15099
92782,15099
93102,15035
93374,14853
93555,14582
93619,14261
93619,18203
93482,18112
93162,18048
93129,18048
92960,18082
92999,17885
92935,17565
92754,17293
92482,17112
92162,17048
92129,17048
91808,17112
91645,17221
91482,17112
91162,17048
91129,17048
90808,17112
90645,17221
90482,17112
90162,17048
90129,17048
89808,17112
89645,17221
89482,17112
89162,17048
89129,17048
88934,17087
88934,14261
88870,13941
88689,13669
88417,13488
88097,13424
88064,13424
87743,13488
87472,13669
87290,13941
87226,14261
87290,14582
87472,14853
87743,15035
88064,15099
88097,15099
88417,15035
88689,14853
88870,14582
88934,14261
88934,17087
88808,17112
88537,17293
88355,17565
88291,17885
88355,18206
88475,18385
88355,18565
88291,18885
88355,19206
88537,19477
88808,19659
89129,19723
89162,19723
89482,19659
89645,19550
89808,19659
90129,19723
90162,19723
90482,19659
90645,19550
90808,19659
91129,19723
91162,19723
91482,19659
91645,19550
91808,19659
92129,19723
92162,19723
92482,19659
92645,19550
92808,19659
93129,19723
93162,19723
93482,19659
93754,19477
93935,19206
93999,18885
93999,31209
86999,31209
86999,18885
86935,18565
86815,18385
86935,18206
86999,17885
86935,17565
86754,17293
86482,17112
86162,17048
86129,17048
85808,17112
85645,17221
85482,17112
85162,17048
85129,17048
84808,17112
84645,17221
84497,17122
84497,15362
84433,15041
84313,14862
84433,14682
84497,14362
84433,14041
84252,13770
83980,13588
83660,13524
83627,13524
83306,13588
83035,13770
82853,14041
82789,14362
82853,14682
82973,14862
82853,15041
82789,15362
82853,15682
83035,15954
83306,16135
83627,16199
83660,16199
83980,16135
84252,15954
84433,15682
84497,15362
84497,17122
84482,17112
84162,17048
84129,17048
83808,17112
83645,17221
83482,17112
83162,17048
83129,17048
82808,17112
82645,17221
82482,17112
82162,17048
82129,17048
81808,17112
81537,17293
81355,17565
81291,17885
81355,18206
81475,18385
81355,18565
81291,18885
81355,19206
81537,19477
81808,19659
82129,19723
82162,19723
82482,19659
82645,19550
82808,19659
83129,19723
83162,19723
83482,19659
83645,19550
83808,19659
84129,19723
84162,19723
84482,19659
84645,19550
84808,19659
85129,19723
85162,19723
85482,19659
85645,19550
85808,19659
86129,19723
86162,19723
86482,19659
86754,19477
86935,19206
86999,18885
86999,31209
79999,31209
79999,18885
79935,18565
79815,18385
79935,18206
79999,17885
79935,17565
79754,17293
79577,17175
79577,13994
79577,13961
79513,13641
79332,13369
79060,13188
78740,13124
78419,13188
78148,13369
77966,13641
77902,13961
77902,13994
77966,14315
78148,14586
78419,14768
78740,14832
79060,14768
79332,14586
79513,14315
79577,13994
79577,17175
79482,17112
79162,17048
79129,17048
78808,17112
78537,17293
78355,17565
78291,17885
78355,18206
78475,18385
78355,18565
78291,18885
78355,19206
78537,19477
78808,19659
79129,19723
79162,19723
79482,19659
79754,19477
79935,19206
79999,18885
79999,31209
77520,31209
77520,13994
77520,13961
77456,13641
77275,13369
77003,13188
76683,13124
76362,13188
76090,13369
75909,13641
75845,13961
75845,13994
75909,14315
76090,14586
76362,14768
76683,14832
77003,14768
77275,14586
77456,14315
77520,13994
77520,31209
76999,31209
76999,18885
76935,18565
76815,18385
76935,18206
76999,17885
76935,17565
76754,17293
76482,17112
76162,17048
76129,17048
75808,17112
75645,17221
75482,17112
75162,17048
75129,17048
75036,17066
75036,14162
75036,13810
74976,13512
74808,13260
74555,13091
74257,13032
73960,13091
73707,13260
73538,13512
73479,13810
73479,14162
73538,14459
73707,14712
73960,14881
74257,14940
74555,14881
74808,14712
74976,14459
75036,14162
75036,17066
74808,17112
74537,17293
74355,17565
74291,17885
74355,18206
74475,18385
74355,18565
74291,18885
74355,19206
74537,19477
74808,19659
75129,19723
75162,19723
75482,19659
75645,19550
75808,19659
76129,19723
76162,19723
76482,19659
76754,19477
76935,19206
76999,18885
76999,31209
76159,31209
76159,40601
94430,40601
94430,49054
93999,49054
93999,46885
93935,46565
93754,46293
93482,46112
93162,46048
93129,46048
92960,46082
92999,45885
92935,45565
92754,45293
92482,45112
92162,45048
92129,45048
91808,45112
91645,45221
91482,45112
91162,45048
91129,45048
90808,45112
90645,45221
90482,45112
90162,45048
90129,45048
89808,45112
89645,45221
89482,45112
89162,45048
89129,45048
88808,45112
88537,45293
88355,45565
88291,45885
88355,46206
88475,46385
88355,46565
88291,46885
88355,47206
88537,47477
88808,47659
89129,47723
89162,47723
89482,47659
89645,47550
89808,47659
90129,47723
90162,47723
90482,47659
90645,47550
90808,47659
91129,47723
91162,47723
91482,47659
91645,47550
91808,47659
92129,47723
92162,47723
92482,47659
92645,47550
92808,47659
93129,47723
93162,47723
93482,47659
93754,47477
93935,47206
93999,46885
93999,49054
86999,49054
86999,46885
86935,46565
86815,46385
86935,46206
86999,45885
86935,45565
86754,45293
86482,45112
86162,45048
86129,45048
85808,45112
85645,45221
85482,45112
85162,45048
85129,45048
84808,45112
84645,45221
84482,45112
84162,45048
84129,45048
83808,45112
83645,45221
83482,45112
83162,45048
83129,45048
82808,45112
82645,45221
82482,45112
82162,45048
82129,45048
81808,45112
81537,45293
81355,45565
81291,45885
81355,46206
81475,46385
81355,46565
81291,46885
81355,47206
81537,47477
81808,47659
82129,47723
82162,47723
82482,47659
82645,47550
82808,47659
83129,47723
83162,47723
83482,47659
83754,47477
83935,47206
83999,46885
83960,46689
84129,46723
84162,46723
84330,46689
84291,46885
84355,47206
84537,47477
84808,47659
85129,47723
85162,47723
85482,47659
85645,47550
85808,47659
86129,47723
86162,47723
86482,47659
86754,47477
86935,47206
86999,46885
86999,49054
79999,49054
79999,46885
79935,46565
79815,46385
79935,46206
79999,45885
79935,45565
79754,45293
79482,45112
79162,45048
79129,45048
78808,45112
78645,45221
78482,45112
78162,45048
78129,45048
77808,45112
77645,45221
77482,45112
77162,45048
77129,45048
76808,45112
76645,45221
76482,45112
76162,45048
76129,45048
75808,45112
75645,45221
75482,45112
75162,45048
75129,45048
74808,45112
74615,45241
74624,45193
74624,45160
74561,44840
74452,44677
74561,44514
74624,44193
74624,44160
74561,43840
74452,43677
74561,43514
74624,43193
74624,43160
74561,42840
74452,42677
74561,42514
74624,42193
74624,42160
74561,41840
74452,41677
74561,41514
74624,41193
74624,41160
74561,40840
74452,40677
74561,40514
74624,40193
74624,40160
74561,39840
74452,39677
74561,39514
74624,39193
74624,39160
74561,38840
74452,38677
74561,38514
74624,38193
74624,38160
74561,37840
74452,37677
74561,37514
74624,37193
74624,37160
74561,36840
74452,36677
74561,36514
74624,36193
74624,36160
74561,35840
74452,35677
74561,35514
74624,35193
74624,35160
74561,34840
74452,34677
74561,34514
74624,34193
74624,34160
74561,33840
74452,33677
74561,33514
74624,33193
74624,33160
74561,32840
74452,32677
74561,32514
74624,32193
74624,32160
74561,31840
74452,31677
74561,31514
74624,31193
74624,31160
74561,30840
74452,30677
74561,30514
74624,30193
74624,30160
74561,29840
74452,29677
74561,29514
74624,29193
74624,29160
74561,28840
74452,28677
74561,28514
74624,28193
74624,28160
74561,27840
74379,27568
74107,27387
73787,27323
73466,27387
73287,27507
73107,27387
73036,27372
73036,14162
73036,13810
72976,13512
72808,13260
72555,13091
72257,13032
71960,13091
71707,13260
71538,13512
71479,13810
71479,14162
71538,14459
71707,14712
71960,14881
72257,14940
72555,14881
72808,14712
72976,14459
73036,14162
73036,27372
72787,27323
72466,27387
72195,27568
72013,27840
71950,28160
71950,28193
72013,28514
72195,28785
72466,28967
72787,29030
72983,28991
72950,29160
72950,29193
73013,29514
73122,29677
73013,29840
72950,30160
72950,30193
73013,30514
73122,30677
73013,30840
72950,31160
72950,31193
72983,31362
72787,31323
72466,31387
72195,31568
72013,31840
71950,32160
71950,32193
72013,32514
72195,32785
72466,32967
72787,33030
72983,32991
72950,33160
72950,33193
73013,33514
73122,33677
73013,33840
72950,34160
72950,34193
72983,34362
72787,34323
72466,34387
72195,34568
72013,34840
71950,35160
71950,35193
72013,35514
72195,35785
72466,35967
72787,36030
72983,35991
72950,36160
72950,36193
73013,36514
73122,36677
73013,36840
72950,37160
72950,37193
72983,37362
72787,37323
72466,37387
72195,37568
72013,37840
71950,38160
71950,38193
72013,38514
72122,38677
72013,38840
71950,39160
71950,39193
72013,39514
72195,39785
72466,39967
72787,40030
72983,39991
72950,40160
72950,40193
73013,40514
73122,40677
73013,40840
72950,41160
72950,41193
72983,41362
72787,41323
72466,41387
72195,41568
72013,41840
71950,42160
71950,42193
72013,42514
72122,42677
72013,42840
71950,43160
71950,43193
72013,43514
72122,43677
72013,43840
71950,44160
71950,44193
72013,44514
72122,44677
72013,44840
71950,45160
71950,45193
72013,45514
72195,45785
72466,45967
72787,46030
72983,45991
72950,46160
72950,46193
73013,46514
73122,46677
73013,46840
72950,47160
72950,47193
73013,47514
73195,47785
73466,47967
73787,48030
74107,47967
74379,47785
74561,47514
74564,47496
74808,47659
75129,47723
75162,47723
75482,47659
75645,47550
75808,47659
76129,47723
76162,47723
76482,47659
76754,47477
76935,47206
76999,46885
76960,46689
77129,46723
77162,46723
77330,46689
77291,46885
77355,47206
77537,47477
77808,47659
78129,47723
78162,47723
78482,47659
78645,47550
78808,47659
79129,47723
79162,47723
79482,47659
79754,47477
79935,47206
79999,46885
79999,49054
70798,49054
70798,13994
70798,13961
70734,13641
70552,13369
70281,13188
69960,13124
69640,13188
69368,13369
69186,13641
69123,13961
69123,13994
69186,14315
69368,14586
69640,14768
69960,14832
70281,14768
70552,14586
70734,14315
70798,13994
70798,49054
69459,49054
69459,16691
69459,16658
69395,16338
69214,16066
68942,15885
68622,15821
68301,15885
68029,16066
67848,16338
67784,16658
67784,16691
67848,17012
68029,17283
68301,17465
68622,17529
68942,17465
69214,17283
69395,17012
69459,16691
69459,49054
65798,49054
65798,9784
105068,9784
105068,49054
" /> 
</g>
<g style="fill:#FFFFFF; fill-opacity:0.0; 
stroke:#FFFFFF; stroke-width:39.3701; stroke-opacity:1; 
stroke-linecap:round; stroke-linejoin:round;">
</g>
<g style="fill:#FFFFFF; fill-opacity:1.0; 
stroke:#FFFFFF; stroke-width:39.3701; stroke-opacity:1; 
stroke-linecap:round; stroke-linejoin:round;">
<circle cx="103238" cy="12769.7" r="118.11" /> 
<circle cx="103238" cy="13769.7" r="118.11" /> 
<circle cx="103238" cy="14769.7" r="118.11" /> 
<circle cx="91210.6" cy="14261.8" r="118.11" /> 
<circle cx="89655.5" cy="14261.8" r="118.11" /> 
<circle cx="92765.7" cy="14261.8" r="118.11" /> 
<circle cx="88080.7" cy="14261.8" r="118.11" /> 
<circle cx="98187" cy="16604.3" r="118.11" /> 
<circle cx="102187" cy="16604.3" r="118.11" /> 
<circle cx="96978.3" cy="18984.3" r="118.11" /> 
<circle cx="96978.3" cy="22984.3" r="118.11" /> 
<circle cx="97271.7" cy="15137.8" r="118.11" /> 
<circle cx="101272" cy="15137.8" r="118.11" /> 
<circle cx="68622" cy="16675.2" r="118.11" /> 
<circle cx="68622" cy="17675.2" r="118.11" /> 
<circle cx="98159.4" cy="30082.7" r="118.11" /> 
<circle cx="98159.4" cy="31082.7" r="118.11" /> 
<circle cx="98159.4" cy="32082.7" r="118.11" /> 
<circle cx="98159.4" cy="33082.7" r="118.11" /> 
<circle cx="98159.4" cy="34082.7" r="118.11" /> 
<circle cx="98159.4" cy="35082.7" r="118.11" /> 
<circle cx="98159.4" cy="36082.7" r="118.11" /> 
<circle cx="98159.4" cy="37082.7" r="118.11" /> 
<circle cx="75145.7" cy="46885.8" r="118.11" /> 
<circle cx="75145.7" cy="45885.8" r="118.11" /> 
<circle cx="76145.7" cy="46885.8" r="118.11" /> 
<circle cx="76145.7" cy="45885.8" r="118.11" /> 
<circle cx="77145.7" cy="46885.8" r="118.11" /> 
<circle cx="77145.7" cy="45885.8" r="118.11" /> 
<circle cx="78145.7" cy="46885.8" r="118.11" /> 
<circle cx="78145.7" cy="45885.8" r="118.11" /> 
<circle cx="79145.7" cy="46885.8" r="118.11" /> 
<circle cx="79145.7" cy="45885.8" r="118.11" /> 
<circle cx="80145.7" cy="46885.8" r="118.11" /> 
<circle cx="80145.7" cy="45885.8" r="118.11" /> 
<circle cx="81145.7" cy="46885.8" r="118.11" /> 
<circle cx="81145.7" cy="45885.8" r="118.11" /> 
<circle cx="82145.7" cy="46885.8" r="118.11" /> 
<circle cx="82145.7" cy="45885.8" r="118.11" /> 
<circle cx="83145.7" cy="46885.8" r="118.11" /> 
<circle cx="83145.7" cy="45885.8" r="118.11" /> 
<circle cx="84145.7" cy="46885.8" r="118.11" /> 
<circle cx="84145.7" cy="45885.8" r="118.11" /> 
<circle cx="85145.7" cy="46885.8" r="118.11" /> 
<circle cx="85145.7" cy="45885.8" r="118.11" /> 
<circle cx="86145.7" cy="46885.8" r="118.11" /> 
<circle cx="86145.7" cy="45885.8" r="118.11" /> 
<circle cx="87145.7" cy="46885.8" r="118.11" /> 
<circle cx="87145.7" cy="45885.8" r="118.11" /> 
<circle cx="88145.7" cy="46885.8" r="118.11" /> 
<circle cx="88145.7" cy="45885.8" r="118.11" /> 
<circle cx="89145.7" cy="46885.8" r="118.11" /> 
<circle cx="89145.7" cy="45885.8" r="118.11" /> 
<circle cx="90145.7" cy="46885.8" r="118.11" /> 
<circle cx="90145.7" cy="45885.8" r="118.11" /> 
<circle cx="91145.7" cy="46885.8" r="118.11" /> 
<circle cx="91145.7" cy="45885.8" r="118.11" /> 
<circle cx="92145.7" cy="46885.8" r="118.11" /> 
<circle cx="92145.7" cy="45885.8" r="118.11" /> 
<circle cx="93145.7" cy="46885.8" r="118.11" /> 
<circle cx="93145.7" cy="45885.8" r="118.11" /> 
<circle cx="94145.7" cy="46885.8" r="118.11" /> 
<circle cx="94145.7" cy="45885.8" r="118.11" /> 
<circle cx="75145.7" cy="18885.8" r="118.11" /> 
<circle cx="75145.7" cy="17885.8" r="118.11" /> 
<circle cx="76145.7" cy="18885.8" r="118.11" /> 
<circle cx="76145.7" cy="17885.8" r="118.11" /> 
<circle cx="77145.7" cy="18885.8" r="118.11" /> 
<circle cx="77145.7" cy="17885.8" r="118.11" /> 
<circle cx="78145.7" cy="18885.8" r="118.11" /> 
<circle cx="78145.7" cy="17885.8" r="118.11" /> 
<circle cx="79145.7" cy="18885.8" r="118.11" /> 
<circle cx="79145.7" cy="17885.8" r="118.11" /> 
<circle cx="80145.7" cy="18885.8" r="118.11" /> 
<circle cx="80145.7" cy="17885.8" r="118.11" /> 
<circle cx="81145.7" cy="18885.8" r="118.11" /> 
<circle cx="81145.7" cy="17885.8" r="118.11" /> 
<circle cx="82145.7" cy="18885.8" r="118.11" /> 
<circle cx="82145.7" cy="17885.8" r="118.11" /> 
<circle cx="83145.7" cy="18885.8" r="118.11" /> 
<circle cx="83145.7" cy="17885.8" r="118.11" /> 
<circle cx="84145.7" cy="18885.8" r="118.11" /> 
<circle cx="84145.7" cy="17885.8" r="118.11" /> 
<circle cx="85145.7" cy="18885.8" r="118.11" /> 
<circle cx="85145.7" cy="17885.8" r="118.11" /> 
<circle cx="86145.7" cy="18885.8" r="118.11" /> 
<circle cx="86145.7" cy="17885.8" r="118.11" /> 
<circle cx="87145.7" cy="18885.8" r="118.11" /> 
<circle cx="87145.7" cy="17885.8" r="118.11" /> 
<circle cx="88145.7" cy="18885.8" r="118.11" /> 
<circle cx="88145.7" cy="17885.8" r="118.11" /> 
<circle cx="89145.7" cy="18885.8" r="118.11" /> 
<circle cx="89145.7" cy="17885.8" r="118.11" /> 
<circle cx="90145.7" cy="18885.8" r="118.11" /> 
<circle cx="90145.7" cy="17885.8" r="118.11" /> 
<circle cx="91145.7" cy="18885.8" r="118.11" /> 
<circle cx="91145.7" cy="17885.8" r="118.11" /> 
<circle cx="92145.7" cy="18885.8" r="118.11" /> 
<circle cx="92145.7" cy="17885.8" r="118.11" /> 
<circle cx="93145.7" cy="18885.8" r="118.11" /> 
<circle cx="93145.7" cy="17885.8" r="118.11" /> 
<circle cx="94145.7" cy="18885.8" r="118.11" /> 
<circle cx="94145.7" cy="17885.8" r="118.11" /> 
<circle cx="100787" cy="28177.2" r="118.11" /> 
<circle cx="101787" cy="28177.2" r="118.11" /> 
<circle cx="100787" cy="29177.2" r="118.11" /> 
<circle cx="101787" cy="29177.2" r="118.11" /> 
<circle cx="100787" cy="30177.2" r="118.11" /> 
<circle cx="101787" cy="30177.2" r="118.11" /> 
<circle cx="100787" cy="31177.2" r="118.11" /> 
<circle cx="101787" cy="31177.2" r="118.11" /> 
<circle cx="100787" cy="32177.2" r="118.11" /> 
<circle cx="101787" cy="32177.2" r="118.11" /> 
<circle cx="100787" cy="33177.2" r="118.11" /> 
<circle cx="101787" cy="33177.2" r="118.11" /> 
<circle cx="100787" cy="34177.2" r="118.11" /> 
<circle cx="101787" cy="34177.2" r="118.11" /> 
<circle cx="100787" cy="35177.2" r="118.11" /> 
<circle cx="101787" cy="35177.2" r="118.11" /> 
<circle cx="100787" cy="36177.2" r="118.11" /> 
<circle cx="101787" cy="36177.2" r="118.11" /> 
<circle cx="100787" cy="37177.2" r="118.11" /> 
<circle cx="101787" cy="37177.2" r="118.11" /> 
<circle cx="100787" cy="38177.2" r="118.11" /> 
<circle cx="101787" cy="38177.2" r="118.11" /> 
<circle cx="100787" cy="39177.2" r="118.11" /> 
<circle cx="101787" cy="39177.2" r="118.11" /> 
<circle cx="100787" cy="40177.2" r="118.11" /> 
<circle cx="101787" cy="40177.2" r="118.11" /> 
<circle cx="100787" cy="41177.2" r="118.11" /> 
<circle cx="101787" cy="41177.2" r="118.11" /> 
<circle cx="100787" cy="42177.2" r="118.11" /> 
<circle cx="101787" cy="42177.2" r="118.11" /> 
<circle cx="100787" cy="43177.2" r="118.11" /> 
<circle cx="101787" cy="43177.2" r="118.11" /> 
<circle cx="100787" cy="44177.2" r="118.11" /> 
<circle cx="101787" cy="44177.2" r="118.11" /> 
<circle cx="100787" cy="45177.2" r="118.11" /> 
<circle cx="101787" cy="45177.2" r="118.11" /> 
<circle cx="100787" cy="46177.2" r="118.11" /> 
<circle cx="101787" cy="46177.2" r="118.11" /> 
<circle cx="100787" cy="47177.2" r="118.11" /> 
<circle cx="101787" cy="47177.2" r="118.11" /> 
<circle cx="72787.4" cy="28177.2" r="118.11" /> 
<circle cx="73787.4" cy="28177.2" r="118.11" /> 
<circle cx="72787.4" cy="29177.2" r="118.11" /> 
<circle cx="73787.4" cy="29177.2" r="118.11" /> 
<circle cx="72787.4" cy="30177.2" r="118.11" /> 
<circle cx="73787.4" cy="30177.2" r="118.11" /> 
<circle cx="72787.4" cy="31177.2" r="118.11" /> 
<circle cx="73787.4" cy="31177.2" r="118.11" /> 
<circle cx="72787.4" cy="32177.2" r="118.11" /> 
<circle cx="73787.4" cy="32177.2" r="118.11" /> 
<circle cx="72787.4" cy="33177.2" r="118.11" /> 
<circle cx="73787.4" cy="33177.2" r="118.11" /> 
<circle cx="72787.4" cy="34177.2" r="118.11" /> 
<circle cx="73787.4" cy="34177.2" r="118.11" /> 
<circle cx="72787.4" cy="35177.2" r="118.11" /> 
<circle cx="73787.4" cy="35177.2" r="118.11" /> 
<circle cx="72787.4" cy="36177.2" r="118.11" /> 
<circle cx="73787.4" cy="36177.2" r="118.11" /> 
<circle cx="72787.4" cy="37177.2" r="118.11" /> 
<circle cx="73787.4" cy="37177.2" r="118.11" /> 
<circle cx="72787.4" cy="38177.2" r="118.11" /> 
<circle cx="73787.4" cy="38177.2" r="118.11" /> 
<circle cx="72787.4" cy="39177.2" r="118.11" /> 
<circle cx="73787.4" cy="39177.2" r="118.11" /> 
<circle cx="72787.4" cy="40177.2" r="118.11" /> 
<circle cx="73787.4" cy="40177.2" r="118.11" /> 
<circle cx="72787.4" cy="41177.2" r="118.11" /> 
<circle cx="73787.4" cy="41177.2" r="118.11" /> 
<circle cx="72787.4" cy="42177.2" r="118.11" /> 
<circle cx="73787.4" cy="42177.2" r="118.11" /> 
<circle cx="72787.4" cy="43177.2" r="118.11" /> 
<circle cx="73787.4" cy="43177.2" r="118.11" /> 
<circle cx="72787.4" cy="44177.2" r="118.11" /> 
<circle cx="73787.4" cy="44177.2" r="118.11" /> 
<circle cx="72787.4" cy="45177.2" r="118.11" /> 
<circle cx="73787.4" cy="45177.2" r="118.11" /> 
<circle cx="72787.4" cy="46177.2" r="118.11" /> 
<circle cx="73787.4" cy="46177.2" r="118.11" /> 
<circle cx="72787.4" cy="47177.2" r="118.11" /> 
<circle cx="73787.4" cy="47177.2" r="118.11" /> 
<circle cx="72257.9" cy="13986.2" r="118.11" /> 
<circle cx="73257.9" cy="13986.2" r="118.11" /> 
<circle cx="74257.9" cy="13986.2" r="118.11" /> 
<circle cx="96958.7" cy="24470.5" r="118.11" /> 
<circle cx="96958.7" cy="25470.5" r="118.11" /> 
<circle cx="97726.4" cy="13698.8" r="118.11" /> 
<circle cx="97726.4" cy="12698.8" r="118.11" /> 
<circle cx="101614" cy="12773.6" r="118.11" /> 
<circle cx="101614" cy="11773.6" r="118.11" /> 
<circle cx="76683.1" cy="13978.3" r="118.11" /> 
<circle cx="76683.1" cy="14978.3" r="118.11" /> 
<circle cx="69960.6" cy="13978.3" r="118.11" /> 
<circle cx="69960.6" cy="14978.3" r="118.11" /> 
<circle cx="99832.7" cy="13718.5" r="118.11" /> 
<circle cx="99832.7" cy="12718.5" r="118.11" /> 
<circle cx="78740.2" cy="13978.3" r="118.11" /> 
<circle cx="78740.2" cy="14978.3" r="118.11" /> 
<circle cx="69655.5" cy="19566.9" r="118.11" /> 
<circle cx="78750" cy="20905.5" r="118.11" /> 
<circle cx="96299.2" cy="36072.8" r="118.11" /> 
<circle cx="97096.5" cy="46348.4" r="118.11" /> 
<circle cx="71023.6" cy="47116.1" r="118.11" /> 
<circle cx="103632" cy="46378" r="118.11" /> 
<circle cx="81446.9" cy="15137.8" r="118.11" /> 
<circle cx="94744.1" cy="20698.8" r="118.11" /> 
<circle cx="83643.7" cy="15362.2" r="118.11" /> 
<circle cx="83643.7" cy="14362.2" r="118.11" /> 
<circle cx="84643.7" cy="15362.2" r="118.11" /> 
<circle cx="84643.7" cy="14362.2" r="118.11" /> 
<circle cx="95442.9" cy="30974.4" r="118.11" /> 
<circle cx="95698.8" cy="12736.2" r="118.11" /> 
<circle cx="100594" cy="22279.5" r="118.11" /> 
<circle cx="102594" cy="22279.5" r="118.11" /> 
<circle cx="100594" cy="25279.5" r="118.11" /> 
<circle cx="102594" cy="25279.5" r="118.11" /> 
<circle cx="101291" cy="19919.3" r="118.11" /> 
<circle cx="101291" cy="18919.3" r="118.11" /> 
<circle cx="102291" cy="19919.3" r="118.11" /> 
<circle cx="102291" cy="18919.3" r="118.11" /> 
<circle cx="97962.6" cy="28285.4" r="118.11" /> 
<circle cx="97962.6" cy="27285.4" r="118.11" /> 
<circle cx="96565" cy="30352.4" r="118.11" /> 
<circle cx="96565" cy="29352.4" r="118.11" /> 
</g> 
</svg>
