<?xml version="1.0" standalone="no"?>
 <!DOCTYPE svg PUBLIC "-//W3C//DTD SVG 1.1//EN" 
 "http://www.w3.org/Graphics/SVG/1.1/DTD/svg11.dtd"> 
<svg xmlns="http://www.w3.org/2000/svg" version="1.1" 
    width="29.7002cm" height="21.0007cm" viewBox="0 0 116930 82680 ">
<title>SVG Picture created as poncho_rescatAR--brd.svg date 2015/12/03 16:55:21 </title>
  <desc>Picture generated by PCBNEW </desc>
<g style="fill:#000000; fill-opacity:1;stroke:#000000; stroke-opacity:1;
stroke-linecap:round; stroke-linejoin:round; "
 transform="translate(0 0) scale(1 1)">
</g>
<g style="fill:#000000; fill-opacity:0.0; 
stroke:#000000; stroke-width:98.4252; stroke-opacity:1; 
stroke-linecap:round; stroke-linejoin:round;">
<path d="M85570 36133
L85570 35871
" />
<path d="M85570 35946
L85552 35908
L85533 35890
L85495 35871
L85458 35871
" />
<path d="M85177 36115
L85214 36133
L85289 36133
L85327 36115
L85345 36077
L85345 35927
L85327 35890
L85289 35871
L85214 35871
L85177 35890
L85158 35927
L85158 35965
L85345 36002
" />
<path d="M85008 36115
L84970 36133
L84895 36133
L84858 36115
L84839 36077
L84839 36058
L84858 36021
L84895 36002
L84952 36002
L84989 35983
L85008 35946
L85008 35927
L84989 35890
L84952 35871
L84895 35871
L84858 35890
" />
<path d="M84502 36115
L84539 36133
L84614 36133
L84652 36115
L84670 36096
L84689 36058
L84689 35946
L84670 35908
L84652 35890
L84614 35871
L84539 35871
L84502 35890
" />
<path d="M84164 36133
L84164 35927
L84183 35890
L84221 35871
L84296 35871
L84333 35890
" />
<path d="M84164 36115
L84202 36133
L84296 36133
L84333 36115
L84352 36077
L84352 36040
L84333 36002
L84296 35983
L84202 35983
L84164 35965
" />
<path d="M84033 35871
L83883 35871
" />
<path d="M83977 35740
L83977 36077
L83958 36115
L83921 36133
L83883 36133
" />
<path d="M83771 36021
L83583 36021
" />
<path d="M83808 36133
L83677 35740
L83546 36133
" />
<path d="M83189 36133
L83321 35946
" />
<path d="M83414 36133
L83414 35740
L83264 35740
L83227 35758
L83208 35777
L83189 35815
L83189 35871
L83208 35908
L83227 35927
L83264 35946
L83414 35946
" />
</g>
<g style="fill:#000000; fill-opacity:0.0; 
stroke:#000000; stroke-width:80; stroke-opacity:1; 
stroke-linecap:round; stroke-linejoin:round;">
<path d="M88795 13460
L88852 13479
L88871 13498
L88891 13536
L88891 13593
L88871 13631
L88852 13650
L88814 13669
L88662 13669
L88662 13269
L88795 13269
L88833 13288
L88852 13307
L88871 13345
L88871 13384
L88852 13422
L88833 13441
L88795 13460
L88662 13460
" />
<path d="M89043 13555
L89233 13555
" />
<path d="M89005 13669
L89138 13269
L89271 13669
" />
<path d="M89348 13269
L89576 13269
" />
<path d="M89462 13669
L89462 13269
" />
<path d="M89919 13669
L89691 13669
" />
<path d="M89805 13669
L89805 13269
L89767 13326
L89729 13365
L89691 13384
" />
<path d="M100479 14320
L100965 14320
L101022 14301
L101050 14282
L101079 14244
L101079 14168
L101050 14130
L101022 14110
L100965 14091
L100479 14091
" />
<path d="M101079 13691
L101079 13920
" />
<path d="M101079 13806
L100479 13806
L100565 13844
L100622 13882
L100650 13920
" />
<path d="M101508 11758
L101317 11758
L101317 11158
" />
<path d="M101641 11758
L101641 11158
L101774 11587
L101908 11158
L101908 11758
" />
<path d="M102060 11158
L102308 11158
L102174 11387
L102231 11387
L102269 11415
L102288 11444
L102308 11501
L102308 11644
L102288 11701
L102269 11730
L102231 11758
L102117 11758
L102079 11730
L102060 11701
" />
<path d="M102688 11758
L102460 11758
" />
<path d="M102574 11758
L102574 11158
L102536 11244
L102498 11301
L102460 11330
" />
<path d="M102822 11158
L103088 11158
L102917 11758
" />
<path d="M103184 11158
L103412 11158
" />
<path d="M103298 11758
L103298 11158
" />
<path d="M98322 16492
L98155 16230
" />
<path d="M98036 16492
L98036 15942
L98226 15942
L98274 15968
L98298 15994
L98322 16047
L98322 16125
L98298 16178
L98274 16204
L98226 16230
L98036 16230
" />
<path d="M98750 16125
L98750 16492
" />
<path d="M98631 15916
L98512 16308
L98822 16308
" />
<path d="M96049 21313
L95787 21480
" />
<path d="M96049 21599
L95499 21599
L95499 21408
L95525 21361
L95551 21337
L95604 21313
L95682 21313
L95735 21337
L95761 21361
L95787 21408
L95787 21599
" />
<path d="M96049 20837
L96049 21123
" />
<path d="M96049 20980
L95499 20980
L95577 21027
L95630 21075
L95656 21123
" />
<path d="M95084 13154
L94822 13320
" />
<path d="M95084 13439
L94534 13439
L94534 13249
L94561 13201
L94587 13178
L94639 13154
L94718 13154
L94770 13178
L94796 13201
L94822 13249
L94822 13439
" />
<path d="M94534 12701
L94534 12939
L94796 12963
L94770 12939
L94744 12892
L94744 12773
L94770 12725
L94796 12701
L94849 12678
L94980 12678
L95032 12701
L95058 12725
L95084 12773
L95084 12892
L95058 12939
L95032 12963
" />
</g>
<g style="fill:#000000; fill-opacity:0.0; 
stroke:#000000; stroke-width:47.2441; stroke-opacity:1; 
stroke-linecap:round; stroke-linejoin:round;">
<path d="M69133 17653
L68818 17653
L68818 17533
L68833 17503
L68848 17488
L68878 17473
L68923 17473
L68953 17488
L68968 17503
L68983 17533
L68983 17653
" />
<path d="M69133 17173
L69133 17353
" />
<path d="M69133 17263
L68818 17263
L68863 17293
L68893 17323
L68908 17353
" />
<path d="M65782 18051
L65782 18201
L65932 18216
L65917 18201
L65902 18171
L65902 18096
L65917 18066
L65932 18051
L65962 18036
L66037 18036
L66067 18051
L66082 18066
L66097 18096
L66097 18171
L66082 18201
L66067 18216
" />
<path d="M65782 17946
L66097 17841
L65782 17736
" />
<path d="M66127 17706
L66127 17466
" />
<path d="M65782 17331
L65782 17271
L65797 17241
L65827 17211
L65887 17196
L65992 17196
L66052 17211
L66082 17241
L66097 17271
L66097 17331
L66082 17361
L66052 17391
L65992 17406
L65887 17406
L65827 17391
L65797 17361
L65782 17331
" />
<path d="M65782 17061
L66037 17061
L66067 17046
L66082 17031
L66097 17001
L66097 16941
L66082 16911
L66067 16896
L66037 16881
L65782 16881
" />
<path d="M65782 16776
L65782 16596
" />
<path d="M66097 16686
L65782 16686
" />
</g>
<g style="fill:#000000; fill-opacity:0.0; 
stroke:#000000; stroke-width:80; stroke-opacity:1; 
stroke-linecap:round; stroke-linejoin:round;">
<path d="M98019 34123
L97619 34123
L97619 33971
L97638 33933
L97657 33914
L97695 33895
L97753 33895
L97791 33914
L97810 33933
L97829 33971
L97829 34123
" />
<path d="M97657 33743
L97638 33723
L97619 33685
L97619 33590
L97638 33552
L97657 33533
L97695 33514
L97734 33514
L97791 33533
L98019 33762
L98019 33514
" />
<path d="M83118 45255
L83099 45274
L83042 45293
L83004 45293
L82946 45274
L82908 45236
L82889 45198
L82870 45122
L82870 45065
L82889 44989
L82908 44950
L82946 44912
L83004 44893
L83042 44893
L83099 44912
L83118 44931
" />
<path d="M83365 44893
L83442 44893
L83480 44912
L83518 44950
L83537 45027
L83537 45160
L83518 45236
L83480 45274
L83442 45293
L83365 45293
L83327 45274
L83289 45236
L83270 45160
L83270 45027
L83289 44950
L83327 44912
L83365 44893
" />
<path d="M83708 45293
L83708 44893
L83937 45293
L83937 44893
" />
<path d="M84032 45331
L84337 45331
" />
<path d="M84413 45274
L84470 45293
L84565 45293
L84604 45274
L84623 45255
L84642 45217
L84642 45179
L84623 45141
L84604 45122
L84565 45103
L84489 45084
L84451 45065
L84432 45046
L84413 45008
L84413 44969
L84432 44931
L84451 44912
L84489 44893
L84585 44893
L84642 44912
" />
<path d="M84889 44893
L84965 44893
L85004 44912
L85042 44950
L85061 45027
L85061 45160
L85042 45236
L85004 45274
L84965 45293
L84889 45293
L84851 45274
L84813 45236
L84794 45160
L84794 45027
L84813 44950
L84851 44912
L84889 44893
" />
<path d="M85442 45293
L85213 45293
" />
<path d="M85327 45293
L85327 44893
L85289 44950
L85251 44989
L85213 45008
" />
<path d="M85689 44893
L85727 44893
L85765 44912
L85785 44931
L85804 44969
L85823 45046
L85823 45141
L85804 45217
L85785 45255
L85765 45274
L85727 45293
L85689 45293
L85651 45274
L85632 45255
L85613 45217
L85594 45141
L85594 45046
L85613 44969
L85632 44931
L85651 44912
L85689 44893
" />
<path d="M86204 45293
L85975 45293
" />
<path d="M86089 45293
L86089 44893
L86051 44950
L86013 44989
L85975 45008
" />
<path d="M83118 17255
L83099 17274
L83042 17293
L83004 17293
L82946 17274
L82908 17236
L82889 17198
L82870 17122
L82870 17065
L82889 16989
L82908 16950
L82946 16912
L83004 16893
L83042 16893
L83099 16912
L83118 16931
" />
<path d="M83365 16893
L83442 16893
L83480 16912
L83518 16950
L83537 17027
L83537 17160
L83518 17236
L83480 17274
L83442 17293
L83365 17293
L83327 17274
L83289 17236
L83270 17160
L83270 17027
L83289 16950
L83327 16912
L83365 16893
" />
<path d="M83708 17293
L83708 16893
L83937 17293
L83937 16893
" />
<path d="M84032 17331
L84337 17331
" />
<path d="M84413 17274
L84470 17293
L84565 17293
L84604 17274
L84623 17255
L84642 17217
L84642 17179
L84623 17141
L84604 17122
L84565 17103
L84489 17084
L84451 17065
L84432 17046
L84413 17008
L84413 16969
L84432 16931
L84451 16912
L84489 16893
L84585 16893
L84642 16912
" />
<path d="M84889 16893
L84965 16893
L85004 16912
L85042 16950
L85061 17027
L85061 17160
L85042 17236
L85004 17274
L84965 17293
L84889 17293
L84851 17274
L84813 17236
L84794 17160
L84794 17027
L84813 16950
L84851 16912
L84889 16893
" />
<path d="M85442 17293
L85213 17293
" />
<path d="M85327 17293
L85327 16893
L85289 16950
L85251 16989
L85213 17008
" />
<path d="M85689 16893
L85727 16893
L85765 16912
L85785 16931
L85804 16969
L85823 17046
L85823 17141
L85804 17217
L85785 17255
L85765 17274
L85727 17293
L85689 17293
L85651 17274
L85632 17255
L85613 17217
L85594 17141
L85594 17046
L85613 16969
L85632 16931
L85651 16912
L85689 16893
" />
<path d="M86165 17027
L86165 17293
" />
<path d="M86070 16874
L85975 17160
L86223 17160
" />
<path d="M101759 39627
L101778 39647
L101797 39704
L101797 39742
L101778 39799
L101740 39837
L101702 39856
L101626 39875
L101569 39875
L101492 39856
L101454 39837
L101416 39799
L101397 39742
L101397 39704
L101416 39647
L101435 39627
" />
<path d="M101397 39380
L101397 39304
L101416 39266
L101454 39227
L101531 39208
L101664 39208
L101740 39227
L101778 39266
L101797 39304
L101797 39380
L101778 39418
L101740 39456
L101664 39475
L101531 39475
L101454 39456
L101416 39418
L101397 39380
" />
<path d="M101797 39037
L101397 39037
L101797 38808
L101397 38808
" />
<path d="M101835 38713
L101835 38408
" />
<path d="M101588 38313
L101588 38180
" />
<path d="M101797 38123
L101797 38313
L101397 38313
L101397 38123
" />
<path d="M101645 37951
L101645 37647
" />
<path d="M101759 37227
L101778 37247
L101797 37304
L101797 37342
L101778 37399
L101740 37437
L101702 37456
L101626 37475
L101569 37475
L101492 37456
L101454 37437
L101416 37399
L101397 37342
L101397 37304
L101416 37247
L101435 37227
" />
<path d="M101797 37056
L101397 37056
" />
<path d="M101683 36885
L101683 36694
" />
<path d="M101797 36923
L101397 36789
L101797 36656
" />
<path d="M101683 36542
L101683 36351
" />
<path d="M101797 36580
L101397 36447
L101797 36313
" />
<path d="M101797 35970
L101797 36199
" />
<path d="M101797 36085
L101397 36085
L101454 36123
L101492 36161
L101512 36199
" />
<path d="M73759 39627
L73778 39647
L73797 39704
L73797 39742
L73778 39799
L73740 39837
L73702 39856
L73626 39875
L73569 39875
L73492 39856
L73454 39837
L73416 39799
L73397 39742
L73397 39704
L73416 39647
L73435 39627
" />
<path d="M73397 39380
L73397 39304
L73416 39266
L73454 39227
L73531 39208
L73664 39208
L73740 39227
L73778 39266
L73797 39304
L73797 39380
L73778 39418
L73740 39456
L73664 39475
L73531 39475
L73454 39456
L73416 39418
L73397 39380
" />
<path d="M73797 39037
L73397 39037
L73797 38808
L73397 38808
" />
<path d="M73835 38713
L73835 38408
" />
<path d="M73588 38313
L73588 38180
" />
<path d="M73797 38123
L73797 38313
L73397 38313
L73397 38123
" />
<path d="M73645 37951
L73645 37647
" />
<path d="M73759 37227
L73778 37247
L73797 37304
L73797 37342
L73778 37399
L73740 37437
L73702 37456
L73626 37475
L73569 37475
L73492 37456
L73454 37437
L73416 37399
L73397 37342
L73397 37304
L73416 37247
L73435 37227
" />
<path d="M73797 37056
L73397 37056
" />
<path d="M73683 36885
L73683 36694
" />
<path d="M73797 36923
L73397 36789
L73797 36656
" />
<path d="M73683 36542
L73683 36351
" />
<path d="M73797 36580
L73397 36447
L73797 36313
" />
<path d="M73435 36199
L73416 36180
L73397 36142
L73397 36047
L73416 36008
L73435 35989
L73473 35970
L73512 35970
L73569 35989
L73797 36218
L73797 35970
" />
<path d="M73760 11075
L73760 11561
L73779 11618
L73798 11647
L73836 11675
L73912 11675
L73950 11647
L73969 11618
L73988 11561
L73988 11075
" />
<path d="M74160 11133
L74179 11104
L74217 11075
L74312 11075
L74350 11104
L74369 11133
L74388 11190
L74388 11247
L74369 11333
L74141 11675
L74388 11675
" />
<path d="M72948 14425
L72757 14425
L72757 13825
" />
<path d="M73081 14425
L73081 13825
L73214 14254
L73348 13825
L73348 14425
" />
<path d="M73500 13825
L73767 13825
L73595 14425
" />
<path d="M73976 14083
L73938 14054
L73919 14025
L73900 13968
L73900 13940
L73919 13883
L73938 13854
L73976 13825
L74053 13825
L74091 13854
L74110 13883
L74129 13940
L74129 13968
L74110 14025
L74091 14054
L74053 14083
L73976 14083
L73938 14111
L73919 14140
L73900 14197
L73900 14311
L73919 14368
L73938 14397
L73976 14425
L74053 14425
L74091 14397
L74110 14368
L74129 14311
L74129 14197
L74110 14140
L74091 14111
L74053 14083
" />
<path d="M74376 13825
L74414 13825
L74453 13854
L74472 13883
L74491 13940
L74510 14054
L74510 14197
L74491 14311
L74472 14368
L74453 14397
L74414 14425
L74376 14425
L74338 14397
L74319 14368
L74300 14311
L74281 14197
L74281 14054
L74300 13940
L74319 13883
L74338 13854
L74376 13825
" />
<path d="M74872 13825
L74681 13825
L74662 14111
L74681 14083
L74719 14054
L74814 14054
L74853 14083
L74872 14111
L74891 14168
L74891 14311
L74872 14368
L74853 14397
L74814 14425
L74719 14425
L74681 14397
L74662 14368
" />
</g>
<g style="fill:#000000; fill-opacity:0.0; 
stroke:#000000; stroke-width:35; stroke-opacity:1; 
stroke-linecap:round; stroke-linejoin:round;">
<path d="M97028 26137
L96728 26137
L96728 26066
L96742 26023
L96771 25995
L96799 25980
L96857 25966
L96899 25966
L96957 25980
L96985 25995
L97014 26023
L97028 26066
L97028 26137
" />
<path d="M97028 25680
L97028 25852
" />
<path d="M97028 25766
L96728 25766
L96771 25795
L96799 25823
L96814 25852
" />
<path d="M94928 25409
L94928 25552
L94628 25552
" />
<path d="M94771 25309
L94771 25209
" />
<path d="M94928 25166
L94928 25309
L94628 25309
L94628 25166
" />
<path d="M94928 25037
L94628 25037
L94628 24966
L94642 24923
L94671 24895
L94699 24880
L94757 24866
L94799 24866
L94857 24880
L94885 24895
L94914 24923
L94928 24966
L94928 25037
" />
</g>
<g style="fill:#000000; fill-opacity:0.0; 
stroke:#000000; stroke-width:80; stroke-opacity:1; 
stroke-linecap:round; stroke-linejoin:round;">
<path d="M97313 12666
L97332 12685
L97351 12742
L97351 12780
L97332 12838
L97294 12876
L97256 12895
L97179 12914
L97122 12914
L97046 12895
L97008 12876
L96970 12838
L96951 12780
L96951 12742
L96970 12685
L96989 12666
" />
<path d="M97084 12323
L97351 12323
" />
<path d="M96932 12419
L97217 12514
L97217 12266
" />
<path d="M99056 13490
L99075 13509
L99094 13566
L99094 13604
L99075 13661
L99037 13699
L98999 13718
L98923 13737
L98866 13737
L98789 13718
L98751 13699
L98713 13661
L98694 13604
L98694 13566
L98713 13509
L98732 13490
" />
<path d="M98694 13356
L98694 13109
L98846 13242
L98846 13185
L98866 13147
L98885 13128
L98923 13109
L99018 13109
L99056 13128
L99075 13147
L99094 13185
L99094 13299
L99075 13337
L99056 13356
" />
<path d="M77637 13611
L77657 13630
L77676 13687
L77676 13725
L77657 13782
L77618 13821
L77580 13840
L77504 13859
L77447 13859
L77371 13840
L77333 13821
L77295 13782
L77276 13725
L77276 13687
L77295 13630
L77314 13611
" />
<path d="M77276 13268
L77276 13344
L77295 13382
L77314 13402
L77371 13440
L77447 13459
L77599 13459
L77637 13440
L77657 13421
L77676 13382
L77676 13306
L77657 13268
L77637 13249
L77599 13230
L77504 13230
L77466 13249
L77447 13268
L77428 13306
L77428 13382
L77447 13421
L77466 13440
L77504 13459
" />
<path d="M72136 13631
L72155 13650
L72174 13707
L72174 13745
L72155 13802
L72116 13840
L72078 13859
L72002 13878
L71945 13878
L71869 13859
L71831 13840
L71793 13802
L71774 13745
L71774 13707
L71793 13650
L71812 13631
" />
<path d="M71774 13269
L71774 13459
L71964 13478
L71945 13459
L71926 13421
L71926 13326
L71945 13288
L71964 13269
L72002 13250
L72097 13250
L72136 13269
L72155 13288
L72174 13326
L72174 13421
L72155 13459
L72136 13478
" />
</g>
<g style="fill:#000000; fill-opacity:0.0; 
stroke:#000000; stroke-width:50; stroke-opacity:1; 
stroke-linecap:round; stroke-linejoin:round;">
<path d="M98662 12579
L98677 12593
L98691 12636
L98691 12665
L98677 12708
L98648 12736
L98619 12750
L98562 12765
L98519 12765
L98462 12750
L98434 12736
L98405 12708
L98391 12665
L98391 12636
L98405 12593
L98419 12579
" />
<path d="M98691 12293
L98691 12465
" />
<path d="M98691 12379
L98391 12379
L98434 12408
L98462 12436
L98477 12465
" />
<path d="M97692 12797
L97692 12940
" />
<path d="M97692 12868
L97392 12868
L97435 12892
L97463 12916
L97478 12940
" />
<path d="M97392 12642
L97392 12618
L97406 12595
L97420 12583
L97449 12571
L97506 12559
L97578 12559
L97635 12571
L97663 12583
L97678 12595
L97692 12618
L97692 12642
L97678 12666
L97663 12678
L97635 12690
L97578 12702
L97506 12702
L97449 12690
L97420 12678
L97406 12666
L97392 12642
" />
<path d="M97492 12345
L97692 12345
" />
<path d="M97492 12452
L97649 12452
L97678 12440
L97692 12416
L97692 12380
L97678 12356
L97663 12345
" />
<path d="M97535 12142
L97535 12225
" />
<path d="M97692 12225
L97392 12225
L97392 12106
" />
</g>
<g style="fill:#000000; fill-opacity:0.0; 
stroke:#000000; stroke-width:80; stroke-opacity:1; 
stroke-linecap:round; stroke-linejoin:round;">
</g>
<g style="fill:#000000; fill-opacity:0.0; 
stroke:#000000; stroke-width:75; stroke-opacity:1; 
stroke-linecap:round; stroke-linejoin:round;">
<path d="M98078 11743
L98078 11515
" />
<path d="M98192 11629
L97963 11629
" />
</g>
<g style="fill:#000000; fill-opacity:0.0; 
stroke:#000000; stroke-width:80; stroke-opacity:1; 
stroke-linecap:round; stroke-linejoin:round;">
</g>
<g style="fill:#000000; fill-opacity:0.0; 
stroke:#000000; stroke-width:50; stroke-opacity:1; 
stroke-linecap:round; stroke-linejoin:round;">
<path d="M79066 13494
L79080 13509
L79094 13552
L79094 13580
L79080 13623
L79051 13652
L79023 13666
L78966 13680
L78923 13680
L78866 13666
L78837 13652
L78809 13623
L78794 13580
L78794 13552
L78809 13509
L78823 13494
" />
<path d="M78823 13380
L78809 13366
L78794 13337
L78794 13266
L78809 13237
L78823 13223
L78851 13209
L78880 13209
L78923 13223
L79094 13394
L79094 13209
" />
<path d="M78095 13712
L78095 13855
" />
<path d="M78095 13784
L77795 13784
L77838 13807
L77867 13831
L77881 13855
" />
<path d="M77795 13557
L77795 13534
L77810 13510
L77824 13498
L77852 13486
L77910 13474
L77981 13474
L78038 13486
L78067 13498
L78081 13510
L78095 13534
L78095 13557
L78081 13581
L78067 13593
L78038 13605
L77981 13617
L77910 13617
L77852 13605
L77824 13593
L77810 13581
L77795 13557
" />
<path d="M77895 13260
L78095 13260
" />
<path d="M77895 13367
L78052 13367
L78081 13355
L78095 13331
L78095 13296
L78081 13272
L78067 13260
" />
<path d="M77938 13057
L77938 13141
" />
<path d="M78095 13141
L77795 13141
L77795 13022
" />
</g>
<g style="fill:#000000; fill-opacity:0.0; 
stroke:#000000; stroke-width:80; stroke-opacity:1; 
stroke-linecap:round; stroke-linejoin:round;">
</g>
<g style="fill:#000000; fill-opacity:0.0; 
stroke:#000000; stroke-width:75; stroke-opacity:1; 
stroke-linecap:round; stroke-linejoin:round;">
<path d="M78481 12659
L78481 12430
" />
<path d="M78595 12544
L78367 12544
" />
</g>
<g style="fill:#000000; fill-opacity:0.0; 
stroke:#000000; stroke-width:80; stroke-opacity:1; 
stroke-linecap:round; stroke-linejoin:round;">
</g>
<g style="fill:#000000; fill-opacity:0.0; 
stroke:#000000; stroke-width:100; stroke-opacity:1; 
stroke-linecap:round; stroke-linejoin:round;">
<path d="M69484 20117
L69465 20155
L69465 20212
L69484 20270
L69522 20308
L69561 20327
L69637 20346
L69694 20346
L69770 20327
L69808 20308
L69846 20270
L69865 20212
L69865 20174
L69846 20117
L69827 20098
L69694 20098
L69694 20174
" />
<path d="M69865 19927
L69465 19927
L69865 19698
L69465 19698
" />
<path d="M69865 19508
L69465 19508
L69465 19412
L69484 19355
L69522 19317
L69561 19298
L69637 19279
L69694 19279
L69770 19298
L69808 19317
L69846 19355
L69865 19412
L69865 19508
" />
<path d="M78579 21456
L78560 21494
L78560 21551
L78579 21608
L78617 21646
L78655 21665
L78731 21684
L78788 21684
L78865 21665
L78903 21646
L78941 21608
L78960 21551
L78960 21513
L78941 21456
L78922 21437
L78788 21437
L78788 21513
" />
<path d="M78960 21265
L78560 21265
L78960 21037
L78560 21037
" />
<path d="M78960 20846
L78560 20846
L78560 20751
L78579 20694
L78617 20656
L78655 20637
L78731 20618
L78788 20618
L78865 20637
L78903 20656
L78941 20694
L78960 20751
L78960 20846
" />
<path d="M94842 34899
L94804 34880
L94747 34880
L94690 34899
L94652 34937
L94633 34976
L94614 35052
L94614 35109
L94633 35185
L94652 35223
L94690 35261
L94747 35280
L94785 35280
L94842 35261
L94861 35242
L94861 35109
L94785 35109
" />
<path d="M95033 35280
L95033 34880
L95261 35280
L95261 34880
" />
<path d="M95452 35280
L95452 34880
L95547 34880
L95604 34899
L95642 34937
L95661 34976
L95680 35052
L95680 35109
L95661 35185
L95642 35223
L95604 35261
L95547 35280
L95452 35280
" />
<path d="M95640 45175
L95602 45156
L95544 45156
L95487 45175
L95449 45213
L95430 45251
L95411 45327
L95411 45384
L95430 45461
L95449 45499
L95487 45537
L95544 45556
L95582 45556
L95640 45537
L95659 45518
L95659 45384
L95582 45384
" />
<path d="M95830 45556
L95830 45156
L96059 45556
L96059 45156
" />
<path d="M96249 45556
L96249 45156
L96344 45156
L96402 45175
L96440 45213
L96459 45251
L96478 45327
L96478 45384
L96459 45461
L96440 45499
L96402 45537
L96344 45556
L96249 45556
" />
<path d="M69567 45943
L69529 45924
L69472 45924
L69414 45943
L69376 45981
L69357 46019
L69338 46095
L69338 46152
L69357 46228
L69376 46266
L69414 46305
L69472 46324
L69510 46324
L69567 46305
L69586 46286
L69586 46152
L69510 46152
" />
<path d="M69757 46324
L69757 45924
L69986 46324
L69986 45924
" />
<path d="M70176 46324
L70176 45924
L70272 45924
L70329 45943
L70367 45981
L70386 46019
L70405 46095
L70405 46152
L70386 46228
L70367 46266
L70329 46305
L70272 46324
L70176 46324
" />
<path d="M102175 45204
L102137 45185
L102080 45185
L102023 45204
L101985 45243
L101966 45281
L101946 45357
L101946 45414
L101966 45490
L101985 45528
L102023 45566
L102080 45585
L102118 45585
L102175 45566
L102194 45547
L102194 45414
L102118 45414
" />
<path d="M102366 45585
L102366 45185
L102594 45585
L102594 45185
" />
<path d="M102785 45585
L102785 45185
L102880 45185
L102937 45204
L102975 45243
L102994 45281
L103013 45357
L103013 45414
L102994 45490
L102975 45528
L102937 45566
L102880 45585
L102785 45585
" />
<path d="M78667 15796
L78648 15834
L78648 15892
L78667 15949
L78706 15987
L78744 16006
L78820 16025
L78877 16025
L78953 16006
L78991 15987
L79029 15949
L79048 15892
L79048 15854
L79029 15796
L79010 15777
L78877 15777
L78877 15854
" />
<path d="M79048 15606
L78648 15606
L79048 15377
L78648 15377
" />
<path d="M79048 15187
L78648 15187
L78648 15092
L78667 15034
L78706 14996
L78744 14977
L78820 14958
L78877 14958
L78953 14977
L78991 14996
L79029 15034
L79048 15092
L79048 15187
" />
<path d="M94573 21249
L94554 21287
L94554 21344
L94573 21402
L94611 21440
L94649 21459
L94725 21478
L94782 21478
L94859 21459
L94897 21440
L94935 21402
L94954 21344
L94954 21306
L94935 21249
L94916 21230
L94782 21230
L94782 21306
" />
<path d="M94954 21059
L94554 21059
L94954 20830
L94554 20830
" />
<path d="M94954 20640
L94554 20640
L94554 20544
L94573 20487
L94611 20449
L94649 20430
L94725 20411
L94782 20411
L94859 20430
L94897 20449
L94935 20487
L94954 20544
L94954 20640
" />
</g>
<g style="fill:#000000; fill-opacity:0.0; 
stroke:#000000; stroke-width:80; stroke-opacity:1; 
stroke-linecap:round; stroke-linejoin:round;">
<path d="M81195 11807
L81005 11807
L80986 11998
L81005 11979
L81043 11959
L81138 11959
L81176 11979
L81195 11998
L81214 12036
L81214 12131
L81195 12169
L81176 12188
L81138 12207
L81043 12207
L81005 12188
L80986 12169
" />
<path d="M81329 11807
L81462 12207
L81595 11807
" />
<path d="M81633 12245
L81938 12245
" />
<path d="M82109 11807
L82186 11807
L82224 11826
L82262 11864
L82281 11940
L82281 12074
L82262 12150
L82224 12188
L82186 12207
L82109 12207
L82071 12188
L82033 12150
L82014 12074
L82014 11940
L82033 11864
L82071 11826
L82109 11807
" />
<path d="M82452 11807
L82452 12131
L82471 12169
L82490 12188
L82529 12207
L82605 12207
L82643 12188
L82662 12169
L82681 12131
L82681 11807
" />
<path d="M82814 11807
L83043 11807
" />
<path d="M82929 12207
L82929 11807
" />
</g>
<g style="fill:#000000; fill-opacity:0.0; 
stroke:#000000; stroke-width:100; stroke-opacity:1; 
stroke-linecap:round; stroke-linejoin:round;">
<path d="M93986 29801
L93948 29782
L93891 29782
L93834 29801
L93796 29839
L93777 29877
L93758 29953
L93758 30010
L93777 30087
L93796 30125
L93834 30163
L93891 30182
L93929 30182
L93986 30163
L94005 30144
L94005 30010
L93929 30010
" />
<path d="M94177 30182
L94177 29782
L94405 30182
L94405 29782
" />
<path d="M94596 30182
L94596 29782
L94691 29782
L94748 29801
L94786 29839
L94805 29877
L94824 29953
L94824 30010
L94805 30087
L94786 30125
L94748 30163
L94691 30182
L94596 30182
" />
<path d="M90207 9496
L90168 9477
L90111 9477
L90054 9496
L90016 9534
L89997 9572
L89978 9648
L89978 9705
L89997 9782
L90016 9820
L90054 9858
L90111 9877
L90149 9877
L90207 9858
L90226 9839
L90226 9705
L90149 9705
" />
<path d="M90397 9877
L90397 9477
L90626 9877
L90626 9477
" />
<path d="M90816 9877
L90816 9477
L90911 9477
L90968 9496
L91007 9534
L91026 9572
L91045 9648
L91045 9705
L91026 9782
L91007 9820
L90968 9858
L90911 9877
L90816 9877
" />
</g>
<g style="fill:#000000; fill-opacity:0.0; 
stroke:#000000; stroke-width:80; stroke-opacity:1; 
stroke-linecap:round; stroke-linejoin:round;">
<path d="M100285 24558
L100304 24501
L100304 24406
L100285 24368
L100266 24349
L100228 24330
L100190 24330
L100152 24349
L100133 24368
L100114 24406
L100095 24482
L100076 24520
L100057 24539
L100019 24558
L99981 24558
L99942 24539
L99923 24520
L99904 24482
L99904 24387
L99923 24330
" />
<path d="M99904 24197
L100304 24101
L100019 24025
L100304 23949
L99904 23854
" />
<path d="M100304 23492
L100304 23720
" />
<path d="M100304 23606
L99904 23606
L99961 23644
L100000 23682
L100019 23720
" />
<path d="M101004 25301
L100814 25435
" />
<path d="M101004 25530
L100604 25530
L100604 25377
L100623 25339
L100642 25320
L100681 25301
L100738 25301
L100776 25320
L100795 25339
L100814 25377
L100814 25530
" />
<path d="M100985 24977
L101004 25016
L101004 25092
L100985 25130
L100947 25149
L100795 25149
L100757 25130
L100738 25092
L100738 25016
L100757 24977
L100795 24958
L100833 24958
L100871 25149
" />
<path d="M100985 24806
L101004 24768
L101004 24692
L100985 24654
L100947 24635
L100928 24635
L100890 24654
L100871 24692
L100871 24749
L100852 24787
L100814 24806
L100795 24806
L100757 24787
L100738 24749
L100738 24692
L100757 24654
" />
<path d="M100985 24311
L101004 24349
L101004 24425
L100985 24463
L100947 24482
L100795 24482
L100757 24463
L100738 24425
L100738 24349
L100757 24311
L100795 24292
L100833 24292
L100871 24482
" />
<path d="M100738 24177
L100738 24025
" />
<path d="M100604 24120
L100947 24120
L100985 24101
L101004 24063
L101004 24025
" />
<path d="M101042 23987
L101042 23682
" />
<path d="M100985 23416
L101004 23454
L101004 23530
L100985 23568
L100966 23587
L100928 23606
L100814 23606
L100776 23587
L100757 23568
L100738 23530
L100738 23454
L100757 23416
" />
<path d="M101004 23244
L100738 23244
" />
<path d="M100604 23244
L100623 23263
L100642 23244
L100623 23225
L100604 23244
L100642 23244
" />
<path d="M101004 22882
L100795 22882
L100757 22901
L100738 22939
L100738 23016
L100757 23054
" />
<path d="M100985 22882
L101004 22920
L101004 23016
L100985 23054
L100947 23073
L100909 23073
L100871 23054
L100852 23016
L100852 22920
L100833 22882
" />
<path d="M101004 22520
L100795 22520
L100757 22539
L100738 22577
L100738 22654
L100757 22692
" />
<path d="M100985 22520
L101004 22558
L101004 22654
L100985 22692
L100947 22711
L100909 22711
L100871 22692
L100852 22654
L100852 22558
L100833 22520
" />
<path d="M99175 18077
L99423 18077
L99289 18229
L99346 18229
L99385 18248
L99404 18267
L99423 18305
L99423 18401
L99404 18439
L99385 18458
L99346 18477
L99232 18477
L99194 18458
L99175 18439
" />
<path d="M99594 18439
L99613 18458
L99594 18477
L99575 18458
L99594 18439
L99594 18477
" />
<path d="M99842 18248
L99804 18229
L99785 18210
L99765 18172
L99765 18153
L99785 18115
L99804 18096
L99842 18077
L99918 18077
L99956 18096
L99975 18115
L99994 18153
L99994 18172
L99975 18210
L99956 18229
L99918 18248
L99842 18248
L99804 18267
L99785 18286
L99765 18324
L99765 18401
L99785 18439
L99804 18458
L99842 18477
L99918 18477
L99956 18458
L99975 18439
L99994 18401
L99994 18324
L99975 18286
L99956 18267
L99918 18248
" />
<path d="M100108 18077
L100242 18477
L100375 18077
" />
<path d="M100413 18515
L100718 18515
" />
<path d="M100889 18077
L100965 18077
L101004 18096
L101042 18134
L101061 18210
L101061 18343
L101042 18420
L101004 18458
L100965 18477
L100889 18477
L100851 18458
L100813 18420
L100794 18343
L100794 18210
L100813 18134
L100851 18096
L100889 18077
" />
<path d="M101232 18077
L101232 18401
L101251 18439
L101270 18458
L101308 18477
L101385 18477
L101423 18458
L101442 18439
L101461 18401
L101461 18077
" />
<path d="M101594 18077
L101823 18077
" />
<path d="M101708 18477
L101708 18077
" />
</g>
<g style="fill:#000000; fill-opacity:0.0; 
stroke:#000000; stroke-width:59.0551; stroke-opacity:1; 
stroke-linecap:round; stroke-linejoin:round;">
<path d="M89281 13917
L92509 13917
" />
<path d="M92509 13917
L92509 15098
" />
<path d="M92509 15098
L86053 15098
" />
<path d="M86053 15098
L86053 13917
" />
<path d="M86053 13917
L89281 13917
" />
</g>
<g style="fill:#000000; fill-opacity:0.0; 
stroke:#000000; stroke-width:150; stroke-opacity:1; 
stroke-linecap:round; stroke-linejoin:round;">
<path d="M102836 12015
L103086 12015
" />
<path d="M103086 12015
L103086 16015
" />
<path d="M103086 16015
L102836 16015
" />
<path d="M101336 12015
L102836 12015
" />
<path d="M102836 12015
L102836 16015
" />
<path d="M102836 16015
L101336 16015
" />
<path d="M101336 16015
L101336 12015
" />
</g>
<g style="fill:#000000; fill-opacity:0.0; 
stroke:#000000; stroke-width:120; stroke-opacity:1; 
stroke-linecap:round; stroke-linejoin:round;">
<path d="M96405 16269
L96805 16269
" />
<path d="M96805 16269
L96805 15869
" />
<path d="M96805 15869
L100005 15869
" />
<path d="M100005 15869
L100005 16669
" />
<path d="M100005 16669
L96805 16669
" />
<path d="M96805 16669
L96805 16269
" />
<path d="M96805 16069
L97005 15869
" />
<path d="M100405 16269
L100005 16269
" />
<path d="M95826 19230
L95826 19630
" />
<path d="M95826 19630
L96226 19630
" />
<path d="M96226 19630
L96226 22830
" />
<path d="M96226 22830
L95426 22830
" />
<path d="M95426 22830
L95426 19630
" />
<path d="M95426 19630
L95826 19630
" />
<path d="M96026 19630
L96226 19830
" />
<path d="M95826 23230
L95826 22830
" />
<path d="M94862 11070
L94862 11470
" />
<path d="M94862 11470
L95262 11470
" />
<path d="M95262 11470
L95262 14670
" />
<path d="M95262 14670
L94462 14670
" />
<path d="M94462 14670
L94462 11470
" />
<path d="M94462 11470
L94862 11470
" />
<path d="M95062 11470
L95262 11670
" />
<path d="M94862 15070
L94862 14670
" />
</g>
<g style="fill:#000000; fill-opacity:0.0; 
stroke:#000000; stroke-width:100; stroke-opacity:1; 
stroke-linecap:round; stroke-linejoin:round;">
<path d="M67970 18421
L67970 16421
" />
<path d="M66220 18421
L66220 16421
" />
<path d="M68720 16421
L68720 18421
" />
<path d="M68720 16421
L66220 16421
" />
<path d="M68720 18421
L66220 18421
" />
</g>
<g style="fill:#000000; fill-opacity:0.0; 
stroke:#000000; stroke-width:120; stroke-opacity:1; 
stroke-linecap:round; stroke-linejoin:round;">
<path d="M97507 30828
L96507 30828
" />
<path d="M97507 29828
L97507 37828
" />
<path d="M97507 37828
L96507 37828
" />
<path d="M96507 37828
L96507 29828
" />
<path d="M96507 29828
L97507 29828
" />
<path d="M94537 47631
L74537 47631
" />
<path d="M74537 45631
L94537 45631
" />
<path d="M74537 46631
L75537 46631
" />
<path d="M75537 46631
L75537 47631
" />
<path d="M74537 45631
L74537 47631
" />
<path d="M94537 47631
L94537 45631
" />
<path d="M94537 19631
L74537 19631
" />
<path d="M74537 17631
L94537 17631
" />
<path d="M74537 18631
L75537 18631
" />
<path d="M75537 18631
L75537 19631
" />
<path d="M74537 17631
L74537 19631
" />
<path d="M94537 19631
L94537 17631
" />
<path d="M99135 47923
L99135 27923
" />
<path d="M101135 27923
L101135 47923
" />
<path d="M100135 27923
L100135 28923
" />
<path d="M100135 28923
L99135 28923
" />
<path d="M101135 27923
L99135 27923
" />
<path d="M99135 47923
L101135 47923
" />
<path d="M71135 47923
L71135 27923
" />
<path d="M73135 27923
L73135 47923
" />
<path d="M72135 27923
L72135 28923
" />
<path d="M72135 28923
L71135 28923
" />
<path d="M73135 27923
L71135 27923
" />
<path d="M71135 47923
L73135 47923
" />
</g>
<g style="fill:#000000; fill-opacity:0.0; 
stroke:#000000; stroke-width:100; stroke-opacity:1; 
stroke-linecap:round; stroke-linejoin:round;">
<path d="M72314 12183
L72314 11933
" />
<path d="M72314 11933
L75814 11933
" />
<path d="M75814 11933
L75814 12183
" />
<path d="M72314 13683
L72314 12183
" />
<path d="M72314 12183
L75814 12183
" />
<path d="M75814 12183
L75814 13683
" />
<path d="M75814 13683
L72314 13683
" />
<path d="M95307 25936
L96307 25936
" />
</g>
<g style="fill:#000000; fill-opacity:0.0; 
stroke:#000000; stroke-width:60; stroke-opacity:1; 
stroke-linecap:round; stroke-linejoin:round;">
<path d="M96191.2 24855.6 A600 600 0.0 0 0 95807.1 24716.5 " />
<path d="M95807.1 24717.3 A599.256 599.256 0.0 0 0 95409.2 24868.4 " />
<path d="M95807.1 25915.8 A599.27 599.27 0.0 0 0 96197.1 25771.5 " />
<path d="M95423 25777.5 A600 600 0.0 0 0 95807.1 25916.5 " />
<path d="M96156.4 25804.4 A600 600 0.0 0 0 96407.1 25316.5 " />
<path d="M96407.1 25316.5 A600 600 0.0 0 0 96167.3 24836.7 " />
<path d="M95207.8 25316.5 A599.294 599.294 0.0 0 0 95438.9 25789.4 " />
<path d="M95438.5 24843.1 A600 600 0.0 0 0 95207.1 25316.5 " />
<path d="M96057.1 25316.5 A250 250 0.0 0 0 95807.1 25066.5 " />
<path d="M96207.1 25316.5 A400 400 0.0 0 0 95807.1 24916.5 " />
<path d="M95557.1 25316.5 A250 250 0.0 0 0 95807.1 25566.5 " />
<path d="M95407.1 25316.5 A400 400 0.0 0 0 95807.1 25716.5 " />
</g>
<g style="fill:#000000; fill-opacity:0.0; 
stroke:#000000; stroke-width:100; stroke-opacity:1; 
stroke-linecap:round; stroke-linejoin:round;">
<path d="M96320.2 25930.3 A800 800 0.0 0 0 96607.1 25316.5 " />
<path d="M96606.1 25316.5 A799 799 0.0 0 0 96183.4 24611.7 " />
<path d="M95008.1 25317.9 A798.972 798.972 0.0 0 0 95291.4 25926.8 " />
<path d="M95409.5 24622.3 A800 800 0.0 0 0 95007.1 25316.5 " />
<path d="M96186.4 24612.2 A800 800 0.0 0 0 95807.1 24516.5 " />
<path d="M95807.1 24517 A799.576 799.576 0.0 0 0 95388.1 24635.5 " />
</g>
<g style="fill:#000000; fill-opacity:0.0; 
stroke:#000000; stroke-width:120; stroke-opacity:1; 
stroke-linecap:round; stroke-linejoin:round;">
<path d="M96789 11520
L96789 13500
" />
<path d="M96789 13500
L95789 13500
" />
<path d="M95789 13500
L95789 11500
" />
<path d="M95789 11500
L96789 11500
" />
<path d="M96539 11500
L96789 11750
" />
<path d="M99332 14503
L99332 12523
" />
<path d="M99332 12523
L100332 12523
" />
<path d="M100332 12523
L100332 14523
" />
<path d="M100332 14523
L99332 14523
" />
<path d="M99582 14523
L99332 14273
" />
<path d="M77114 12464
L77114 14444
" />
<path d="M77114 14444
L76114 14444
" />
<path d="M76114 14444
L76114 12444
" />
<path d="M76114 12444
L77114 12444
" />
<path d="M76864 12444
L77114 12694
" />
<path d="M71612 12484
L71612 14464
" />
<path d="M71612 14464
L70612 14464
" />
<path d="M70612 14464
L70612 12464
" />
<path d="M70612 12464
L71612 12464
" />
<path d="M71362 12464
L71612 12714
" />
</g>
<g style="fill:#000000; fill-opacity:0.0; 
stroke:#000000; stroke-width:50; stroke-opacity:1; 
stroke-linecap:round; stroke-linejoin:round;">
<circle cx="98070.9" cy="12529.5" r="1001.25" /> 
<circle cx="78474.4" cy="13444.9" r="1001.25" /> 
</g>
<g style="fill:#000000; fill-opacity:0.0; 
stroke:#000000; stroke-width:150; stroke-opacity:1; 
stroke-linecap:round; stroke-linejoin:round;">
<circle cx="68503.9" cy="19813" r="900" /> 
<circle cx="77598.4" cy="21151.6" r="900" /> 
<circle cx="95147.6" cy="36318.9" r="900" /> 
<circle cx="95944.9" cy="46594.5" r="900" /> 
<circle cx="69872" cy="47362.2" r="900" /> 
<circle cx="102480" cy="46624" r="900" /> 
<circle cx="77687" cy="15492.1" r="900" /> 
<circle cx="93592.5" cy="20944.9" r="900" /> 
</g>
<g style="fill:#000000; fill-opacity:0.0; 
stroke:#000000; stroke-width:120; stroke-opacity:1; 
stroke-linecap:round; stroke-linejoin:round;">
<path d="M81145 12395
L83145 12395
" />
<path d="M83145 12395
L83145 14395
" />
<path d="M83145 14395
L81145 14395
" />
<path d="M81145 14395
L81145 12395
" />
</g>
<g style="fill:#000000; fill-opacity:0.0; 
stroke:#000000; stroke-width:150; stroke-opacity:1; 
stroke-linecap:round; stroke-linejoin:round;">
<circle cx="94291.3" cy="31220.5" r="900" /> 
<circle cx="90511.8" cy="10915.4" r="900" /> 
</g>
<g style="fill:#000000; fill-opacity:0.0; 
stroke:#000000; stroke-width:50; stroke-opacity:1; 
stroke-linecap:round; stroke-linejoin:round;">
<circle cx="100443" cy="24025.6" r="1000" /> 
<path d="M98942 25525
L98942 22525
" />
<path d="M98942 22525
L101942 22525
" />
<path d="M101942 22525
L101942 25525
" />
<path d="M98942 25525
L101942 25525
" />
</g>
<g style="fill:#000000; fill-opacity:0.0; 
stroke:#000000; stroke-width:120; stroke-opacity:1; 
stroke-linecap:round; stroke-linejoin:round;">
<path d="M99639 18665
L101639 18665
" />
<path d="M101639 18665
L101639 20665
" />
<path d="M101639 20665
L99639 20665
" />
<path d="M99639 20665
L99639 18665
" />
</g>
<g style="fill:#000000; fill-opacity:0.0; 
stroke:#000000; stroke-width:787.402; stroke-opacity:1; 
stroke-linecap:round; stroke-linejoin:round;">
<path d="M90059 14507
L90059 14507
" />
<path d="M88503 14507
L88503 14507
" />
<path d="M91614 14507
L91614 14507
" />
<path d="M86929 14507
L86929 14507
" />
</g>
<g style="fill:#000000; fill-opacity:0.0; 
stroke:#000000; stroke-width:669.291; stroke-opacity:1; 
stroke-linecap:round; stroke-linejoin:round;">
<path d="M101929 13015
L102244 13015
" />
<path d="M101929 14015
L102244 14015
" />
<path d="M101929 15015
L102244 15015
" />
</g>
<g style="fill:#000000; fill-opacity:0.0; 
stroke:#000000; stroke-width:787.402; stroke-opacity:1; 
stroke-linecap:round; stroke-linejoin:round;">
<path d="M96405 16269
L96405 16269
" />
<path d="M100405 16269
L100405 16269
" />
<path d="M95826 19230
L95826 19230
" />
<path d="M95826 23230
L95826 23230
" />
<path d="M94862 11070
L94862 11070
" />
<path d="M94862 15070
L94862 15070
" />
<path d="M67470 16921
L67470 16921
" />
<path d="M67470 17921
L67470 17921
" />
<path d="M97007 30328
L97007 30328
" />
<path d="M97007 31328
L97007 31328
" />
<path d="M97007 32328
L97007 32328
" />
<path d="M97007 33328
L97007 33328
" />
<path d="M97007 34328
L97007 34328
" />
<path d="M97007 35328
L97007 35328
" />
<path d="M97007 36328
L97007 36328
" />
<path d="M97007 37328
L97007 37328
" />
<path d="M75037 47131
L75037 47131
" />
<path d="M75037 46131
L75037 46131
" />
<path d="M76037 47131
L76037 47131
" />
<path d="M76037 46131
L76037 46131
" />
<path d="M77037 47131
L77037 47131
" />
<path d="M77037 46131
L77037 46131
" />
<path d="M78037 47131
L78037 47131
" />
<path d="M78037 46131
L78037 46131
" />
<path d="M79037 47131
L79037 47131
" />
<path d="M79037 46131
L79037 46131
" />
<path d="M80037 47131
L80037 47131
" />
<path d="M80037 46131
L80037 46131
" />
<path d="M81037 47131
L81037 47131
" />
<path d="M81037 46131
L81037 46131
" />
<path d="M82037 47131
L82037 47131
" />
<path d="M82037 46131
L82037 46131
" />
<path d="M83037 47131
L83037 47131
" />
<path d="M83037 46131
L83037 46131
" />
<path d="M84037 47131
L84037 47131
" />
<path d="M84037 46131
L84037 46131
" />
<path d="M85037 47131
L85037 47131
" />
<path d="M85037 46131
L85037 46131
" />
<path d="M86037 47131
L86037 47131
" />
<path d="M86037 46131
L86037 46131
" />
<path d="M87037 47131
L87037 47131
" />
<path d="M87037 46131
L87037 46131
" />
<path d="M88037 47131
L88037 47131
" />
<path d="M88037 46131
L88037 46131
" />
<path d="M89037 47131
L89037 47131
" />
<path d="M89037 46131
L89037 46131
" />
<path d="M90037 47131
L90037 47131
" />
<path d="M90037 46131
L90037 46131
" />
<path d="M91037 47131
L91037 47131
" />
<path d="M91037 46131
L91037 46131
" />
<path d="M92037 47131
L92037 47131
" />
<path d="M92037 46131
L92037 46131
" />
<path d="M93037 47131
L93037 47131
" />
<path d="M93037 46131
L93037 46131
" />
<path d="M94037 47131
L94037 47131
" />
<path d="M94037 46131
L94037 46131
" />
<path d="M75037 19131
L75037 19131
" />
<path d="M75037 18131
L75037 18131
" />
<path d="M76037 19131
L76037 19131
" />
<path d="M76037 18131
L76037 18131
" />
<path d="M77037 19131
L77037 19131
" />
<path d="M77037 18131
L77037 18131
" />
<path d="M78037 19131
L78037 19131
" />
<path d="M78037 18131
L78037 18131
" />
<path d="M79037 19131
L79037 19131
" />
<path d="M79037 18131
L79037 18131
" />
<path d="M80037 19131
L80037 19131
" />
<path d="M80037 18131
L80037 18131
" />
<path d="M81037 19131
L81037 19131
" />
<path d="M81037 18131
L81037 18131
" />
<path d="M82037 19131
L82037 19131
" />
<path d="M82037 18131
L82037 18131
" />
<path d="M83037 19131
L83037 19131
" />
<path d="M83037 18131
L83037 18131
" />
<path d="M84037 19131
L84037 19131
" />
<path d="M84037 18131
L84037 18131
" />
<path d="M85037 19131
L85037 19131
" />
<path d="M85037 18131
L85037 18131
" />
<path d="M86037 19131
L86037 19131
" />
<path d="M86037 18131
L86037 18131
" />
<path d="M87037 19131
L87037 19131
" />
<path d="M87037 18131
L87037 18131
" />
<path d="M88037 19131
L88037 19131
" />
<path d="M88037 18131
L88037 18131
" />
<path d="M89037 19131
L89037 19131
" />
<path d="M89037 18131
L89037 18131
" />
<path d="M90037 19131
L90037 19131
" />
<path d="M90037 18131
L90037 18131
" />
<path d="M91037 19131
L91037 19131
" />
<path d="M91037 18131
L91037 18131
" />
<path d="M92037 19131
L92037 19131
" />
<path d="M92037 18131
L92037 18131
" />
<path d="M93037 19131
L93037 19131
" />
<path d="M93037 18131
L93037 18131
" />
<path d="M94037 19131
L94037 19131
" />
<path d="M94037 18131
L94037 18131
" />
<path d="M99635 28423
L99635 28423
" />
<path d="M100635 28423
L100635 28423
" />
<path d="M99635 29423
L99635 29423
" />
<path d="M100635 29423
L100635 29423
" />
<path d="M99635 30423
L99635 30423
" />
<path d="M100635 30423
L100635 30423
" />
<path d="M99635 31423
L99635 31423
" />
<path d="M100635 31423
L100635 31423
" />
<path d="M99635 32423
L99635 32423
" />
<path d="M100635 32423
L100635 32423
" />
<path d="M99635 33423
L99635 33423
" />
<path d="M100635 33423
L100635 33423
" />
<path d="M99635 34423
L99635 34423
" />
<path d="M100635 34423
L100635 34423
" />
<path d="M99635 35423
L99635 35423
" />
<path d="M100635 35423
L100635 35423
" />
<path d="M99635 36423
L99635 36423
" />
<path d="M100635 36423
L100635 36423
" />
<path d="M99635 37423
L99635 37423
" />
<path d="M100635 37423
L100635 37423
" />
<path d="M99635 38423
L99635 38423
" />
<path d="M100635 38423
L100635 38423
" />
<path d="M99635 39423
L99635 39423
" />
<path d="M100635 39423
L100635 39423
" />
<path d="M99635 40423
L99635 40423
" />
<path d="M100635 40423
L100635 40423
" />
<path d="M99635 41423
L99635 41423
" />
<path d="M100635 41423
L100635 41423
" />
<path d="M99635 42423
L99635 42423
" />
<path d="M100635 42423
L100635 42423
" />
<path d="M99635 43423
L99635 43423
" />
<path d="M100635 43423
L100635 43423
" />
<path d="M99635 44423
L99635 44423
" />
<path d="M100635 44423
L100635 44423
" />
<path d="M99635 45423
L99635 45423
" />
<path d="M100635 45423
L100635 45423
" />
<path d="M99635 46423
L99635 46423
" />
<path d="M100635 46423
L100635 46423
" />
<path d="M99635 47423
L99635 47423
" />
<path d="M100635 47423
L100635 47423
" />
<path d="M71635 28423
L71635 28423
" />
<path d="M72635 28423
L72635 28423
" />
<path d="M71635 29423
L71635 29423
" />
<path d="M72635 29423
L72635 29423
" />
<path d="M71635 30423
L71635 30423
" />
<path d="M72635 30423
L72635 30423
" />
<path d="M71635 31423
L71635 31423
" />
<path d="M72635 31423
L72635 31423
" />
<path d="M71635 32423
L71635 32423
" />
<path d="M72635 32423
L72635 32423
" />
<path d="M71635 33423
L71635 33423
" />
<path d="M72635 33423
L72635 33423
" />
<path d="M71635 34423
L71635 34423
" />
<path d="M72635 34423
L72635 34423
" />
<path d="M71635 35423
L71635 35423
" />
<path d="M72635 35423
L72635 35423
" />
<path d="M71635 36423
L71635 36423
" />
<path d="M72635 36423
L72635 36423
" />
<path d="M71635 37423
L71635 37423
" />
<path d="M72635 37423
L72635 37423
" />
<path d="M71635 38423
L71635 38423
" />
<path d="M72635 38423
L72635 38423
" />
<path d="M71635 39423
L71635 39423
" />
<path d="M72635 39423
L72635 39423
" />
<path d="M71635 40423
L71635 40423
" />
<path d="M72635 40423
L72635 40423
" />
<path d="M71635 41423
L71635 41423
" />
<path d="M72635 41423
L72635 41423
" />
<path d="M71635 42423
L71635 42423
" />
<path d="M72635 42423
L72635 42423
" />
<path d="M71635 43423
L71635 43423
" />
<path d="M72635 43423
L72635 43423
" />
<path d="M71635 44423
L71635 44423
" />
<path d="M72635 44423
L72635 44423
" />
<path d="M71635 45423
L71635 45423
" />
<path d="M72635 45423
L72635 45423
" />
<path d="M71635 46423
L71635 46423
" />
<path d="M72635 46423
L72635 46423
" />
<path d="M71635 47423
L71635 47423
" />
<path d="M72635 47423
L72635 47423
" />
</g>
<g style="fill:#000000; fill-opacity:0.0; 
stroke:#000000; stroke-width:669.291; stroke-opacity:1; 
stroke-linecap:round; stroke-linejoin:round;">
<path d="M73064 13090
L73064 12775
" />
<path d="M74064 13090
L74064 12775
" />
<path d="M75064 13090
L75064 12775
" />
</g>
<g style="fill:#000000; fill-opacity:0.0; 
stroke:#000000; stroke-width:787.402; stroke-opacity:1; 
stroke-linecap:round; stroke-linejoin:round;">
<path d="M95807 24716
L95807 24716
" />
<path d="M95807 25716
L95807 25716
" />
</g>
<g style="fill:#000000; fill-opacity:0.0; 
stroke:#000000; stroke-width:39.3701; stroke-opacity:1; 
stroke-linecap:round; stroke-linejoin:round;">
</g>
<g style="fill:#000000; fill-opacity:1.0; 
stroke:#000000; stroke-width:39.3701; stroke-opacity:1; 
stroke-linecap:round; stroke-linejoin:round;">
<circle cx="96289.4" cy="12000" r="374.016" /> 
<circle cx="96289.4" cy="13000" r="374.016" /> 
<circle cx="99832.7" cy="14023.6" r="374.016" /> 
<circle cx="99832.7" cy="13023.6" r="374.016" /> 
<circle cx="76614.2" cy="12944.9" r="374.016" /> 
<circle cx="76614.2" cy="13944.9" r="374.016" /> 
<circle cx="71112.2" cy="12964.6" r="374.016" /> 
<circle cx="71112.2" cy="13964.6" r="374.016" /> 
</g>
<g style="fill:#000000; fill-opacity:1.0; 
stroke:#000000; stroke-width:787.402; stroke-opacity:1; 
stroke-linecap:round; stroke-linejoin:round;">
<path d="M98070 12029
L98070 12029
" />
</g>
<g style="fill:#000000; fill-opacity:1.0; 
stroke:#000000; stroke-width:39.3701; stroke-opacity:1; 
stroke-linecap:round; stroke-linejoin:round;">
<circle cx="98070.9" cy="13029.5" r="374.016" /> 
</g>
<g style="fill:#000000; fill-opacity:1.0; 
stroke:#000000; stroke-width:787.402; stroke-opacity:1; 
stroke-linecap:round; stroke-linejoin:round;">
<path d="M78474 12944
L78474 12944
" />
</g>
<g style="fill:#000000; fill-opacity:1.0; 
stroke:#000000; stroke-width:39.3701; stroke-opacity:1; 
stroke-linecap:round; stroke-linejoin:round;">
<circle cx="78474.4" cy="13944.9" r="374.016" /> 
<circle cx="68503.9" cy="19813" r="570.866" /> 
<circle cx="77598.4" cy="21151.6" r="570.866" /> 
<circle cx="95147.6" cy="36318.9" r="570.866" /> 
<circle cx="95944.9" cy="46594.5" r="570.866" /> 
<circle cx="69872" cy="47362.2" r="570.866" /> 
<circle cx="102480" cy="46624" r="570.866" /> 
<circle cx="77687" cy="15492.1" r="570.866" /> 
<circle cx="93592.5" cy="20944.9" r="570.866" /> 
</g>
<g style="fill:#000000; fill-opacity:1.0; 
stroke:#000000; stroke-width:787.402; stroke-opacity:1; 
stroke-linecap:round; stroke-linejoin:round;">
<path d="M81645 13895
L81645 13895
" />
<path d="M81645 12895
L81645 12895
" />
<path d="M82645 13895
L82645 13895
" />
<path d="M82645 12895
L82645 12895
" />
</g>
<g style="fill:#000000; fill-opacity:1.0; 
stroke:#000000; stroke-width:39.3701; stroke-opacity:1; 
stroke-linecap:round; stroke-linejoin:round;">
<circle cx="94291.3" cy="31220.5" r="570.866" /> 
<circle cx="90511.8" cy="10915.4" r="570.866" /> 
<circle cx="99442.9" cy="22525.6" r="570.866" /> 
<circle cx="101443" cy="22525.6" r="570.866" /> 
<circle cx="99442.9" cy="25525.6" r="570.866" /> 
<circle cx="101443" cy="25525.6" r="570.866" /> 
<polyline style="fill-rule:evenodd;"
points="96091,31485
95581,31485
95581,31174
96091,31174
96091,31485
" /> 
<polyline style="fill-rule:evenodd;"
points="96091,30735
95581,30735
95581,30424
96091,30424
96091,30735
" /> 
<polyline style="fill-rule:evenodd;"
points="95845,29557
95845,30068
95534,30068
95534,29557
95845,29557
" /> 
<polyline style="fill-rule:evenodd;"
points="95095,29557
95095,30068
94784,30068
94784,29557
95095,29557
" /> 
</g>
<g style="fill:#000000; fill-opacity:1.0; 
stroke:#000000; stroke-width:787.402; stroke-opacity:1; 
stroke-linecap:round; stroke-linejoin:round;">
<path d="M100139 20165
L100139 20165
" />
<path d="M100139 19165
L100139 19165
" />
<path d="M101139 20165
L101139 20165
" />
<path d="M101139 19165
L101139 19165
" />
</g>
<g style="fill:#000000; fill-opacity:1.0; 
stroke:#000000; stroke-width:314.961; stroke-opacity:1; 
stroke-linecap:round; stroke-linejoin:round;">
<path d="M69183 44724
L69183 44822
" />
<path d="M69183 44822
L69803 45442
" />
<path d="M69183 26929
L69950 26161
" />
<path d="M69970 26161
L69970 26171
" />
<path d="M69950 26161
L69970 26161
" />
<path d="M69970 26171
L81801 26171
" />
<path d="M82037 19131
L82037 25935
" />
<path d="M82037 25935
L81801 26171
" />
<path d="M71635 45423
L71616 45442
" />
<path d="M71616 45442
L69803 45442
" />
<path d="M69183 44724
L69183 26929
" />
<path d="M70236 43996
L70669 44429
" />
<path d="M71629 44429
L71635 44423
" />
<path d="M83037 26578
L82559 27057
" />
<path d="M82559 27057
L71082 27057
" />
<path d="M83037 19131
L83037 26578
" />
<path d="M70236 27864
L70236 43996
" />
<path d="M70236 27903
L70236 27874
" />
<path d="M70236 27874
L70246 27864
" />
<path d="M70246 27864
L70236 27864
" />
<path d="M71082 27057
L70236 27903
" />
<path d="M70639 44429
L71629 44429
" />
<path d="M70669 44429
L70669 44399
" />
<path d="M70669 44399
L70639 44370
" />
<path d="M70639 44370
L70639 44429
" />
<path d="M94939 29812
L94291 30461
" />
<path d="M94291 30461
L94291 31220
" />
<path d="M100635 47423
L100635 46423
" />
<path d="M100635 46423
L102279 46423
" />
<path d="M102279 46423
L102480 46624
" />
<path d="M93037 46131
L94037 46131
" />
<path d="M94037 46131
L94037 47131
" />
<path d="M94037 47131
L95407 47131
" />
<path d="M95407 47131
L95944 46594
" />
<path d="M80037 47131
L80037 46131
" />
<path d="M80037 46131
L81037 46131
" />
<path d="M81037 46131
L81037 47131
" />
<path d="M81037 47131
L80037 47131
" />
<path d="M77037 47131
L77027 47141
" />
<path d="M77027 47141
L77027 48297
" />
<path d="M71635 46423
L71635 47423
" />
<path d="M71635 47423
L69933 47423
" />
<path d="M69933 47423
L69872 47362
" />
<path d="M87037 18131
L88037 18131
" />
<path d="M80037 19131
L81037 19131
" />
<path d="M78037 19131
L77037 19131
" />
<path d="M77037 19131
L77037 18131
" />
<path d="M77037 18131
L78037 18131
" />
<path d="M78037 18131
L78037 19131
" />
<path d="M80037 19131
L80037 18131
" />
<path d="M80037 18131
L81037 18131
" />
<path d="M81037 18131
L81037 19131
" />
<path d="M87037 18131
L87037 19131
" />
<path d="M87037 19131
L88037 19131
" />
<path d="M88037 19131
L88037 18131
" />
<path d="M93037 18131
L94037 18131
" />
<path d="M94037 18131
L94037 19131
" />
<path d="M94037 19131
L94037 20500
" />
<path d="M94037 20500
L93592 20944
" />
<path d="M71112 13964
L71064 13964
" />
<path d="M71064 13964
L70265 14763
" />
<path d="M76614 13944
L76614 14419
" />
<path d="M76614 14419
L77687 15492
" />
<path d="M78474 13944
L78474 14704
" />
<path d="M78474 14704
L77687 15492
" />
<path d="M82645 13895
L82645 14555
" />
<path d="M87500 15511
L88503 14507
" />
<path d="M85669 15511
L87500 15511
" />
<path d="M83602 15511
L85669 15511
" />
<path d="M82645 14555
L83602 15511
" />
<path d="M96289 13000
L94624 13000
" />
<path d="M94624 13000
L93208 11584
" />
<path d="M96289 13000
L95007 13000
" />
<path d="M95007 13000
L93415 11407
" />
<path d="M97007 31328
L97006 31329
" />
<path d="M97006 31329
L95836 31329
" />
<path d="M94291 31220
L94400 31329
" />
<path d="M94400 31329
L95836 31329
" />
<path d="M67470 17921
L67334 17921
" />
<path d="M67334 17921
L66584 18671
" />
<path d="M74064 12933
L74064 13287
" />
<path d="M74064 13287
L72834 14517
" />
<path d="M97007 36328
L95974 36328
" />
<path d="M95974 36328
L95875 36230
" />
<path d="M100635 37423
L101448 37423
" />
<path d="M101448 37423
L101732 37706
" />
<path d="M100635 38423
L101631 38423
" />
<path d="M101631 38423
L101732 38523
" />
<path d="M100635 39423
L101529 39423
" />
<path d="M101529 39423
L101574 39468
" />
<path d="M100635 40423
L101476 40423
" />
<path d="M101476 40423
L101486 40413
" />
<path d="M100635 41423
L101501 41423
" />
<path d="M101501 41423
L101663 41584
" />
<path d="M100635 42423
L102059 42423
" />
<path d="M102059 42423
L102076 42440
" />
<path d="M100635 43423
L101468 43423
" />
<path d="M101468 43423
L101840 43051
" />
<path d="M100635 29423
L101972 29423
" />
<path d="M101972 29423
L101988 29438
" />
<path d="M96289 13000
L99809 13000
" />
<path d="M99809 13000
L99832 13023
" />
<path d="M96407 38435
L95167 38435
" />
<path d="M95289 32328
L97007 32328
" />
<path d="M93917 33700
L95289 32328
" />
<path d="M93917 37185
L93917 33700
" />
<path d="M95167 38435
L93917 37185
" />
<path d="M99635 38423
L99624 38435
" />
<path d="M99624 38435
L96407 38435
" />
<path d="M97007 33328
L97777 33328
" />
<path d="M98751 37423
L99635 37423
" />
<path d="M98307 36978
L98751 37423
" />
<path d="M98307 33858
L98307 36978
" />
<path d="M97777 33328
L98307 33858
" />
<path d="M99442 25525
L99442 22525
" />
<path d="M98149 26818
L99442 25525
" />
<path d="M98149 28641
L98149 26818
" />
<path d="M98931 29423
L98149 28641
" />
<path d="M99635 29423
L98931 29423
" />
<path d="M82037 45285
L82086 45285
" />
<path d="M82086 45285
L82529 44842
" />
<path d="M82037 45285
L82037 46131
" />
<path d="M96584 44842
L96584 44812
" />
<path d="M96584 44812
L97234 44163
" />
<path d="M97234 40226
L97234 40206
" />
<path d="M97234 40206
L97972 39468
" />
<path d="M83435 44842
L82529 44842
" />
<path d="M99590 39468
L99635 39423
" />
<path d="M97972 39468
L99590 39468
" />
<path d="M97234 44163
L97234 40226
" />
<path d="M83435 44842
L96584 44842
" />
<path d="M83070 48149
L83513 48592
" />
<path d="M83037 48149
L83070 48149
" />
<path d="M83037 48149
L83037 47131
" />
<path d="M97332 48592
L97362 48592
" />
<path d="M84389 48592
L83513 48592
" />
<path d="M97332 48592
L84389 48592
" />
<path d="M99635 40423
L99616 40442
" />
<path d="M99616 40442
L98671 40442
" />
<path d="M98316 40895
L98316 47637
" />
<path d="M98316 40797
L98671 40442
" />
<path d="M98316 40895
L98316 40797
" />
<path d="M97362 48592
L98316 47637
" />
<path d="M95807 25716
L88374 25716
" />
<path d="M85037 22379
L85037 19131
" />
<path d="M88374 25716
L85037 22379
" />
</g>
<g style="fill:#000000; fill-opacity:1.0; 
stroke:#000000; stroke-width:393.701; stroke-opacity:1; 
stroke-linecap:round; stroke-linejoin:round;">
<path d="M101139 19165
L100139 19165
" />
<path d="M101139 19165
L101139 18899
" />
<path d="M101139 18899
L102194 17844
" />
<path d="M94862 11070
L95795 11070
" />
<path d="M96289 11564
L96289 12000
" />
<path d="M95795 11070
L96289 11564
" />
<path d="M102982 13090
L103523 13631
" />
<path d="M102982 13015
L102982 13090
" />
<path d="M103523 13631
L103523 16515
" />
<path d="M102086 13015
L102982 13015
" />
<path d="M103523 16515
L102194 17844
" />
<path d="M100738 17844
L96141 17844
" />
<path d="M102194 17844
L100738 17844
" />
<path d="M96289 12000
L96318 12029
" />
<path d="M96318 12029
L98070 12029
" />
<path d="M102086 13015
L101100 12029
" />
<path d="M101100 12029
L98070 12029
" />
<path d="M95826 19230
L95826 18159
" />
<path d="M95826 18159
L96141 17844
" />
<path d="M76037 16816
L76037 18131
" />
<path d="M76043 16811
L76037 16816
" />
<path d="M94724 16811
L76043 16811
" />
<path d="M95757 17844
L94724 16811
" />
<path d="M96141 17844
L95757 17844
" />
<path d="M75037 18131
L76037 19131
" />
<path d="M75037 19131
L75037 18131
" />
<path d="M75037 18131
L76037 18131
" />
<path d="M76037 18131
L76037 19131
" />
<path d="M76037 19131
L75037 19131
" />
<path d="M75037 19131
L76037 18131
" />
<path d="M95689 29812
L96205 30328
" />
<path d="M96205 30328
L97007 30328
" />
<path d="M95836 30579
L96087 30328
" />
<path d="M96087 30328
L97007 30328
" />
<path d="M97007 30328
L97007 30049
" />
<path d="M95381 28423
L72635 28423
" />
<path d="M97007 30049
L95381 28423
" />
</g>
<g style="fill:#000000; fill-opacity:1.0; 
stroke:#000000; stroke-width:314.961; stroke-opacity:1; 
stroke-linecap:round; stroke-linejoin:round;">
<path d="M81645 12895
L81645 13895
" />
<path d="M81645 12895
L78523 12895
" />
<path d="M78523 12895
L78474 12944
" />
</g>
<g style="fill:#000000; fill-opacity:1.0; 
stroke:#000000; stroke-width:393.701; stroke-opacity:1; 
stroke-linecap:round; stroke-linejoin:round;">
<path d="M67470 16921
L72094 16921
" />
<path d="M75064 13950
L75064 12933
" />
<path d="M72094 16921
L75064 13950
" />
<path d="M75064 12933
L76602 12933
" />
<path d="M76602 12933
L76614 12944
" />
<path d="M78474 12944
L76614 12944
" />
</g>
<g style="fill:#000000; fill-opacity:1.0; 
stroke:#000000; stroke-width:314.961; stroke-opacity:1; 
stroke-linecap:round; stroke-linejoin:round;">
<path d="M102086 15015
L94917 15015
" />
<path d="M94917 15015
L94862 15070
" />
<path d="M94862 15070
L96338 16202
" />
<path d="M96338 16202
L96405 16269
" />
<path d="M95826 23230
L95826 24696
" />
<path d="M95826 24696
L95807 24716
" />
</g>
<g style="fill:#000000; fill-opacity:1.0; 
stroke:#000000; stroke-width:393.701; stroke-opacity:1; 
stroke-linecap:round; stroke-linejoin:round;">
<path d="M73064 12933
L73064 11856
" />
<path d="M85049 11525
L86929 13405
" />
<path d="M73395 11525
L85049 11525
" />
<path d="M73064 11856
L73395 11525
" />
<path d="M86929 13405
L86929 13503
" />
<path d="M86929 13503
L86929 14507
" />
<path d="M87391 12942
L86929 13405
" />
<path d="M99832 14023
L94496 14023
" />
<path d="M94496 14023
L93415 12942
" />
<path d="M93415 12942
L87391 12942
" />
<path d="M102086 14015
L99840 14015
" />
<path d="M99840 14015
L99832 14023
" />
<path d="M73064 12933
L71143 12933
" />
<path d="M71143 12933
L71112 12964
" />
</g>
<g style="fill:#FFFFFF; fill-opacity:1.0; 
stroke:#FFFFFF; stroke-width:39.3701; stroke-opacity:1; 
stroke-linecap:round; stroke-linejoin:round;">
<circle cx="90059.1" cy="14507.9" r="118.11" /> 
<circle cx="88503.9" cy="14507.9" r="118.11" /> 
<circle cx="91614.2" cy="14507.9" r="118.11" /> 
<circle cx="86929.1" cy="14507.9" r="118.11" /> 
<circle cx="102087" cy="13015.7" r="118.11" /> 
<circle cx="102087" cy="14015.7" r="118.11" /> 
<circle cx="102087" cy="15015.7" r="118.11" /> 
<circle cx="96405.5" cy="16269.7" r="118.11" /> 
<circle cx="100406" cy="16269.7" r="118.11" /> 
<circle cx="95826.8" cy="19230.3" r="118.11" /> 
<circle cx="95826.8" cy="23230.3" r="118.11" /> 
<circle cx="94862.2" cy="11070.9" r="118.11" /> 
<circle cx="94862.2" cy="15070.9" r="118.11" /> 
<circle cx="67470.5" cy="16921.3" r="118.11" /> 
<circle cx="67470.5" cy="17921.3" r="118.11" /> 
<circle cx="97007.9" cy="30328.7" r="118.11" /> 
<circle cx="97007.9" cy="31328.7" r="118.11" /> 
<circle cx="97007.9" cy="32328.7" r="118.11" /> 
<circle cx="97007.9" cy="33328.7" r="118.11" /> 
<circle cx="97007.9" cy="34328.7" r="118.11" /> 
<circle cx="97007.9" cy="35328.7" r="118.11" /> 
<circle cx="97007.9" cy="36328.7" r="118.11" /> 
<circle cx="97007.9" cy="37328.7" r="118.11" /> 
<circle cx="75037.4" cy="47131.9" r="118.11" /> 
<circle cx="75037.4" cy="46131.9" r="118.11" /> 
<circle cx="76037.4" cy="47131.9" r="118.11" /> 
<circle cx="76037.4" cy="46131.9" r="118.11" /> 
<circle cx="77037.4" cy="47131.9" r="118.11" /> 
<circle cx="77037.4" cy="46131.9" r="118.11" /> 
<circle cx="78037.4" cy="47131.9" r="118.11" /> 
<circle cx="78037.4" cy="46131.9" r="118.11" /> 
<circle cx="79037.4" cy="47131.9" r="118.11" /> 
<circle cx="79037.4" cy="46131.9" r="118.11" /> 
<circle cx="80037.4" cy="47131.9" r="118.11" /> 
<circle cx="80037.4" cy="46131.9" r="118.11" /> 
<circle cx="81037.4" cy="47131.9" r="118.11" /> 
<circle cx="81037.4" cy="46131.9" r="118.11" /> 
<circle cx="82037.4" cy="47131.9" r="118.11" /> 
<circle cx="82037.4" cy="46131.9" r="118.11" /> 
<circle cx="83037.4" cy="47131.9" r="118.11" /> 
<circle cx="83037.4" cy="46131.9" r="118.11" /> 
<circle cx="84037.4" cy="47131.9" r="118.11" /> 
<circle cx="84037.4" cy="46131.9" r="118.11" /> 
<circle cx="85037.4" cy="47131.9" r="118.11" /> 
<circle cx="85037.4" cy="46131.9" r="118.11" /> 
<circle cx="86037.4" cy="47131.9" r="118.11" /> 
<circle cx="86037.4" cy="46131.9" r="118.11" /> 
<circle cx="87037.4" cy="47131.9" r="118.11" /> 
<circle cx="87037.4" cy="46131.9" r="118.11" /> 
<circle cx="88037.4" cy="47131.9" r="118.11" /> 
<circle cx="88037.4" cy="46131.9" r="118.11" /> 
<circle cx="89037.4" cy="47131.9" r="118.11" /> 
<circle cx="89037.4" cy="46131.9" r="118.11" /> 
<circle cx="90037.4" cy="47131.9" r="118.11" /> 
<circle cx="90037.4" cy="46131.9" r="118.11" /> 
<circle cx="91037.4" cy="47131.9" r="118.11" /> 
<circle cx="91037.4" cy="46131.9" r="118.11" /> 
<circle cx="92037.4" cy="47131.9" r="118.11" /> 
<circle cx="92037.4" cy="46131.9" r="118.11" /> 
<circle cx="93037.4" cy="47131.9" r="118.11" /> 
<circle cx="93037.4" cy="46131.9" r="118.11" /> 
<circle cx="94037.4" cy="47131.9" r="118.11" /> 
<circle cx="94037.4" cy="46131.9" r="118.11" /> 
<circle cx="75037.4" cy="19131.9" r="118.11" /> 
<circle cx="75037.4" cy="18131.9" r="118.11" /> 
<circle cx="76037.4" cy="19131.9" r="118.11" /> 
<circle cx="76037.4" cy="18131.9" r="118.11" /> 
<circle cx="77037.4" cy="19131.9" r="118.11" /> 
<circle cx="77037.4" cy="18131.9" r="118.11" /> 
<circle cx="78037.4" cy="19131.9" r="118.11" /> 
<circle cx="78037.4" cy="18131.9" r="118.11" /> 
<circle cx="79037.4" cy="19131.9" r="118.11" /> 
<circle cx="79037.4" cy="18131.9" r="118.11" /> 
<circle cx="80037.4" cy="19131.9" r="118.11" /> 
<circle cx="80037.4" cy="18131.9" r="118.11" /> 
<circle cx="81037.4" cy="19131.9" r="118.11" /> 
<circle cx="81037.4" cy="18131.9" r="118.11" /> 
<circle cx="82037.4" cy="19131.9" r="118.11" /> 
<circle cx="82037.4" cy="18131.9" r="118.11" /> 
<circle cx="83037.4" cy="19131.9" r="118.11" /> 
<circle cx="83037.4" cy="18131.9" r="118.11" /> 
<circle cx="84037.4" cy="19131.9" r="118.11" /> 
<circle cx="84037.4" cy="18131.9" r="118.11" /> 
<circle cx="85037.4" cy="19131.9" r="118.11" /> 
<circle cx="85037.4" cy="18131.9" r="118.11" /> 
<circle cx="86037.4" cy="19131.9" r="118.11" /> 
<circle cx="86037.4" cy="18131.9" r="118.11" /> 
<circle cx="87037.4" cy="19131.9" r="118.11" /> 
<circle cx="87037.4" cy="18131.9" r="118.11" /> 
<circle cx="88037.4" cy="19131.9" r="118.11" /> 
<circle cx="88037.4" cy="18131.9" r="118.11" /> 
<circle cx="89037.4" cy="19131.9" r="118.11" /> 
<circle cx="89037.4" cy="18131.9" r="118.11" /> 
<circle cx="90037.4" cy="19131.9" r="118.11" /> 
<circle cx="90037.4" cy="18131.9" r="118.11" /> 
<circle cx="91037.4" cy="19131.9" r="118.11" /> 
<circle cx="91037.4" cy="18131.9" r="118.11" /> 
<circle cx="92037.4" cy="19131.9" r="118.11" /> 
<circle cx="92037.4" cy="18131.9" r="118.11" /> 
<circle cx="93037.4" cy="19131.9" r="118.11" /> 
<circle cx="93037.4" cy="18131.9" r="118.11" /> 
<circle cx="94037.4" cy="19131.9" r="118.11" /> 
<circle cx="94037.4" cy="18131.9" r="118.11" /> 
<circle cx="99635.8" cy="28423.2" r="118.11" /> 
<circle cx="100636" cy="28423.2" r="118.11" /> 
<circle cx="99635.8" cy="29423.2" r="118.11" /> 
<circle cx="100636" cy="29423.2" r="118.11" /> 
<circle cx="99635.8" cy="30423.2" r="118.11" /> 
<circle cx="100636" cy="30423.2" r="118.11" /> 
<circle cx="99635.8" cy="31423.2" r="118.11" /> 
<circle cx="100636" cy="31423.2" r="118.11" /> 
<circle cx="99635.8" cy="32423.2" r="118.11" /> 
<circle cx="100636" cy="32423.2" r="118.11" /> 
<circle cx="99635.8" cy="33423.2" r="118.11" /> 
<circle cx="100636" cy="33423.2" r="118.11" /> 
<circle cx="99635.8" cy="34423.2" r="118.11" /> 
<circle cx="100636" cy="34423.2" r="118.11" /> 
<circle cx="99635.8" cy="35423.2" r="118.11" /> 
<circle cx="100636" cy="35423.2" r="118.11" /> 
<circle cx="99635.8" cy="36423.2" r="118.11" /> 
<circle cx="100636" cy="36423.2" r="118.11" /> 
<circle cx="99635.8" cy="37423.2" r="118.11" /> 
<circle cx="100636" cy="37423.2" r="118.11" /> 
<circle cx="99635.8" cy="38423.2" r="118.11" /> 
<circle cx="100636" cy="38423.2" r="118.11" /> 
<circle cx="99635.8" cy="39423.2" r="118.11" /> 
<circle cx="100636" cy="39423.2" r="118.11" /> 
<circle cx="99635.8" cy="40423.2" r="118.11" /> 
<circle cx="100636" cy="40423.2" r="118.11" /> 
<circle cx="99635.8" cy="41423.2" r="118.11" /> 
<circle cx="100636" cy="41423.2" r="118.11" /> 
<circle cx="99635.8" cy="42423.2" r="118.11" /> 
<circle cx="100636" cy="42423.2" r="118.11" /> 
<circle cx="99635.8" cy="43423.2" r="118.11" /> 
<circle cx="100636" cy="43423.2" r="118.11" /> 
<circle cx="99635.8" cy="44423.2" r="118.11" /> 
<circle cx="100636" cy="44423.2" r="118.11" /> 
<circle cx="99635.8" cy="45423.2" r="118.11" /> 
<circle cx="100636" cy="45423.2" r="118.11" /> 
<circle cx="99635.8" cy="46423.2" r="118.11" /> 
<circle cx="100636" cy="46423.2" r="118.11" /> 
<circle cx="99635.8" cy="47423.2" r="118.11" /> 
<circle cx="100636" cy="47423.2" r="118.11" /> 
<circle cx="71635.8" cy="28423.2" r="118.11" /> 
<circle cx="72635.8" cy="28423.2" r="118.11" /> 
<circle cx="71635.8" cy="29423.2" r="118.11" /> 
<circle cx="72635.8" cy="29423.2" r="118.11" /> 
<circle cx="71635.8" cy="30423.2" r="118.11" /> 
<circle cx="72635.8" cy="30423.2" r="118.11" /> 
<circle cx="71635.8" cy="31423.2" r="118.11" /> 
<circle cx="72635.8" cy="31423.2" r="118.11" /> 
<circle cx="71635.8" cy="32423.2" r="118.11" /> 
<circle cx="72635.8" cy="32423.2" r="118.11" /> 
<circle cx="71635.8" cy="33423.2" r="118.11" /> 
<circle cx="72635.8" cy="33423.2" r="118.11" /> 
<circle cx="71635.8" cy="34423.2" r="118.11" /> 
<circle cx="72635.8" cy="34423.2" r="118.11" /> 
<circle cx="71635.8" cy="35423.2" r="118.11" /> 
<circle cx="72635.8" cy="35423.2" r="118.11" /> 
<circle cx="71635.8" cy="36423.2" r="118.11" /> 
<circle cx="72635.8" cy="36423.2" r="118.11" /> 
<circle cx="71635.8" cy="37423.2" r="118.11" /> 
<circle cx="72635.8" cy="37423.2" r="118.11" /> 
<circle cx="71635.8" cy="38423.2" r="118.11" /> 
<circle cx="72635.8" cy="38423.2" r="118.11" /> 
<circle cx="71635.8" cy="39423.2" r="118.11" /> 
<circle cx="72635.8" cy="39423.2" r="118.11" /> 
<circle cx="71635.8" cy="40423.2" r="118.11" /> 
<circle cx="72635.8" cy="40423.2" r="118.11" /> 
<circle cx="71635.8" cy="41423.2" r="118.11" /> 
<circle cx="72635.8" cy="41423.2" r="118.11" /> 
<circle cx="71635.8" cy="42423.2" r="118.11" /> 
<circle cx="72635.8" cy="42423.2" r="118.11" /> 
<circle cx="71635.8" cy="43423.2" r="118.11" /> 
<circle cx="72635.8" cy="43423.2" r="118.11" /> 
<circle cx="71635.8" cy="44423.2" r="118.11" /> 
<circle cx="72635.8" cy="44423.2" r="118.11" /> 
<circle cx="71635.8" cy="45423.2" r="118.11" /> 
<circle cx="72635.8" cy="45423.2" r="118.11" /> 
<circle cx="71635.8" cy="46423.2" r="118.11" /> 
<circle cx="72635.8" cy="46423.2" r="118.11" /> 
<circle cx="71635.8" cy="47423.2" r="118.11" /> 
<circle cx="72635.8" cy="47423.2" r="118.11" /> 
<circle cx="73065" cy="12933.1" r="118.11" /> 
<circle cx="74065" cy="12933.1" r="118.11" /> 
<circle cx="75065" cy="12933.1" r="118.11" /> 
<circle cx="95807.1" cy="24716.5" r="118.11" /> 
<circle cx="95807.1" cy="25716.5" r="118.11" /> 
<circle cx="96289.4" cy="12000" r="118.11" /> 
<circle cx="96289.4" cy="13000" r="118.11" /> 
<circle cx="99832.7" cy="14023.6" r="118.11" /> 
<circle cx="99832.7" cy="13023.6" r="118.11" /> 
<circle cx="76614.2" cy="12944.9" r="118.11" /> 
<circle cx="76614.2" cy="13944.9" r="118.11" /> 
<circle cx="71112.2" cy="12964.6" r="118.11" /> 
<circle cx="71112.2" cy="13964.6" r="118.11" /> 
<circle cx="98070.9" cy="12029.5" r="118.11" /> 
<circle cx="98070.9" cy="13029.5" r="118.11" /> 
<circle cx="78474.4" cy="12944.9" r="118.11" /> 
<circle cx="78474.4" cy="13944.9" r="118.11" /> 
<circle cx="68503.9" cy="19813" r="118.11" /> 
<circle cx="77598.4" cy="21151.6" r="118.11" /> 
<circle cx="95147.6" cy="36318.9" r="118.11" /> 
<circle cx="95944.9" cy="46594.5" r="118.11" /> 
<circle cx="69872" cy="47362.2" r="118.11" /> 
<circle cx="102480" cy="46624" r="118.11" /> 
<circle cx="77687" cy="15492.1" r="118.11" /> 
<circle cx="93592.5" cy="20944.9" r="118.11" /> 
<circle cx="81645.7" cy="13895.7" r="118.11" /> 
<circle cx="81645.7" cy="12895.7" r="118.11" /> 
<circle cx="82645.7" cy="13895.7" r="118.11" /> 
<circle cx="82645.7" cy="12895.7" r="118.11" /> 
<circle cx="94291.3" cy="31220.5" r="118.11" /> 
<circle cx="90511.8" cy="10915.4" r="118.11" /> 
<circle cx="99442.9" cy="22525.6" r="118.11" /> 
<circle cx="101443" cy="22525.6" r="118.11" /> 
<circle cx="99442.9" cy="25525.6" r="118.11" /> 
<circle cx="101443" cy="25525.6" r="118.11" /> 
<circle cx="100140" cy="20165.4" r="118.11" /> 
<circle cx="100140" cy="19165.4" r="118.11" /> 
<circle cx="101140" cy="20165.4" r="118.11" /> 
<circle cx="101140" cy="19165.4" r="118.11" /> 
</g> 
</svg>
