<?xml version="1.0" standalone="no"?>
 <!DOCTYPE svg PUBLIC "-//W3C//DTD SVG 1.1//EN" 
 "http://www.w3.org/Graphics/SVG/1.1/DTD/svg11.dtd"> 
<svg xmlns="http://www.w3.org/2000/svg" version="1.1" 
    width="29.7002cm" height="21.0007cm" viewBox="0 0 116930 82680 ">
<title>SVG Picture created as poncho_rescatAR-F_Cu.svg date 2015/12/02 18:51:50 </title>
  <desc>Picture generated by PCBNEW </desc>
<g style="fill:#000000; fill-opacity:1;stroke:#000000; stroke-opacity:1;
stroke-linecap:round; stroke-linejoin:round; "
 transform="translate(0 0) scale(1 1)">
</g>
<g style="fill:#000000; fill-opacity:0.0; 
stroke:#000000; stroke-width:787.402; stroke-opacity:1; 
stroke-linecap:round; stroke-linejoin:round;">
<path d="M100305 11692
L100305 11692
" />
<path d="M98750 11692
L98750 11692
" />
<path d="M101860 11692
L101860 11692
" />
<path d="M97175 11692
L97175 11692
" />
</g>
<g style="fill:#000000; fill-opacity:0.0; 
stroke:#000000; stroke-width:669.291; stroke-opacity:1; 
stroke-linecap:round; stroke-linejoin:round;">
<path d="M106181 17503
L106496 17503
" />
<path d="M106181 18503
L106496 18503
" />
<path d="M106181 19503
L106496 19503
" />
</g>
<g style="fill:#000000; fill-opacity:0.0; 
stroke:#000000; stroke-width:787.402; stroke-opacity:1; 
stroke-linecap:round; stroke-linejoin:round;">
<path d="M100137 20982
L100137 20982
" />
<path d="M100137 24982
L100137 24982
" />
<path d="M102244 22694
L102244 22694
" />
<path d="M102244 26694
L102244 26694
" />
<path d="M101437 15450
L101437 15450
" />
<path d="M101437 19450
L101437 19450
" />
<path d="M72096 17334
L72096 17334
" />
<path d="M72096 18334
L72096 18334
" />
<path d="M101633 30742
L101633 30742
" />
<path d="M101633 31742
L101633 31742
" />
<path d="M101633 32742
L101633 32742
" />
<path d="M101633 33742
L101633 33742
" />
<path d="M101633 34742
L101633 34742
" />
<path d="M101633 35742
L101633 35742
" />
<path d="M101633 36742
L101633 36742
" />
<path d="M101633 37742
L101633 37742
" />
<path d="M79663 47545
L79663 47545
" />
<path d="M79663 46545
L79663 46545
" />
<path d="M80663 47545
L80663 47545
" />
<path d="M80663 46545
L80663 46545
" />
<path d="M81663 47545
L81663 47545
" />
<path d="M81663 46545
L81663 46545
" />
<path d="M82663 47545
L82663 47545
" />
<path d="M82663 46545
L82663 46545
" />
<path d="M83663 47545
L83663 47545
" />
<path d="M83663 46545
L83663 46545
" />
<path d="M84663 47545
L84663 47545
" />
<path d="M84663 46545
L84663 46545
" />
<path d="M85663 47545
L85663 47545
" />
<path d="M85663 46545
L85663 46545
" />
<path d="M86663 47545
L86663 47545
" />
<path d="M86663 46545
L86663 46545
" />
<path d="M87663 47545
L87663 47545
" />
<path d="M87663 46545
L87663 46545
" />
<path d="M88663 47545
L88663 47545
" />
<path d="M88663 46545
L88663 46545
" />
<path d="M89663 47545
L89663 47545
" />
<path d="M89663 46545
L89663 46545
" />
<path d="M90663 47545
L90663 47545
" />
<path d="M90663 46545
L90663 46545
" />
<path d="M91663 47545
L91663 47545
" />
<path d="M91663 46545
L91663 46545
" />
<path d="M92663 47545
L92663 47545
" />
<path d="M92663 46545
L92663 46545
" />
<path d="M93663 47545
L93663 47545
" />
<path d="M93663 46545
L93663 46545
" />
<path d="M94663 47545
L94663 47545
" />
<path d="M94663 46545
L94663 46545
" />
<path d="M95663 47545
L95663 47545
" />
<path d="M95663 46545
L95663 46545
" />
<path d="M96663 47545
L96663 47545
" />
<path d="M96663 46545
L96663 46545
" />
<path d="M97663 47545
L97663 47545
" />
<path d="M97663 46545
L97663 46545
" />
<path d="M98663 47545
L98663 47545
" />
<path d="M98663 46545
L98663 46545
" />
<path d="M79663 19545
L79663 19545
" />
<path d="M79663 18545
L79663 18545
" />
<path d="M80663 19545
L80663 19545
" />
<path d="M80663 18545
L80663 18545
" />
<path d="M81663 19545
L81663 19545
" />
<path d="M81663 18545
L81663 18545
" />
<path d="M82663 19545
L82663 19545
" />
<path d="M82663 18545
L82663 18545
" />
<path d="M83663 19545
L83663 19545
" />
<path d="M83663 18545
L83663 18545
" />
<path d="M84663 19545
L84663 19545
" />
<path d="M84663 18545
L84663 18545
" />
<path d="M85663 19545
L85663 19545
" />
<path d="M85663 18545
L85663 18545
" />
<path d="M86663 19545
L86663 19545
" />
<path d="M86663 18545
L86663 18545
" />
<path d="M87663 19545
L87663 19545
" />
<path d="M87663 18545
L87663 18545
" />
<path d="M88663 19545
L88663 19545
" />
<path d="M88663 18545
L88663 18545
" />
<path d="M89663 19545
L89663 19545
" />
<path d="M89663 18545
L89663 18545
" />
<path d="M90663 19545
L90663 19545
" />
<path d="M90663 18545
L90663 18545
" />
<path d="M91663 19545
L91663 19545
" />
<path d="M91663 18545
L91663 18545
" />
<path d="M92663 19545
L92663 19545
" />
<path d="M92663 18545
L92663 18545
" />
<path d="M93663 19545
L93663 19545
" />
<path d="M93663 18545
L93663 18545
" />
<path d="M94663 19545
L94663 19545
" />
<path d="M94663 18545
L94663 18545
" />
<path d="M95663 19545
L95663 19545
" />
<path d="M95663 18545
L95663 18545
" />
<path d="M96663 19545
L96663 19545
" />
<path d="M96663 18545
L96663 18545
" />
<path d="M97663 19545
L97663 19545
" />
<path d="M97663 18545
L97663 18545
" />
<path d="M98663 19545
L98663 19545
" />
<path d="M98663 18545
L98663 18545
" />
<path d="M104261 28836
L104261 28836
" />
<path d="M105261 28836
L105261 28836
" />
<path d="M104261 29836
L104261 29836
" />
<path d="M105261 29836
L105261 29836
" />
<path d="M104261 30836
L104261 30836
" />
<path d="M105261 30836
L105261 30836
" />
<path d="M104261 31836
L104261 31836
" />
<path d="M105261 31836
L105261 31836
" />
<path d="M104261 32836
L104261 32836
" />
<path d="M105261 32836
L105261 32836
" />
<path d="M104261 33836
L104261 33836
" />
<path d="M105261 33836
L105261 33836
" />
<path d="M104261 34836
L104261 34836
" />
<path d="M105261 34836
L105261 34836
" />
<path d="M104261 35836
L104261 35836
" />
<path d="M105261 35836
L105261 35836
" />
<path d="M104261 36836
L104261 36836
" />
<path d="M105261 36836
L105261 36836
" />
<path d="M104261 37836
L104261 37836
" />
<path d="M105261 37836
L105261 37836
" />
<path d="M104261 38836
L104261 38836
" />
<path d="M105261 38836
L105261 38836
" />
<path d="M104261 39836
L104261 39836
" />
<path d="M105261 39836
L105261 39836
" />
<path d="M104261 40836
L104261 40836
" />
<path d="M105261 40836
L105261 40836
" />
<path d="M104261 41836
L104261 41836
" />
<path d="M105261 41836
L105261 41836
" />
<path d="M104261 42836
L104261 42836
" />
<path d="M105261 42836
L105261 42836
" />
<path d="M104261 43836
L104261 43836
" />
<path d="M105261 43836
L105261 43836
" />
<path d="M104261 44836
L104261 44836
" />
<path d="M105261 44836
L105261 44836
" />
<path d="M104261 45836
L104261 45836
" />
<path d="M105261 45836
L105261 45836
" />
<path d="M104261 46836
L104261 46836
" />
<path d="M105261 46836
L105261 46836
" />
<path d="M104261 47836
L104261 47836
" />
<path d="M105261 47836
L105261 47836
" />
<path d="M76261 28836
L76261 28836
" />
<path d="M77261 28836
L77261 28836
" />
<path d="M76261 29836
L76261 29836
" />
<path d="M77261 29836
L77261 29836
" />
<path d="M76261 30836
L76261 30836
" />
<path d="M77261 30836
L77261 30836
" />
<path d="M76261 31836
L76261 31836
" />
<path d="M77261 31836
L77261 31836
" />
<path d="M76261 32836
L76261 32836
" />
<path d="M77261 32836
L77261 32836
" />
<path d="M76261 33836
L76261 33836
" />
<path d="M77261 33836
L77261 33836
" />
<path d="M76261 34836
L76261 34836
" />
<path d="M77261 34836
L77261 34836
" />
<path d="M76261 35836
L76261 35836
" />
<path d="M77261 35836
L77261 35836
" />
<path d="M76261 36836
L76261 36836
" />
<path d="M77261 36836
L77261 36836
" />
<path d="M76261 37836
L76261 37836
" />
<path d="M77261 37836
L77261 37836
" />
<path d="M76261 38836
L76261 38836
" />
<path d="M77261 38836
L77261 38836
" />
<path d="M76261 39836
L76261 39836
" />
<path d="M77261 39836
L77261 39836
" />
<path d="M76261 40836
L76261 40836
" />
<path d="M77261 40836
L77261 40836
" />
<path d="M76261 41836
L76261 41836
" />
<path d="M77261 41836
L77261 41836
" />
<path d="M76261 42836
L76261 42836
" />
<path d="M77261 42836
L77261 42836
" />
<path d="M76261 43836
L76261 43836
" />
<path d="M77261 43836
L77261 43836
" />
<path d="M76261 44836
L76261 44836
" />
<path d="M77261 44836
L77261 44836
" />
<path d="M76261 45836
L76261 45836
" />
<path d="M77261 45836
L77261 45836
" />
<path d="M76261 46836
L76261 46836
" />
<path d="M77261 46836
L77261 46836
" />
<path d="M76261 47836
L76261 47836
" />
<path d="M77261 47836
L77261 47836
" />
</g>
<g style="fill:#000000; fill-opacity:0.0; 
stroke:#000000; stroke-width:669.291; stroke-opacity:1; 
stroke-linecap:round; stroke-linejoin:round;">
<path d="M80466 13267
L80466 12952
" />
<path d="M81466 13267
L81466 12952
" />
<path d="M82466 13267
L82466 12952
" />
</g>
<g style="fill:#000000; fill-opacity:0.0; 
stroke:#000000; stroke-width:787.402; stroke-opacity:1; 
stroke-linecap:round; stroke-linejoin:round;">
<path d="M101336 27017
L101336 27017
" />
<path d="M100336 27017
L100336 27017
" />
</g>
<g style="fill:#000000; fill-opacity:0.0; 
stroke:#000000; stroke-width:39.3701; stroke-opacity:1; 
stroke-linecap:round; stroke-linejoin:round;">
</g>
<g style="fill:#000000; fill-opacity:1.0; 
stroke:#000000; stroke-width:39.3701; stroke-opacity:1; 
stroke-linecap:round; stroke-linejoin:round;">
<circle cx="103366" cy="15494.1" r="374.016" /> 
<circle cx="103366" cy="16494.1" r="374.016" /> 
<circle cx="104114" cy="18446.9" r="374.016" /> 
<circle cx="104114" cy="19446.9" r="374.016" /> 
<circle cx="84015.7" cy="13122" r="374.016" /> 
<circle cx="84015.7" cy="14122" r="374.016" /> 
<circle cx="78513.8" cy="13141.7" r="374.016" /> 
<circle cx="78513.8" cy="14141.7" r="374.016" /> 
</g>
<g style="fill:#000000; fill-opacity:1.0; 
stroke:#000000; stroke-width:787.402; stroke-opacity:1; 
stroke-linecap:round; stroke-linejoin:round;">
<path d="M104893 15472
L104893 15472
" />
</g>
<g style="fill:#000000; fill-opacity:1.0; 
stroke:#000000; stroke-width:39.3701; stroke-opacity:1; 
stroke-linecap:round; stroke-linejoin:round;">
<circle cx="105894" cy="15472.4" r="374.016" /> 
</g>
<g style="fill:#000000; fill-opacity:1.0; 
stroke:#000000; stroke-width:787.402; stroke-opacity:1; 
stroke-linecap:round; stroke-linejoin:round;">
<path d="M85875 13122
L85875 13122
" />
</g>
<g style="fill:#000000; fill-opacity:1.0; 
stroke:#000000; stroke-width:39.3701; stroke-opacity:1; 
stroke-linecap:round; stroke-linejoin:round;">
<circle cx="85876" cy="14122" r="374.016" /> 
</g>
<g style="fill:#FFFFFF; fill-opacity:1.0; 
stroke:#FFFFFF; stroke-width:39.3701; stroke-opacity:1; 
stroke-linecap:round; stroke-linejoin:round;">
<circle cx="100305" cy="11692.9" r="118.11" /> 
<circle cx="98750" cy="11692.9" r="118.11" /> 
<circle cx="101860" cy="11692.9" r="118.11" /> 
<circle cx="97175.2" cy="11692.9" r="118.11" /> 
<circle cx="106339" cy="17503.9" r="118.11" /> 
<circle cx="106339" cy="18503.9" r="118.11" /> 
<circle cx="106339" cy="19503.9" r="118.11" /> 
<circle cx="100138" cy="20982.3" r="118.11" /> 
<circle cx="100138" cy="24982.3" r="118.11" /> 
<circle cx="102244" cy="22694.9" r="118.11" /> 
<circle cx="102244" cy="26694.9" r="118.11" /> 
<circle cx="101437" cy="15450.8" r="118.11" /> 
<circle cx="101437" cy="19450.8" r="118.11" /> 
<circle cx="72096.5" cy="17334.6" r="118.11" /> 
<circle cx="72096.5" cy="18334.6" r="118.11" /> 
<circle cx="101634" cy="30742.1" r="118.11" /> 
<circle cx="101634" cy="31742.1" r="118.11" /> 
<circle cx="101634" cy="32742.1" r="118.11" /> 
<circle cx="101634" cy="33742.1" r="118.11" /> 
<circle cx="101634" cy="34742.1" r="118.11" /> 
<circle cx="101634" cy="35742.1" r="118.11" /> 
<circle cx="101634" cy="36742.1" r="118.11" /> 
<circle cx="101634" cy="37742.1" r="118.11" /> 
<circle cx="79663.4" cy="47545.3" r="118.11" /> 
<circle cx="79663.4" cy="46545.3" r="118.11" /> 
<circle cx="80663.4" cy="47545.3" r="118.11" /> 
<circle cx="80663.4" cy="46545.3" r="118.11" /> 
<circle cx="81663.4" cy="47545.3" r="118.11" /> 
<circle cx="81663.4" cy="46545.3" r="118.11" /> 
<circle cx="82663.4" cy="47545.3" r="118.11" /> 
<circle cx="82663.4" cy="46545.3" r="118.11" /> 
<circle cx="83663.4" cy="47545.3" r="118.11" /> 
<circle cx="83663.4" cy="46545.3" r="118.11" /> 
<circle cx="84663.4" cy="47545.3" r="118.11" /> 
<circle cx="84663.4" cy="46545.3" r="118.11" /> 
<circle cx="85663.4" cy="47545.3" r="118.11" /> 
<circle cx="85663.4" cy="46545.3" r="118.11" /> 
<circle cx="86663.4" cy="47545.3" r="118.11" /> 
<circle cx="86663.4" cy="46545.3" r="118.11" /> 
<circle cx="87663.4" cy="47545.3" r="118.11" /> 
<circle cx="87663.4" cy="46545.3" r="118.11" /> 
<circle cx="88663.4" cy="47545.3" r="118.11" /> 
<circle cx="88663.4" cy="46545.3" r="118.11" /> 
<circle cx="89663.4" cy="47545.3" r="118.11" /> 
<circle cx="89663.4" cy="46545.3" r="118.11" /> 
<circle cx="90663.4" cy="47545.3" r="118.11" /> 
<circle cx="90663.4" cy="46545.3" r="118.11" /> 
<circle cx="91663.4" cy="47545.3" r="118.11" /> 
<circle cx="91663.4" cy="46545.3" r="118.11" /> 
<circle cx="92663.4" cy="47545.3" r="118.11" /> 
<circle cx="92663.4" cy="46545.3" r="118.11" /> 
<circle cx="93663.4" cy="47545.3" r="118.11" /> 
<circle cx="93663.4" cy="46545.3" r="118.11" /> 
<circle cx="94663.4" cy="47545.3" r="118.11" /> 
<circle cx="94663.4" cy="46545.3" r="118.11" /> 
<circle cx="95663.4" cy="47545.3" r="118.11" /> 
<circle cx="95663.4" cy="46545.3" r="118.11" /> 
<circle cx="96663.4" cy="47545.3" r="118.11" /> 
<circle cx="96663.4" cy="46545.3" r="118.11" /> 
<circle cx="97663.4" cy="47545.3" r="118.11" /> 
<circle cx="97663.4" cy="46545.3" r="118.11" /> 
<circle cx="98663.4" cy="47545.3" r="118.11" /> 
<circle cx="98663.4" cy="46545.3" r="118.11" /> 
<circle cx="79663.4" cy="19545.3" r="118.11" /> 
<circle cx="79663.4" cy="18545.3" r="118.11" /> 
<circle cx="80663.4" cy="19545.3" r="118.11" /> 
<circle cx="80663.4" cy="18545.3" r="118.11" /> 
<circle cx="81663.4" cy="19545.3" r="118.11" /> 
<circle cx="81663.4" cy="18545.3" r="118.11" /> 
<circle cx="82663.4" cy="19545.3" r="118.11" /> 
<circle cx="82663.4" cy="18545.3" r="118.11" /> 
<circle cx="83663.4" cy="19545.3" r="118.11" /> 
<circle cx="83663.4" cy="18545.3" r="118.11" /> 
<circle cx="84663.4" cy="19545.3" r="118.11" /> 
<circle cx="84663.4" cy="18545.3" r="118.11" /> 
<circle cx="85663.4" cy="19545.3" r="118.11" /> 
<circle cx="85663.4" cy="18545.3" r="118.11" /> 
<circle cx="86663.4" cy="19545.3" r="118.11" /> 
<circle cx="86663.4" cy="18545.3" r="118.11" /> 
<circle cx="87663.4" cy="19545.3" r="118.11" /> 
<circle cx="87663.4" cy="18545.3" r="118.11" /> 
<circle cx="88663.4" cy="19545.3" r="118.11" /> 
<circle cx="88663.4" cy="18545.3" r="118.11" /> 
<circle cx="89663.4" cy="19545.3" r="118.11" /> 
<circle cx="89663.4" cy="18545.3" r="118.11" /> 
<circle cx="90663.4" cy="19545.3" r="118.11" /> 
<circle cx="90663.4" cy="18545.3" r="118.11" /> 
<circle cx="91663.4" cy="19545.3" r="118.11" /> 
<circle cx="91663.4" cy="18545.3" r="118.11" /> 
<circle cx="92663.4" cy="19545.3" r="118.11" /> 
<circle cx="92663.4" cy="18545.3" r="118.11" /> 
<circle cx="93663.4" cy="19545.3" r="118.11" /> 
<circle cx="93663.4" cy="18545.3" r="118.11" /> 
<circle cx="94663.4" cy="19545.3" r="118.11" /> 
<circle cx="94663.4" cy="18545.3" r="118.11" /> 
<circle cx="95663.4" cy="19545.3" r="118.11" /> 
<circle cx="95663.4" cy="18545.3" r="118.11" /> 
<circle cx="96663.4" cy="19545.3" r="118.11" /> 
<circle cx="96663.4" cy="18545.3" r="118.11" /> 
<circle cx="97663.4" cy="19545.3" r="118.11" /> 
<circle cx="97663.4" cy="18545.3" r="118.11" /> 
<circle cx="98663.4" cy="19545.3" r="118.11" /> 
<circle cx="98663.4" cy="18545.3" r="118.11" /> 
<circle cx="104262" cy="28836.6" r="118.11" /> 
<circle cx="105262" cy="28836.6" r="118.11" /> 
<circle cx="104262" cy="29836.6" r="118.11" /> 
<circle cx="105262" cy="29836.6" r="118.11" /> 
<circle cx="104262" cy="30836.6" r="118.11" /> 
<circle cx="105262" cy="30836.6" r="118.11" /> 
<circle cx="104262" cy="31836.6" r="118.11" /> 
<circle cx="105262" cy="31836.6" r="118.11" /> 
<circle cx="104262" cy="32836.6" r="118.11" /> 
<circle cx="105262" cy="32836.6" r="118.11" /> 
<circle cx="104262" cy="33836.6" r="118.11" /> 
<circle cx="105262" cy="33836.6" r="118.11" /> 
<circle cx="104262" cy="34836.6" r="118.11" /> 
<circle cx="105262" cy="34836.6" r="118.11" /> 
<circle cx="104262" cy="35836.6" r="118.11" /> 
<circle cx="105262" cy="35836.6" r="118.11" /> 
<circle cx="104262" cy="36836.6" r="118.11" /> 
<circle cx="105262" cy="36836.6" r="118.11" /> 
<circle cx="104262" cy="37836.6" r="118.11" /> 
<circle cx="105262" cy="37836.6" r="118.11" /> 
<circle cx="104262" cy="38836.6" r="118.11" /> 
<circle cx="105262" cy="38836.6" r="118.11" /> 
<circle cx="104262" cy="39836.6" r="118.11" /> 
<circle cx="105262" cy="39836.6" r="118.11" /> 
<circle cx="104262" cy="40836.6" r="118.11" /> 
<circle cx="105262" cy="40836.6" r="118.11" /> 
<circle cx="104262" cy="41836.6" r="118.11" /> 
<circle cx="105262" cy="41836.6" r="118.11" /> 
<circle cx="104262" cy="42836.6" r="118.11" /> 
<circle cx="105262" cy="42836.6" r="118.11" /> 
<circle cx="104262" cy="43836.6" r="118.11" /> 
<circle cx="105262" cy="43836.6" r="118.11" /> 
<circle cx="104262" cy="44836.6" r="118.11" /> 
<circle cx="105262" cy="44836.6" r="118.11" /> 
<circle cx="104262" cy="45836.6" r="118.11" /> 
<circle cx="105262" cy="45836.6" r="118.11" /> 
<circle cx="104262" cy="46836.6" r="118.11" /> 
<circle cx="105262" cy="46836.6" r="118.11" /> 
<circle cx="104262" cy="47836.6" r="118.11" /> 
<circle cx="105262" cy="47836.6" r="118.11" /> 
<circle cx="76261.8" cy="28836.6" r="118.11" /> 
<circle cx="77261.8" cy="28836.6" r="118.11" /> 
<circle cx="76261.8" cy="29836.6" r="118.11" /> 
<circle cx="77261.8" cy="29836.6" r="118.11" /> 
<circle cx="76261.8" cy="30836.6" r="118.11" /> 
<circle cx="77261.8" cy="30836.6" r="118.11" /> 
<circle cx="76261.8" cy="31836.6" r="118.11" /> 
<circle cx="77261.8" cy="31836.6" r="118.11" /> 
<circle cx="76261.8" cy="32836.6" r="118.11" /> 
<circle cx="77261.8" cy="32836.6" r="118.11" /> 
<circle cx="76261.8" cy="33836.6" r="118.11" /> 
<circle cx="77261.8" cy="33836.6" r="118.11" /> 
<circle cx="76261.8" cy="34836.6" r="118.11" /> 
<circle cx="77261.8" cy="34836.6" r="118.11" /> 
<circle cx="76261.8" cy="35836.6" r="118.11" /> 
<circle cx="77261.8" cy="35836.6" r="118.11" /> 
<circle cx="76261.8" cy="36836.6" r="118.11" /> 
<circle cx="77261.8" cy="36836.6" r="118.11" /> 
<circle cx="76261.8" cy="37836.6" r="118.11" /> 
<circle cx="77261.8" cy="37836.6" r="118.11" /> 
<circle cx="76261.8" cy="38836.6" r="118.11" /> 
<circle cx="77261.8" cy="38836.6" r="118.11" /> 
<circle cx="76261.8" cy="39836.6" r="118.11" /> 
<circle cx="77261.8" cy="39836.6" r="118.11" /> 
<circle cx="76261.8" cy="40836.6" r="118.11" /> 
<circle cx="77261.8" cy="40836.6" r="118.11" /> 
<circle cx="76261.8" cy="41836.6" r="118.11" /> 
<circle cx="77261.8" cy="41836.6" r="118.11" /> 
<circle cx="76261.8" cy="42836.6" r="118.11" /> 
<circle cx="77261.8" cy="42836.6" r="118.11" /> 
<circle cx="76261.8" cy="43836.6" r="118.11" /> 
<circle cx="77261.8" cy="43836.6" r="118.11" /> 
<circle cx="76261.8" cy="44836.6" r="118.11" /> 
<circle cx="77261.8" cy="44836.6" r="118.11" /> 
<circle cx="76261.8" cy="45836.6" r="118.11" /> 
<circle cx="77261.8" cy="45836.6" r="118.11" /> 
<circle cx="76261.8" cy="46836.6" r="118.11" /> 
<circle cx="77261.8" cy="46836.6" r="118.11" /> 
<circle cx="76261.8" cy="47836.6" r="118.11" /> 
<circle cx="77261.8" cy="47836.6" r="118.11" /> 
<circle cx="80466.5" cy="13110.2" r="118.11" /> 
<circle cx="81466.5" cy="13110.2" r="118.11" /> 
<circle cx="82466.5" cy="13110.2" r="118.11" /> 
<circle cx="101337" cy="27017.7" r="118.11" /> 
<circle cx="100337" cy="27017.7" r="118.11" /> 
<circle cx="103366" cy="15494.1" r="118.11" /> 
<circle cx="103366" cy="16494.1" r="118.11" /> 
<circle cx="104114" cy="18446.9" r="118.11" /> 
<circle cx="104114" cy="19446.9" r="118.11" /> 
<circle cx="84015.7" cy="13122" r="118.11" /> 
<circle cx="84015.7" cy="14122" r="118.11" /> 
<circle cx="78513.8" cy="13141.7" r="118.11" /> 
<circle cx="78513.8" cy="14141.7" r="118.11" /> 
<circle cx="104894" cy="15472.4" r="118.11" /> 
<circle cx="105894" cy="15472.4" r="118.11" /> 
<circle cx="85876" cy="13122" r="118.11" /> 
<circle cx="85876" cy="14122" r="118.11" /> 
</g> 
</svg>
