<?xml version="1.0" standalone="no"?>
 <!DOCTYPE svg PUBLIC "-//W3C//DTD SVG 1.1//EN" 
 "http://www.w3.org/Graphics/SVG/1.1/DTD/svg11.dtd"> 
<svg xmlns="http://www.w3.org/2000/svg" version="1.1" 
    width="29.7002cm" height="21.0007cm" viewBox="0 0 116930 82680 ">
<title>SVG Picture created as poncho_rescatAR-F_SilkS.svg date 2015/12/02 12:12:16 </title>
  <desc>Picture generated by PCBNEW </desc>
<g style="fill:#000000; fill-opacity:1;stroke:#000000; stroke-opacity:1;
stroke-linecap:round; stroke-linejoin:round; "
 transform="translate(0 0) scale(1 1)">
</g>
<g style="fill:#000000; fill-opacity:0.0; 
stroke:#000000; stroke-width:150; stroke-opacity:1; 
stroke-linecap:round; stroke-linejoin:round;">
<path d="M63348 25454
L63348 25704
" />
<path d="M63348 25704
L59348 25704
" />
<path d="M59348 25704
L59348 25454
" />
<path d="M63348 23954
L63348 25454
" />
<path d="M63348 25454
L59348 25454
" />
<path d="M59348 25454
L59348 23954
" />
<path d="M59348 23954
L63348 23954
" />
</g>
<g style="fill:#000000; fill-opacity:0.0; 
stroke:#000000; stroke-width:120; stroke-opacity:1; 
stroke-linecap:round; stroke-linejoin:round;">
<path d="M57501 24704
L57101 24704
" />
<path d="M57101 24704
L57101 25104
" />
<path d="M57101 25104
L53901 25104
" />
<path d="M53901 25104
L53901 24304
" />
<path d="M53901 24304
L57101 24304
" />
<path d="M57101 24304
L57101 24704
" />
<path d="M57101 24904
L56901 25104
" />
<path d="M53501 24704
L53901 24704
" />
<path d="M61112 31602
L61112 32002
" />
<path d="M61112 32002
L61512 32002
" />
<path d="M61512 32002
L61512 35202
" />
<path d="M61512 35202
L60712 35202
" />
<path d="M60712 35202
L60712 32002
" />
<path d="M60712 32002
L61112 32002
" />
<path d="M61312 32002
L61512 32202
" />
<path d="M61112 35602
L61112 35202
" />
<path d="M61350 22696
L60950 22696
" />
<path d="M60950 22696
L60950 23096
" />
<path d="M60950 23096
L57750 23096
" />
<path d="M57750 23096
L57750 22296
" />
<path d="M57750 22296
L60950 22296
" />
<path d="M60950 22296
L60950 22696
" />
<path d="M60950 22896
L60750 23096
" />
<path d="M57350 22696
L57750 22696
" />
</g>
<g style="fill:#000000; fill-opacity:0.0; 
stroke:#000000; stroke-width:100; stroke-opacity:1; 
stroke-linecap:round; stroke-linejoin:round;">
<path d="M34062 27742
L34062 25742
" />
<path d="M32312 27742
L32312 25742
" />
<path d="M34812 25742
L34812 27742
" />
<path d="M34812 25742
L32312 25742
" />
<path d="M34812 27742
L32312 27742
" />
</g>
<g style="fill:#000000; fill-opacity:0.0; 
stroke:#000000; stroke-width:120; stroke-opacity:1; 
stroke-linecap:round; stroke-linejoin:round;">
<path d="M61001 40149
L60001 40149
" />
<path d="M61001 39149
L61001 47149
" />
<path d="M61001 47149
L60001 47149
" />
<path d="M60001 47149
L60001 39149
" />
<path d="M60001 39149
L61001 39149
" />
<path d="M58031 56952
L38031 56952
" />
<path d="M38031 54952
L58031 54952
" />
<path d="M38031 55952
L39031 55952
" />
<path d="M39031 55952
L39031 56952
" />
<path d="M38031 54952
L38031 56952
" />
<path d="M58031 56952
L58031 54952
" />
<path d="M58031 28952
L38031 28952
" />
<path d="M38031 26952
L58031 26952
" />
<path d="M38031 27952
L39031 27952
" />
<path d="M39031 27952
L39031 28952
" />
<path d="M38031 26952
L38031 28952
" />
<path d="M58031 28952
L58031 26952
" />
<path d="M62629 57244
L62629 37244
" />
<path d="M64629 37244
L64629 57244
" />
<path d="M63629 37244
L63629 38244
" />
<path d="M63629 38244
L62629 38244
" />
<path d="M64629 37244
L62629 37244
" />
<path d="M62629 57244
L64629 57244
" />
<path d="M34629 57244
L34629 37244
" />
<path d="M36629 37244
L36629 57244
" />
<path d="M35629 37244
L35629 38244
" />
<path d="M35629 38244
L34629 38244
" />
<path d="M36629 37244
L34629 37244
" />
<path d="M34629 57244
L36629 57244
" />
</g>
<g style="fill:#000000; fill-opacity:0.0; 
stroke:#000000; stroke-width:100; stroke-opacity:1; 
stroke-linecap:round; stroke-linejoin:round;">
<path d="M67068 21080
L63068 21080
" />
<path d="M67068 20080
L63068 20080
" />
<path d="M63068 20080
L63068 21080
" />
<path d="M67068 21080
L67068 20080
" />
<path d="M42019 21458
L42269 21458
" />
<path d="M42269 21458
L42269 24958
" />
<path d="M42269 24958
L42019 24958
" />
<path d="M40519 21458
L42019 21458
" />
<path d="M42019 21458
L42019 24958
" />
<path d="M42019 24958
L40519 24958
" />
<path d="M40519 24958
L40519 21458
" />
<path d="M58984 35425
L58984 36425
" />
</g>
<g style="fill:#000000; fill-opacity:0.0; 
stroke:#000000; stroke-width:60; stroke-opacity:1; 
stroke-linecap:round; stroke-linejoin:round;">
<path d="M60065.7 36309.3 A600 600 0.0 0 0 60204.7 35925.2 " />
<path d="M60204 35925.2 A599.256 599.256 0.0 0 0 60052.8 35527.3 " />
<path d="M59005.5 35925.2 A599.27 599.27 0.0 0 0 59149.7 36315.2 " />
<path d="M59143.8 35541.1 A600 600 0.0 0 0 59004.7 35925.2 " />
<path d="M59116.9 36274.5 A600 600 0.0 0 0 59604.7 36525.2 " />
<path d="M59604.7 36525.2 A600 600 0.0 0 0 60084.5 36285.4 " />
<path d="M59604.7 35325.9 A599.294 599.294 0.0 0 0 59131.8 35557.1 " />
<path d="M60078.2 35556.6 A600 600 0.0 0 0 59604.7 35325.2 " />
<path d="M59604.7 36175.2 A250 250 0.0 0 0 59854.7 35925.2 " />
<path d="M59604.7 36325.2 A400 400 0.0 0 0 60004.7 35925.2 " />
<path d="M59604.7 35675.2 A250 250 0.0 0 0 59354.7 35925.2 " />
<path d="M59604.7 35525.2 A400 400 0.0 0 0 59204.7 35925.2 " />
</g>
<g style="fill:#000000; fill-opacity:0.0; 
stroke:#000000; stroke-width:100; stroke-opacity:1; 
stroke-linecap:round; stroke-linejoin:round;">
<path d="M58991 36438.4 A800 800 0.0 0 0 59604.7 36725.2 " />
<path d="M59604.7 36724.2 A799 799 0.0 0 0 60309.5 36301.5 " />
<path d="M59603.3 35126.2 A798.972 798.972 0.0 0 0 58994.5 35409.5 " />
<path d="M60298.9 35527.6 A800 800 0.0 0 0 59604.7 35125.2 " />
<path d="M60309.1 36304.5 A800 800 0.0 0 0 60404.7 35925.2 " />
<path d="M60404.3 35925.2 A799.576 799.576 0.0 0 0 60285.7 35506.2 " />
</g>
<g style="fill:#000000; fill-opacity:0.0; 
stroke:#000000; stroke-width:120; stroke-opacity:1; 
stroke-linecap:round; stroke-linejoin:round;">
<circle cx="64537.4" cy="29439" r="2195.45" /> 
<circle cx="36309.1" cy="23179.1" r="2195.45" /> 
<path d="M60968 26271
L62948 26271
" />
<path d="M62948 26271
L62948 27271
" />
<path d="M62948 27271
L60948 27271
" />
<path d="M60948 27271
L60948 26271
" />
<path d="M60948 26521
L61198 26271
" />
<path d="M62976 22679
L64956 22679
" />
<path d="M64956 22679
L64956 23679
" />
<path d="M64956 23679
L62956 23679
" />
<path d="M62956 23679
L62956 22679
" />
<path d="M62956 22929
L63206 22679
" />
<path d="M38653 24690
L38653 22710
" />
<path d="M38653 22710
L39653 22710
" />
<path d="M39653 22710
L39653 24710
" />
<path d="M39653 24710
L38653 24710
" />
<path d="M38903 24710
L38653 24460
" />
<path d="M41718 21129
L39738 21129
" />
<path d="M39738 21129
L39738 20129
" />
<path d="M39738 20129
L41738 20129
" />
<path d="M41738 20129
L41738 21129
" />
<path d="M41738 20879
L41488 21129
" />
</g>
<g style="fill:#000000; fill-opacity:0.0; 
stroke:#000000; stroke-width:80; stroke-opacity:1; 
stroke-linecap:round; stroke-linejoin:round;">
<path d="M61043 23097
L61043 23583
L61062 23640
L61081 23669
L61119 23697
L61196 23697
L61234 23669
L61253 23640
L61272 23583
L61272 23097
" />
<path d="M61672 23697
L61443 23697
" />
<path d="M61557 23697
L61557 23097
L61519 23183
L61481 23240
L61443 23269
" />
<path d="M64091 25783
L64091 25973
L63491 25973
" />
<path d="M64091 25649
L63491 25649
L63919 25516
L63491 25383
L64091 25383
" />
<path d="M63491 25230
L63491 24983
L63719 25116
L63719 25059
L63748 25021
L63776 25002
L63834 24983
L63976 24983
L64034 25002
L64062 25021
L64091 25059
L64091 25173
L64062 25211
L64034 25230
" />
<path d="M64091 24602
L64091 24830
" />
<path d="M64091 24716
L63491 24716
L63576 24754
L63634 24792
L63662 24830
" />
<path d="M63491 24469
L63491 24202
L64091 24373
" />
<path d="M63491 24107
L63491 23878
" />
<path d="M64091 23992
L63491 23992
" />
<path d="M55418 24927
L55251 24665
" />
<path d="M55132 24927
L55132 24377
L55323 24377
L55371 24403
L55394 24429
L55418 24482
L55418 24560
L55394 24613
L55371 24639
L55323 24665
L55132 24665
" />
<path d="M55847 24560
L55847 24927
" />
<path d="M55728 24351
L55609 24744
L55918 24744
" />
<path d="M61334 33685
L61072 33852
" />
<path d="M61334 33971
L60784 33971
L60784 33780
L60811 33733
L60837 33709
L60889 33685
L60968 33685
L61020 33709
L61046 33733
L61072 33780
L61072 33971
" />
<path d="M61334 33209
L61334 33495
" />
<path d="M61334 33352
L60784 33352
L60863 33399
L60915 33447
L60941 33495
" />
<path d="M59267 22919
L59100 22657
" />
<path d="M58981 22919
L58981 22369
L59171 22369
L59219 22395
L59243 22421
L59267 22474
L59267 22552
L59243 22605
L59219 22631
L59171 22657
L58981 22657
" />
<path d="M59719 22369
L59481 22369
L59457 22631
L59481 22605
L59528 22578
L59648 22578
L59695 22605
L59719 22631
L59743 22683
L59743 22814
L59719 22867
L59695 22893
L59648 22919
L59528 22919
L59481 22893
L59457 22867
" />
</g>
<g style="fill:#000000; fill-opacity:0.0; 
stroke:#000000; stroke-width:47.2441; stroke-opacity:1; 
stroke-linecap:round; stroke-linejoin:round;">
<path d="M35225 26974
L34910 26974
L34910 26854
L34925 26824
L34940 26809
L34970 26794
L35015 26794
L35045 26809
L35060 26824
L35075 26854
L35075 26974
" />
<path d="M35225 26494
L35225 26674
" />
<path d="M35225 26584
L34910 26584
L34955 26614
L34985 26644
L35000 26674
" />
<path d="M31875 27372
L31875 27522
L32025 27537
L32010 27522
L31995 27492
L31995 27417
L32010 27387
L32025 27372
L32055 27357
L32130 27357
L32160 27372
L32175 27387
L32190 27417
L32190 27492
L32175 27522
L32160 27537
" />
<path d="M31875 27267
L32190 27162
L31875 27057
" />
<path d="M32220 27027
L32220 26787
" />
<path d="M31875 26652
L31875 26592
L31890 26562
L31920 26532
L31980 26517
L32085 26517
L32145 26532
L32175 26562
L32190 26592
L32190 26652
L32175 26682
L32145 26712
L32085 26727
L31980 26727
L31920 26712
L31890 26682
L31875 26652
" />
<path d="M31875 26382
L32130 26382
L32160 26367
L32175 26352
L32190 26322
L32190 26262
L32175 26232
L32160 26217
L32130 26202
L31875 26202
" />
<path d="M31875 26097
L31875 25917
" />
<path d="M32190 26007
L31875 26007
" />
</g>
<g style="fill:#000000; fill-opacity:0.0; 
stroke:#000000; stroke-width:80; stroke-opacity:1; 
stroke-linecap:round; stroke-linejoin:round;">
<path d="M61513 43444
L61113 43444
L61113 43292
L61132 43254
L61151 43235
L61190 43216
L61247 43216
L61285 43235
L61304 43254
L61323 43292
L61323 43444
" />
<path d="M61151 43063
L61132 43044
L61113 43006
L61113 42911
L61132 42873
L61151 42854
L61190 42835
L61228 42835
L61285 42854
L61513 43082
L61513 42835
" />
<path d="M46612 54576
L46593 54595
L46536 54614
L46498 54614
L46441 54595
L46402 54557
L46383 54519
L46364 54443
L46364 54386
L46383 54309
L46402 54271
L46441 54233
L46498 54214
L46536 54214
L46593 54233
L46612 54252
" />
<path d="M46860 54214
L46936 54214
L46974 54233
L47012 54271
L47031 54347
L47031 54481
L47012 54557
L46974 54595
L46936 54614
L46860 54614
L46821 54595
L46783 54557
L46764 54481
L46764 54347
L46783 54271
L46821 54233
L46860 54214
" />
<path d="M47202 54614
L47202 54214
L47431 54614
L47431 54214
" />
<path d="M47526 54652
L47831 54652
" />
<path d="M47907 54595
L47964 54614
L48060 54614
L48098 54595
L48117 54576
L48136 54538
L48136 54500
L48117 54462
L48098 54443
L48060 54424
L47983 54405
L47945 54386
L47926 54367
L47907 54328
L47907 54290
L47926 54252
L47945 54233
L47983 54214
L48079 54214
L48136 54233
" />
<path d="M48383 54214
L48460 54214
L48498 54233
L48536 54271
L48555 54347
L48555 54481
L48536 54557
L48498 54595
L48460 54614
L48383 54614
L48345 54595
L48307 54557
L48288 54481
L48288 54347
L48307 54271
L48345 54233
L48383 54214
" />
<path d="M48936 54614
L48707 54614
" />
<path d="M48821 54614
L48821 54214
L48783 54271
L48745 54309
L48707 54328
" />
<path d="M49183 54214
L49221 54214
L49260 54233
L49279 54252
L49298 54290
L49317 54367
L49317 54462
L49298 54538
L49279 54576
L49260 54595
L49221 54614
L49183 54614
L49145 54595
L49126 54576
L49107 54538
L49088 54462
L49088 54367
L49107 54290
L49126 54252
L49145 54233
L49183 54214
" />
<path d="M49698 54614
L49469 54614
" />
<path d="M49583 54614
L49583 54214
L49545 54271
L49507 54309
L49469 54328
" />
<path d="M46612 26576
L46593 26595
L46536 26614
L46498 26614
L46441 26595
L46402 26557
L46383 26519
L46364 26443
L46364 26386
L46383 26309
L46402 26271
L46441 26233
L46498 26214
L46536 26214
L46593 26233
L46612 26252
" />
<path d="M46860 26214
L46936 26214
L46974 26233
L47012 26271
L47031 26347
L47031 26481
L47012 26557
L46974 26595
L46936 26614
L46860 26614
L46821 26595
L46783 26557
L46764 26481
L46764 26347
L46783 26271
L46821 26233
L46860 26214
" />
<path d="M47202 26614
L47202 26214
L47431 26614
L47431 26214
" />
<path d="M47526 26652
L47831 26652
" />
<path d="M47907 26595
L47964 26614
L48060 26614
L48098 26595
L48117 26576
L48136 26538
L48136 26500
L48117 26462
L48098 26443
L48060 26424
L47983 26405
L47945 26386
L47926 26367
L47907 26328
L47907 26290
L47926 26252
L47945 26233
L47983 26214
L48079 26214
L48136 26233
" />
<path d="M48383 26214
L48460 26214
L48498 26233
L48536 26271
L48555 26347
L48555 26481
L48536 26557
L48498 26595
L48460 26614
L48383 26614
L48345 26595
L48307 26557
L48288 26481
L48288 26347
L48307 26271
L48345 26233
L48383 26214
" />
<path d="M48936 26614
L48707 26614
" />
<path d="M48821 26614
L48821 26214
L48783 26271
L48745 26309
L48707 26328
" />
<path d="M49183 26214
L49221 26214
L49260 26233
L49279 26252
L49298 26290
L49317 26367
L49317 26462
L49298 26538
L49279 26576
L49260 26595
L49221 26614
L49183 26614
L49145 26595
L49126 26576
L49107 26538
L49088 26462
L49088 26367
L49107 26290
L49126 26252
L49145 26233
L49183 26214
" />
<path d="M49660 26347
L49660 26614
" />
<path d="M49564 26195
L49469 26481
L49717 26481
" />
<path d="M65253 48948
L65272 48967
L65291 49025
L65291 49063
L65272 49120
L65234 49158
L65196 49177
L65120 49196
L65063 49196
L64987 49177
L64948 49158
L64910 49120
L64891 49063
L64891 49025
L64910 48967
L64929 48948
" />
<path d="M64891 48701
L64891 48625
L64910 48586
L64948 48548
L65025 48529
L65158 48529
L65234 48548
L65272 48586
L65291 48625
L65291 48701
L65272 48739
L65234 48777
L65158 48796
L65025 48796
L64948 48777
L64910 48739
L64891 48701
" />
<path d="M65291 48358
L64891 48358
L65291 48129
L64891 48129
" />
<path d="M65329 48034
L65329 47729
" />
<path d="M65082 47634
L65082 47501
" />
<path d="M65291 47444
L65291 47634
L64891 47634
L64891 47444
" />
<path d="M65139 47272
L65139 46967
" />
<path d="M65253 46548
L65272 46567
L65291 46625
L65291 46663
L65272 46720
L65234 46758
L65196 46777
L65120 46796
L65063 46796
L64987 46777
L64948 46758
L64910 46720
L64891 46663
L64891 46625
L64910 46567
L64929 46548
" />
<path d="M65291 46377
L64891 46377
" />
<path d="M65177 46205
L65177 46015
" />
<path d="M65291 46244
L64891 46110
L65291 45977
" />
<path d="M65177 45863
L65177 45672
" />
<path d="M65291 45901
L64891 45767
L65291 45634
" />
<path d="M65291 45291
L65291 45520
" />
<path d="M65291 45405
L64891 45405
L64948 45444
L64987 45482
L65006 45520
" />
<path d="M37253 48948
L37272 48967
L37291 49025
L37291 49063
L37272 49120
L37234 49158
L37196 49177
L37120 49196
L37063 49196
L36987 49177
L36948 49158
L36910 49120
L36891 49063
L36891 49025
L36910 48967
L36929 48948
" />
<path d="M36891 48701
L36891 48625
L36910 48586
L36948 48548
L37025 48529
L37158 48529
L37234 48548
L37272 48586
L37291 48625
L37291 48701
L37272 48739
L37234 48777
L37158 48796
L37025 48796
L36948 48777
L36910 48739
L36891 48701
" />
<path d="M37291 48358
L36891 48358
L37291 48129
L36891 48129
" />
<path d="M37329 48034
L37329 47729
" />
<path d="M37082 47634
L37082 47501
" />
<path d="M37291 47444
L37291 47634
L36891 47634
L36891 47444
" />
<path d="M37139 47272
L37139 46967
" />
<path d="M37253 46548
L37272 46567
L37291 46625
L37291 46663
L37272 46720
L37234 46758
L37196 46777
L37120 46796
L37063 46796
L36987 46777
L36948 46758
L36910 46720
L36891 46663
L36891 46625
L36910 46567
L36929 46548
" />
<path d="M37291 46377
L36891 46377
" />
<path d="M37177 46205
L37177 46015
" />
<path d="M37291 46244
L36891 46110
L37291 45977
" />
<path d="M37177 45863
L37177 45672
" />
<path d="M37291 45901
L36891 45767
L37291 45634
" />
<path d="M36929 45520
L36910 45501
L36891 45463
L36891 45367
L36910 45329
L36929 45310
L36968 45291
L37006 45291
L37063 45310
L37291 45539
L37291 45291
" />
<path d="M64583 19533
L64640 19552
L64659 19571
L64678 19609
L64678 19666
L64659 19704
L64640 19723
L64602 19742
L64449 19742
L64449 19342
L64583 19342
L64621 19361
L64640 19380
L64659 19418
L64659 19456
L64640 19494
L64621 19514
L64583 19533
L64449 19533
" />
<path d="M64830 19628
L65021 19628
" />
<path d="M64792 19742
L64926 19342
L65059 19742
" />
<path d="M65135 19342
L65364 19342
" />
<path d="M65249 19742
L65249 19342
" />
<path d="M65706 19742
L65478 19742
" />
<path d="M65592 19742
L65592 19342
L65554 19399
L65516 19437
L65478 19456
" />
<path d="M42412 23513
L42898 23513
L42955 23494
L42983 23475
L43012 23437
L43012 23361
L42983 23322
L42955 23303
L42898 23284
L42412 23284
" />
<path d="M42469 23113
L42441 23094
L42412 23056
L42412 22961
L42441 22922
L42469 22903
L42526 22884
L42583 22884
L42669 22903
L43012 23132
L43012 22884
" />
<path d="M40262 23825
L40262 24015
L39662 24015
" />
<path d="M40262 23691
L39662 23691
L40091 23558
L39662 23425
L40262 23425
" />
<path d="M39662 23272
L39662 23006
L40262 23177
" />
<path d="M39919 22796
L39891 22834
L39862 22853
L39805 22872
L39776 22872
L39719 22853
L39691 22834
L39662 22796
L39662 22720
L39691 22682
L39719 22663
L39776 22644
L39805 22644
L39862 22663
L39891 22682
L39919 22720
L39919 22796
L39948 22834
L39976 22853
L40033 22872
L40148 22872
L40205 22853
L40233 22834
L40262 22796
L40262 22720
L40233 22682
L40205 22663
L40148 22644
L40033 22644
L39976 22663
L39948 22682
L39919 22720
" />
<path d="M39662 22396
L39662 22358
L39691 22320
L39719 22301
L39776 22282
L39891 22263
L40033 22263
L40148 22282
L40205 22301
L40233 22320
L40262 22358
L40262 22396
L40233 22434
L40205 22453
L40148 22472
L40033 22491
L39891 22491
L39776 22472
L39719 22453
L39691 22434
L39662 22396
" />
<path d="M39662 21901
L39662 22091
L39948 22111
L39919 22091
L39891 22053
L39891 21958
L39919 21920
L39948 21901
L40005 21882
L40148 21882
L40205 21901
L40233 21920
L40262 21958
L40262 22053
L40233 22091
L40205 22111
" />
</g>
<g style="fill:#000000; fill-opacity:0.0; 
stroke:#000000; stroke-width:35; stroke-opacity:1; 
stroke-linecap:round; stroke-linejoin:round;">
<path d="M58783 37146
L58783 36846
L58854 36846
L58897 36860
L58926 36889
L58940 36918
L58954 36975
L58954 37018
L58940 37075
L58926 37103
L58897 37132
L58854 37146
L58783 37146
" />
<path d="M59240 37146
L59069 37146
" />
<path d="M59154 37146
L59154 36846
L59126 36889
L59097 36918
L59069 36932
" />
<path d="M59511 35046
L59369 35046
L59369 34746
" />
<path d="M59611 34889
L59711 34889
" />
<path d="M59754 35046
L59611 35046
L59611 34746
L59754 34746
" />
<path d="M59883 35046
L59883 34746
L59954 34746
L59997 34760
L60026 34789
L60040 34818
L60054 34875
L60054 34918
L60040 34975
L60026 35003
L59997 35032
L59954 35046
L59883 35046
" />
</g>
<g style="fill:#000000; fill-opacity:0.0; 
stroke:#000000; stroke-width:100; stroke-opacity:1; 
stroke-linecap:round; stroke-linejoin:round;">
<path d="M64454 30593
L64430 30617
L64358 30641
L64311 30641
L64239 30617
L64192 30569
L64168 30522
L64144 30427
L64144 30355
L64168 30260
L64192 30212
L64239 30165
L64311 30141
L64358 30141
L64430 30165
L64454 30188
" />
<path d="M64930 30641
L64644 30641
" />
<path d="M64787 30641
L64787 30141
L64739 30212
L64692 30260
L64644 30284
" />
<path d="M64001 28641
L63715 28641
" />
<path d="M63858 28641
L63858 28141
L63811 28212
L63763 28260
L63715 28284
" />
<path d="M64311 28141
L64358 28141
L64406 28165
L64430 28188
L64454 28236
L64477 28331
L64477 28450
L64454 28546
L64430 28593
L64406 28617
L64358 28641
L64311 28641
L64263 28617
L64239 28593
L64215 28546
L64192 28450
L64192 28331
L64215 28236
L64239 28188
L64263 28165
L64311 28141
" />
<path d="M64906 28308
L64906 28641
" />
<path d="M64692 28308
L64692 28569
L64715 28617
L64763 28641
L64835 28641
L64882 28617
L64906 28593
" />
<path d="M65311 28379
L65144 28379
" />
<path d="M65144 28641
L65144 28141
L65382 28141
" />
<path d="M37463 23262
L37487 23286
L37511 23357
L37511 23405
L37487 23476
L37440 23524
L37392 23548
L37297 23571
L37225 23571
L37130 23548
L37082 23524
L37035 23476
L37011 23405
L37011 23357
L37035 23286
L37059 23262
" />
<path d="M37059 23071
L37035 23048
L37011 23000
L37011 22881
L37035 22833
L37059 22810
L37106 22786
L37154 22786
L37225 22810
L37511 23095
L37511 22786
" />
<path d="M35511 23714
L35511 24000
" />
<path d="M35511 23857
L35011 23857
L35082 23905
L35130 23952
L35154 24000
" />
<path d="M35011 23405
L35011 23357
L35035 23310
L35059 23286
L35106 23262
L35201 23238
L35320 23238
L35416 23262
L35463 23286
L35487 23310
L35511 23357
L35511 23405
L35487 23452
L35463 23476
L35416 23500
L35320 23524
L35201 23524
L35106 23500
L35059 23476
L35035 23452
L35011 23405
" />
<path d="M35178 22810
L35511 22810
" />
<path d="M35178 23024
L35440 23024
L35487 23000
L35511 22952
L35511 22881
L35487 22833
L35463 22810
" />
<path d="M35249 22405
L35249 22571
" />
<path d="M35511 22571
L35011 22571
L35011 22333
" />
</g>
<g style="fill:#000000; fill-opacity:0.0; 
stroke:#000000; stroke-width:80; stroke-opacity:1; 
stroke-linecap:round; stroke-linejoin:round;">
<path d="M61982 25995
L61963 26014
L61905 26033
L61867 26033
L61810 26014
L61772 25976
L61753 25938
L61734 25862
L61734 25804
L61753 25728
L61772 25690
L61810 25652
L61867 25633
L61905 25633
L61963 25652
L61982 25671
" />
<path d="M62325 25766
L62325 26033
" />
<path d="M62229 25614
L62134 25900
L62382 25900
" />
<path d="M63990 22402
L63970 22421
L63913 22441
L63875 22441
L63818 22421
L63780 22383
L63761 22345
L63742 22269
L63742 22212
L63761 22136
L63780 22098
L63818 22060
L63875 22041
L63913 22041
L63970 22060
L63990 22079
" />
<path d="M64123 22041
L64370 22041
L64237 22193
L64294 22193
L64332 22212
L64351 22231
L64370 22269
L64370 22364
L64351 22402
L64332 22421
L64294 22441
L64180 22441
L64142 22421
L64123 22402
" />
<path d="M38377 23677
L38396 23696
L38415 23753
L38415 23791
L38396 23848
L38358 23886
L38320 23905
L38244 23924
L38186 23924
L38110 23905
L38072 23886
L38034 23848
L38015 23791
L38015 23753
L38034 23696
L38053 23677
" />
<path d="M38015 23334
L38015 23410
L38034 23448
L38053 23467
L38110 23505
L38186 23524
L38339 23524
L38377 23505
L38396 23486
L38415 23448
L38415 23372
L38396 23334
L38377 23315
L38339 23296
L38244 23296
L38205 23315
L38186 23334
L38167 23372
L38167 23448
L38186 23486
L38205 23505
L38244 23524
" />
<path d="M40571 21653
L40552 21672
L40495 21691
L40457 21691
L40400 21672
L40361 21634
L40342 21596
L40323 21520
L40323 21463
L40342 21387
L40361 21348
L40400 21310
L40457 21291
L40495 21291
L40552 21310
L40571 21329
" />
<path d="M40933 21291
L40742 21291
L40723 21482
L40742 21463
L40781 21444
L40876 21444
L40914 21463
L40933 21482
L40952 21520
L40952 21615
L40933 21653
L40914 21672
L40876 21691
L40781 21691
L40742 21672
L40723 21653
" />
</g> 
</svg>
