<?xml version="1.0" standalone="no"?>
 <!DOCTYPE svg PUBLIC "-//W3C//DTD SVG 1.1//EN" 
 "http://www.w3.org/Graphics/SVG/1.1/DTD/svg11.dtd"> 
<svg xmlns="http://www.w3.org/2000/svg" version="1.1" 
    width="29.7002cm" height="21.0007cm" viewBox="0 0 116930 82680 ">
<title>SVG Picture created as poncho_rescatAR-F_Cu.svg date 2015/12/03 12:40:11 </title>
  <desc>Picture generated by PCBNEW </desc>
<g style="fill:#000000; fill-opacity:1;stroke:#000000; stroke-opacity:1;
stroke-linecap:round; stroke-linejoin:round; "
 transform="translate(0 0) scale(1 1)">
</g>
<g style="fill:#000000; fill-opacity:0.0; 
stroke:#000000; stroke-width:787.402; stroke-opacity:1; 
stroke-linecap:round; stroke-linejoin:round;">
<path d="M90059 14507
L90059 14507
" />
<path d="M88503 14507
L88503 14507
" />
<path d="M91614 14507
L91614 14507
" />
<path d="M86929 14507
L86929 14507
" />
</g>
<g style="fill:#000000; fill-opacity:0.0; 
stroke:#000000; stroke-width:669.291; stroke-opacity:1; 
stroke-linecap:round; stroke-linejoin:round;">
<path d="M101929 13015
L102244 13015
" />
<path d="M101929 14015
L102244 14015
" />
<path d="M101929 15015
L102244 15015
" />
</g>
<g style="fill:#000000; fill-opacity:0.0; 
stroke:#000000; stroke-width:787.402; stroke-opacity:1; 
stroke-linecap:round; stroke-linejoin:round;">
<path d="M96405 16269
L96405 16269
" />
<path d="M100405 16269
L100405 16269
" />
<path d="M95826 19230
L95826 19230
" />
<path d="M95826 23230
L95826 23230
" />
<path d="M94862 11070
L94862 11070
" />
<path d="M94862 15070
L94862 15070
" />
<path d="M67470 16921
L67470 16921
" />
<path d="M67470 17921
L67470 17921
" />
<path d="M97007 30328
L97007 30328
" />
<path d="M97007 31328
L97007 31328
" />
<path d="M97007 32328
L97007 32328
" />
<path d="M97007 33328
L97007 33328
" />
<path d="M97007 34328
L97007 34328
" />
<path d="M97007 35328
L97007 35328
" />
<path d="M97007 36328
L97007 36328
" />
<path d="M97007 37328
L97007 37328
" />
<path d="M75037 47131
L75037 47131
" />
<path d="M75037 46131
L75037 46131
" />
<path d="M76037 47131
L76037 47131
" />
<path d="M76037 46131
L76037 46131
" />
<path d="M77037 47131
L77037 47131
" />
<path d="M77037 46131
L77037 46131
" />
<path d="M78037 47131
L78037 47131
" />
<path d="M78037 46131
L78037 46131
" />
<path d="M79037 47131
L79037 47131
" />
<path d="M79037 46131
L79037 46131
" />
<path d="M80037 47131
L80037 47131
" />
<path d="M80037 46131
L80037 46131
" />
<path d="M81037 47131
L81037 47131
" />
<path d="M81037 46131
L81037 46131
" />
<path d="M82037 47131
L82037 47131
" />
<path d="M82037 46131
L82037 46131
" />
<path d="M83037 47131
L83037 47131
" />
<path d="M83037 46131
L83037 46131
" />
<path d="M84037 47131
L84037 47131
" />
<path d="M84037 46131
L84037 46131
" />
<path d="M85037 47131
L85037 47131
" />
<path d="M85037 46131
L85037 46131
" />
<path d="M86037 47131
L86037 47131
" />
<path d="M86037 46131
L86037 46131
" />
<path d="M87037 47131
L87037 47131
" />
<path d="M87037 46131
L87037 46131
" />
<path d="M88037 47131
L88037 47131
" />
<path d="M88037 46131
L88037 46131
" />
<path d="M89037 47131
L89037 47131
" />
<path d="M89037 46131
L89037 46131
" />
<path d="M90037 47131
L90037 47131
" />
<path d="M90037 46131
L90037 46131
" />
<path d="M91037 47131
L91037 47131
" />
<path d="M91037 46131
L91037 46131
" />
<path d="M92037 47131
L92037 47131
" />
<path d="M92037 46131
L92037 46131
" />
<path d="M93037 47131
L93037 47131
" />
<path d="M93037 46131
L93037 46131
" />
<path d="M94037 47131
L94037 47131
" />
<path d="M94037 46131
L94037 46131
" />
<path d="M75037 19131
L75037 19131
" />
<path d="M75037 18131
L75037 18131
" />
<path d="M76037 19131
L76037 19131
" />
<path d="M76037 18131
L76037 18131
" />
<path d="M77037 19131
L77037 19131
" />
<path d="M77037 18131
L77037 18131
" />
<path d="M78037 19131
L78037 19131
" />
<path d="M78037 18131
L78037 18131
" />
<path d="M79037 19131
L79037 19131
" />
<path d="M79037 18131
L79037 18131
" />
<path d="M80037 19131
L80037 19131
" />
<path d="M80037 18131
L80037 18131
" />
<path d="M81037 19131
L81037 19131
" />
<path d="M81037 18131
L81037 18131
" />
<path d="M82037 19131
L82037 19131
" />
<path d="M82037 18131
L82037 18131
" />
<path d="M83037 19131
L83037 19131
" />
<path d="M83037 18131
L83037 18131
" />
<path d="M84037 19131
L84037 19131
" />
<path d="M84037 18131
L84037 18131
" />
<path d="M85037 19131
L85037 19131
" />
<path d="M85037 18131
L85037 18131
" />
<path d="M86037 19131
L86037 19131
" />
<path d="M86037 18131
L86037 18131
" />
<path d="M87037 19131
L87037 19131
" />
<path d="M87037 18131
L87037 18131
" />
<path d="M88037 19131
L88037 19131
" />
<path d="M88037 18131
L88037 18131
" />
<path d="M89037 19131
L89037 19131
" />
<path d="M89037 18131
L89037 18131
" />
<path d="M90037 19131
L90037 19131
" />
<path d="M90037 18131
L90037 18131
" />
<path d="M91037 19131
L91037 19131
" />
<path d="M91037 18131
L91037 18131
" />
<path d="M92037 19131
L92037 19131
" />
<path d="M92037 18131
L92037 18131
" />
<path d="M93037 19131
L93037 19131
" />
<path d="M93037 18131
L93037 18131
" />
<path d="M94037 19131
L94037 19131
" />
<path d="M94037 18131
L94037 18131
" />
<path d="M99635 28423
L99635 28423
" />
<path d="M100635 28423
L100635 28423
" />
<path d="M99635 29423
L99635 29423
" />
<path d="M100635 29423
L100635 29423
" />
<path d="M99635 30423
L99635 30423
" />
<path d="M100635 30423
L100635 30423
" />
<path d="M99635 31423
L99635 31423
" />
<path d="M100635 31423
L100635 31423
" />
<path d="M99635 32423
L99635 32423
" />
<path d="M100635 32423
L100635 32423
" />
<path d="M99635 33423
L99635 33423
" />
<path d="M100635 33423
L100635 33423
" />
<path d="M99635 34423
L99635 34423
" />
<path d="M100635 34423
L100635 34423
" />
<path d="M99635 35423
L99635 35423
" />
<path d="M100635 35423
L100635 35423
" />
<path d="M99635 36423
L99635 36423
" />
<path d="M100635 36423
L100635 36423
" />
<path d="M99635 37423
L99635 37423
" />
<path d="M100635 37423
L100635 37423
" />
<path d="M99635 38423
L99635 38423
" />
<path d="M100635 38423
L100635 38423
" />
<path d="M99635 39423
L99635 39423
" />
<path d="M100635 39423
L100635 39423
" />
<path d="M99635 40423
L99635 40423
" />
<path d="M100635 40423
L100635 40423
" />
<path d="M99635 41423
L99635 41423
" />
<path d="M100635 41423
L100635 41423
" />
<path d="M99635 42423
L99635 42423
" />
<path d="M100635 42423
L100635 42423
" />
<path d="M99635 43423
L99635 43423
" />
<path d="M100635 43423
L100635 43423
" />
<path d="M99635 44423
L99635 44423
" />
<path d="M100635 44423
L100635 44423
" />
<path d="M99635 45423
L99635 45423
" />
<path d="M100635 45423
L100635 45423
" />
<path d="M99635 46423
L99635 46423
" />
<path d="M100635 46423
L100635 46423
" />
<path d="M99635 47423
L99635 47423
" />
<path d="M100635 47423
L100635 47423
" />
<path d="M71635 28423
L71635 28423
" />
<path d="M72635 28423
L72635 28423
" />
<path d="M71635 29423
L71635 29423
" />
<path d="M72635 29423
L72635 29423
" />
<path d="M71635 30423
L71635 30423
" />
<path d="M72635 30423
L72635 30423
" />
<path d="M71635 31423
L71635 31423
" />
<path d="M72635 31423
L72635 31423
" />
<path d="M71635 32423
L71635 32423
" />
<path d="M72635 32423
L72635 32423
" />
<path d="M71635 33423
L71635 33423
" />
<path d="M72635 33423
L72635 33423
" />
<path d="M71635 34423
L71635 34423
" />
<path d="M72635 34423
L72635 34423
" />
<path d="M71635 35423
L71635 35423
" />
<path d="M72635 35423
L72635 35423
" />
<path d="M71635 36423
L71635 36423
" />
<path d="M72635 36423
L72635 36423
" />
<path d="M71635 37423
L71635 37423
" />
<path d="M72635 37423
L72635 37423
" />
<path d="M71635 38423
L71635 38423
" />
<path d="M72635 38423
L72635 38423
" />
<path d="M71635 39423
L71635 39423
" />
<path d="M72635 39423
L72635 39423
" />
<path d="M71635 40423
L71635 40423
" />
<path d="M72635 40423
L72635 40423
" />
<path d="M71635 41423
L71635 41423
" />
<path d="M72635 41423
L72635 41423
" />
<path d="M71635 42423
L71635 42423
" />
<path d="M72635 42423
L72635 42423
" />
<path d="M71635 43423
L71635 43423
" />
<path d="M72635 43423
L72635 43423
" />
<path d="M71635 44423
L71635 44423
" />
<path d="M72635 44423
L72635 44423
" />
<path d="M71635 45423
L71635 45423
" />
<path d="M72635 45423
L72635 45423
" />
<path d="M71635 46423
L71635 46423
" />
<path d="M72635 46423
L72635 46423
" />
<path d="M71635 47423
L71635 47423
" />
<path d="M72635 47423
L72635 47423
" />
</g>
<g style="fill:#000000; fill-opacity:0.0; 
stroke:#000000; stroke-width:669.291; stroke-opacity:1; 
stroke-linecap:round; stroke-linejoin:round;">
<path d="M73064 13090
L73064 12775
" />
<path d="M74064 13090
L74064 12775
" />
<path d="M75064 13090
L75064 12775
" />
</g>
<g style="fill:#000000; fill-opacity:0.0; 
stroke:#000000; stroke-width:787.402; stroke-opacity:1; 
stroke-linecap:round; stroke-linejoin:round;">
<path d="M95807 24716
L95807 24716
" />
<path d="M95807 25716
L95807 25716
" />
</g>
<g style="fill:#000000; fill-opacity:0.0; 
stroke:#000000; stroke-width:39.3701; stroke-opacity:1; 
stroke-linecap:round; stroke-linejoin:round;">
</g>
<g style="fill:#000000; fill-opacity:1.0; 
stroke:#000000; stroke-width:39.3701; stroke-opacity:1; 
stroke-linecap:round; stroke-linejoin:round;">
<circle cx="96289.4" cy="12000" r="374.016" /> 
<circle cx="96289.4" cy="13000" r="374.016" /> 
<circle cx="99832.7" cy="14023.6" r="374.016" /> 
<circle cx="99832.7" cy="13023.6" r="374.016" /> 
<circle cx="76614.2" cy="12944.9" r="374.016" /> 
<circle cx="76614.2" cy="13944.9" r="374.016" /> 
<circle cx="71112.2" cy="12964.6" r="374.016" /> 
<circle cx="71112.2" cy="13964.6" r="374.016" /> 
</g>
<g style="fill:#000000; fill-opacity:1.0; 
stroke:#000000; stroke-width:787.402; stroke-opacity:1; 
stroke-linecap:round; stroke-linejoin:round;">
<path d="M98070 12029
L98070 12029
" />
</g>
<g style="fill:#000000; fill-opacity:1.0; 
stroke:#000000; stroke-width:39.3701; stroke-opacity:1; 
stroke-linecap:round; stroke-linejoin:round;">
<circle cx="98070.9" cy="13029.5" r="374.016" /> 
</g>
<g style="fill:#000000; fill-opacity:1.0; 
stroke:#000000; stroke-width:787.402; stroke-opacity:1; 
stroke-linecap:round; stroke-linejoin:round;">
<path d="M78474 12944
L78474 12944
" />
</g>
<g style="fill:#000000; fill-opacity:1.0; 
stroke:#000000; stroke-width:39.3701; stroke-opacity:1; 
stroke-linecap:round; stroke-linejoin:round;">
<circle cx="78474.4" cy="13944.9" r="374.016" /> 
<circle cx="68503.9" cy="19813" r="570.866" /> 
<circle cx="77598.4" cy="21151.6" r="570.866" /> 
<circle cx="95147.6" cy="36318.9" r="570.866" /> 
<circle cx="95944.9" cy="46594.5" r="570.866" /> 
<circle cx="69872" cy="47362.2" r="570.866" /> 
<circle cx="102480" cy="46624" r="570.866" /> 
<circle cx="77687" cy="15492.1" r="570.866" /> 
<circle cx="93592.5" cy="20944.9" r="570.866" /> 
<circle cx="81645.7" cy="13895.7" r="374.016" /> 
<circle cx="81645.7" cy="12895.7" r="374.016" /> 
<circle cx="82645.7" cy="13895.7" r="374.016" /> 
<circle cx="82645.7" cy="12895.7" r="374.016" /> 
<circle cx="94291.3" cy="31220.5" r="570.866" /> 
</g>
<g style="fill:#FFFFFF; fill-opacity:1.0; 
stroke:#FFFFFF; stroke-width:39.3701; stroke-opacity:1; 
stroke-linecap:round; stroke-linejoin:round;">
<circle cx="90059.1" cy="14507.9" r="118.11" /> 
<circle cx="88503.9" cy="14507.9" r="118.11" /> 
<circle cx="91614.2" cy="14507.9" r="118.11" /> 
<circle cx="86929.1" cy="14507.9" r="118.11" /> 
<circle cx="102087" cy="13015.7" r="118.11" /> 
<circle cx="102087" cy="14015.7" r="118.11" /> 
<circle cx="102087" cy="15015.7" r="118.11" /> 
<circle cx="96405.5" cy="16269.7" r="118.11" /> 
<circle cx="100406" cy="16269.7" r="118.11" /> 
<circle cx="95826.8" cy="19230.3" r="118.11" /> 
<circle cx="95826.8" cy="23230.3" r="118.11" /> 
<circle cx="94862.2" cy="11070.9" r="118.11" /> 
<circle cx="94862.2" cy="15070.9" r="118.11" /> 
<circle cx="67470.5" cy="16921.3" r="118.11" /> 
<circle cx="67470.5" cy="17921.3" r="118.11" /> 
<circle cx="97007.9" cy="30328.7" r="118.11" /> 
<circle cx="97007.9" cy="31328.7" r="118.11" /> 
<circle cx="97007.9" cy="32328.7" r="118.11" /> 
<circle cx="97007.9" cy="33328.7" r="118.11" /> 
<circle cx="97007.9" cy="34328.7" r="118.11" /> 
<circle cx="97007.9" cy="35328.7" r="118.11" /> 
<circle cx="97007.9" cy="36328.7" r="118.11" /> 
<circle cx="97007.9" cy="37328.7" r="118.11" /> 
<circle cx="75037.4" cy="47131.9" r="118.11" /> 
<circle cx="75037.4" cy="46131.9" r="118.11" /> 
<circle cx="76037.4" cy="47131.9" r="118.11" /> 
<circle cx="76037.4" cy="46131.9" r="118.11" /> 
<circle cx="77037.4" cy="47131.9" r="118.11" /> 
<circle cx="77037.4" cy="46131.9" r="118.11" /> 
<circle cx="78037.4" cy="47131.9" r="118.11" /> 
<circle cx="78037.4" cy="46131.9" r="118.11" /> 
<circle cx="79037.4" cy="47131.9" r="118.11" /> 
<circle cx="79037.4" cy="46131.9" r="118.11" /> 
<circle cx="80037.4" cy="47131.9" r="118.11" /> 
<circle cx="80037.4" cy="46131.9" r="118.11" /> 
<circle cx="81037.4" cy="47131.9" r="118.11" /> 
<circle cx="81037.4" cy="46131.9" r="118.11" /> 
<circle cx="82037.4" cy="47131.9" r="118.11" /> 
<circle cx="82037.4" cy="46131.9" r="118.11" /> 
<circle cx="83037.4" cy="47131.9" r="118.11" /> 
<circle cx="83037.4" cy="46131.9" r="118.11" /> 
<circle cx="84037.4" cy="47131.9" r="118.11" /> 
<circle cx="84037.4" cy="46131.9" r="118.11" /> 
<circle cx="85037.4" cy="47131.9" r="118.11" /> 
<circle cx="85037.4" cy="46131.9" r="118.11" /> 
<circle cx="86037.4" cy="47131.9" r="118.11" /> 
<circle cx="86037.4" cy="46131.9" r="118.11" /> 
<circle cx="87037.4" cy="47131.9" r="118.11" /> 
<circle cx="87037.4" cy="46131.9" r="118.11" /> 
<circle cx="88037.4" cy="47131.9" r="118.11" /> 
<circle cx="88037.4" cy="46131.9" r="118.11" /> 
<circle cx="89037.4" cy="47131.9" r="118.11" /> 
<circle cx="89037.4" cy="46131.9" r="118.11" /> 
<circle cx="90037.4" cy="47131.9" r="118.11" /> 
<circle cx="90037.4" cy="46131.9" r="118.11" /> 
<circle cx="91037.4" cy="47131.9" r="118.11" /> 
<circle cx="91037.4" cy="46131.9" r="118.11" /> 
<circle cx="92037.4" cy="47131.9" r="118.11" /> 
<circle cx="92037.4" cy="46131.9" r="118.11" /> 
<circle cx="93037.4" cy="47131.9" r="118.11" /> 
<circle cx="93037.4" cy="46131.9" r="118.11" /> 
<circle cx="94037.4" cy="47131.9" r="118.11" /> 
<circle cx="94037.4" cy="46131.9" r="118.11" /> 
<circle cx="75037.4" cy="19131.9" r="118.11" /> 
<circle cx="75037.4" cy="18131.9" r="118.11" /> 
<circle cx="76037.4" cy="19131.9" r="118.11" /> 
<circle cx="76037.4" cy="18131.9" r="118.11" /> 
<circle cx="77037.4" cy="19131.9" r="118.11" /> 
<circle cx="77037.4" cy="18131.9" r="118.11" /> 
<circle cx="78037.4" cy="19131.9" r="118.11" /> 
<circle cx="78037.4" cy="18131.9" r="118.11" /> 
<circle cx="79037.4" cy="19131.9" r="118.11" /> 
<circle cx="79037.4" cy="18131.9" r="118.11" /> 
<circle cx="80037.4" cy="19131.9" r="118.11" /> 
<circle cx="80037.4" cy="18131.9" r="118.11" /> 
<circle cx="81037.4" cy="19131.9" r="118.11" /> 
<circle cx="81037.4" cy="18131.9" r="118.11" /> 
<circle cx="82037.4" cy="19131.9" r="118.11" /> 
<circle cx="82037.4" cy="18131.9" r="118.11" /> 
<circle cx="83037.4" cy="19131.9" r="118.11" /> 
<circle cx="83037.4" cy="18131.9" r="118.11" /> 
<circle cx="84037.4" cy="19131.9" r="118.11" /> 
<circle cx="84037.4" cy="18131.9" r="118.11" /> 
<circle cx="85037.4" cy="19131.9" r="118.11" /> 
<circle cx="85037.4" cy="18131.9" r="118.11" /> 
<circle cx="86037.4" cy="19131.9" r="118.11" /> 
<circle cx="86037.4" cy="18131.9" r="118.11" /> 
<circle cx="87037.4" cy="19131.9" r="118.11" /> 
<circle cx="87037.4" cy="18131.9" r="118.11" /> 
<circle cx="88037.4" cy="19131.9" r="118.11" /> 
<circle cx="88037.4" cy="18131.9" r="118.11" /> 
<circle cx="89037.4" cy="19131.9" r="118.11" /> 
<circle cx="89037.4" cy="18131.9" r="118.11" /> 
<circle cx="90037.4" cy="19131.9" r="118.11" /> 
<circle cx="90037.4" cy="18131.9" r="118.11" /> 
<circle cx="91037.4" cy="19131.9" r="118.11" /> 
<circle cx="91037.4" cy="18131.9" r="118.11" /> 
<circle cx="92037.4" cy="19131.9" r="118.11" /> 
<circle cx="92037.4" cy="18131.9" r="118.11" /> 
<circle cx="93037.4" cy="19131.9" r="118.11" /> 
<circle cx="93037.4" cy="18131.9" r="118.11" /> 
<circle cx="94037.4" cy="19131.9" r="118.11" /> 
<circle cx="94037.4" cy="18131.9" r="118.11" /> 
<circle cx="99635.8" cy="28423.2" r="118.11" /> 
<circle cx="100636" cy="28423.2" r="118.11" /> 
<circle cx="99635.8" cy="29423.2" r="118.11" /> 
<circle cx="100636" cy="29423.2" r="118.11" /> 
<circle cx="99635.8" cy="30423.2" r="118.11" /> 
<circle cx="100636" cy="30423.2" r="118.11" /> 
<circle cx="99635.8" cy="31423.2" r="118.11" /> 
<circle cx="100636" cy="31423.2" r="118.11" /> 
<circle cx="99635.8" cy="32423.2" r="118.11" /> 
<circle cx="100636" cy="32423.2" r="118.11" /> 
<circle cx="99635.8" cy="33423.2" r="118.11" /> 
<circle cx="100636" cy="33423.2" r="118.11" /> 
<circle cx="99635.8" cy="34423.2" r="118.11" /> 
<circle cx="100636" cy="34423.2" r="118.11" /> 
<circle cx="99635.8" cy="35423.2" r="118.11" /> 
<circle cx="100636" cy="35423.2" r="118.11" /> 
<circle cx="99635.8" cy="36423.2" r="118.11" /> 
<circle cx="100636" cy="36423.2" r="118.11" /> 
<circle cx="99635.8" cy="37423.2" r="118.11" /> 
<circle cx="100636" cy="37423.2" r="118.11" /> 
<circle cx="99635.8" cy="38423.2" r="118.11" /> 
<circle cx="100636" cy="38423.2" r="118.11" /> 
<circle cx="99635.8" cy="39423.2" r="118.11" /> 
<circle cx="100636" cy="39423.2" r="118.11" /> 
<circle cx="99635.8" cy="40423.2" r="118.11" /> 
<circle cx="100636" cy="40423.2" r="118.11" /> 
<circle cx="99635.8" cy="41423.2" r="118.11" /> 
<circle cx="100636" cy="41423.2" r="118.11" /> 
<circle cx="99635.8" cy="42423.2" r="118.11" /> 
<circle cx="100636" cy="42423.2" r="118.11" /> 
<circle cx="99635.8" cy="43423.2" r="118.11" /> 
<circle cx="100636" cy="43423.2" r="118.11" /> 
<circle cx="99635.8" cy="44423.2" r="118.11" /> 
<circle cx="100636" cy="44423.2" r="118.11" /> 
<circle cx="99635.8" cy="45423.2" r="118.11" /> 
<circle cx="100636" cy="45423.2" r="118.11" /> 
<circle cx="99635.8" cy="46423.2" r="118.11" /> 
<circle cx="100636" cy="46423.2" r="118.11" /> 
<circle cx="99635.8" cy="47423.2" r="118.11" /> 
<circle cx="100636" cy="47423.2" r="118.11" /> 
<circle cx="71635.8" cy="28423.2" r="118.11" /> 
<circle cx="72635.8" cy="28423.2" r="118.11" /> 
<circle cx="71635.8" cy="29423.2" r="118.11" /> 
<circle cx="72635.8" cy="29423.2" r="118.11" /> 
<circle cx="71635.8" cy="30423.2" r="118.11" /> 
<circle cx="72635.8" cy="30423.2" r="118.11" /> 
<circle cx="71635.8" cy="31423.2" r="118.11" /> 
<circle cx="72635.8" cy="31423.2" r="118.11" /> 
<circle cx="71635.8" cy="32423.2" r="118.11" /> 
<circle cx="72635.8" cy="32423.2" r="118.11" /> 
<circle cx="71635.8" cy="33423.2" r="118.11" /> 
<circle cx="72635.8" cy="33423.2" r="118.11" /> 
<circle cx="71635.8" cy="34423.2" r="118.11" /> 
<circle cx="72635.8" cy="34423.2" r="118.11" /> 
<circle cx="71635.8" cy="35423.2" r="118.11" /> 
<circle cx="72635.8" cy="35423.2" r="118.11" /> 
<circle cx="71635.8" cy="36423.2" r="118.11" /> 
<circle cx="72635.8" cy="36423.2" r="118.11" /> 
<circle cx="71635.8" cy="37423.2" r="118.11" /> 
<circle cx="72635.8" cy="37423.2" r="118.11" /> 
<circle cx="71635.8" cy="38423.2" r="118.11" /> 
<circle cx="72635.8" cy="38423.2" r="118.11" /> 
<circle cx="71635.8" cy="39423.2" r="118.11" /> 
<circle cx="72635.8" cy="39423.2" r="118.11" /> 
<circle cx="71635.8" cy="40423.2" r="118.11" /> 
<circle cx="72635.8" cy="40423.2" r="118.11" /> 
<circle cx="71635.8" cy="41423.2" r="118.11" /> 
<circle cx="72635.8" cy="41423.2" r="118.11" /> 
<circle cx="71635.8" cy="42423.2" r="118.11" /> 
<circle cx="72635.8" cy="42423.2" r="118.11" /> 
<circle cx="71635.8" cy="43423.2" r="118.11" /> 
<circle cx="72635.8" cy="43423.2" r="118.11" /> 
<circle cx="71635.8" cy="44423.2" r="118.11" /> 
<circle cx="72635.8" cy="44423.2" r="118.11" /> 
<circle cx="71635.8" cy="45423.2" r="118.11" /> 
<circle cx="72635.8" cy="45423.2" r="118.11" /> 
<circle cx="71635.8" cy="46423.2" r="118.11" /> 
<circle cx="72635.8" cy="46423.2" r="118.11" /> 
<circle cx="71635.8" cy="47423.2" r="118.11" /> 
<circle cx="72635.8" cy="47423.2" r="118.11" /> 
<circle cx="73065" cy="12933.1" r="118.11" /> 
<circle cx="74065" cy="12933.1" r="118.11" /> 
<circle cx="75065" cy="12933.1" r="118.11" /> 
<circle cx="95807.1" cy="24716.5" r="118.11" /> 
<circle cx="95807.1" cy="25716.5" r="118.11" /> 
<circle cx="96289.4" cy="12000" r="118.11" /> 
<circle cx="96289.4" cy="13000" r="118.11" /> 
<circle cx="99832.7" cy="14023.6" r="118.11" /> 
<circle cx="99832.7" cy="13023.6" r="118.11" /> 
<circle cx="76614.2" cy="12944.9" r="118.11" /> 
<circle cx="76614.2" cy="13944.9" r="118.11" /> 
<circle cx="71112.2" cy="12964.6" r="118.11" /> 
<circle cx="71112.2" cy="13964.6" r="118.11" /> 
<circle cx="98070.9" cy="12029.5" r="118.11" /> 
<circle cx="98070.9" cy="13029.5" r="118.11" /> 
<circle cx="78474.4" cy="12944.9" r="118.11" /> 
<circle cx="78474.4" cy="13944.9" r="118.11" /> 
<circle cx="68503.9" cy="19813" r="118.11" /> 
<circle cx="77598.4" cy="21151.6" r="118.11" /> 
<circle cx="95147.6" cy="36318.9" r="118.11" /> 
<circle cx="95944.9" cy="46594.5" r="118.11" /> 
<circle cx="69872" cy="47362.2" r="118.11" /> 
<circle cx="102480" cy="46624" r="118.11" /> 
<circle cx="77687" cy="15492.1" r="118.11" /> 
<circle cx="93592.5" cy="20944.9" r="118.11" /> 
<circle cx="81645.7" cy="13895.7" r="118.11" /> 
<circle cx="81645.7" cy="12895.7" r="118.11" /> 
<circle cx="82645.7" cy="13895.7" r="118.11" /> 
<circle cx="82645.7" cy="12895.7" r="118.11" /> 
<circle cx="94291.3" cy="31220.5" r="118.11" /> 
</g> 
</svg>
