<?xml version="1.0" standalone="no"?>
 <!DOCTYPE svg PUBLIC "-//W3C//DTD SVG 1.1//EN" 
 "http://www.w3.org/Graphics/SVG/1.1/DTD/svg11.dtd"> 
<svg xmlns="http://www.w3.org/2000/svg" version="1.1" 
    width="29.7002cm" height="21.0007cm" viewBox="0 0 116930 82680 ">
<title>SVG Picture created as poncho_rescatAR-F_Cu.svg date 2015/12/02 12:12:16 </title>
  <desc>Picture generated by PCBNEW </desc>
<g style="fill:#000000; fill-opacity:1;stroke:#000000; stroke-opacity:1;
stroke-linecap:round; stroke-linejoin:round; "
 transform="translate(0 0) scale(1 1)">
</g>
<g style="fill:#000000; fill-opacity:0.0; 
stroke:#000000; stroke-width:59.0551; stroke-opacity:1; 
stroke-linecap:round; stroke-linejoin:round;">
</g>
<g style="fill:#000000; fill-opacity:1.0; 
stroke:#000000; stroke-width:59.0551; stroke-opacity:1; 
stroke-linecap:round; stroke-linejoin:round;">
<circle cx="62348.4" cy="24704.7" r="320.472" /> 
<circle cx="61348.4" cy="24704.7" r="320.472" /> 
<polyline style="fill-rule:evenodd;"
points="60027,24384
60668,24384
60668,25025
60027,25025
60027,24384
" /> 
<circle cx="57502" cy="24704.7" r="320.472" /> 
<circle cx="53502" cy="24704.7" r="320.472" /> 
<circle cx="61112.2" cy="31602.4" r="320.472" /> 
<circle cx="61112.2" cy="35602.4" r="320.472" /> 
<circle cx="61350.4" cy="22696.9" r="320.472" /> 
<circle cx="57350.4" cy="22696.9" r="320.472" /> 
</g>
<g style="fill:#000000; fill-opacity:1.0; 
stroke:#000000; stroke-width:593; stroke-opacity:1; 
stroke-linecap:round; stroke-linejoin:round;">
<path d="M33859 26242
L33265 26242
" />
<path d="M33859 27242
L33265 27242
" />
</g>
<g style="fill:#000000; fill-opacity:1.0; 
stroke:#000000; stroke-width:59.0551; stroke-opacity:1; 
stroke-linecap:round; stroke-linejoin:round;">
<polyline style="fill-rule:evenodd;"
points="60098,39379
60905,39379
60905,39920
60098,39920
60098,39379
" /> 
</g>
<g style="fill:#000000; fill-opacity:1.0; 
stroke:#000000; stroke-width:600; stroke-opacity:1; 
stroke-linecap:round; stroke-linejoin:round;">
<path d="M60634 40649
L60368 40649
" />
<path d="M60634 41649
L60368 41649
" />
<path d="M60634 42649
L60368 42649
" />
<path d="M60634 43649
L60368 43649
" />
<path d="M60634 44649
L60368 44649
" />
<path d="M60634 45649
L60368 45649
" />
<path d="M60634 46649
L60368 46649
" />
</g>
<g style="fill:#000000; fill-opacity:1.0; 
stroke:#000000; stroke-width:59.0551; stroke-opacity:1; 
stroke-linecap:round; stroke-linejoin:round;">
<polyline style="fill-rule:evenodd;"
points="38261,56914
38261,56186
38801,56186
38801,56914
38261,56914
" /> 
</g>
<g style="fill:#000000; fill-opacity:1.0; 
stroke:#000000; stroke-width:600; stroke-opacity:1; 
stroke-linecap:round; stroke-linejoin:round;">
<path d="M38531 55261
L38531 55448
" />
<path d="M39531 56457
L39531 56644
" />
<path d="M39531 55261
L39531 55448
" />
<path d="M40531 56457
L40531 56644
" />
<path d="M40531 55261
L40531 55448
" />
<path d="M41531 56457
L41531 56644
" />
<path d="M41531 55261
L41531 55448
" />
<path d="M42531 56457
L42531 56644
" />
<path d="M42531 55261
L42531 55448
" />
<path d="M43531 56457
L43531 56644
" />
<path d="M43531 55261
L43531 55448
" />
<path d="M44531 56457
L44531 56644
" />
<path d="M44531 55261
L44531 55448
" />
<path d="M45531 56457
L45531 56644
" />
<path d="M45531 55261
L45531 55448
" />
<path d="M46531 56457
L46531 56644
" />
<path d="M46531 55261
L46531 55448
" />
<path d="M47531 56457
L47531 56644
" />
<path d="M47531 55261
L47531 55448
" />
<path d="M48531 56457
L48531 56644
" />
<path d="M48531 55261
L48531 55448
" />
<path d="M49531 56457
L49531 56644
" />
<path d="M49531 55261
L49531 55448
" />
<path d="M50531 56457
L50531 56644
" />
<path d="M50531 55261
L50531 55448
" />
<path d="M51531 56457
L51531 56644
" />
<path d="M51531 55261
L51531 55448
" />
<path d="M52531 56457
L52531 56644
" />
<path d="M52531 55261
L52531 55448
" />
<path d="M53531 56457
L53531 56644
" />
<path d="M53531 55261
L53531 55448
" />
<path d="M54531 56457
L54531 56644
" />
<path d="M54531 55261
L54531 55448
" />
<path d="M55531 56457
L55531 56644
" />
<path d="M55531 55261
L55531 55448
" />
<path d="M56531 56457
L56531 56644
" />
<path d="M56531 55261
L56531 55448
" />
<path d="M57531 56457
L57531 56644
" />
<path d="M57531 55261
L57531 55448
" />
</g>
<g style="fill:#000000; fill-opacity:1.0; 
stroke:#000000; stroke-width:59.0551; stroke-opacity:1; 
stroke-linecap:round; stroke-linejoin:round;">
<polyline style="fill-rule:evenodd;"
points="38261,28914
38261,28186
38801,28186
38801,28914
38261,28914
" /> 
</g>
<g style="fill:#000000; fill-opacity:1.0; 
stroke:#000000; stroke-width:600; stroke-opacity:1; 
stroke-linecap:round; stroke-linejoin:round;">
<path d="M38531 27261
L38531 27448
" />
<path d="M39531 28457
L39531 28644
" />
<path d="M39531 27261
L39531 27448
" />
<path d="M40531 28457
L40531 28644
" />
<path d="M40531 27261
L40531 27448
" />
<path d="M41531 28457
L41531 28644
" />
<path d="M41531 27261
L41531 27448
" />
<path d="M42531 28457
L42531 28644
" />
<path d="M42531 27261
L42531 27448
" />
<path d="M43531 28457
L43531 28644
" />
<path d="M43531 27261
L43531 27448
" />
<path d="M44531 28457
L44531 28644
" />
<path d="M44531 27261
L44531 27448
" />
<path d="M45531 28457
L45531 28644
" />
<path d="M45531 27261
L45531 27448
" />
<path d="M46531 28457
L46531 28644
" />
<path d="M46531 27261
L46531 27448
" />
<path d="M47531 28457
L47531 28644
" />
<path d="M47531 27261
L47531 27448
" />
<path d="M48531 28457
L48531 28644
" />
<path d="M48531 27261
L48531 27448
" />
<path d="M49531 28457
L49531 28644
" />
<path d="M49531 27261
L49531 27448
" />
<path d="M50531 28457
L50531 28644
" />
<path d="M50531 27261
L50531 27448
" />
<path d="M51531 28457
L51531 28644
" />
<path d="M51531 27261
L51531 27448
" />
<path d="M52531 28457
L52531 28644
" />
<path d="M52531 27261
L52531 27448
" />
<path d="M53531 28457
L53531 28644
" />
<path d="M53531 27261
L53531 27448
" />
<path d="M54531 28457
L54531 28644
" />
<path d="M54531 27261
L54531 27448
" />
<path d="M55531 28457
L55531 28644
" />
<path d="M55531 27261
L55531 27448
" />
<path d="M56531 28457
L56531 28644
" />
<path d="M56531 27261
L56531 27448
" />
<path d="M57531 28457
L57531 28644
" />
<path d="M57531 27261
L57531 27448
" />
</g>
<g style="fill:#000000; fill-opacity:1.0; 
stroke:#000000; stroke-width:59.0551; stroke-opacity:1; 
stroke-linecap:round; stroke-linejoin:round;">
<polyline style="fill-rule:evenodd;"
points="62667,37473
63395,37473
63395,38014
62667,38014
62667,37473
" /> 
</g>
<g style="fill:#000000; fill-opacity:1.0; 
stroke:#000000; stroke-width:600; stroke-opacity:1; 
stroke-linecap:round; stroke-linejoin:round;">
<path d="M64321 37744
L64134 37744
" />
<path d="M63125 38744
L62938 38744
" />
<path d="M64321 38744
L64134 38744
" />
<path d="M63125 39744
L62938 39744
" />
<path d="M64321 39744
L64134 39744
" />
<path d="M63125 40744
L62938 40744
" />
<path d="M64321 40744
L64134 40744
" />
<path d="M63125 41744
L62938 41744
" />
<path d="M64321 41744
L64134 41744
" />
<path d="M63125 42744
L62938 42744
" />
<path d="M64321 42744
L64134 42744
" />
<path d="M63125 43744
L62938 43744
" />
<path d="M64321 43744
L64134 43744
" />
<path d="M63125 44744
L62938 44744
" />
<path d="M64321 44744
L64134 44744
" />
<path d="M63125 45744
L62938 45744
" />
<path d="M64321 45744
L64134 45744
" />
<path d="M63125 46744
L62938 46744
" />
<path d="M64321 46744
L64134 46744
" />
<path d="M63125 47744
L62938 47744
" />
<path d="M64321 47744
L64134 47744
" />
<path d="M63125 48744
L62938 48744
" />
<path d="M64321 48744
L64134 48744
" />
<path d="M63125 49744
L62938 49744
" />
<path d="M64321 49744
L64134 49744
" />
<path d="M63125 50744
L62938 50744
" />
<path d="M64321 50744
L64134 50744
" />
<path d="M63125 51744
L62938 51744
" />
<path d="M64321 51744
L64134 51744
" />
<path d="M63125 52744
L62938 52744
" />
<path d="M64321 52744
L64134 52744
" />
<path d="M63125 53744
L62938 53744
" />
<path d="M64321 53744
L64134 53744
" />
<path d="M63125 54744
L62938 54744
" />
<path d="M64321 54744
L64134 54744
" />
<path d="M63125 55744
L62938 55744
" />
<path d="M64321 55744
L64134 55744
" />
<path d="M63125 56744
L62938 56744
" />
<path d="M64321 56744
L64134 56744
" />
</g>
<g style="fill:#000000; fill-opacity:1.0; 
stroke:#000000; stroke-width:59.0551; stroke-opacity:1; 
stroke-linecap:round; stroke-linejoin:round;">
<polyline style="fill-rule:evenodd;"
points="34667,37473
35395,37473
35395,38014
34667,38014
34667,37473
" /> 
</g>
<g style="fill:#000000; fill-opacity:1.0; 
stroke:#000000; stroke-width:600; stroke-opacity:1; 
stroke-linecap:round; stroke-linejoin:round;">
<path d="M36321 37744
L36134 37744
" />
<path d="M35125 38744
L34938 38744
" />
<path d="M36321 38744
L36134 38744
" />
<path d="M35125 39744
L34938 39744
" />
<path d="M36321 39744
L36134 39744
" />
<path d="M35125 40744
L34938 40744
" />
<path d="M36321 40744
L36134 40744
" />
<path d="M35125 41744
L34938 41744
" />
<path d="M36321 41744
L36134 41744
" />
<path d="M35125 42744
L34938 42744
" />
<path d="M36321 42744
L36134 42744
" />
<path d="M35125 43744
L34938 43744
" />
<path d="M36321 43744
L36134 43744
" />
<path d="M35125 44744
L34938 44744
" />
<path d="M36321 44744
L36134 44744
" />
<path d="M35125 45744
L34938 45744
" />
<path d="M36321 45744
L36134 45744
" />
<path d="M35125 46744
L34938 46744
" />
<path d="M36321 46744
L36134 46744
" />
<path d="M35125 47744
L34938 47744
" />
<path d="M36321 47744
L36134 47744
" />
<path d="M35125 48744
L34938 48744
" />
<path d="M36321 48744
L36134 48744
" />
<path d="M35125 49744
L34938 49744
" />
<path d="M36321 49744
L36134 49744
" />
<path d="M35125 50744
L34938 50744
" />
<path d="M36321 50744
L36134 50744
" />
<path d="M35125 51744
L34938 51744
" />
<path d="M36321 51744
L36134 51744
" />
<path d="M35125 52744
L34938 52744
" />
<path d="M36321 52744
L36134 52744
" />
<path d="M35125 53744
L34938 53744
" />
<path d="M36321 53744
L36134 53744
" />
<path d="M35125 54744
L34938 54744
" />
<path d="M36321 54744
L36134 54744
" />
<path d="M35125 55744
L34938 55744
" />
<path d="M36321 55744
L36134 55744
" />
<path d="M35125 56744
L34938 56744
" />
<path d="M36321 56744
L36134 56744
" />
</g>
<g style="fill:#000000; fill-opacity:1.0; 
stroke:#000000; stroke-width:59.0551; stroke-opacity:1; 
stroke-linecap:round; stroke-linejoin:round;">
<polyline style="fill-rule:evenodd;"
points="63298,20851
63298,20310
63839,20310
63839,20851
63298,20851
" /> 
<circle cx="64568.9" cy="20580.7" r="270.472" /> 
<circle cx="65568.9" cy="20580.7" r="270.472" /> 
<circle cx="66568.9" cy="20580.7" r="270.472" /> 
<circle cx="41269.7" cy="22208.7" r="320.472" /> 
<polyline style="fill-rule:evenodd;"
points="40949,23529
40949,22888
41590,22888
41590,23529
40949,23529
" /> 
<circle cx="41269.7" cy="24208.7" r="320.472" /> 
<circle cx="60204.7" cy="35925.2" r="300.472" /> 
<circle cx="59204.7" cy="35925.2" r="300.472" /> 
<polyline style="fill-rule:evenodd;"
points="63216,29759
63216,29118
63857,29118
63857,29759
63216,29759
" /> 
<circle cx="65537.4" cy="29439" r="320.472" /> 
<polyline style="fill-rule:evenodd;"
points="36629,24499
35988,24499
35988,23858
36629,23858
36629,24499
" /> 
<circle cx="36309.1" cy="22179.1" r="320.472" /> 
<circle cx="61448.8" cy="26771.7" r="245.472" /> 
<circle cx="62448.8" cy="26771.7" r="245.472" /> 
<circle cx="63456.7" cy="23179.1" r="245.472" /> 
<circle cx="64456.7" cy="23179.1" r="245.472" /> 
<circle cx="39153.5" cy="24210.6" r="245.472" /> 
<circle cx="39153.5" cy="23210.6" r="245.472" /> 
<circle cx="41238.2" cy="20629.9" r="245.472" /> 
<circle cx="40238.2" cy="20629.9" r="245.472" /> 
</g>
<g style="fill:#000000; fill-opacity:1.0; 
stroke:#000000; stroke-width:314.961; stroke-opacity:1; 
stroke-linecap:round; stroke-linejoin:round;">
<path d="M45324 19076
L45343 19074
" />
<path d="M45343 19074
L45324 19076
" />
</g>
<g style="fill:#000000; fill-opacity:1.0; 
stroke:#000000; stroke-width:100; stroke-opacity:1; 
stroke-linecap:round; stroke-linejoin:round;">
<path d="M45324 19076
L45343 19074
" />
<path d="M45343 19074
L45324 19076
" />
</g> 
</svg>
