<?xml version="1.0" standalone="no"?>
 <!DOCTYPE svg PUBLIC "-//W3C//DTD SVG 1.1//EN" 
 "http://www.w3.org/Graphics/SVG/1.1/DTD/svg11.dtd"> 
<svg xmlns="http://www.w3.org/2000/svg" version="1.1" 
    width="29.7002cm" height="21.0007cm" viewBox="0 0 116930 82680 ">
<title>SVG Picture created as poncho_rescatAR-B_Cu.svg date 2015/12/04 23:42:49 </title>
  <desc>Picture generated by PCBNEW </desc>
<g style="fill:#000000; fill-opacity:1;stroke:#000000; stroke-opacity:1;
stroke-linecap:round; stroke-linejoin:round; "
 transform="translate(0 0) scale(1 1)">
</g>
<g style="fill:#000000; fill-opacity:0.0; 
stroke:#000000; stroke-width:98.4252; stroke-opacity:1; 
stroke-linecap:round; stroke-linejoin:round;">
<path d="M82752 14657
L82939 14657
L82958 14844
L82939 14826
L82902 14807
L82808 14807
L82770 14826
L82752 14844
L82733 14882
L82733 14976
L82752 15013
L82770 15032
L82808 15051
L82902 15051
L82939 15032
L82958 15013
" />
<path d="M82620 14657
L82489 15051
L82358 14657
" />
<path d="M85695 27285
L85882 27285
L85901 27472
L85882 27454
L85845 27435
L85751 27435
L85713 27454
L85695 27472
L85676 27510
L85676 27604
L85695 27641
L85713 27660
L85751 27679
L85845 27679
L85882 27660
L85901 27641
" />
<path d="M85563 27285
L85432 27679
L85301 27285
" />
<path d="M88265 11960
L88490 11960
" />
<path d="M88377 11960
L88377 11566
L88415 11623
L88452 11660
L88490 11679
" />
<path d="M88115 11604
L88096 11585
L88059 11566
L87965 11566
L87927 11585
L87909 11604
L87890 11641
L87890 11679
L87909 11735
L88134 11960
L87890 11960
" />
<path d="M87777 11566
L87646 11960
L87515 11566
" />
<path d="M75905 19854
L75662 19854
L75793 20004
L75737 20004
L75699 20022
L75681 20041
L75662 20079
L75662 20172
L75681 20210
L75699 20229
L75737 20247
L75849 20247
L75887 20229
L75905 20210
" />
<path d="M75493 20210
L75474 20229
L75493 20247
L75512 20229
L75493 20210
L75493 20247
" />
<path d="M75249 20022
L75287 20004
L75306 19985
L75324 19947
L75324 19929
L75306 19891
L75287 19872
L75249 19854
L75174 19854
L75137 19872
L75118 19891
L75099 19929
L75099 19947
L75118 19985
L75137 20004
L75174 20022
L75249 20022
L75287 20041
L75306 20060
L75324 20097
L75324 20172
L75306 20210
L75287 20229
L75249 20247
L75174 20247
L75137 20229
L75118 20210
L75099 20172
L75099 20097
L75118 20060
L75137 20041
L75174 20022
" />
<path d="M74987 19854
L74856 20247
L74724 19854
" />
<path d="M68362 15553
L68549 15553
L68568 15740
L68549 15721
L68512 15703
L68418 15703
L68381 15721
L68362 15740
L68343 15778
L68343 15871
L68362 15909
L68381 15928
L68418 15946
L68512 15946
L68549 15928
L68568 15909
" />
<path d="M68231 15553
L68099 15946
L67968 15553
" />
<path d="M103957 17974
L103713 17974
L103844 18124
L103788 18124
L103750 18143
L103732 18161
L103713 18199
L103713 18293
L103732 18330
L103750 18349
L103788 18368
L103900 18368
L103938 18349
L103957 18330
" />
<path d="M103544 18330
L103525 18349
L103544 18368
L103563 18349
L103544 18330
L103544 18368
" />
<path d="M103300 18143
L103338 18124
L103357 18105
L103375 18068
L103375 18049
L103357 18011
L103338 17993
L103300 17974
L103226 17974
L103188 17993
L103169 18011
L103151 18049
L103151 18068
L103169 18105
L103188 18124
L103226 18143
L103300 18143
L103338 18161
L103357 18180
L103375 18218
L103375 18293
L103357 18330
L103338 18349
L103300 18368
L103226 18368
L103188 18349
L103169 18330
L103151 18293
L103151 18218
L103169 18180
L103188 18161
L103226 18143
" />
<path d="M103038 17974
L102907 18368
L102776 17974
" />
<path d="M86722 35887
L86722 35625
" />
<path d="M86722 35700
L86703 35662
L86684 35643
L86647 35625
L86609 35625
" />
<path d="M86328 35868
L86366 35887
L86441 35887
L86478 35868
L86497 35831
L86497 35681
L86478 35643
L86441 35625
L86366 35625
L86328 35643
L86309 35681
L86309 35718
L86497 35756
" />
<path d="M86160 35868
L86122 35887
L86047 35887
L86010 35868
L85991 35831
L85991 35812
L86010 35775
L86047 35756
L86103 35756
L86141 35737
L86160 35700
L86160 35681
L86141 35643
L86103 35625
L86047 35625
L86010 35643
" />
<path d="M85653 35868
L85691 35887
L85766 35887
L85803 35868
L85822 35850
L85841 35812
L85841 35700
L85822 35662
L85803 35643
L85766 35625
L85691 35625
L85653 35643
" />
<path d="M85316 35887
L85316 35681
L85335 35643
L85372 35625
L85447 35625
L85485 35643
" />
<path d="M85316 35868
L85353 35887
L85447 35887
L85485 35868
L85503 35831
L85503 35793
L85485 35756
L85447 35737
L85353 35737
L85316 35718
" />
<path d="M85185 35625
L85035 35625
" />
<path d="M85128 35494
L85128 35831
L85110 35868
L85072 35887
L85035 35887
" />
<path d="M84922 35775
L84735 35775
" />
<path d="M84960 35887
L84828 35494
L84697 35887
" />
<path d="M84341 35887
L84472 35700
" />
<path d="M84566 35887
L84566 35494
L84416 35494
L84378 35512
L84360 35531
L84341 35568
L84341 35625
L84360 35662
L84378 35681
L84416 35700
L84566 35700
" />
</g>
<g style="fill:#000000; fill-opacity:0.0; 
stroke:#000000; stroke-width:669.291; stroke-opacity:1; 
stroke-linecap:round; stroke-linejoin:round;">
<path d="M103080 12769
L103395 12769
" />
<path d="M103080 13769
L103395 13769
" />
<path d="M103080 14769
L103395 14769
" />
</g>
<g style="fill:#000000; fill-opacity:0.0; 
stroke:#000000; stroke-width:787.402; stroke-opacity:1; 
stroke-linecap:round; stroke-linejoin:round;">
<path d="M91210 14261
L91210 14261
" />
<path d="M89655 14261
L89655 14261
" />
<path d="M92765 14261
L92765 14261
" />
<path d="M88080 14261
L88080 14261
" />
<path d="M103259 10482
L103259 10482
" />
<path d="M99259 10482
L99259 10482
" />
<path d="M96978 18984
L96978 18984
" />
<path d="M96978 22984
L96978 22984
" />
<path d="M100738 15523
L100738 15523
" />
<path d="M100738 11523
L100738 11523
" />
<path d="M68622 16675
L68622 16675
" />
<path d="M68622 17675
L68622 17675
" />
<path d="M98159 30082
L98159 30082
" />
<path d="M98159 31082
L98159 31082
" />
<path d="M98159 32082
L98159 32082
" />
<path d="M98159 33082
L98159 33082
" />
<path d="M98159 34082
L98159 34082
" />
<path d="M98159 35082
L98159 35082
" />
<path d="M98159 36082
L98159 36082
" />
<path d="M98159 37082
L98159 37082
" />
<path d="M75145 46885
L75145 46885
" />
<path d="M75145 45885
L75145 45885
" />
<path d="M76145 46885
L76145 46885
" />
<path d="M76145 45885
L76145 45885
" />
<path d="M77145 46885
L77145 46885
" />
<path d="M77145 45885
L77145 45885
" />
<path d="M78145 46885
L78145 46885
" />
<path d="M78145 45885
L78145 45885
" />
<path d="M79145 46885
L79145 46885
" />
<path d="M79145 45885
L79145 45885
" />
<path d="M80145 46885
L80145 46885
" />
<path d="M80145 45885
L80145 45885
" />
<path d="M81145 46885
L81145 46885
" />
<path d="M81145 45885
L81145 45885
" />
<path d="M82145 46885
L82145 46885
" />
<path d="M82145 45885
L82145 45885
" />
<path d="M83145 46885
L83145 46885
" />
<path d="M83145 45885
L83145 45885
" />
<path d="M84145 46885
L84145 46885
" />
<path d="M84145 45885
L84145 45885
" />
<path d="M85145 46885
L85145 46885
" />
<path d="M85145 45885
L85145 45885
" />
<path d="M86145 46885
L86145 46885
" />
<path d="M86145 45885
L86145 45885
" />
<path d="M87145 46885
L87145 46885
" />
<path d="M87145 45885
L87145 45885
" />
<path d="M88145 46885
L88145 46885
" />
<path d="M88145 45885
L88145 45885
" />
<path d="M89145 46885
L89145 46885
" />
<path d="M89145 45885
L89145 45885
" />
<path d="M90145 46885
L90145 46885
" />
<path d="M90145 45885
L90145 45885
" />
<path d="M91145 46885
L91145 46885
" />
<path d="M91145 45885
L91145 45885
" />
<path d="M92145 46885
L92145 46885
" />
<path d="M92145 45885
L92145 45885
" />
<path d="M93145 46885
L93145 46885
" />
<path d="M93145 45885
L93145 45885
" />
<path d="M94145 46885
L94145 46885
" />
<path d="M94145 45885
L94145 45885
" />
<path d="M75145 18885
L75145 18885
" />
<path d="M75145 17885
L75145 17885
" />
<path d="M76145 18885
L76145 18885
" />
<path d="M76145 17885
L76145 17885
" />
<path d="M77145 18885
L77145 18885
" />
<path d="M77145 17885
L77145 17885
" />
<path d="M78145 18885
L78145 18885
" />
<path d="M78145 17885
L78145 17885
" />
<path d="M79145 18885
L79145 18885
" />
<path d="M79145 17885
L79145 17885
" />
<path d="M80145 18885
L80145 18885
" />
<path d="M80145 17885
L80145 17885
" />
<path d="M81145 18885
L81145 18885
" />
<path d="M81145 17885
L81145 17885
" />
<path d="M82145 18885
L82145 18885
" />
<path d="M82145 17885
L82145 17885
" />
<path d="M83145 18885
L83145 18885
" />
<path d="M83145 17885
L83145 17885
" />
<path d="M84145 18885
L84145 18885
" />
<path d="M84145 17885
L84145 17885
" />
<path d="M85145 18885
L85145 18885
" />
<path d="M85145 17885
L85145 17885
" />
<path d="M86145 18885
L86145 18885
" />
<path d="M86145 17885
L86145 17885
" />
<path d="M87145 18885
L87145 18885
" />
<path d="M87145 17885
L87145 17885
" />
<path d="M88145 18885
L88145 18885
" />
<path d="M88145 17885
L88145 17885
" />
<path d="M89145 18885
L89145 18885
" />
<path d="M89145 17885
L89145 17885
" />
<path d="M90145 18885
L90145 18885
" />
<path d="M90145 17885
L90145 17885
" />
<path d="M91145 18885
L91145 18885
" />
<path d="M91145 17885
L91145 17885
" />
<path d="M92145 18885
L92145 18885
" />
<path d="M92145 17885
L92145 17885
" />
<path d="M93145 18885
L93145 18885
" />
<path d="M93145 17885
L93145 17885
" />
<path d="M94145 18885
L94145 18885
" />
<path d="M94145 17885
L94145 17885
" />
<path d="M100787 28177
L100787 28177
" />
<path d="M101787 28177
L101787 28177
" />
<path d="M100787 29177
L100787 29177
" />
<path d="M101787 29177
L101787 29177
" />
<path d="M100787 30177
L100787 30177
" />
<path d="M101787 30177
L101787 30177
" />
<path d="M100787 31177
L100787 31177
" />
<path d="M101787 31177
L101787 31177
" />
<path d="M100787 32177
L100787 32177
" />
<path d="M101787 32177
L101787 32177
" />
<path d="M100787 33177
L100787 33177
" />
<path d="M101787 33177
L101787 33177
" />
<path d="M100787 34177
L100787 34177
" />
<path d="M101787 34177
L101787 34177
" />
<path d="M100787 35177
L100787 35177
" />
<path d="M101787 35177
L101787 35177
" />
<path d="M100787 36177
L100787 36177
" />
<path d="M101787 36177
L101787 36177
" />
<path d="M100787 37177
L100787 37177
" />
<path d="M101787 37177
L101787 37177
" />
<path d="M100787 38177
L100787 38177
" />
<path d="M101787 38177
L101787 38177
" />
<path d="M100787 39177
L100787 39177
" />
<path d="M101787 39177
L101787 39177
" />
<path d="M100787 40177
L100787 40177
" />
<path d="M101787 40177
L101787 40177
" />
<path d="M100787 41177
L100787 41177
" />
<path d="M101787 41177
L101787 41177
" />
<path d="M100787 42177
L100787 42177
" />
<path d="M101787 42177
L101787 42177
" />
<path d="M100787 43177
L100787 43177
" />
<path d="M101787 43177
L101787 43177
" />
<path d="M100787 44177
L100787 44177
" />
<path d="M101787 44177
L101787 44177
" />
<path d="M100787 45177
L100787 45177
" />
<path d="M101787 45177
L101787 45177
" />
<path d="M100787 46177
L100787 46177
" />
<path d="M101787 46177
L101787 46177
" />
<path d="M100787 47177
L100787 47177
" />
<path d="M101787 47177
L101787 47177
" />
<path d="M72787 28177
L72787 28177
" />
<path d="M73787 28177
L73787 28177
" />
<path d="M72787 29177
L72787 29177
" />
<path d="M73787 29177
L73787 29177
" />
<path d="M72787 30177
L72787 30177
" />
<path d="M73787 30177
L73787 30177
" />
<path d="M72787 31177
L72787 31177
" />
<path d="M73787 31177
L73787 31177
" />
<path d="M72787 32177
L72787 32177
" />
<path d="M73787 32177
L73787 32177
" />
<path d="M72787 33177
L72787 33177
" />
<path d="M73787 33177
L73787 33177
" />
<path d="M72787 34177
L72787 34177
" />
<path d="M73787 34177
L73787 34177
" />
<path d="M72787 35177
L72787 35177
" />
<path d="M73787 35177
L73787 35177
" />
<path d="M72787 36177
L72787 36177
" />
<path d="M73787 36177
L73787 36177
" />
<path d="M72787 37177
L72787 37177
" />
<path d="M73787 37177
L73787 37177
" />
<path d="M72787 38177
L72787 38177
" />
<path d="M73787 38177
L73787 38177
" />
<path d="M72787 39177
L72787 39177
" />
<path d="M73787 39177
L73787 39177
" />
<path d="M72787 40177
L72787 40177
" />
<path d="M73787 40177
L73787 40177
" />
<path d="M72787 41177
L72787 41177
" />
<path d="M73787 41177
L73787 41177
" />
<path d="M72787 42177
L72787 42177
" />
<path d="M73787 42177
L73787 42177
" />
<path d="M72787 43177
L72787 43177
" />
<path d="M73787 43177
L73787 43177
" />
<path d="M72787 44177
L72787 44177
" />
<path d="M73787 44177
L73787 44177
" />
<path d="M72787 45177
L72787 45177
" />
<path d="M73787 45177
L73787 45177
" />
<path d="M72787 46177
L72787 46177
" />
<path d="M73787 46177
L73787 46177
" />
<path d="M72787 47177
L72787 47177
" />
<path d="M73787 47177
L73787 47177
" />
</g>
<g style="fill:#000000; fill-opacity:0.0; 
stroke:#000000; stroke-width:669.291; stroke-opacity:1; 
stroke-linecap:round; stroke-linejoin:round;">
<path d="M72257 14143
L72257 13828
" />
<path d="M73257 14143
L73257 13828
" />
<path d="M74257 14143
L74257 13828
" />
</g>
<g style="fill:#000000; fill-opacity:0.0; 
stroke:#000000; stroke-width:787.402; stroke-opacity:1; 
stroke-linecap:round; stroke-linejoin:round;">
<path d="M96958 24470
L96958 24470
" />
<path d="M96958 25470
L96958 25470
" />
<path d="M101811 12665
L101811 12665
" />
<path d="M101811 11665
L101811 11665
" />
<path d="M103088 16456
L103088 16456
" />
<path d="M102088 16456
L102088 16456
" />
<path d="M76683 13978
L76683 13978
" />
<path d="M76683 14978
L76683 14978
" />
<path d="M69960 13978
L69960 13978
" />
<path d="M69960 14978
L69960 14978
" />
<path d="M98976 12655
L98976 12655
" />
<path d="M98976 11655
L98976 11655
" />
<path d="M78740 13978
L78740 13978
" />
<path d="M78740 14978
L78740 14978
" />
</g>
<g style="fill:#000000; fill-opacity:0.0; 
stroke:#000000; stroke-width:39.3701; stroke-opacity:1; 
stroke-linecap:round; stroke-linejoin:round;">
</g>
<g style="fill:#000000; fill-opacity:1.0; 
stroke:#000000; stroke-width:39.3701; stroke-opacity:1; 
stroke-linecap:round; stroke-linejoin:round;">
<circle cx="69655.5" cy="19566.9" r="570.866" /> 
<circle cx="78750" cy="20905.5" r="570.866" /> 
<circle cx="96299.2" cy="36072.8" r="570.866" /> 
<circle cx="97096.5" cy="46348.4" r="570.866" /> 
<circle cx="71023.6" cy="47116.1" r="570.866" /> 
<circle cx="103632" cy="46378" r="570.866" /> 
<circle cx="80098.4" cy="15226.4" r="570.866" /> 
<circle cx="94744.1" cy="20698.8" r="570.866" /> 
</g>
<g style="fill:#000000; fill-opacity:1.0; 
stroke:#000000; stroke-width:787.402; stroke-opacity:1; 
stroke-linecap:round; stroke-linejoin:round;">
<path d="M83643 15362
L83643 15362
" />
<path d="M83643 14362
L83643 14362
" />
<path d="M84643 15362
L84643 15362
" />
<path d="M84643 14362
L84643 14362
" />
</g>
<g style="fill:#000000; fill-opacity:1.0; 
stroke:#000000; stroke-width:39.3701; stroke-opacity:1; 
stroke-linecap:round; stroke-linejoin:round;">
<circle cx="95442.9" cy="30974.4" r="570.866" /> 
<circle cx="96998" cy="10895.7" r="570.866" /> 
<circle cx="100594" cy="22279.5" r="570.866" /> 
<circle cx="102594" cy="22279.5" r="570.866" /> 
<circle cx="100594" cy="25279.5" r="570.866" /> 
<circle cx="102594" cy="25279.5" r="570.866" /> 
</g>
<g style="fill:#000000; fill-opacity:1.0; 
stroke:#000000; stroke-width:787.402; stroke-opacity:1; 
stroke-linecap:round; stroke-linejoin:round;">
<path d="M101291 19919
L101291 19919
" />
<path d="M101291 18919
L101291 18919
" />
<path d="M102291 19919
L102291 19919
" />
<path d="M102291 18919
L102291 18919
" />
<path d="M97962 28285
L97962 28285
" />
<path d="M97962 27285
L97962 27285
" />
<path d="M96564 30352
L96564 30352
" />
<path d="M96564 29352
L96564 29352
" />
</g>
<g style="fill:#000000; fill-opacity:1.0; 
stroke:#000000; stroke-width:39.3701; stroke-opacity:1; 
stroke-linecap:round; stroke-linejoin:round;">
<circle cx="89685" cy="15049.2" r="570.866" /> 
</g>
<g style="fill:#000000; fill-opacity:1.0; 
stroke:#000000; stroke-width:314.961; stroke-opacity:1; 
stroke-linecap:round; stroke-linejoin:round;">
<path d="M80757 25925
L82145 24537
" />
<path d="M82145 24537
L82145 18885
" />
<path d="M70334 44478
L70334 44576
" />
<path d="M72767 45196
L70954 45196
" />
<path d="M72787 45177
L72767 45196
" />
<path d="M70334 44576
L70954 45196
" />
<path d="M70334 44478
L70334 26683
" />
<path d="M70334 26683
L71102 25915
" />
<path d="M71122 25925
L80757 25925
" />
<path d="M71102 25915
L71122 25915
" />
<path d="M71122 25915
L71122 25925
" />
<path d="M83145 18885
L83145 25289
" />
<path d="M83145 25289
L81624 26811
" />
<path d="M71387 43750
L71820 44183
" />
<path d="M72781 44183
L72787 44177
" />
<path d="M81624 26811
L72234 26811
" />
<path d="M71387 27618
L71387 43750
" />
<path d="M71387 27657
L71387 27627
" />
<path d="M71387 27627
L71397 27618
" />
<path d="M71397 27618
L71387 27618
" />
<path d="M72234 26811
L71387 27657
" />
<path d="M71791 44183
L72781 44183
" />
<path d="M71820 44183
L71820 44153
" />
<path d="M71820 44153
L71791 44124
" />
<path d="M71791 44124
L71791 44183
" />
<path d="M73257 13986
L73257 13444
" />
<path d="M74114 12588
L74291 12588
" />
<path d="M73257 13444
L74114 12588
" />
<path d="M84643 15362
L84643 14362
" />
<path d="M84643 15362
L88555 15362
" />
<path d="M88555 15362
L89655 14261
" />
<path d="M93145 45885
L93799 45885
" />
<path d="M93799 45885
L94145 45885
" />
<path d="M94145 45885
L94145 46885
" />
<path d="M80145 46885
L81145 45885
" />
<path d="M81145 45885
L80145 45885
" />
<path d="M80145 45885
L81145 46885
" />
<path d="M77145 46885
L77145 47706
" />
<path d="M77145 47706
L77047 47805
" />
<path d="M93145 17885
L94145 17885
" />
<path d="M94145 17885
L94145 18885
" />
<path d="M94145 18885
L94744 19484
" />
<path d="M94744 19484
L94744 20698
" />
<path d="M87145 17885
L87145 18885
" />
<path d="M87145 18885
L88145 18885
" />
<path d="M88145 18885
L88145 17885
" />
<path d="M88145 17885
L87145 17885
" />
<path d="M87145 17885
L88145 18885
" />
<path d="M88145 18885
L88145 19769
" />
<path d="M88145 19769
L89074 20698
" />
<path d="M89074 20698
L94744 20698
" />
<path d="M80145 17885
L81145 18885
" />
<path d="M81145 18885
L81145 17885
" />
<path d="M81145 17885
L80145 18885
" />
<path d="M80145 18885
L80145 19509
" />
<path d="M80145 19509
L78750 20905
" />
<path d="M77145 17885
L78145 18885
" />
<path d="M78145 18885
L78145 17885
" />
<path d="M78145 17885
L77145 18885
" />
<path d="M77145 18885
L77145 19301
" />
<path d="M77145 19301
L78750 20905
" />
<path d="M101787 47177
L101787 46177
" />
<path d="M101787 46177
L103431 46177
" />
<path d="M103431 46177
L103631 46377
" />
<path d="M94188 45885
L95188 45885
" />
<path d="M95188 45885
L95188 46885
" />
<path d="M95188 46885
L96559 46885
" />
<path d="M96559 46885
L97096 46348
" />
<path d="M72787 46177
L72787 47177
" />
<path d="M72787 47177
L71084 47177
" />
<path d="M71084 47177
L71023 47116
" />
<path d="M98159 31082
L98158 31083
" />
<path d="M98158 31083
L96988 31083
" />
<path d="M95442 30974
L95552 31083
" />
<path d="M95552 31083
L96988 31083
" />
<path d="M68622 17675
L68486 17675
" />
<path d="M68486 17675
L67736 18425
" />
<path d="M98159 36082
L97125 36082
" />
<path d="M97125 36082
L97027 35984
" />
<path d="M101787 37177
L102600 37177
" />
<path d="M102600 37177
L102883 37460
" />
<path d="M101787 38177
L102783 38177
" />
<path d="M102783 38177
L102883 38277
" />
<path d="M101787 39177
L102681 39177
" />
<path d="M102681 39177
L102726 39222
" />
<path d="M101787 40177
L102627 40177
" />
<path d="M102627 40177
L102637 40167
" />
<path d="M101787 41177
L102653 41177
" />
<path d="M102653 41177
L102814 41338
" />
<path d="M101787 42177
L103210 42177
" />
<path d="M103210 42177
L103228 42194
" />
<path d="M101787 43177
L102620 43177
" />
<path d="M102620 43177
L102992 42805
" />
<path d="M101787 29177
L103124 29177
" />
<path d="M103124 29177
L103139 29192
" />
<path d="M97559 38188
L96318 38188
" />
<path d="M96440 32082
L98159 32082
" />
<path d="M95068 33454
L96440 32082
" />
<path d="M95068 36938
L95068 33454
" />
<path d="M96318 38188
L95068 36938
" />
<path d="M100787 38177
L100775 38188
" />
<path d="M100775 38188
L97559 38188
" />
<path d="M98159 33082
L98929 33082
" />
<path d="M99903 37177
L100787 37177
" />
<path d="M99458 36732
L99903 37177
" />
<path d="M99458 33612
L99458 36732
" />
<path d="M98929 33082
L99458 33612
" />
<path d="M100594 25279
L100594 22279
" />
<path d="M99301 26572
L100594 25279
" />
<path d="M99301 28395
L99301 26572
" />
<path d="M100082 29177
L99301 28395
" />
<path d="M100787 29177
L100082 29177
" />
<path d="M83681 44596
L82687 44596
" />
<path d="M82145 45137
L82145 45885
" />
<path d="M82687 44596
L82145 45137
" />
<path d="M97736 44596
L97736 44566
" />
<path d="M97736 44566
L98385 43917
" />
<path d="M98385 39980
L98385 39960
" />
<path d="M98385 39960
L99124 39222
" />
<path d="M84586 44596
L83681 44596
" />
<path d="M100742 39222
L100787 39177
" />
<path d="M99124 39222
L100742 39222
" />
<path d="M98385 43917
L98385 39980
" />
<path d="M84586 44596
L97736 44596
" />
<path d="M83145 46885
L83145 47692
" />
<path d="M100088 40177
L100787 40177
" />
<path d="M99340 40925
L100088 40177
" />
<path d="M99340 46614
L99340 40925
" />
<path d="M97795 48159
L99340 46614
" />
<path d="M83612 48159
L97795 48159
" />
<path d="M83145 47692
L83612 48159
" />
<path d="M89596 25470
L88718 25470
" />
<path d="M85145 21897
L85145 18885
" />
<path d="M88718 25470
L85145 21897
" />
<path d="M96958 25470
L89596 25470
" />
</g>
<g style="fill:#000000; fill-opacity:1.0; 
stroke:#000000; stroke-width:393.701; stroke-opacity:1; 
stroke-linecap:round; stroke-linejoin:round;">
<path d="M99970 17598
L100738 16830
" />
<path d="M100738 16830
L100738 15523
" />
<path d="M103238 13769
L104173 13769
" />
<path d="M103551 18919
L102291 18919
" />
<path d="M104606 17864
L103551 18919
" />
<path d="M104606 14202
L104606 17864
" />
<path d="M104173 13769
L104606 14202
" />
<path d="M98976 12655
L101801 12655
" />
<path d="M101801 12655
L101811 12665
" />
<path d="M101811 12665
L101811 13336
" />
<path d="M102244 13769
L103238 13769
" />
<path d="M101811 13336
L102244 13769
" />
<path d="M75145 17885
L76145 18885
" />
<path d="M76145 18885
L76145 17446
" />
<path d="M76145 17446
L76145 17885
" />
<path d="M76145 17885
L75145 18885
" />
<path d="M77194 16564
L76643 16564
" />
<path d="M76145 17062
L76145 17885
" />
<path d="M76643 16564
L76145 17062
" />
<path d="M97293 17598
L99970 17598
" />
<path d="M99970 17598
L101291 18919
" />
<path d="M97096 17795
L97293 17598
" />
<path d="M97293 17598
L96909 17598
" />
<path d="M96909 17598
L95875 16564
" />
<path d="M95875 16564
L77194 16564
" />
<path d="M77194 16564
L77188 16570
" />
<path d="M102291 18919
L101291 18919
" />
<path d="M96978 18984
L96978 17913
" />
<path d="M96978 17913
L97096 17795
" />
<path d="M97962 28285
L97962 29885
" />
<path d="M97962 29885
L98159 30082
" />
<path d="M96564 29352
L96564 28208
" />
<path d="M96564 28208
L96533 28177
" />
<path d="M98159 30082
L98159 29803
" />
<path d="M96533 28177
L73787 28177
" />
<path d="M98159 29803
L96533 28177
" />
<path d="M76683 13978
L78740 13978
" />
<path d="M74257 13986
L76675 13986
" />
<path d="M76675 13986
L76683 13978
" />
<path d="M68622 16675
L73954 16675
" />
<path d="M73954 16675
L74257 16372
" />
<path d="M78740 13978
L83269 13988
" />
<path d="M83269 13988
L83643 14362
" />
<path d="M83643 14362
L83643 15362
" />
<path d="M74257 16372
L74257 13986
" />
</g>
<g style="fill:#000000; fill-opacity:1.0; 
stroke:#000000; stroke-width:314.961; stroke-opacity:1; 
stroke-linecap:round; stroke-linejoin:round;">
<path d="M103238 12769
L103238 10503
" />
<path d="M103238 10503
L103259 10482
" />
<path d="M100738 11523
L100738 10885
" />
<path d="M101141 10482
L103259 10482
" />
<path d="M100738 10885
L101141 10482
" />
<path d="M96978 22984
L96978 24450
" />
<path d="M96978 24450
L96958 24470
" />
</g>
<g style="fill:#000000; fill-opacity:1.0; 
stroke:#000000; stroke-width:393.701; stroke-opacity:1; 
stroke-linecap:round; stroke-linejoin:round;">
<path d="M103238 14769
L103088 14919
" />
<path d="M103088 14919
L103088 16456
" />
<path d="M103238 14769
L101994 14769
" />
<path d="M89005 12234
L88080 13159
" />
<path d="M93061 12234
L89005 12234
" />
<path d="M94704 13877
L93061 12234
" />
<path d="M101102 13877
L94704 13877
" />
<path d="M101994 14769
L101102 13877
" />
<path d="M72257 13986
L72257 12820
" />
<path d="M86338 11417
L88080 13159
" />
<path d="M73661 11417
L86338 11417
" />
<path d="M72257 12820
L73661 11417
" />
<path d="M69960 13978
L69968 13986
" />
<path d="M69968 13986
L72257 13986
" />
<path d="M88080 13159
L88080 13257
" />
<path d="M88080 13257
L88080 14261
" />
</g>
<g style="fill:#000000; fill-opacity:1.0; 
stroke:#000000; stroke-width:39.3701; stroke-opacity:1; 
stroke-linecap:round; stroke-linejoin:round;">
<polyline style="fill-rule:evenodd;"
points="80518,15530
77194,15530
77194,15530
77194,15530
76643,15530
76643,15530
76423,15574
76247,15609
75912,15833
75912,15833
75414,16331
75251,16574
75292,16372
75292,15020
76033,15020
76211,15139
76683,15233
77154,15139
77344,15012
78078,15012
78269,15139
78740,15233
79211,15139
79400,15013
80518,15015
80518,15530
" /> 
</g>
<g style="fill:#000000; fill-opacity:0.0; 
stroke:#000000; stroke-width:100; stroke-opacity:1; 
stroke-linecap:round; stroke-linejoin:round;">
<polyline fill="none;"
points="80518,15530
77194,15530
77194,15530
77194,15530
76643,15530
76643,15530
76423,15574
76247,15609
75912,15833
75912,15833
75414,16331
75251,16574
75292,16372
75292,15020
76033,15020
76211,15139
76683,15233
77154,15139
77344,15012
78078,15012
78269,15139
78740,15233
79211,15139
79400,15013
80518,15015
80518,15530
" /> 
</g>
<g style="fill:#000000; fill-opacity:1.0; 
stroke:#000000; stroke-width:39.3701; stroke-opacity:1; 
stroke-linecap:round; stroke-linejoin:round;">
<polyline style="fill-rule:evenodd;"
points="97446,36082
97288,36188
97022,36587
96928,37058
96928,37106
96945,37194
96730,37194
96063,36526
96063,33866
96853,33077
96928,33077
96928,33106
97022,33577
97025,33582
97022,33587
96928,34058
96928,34106
97022,34577
97025,34582
97022,34587
96928,35058
96928,35106
97022,35577
97288,35977
97446,36082
" /> 
</g>
<g style="fill:#000000; fill-opacity:0.0; 
stroke:#000000; stroke-width:100; stroke-opacity:1; 
stroke-linecap:round; stroke-linejoin:round;">
<polyline fill="none;"
points="97446,36082
97288,36188
97022,36587
96928,37058
96928,37106
96945,37194
96730,37194
96063,36526
96063,33866
96853,33077
96928,33077
96928,33106
97022,33577
97025,33582
97022,33587
96928,34058
96928,34106
97022,34577
97025,34582
97022,34587
96928,35058
96928,35106
97022,35577
97288,35977
97446,36082
" /> 
</g>
<g style="fill:#000000; fill-opacity:1.0; 
stroke:#000000; stroke-width:39.3701; stroke-opacity:1; 
stroke-linecap:round; stroke-linejoin:round;">
<polyline style="fill-rule:evenodd;"
points="98345,46202
97383,47164
94345,47164
94400,46885
94307,46414
94040,46015
93640,45748
93362,45693
93342,45591
97736,45591
98116,45515
98345,45362
98345,46202
" /> 
</g>
<g style="fill:#000000; fill-opacity:0.0; 
stroke:#000000; stroke-width:100; stroke-opacity:1; 
stroke-linecap:round; stroke-linejoin:round;">
<polyline fill="none;"
points="98345,46202
97383,47164
94345,47164
94400,46885
94307,46414
94040,46015
93640,45748
93362,45693
93342,45591
97736,45591
98116,45515
98345,45362
98345,46202
" /> 
</g>
<g style="fill:#000000; fill-opacity:1.0; 
stroke:#000000; stroke-width:39.3701; stroke-opacity:1; 
stroke-linecap:round; stroke-linejoin:round;">
<polyline style="fill-rule:evenodd;"
points="99703,16402
99542,16564
97337,16564
96607,15833
96271,15609
95875,15530
95875,15530
84865,15530
84898,15362
84805,14891
84785,14862
84805,14833
84898,14362
84805,13891
84538,13491
84138,13224
83878,13172
83667,13031
83271,12952
79403,12945
79211,12816
78740,12723
78269,12816
78078,12944
77344,12944
77154,12816
76683,12723
76211,12816
76009,12951
75053,12951
74706,12719
74257,12630
73824,12716
74089,12451
85910,12451
87046,13587
87046,13600
86919,13790
86825,14261
86919,14732
87186,15132
87585,15399
88056,15492
88104,15492
88575,15399
88975,15132
89242,14732
89335,14261
89242,13790
89114,13600
89114,13587
89434,13268
90499,13268
90315,13391
90049,13790
89955,14261
90049,14732
90315,15132
90715,15399
91186,15492
91234,15492
91705,15399
91988,15210
92270,15399
92741,15492
92789,15492
93260,15399
93660,15132
93927,14732
93955,14591
93973,14609
93973,14609
94308,14833
94308,14833
94704,14912
99678,14912
99600,15028
99507,15499
99507,15547
99600,16018
99703,16173
99703,16402
" /> 
</g>
<g style="fill:#000000; fill-opacity:0.0; 
stroke:#000000; stroke-width:100; stroke-opacity:1; 
stroke-linecap:round; stroke-linejoin:round;">
<polyline fill="none;"
points="99703,16402
99542,16564
97337,16564
96607,15833
96271,15609
95875,15530
95875,15530
84865,15530
84898,15362
84805,14891
84785,14862
84805,14833
84898,14362
84805,13891
84538,13491
84138,13224
83878,13172
83667,13031
83271,12952
79403,12945
79211,12816
78740,12723
78269,12816
78078,12944
77344,12944
77154,12816
76683,12723
76211,12816
76009,12951
75053,12951
74706,12719
74257,12630
73824,12716
74089,12451
85910,12451
87046,13587
87046,13600
86919,13790
86825,14261
86919,14732
87186,15132
87585,15399
88056,15492
88104,15492
88575,15399
88975,15132
89242,14732
89335,14261
89242,13790
89114,13600
89114,13587
89434,13268
90499,13268
90315,13391
90049,13790
89955,14261
90049,14732
90315,15132
90715,15399
91186,15492
91234,15492
91705,15399
91988,15210
92270,15399
92741,15492
92789,15492
93260,15399
93660,15132
93927,14732
93955,14591
93973,14609
93973,14609
94308,14833
94308,14833
94704,14912
99678,14912
99600,15028
99507,15499
99507,15547
99600,16018
99703,16173
99703,16402
" /> 
</g>
<g style="fill:#000000; fill-opacity:1.0; 
stroke:#000000; stroke-width:39.3701; stroke-opacity:1; 
stroke-linecap:round; stroke-linejoin:round;">
<polyline style="fill-rule:evenodd;"
points="100432,9784
100034,10182
99819,10505
99763,10785
99600,11028
99507,11499
99507,11533
99447,11494
98976,11400
98505,11494
98105,11760
97838,12160
97745,12631
97745,12679
97777,12843
95133,12843
93792,11502
93456,11278
93061,11199
93061,11200
89451,11200
89451,10540
86852,10540
86734,10461
86338,10383
86338,10383
73661,10383
73265,10461
72930,10685
72930,10685
71526,12089
71302,12425
71223,12820
71223,12820
71223,12951
70633,12951
70431,12816
69960,12723
69489,12816
69090,13083
68823,13483
68729,13954
68729,14002
68823,14473
68858,14526
67044,14526
67044,16949
67440,16949
67484,17170
67751,17569
68150,17836
68622,17930
69093,17836
69283,17709
73925,17709
73890,17885
73984,18356
74003,18385
73984,18414
73901,18827
73800,18827
73800,21250
76848,21250
76848,19884
77040,19756
77307,19356
77400,18885
77307,18414
77287,18385
77307,18356
77400,17885
77343,17599
77947,17599
77890,17885
77984,18356
78003,18385
77984,18414
77890,18885
77984,19356
78251,19756
78650,20023
79121,20116
79169,20116
79640,20023
80040,19756
80307,19356
80400,18885
80307,18414
80287,18385
80307,18356
80400,17885
80343,17599
80947,17599
80890,17885
80984,18356
81003,18385
80984,18414
80890,18885
80984,19356
81150,19606
81150,24125
80345,24930
71171,24930
71122,24920
71102,24920
70721,24996
70398,25211
69631,25979
69415,26302
69339,26683
69339,44478
69339,44576
69415,44957
69631,45280
70251,45900
70573,46116
70573,46116
70954,46191
72096,46191
72316,46338
72594,46394
72650,46672
72653,46677
72650,46681
72556,47153
72556,47201
72650,47672
72916,48071
73316,48338
73787,48432
74258,48338
74657,48071
74685,48030
75121,48116
75169,48116
75640,48023
75645,48020
75650,48023
76121,48116
76169,48116
76640,48023
77040,47756
77145,47598
77251,47756
77650,48023
78121,48116
78169,48116
78640,48023
78645,48020
78650,48023
79121,48116
79169,48116
79640,48023
80040,47756
80307,47356
80400,46885
80307,46414
80287,46385
80307,46356
80400,45885
80307,45414
80040,45015
79640,44748
79169,44654
79121,44654
78650,44748
78645,44751
78640,44748
78169,44654
78121,44654
77650,44748
77645,44751
77640,44748
77169,44654
77121,44654
76650,44748
76645,44751
76640,44748
76169,44654
76121,44654
75650,44748
75645,44751
75640,44748
75169,44654
75121,44654
74927,44693
74924,44681
74921,44677
74924,44672
75018,44201
75018,44153
74924,43681
74921,43677
74924,43672
75018,43201
75018,43153
74924,42681
74921,42677
74924,42672
75018,42201
75018,42153
74924,41681
74921,41677
74924,41672
75018,41201
75018,41153
74924,40681
74921,40677
74924,40672
75018,40201
75018,40153
74924,39681
74921,39677
74924,39672
75018,39201
75018,39153
74924,38681
74921,38677
74924,38672
75018,38201
75018,38153
74924,37681
74921,37677
74924,37672
75018,37201
75018,37153
74924,36681
74921,36677
74924,36672
75018,36201
75018,36153
74924,35681
74921,35677
74924,35672
75018,35201
75018,35153
74924,34681
74921,34677
74924,34672
75018,34201
75018,34153
74924,33681
74921,33677
74924,33672
75018,33201
75018,33153
74924,32681
74921,32677
74924,32672
75018,32201
75018,32153
74924,31681
74921,31677
74924,31672
75018,31201
75018,31153
74924,30681
74921,30677
74924,30672
75018,30201
75018,30153
74924,29681
74921,29677
74924,29672
75016,29211
95357,29211
95333,29328
95333,29376
95427,29847
95694,30247
96093,30513
96564,30607
97010,30518
97022,30577
97288,30977
97446,31082
97438,31087
96440,31087
96060,31163
95737,31379
94365,32751
94149,33073
94074,33454
94074,36938
94149,37319
94365,37642
95615,38892
95938,39108
96318,39183
97559,39183
97755,39183
97682,39257
97466,39579
97390,39960
97390,39980
97390,43505
97294,43601
87702,43601
87702,36890
87702,34467
83379,34467
83379,36890
87702,36890
87702,43601
84586,43601
83681,43601
82687,43601
82306,43677
81983,43892
81983,43892
81442,44434
81226,44757
81150,45137
81150,45165
80984,45414
80890,45885
80984,46356
81003,46385
80984,46414
80890,46885
80984,47356
81251,47756
81650,48023
82121,48116
82169,48116
82245,48101
82442,48396
82908,48862
83195,49054
65798,49054
65798,9784
100432,9784
" /> 
</g>
<g style="fill:#000000; fill-opacity:0.0; 
stroke:#000000; stroke-width:100; stroke-opacity:1; 
stroke-linecap:round; stroke-linejoin:round;">
<polyline fill="none;"
points="100432,9784
100034,10182
99819,10505
99763,10785
99600,11028
99507,11499
99507,11533
99447,11494
98976,11400
98505,11494
98105,11760
97838,12160
97745,12631
97745,12679
97777,12843
95133,12843
93792,11502
93456,11278
93061,11199
93061,11200
89451,11200
89451,10540
86852,10540
86734,10461
86338,10383
86338,10383
73661,10383
73265,10461
72930,10685
72930,10685
71526,12089
71302,12425
71223,12820
71223,12820
71223,12951
70633,12951
70431,12816
69960,12723
69489,12816
69090,13083
68823,13483
68729,13954
68729,14002
68823,14473
68858,14526
67044,14526
67044,16949
67440,16949
67484,17170
67751,17569
68150,17836
68622,17930
69093,17836
69283,17709
73925,17709
73890,17885
73984,18356
74003,18385
73984,18414
73901,18827
73800,18827
73800,21250
76848,21250
76848,19884
77040,19756
77307,19356
77400,18885
77307,18414
77287,18385
77307,18356
77400,17885
77343,17599
77947,17599
77890,17885
77984,18356
78003,18385
77984,18414
77890,18885
77984,19356
78251,19756
78650,20023
79121,20116
79169,20116
79640,20023
80040,19756
80307,19356
80400,18885
80307,18414
80287,18385
80307,18356
80400,17885
80343,17599
80947,17599
80890,17885
80984,18356
81003,18385
80984,18414
80890,18885
80984,19356
81150,19606
81150,24125
80345,24930
71171,24930
71122,24920
71102,24920
70721,24996
70398,25211
69631,25979
69415,26302
69339,26683
69339,44478
69339,44576
69415,44957
69631,45280
70251,45900
70573,46116
70573,46116
70954,46191
72096,46191
72316,46338
72594,46394
72650,46672
72653,46677
72650,46681
72556,47153
72556,47201
72650,47672
72916,48071
73316,48338
73787,48432
74258,48338
74657,48071
74685,48030
75121,48116
75169,48116
75640,48023
75645,48020
75650,48023
76121,48116
76169,48116
76640,48023
77040,47756
77145,47598
77251,47756
77650,48023
78121,48116
78169,48116
78640,48023
78645,48020
78650,48023
79121,48116
79169,48116
79640,48023
80040,47756
80307,47356
80400,46885
80307,46414
80287,46385
80307,46356
80400,45885
80307,45414
80040,45015
79640,44748
79169,44654
79121,44654
78650,44748
78645,44751
78640,44748
78169,44654
78121,44654
77650,44748
77645,44751
77640,44748
77169,44654
77121,44654
76650,44748
76645,44751
76640,44748
76169,44654
76121,44654
75650,44748
75645,44751
75640,44748
75169,44654
75121,44654
74927,44693
74924,44681
74921,44677
74924,44672
75018,44201
75018,44153
74924,43681
74921,43677
74924,43672
75018,43201
75018,43153
74924,42681
74921,42677
74924,42672
75018,42201
75018,42153
74924,41681
74921,41677
74924,41672
75018,41201
75018,41153
74924,40681
74921,40677
74924,40672
75018,40201
75018,40153
74924,39681
74921,39677
74924,39672
75018,39201
75018,39153
74924,38681
74921,38677
74924,38672
75018,38201
75018,38153
74924,37681
74921,37677
74924,37672
75018,37201
75018,37153
74924,36681
74921,36677
74924,36672
75018,36201
75018,36153
74924,35681
74921,35677
74924,35672
75018,35201
75018,35153
74924,34681
74921,34677
74924,34672
75018,34201
75018,34153
74924,33681
74921,33677
74924,33672
75018,33201
75018,33153
74924,32681
74921,32677
74924,32672
75018,32201
75018,32153
74924,31681
74921,31677
74924,31672
75018,31201
75018,31153
74924,30681
74921,30677
74924,30672
75018,30201
75018,30153
74924,29681
74921,29677
74924,29672
75016,29211
95357,29211
95333,29328
95333,29376
95427,29847
95694,30247
96093,30513
96564,30607
97010,30518
97022,30577
97288,30977
97446,31082
97438,31087
96440,31087
96060,31163
95737,31379
94365,32751
94149,33073
94074,33454
94074,36938
94149,37319
94365,37642
95615,38892
95938,39108
96318,39183
97559,39183
97755,39183
97682,39257
97466,39579
97390,39960
97390,39980
97390,43505
97294,43601
87702,43601
87702,36890
87702,34467
83379,34467
83379,36890
87702,36890
87702,43601
84586,43601
83681,43601
82687,43601
82306,43677
81983,43892
81983,43892
81442,44434
81226,44757
81150,45137
81150,45165
80984,45414
80890,45885
80984,46356
81003,46385
80984,46414
80890,46885
80984,47356
81251,47756
81650,48023
82121,48116
82169,48116
82245,48101
82442,48396
82908,48862
83195,49054
65798,49054
65798,9784
100432,9784
" /> 
</g>
<g style="fill:#000000; fill-opacity:1.0; 
stroke:#000000; stroke-width:39.3701; stroke-opacity:1; 
stroke-linecap:round; stroke-linejoin:round;">
<polyline style="fill-rule:evenodd;"
points="105068,49054
98212,49054
98498,48862
99665,47695
99916,48071
100316,48338
100787,48432
101258,48338
101657,48071
101924,47672
102018,47201
102018,47153
101924,46681
101921,46677
101924,46672
101980,46394
102258,46338
102657,46071
102924,45672
103018,45201
103018,45153
102924,44681
102921,44677
102924,44672
103018,44201
103018,44153
102924,43681
102657,43282
102258,43015
101980,42960
101924,42681
101921,42677
101924,42672
102018,42201
102018,42153
101924,41681
101921,41677
101924,41672
102018,41201
102018,41153
101924,40681
101921,40677
101924,40672
102018,40201
102018,40153
101924,39681
101921,39677
101924,39672
102018,39201
102018,39153
101924,38681
101921,38677
101924,38672
102018,38201
102018,38153
101924,37681
101921,37677
101924,37672
101980,37394
102258,37338
102657,37071
102924,36672
103018,36201
103018,36153
102924,35681
102921,35677
102924,35672
103018,35201
103018,35153
102924,34681
102921,34677
102924,34672
103018,34201
103018,34153
102924,33681
102921,33677
102924,33672
103018,33201
103018,33153
102924,32681
102921,32677
102924,32672
103018,32201
103018,32153
102924,31681
102921,31677
102924,31672
103018,31201
103018,31153
102924,30681
102921,30677
102924,30672
103018,30201
103018,30153
102924,29681
102657,29282
102500,29177
102657,29071
102924,28672
103018,28201
103018,28153
102924,27681
102657,27282
102258,27015
101787,26921
101316,27015
101287,27034
101258,27015
100787,26921
100316,27015
100296,27029
100296,26984
100573,26707
100877,26707
101402,26490
101804,26089
102022,25564
102022,24996
101805,24471
101589,24254
101589,23304
101804,23089
102022,22564
102022,21996
101805,21471
101404,21069
100879,20851
100311,20851
99786,21068
99384,21469
99166,21994
99166,22562
99383,23087
99599,23304
99599,24255
99384,24469
99166,24994
99166,25300
98597,25869
98382,26192
98306,26572
98306,27098
97962,27030
97491,27123
97137,27360
96929,27221
96533,27142
96533,27142
86862,27142
86862,26259
84377,26259
84377,27142
82699,27142
83849,25992
84064,25670
84064,25670
84140,25289
84140,20116
84150,20116
84150,21897
84226,22278
84442,22601
88015,26173
88337,26389
88718,26465
89596,26465
96238,26465
96487,26631
96958,26725
97429,26631
97829,26365
98096,25965
98189,25494
98189,25446
98096,24975
98092,24970
98096,24965
98189,24494
98189,24446
98096,23975
97973,23791
97973,23692
98115,23479
98209,23008
98209,22960
98115,22489
97848,22089
97449,21822
96978,21729
96507,21822
96107,22089
95840,22489
95747,22960
95747,23008
95840,23479
95983,23692
95983,23732
95821,23975
95727,24446
95727,24475
89596,24475
89130,24475
86140,21485
86140,20116
86169,20116
86640,20023
87040,19756
87307,19356
87400,18885
87307,18414
87287,18385
87307,18356
87400,17885
87343,17599
87947,17599
87890,17885
87984,18356
88003,18385
87984,18414
87890,18885
87984,19356
88251,19756
88650,20023
89121,20116
89169,20116
89640,20023
89645,20020
89650,20023
90121,20116
90169,20116
90640,20023
90645,20020
90650,20023
91121,20116
91169,20116
91640,20023
91645,20020
91650,20023
92121,20116
92169,20116
92640,20023
92645,20020
92650,20023
93121,20116
93169,20116
93640,20023
94040,19756
94307,19356
94400,18885
94307,18414
94040,18015
93640,17748
93362,17693
93343,17599
95447,17599
95944,18095
95944,18334
95840,18489
95747,18960
95747,19008
95840,19479
96107,19878
96507,20145
96978,20239
97449,20145
97848,19878
98115,19479
98209,19008
98209,18960
98144,18632
99542,18632
100087,19178
100129,19390
100396,19789
100796,20056
101267,20150
101315,20150
101786,20056
101791,20053
101796,20056
102267,20150
102315,20150
102786,20056
102940,19953
103551,19953
103551,19953
103551,19953
103946,19874
103946,19874
104282,19650
104562,19370
104900,19370
104900,19033
105068,18865
105068,49054
" /> 
</g>
<g style="fill:#000000; fill-opacity:0.0; 
stroke:#000000; stroke-width:100; stroke-opacity:1; 
stroke-linecap:round; stroke-linejoin:round;">
<polyline fill="none;"
points="105068,49054
98212,49054
98498,48862
99665,47695
99916,48071
100316,48338
100787,48432
101258,48338
101657,48071
101924,47672
102018,47201
102018,47153
101924,46681
101921,46677
101924,46672
101980,46394
102258,46338
102657,46071
102924,45672
103018,45201
103018,45153
102924,44681
102921,44677
102924,44672
103018,44201
103018,44153
102924,43681
102657,43282
102258,43015
101980,42960
101924,42681
101921,42677
101924,42672
102018,42201
102018,42153
101924,41681
101921,41677
101924,41672
102018,41201
102018,41153
101924,40681
101921,40677
101924,40672
102018,40201
102018,40153
101924,39681
101921,39677
101924,39672
102018,39201
102018,39153
101924,38681
101921,38677
101924,38672
102018,38201
102018,38153
101924,37681
101921,37677
101924,37672
101980,37394
102258,37338
102657,37071
102924,36672
103018,36201
103018,36153
102924,35681
102921,35677
102924,35672
103018,35201
103018,35153
102924,34681
102921,34677
102924,34672
103018,34201
103018,34153
102924,33681
102921,33677
102924,33672
103018,33201
103018,33153
102924,32681
102921,32677
102924,32672
103018,32201
103018,32153
102924,31681
102921,31677
102924,31672
103018,31201
103018,31153
102924,30681
102921,30677
102924,30672
103018,30201
103018,30153
102924,29681
102657,29282
102500,29177
102657,29071
102924,28672
103018,28201
103018,28153
102924,27681
102657,27282
102258,27015
101787,26921
101316,27015
101287,27034
101258,27015
100787,26921
100316,27015
100296,27029
100296,26984
100573,26707
100877,26707
101402,26490
101804,26089
102022,25564
102022,24996
101805,24471
101589,24254
101589,23304
101804,23089
102022,22564
102022,21996
101805,21471
101404,21069
100879,20851
100311,20851
99786,21068
99384,21469
99166,21994
99166,22562
99383,23087
99599,23304
99599,24255
99384,24469
99166,24994
99166,25300
98597,25869
98382,26192
98306,26572
98306,27098
97962,27030
97491,27123
97137,27360
96929,27221
96533,27142
96533,27142
86862,27142
86862,26259
84377,26259
84377,27142
82699,27142
83849,25992
84064,25670
84064,25670
84140,25289
84140,20116
84150,20116
84150,21897
84226,22278
84442,22601
88015,26173
88337,26389
88718,26465
89596,26465
96238,26465
96487,26631
96958,26725
97429,26631
97829,26365
98096,25965
98189,25494
98189,25446
98096,24975
98092,24970
98096,24965
98189,24494
98189,24446
98096,23975
97973,23791
97973,23692
98115,23479
98209,23008
98209,22960
98115,22489
97848,22089
97449,21822
96978,21729
96507,21822
96107,22089
95840,22489
95747,22960
95747,23008
95840,23479
95983,23692
95983,23732
95821,23975
95727,24446
95727,24475
89596,24475
89130,24475
86140,21485
86140,20116
86169,20116
86640,20023
87040,19756
87307,19356
87400,18885
87307,18414
87287,18385
87307,18356
87400,17885
87343,17599
87947,17599
87890,17885
87984,18356
88003,18385
87984,18414
87890,18885
87984,19356
88251,19756
88650,20023
89121,20116
89169,20116
89640,20023
89645,20020
89650,20023
90121,20116
90169,20116
90640,20023
90645,20020
90650,20023
91121,20116
91169,20116
91640,20023
91645,20020
91650,20023
92121,20116
92169,20116
92640,20023
92645,20020
92650,20023
93121,20116
93169,20116
93640,20023
94040,19756
94307,19356
94400,18885
94307,18414
94040,18015
93640,17748
93362,17693
93343,17599
95447,17599
95944,18095
95944,18334
95840,18489
95747,18960
95747,19008
95840,19479
96107,19878
96507,20145
96978,20239
97449,20145
97848,19878
98115,19479
98209,19008
98209,18960
98144,18632
99542,18632
100087,19178
100129,19390
100396,19789
100796,20056
101267,20150
101315,20150
101786,20056
101791,20053
101796,20056
102267,20150
102315,20150
102786,20056
102940,19953
103551,19953
103551,19953
103551,19953
103946,19874
103946,19874
104282,19650
104562,19370
104900,19370
104900,19033
105068,18865
105068,49054
" /> 
</g>
<g style="fill:#FFFFFF; fill-opacity:0.0; 
stroke:#FFFFFF; stroke-width:39.3701; stroke-opacity:1; 
stroke-linecap:round; stroke-linejoin:round;">
</g>
<g style="fill:#FFFFFF; fill-opacity:1.0; 
stroke:#FFFFFF; stroke-width:39.3701; stroke-opacity:1; 
stroke-linecap:round; stroke-linejoin:round;">
<circle cx="103238" cy="12769.7" r="118.11" /> 
<circle cx="103238" cy="13769.7" r="118.11" /> 
<circle cx="103238" cy="14769.7" r="118.11" /> 
<circle cx="91210.6" cy="14261.8" r="118.11" /> 
<circle cx="89655.5" cy="14261.8" r="118.11" /> 
<circle cx="92765.7" cy="14261.8" r="118.11" /> 
<circle cx="88080.7" cy="14261.8" r="118.11" /> 
<circle cx="103260" cy="10482.3" r="118.11" /> 
<circle cx="99259.8" cy="10482.3" r="118.11" /> 
<circle cx="96978.3" cy="18984.3" r="118.11" /> 
<circle cx="96978.3" cy="22984.3" r="118.11" /> 
<circle cx="100738" cy="15523.6" r="118.11" /> 
<circle cx="100738" cy="11523.6" r="118.11" /> 
<circle cx="68622" cy="16675.2" r="118.11" /> 
<circle cx="68622" cy="17675.2" r="118.11" /> 
<circle cx="98159.4" cy="30082.7" r="118.11" /> 
<circle cx="98159.4" cy="31082.7" r="118.11" /> 
<circle cx="98159.4" cy="32082.7" r="118.11" /> 
<circle cx="98159.4" cy="33082.7" r="118.11" /> 
<circle cx="98159.4" cy="34082.7" r="118.11" /> 
<circle cx="98159.4" cy="35082.7" r="118.11" /> 
<circle cx="98159.4" cy="36082.7" r="118.11" /> 
<circle cx="98159.4" cy="37082.7" r="118.11" /> 
<circle cx="75145.7" cy="46885.8" r="118.11" /> 
<circle cx="75145.7" cy="45885.8" r="118.11" /> 
<circle cx="76145.7" cy="46885.8" r="118.11" /> 
<circle cx="76145.7" cy="45885.8" r="118.11" /> 
<circle cx="77145.7" cy="46885.8" r="118.11" /> 
<circle cx="77145.7" cy="45885.8" r="118.11" /> 
<circle cx="78145.7" cy="46885.8" r="118.11" /> 
<circle cx="78145.7" cy="45885.8" r="118.11" /> 
<circle cx="79145.7" cy="46885.8" r="118.11" /> 
<circle cx="79145.7" cy="45885.8" r="118.11" /> 
<circle cx="80145.7" cy="46885.8" r="118.11" /> 
<circle cx="80145.7" cy="45885.8" r="118.11" /> 
<circle cx="81145.7" cy="46885.8" r="118.11" /> 
<circle cx="81145.7" cy="45885.8" r="118.11" /> 
<circle cx="82145.7" cy="46885.8" r="118.11" /> 
<circle cx="82145.7" cy="45885.8" r="118.11" /> 
<circle cx="83145.7" cy="46885.8" r="118.11" /> 
<circle cx="83145.7" cy="45885.8" r="118.11" /> 
<circle cx="84145.7" cy="46885.8" r="118.11" /> 
<circle cx="84145.7" cy="45885.8" r="118.11" /> 
<circle cx="85145.7" cy="46885.8" r="118.11" /> 
<circle cx="85145.7" cy="45885.8" r="118.11" /> 
<circle cx="86145.7" cy="46885.8" r="118.11" /> 
<circle cx="86145.7" cy="45885.8" r="118.11" /> 
<circle cx="87145.7" cy="46885.8" r="118.11" /> 
<circle cx="87145.7" cy="45885.8" r="118.11" /> 
<circle cx="88145.7" cy="46885.8" r="118.11" /> 
<circle cx="88145.7" cy="45885.8" r="118.11" /> 
<circle cx="89145.7" cy="46885.8" r="118.11" /> 
<circle cx="89145.7" cy="45885.8" r="118.11" /> 
<circle cx="90145.7" cy="46885.8" r="118.11" /> 
<circle cx="90145.7" cy="45885.8" r="118.11" /> 
<circle cx="91145.7" cy="46885.8" r="118.11" /> 
<circle cx="91145.7" cy="45885.8" r="118.11" /> 
<circle cx="92145.7" cy="46885.8" r="118.11" /> 
<circle cx="92145.7" cy="45885.8" r="118.11" /> 
<circle cx="93145.7" cy="46885.8" r="118.11" /> 
<circle cx="93145.7" cy="45885.8" r="118.11" /> 
<circle cx="94145.7" cy="46885.8" r="118.11" /> 
<circle cx="94145.7" cy="45885.8" r="118.11" /> 
<circle cx="75145.7" cy="18885.8" r="118.11" /> 
<circle cx="75145.7" cy="17885.8" r="118.11" /> 
<circle cx="76145.7" cy="18885.8" r="118.11" /> 
<circle cx="76145.7" cy="17885.8" r="118.11" /> 
<circle cx="77145.7" cy="18885.8" r="118.11" /> 
<circle cx="77145.7" cy="17885.8" r="118.11" /> 
<circle cx="78145.7" cy="18885.8" r="118.11" /> 
<circle cx="78145.7" cy="17885.8" r="118.11" /> 
<circle cx="79145.7" cy="18885.8" r="118.11" /> 
<circle cx="79145.7" cy="17885.8" r="118.11" /> 
<circle cx="80145.7" cy="18885.8" r="118.11" /> 
<circle cx="80145.7" cy="17885.8" r="118.11" /> 
<circle cx="81145.7" cy="18885.8" r="118.11" /> 
<circle cx="81145.7" cy="17885.8" r="118.11" /> 
<circle cx="82145.7" cy="18885.8" r="118.11" /> 
<circle cx="82145.7" cy="17885.8" r="118.11" /> 
<circle cx="83145.7" cy="18885.8" r="118.11" /> 
<circle cx="83145.7" cy="17885.8" r="118.11" /> 
<circle cx="84145.7" cy="18885.8" r="118.11" /> 
<circle cx="84145.7" cy="17885.8" r="118.11" /> 
<circle cx="85145.7" cy="18885.8" r="118.11" /> 
<circle cx="85145.7" cy="17885.8" r="118.11" /> 
<circle cx="86145.7" cy="18885.8" r="118.11" /> 
<circle cx="86145.7" cy="17885.8" r="118.11" /> 
<circle cx="87145.7" cy="18885.8" r="118.11" /> 
<circle cx="87145.7" cy="17885.8" r="118.11" /> 
<circle cx="88145.7" cy="18885.8" r="118.11" /> 
<circle cx="88145.7" cy="17885.8" r="118.11" /> 
<circle cx="89145.7" cy="18885.8" r="118.11" /> 
<circle cx="89145.7" cy="17885.8" r="118.11" /> 
<circle cx="90145.7" cy="18885.8" r="118.11" /> 
<circle cx="90145.7" cy="17885.8" r="118.11" /> 
<circle cx="91145.7" cy="18885.8" r="118.11" /> 
<circle cx="91145.7" cy="17885.8" r="118.11" /> 
<circle cx="92145.7" cy="18885.8" r="118.11" /> 
<circle cx="92145.7" cy="17885.8" r="118.11" /> 
<circle cx="93145.7" cy="18885.8" r="118.11" /> 
<circle cx="93145.7" cy="17885.8" r="118.11" /> 
<circle cx="94145.7" cy="18885.8" r="118.11" /> 
<circle cx="94145.7" cy="17885.8" r="118.11" /> 
<circle cx="100787" cy="28177.2" r="118.11" /> 
<circle cx="101787" cy="28177.2" r="118.11" /> 
<circle cx="100787" cy="29177.2" r="118.11" /> 
<circle cx="101787" cy="29177.2" r="118.11" /> 
<circle cx="100787" cy="30177.2" r="118.11" /> 
<circle cx="101787" cy="30177.2" r="118.11" /> 
<circle cx="100787" cy="31177.2" r="118.11" /> 
<circle cx="101787" cy="31177.2" r="118.11" /> 
<circle cx="100787" cy="32177.2" r="118.11" /> 
<circle cx="101787" cy="32177.2" r="118.11" /> 
<circle cx="100787" cy="33177.2" r="118.11" /> 
<circle cx="101787" cy="33177.2" r="118.11" /> 
<circle cx="100787" cy="34177.2" r="118.11" /> 
<circle cx="101787" cy="34177.2" r="118.11" /> 
<circle cx="100787" cy="35177.2" r="118.11" /> 
<circle cx="101787" cy="35177.2" r="118.11" /> 
<circle cx="100787" cy="36177.2" r="118.11" /> 
<circle cx="101787" cy="36177.2" r="118.11" /> 
<circle cx="100787" cy="37177.2" r="118.11" /> 
<circle cx="101787" cy="37177.2" r="118.11" /> 
<circle cx="100787" cy="38177.2" r="118.11" /> 
<circle cx="101787" cy="38177.2" r="118.11" /> 
<circle cx="100787" cy="39177.2" r="118.11" /> 
<circle cx="101787" cy="39177.2" r="118.11" /> 
<circle cx="100787" cy="40177.2" r="118.11" /> 
<circle cx="101787" cy="40177.2" r="118.11" /> 
<circle cx="100787" cy="41177.2" r="118.11" /> 
<circle cx="101787" cy="41177.2" r="118.11" /> 
<circle cx="100787" cy="42177.2" r="118.11" /> 
<circle cx="101787" cy="42177.2" r="118.11" /> 
<circle cx="100787" cy="43177.2" r="118.11" /> 
<circle cx="101787" cy="43177.2" r="118.11" /> 
<circle cx="100787" cy="44177.2" r="118.11" /> 
<circle cx="101787" cy="44177.2" r="118.11" /> 
<circle cx="100787" cy="45177.2" r="118.11" /> 
<circle cx="101787" cy="45177.2" r="118.11" /> 
<circle cx="100787" cy="46177.2" r="118.11" /> 
<circle cx="101787" cy="46177.2" r="118.11" /> 
<circle cx="100787" cy="47177.2" r="118.11" /> 
<circle cx="101787" cy="47177.2" r="118.11" /> 
<circle cx="72787.4" cy="28177.2" r="118.11" /> 
<circle cx="73787.4" cy="28177.2" r="118.11" /> 
<circle cx="72787.4" cy="29177.2" r="118.11" /> 
<circle cx="73787.4" cy="29177.2" r="118.11" /> 
<circle cx="72787.4" cy="30177.2" r="118.11" /> 
<circle cx="73787.4" cy="30177.2" r="118.11" /> 
<circle cx="72787.4" cy="31177.2" r="118.11" /> 
<circle cx="73787.4" cy="31177.2" r="118.11" /> 
<circle cx="72787.4" cy="32177.2" r="118.11" /> 
<circle cx="73787.4" cy="32177.2" r="118.11" /> 
<circle cx="72787.4" cy="33177.2" r="118.11" /> 
<circle cx="73787.4" cy="33177.2" r="118.11" /> 
<circle cx="72787.4" cy="34177.2" r="118.11" /> 
<circle cx="73787.4" cy="34177.2" r="118.11" /> 
<circle cx="72787.4" cy="35177.2" r="118.11" /> 
<circle cx="73787.4" cy="35177.2" r="118.11" /> 
<circle cx="72787.4" cy="36177.2" r="118.11" /> 
<circle cx="73787.4" cy="36177.2" r="118.11" /> 
<circle cx="72787.4" cy="37177.2" r="118.11" /> 
<circle cx="73787.4" cy="37177.2" r="118.11" /> 
<circle cx="72787.4" cy="38177.2" r="118.11" /> 
<circle cx="73787.4" cy="38177.2" r="118.11" /> 
<circle cx="72787.4" cy="39177.2" r="118.11" /> 
<circle cx="73787.4" cy="39177.2" r="118.11" /> 
<circle cx="72787.4" cy="40177.2" r="118.11" /> 
<circle cx="73787.4" cy="40177.2" r="118.11" /> 
<circle cx="72787.4" cy="41177.2" r="118.11" /> 
<circle cx="73787.4" cy="41177.2" r="118.11" /> 
<circle cx="72787.4" cy="42177.2" r="118.11" /> 
<circle cx="73787.4" cy="42177.2" r="118.11" /> 
<circle cx="72787.4" cy="43177.2" r="118.11" /> 
<circle cx="73787.4" cy="43177.2" r="118.11" /> 
<circle cx="72787.4" cy="44177.2" r="118.11" /> 
<circle cx="73787.4" cy="44177.2" r="118.11" /> 
<circle cx="72787.4" cy="45177.2" r="118.11" /> 
<circle cx="73787.4" cy="45177.2" r="118.11" /> 
<circle cx="72787.4" cy="46177.2" r="118.11" /> 
<circle cx="73787.4" cy="46177.2" r="118.11" /> 
<circle cx="72787.4" cy="47177.2" r="118.11" /> 
<circle cx="73787.4" cy="47177.2" r="118.11" /> 
<circle cx="72257.9" cy="13986.2" r="118.11" /> 
<circle cx="73257.9" cy="13986.2" r="118.11" /> 
<circle cx="74257.9" cy="13986.2" r="118.11" /> 
<circle cx="96958.7" cy="24470.5" r="118.11" /> 
<circle cx="96958.7" cy="25470.5" r="118.11" /> 
<circle cx="101811" cy="12665.4" r="118.11" /> 
<circle cx="101811" cy="11665.4" r="118.11" /> 
<circle cx="103089" cy="16456.7" r="118.11" /> 
<circle cx="102089" cy="16456.7" r="118.11" /> 
<circle cx="76683.1" cy="13978.3" r="118.11" /> 
<circle cx="76683.1" cy="14978.3" r="118.11" /> 
<circle cx="69960.6" cy="13978.3" r="118.11" /> 
<circle cx="69960.6" cy="14978.3" r="118.11" /> 
<circle cx="98976.4" cy="12655.5" r="118.11" /> 
<circle cx="98976.4" cy="11655.5" r="118.11" /> 
<circle cx="78740.2" cy="13978.3" r="118.11" /> 
<circle cx="78740.2" cy="14978.3" r="118.11" /> 
<circle cx="69655.5" cy="19566.9" r="118.11" /> 
<circle cx="78750" cy="20905.5" r="118.11" /> 
<circle cx="96299.2" cy="36072.8" r="118.11" /> 
<circle cx="97096.5" cy="46348.4" r="118.11" /> 
<circle cx="71023.6" cy="47116.1" r="118.11" /> 
<circle cx="103632" cy="46378" r="118.11" /> 
<circle cx="80098.4" cy="15226.4" r="118.11" /> 
<circle cx="94744.1" cy="20698.8" r="118.11" /> 
<circle cx="83643.7" cy="15362.2" r="118.11" /> 
<circle cx="83643.7" cy="14362.2" r="118.11" /> 
<circle cx="84643.7" cy="15362.2" r="118.11" /> 
<circle cx="84643.7" cy="14362.2" r="118.11" /> 
<circle cx="95442.9" cy="30974.4" r="118.11" /> 
<circle cx="96998" cy="10895.7" r="118.11" /> 
<circle cx="100594" cy="22279.5" r="118.11" /> 
<circle cx="102594" cy="22279.5" r="118.11" /> 
<circle cx="100594" cy="25279.5" r="118.11" /> 
<circle cx="102594" cy="25279.5" r="118.11" /> 
<circle cx="101291" cy="19919.3" r="118.11" /> 
<circle cx="101291" cy="18919.3" r="118.11" /> 
<circle cx="102291" cy="19919.3" r="118.11" /> 
<circle cx="102291" cy="18919.3" r="118.11" /> 
<circle cx="97962.6" cy="28285.4" r="118.11" /> 
<circle cx="97962.6" cy="27285.4" r="118.11" /> 
<circle cx="96565" cy="30352.4" r="118.11" /> 
<circle cx="96565" cy="29352.4" r="118.11" /> 
<circle cx="89685" cy="15049.2" r="118.11" /> 
</g> 
</svg>
