<?xml version="1.0" standalone="no"?>
 <!DOCTYPE svg PUBLIC "-//W3C//DTD SVG 1.1//EN" 
 "http://www.w3.org/Graphics/SVG/1.1/DTD/svg11.dtd"> 
<svg xmlns="http://www.w3.org/2000/svg" version="1.1" 
    width="29.7002cm" height="21.0007cm" viewBox="0 0 116930 82680 ">
<title>SVG Picture created as poncho_rescatAR-B_Cu.svg date 2015/12/10 14:08:55 </title>
  <desc>Picture generated by PCBNEW </desc>
<g style="fill:#000000; fill-opacity:1;stroke:#000000; stroke-opacity:1;
stroke-linecap:round; stroke-linejoin:round; "
 transform="translate(0 0) scale(1 1)">
</g>
<g style="fill:#000000; fill-opacity:0.0; 
stroke:#000000; stroke-width:98.4252; stroke-opacity:1; 
stroke-linecap:round; stroke-linejoin:round;">
<path d="M100305 18535
L100061 18535
L100193 18685
L100136 18685
L100099 18704
L100080 18722
L100061 18760
L100061 18854
L100080 18891
L100099 18910
L100136 18929
L100249 18929
L100286 18910
L100305 18891
" />
<path d="M99893 18891
L99874 18910
L99893 18929
L99911 18910
L99893 18891
L99893 18929
" />
<path d="M99649 18704
L99686 18685
L99705 18666
L99724 18629
L99724 18610
L99705 18572
L99686 18554
L99649 18535
L99574 18535
L99536 18554
L99518 18572
L99499 18610
L99499 18629
L99518 18666
L99536 18685
L99574 18704
L99649 18704
L99686 18722
L99705 18741
L99724 18779
L99724 18854
L99705 18891
L99686 18910
L99649 18929
L99574 18929
L99536 18910
L99518 18891
L99499 18854
L99499 18779
L99518 18741
L99536 18722
L99574 18704
" />
<path d="M99386 18535
L99255 18929
L99124 18535
" />
<path d="M82752 14657
L82939 14657
L82958 14844
L82939 14826
L82902 14807
L82808 14807
L82770 14826
L82752 14844
L82733 14882
L82733 14976
L82752 15013
L82770 15032
L82808 15051
L82902 15051
L82939 15032
L82958 15013
" />
<path d="M82620 14657
L82489 15051
L82358 14657
" />
<path d="M84451 27031
L84826 27031
L84863 27406
L84826 27368
L84751 27331
L84563 27331
L84488 27368
L84451 27406
L84413 27481
L84413 27668
L84451 27743
L84488 27781
L84563 27818
L84751 27818
L84826 27781
L84863 27743
" />
<path d="M84188 27031
L83926 27818
L83663 27031
" />
<path d="M88135 12198
L88585 12198
" />
<path d="M88360 12198
L88360 11411
L88435 11523
L88510 11598
L88585 11636
" />
<path d="M87835 11486
L87797 11448
L87722 11411
L87535 11411
L87460 11448
L87422 11486
L87385 11561
L87385 11636
L87422 11748
L87872 12198
L87385 12198
" />
<path d="M87160 11411
L86897 12198
L86635 11411
" />
<path d="M75905 19854
L75662 19854
L75793 20004
L75737 20004
L75699 20022
L75681 20041
L75662 20079
L75662 20172
L75681 20210
L75699 20229
L75737 20247
L75849 20247
L75887 20229
L75905 20210
" />
<path d="M75493 20210
L75474 20229
L75493 20247
L75512 20229
L75493 20210
L75493 20247
" />
<path d="M75249 20022
L75287 20004
L75306 19985
L75324 19947
L75324 19929
L75306 19891
L75287 19872
L75249 19854
L75174 19854
L75137 19872
L75118 19891
L75099 19929
L75099 19947
L75118 19985
L75137 20004
L75174 20022
L75249 20022
L75287 20041
L75306 20060
L75324 20097
L75324 20172
L75306 20210
L75287 20229
L75249 20247
L75174 20247
L75137 20229
L75118 20210
L75099 20172
L75099 20097
L75118 20060
L75137 20041
L75174 20022
" />
<path d="M74987 19854
L74856 20247
L74724 19854
" />
<path d="M66511 15690
L66699 15690
L66718 15878
L66699 15859
L66661 15840
L66568 15840
L66530 15859
L66511 15878
L66493 15915
L66493 16009
L66511 16047
L66530 16065
L66568 16084
L66661 16084
L66699 16065
L66718 16047
" />
<path d="M66380 15690
L66249 16084
L66118 15690
" />
<path d="M87549 35999
L87549 35553
" />
<path d="M87549 35680
L87517 35616
L87485 35584
L87421 35553
L87357 35553
" />
<path d="M86879 35967
L86943 35999
L87071 35999
L87134 35967
L87166 35903
L87166 35648
L87134 35584
L87071 35553
L86943 35553
L86879 35584
L86848 35648
L86848 35712
L87166 35776
" />
<path d="M86593 35967
L86529 35999
L86401 35999
L86338 35967
L86306 35903
L86306 35871
L86338 35808
L86401 35776
L86497 35776
L86561 35744
L86593 35680
L86593 35648
L86561 35584
L86497 35553
L86401 35553
L86338 35584
" />
<path d="M85732 35967
L85796 35999
L85923 35999
L85987 35967
L86019 35935
L86051 35871
L86051 35680
L86019 35616
L85987 35584
L85923 35553
L85796 35553
L85732 35584
" />
<path d="M85158 35999
L85158 35648
L85190 35584
L85254 35553
L85381 35553
L85445 35584
" />
<path d="M85158 35967
L85222 35999
L85381 35999
L85445 35967
L85477 35903
L85477 35839
L85445 35776
L85381 35744
L85222 35744
L85158 35712
" />
<path d="M84935 35553
L84680 35553
" />
<path d="M84840 35329
L84840 35903
L84808 35967
L84744 35999
L84680 35999
" />
<path d="M84489 35808
L84170 35808
" />
<path d="M84553 35999
L84330 35329
L84107 35999
" />
<path d="M83501 35999
L83724 35680
" />
<path d="M83884 35999
L83884 35329
L83629 35329
L83565 35361
L83533 35393
L83501 35457
L83501 35553
L83533 35616
L83565 35648
L83629 35680
L83884 35680
" />
</g>
<g style="fill:#000000; fill-opacity:0.0; 
stroke:#000000; stroke-width:669.291; stroke-opacity:1; 
stroke-linecap:round; stroke-linejoin:round;">
<path d="M101122 13104
L101437 13104
" />
<path d="M101122 14104
L101437 14104
" />
<path d="M101122 15104
L101437 15104
" />
</g>
<g style="fill:#000000; fill-opacity:0.0; 
stroke:#000000; stroke-width:787.402; stroke-opacity:1; 
stroke-linecap:round; stroke-linejoin:round;">
<path d="M92332 14379
L92332 14379
" />
<path d="M90777 14379
L90777 14379
" />
<path d="M93887 14379
L93887 14379
" />
<path d="M89202 14379
L89202 14379
" />
<path d="M101104 10423
L101104 10423
" />
<path d="M97104 10423
L97104 10423
" />
<path d="M96978 18984
L96978 18984
" />
<path d="M96978 22984
L96978 22984
" />
<path d="M98671 16409
L98671 16409
" />
<path d="M98671 12409
L98671 12409
" />
<path d="M68622 16675
L68622 16675
" />
<path d="M68622 17675
L68622 17675
" />
<path d="M98159 30082
L98159 30082
" />
<path d="M98159 31082
L98159 31082
" />
<path d="M98159 32082
L98159 32082
" />
<path d="M98159 33082
L98159 33082
" />
<path d="M98159 34082
L98159 34082
" />
<path d="M98159 35082
L98159 35082
" />
<path d="M98159 36082
L98159 36082
" />
<path d="M98159 37082
L98159 37082
" />
<path d="M75145 46885
L75145 46885
" />
<path d="M75145 45885
L75145 45885
" />
<path d="M76145 46885
L76145 46885
" />
<path d="M76145 45885
L76145 45885
" />
<path d="M77145 46885
L77145 46885
" />
<path d="M77145 45885
L77145 45885
" />
<path d="M78145 46885
L78145 46885
" />
<path d="M78145 45885
L78145 45885
" />
<path d="M79145 46885
L79145 46885
" />
<path d="M79145 45885
L79145 45885
" />
<path d="M80145 46885
L80145 46885
" />
<path d="M80145 45885
L80145 45885
" />
<path d="M81145 46885
L81145 46885
" />
<path d="M81145 45885
L81145 45885
" />
<path d="M82145 46885
L82145 46885
" />
<path d="M82145 45885
L82145 45885
" />
<path d="M83145 46885
L83145 46885
" />
<path d="M83145 45885
L83145 45885
" />
<path d="M84145 46885
L84145 46885
" />
<path d="M84145 45885
L84145 45885
" />
<path d="M85145 46885
L85145 46885
" />
<path d="M85145 45885
L85145 45885
" />
<path d="M86145 46885
L86145 46885
" />
<path d="M86145 45885
L86145 45885
" />
<path d="M87145 46885
L87145 46885
" />
<path d="M87145 45885
L87145 45885
" />
<path d="M88145 46885
L88145 46885
" />
<path d="M88145 45885
L88145 45885
" />
<path d="M89145 46885
L89145 46885
" />
<path d="M89145 45885
L89145 45885
" />
<path d="M90145 46885
L90145 46885
" />
<path d="M90145 45885
L90145 45885
" />
<path d="M91145 46885
L91145 46885
" />
<path d="M91145 45885
L91145 45885
" />
<path d="M92145 46885
L92145 46885
" />
<path d="M92145 45885
L92145 45885
" />
<path d="M93145 46885
L93145 46885
" />
<path d="M93145 45885
L93145 45885
" />
<path d="M94145 46885
L94145 46885
" />
<path d="M94145 45885
L94145 45885
" />
<path d="M75145 18885
L75145 18885
" />
<path d="M75145 17885
L75145 17885
" />
<path d="M76145 18885
L76145 18885
" />
<path d="M76145 17885
L76145 17885
" />
<path d="M77145 18885
L77145 18885
" />
<path d="M77145 17885
L77145 17885
" />
<path d="M78145 18885
L78145 18885
" />
<path d="M78145 17885
L78145 17885
" />
<path d="M79145 18885
L79145 18885
" />
<path d="M79145 17885
L79145 17885
" />
<path d="M80145 18885
L80145 18885
" />
<path d="M80145 17885
L80145 17885
" />
<path d="M81145 18885
L81145 18885
" />
<path d="M81145 17885
L81145 17885
" />
<path d="M82145 18885
L82145 18885
" />
<path d="M82145 17885
L82145 17885
" />
<path d="M83145 18885
L83145 18885
" />
<path d="M83145 17885
L83145 17885
" />
<path d="M84145 18885
L84145 18885
" />
<path d="M84145 17885
L84145 17885
" />
<path d="M85145 18885
L85145 18885
" />
<path d="M85145 17885
L85145 17885
" />
<path d="M86145 18885
L86145 18885
" />
<path d="M86145 17885
L86145 17885
" />
<path d="M87145 18885
L87145 18885
" />
<path d="M87145 17885
L87145 17885
" />
<path d="M88145 18885
L88145 18885
" />
<path d="M88145 17885
L88145 17885
" />
<path d="M89145 18885
L89145 18885
" />
<path d="M89145 17885
L89145 17885
" />
<path d="M90145 18885
L90145 18885
" />
<path d="M90145 17885
L90145 17885
" />
<path d="M91145 18885
L91145 18885
" />
<path d="M91145 17885
L91145 17885
" />
<path d="M92145 18885
L92145 18885
" />
<path d="M92145 17885
L92145 17885
" />
<path d="M93145 18885
L93145 18885
" />
<path d="M93145 17885
L93145 17885
" />
<path d="M94145 18885
L94145 18885
" />
<path d="M94145 17885
L94145 17885
" />
<path d="M100787 28177
L100787 28177
" />
<path d="M101787 28177
L101787 28177
" />
<path d="M100787 29177
L100787 29177
" />
<path d="M101787 29177
L101787 29177
" />
<path d="M100787 30177
L100787 30177
" />
<path d="M101787 30177
L101787 30177
" />
<path d="M100787 31177
L100787 31177
" />
<path d="M101787 31177
L101787 31177
" />
<path d="M100787 32177
L100787 32177
" />
<path d="M101787 32177
L101787 32177
" />
<path d="M100787 33177
L100787 33177
" />
<path d="M101787 33177
L101787 33177
" />
<path d="M100787 34177
L100787 34177
" />
<path d="M101787 34177
L101787 34177
" />
<path d="M100787 35177
L100787 35177
" />
<path d="M101787 35177
L101787 35177
" />
<path d="M100787 36177
L100787 36177
" />
<path d="M101787 36177
L101787 36177
" />
<path d="M100787 37177
L100787 37177
" />
<path d="M101787 37177
L101787 37177
" />
<path d="M100787 38177
L100787 38177
" />
<path d="M101787 38177
L101787 38177
" />
<path d="M100787 39177
L100787 39177
" />
<path d="M101787 39177
L101787 39177
" />
<path d="M100787 40177
L100787 40177
" />
<path d="M101787 40177
L101787 40177
" />
<path d="M100787 41177
L100787 41177
" />
<path d="M101787 41177
L101787 41177
" />
<path d="M100787 42177
L100787 42177
" />
<path d="M101787 42177
L101787 42177
" />
<path d="M100787 43177
L100787 43177
" />
<path d="M101787 43177
L101787 43177
" />
<path d="M100787 44177
L100787 44177
" />
<path d="M101787 44177
L101787 44177
" />
<path d="M100787 45177
L100787 45177
" />
<path d="M101787 45177
L101787 45177
" />
<path d="M100787 46177
L100787 46177
" />
<path d="M101787 46177
L101787 46177
" />
<path d="M100787 47177
L100787 47177
" />
<path d="M101787 47177
L101787 47177
" />
<path d="M72787 28177
L72787 28177
" />
<path d="M73787 28177
L73787 28177
" />
<path d="M72787 29177
L72787 29177
" />
<path d="M73787 29177
L73787 29177
" />
<path d="M72787 30177
L72787 30177
" />
<path d="M73787 30177
L73787 30177
" />
<path d="M72787 31177
L72787 31177
" />
<path d="M73787 31177
L73787 31177
" />
<path d="M72787 32177
L72787 32177
" />
<path d="M73787 32177
L73787 32177
" />
<path d="M72787 33177
L72787 33177
" />
<path d="M73787 33177
L73787 33177
" />
<path d="M72787 34177
L72787 34177
" />
<path d="M73787 34177
L73787 34177
" />
<path d="M72787 35177
L72787 35177
" />
<path d="M73787 35177
L73787 35177
" />
<path d="M72787 36177
L72787 36177
" />
<path d="M73787 36177
L73787 36177
" />
<path d="M72787 37177
L72787 37177
" />
<path d="M73787 37177
L73787 37177
" />
<path d="M72787 38177
L72787 38177
" />
<path d="M73787 38177
L73787 38177
" />
<path d="M72787 39177
L72787 39177
" />
<path d="M73787 39177
L73787 39177
" />
<path d="M72787 40177
L72787 40177
" />
<path d="M73787 40177
L73787 40177
" />
<path d="M72787 41177
L72787 41177
" />
<path d="M73787 41177
L73787 41177
" />
<path d="M72787 42177
L72787 42177
" />
<path d="M73787 42177
L73787 42177
" />
<path d="M72787 43177
L72787 43177
" />
<path d="M73787 43177
L73787 43177
" />
<path d="M72787 44177
L72787 44177
" />
<path d="M73787 44177
L73787 44177
" />
<path d="M72787 45177
L72787 45177
" />
<path d="M73787 45177
L73787 45177
" />
<path d="M72787 46177
L72787 46177
" />
<path d="M73787 46177
L73787 46177
" />
<path d="M72787 47177
L72787 47177
" />
<path d="M73787 47177
L73787 47177
" />
</g>
<g style="fill:#000000; fill-opacity:0.0; 
stroke:#000000; stroke-width:669.291; stroke-opacity:1; 
stroke-linecap:round; stroke-linejoin:round;">
<path d="M70289 14143
L70289 13828
" />
<path d="M71289 14143
L71289 13828
" />
<path d="M72289 14143
L72289 13828
" />
</g>
<g style="fill:#000000; fill-opacity:0.0; 
stroke:#000000; stroke-width:787.402; stroke-opacity:1; 
stroke-linecap:round; stroke-linejoin:round;">
<path d="M96958 24470
L96958 24470
" />
<path d="M96958 25470
L96958 25470
" />
<path d="M99852 13551
L99852 13551
" />
<path d="M99852 12551
L99852 12551
" />
<path d="M101100 16771
L101100 16771
" />
<path d="M100100 16771
L100100 16771
" />
<path d="M76683 13978
L76683 13978
" />
<path d="M76683 14978
L76683 14978
" />
<path d="M68750 13978
L68750 13978
" />
<path d="M68750 14978
L68750 14978
" />
<path d="M96820 12596
L96820 12596
" />
<path d="M96820 11596
L96820 11596
" />
<path d="M78740 13978
L78740 13978
" />
<path d="M78740 14978
L78740 14978
" />
<path d="M69655 19566
L69655 19566
" />
<path d="M78750 20905
L78750 20905
" />
<path d="M96535 36062
L96535 36062
" />
<path d="M97096 46348
L97096 46348
" />
<path d="M71023 47116
L71023 47116
" />
<path d="M103631 46377
L103631 46377
" />
<path d="M80098 15226
L80098 15226
" />
<path d="M94744 20698
L94744 20698
" />
<path d="M83643 15362
L83643 15362
" />
<path d="M83643 14362
L83643 14362
" />
<path d="M84643 15362
L84643 15362
" />
<path d="M84643 14362
L84643 14362
" />
<path d="M95442 30974
L95442 30974
" />
<path d="M95334 10639
L95334 10639
" />
</g>
<g style="fill:#000000; fill-opacity:0.0; 
stroke:#000000; stroke-width:39.3701; stroke-opacity:1; 
stroke-linecap:round; stroke-linejoin:round;">
</g>
<g style="fill:#000000; fill-opacity:1.0; 
stroke:#000000; stroke-width:39.3701; stroke-opacity:1; 
stroke-linecap:round; stroke-linejoin:round;">
<circle cx="100594" cy="22279.5" r="570.866" /> 
<circle cx="102594" cy="22279.5" r="570.866" /> 
<circle cx="100594" cy="25279.5" r="570.866" /> 
<circle cx="102594" cy="25279.5" r="570.866" /> 
</g>
<g style="fill:#000000; fill-opacity:1.0; 
stroke:#000000; stroke-width:787.402; stroke-opacity:1; 
stroke-linecap:round; stroke-linejoin:round;">
<path d="M98722 20716
L98722 20716
" />
<path d="M98722 19716
L98722 19716
" />
<path d="M99722 20716
L99722 20716
" />
<path d="M99722 19716
L99722 19716
" />
<path d="M97962 28285
L97962 28285
" />
<path d="M97962 27285
L97962 27285
" />
<path d="M96564 30352
L96564 30352
" />
<path d="M96564 29352
L96564 29352
" />
<path d="M90816 15236
L90816 15236
" />
</g>
<g style="fill:#000000; fill-opacity:1.0; 
stroke:#000000; stroke-width:39.3701; stroke-opacity:1; 
stroke-linecap:round; stroke-linejoin:round;">
<circle cx="102717" cy="10472.4" r="767.717" /> 
<circle cx="102717" cy="17559.1" r="767.717" /> 
<circle cx="84645.7" cy="11899.6" r="767.717" /> 
<circle cx="66929.1" cy="11899.6" r="767.717" /> 
</g>
<g style="fill:#000000; fill-opacity:1.0; 
stroke:#000000; stroke-width:787.402; stroke-opacity:1; 
stroke-linecap:round; stroke-linejoin:round;">
<path d="M72293 11840
L72293 11840
" />
<path d="M66889 14212
L66889 14212
" />
</g>
<g style="fill:#000000; fill-opacity:1.0; 
stroke:#000000; stroke-width:314.961; stroke-opacity:1; 
stroke-linecap:round; stroke-linejoin:round;">
<path d="M80757 25925
L82145 24537
" />
<path d="M82145 24537
L82145 18885
" />
<path d="M70334 44478
L70334 44576
" />
<path d="M72767 45196
L70954 45196
" />
<path d="M72787 45177
L72767 45196
" />
<path d="M70334 44576
L70954 45196
" />
<path d="M70334 44478
L70334 26683
" />
<path d="M70334 26683
L71102 25915
" />
<path d="M71122 25925
L80757 25925
" />
<path d="M71102 25915
L71122 25915
" />
<path d="M71122 25915
L71122 25925
" />
<path d="M81145 18885
L80257 19773
" />
<path d="M80257 19773
L79881 19773
" />
<path d="M78145 18885
L78061 18970
" />
<path d="M78061 18970
L78061 20216
" />
<path d="M66889 14212
L67655 14978
" />
<path d="M67655 14978
L68750 14978
" />
<path d="M76683 14978
L78740 14978
" />
<path d="M78740 14978
L79850 14978
" />
<path d="M79850 14978
L80098 15226
" />
<path d="M68750 14978
L69047 15275
" />
<path d="M69047 15275
L70944 15275
" />
<path d="M72293 11840
L72293 12185
" />
<path d="M72293 12185
L72687 12578
" />
<path d="M68622 17675
L69535 17675
" />
<path d="M69535 17675
L69852 17992
" />
<path d="M71289 13986
L71289 14931
" />
<path d="M71289 14931
L70944 15275
" />
<path d="M70944 15275
L70905 15275
" />
<path d="M99722 20716
L101031 20716
" />
<path d="M101031 20716
L102594 22279
" />
<path d="M71289 13986
L71289 12332
" />
<path d="M71289 12332
L71683 11938
" />
<path d="M90777 14379
L90777 15196
" />
<path d="M90777 15196
L90816 15236
" />
<path d="M84643 15362
L90690 15362
" />
<path d="M90690 15362
L90816 15236
" />
<path d="M84643 15362
L84643 14362
" />
<path d="M93145 45885
L93799 45885
" />
<path d="M93799 45885
L94145 45885
" />
<path d="M94145 45885
L94145 46885
" />
<path d="M80145 46885
L81145 45885
" />
<path d="M81145 45885
L80145 45885
" />
<path d="M80145 45885
L81145 46885
" />
<path d="M77145 46885
L77145 47706
" />
<path d="M77145 47706
L77047 47805
" />
<path d="M93145 17885
L94145 17885
" />
<path d="M94145 17885
L94145 18885
" />
<path d="M94145 18885
L94744 19484
" />
<path d="M94744 19484
L94744 20698
" />
<path d="M87145 17885
L87145 18885
" />
<path d="M87145 18885
L88145 18885
" />
<path d="M88145 18885
L88145 17885
" />
<path d="M88145 17885
L87145 17885
" />
<path d="M87145 17885
L88145 18885
" />
<path d="M88145 18885
L88145 19769
" />
<path d="M88145 19769
L89074 20698
" />
<path d="M89074 20698
L94744 20698
" />
<path d="M80145 17885
L81145 18885
" />
<path d="M81145 18885
L81145 17885
" />
<path d="M81145 17885
L80145 18885
" />
<path d="M80145 18885
L80145 19509
" />
<path d="M80145 19509
L79881 19773
" />
<path d="M79881 19773
L78750 20905
" />
<path d="M77145 17885
L78145 18885
" />
<path d="M78145 18885
L78145 17885
" />
<path d="M78145 17885
L77145 18885
" />
<path d="M77145 18885
L77145 19301
" />
<path d="M77145 19301
L78061 20216
" />
<path d="M78061 20216
L78750 20905
" />
<path d="M101787 47177
L101787 46177
" />
<path d="M101787 46177
L103431 46177
" />
<path d="M103431 46177
L103631 46377
" />
<path d="M94188 45885
L95188 45885
" />
<path d="M95188 45885
L95188 46885
" />
<path d="M95188 46885
L96559 46885
" />
<path d="M96559 46885
L97096 46348
" />
<path d="M72787 46177
L72787 47177
" />
<path d="M72787 47177
L71084 47177
" />
<path d="M71084 47177
L71023 47116
" />
<path d="M98159 31082
L98158 31083
" />
<path d="M98158 31083
L96988 31083
" />
<path d="M95442 30974
L95552 31083
" />
<path d="M95552 31083
L96988 31083
" />
<path d="M68622 17675
L68486 17675
" />
<path d="M68486 17675
L67736 18425
" />
<path d="M98159 36082
L97125 36082
" />
<path d="M97125 36082
L97027 35984
" />
<path d="M101787 37177
L102600 37177
" />
<path d="M102600 37177
L102883 37460
" />
<path d="M101787 38177
L102783 38177
" />
<path d="M102783 38177
L102883 38277
" />
<path d="M101787 39177
L102681 39177
" />
<path d="M102681 39177
L102726 39222
" />
<path d="M101787 40177
L102627 40177
" />
<path d="M102627 40177
L102637 40167
" />
<path d="M101787 41177
L102653 41177
" />
<path d="M102653 41177
L102814 41338
" />
<path d="M101787 42177
L103210 42177
" />
<path d="M103210 42177
L103228 42194
" />
<path d="M101787 43177
L102620 43177
" />
<path d="M102620 43177
L102992 42805
" />
<path d="M101787 29177
L103124 29177
" />
<path d="M103124 29177
L103139 29192
" />
<path d="M97559 38188
L96318 38188
" />
<path d="M96440 32082
L98159 32082
" />
<path d="M95068 33454
L96440 32082
" />
<path d="M95068 36938
L95068 33454
" />
<path d="M96318 38188
L95068 36938
" />
<path d="M100787 38177
L100775 38188
" />
<path d="M100775 38188
L97559 38188
" />
<path d="M98159 33082
L98929 33082
" />
<path d="M99903 37177
L100787 37177
" />
<path d="M99458 36732
L99903 37177
" />
<path d="M99458 33612
L99458 36732
" />
<path d="M98929 33082
L99458 33612
" />
<path d="M100594 25279
L100594 22279
" />
<path d="M99301 26572
L100594 25279
" />
<path d="M99301 28395
L99301 26572
" />
<path d="M100082 29177
L99301 28395
" />
<path d="M100787 29177
L100082 29177
" />
<path d="M83681 44596
L82687 44596
" />
<path d="M82145 45137
L82145 45885
" />
<path d="M82687 44596
L82145 45137
" />
<path d="M97736 44596
L97736 44566
" />
<path d="M97736 44566
L98385 43917
" />
<path d="M98385 39980
L98385 39960
" />
<path d="M98385 39960
L99124 39222
" />
<path d="M84586 44596
L83681 44596
" />
<path d="M100742 39222
L100787 39177
" />
<path d="M99124 39222
L100742 39222
" />
<path d="M98385 43917
L98385 39980
" />
<path d="M84586 44596
L97736 44596
" />
<path d="M83145 46885
L83145 47692
" />
<path d="M100088 40177
L100787 40177
" />
<path d="M99340 40925
L100088 40177
" />
<path d="M99340 46614
L99340 40925
" />
<path d="M97795 48159
L99340 46614
" />
<path d="M83612 48159
L97795 48159
" />
<path d="M83145 47692
L83612 48159
" />
<path d="M89596 25470
L88718 25470
" />
<path d="M85145 21897
L85145 18885
" />
<path d="M88718 25470
L85145 21897
" />
<path d="M96958 25470
L89596 25470
" />
</g>
<g style="fill:#000000; fill-opacity:1.0; 
stroke:#000000; stroke-width:393.701; stroke-opacity:1; 
stroke-linecap:round; stroke-linejoin:round;">
<path d="M101279 14104
L103759 14104
" />
<path d="M103167 19716
L99722 19716
" />
<path d="M104547 18336
L103167 19716
" />
<path d="M104547 14891
L104547 18336
" />
<path d="M103759 14104
L104547 14891
" />
<path d="M96820 12596
L97775 13551
" />
<path d="M97775 13551
L99852 13551
" />
<path d="M100405 14104
L101279 14104
" />
<path d="M99852 13551
L100405 14104
" />
<path d="M97332 17765
L98722 19155
" />
<path d="M98722 19155
L98722 19716
" />
<path d="M97500 17598
L97332 17765
" />
<path d="M97332 17765
L98671 16427
" />
<path d="M98671 16427
L98671 16409
" />
<path d="M97293 17598
L97500 17598
" />
<path d="M97096 17795
L97293 17598
" />
<path d="M96978 17913
L97096 17795
" />
<path d="M96978 18984
L96978 17913
" />
<path d="M95875 16564
L77194 16564
" />
<path d="M96909 17598
L96879 17568
" />
<path d="M96879 17568
L95875 16564
" />
<path d="M97293 17598
L96909 17598
" />
<path d="M75145 17885
L76145 18885
" />
<path d="M76145 18885
L76145 17446
" />
<path d="M76145 17446
L76145 17885
" />
<path d="M76145 17885
L75145 18885
" />
<path d="M77194 16564
L76643 16564
" />
<path d="M76145 17062
L76145 17885
" />
<path d="M76643 16564
L76145 17062
" />
<path d="M77194 16564
L77188 16570
" />
<path d="M99722 19716
L98722 19716
" />
<path d="M97962 28285
L97962 29885
" />
<path d="M97962 29885
L98159 30082
" />
<path d="M96564 29352
L96564 28208
" />
<path d="M96564 28208
L96533 28177
" />
<path d="M98159 30082
L98159 29803
" />
<path d="M96533 28177
L73787 28177
" />
<path d="M98159 29803
L96533 28177
" />
<path d="M72289 13986
L74257 13986
" />
<path d="M76683 13978
L78740 13978
" />
<path d="M74257 13986
L76675 13986
" />
<path d="M76675 13986
L76683 13978
" />
<path d="M68622 16675
L73954 16675
" />
<path d="M73954 16675
L74257 16372
" />
<path d="M78740 13978
L83269 13988
" />
<path d="M83269 13988
L83643 14362
" />
<path d="M83643 14362
L83643 15362
" />
<path d="M74257 16372
L74257 13986
" />
</g>
<g style="fill:#000000; fill-opacity:1.0; 
stroke:#000000; stroke-width:314.961; stroke-opacity:1; 
stroke-linecap:round; stroke-linejoin:round;">
<path d="M101104 10423
L101279 10598
" />
<path d="M101279 10598
L101279 13104
" />
<path d="M98671 12409
L98671 11368
" />
<path d="M99616 10423
L101104 10423
" />
<path d="M98671 11368
L99616 10423
" />
<path d="M96978 22984
L96978 24450
" />
<path d="M96978 24450
L96958 24470
" />
</g>
<g style="fill:#000000; fill-opacity:1.0; 
stroke:#000000; stroke-width:393.701; stroke-opacity:1; 
stroke-linecap:round; stroke-linejoin:round;">
<path d="M89202 13110
L89202 13070
" />
<path d="M89202 13070
L89857 12416
" />
<path d="M101279 15104
L97092 15104
" />
<path d="M97092 15104
L94438 12450
" />
<path d="M94438 12450
L89891 12450
" />
<path d="M89891 12450
L89857 12416
" />
<path d="M101100 16771
L101100 15283
" />
<path d="M101100 15283
L101279 15104
" />
<path d="M68750 13978
L70281 13978
" />
<path d="M70281 13978
L70281 11440
" />
<path d="M70281 11440
L71377 10344
" />
<path d="M71377 10344
L87785 10344
" />
<path d="M87785 10344
L89202 11761
" />
<path d="M89202 11761
L89202 13110
" />
<path d="M89202 13110
L89202 14379
" />
</g>
<g style="fill:#000000; fill-opacity:1.0; 
stroke:#000000; stroke-width:39.3701; stroke-opacity:1; 
stroke-linecap:round; stroke-linejoin:round;">
<polyline style="fill-rule:evenodd;"
points="67044,14359
67036,14359
67036,14367
66742,14367
66742,14359
66178,14359
66098,14486
66136,14578
66201,14664
65798,14664
65798,13066
66007,13276
66508,13484
66333,13586
66136,13846
66098,13938
66178,14065
66742,14065
66742,14057
67036,14057
67036,14065
67044,14065
67044,14359
" /> 
</g>
<g style="fill:#000000; fill-opacity:0.0; 
stroke:#000000; stroke-width:100; stroke-opacity:1; 
stroke-linecap:round; stroke-linejoin:round;">
<polyline fill="none;"
points="67044,14359
67036,14359
67036,14367
66742,14367
66742,14359
66178,14359
66098,14486
66136,14578
66201,14664
65798,14664
65798,13066
66007,13276
66508,13484
66333,13586
66136,13846
66098,13938
66178,14065
66742,14065
66742,14057
67036,14057
67036,14065
67044,14065
67044,14359
" /> 
</g>
<g style="fill:#000000; fill-opacity:1.0; 
stroke:#000000; stroke-width:39.3701; stroke-opacity:1; 
stroke-linecap:round; stroke-linejoin:round;">
<polyline style="fill-rule:evenodd;"
points="73223,15640
69283,15640
69258,15623
69376,15534
69541,15252
69463,15125
69587,15125
69587,15083
69840,15252
70289,15341
70737,15252
71118,14998
71289,14742
71460,14998
71840,15252
72289,15341
72737,15252
73085,15020
73223,15020
73223,15640
" /> 
</g>
<g style="fill:#000000; fill-opacity:0.0; 
stroke:#000000; stroke-width:100; stroke-opacity:1; 
stroke-linecap:round; stroke-linejoin:round;">
<polyline fill="none;"
points="73223,15640
69283,15640
69258,15623
69376,15534
69541,15252
69463,15125
69587,15125
69587,15083
69840,15252
70289,15341
70737,15252
71118,14998
71289,14742
71460,14998
71840,15252
72289,15341
72737,15252
73085,15020
73223,15020
73223,15640
" /> 
</g>
<g style="fill:#000000; fill-opacity:1.0; 
stroke:#000000; stroke-width:39.3701; stroke-opacity:1; 
stroke-linecap:round; stroke-linejoin:round;">
<polyline style="fill-rule:evenodd;"
points="81434,15530
80871,15530
80889,15500
80811,15373
80245,15373
80245,15381
79951,15381
79951,15373
79943,15373
79943,15079
79951,15079
79951,15071
80245,15071
80245,15079
80811,15079
80850,15016
81434,15017
81434,15530
" /> 
</g>
<g style="fill:#000000; fill-opacity:0.0; 
stroke:#000000; stroke-width:100; stroke-opacity:1; 
stroke-linecap:round; stroke-linejoin:round;">
<polyline fill="none;"
points="81434,15530
80871,15530
80889,15500
80811,15373
80245,15373
80245,15381
79951,15381
79951,15373
79943,15373
79943,15079
79951,15079
79951,15071
80245,15071
80245,15079
80811,15079
80850,15016
81434,15017
81434,15530
" /> 
</g>
<g style="fill:#000000; fill-opacity:1.0; 
stroke:#000000; stroke-width:39.3701; stroke-opacity:1; 
stroke-linecap:round; stroke-linejoin:round;">
<polyline style="fill-rule:evenodd;"
points="83195,49054
71814,49054
71814,47390
71814,46842
71776,46750
71579,46489
71297,46324
71170,46402
71170,46969
71735,46969
71814,46842
71814,47390
71735,47262
71170,47262
71170,47829
71297,47907
71579,47742
71776,47481
71814,47390
71814,49054
70876,49054
70876,47829
70876,47262
70876,46969
70876,46402
70749,46324
70467,46489
70270,46750
70232,46842
70312,46969
70876,46969
70876,47262
70312,47262
70232,47390
70270,47481
70467,47742
70749,47907
70876,47829
70876,49054
65798,49054
65798,17087
67468,17087
67484,17170
67751,17569
68128,17822
67908,17822
67830,17949
67995,18231
68256,18428
68348,18466
68475,18386
68475,17901
68622,17930
68768,17901
68768,18386
68896,18466
68987,18428
69248,18231
69413,17949
69335,17822
69459,17822
69459,17709
73925,17709
73890,17885
73984,18356
74003,18385
73984,18414
73901,18827
73800,18827
73800,21250
76848,21250
76848,19884
77040,19756
77292,19378
77292,19599
77419,19677
77645,19544
77871,19677
77998,19599
77998,19378
78251,19756
78650,20023
79121,20116
79169,20116
79640,20023
80040,19756
80292,19378
80292,19599
80419,19677
80645,19544
80871,19677
80998,19599
80998,19378
81150,19606
81150,24125
80345,24930
79541,24930
79541,21179
79541,20631
79376,20349
79115,20152
79024,20114
78896,20194
78896,20758
79463,20758
79541,20631
79541,21179
79463,21052
78896,21052
78896,21616
79024,21696
79115,21658
79376,21461
79541,21179
79541,24930
78603,24930
78603,21616
78603,21052
78603,20758
78603,20194
78475,20114
78384,20152
78123,20349
77958,20631
78036,20758
78603,20758
78603,21052
78036,21052
77958,21179
78123,21461
78384,21658
78475,21696
78603,21616
78603,24930
71171,24930
71122,24920
71102,24920
70721,24996
70446,25179
70446,19840
70446,19292
70281,19010
70021,18813
69929,18775
69802,18855
69802,19420
70369,19420
70446,19292
70446,19840
70369,19713
69802,19713
69802,20278
69929,20358
70021,20320
70281,20122
70446,19840
70446,25179
70398,25211
69631,25979
69508,26162
69508,20278
69508,19713
69508,19420
69508,18855
69381,18775
69289,18813
69029,19010
68864,19292
68942,19420
69508,19420
69508,19713
68942,19713
68864,19840
69029,20122
69289,20320
69381,20358
69508,20278
69508,26162
69415,26302
69339,26683
69339,44478
69339,44576
69415,44957
69631,45280
70251,45900
70573,46116
70573,46116
70954,46191
71950,46191
71950,46324
72073,46324
71996,46451
72128,46677
71996,46903
72073,47030
72580,47030
72556,47153
72556,47201
72580,47324
72073,47324
71996,47451
72161,47733
72421,47930
72513,47968
72640,47888
72640,47624
72650,47672
72916,48071
73316,48338
73787,48432
74258,48338
74657,48071
74685,48030
75121,48116
75169,48116
75640,48023
75645,48020
75650,48023
76121,48116
76169,48116
76640,48023
77040,47756
77145,47598
77251,47756
77650,48023
78121,48116
78169,48116
78640,48023
78645,48020
78650,48023
79121,48116
79169,48116
79640,48023
80040,47756
80292,47378
80292,47599
80419,47677
80645,47544
80871,47677
80998,47599
80998,47378
81251,47756
81650,48023
82121,48116
82169,48116
82245,48101
82442,48396
82908,48862
83195,49054
" /> 
</g>
<g style="fill:#000000; fill-opacity:0.0; 
stroke:#000000; stroke-width:100; stroke-opacity:1; 
stroke-linecap:round; stroke-linejoin:round;">
<polyline fill="none;"
points="83195,49054
71814,49054
71814,47390
71814,46842
71776,46750
71579,46489
71297,46324
71170,46402
71170,46969
71735,46969
71814,46842
71814,47390
71735,47262
71170,47262
71170,47829
71297,47907
71579,47742
71776,47481
71814,47390
71814,49054
70876,49054
70876,47829
70876,47262
70876,46969
70876,46402
70749,46324
70467,46489
70270,46750
70232,46842
70312,46969
70876,46969
70876,47262
70312,47262
70232,47390
70270,47481
70467,47742
70749,47907
70876,47829
70876,49054
65798,49054
65798,17087
67468,17087
67484,17170
67751,17569
68128,17822
67908,17822
67830,17949
67995,18231
68256,18428
68348,18466
68475,18386
68475,17901
68622,17930
68768,17901
68768,18386
68896,18466
68987,18428
69248,18231
69413,17949
69335,17822
69459,17822
69459,17709
73925,17709
73890,17885
73984,18356
74003,18385
73984,18414
73901,18827
73800,18827
73800,21250
76848,21250
76848,19884
77040,19756
77292,19378
77292,19599
77419,19677
77645,19544
77871,19677
77998,19599
77998,19378
78251,19756
78650,20023
79121,20116
79169,20116
79640,20023
80040,19756
80292,19378
80292,19599
80419,19677
80645,19544
80871,19677
80998,19599
80998,19378
81150,19606
81150,24125
80345,24930
79541,24930
79541,21179
79541,20631
79376,20349
79115,20152
79024,20114
78896,20194
78896,20758
79463,20758
79541,20631
79541,21179
79463,21052
78896,21052
78896,21616
79024,21696
79115,21658
79376,21461
79541,21179
79541,24930
78603,24930
78603,21616
78603,21052
78603,20758
78603,20194
78475,20114
78384,20152
78123,20349
77958,20631
78036,20758
78603,20758
78603,21052
78036,21052
77958,21179
78123,21461
78384,21658
78475,21696
78603,21616
78603,24930
71171,24930
71122,24920
71102,24920
70721,24996
70446,25179
70446,19840
70446,19292
70281,19010
70021,18813
69929,18775
69802,18855
69802,19420
70369,19420
70446,19292
70446,19840
70369,19713
69802,19713
69802,20278
69929,20358
70021,20320
70281,20122
70446,19840
70446,25179
70398,25211
69631,25979
69508,26162
69508,20278
69508,19713
69508,19420
69508,18855
69381,18775
69289,18813
69029,19010
68864,19292
68942,19420
69508,19420
69508,19713
68942,19713
68864,19840
69029,20122
69289,20320
69381,20358
69508,20278
69508,26162
69415,26302
69339,26683
69339,44478
69339,44576
69415,44957
69631,45280
70251,45900
70573,46116
70573,46116
70954,46191
71950,46191
71950,46324
72073,46324
71996,46451
72128,46677
71996,46903
72073,47030
72580,47030
72556,47153
72556,47201
72580,47324
72073,47324
71996,47451
72161,47733
72421,47930
72513,47968
72640,47888
72640,47624
72650,47672
72916,48071
73316,48338
73787,48432
74258,48338
74657,48071
74685,48030
75121,48116
75169,48116
75640,48023
75645,48020
75650,48023
76121,48116
76169,48116
76640,48023
77040,47756
77145,47598
77251,47756
77650,48023
78121,48116
78169,48116
78640,48023
78645,48020
78650,48023
79121,48116
79169,48116
79640,48023
80040,47756
80292,47378
80292,47599
80419,47677
80645,47544
80871,47677
80998,47599
80998,47378
81251,47756
81650,48023
82121,48116
82169,48116
82245,48101
82442,48396
82908,48862
83195,49054
" /> 
</g>
<g style="fill:#000000; fill-opacity:1.0; 
stroke:#000000; stroke-width:39.3701; stroke-opacity:1; 
stroke-linecap:round; stroke-linejoin:round;">
<polyline style="fill-rule:evenodd;"
points="83432,12984
83271,12952
79403,12945
79211,12816
78740,12723
78269,12816
78078,12944
77344,12944
77154,12816
76683,12723
76211,12816
76009,12951
74257,12951
73085,12951
73084,12951
72737,12719
72440,12660
72440,12554
72567,12631
72849,12466
73046,12206
73084,12114
73004,11987
72440,11987
72440,11995
72146,11995
72146,11987
71581,11987
71502,12114
71540,12206
71737,12466
72019,12631
72146,12554
72146,12659
71840,12719
71460,12973
71409,13050
71315,13050
71315,11869
71546,11638
71581,11693
72146,11693
72146,11685
72440,11685
72440,11693
73004,11693
73084,11566
73046,11474
72973,11378
83102,11378
83021,11574
83020,12221
83267,12818
83432,12984
" /> 
</g>
<g style="fill:#000000; fill-opacity:0.0; 
stroke:#000000; stroke-width:100; stroke-opacity:1; 
stroke-linecap:round; stroke-linejoin:round;">
<polyline fill="none;"
points="83432,12984
83271,12952
79403,12945
79211,12816
78740,12723
78269,12816
78078,12944
77344,12944
77154,12816
76683,12723
76211,12816
76009,12951
74257,12951
73085,12951
73084,12951
72737,12719
72440,12660
72440,12554
72567,12631
72849,12466
73046,12206
73084,12114
73004,11987
72440,11987
72440,11995
72146,11995
72146,11987
71581,11987
71502,12114
71540,12206
71737,12466
72019,12631
72146,12554
72146,12659
71840,12719
71460,12973
71409,13050
71315,13050
71315,11869
71546,11638
71581,11693
72146,11693
72146,11685
72440,11685
72440,11693
73004,11693
73084,11566
73046,11474
72973,11378
83102,11378
83021,11574
83020,12221
83267,12818
83432,12984
" /> 
</g>
<g style="fill:#000000; fill-opacity:1.0; 
stroke:#000000; stroke-width:39.3701; stroke-opacity:1; 
stroke-linecap:round; stroke-linejoin:round;">
<polyline style="fill-rule:evenodd;"
points="91474,13485
91438,13509
91291,13728
91051,13588
90924,13666
90924,14233
90932,14233
90932,14526
90924,14526
90924,15093
90971,15122
90971,15383
90963,15383
90963,15390
90670,15390
90670,15383
90662,15383
90662,15089
90670,15089
90670,14522
90622,14493
90622,14233
90630,14233
90630,13666
90503,13588
90249,13737
90237,13718
90237,13499
90251,13485
91474,13485
" /> 
</g>
<g style="fill:#000000; fill-opacity:0.0; 
stroke:#000000; stroke-width:100; stroke-opacity:1; 
stroke-linecap:round; stroke-linejoin:round;">
<polyline fill="none;"
points="91474,13485
91438,13509
91291,13728
91051,13588
90924,13666
90924,14233
90932,14233
90932,14526
90924,14526
90924,15093
90971,15122
90971,15383
90963,15383
90963,15390
90670,15390
90670,15383
90662,15383
90662,15089
90670,15089
90670,14522
90622,14493
90622,14233
90630,14233
90630,13666
90503,13588
90249,13737
90237,13718
90237,13499
90251,13485
91474,13485
" /> 
</g>
<g style="fill:#000000; fill-opacity:1.0; 
stroke:#000000; stroke-width:39.3701; stroke-opacity:1; 
stroke-linecap:round; stroke-linejoin:round;">
<polyline style="fill-rule:evenodd;"
points="97446,31082
97438,31087
96954,31087
97191,30908
97215,30867
97288,30977
97446,31082
" /> 
</g>
<g style="fill:#000000; fill-opacity:0.0; 
stroke:#000000; stroke-width:100; stroke-opacity:1; 
stroke-linecap:round; stroke-linejoin:round;">
<polyline fill="none;"
points="97446,31082
97438,31087
96954,31087
97191,30908
97215,30867
97288,30977
97446,31082
" /> 
</g>
<g style="fill:#000000; fill-opacity:1.0; 
stroke:#000000; stroke-width:39.3701; stroke-opacity:1; 
stroke-linecap:round; stroke-linejoin:round;">
<polyline style="fill-rule:evenodd;"
points="97446,36082
97288,36188
97260,36231
97246,36209
96682,36209
96682,36776
96809,36854
96990,36748
96928,37058
96928,37106
96945,37194
96730,37194
96341,36805
96388,36776
96388,36209
96380,36209
96380,35916
96388,35916
96388,35349
96261,35271
96063,35387
96063,33866
96853,33077
96928,33077
96928,33106
97022,33577
97025,33582
97022,33587
96928,34058
96928,34106
97022,34577
97025,34582
97022,34587
96928,35058
96928,35106
96981,35372
96809,35271
96682,35349
96682,35916
97246,35916
97247,35915
97288,35977
97446,36082
" /> 
</g>
<g style="fill:#000000; fill-opacity:0.0; 
stroke:#000000; stroke-width:100; stroke-opacity:1; 
stroke-linecap:round; stroke-linejoin:round;">
<polyline fill="none;"
points="97446,36082
97288,36188
97260,36231
97246,36209
96682,36209
96682,36776
96809,36854
96990,36748
96928,37058
96928,37106
96945,37194
96730,37194
96341,36805
96388,36776
96388,36209
96380,36209
96380,35916
96388,35916
96388,35349
96261,35271
96063,35387
96063,33866
96853,33077
96928,33077
96928,33106
97022,33577
97025,33582
97022,33587
96928,34058
96928,34106
97022,34577
97025,34582
97022,34587
96928,35058
96928,35106
96981,35372
96809,35271
96682,35349
96682,35916
97246,35916
97247,35915
97288,35977
97446,36082
" /> 
</g>
<g style="fill:#000000; fill-opacity:1.0; 
stroke:#000000; stroke-width:39.3701; stroke-opacity:1; 
stroke-linecap:round; stroke-linejoin:round;">
<polyline style="fill-rule:evenodd;"
points="97755,39183
97682,39257
97466,39579
97390,39960
97390,39980
97390,43505
97294,43601
88595,43601
88595,37083
88595,34274
82487,34274
82487,37083
88595,37083
88595,43601
84586,43601
83681,43601
82687,43601
82306,43677
81983,43892
81983,43892
81442,44434
81226,44757
81150,45137
81150,45165
80998,45392
80998,45172
80871,45094
80645,45226
80419,45094
80292,45172
80292,45392
80040,45015
79640,44748
79169,44654
79121,44654
78650,44748
78645,44751
78640,44748
78169,44654
78121,44654
77650,44748
77645,44751
77640,44748
77169,44654
77121,44654
76650,44748
76645,44751
76640,44748
76169,44654
76121,44654
75650,44748
75645,44751
75640,44748
75169,44654
75121,44654
74927,44693
74924,44681
74921,44677
74924,44672
75018,44201
75018,44153
74924,43681
74921,43677
74924,43672
75018,43201
75018,43153
74924,42681
74921,42677
74924,42672
75018,42201
75018,42153
74924,41681
74921,41677
74924,41672
75018,41201
75018,41153
74924,40681
74921,40677
74924,40672
75018,40201
75018,40153
74924,39681
74921,39677
74924,39672
75018,39201
75018,39153
74924,38681
74921,38677
74924,38672
75018,38201
75018,38153
74924,37681
74921,37677
74924,37672
75018,37201
75018,37153
74924,36681
74921,36677
74924,36672
75018,36201
75018,36153
74924,35681
74921,35677
74924,35672
75018,35201
75018,35153
74924,34681
74921,34677
74924,34672
75018,34201
75018,34153
74924,33681
74921,33677
74924,33672
75018,33201
75018,33153
74924,32681
74921,32677
74924,32672
75018,32201
75018,32153
74924,31681
74921,31677
74924,31672
75018,31201
75018,31153
74924,30681
74921,30677
74924,30672
75018,30201
75018,30153
74924,29681
74921,29677
74924,29672
75016,29211
95357,29211
95333,29328
95333,29376
95427,29847
95670,30211
95589,30260
95589,30827
95597,30827
95597,31121
95589,31121
95589,31129
95296,31129
95296,31121
95296,30827
95296,30260
95168,30183
94886,30348
94689,30608
94651,30700
94731,30827
95296,30827
95296,31121
94731,31121
94651,31248
94689,31340
94886,31600
95168,31765
95296,31687
95296,31811
95296,31811
95304,31811
95296,31820
94365,32751
94149,33073
94074,33454
94074,36938
94149,37319
94365,37642
95615,38892
95938,39108
96318,39183
97559,39183
97755,39183
" /> 
</g>
<g style="fill:#000000; fill-opacity:0.0; 
stroke:#000000; stroke-width:100; stroke-opacity:1; 
stroke-linecap:round; stroke-linejoin:round;">
<polyline fill="none;"
points="97755,39183
97682,39257
97466,39579
97390,39960
97390,39980
97390,43505
97294,43601
88595,43601
88595,37083
88595,34274
82487,34274
82487,37083
88595,37083
88595,43601
84586,43601
83681,43601
82687,43601
82306,43677
81983,43892
81983,43892
81442,44434
81226,44757
81150,45137
81150,45165
80998,45392
80998,45172
80871,45094
80645,45226
80419,45094
80292,45172
80292,45392
80040,45015
79640,44748
79169,44654
79121,44654
78650,44748
78645,44751
78640,44748
78169,44654
78121,44654
77650,44748
77645,44751
77640,44748
77169,44654
77121,44654
76650,44748
76645,44751
76640,44748
76169,44654
76121,44654
75650,44748
75645,44751
75640,44748
75169,44654
75121,44654
74927,44693
74924,44681
74921,44677
74924,44672
75018,44201
75018,44153
74924,43681
74921,43677
74924,43672
75018,43201
75018,43153
74924,42681
74921,42677
74924,42672
75018,42201
75018,42153
74924,41681
74921,41677
74924,41672
75018,41201
75018,41153
74924,40681
74921,40677
74924,40672
75018,40201
75018,40153
74924,39681
74921,39677
74924,39672
75018,39201
75018,39153
74924,38681
74921,38677
74924,38672
75018,38201
75018,38153
74924,37681
74921,37677
74924,37672
75018,37201
75018,37153
74924,36681
74921,36677
74924,36672
75018,36201
75018,36153
74924,35681
74921,35677
74924,35672
75018,35201
75018,35153
74924,34681
74921,34677
74924,34672
75018,34201
75018,34153
74924,33681
74921,33677
74924,33672
75018,33201
75018,33153
74924,32681
74921,32677
74924,32672
75018,32201
75018,32153
74924,31681
74921,31677
74924,31672
75018,31201
75018,31153
74924,30681
74921,30677
74924,30672
75018,30201
75018,30153
74924,29681
74921,29677
74924,29672
75016,29211
95357,29211
95333,29328
95333,29376
95427,29847
95670,30211
95589,30260
95589,30827
95597,30827
95597,31121
95589,31121
95589,31129
95296,31129
95296,31121
95296,30827
95296,30260
95168,30183
94886,30348
94689,30608
94651,30700
94731,30827
95296,30827
95296,31121
94731,31121
94651,31248
94689,31340
94886,31600
95168,31765
95296,31687
95296,31811
95296,31811
95304,31811
95296,31820
94365,32751
94149,33073
94074,33454
94074,36938
94149,37319
94365,37642
95615,38892
95938,39108
96318,39183
97559,39183
97755,39183
" /> 
</g>
<g style="fill:#000000; fill-opacity:1.0; 
stroke:#000000; stroke-width:39.3701; stroke-opacity:1; 
stroke-linecap:round; stroke-linejoin:round;">
<polyline style="fill-rule:evenodd;"
points="98345,46202
97861,46686
97887,46622
97807,46495
97243,46495
97243,46503
96949,46503
96949,46495
96384,46495
96305,46622
96343,46714
96540,46974
96822,47139
96949,47061
96949,47164
94935,47164
94936,47159
94857,47032
94371,47032
94400,46885
94371,46738
94857,46738
94936,46611
94898,46520
94797,46385
94898,46251
94936,46159
94857,46032
94292,46032
94292,46040
94057,46040
94040,46015
93990,45982
93990,45738
93998,45738
93998,45731
94292,45731
94292,45738
94857,45738
94936,45611
94928,45591
96763,45591
96540,45722
96343,45982
96305,46074
96384,46201
96949,46201
96949,46193
97243,46193
97243,46201
97807,46201
97887,46074
97849,45982
97652,45722
97428,45591
97736,45591
98116,45515
98345,45362
98345,46202
" /> 
</g>
<g style="fill:#000000; fill-opacity:0.0; 
stroke:#000000; stroke-width:100; stroke-opacity:1; 
stroke-linecap:round; stroke-linejoin:round;">
<polyline fill="none;"
points="98345,46202
97861,46686
97887,46622
97807,46495
97243,46495
97243,46503
96949,46503
96949,46495
96384,46495
96305,46622
96343,46714
96540,46974
96822,47139
96949,47061
96949,47164
94935,47164
94936,47159
94857,47032
94371,47032
94400,46885
94371,46738
94857,46738
94936,46611
94898,46520
94797,46385
94898,46251
94936,46159
94857,46032
94292,46032
94292,46040
94057,46040
94040,46015
93990,45982
93990,45738
93998,45738
93998,45731
94292,45731
94292,45738
94857,45738
94936,45611
94928,45591
96763,45591
96540,45722
96343,45982
96305,46074
96384,46201
96949,46201
96949,46193
97243,46193
97243,46201
97807,46201
97887,46074
97849,45982
97652,45722
97428,45591
97736,45591
98116,45515
98345,45362
98345,46202
" /> 
</g>
<g style="fill:#000000; fill-opacity:1.0; 
stroke:#000000; stroke-width:39.3701; stroke-opacity:1; 
stroke-linecap:round; stroke-linejoin:round;">
<polyline style="fill-rule:evenodd;"
points="98848,9784
97967,10664
97752,10987
97676,11368
97676,11691
97313,11449
97534,11449
97612,11322
97505,11140
97660,11049
97857,10789
97895,10697
97815,10570
97251,10570
97251,10577
96957,10577
96957,10570
96392,10570
96313,10697
96351,10789
96415,10873
96194,11040
96125,11157
96125,10913
96125,10365
96087,10273
95890,10013
95608,9848
95481,9926
95481,10492
96046,10492
96125,10365
96125,10913
96046,10786
95481,10786
95481,11353
95608,11431
95890,11265
96087,11005
96125,10913
96125,11157
96029,11322
96107,11449
96327,11449
95950,11701
95683,12101
95661,12210
95187,11736
95187,11353
95187,10786
95187,10492
95187,9926
95060,9848
94778,10013
94581,10273
94543,10365
94623,10492
95187,10492
95187,10786
94623,10786
94543,10913
94581,11005
94778,11265
95060,11431
95187,11353
95187,11736
95170,11719
94834,11495
94438,11416
94438,11416
90168,11416
90158,11366
90158,11366
90101,11281
89934,11030
89934,11030
89621,10718
89621,10343
89247,10343
88687,9784
96570,9784
96548,9797
96351,10057
96313,10149
96392,10276
96957,10276
96957,10268
97251,10268
97251,10276
97815,10276
97895,10149
97857,10057
97660,9797
97638,9784
98848,9784
" /> 
</g>
<g style="fill:#000000; fill-opacity:0.0; 
stroke:#000000; stroke-width:100; stroke-opacity:1; 
stroke-linecap:round; stroke-linejoin:round;">
<polyline fill="none;"
points="98848,9784
97967,10664
97752,10987
97676,11368
97676,11691
97313,11449
97534,11449
97612,11322
97505,11140
97660,11049
97857,10789
97895,10697
97815,10570
97251,10570
97251,10577
96957,10577
96957,10570
96392,10570
96313,10697
96351,10789
96415,10873
96194,11040
96125,11157
96125,10913
96125,10365
96087,10273
95890,10013
95608,9848
95481,9926
95481,10492
96046,10492
96125,10365
96125,10913
96046,10786
95481,10786
95481,11353
95608,11431
95890,11265
96087,11005
96125,10913
96125,11157
96029,11322
96107,11449
96327,11449
95950,11701
95683,12101
95661,12210
95187,11736
95187,11353
95187,10786
95187,10492
95187,9926
95060,9848
94778,10013
94581,10273
94543,10365
94623,10492
95187,10492
95187,10786
94623,10786
94543,10913
94581,11005
94778,11265
95060,11431
95187,11353
95187,11736
95170,11719
94834,11495
94438,11416
94438,11416
90168,11416
90158,11366
90158,11366
90101,11281
89934,11030
89934,11030
89621,10718
89621,10343
89247,10343
88687,9784
96570,9784
96548,9797
96351,10057
96313,10149
96392,10276
96957,10276
96957,10268
97251,10268
97251,10276
97815,10276
97895,10149
97857,10057
97660,9797
97638,9784
98848,9784
" /> 
</g>
<g style="fill:#000000; fill-opacity:1.0; 
stroke:#000000; stroke-width:39.3701; stroke-opacity:1; 
stroke-linecap:round; stroke-linejoin:round;">
<polyline style="fill-rule:evenodd;"
points="99599,24255
99384,24469
99166,24994
99166,25300
98597,25869
98382,26192
98315,26526
98236,26494
98109,26573
98109,27059
97962,27030
97815,27059
97815,26573
97688,26494
97596,26532
97336,26729
97297,26795
97297,26658
97429,26631
97829,26365
98096,25965
98189,25494
98189,25446
98096,24975
98092,24970
98096,24965
98189,24494
98189,24446
98096,23975
97973,23791
97973,23692
98115,23479
98209,23008
98209,22960
98115,22489
97848,22089
97449,21822
96978,21729
96507,21822
96107,22089
95840,22489
95747,22960
95747,23008
95840,23479
95983,23692
95983,23732
95821,23975
95727,24446
95727,24475
95535,24475
95535,20972
95535,20424
95370,20142
95109,19945
95018,19907
94890,19987
94890,20551
95457,20551
95535,20424
95535,20972
95457,20845
94890,20845
94890,21410
95018,21490
95109,21452
95370,21254
95535,20972
95535,24475
94597,24475
94597,21410
94597,20845
94597,20551
94597,19987
94470,19907
94378,19945
94117,20142
93952,20424
94030,20551
94597,20551
94597,20845
94030,20845
93952,20972
94117,21254
94378,21452
94470,21490
94597,21410
94597,24475
89596,24475
89130,24475
86140,21485
86140,20116
86169,20116
86640,20023
87040,19756
87292,19378
87292,19599
87419,19677
87645,19544
87871,19677
87998,19599
87998,19378
88251,19756
88650,20023
89121,20116
89169,20116
89640,20023
89645,20020
89650,20023
90121,20116
90169,20116
90640,20023
90645,20020
90650,20023
91121,20116
91169,20116
91640,20023
91645,20020
91650,20023
92121,20116
92169,20116
92640,20023
92645,20020
92650,20023
93121,20116
93169,20116
93640,20023
94040,19756
94292,19378
94292,19599
94419,19677
94701,19512
94898,19251
94936,19159
94857,19032
94371,19032
94400,18885
94371,18738
94857,18738
94936,18611
94898,18520
94797,18385
94898,18251
94936,18159
94857,18032
94292,18032
94292,18040
94057,18040
94040,18015
93990,17982
93990,17738
93998,17738
93998,17731
94292,17731
94292,17738
94857,17738
94936,17611
94931,17599
95447,17599
95944,18095
95944,18334
95840,18489
95747,18960
95747,19008
95840,19479
96107,19878
96507,20145
96978,20239
97449,20145
97540,20084
97560,20187
97827,20587
98227,20853
98274,20863
98010,20863
97931,20990
97969,21082
98166,21342
98448,21507
98575,21430
98575,20923
98698,20947
98746,20947
98869,20923
98869,21430
98996,21507
99222,21375
99384,21470
99166,21994
99166,22562
99383,23087
99599,23304
99599,24255
" /> 
</g>
<g style="fill:#000000; fill-opacity:0.0; 
stroke:#000000; stroke-width:100; stroke-opacity:1; 
stroke-linecap:round; stroke-linejoin:round;">
<polyline fill="none;"
points="99599,24255
99384,24469
99166,24994
99166,25300
98597,25869
98382,26192
98315,26526
98236,26494
98109,26573
98109,27059
97962,27030
97815,27059
97815,26573
97688,26494
97596,26532
97336,26729
97297,26795
97297,26658
97429,26631
97829,26365
98096,25965
98189,25494
98189,25446
98096,24975
98092,24970
98096,24965
98189,24494
98189,24446
98096,23975
97973,23791
97973,23692
98115,23479
98209,23008
98209,22960
98115,22489
97848,22089
97449,21822
96978,21729
96507,21822
96107,22089
95840,22489
95747,22960
95747,23008
95840,23479
95983,23692
95983,23732
95821,23975
95727,24446
95727,24475
95535,24475
95535,20972
95535,20424
95370,20142
95109,19945
95018,19907
94890,19987
94890,20551
95457,20551
95535,20424
95535,20972
95457,20845
94890,20845
94890,21410
95018,21490
95109,21452
95370,21254
95535,20972
95535,24475
94597,24475
94597,21410
94597,20845
94597,20551
94597,19987
94470,19907
94378,19945
94117,20142
93952,20424
94030,20551
94597,20551
94597,20845
94030,20845
93952,20972
94117,21254
94378,21452
94470,21490
94597,21410
94597,24475
89596,24475
89130,24475
86140,21485
86140,20116
86169,20116
86640,20023
87040,19756
87292,19378
87292,19599
87419,19677
87645,19544
87871,19677
87998,19599
87998,19378
88251,19756
88650,20023
89121,20116
89169,20116
89640,20023
89645,20020
89650,20023
90121,20116
90169,20116
90640,20023
90645,20020
90650,20023
91121,20116
91169,20116
91640,20023
91645,20020
91650,20023
92121,20116
92169,20116
92640,20023
92645,20020
92650,20023
93121,20116
93169,20116
93640,20023
94040,19756
94292,19378
94292,19599
94419,19677
94701,19512
94898,19251
94936,19159
94857,19032
94371,19032
94400,18885
94371,18738
94857,18738
94936,18611
94898,18520
94797,18385
94898,18251
94936,18159
94857,18032
94292,18032
94292,18040
94057,18040
94040,18015
93990,17982
93990,17738
93998,17738
93998,17731
94292,17731
94292,17738
94857,17738
94936,17611
94931,17599
95447,17599
95944,18095
95944,18334
95840,18489
95747,18960
95747,19008
95840,19479
96107,19878
96507,20145
96978,20239
97449,20145
97540,20084
97560,20187
97827,20587
98227,20853
98274,20863
98010,20863
97931,20990
97969,21082
98166,21342
98448,21507
98575,21430
98575,20923
98698,20947
98746,20947
98869,20923
98869,21430
98996,21507
99222,21375
99384,21470
99166,21994
99166,22562
99383,23087
99599,23304
99599,24255
" /> 
</g>
<g style="fill:#000000; fill-opacity:1.0; 
stroke:#000000; stroke-width:39.3701; stroke-opacity:1; 
stroke-linecap:round; stroke-linejoin:round;">
<polyline style="fill-rule:evenodd;"
points="105068,49054
104423,49054
104423,46651
104423,46103
104385,46012
104187,45751
103905,45586
103778,45664
103778,46231
104343,46231
104423,46103
104423,46651
104343,46524
103778,46524
103778,47091
103905,47169
104187,47004
104385,46743
104423,46651
104423,49054
103644,49054
103644,25380
103644,22380
103602,21971
103525,21784
103357,21724
103149,21931
103149,21516
103089,21348
102695,21229
102286,21271
102099,21348
102039,21516
102594,22071
103149,21516
103149,21931
102802,22279
103357,22834
103525,22774
103644,22380
103644,25380
103602,24971
103525,24784
103357,24724
103149,24931
103149,24516
103149,23042
102594,22487
102039,23042
102099,23210
102493,23329
102902,23287
103089,23210
103149,23042
103149,24516
103089,24348
102695,24229
102286,24271
102099,24348
102039,24516
102594,25071
103149,24516
103149,24931
102802,25279
103357,25834
103525,25774
103644,25380
103644,49054
103485,49054
103485,47091
103485,46524
103485,46231
103485,45664
103357,45586
103149,45708
103149,26042
102594,25487
102039,26042
102099,26210
102493,26329
102902,26287
103089,26210
103149,26042
103149,45708
103075,45751
102878,46012
102840,46103
102920,46231
103485,46231
103485,46524
102920,46524
102840,46651
102878,46743
103075,47004
103357,47169
103485,47091
103485,49054
98212,49054
98498,48862
99665,47695
99916,48071
100316,48338
100787,48432
101258,48338
101657,48071
101924,47672
101934,47624
101934,47888
102061,47968
102153,47930
102413,47733
102578,47451
102500,47324
101994,47324
102018,47201
102018,47153
101994,47030
102500,47030
102578,46903
102446,46677
102578,46451
102500,46324
102280,46324
102657,46071
102924,45672
103018,45201
103018,45153
102924,44681
102921,44677
102924,44672
103018,44201
103018,44153
102924,43681
102657,43282
102280,43030
102500,43030
102578,42903
102446,42677
102578,42451
102500,42324
101994,42324
102018,42201
102018,42153
101994,42030
102500,42030
102578,41903
102446,41677
102578,41451
102500,41324
101994,41324
102018,41201
102018,41153
101994,41030
102500,41030
102578,40903
102446,40677
102578,40451
102500,40324
101994,40324
102018,40201
102018,40153
101994,40030
102500,40030
102578,39903
102446,39677
102578,39451
102500,39324
101994,39324
102018,39201
102018,39153
101994,39030
102500,39030
102578,38903
102446,38677
102578,38451
102500,38324
101994,38324
102018,38201
102018,38153
101994,38030
102500,38030
102578,37903
102446,37677
102578,37451
102500,37324
102280,37324
102657,37071
102924,36672
103018,36201
103018,36153
102924,35681
102921,35677
102924,35672
103018,35201
103018,35153
102924,34681
102921,34677
102924,34672
103018,34201
103018,34153
102924,33681
102921,33677
102924,33672
103018,33201
103018,33153
102924,32681
102921,32677
102924,32672
103018,32201
103018,32153
102924,31681
102921,31677
102924,31672
103018,31201
103018,31153
102924,30681
102921,30677
102924,30672
103018,30201
103018,30153
102924,29681
102657,29282
102500,29177
102657,29071
102924,28672
103018,28201
103018,28153
102924,27681
102657,27282
102258,27015
101787,26921
101316,27015
101287,27034
101258,27015
100787,26921
100316,27015
100296,27029
100296,26984
100573,26707
100877,26707
101402,26490
101804,26089
101965,25700
102386,25279
101965,24858
101805,24471
101589,24254
101589,23304
101804,23089
101965,22700
102386,22279
101965,21858
101805,21471
101404,21069
100879,20851
100559,20851
100559,20750
103167,20750
103167,20750
103167,20750
103563,20672
103563,20672
103898,20447
105068,19278
105068,49054
" /> 
</g>
<g style="fill:#000000; fill-opacity:0.0; 
stroke:#000000; stroke-width:100; stroke-opacity:1; 
stroke-linecap:round; stroke-linejoin:round;">
<polyline fill="none;"
points="105068,49054
104423,49054
104423,46651
104423,46103
104385,46012
104187,45751
103905,45586
103778,45664
103778,46231
104343,46231
104423,46103
104423,46651
104343,46524
103778,46524
103778,47091
103905,47169
104187,47004
104385,46743
104423,46651
104423,49054
103644,49054
103644,25380
103644,22380
103602,21971
103525,21784
103357,21724
103149,21931
103149,21516
103089,21348
102695,21229
102286,21271
102099,21348
102039,21516
102594,22071
103149,21516
103149,21931
102802,22279
103357,22834
103525,22774
103644,22380
103644,25380
103602,24971
103525,24784
103357,24724
103149,24931
103149,24516
103149,23042
102594,22487
102039,23042
102099,23210
102493,23329
102902,23287
103089,23210
103149,23042
103149,24516
103089,24348
102695,24229
102286,24271
102099,24348
102039,24516
102594,25071
103149,24516
103149,24931
102802,25279
103357,25834
103525,25774
103644,25380
103644,49054
103485,49054
103485,47091
103485,46524
103485,46231
103485,45664
103357,45586
103149,45708
103149,26042
102594,25487
102039,26042
102099,26210
102493,26329
102902,26287
103089,26210
103149,26042
103149,45708
103075,45751
102878,46012
102840,46103
102920,46231
103485,46231
103485,46524
102920,46524
102840,46651
102878,46743
103075,47004
103357,47169
103485,47091
103485,49054
98212,49054
98498,48862
99665,47695
99916,48071
100316,48338
100787,48432
101258,48338
101657,48071
101924,47672
101934,47624
101934,47888
102061,47968
102153,47930
102413,47733
102578,47451
102500,47324
101994,47324
102018,47201
102018,47153
101994,47030
102500,47030
102578,46903
102446,46677
102578,46451
102500,46324
102280,46324
102657,46071
102924,45672
103018,45201
103018,45153
102924,44681
102921,44677
102924,44672
103018,44201
103018,44153
102924,43681
102657,43282
102280,43030
102500,43030
102578,42903
102446,42677
102578,42451
102500,42324
101994,42324
102018,42201
102018,42153
101994,42030
102500,42030
102578,41903
102446,41677
102578,41451
102500,41324
101994,41324
102018,41201
102018,41153
101994,41030
102500,41030
102578,40903
102446,40677
102578,40451
102500,40324
101994,40324
102018,40201
102018,40153
101994,40030
102500,40030
102578,39903
102446,39677
102578,39451
102500,39324
101994,39324
102018,39201
102018,39153
101994,39030
102500,39030
102578,38903
102446,38677
102578,38451
102500,38324
101994,38324
102018,38201
102018,38153
101994,38030
102500,38030
102578,37903
102446,37677
102578,37451
102500,37324
102280,37324
102657,37071
102924,36672
103018,36201
103018,36153
102924,35681
102921,35677
102924,35672
103018,35201
103018,35153
102924,34681
102921,34677
102924,34672
103018,34201
103018,34153
102924,33681
102921,33677
102924,33672
103018,33201
103018,33153
102924,32681
102921,32677
102924,32672
103018,32201
103018,32153
102924,31681
102921,31677
102924,31672
103018,31201
103018,31153
102924,30681
102921,30677
102924,30672
103018,30201
103018,30153
102924,29681
102657,29282
102500,29177
102657,29071
102924,28672
103018,28201
103018,28153
102924,27681
102657,27282
102258,27015
101787,26921
101316,27015
101287,27034
101258,27015
100787,26921
100316,27015
100296,27029
100296,26984
100573,26707
100877,26707
101402,26490
101804,26089
101965,25700
102386,25279
101965,24858
101805,24471
101589,24254
101589,23304
101804,23089
101965,22700
102386,22279
101965,21858
101805,21471
101404,21069
100879,20851
100559,20851
100559,20750
103167,20750
103167,20750
103167,20750
103563,20672
103563,20672
103898,20447
105068,19278
105068,49054
" /> 
</g>
<g style="fill:#FFFFFF; fill-opacity:0.0; 
stroke:#FFFFFF; stroke-width:39.3701; stroke-opacity:1; 
stroke-linecap:round; stroke-linejoin:round;">
</g>
<g style="fill:#FFFFFF; fill-opacity:1.0; 
stroke:#FFFFFF; stroke-width:39.3701; stroke-opacity:1; 
stroke-linecap:round; stroke-linejoin:round;">
<circle cx="101280" cy="13104.3" r="118.11" /> 
<circle cx="101280" cy="14104.3" r="118.11" /> 
<circle cx="101280" cy="15104.3" r="118.11" /> 
<circle cx="92332.7" cy="14379.9" r="118.11" /> 
<circle cx="90777.6" cy="14379.9" r="118.11" /> 
<circle cx="93887.8" cy="14379.9" r="118.11" /> 
<circle cx="89202.8" cy="14379.9" r="118.11" /> 
<circle cx="101104" cy="10423.2" r="118.11" /> 
<circle cx="97104.3" cy="10423.2" r="118.11" /> 
<circle cx="96978.3" cy="18984.3" r="118.11" /> 
<circle cx="96978.3" cy="22984.3" r="118.11" /> 
<circle cx="98671.3" cy="16409.4" r="118.11" /> 
<circle cx="98671.3" cy="12409.4" r="118.11" /> 
<circle cx="68622" cy="16675.2" r="118.11" /> 
<circle cx="68622" cy="17675.2" r="118.11" /> 
<circle cx="98159.4" cy="30082.7" r="59.0551" /> 
<circle cx="98159.4" cy="31082.7" r="59.0551" /> 
<circle cx="98159.4" cy="32082.7" r="59.0551" /> 
<circle cx="98159.4" cy="33082.7" r="59.0551" /> 
<circle cx="98159.4" cy="34082.7" r="59.0551" /> 
<circle cx="98159.4" cy="35082.7" r="59.0551" /> 
<circle cx="98159.4" cy="36082.7" r="59.0551" /> 
<circle cx="98159.4" cy="37082.7" r="59.0551" /> 
<circle cx="75145.7" cy="46885.8" r="59.0551" /> 
<circle cx="75145.7" cy="45885.8" r="59.0551" /> 
<circle cx="76145.7" cy="46885.8" r="59.0551" /> 
<circle cx="76145.7" cy="45885.8" r="59.0551" /> 
<circle cx="77145.7" cy="46885.8" r="59.0551" /> 
<circle cx="77145.7" cy="45885.8" r="59.0551" /> 
<circle cx="78145.7" cy="46885.8" r="59.0551" /> 
<circle cx="78145.7" cy="45885.8" r="59.0551" /> 
<circle cx="79145.7" cy="46885.8" r="59.0551" /> 
<circle cx="79145.7" cy="45885.8" r="59.0551" /> 
<circle cx="80145.7" cy="46885.8" r="59.0551" /> 
<circle cx="80145.7" cy="45885.8" r="59.0551" /> 
<circle cx="81145.7" cy="46885.8" r="59.0551" /> 
<circle cx="81145.7" cy="45885.8" r="59.0551" /> 
<circle cx="82145.7" cy="46885.8" r="59.0551" /> 
<circle cx="82145.7" cy="45885.8" r="59.0551" /> 
<circle cx="83145.7" cy="46885.8" r="59.0551" /> 
<circle cx="83145.7" cy="45885.8" r="59.0551" /> 
<circle cx="84145.7" cy="46885.8" r="59.0551" /> 
<circle cx="84145.7" cy="45885.8" r="59.0551" /> 
<circle cx="85145.7" cy="46885.8" r="59.0551" /> 
<circle cx="85145.7" cy="45885.8" r="59.0551" /> 
<circle cx="86145.7" cy="46885.8" r="59.0551" /> 
<circle cx="86145.7" cy="45885.8" r="59.0551" /> 
<circle cx="87145.7" cy="46885.8" r="59.0551" /> 
<circle cx="87145.7" cy="45885.8" r="59.0551" /> 
<circle cx="88145.7" cy="46885.8" r="59.0551" /> 
<circle cx="88145.7" cy="45885.8" r="59.0551" /> 
<circle cx="89145.7" cy="46885.8" r="59.0551" /> 
<circle cx="89145.7" cy="45885.8" r="59.0551" /> 
<circle cx="90145.7" cy="46885.8" r="59.0551" /> 
<circle cx="90145.7" cy="45885.8" r="59.0551" /> 
<circle cx="91145.7" cy="46885.8" r="59.0551" /> 
<circle cx="91145.7" cy="45885.8" r="59.0551" /> 
<circle cx="92145.7" cy="46885.8" r="59.0551" /> 
<circle cx="92145.7" cy="45885.8" r="59.0551" /> 
<circle cx="93145.7" cy="46885.8" r="59.0551" /> 
<circle cx="93145.7" cy="45885.8" r="59.0551" /> 
<circle cx="94145.7" cy="46885.8" r="59.0551" /> 
<circle cx="94145.7" cy="45885.8" r="59.0551" /> 
<circle cx="75145.7" cy="18885.8" r="59.0551" /> 
<circle cx="75145.7" cy="17885.8" r="59.0551" /> 
<circle cx="76145.7" cy="18885.8" r="59.0551" /> 
<circle cx="76145.7" cy="17885.8" r="59.0551" /> 
<circle cx="77145.7" cy="18885.8" r="59.0551" /> 
<circle cx="77145.7" cy="17885.8" r="59.0551" /> 
<circle cx="78145.7" cy="18885.8" r="59.0551" /> 
<circle cx="78145.7" cy="17885.8" r="59.0551" /> 
<circle cx="79145.7" cy="18885.8" r="59.0551" /> 
<circle cx="79145.7" cy="17885.8" r="59.0551" /> 
<circle cx="80145.7" cy="18885.8" r="59.0551" /> 
<circle cx="80145.7" cy="17885.8" r="59.0551" /> 
<circle cx="81145.7" cy="18885.8" r="59.0551" /> 
<circle cx="81145.7" cy="17885.8" r="59.0551" /> 
<circle cx="82145.7" cy="18885.8" r="59.0551" /> 
<circle cx="82145.7" cy="17885.8" r="59.0551" /> 
<circle cx="83145.7" cy="18885.8" r="59.0551" /> 
<circle cx="83145.7" cy="17885.8" r="59.0551" /> 
<circle cx="84145.7" cy="18885.8" r="59.0551" /> 
<circle cx="84145.7" cy="17885.8" r="59.0551" /> 
<circle cx="85145.7" cy="18885.8" r="59.0551" /> 
<circle cx="85145.7" cy="17885.8" r="59.0551" /> 
<circle cx="86145.7" cy="18885.8" r="59.0551" /> 
<circle cx="86145.7" cy="17885.8" r="59.0551" /> 
<circle cx="87145.7" cy="18885.8" r="59.0551" /> 
<circle cx="87145.7" cy="17885.8" r="59.0551" /> 
<circle cx="88145.7" cy="18885.8" r="59.0551" /> 
<circle cx="88145.7" cy="17885.8" r="59.0551" /> 
<circle cx="89145.7" cy="18885.8" r="59.0551" /> 
<circle cx="89145.7" cy="17885.8" r="59.0551" /> 
<circle cx="90145.7" cy="18885.8" r="59.0551" /> 
<circle cx="90145.7" cy="17885.8" r="59.0551" /> 
<circle cx="91145.7" cy="18885.8" r="59.0551" /> 
<circle cx="91145.7" cy="17885.8" r="59.0551" /> 
<circle cx="92145.7" cy="18885.8" r="59.0551" /> 
<circle cx="92145.7" cy="17885.8" r="59.0551" /> 
<circle cx="93145.7" cy="18885.8" r="59.0551" /> 
<circle cx="93145.7" cy="17885.8" r="59.0551" /> 
<circle cx="94145.7" cy="18885.8" r="59.0551" /> 
<circle cx="94145.7" cy="17885.8" r="59.0551" /> 
<circle cx="100787" cy="28177.2" r="59.0551" /> 
<circle cx="101787" cy="28177.2" r="59.0551" /> 
<circle cx="100787" cy="29177.2" r="59.0551" /> 
<circle cx="101787" cy="29177.2" r="59.0551" /> 
<circle cx="100787" cy="30177.2" r="59.0551" /> 
<circle cx="101787" cy="30177.2" r="59.0551" /> 
<circle cx="100787" cy="31177.2" r="59.0551" /> 
<circle cx="101787" cy="31177.2" r="59.0551" /> 
<circle cx="100787" cy="32177.2" r="59.0551" /> 
<circle cx="101787" cy="32177.2" r="59.0551" /> 
<circle cx="100787" cy="33177.2" r="59.0551" /> 
<circle cx="101787" cy="33177.2" r="59.0551" /> 
<circle cx="100787" cy="34177.2" r="59.0551" /> 
<circle cx="101787" cy="34177.2" r="59.0551" /> 
<circle cx="100787" cy="35177.2" r="59.0551" /> 
<circle cx="101787" cy="35177.2" r="59.0551" /> 
<circle cx="100787" cy="36177.2" r="59.0551" /> 
<circle cx="101787" cy="36177.2" r="59.0551" /> 
<circle cx="100787" cy="37177.2" r="59.0551" /> 
<circle cx="101787" cy="37177.2" r="59.0551" /> 
<circle cx="100787" cy="38177.2" r="59.0551" /> 
<circle cx="101787" cy="38177.2" r="59.0551" /> 
<circle cx="100787" cy="39177.2" r="59.0551" /> 
<circle cx="101787" cy="39177.2" r="59.0551" /> 
<circle cx="100787" cy="40177.2" r="59.0551" /> 
<circle cx="101787" cy="40177.2" r="59.0551" /> 
<circle cx="100787" cy="41177.2" r="59.0551" /> 
<circle cx="101787" cy="41177.2" r="59.0551" /> 
<circle cx="100787" cy="42177.2" r="59.0551" /> 
<circle cx="101787" cy="42177.2" r="59.0551" /> 
<circle cx="100787" cy="43177.2" r="59.0551" /> 
<circle cx="101787" cy="43177.2" r="59.0551" /> 
<circle cx="100787" cy="44177.2" r="59.0551" /> 
<circle cx="101787" cy="44177.2" r="59.0551" /> 
<circle cx="100787" cy="45177.2" r="59.0551" /> 
<circle cx="101787" cy="45177.2" r="59.0551" /> 
<circle cx="100787" cy="46177.2" r="59.0551" /> 
<circle cx="101787" cy="46177.2" r="59.0551" /> 
<circle cx="100787" cy="47177.2" r="59.0551" /> 
<circle cx="101787" cy="47177.2" r="59.0551" /> 
<circle cx="72787.4" cy="28177.2" r="59.0551" /> 
<circle cx="73787.4" cy="28177.2" r="59.0551" /> 
<circle cx="72787.4" cy="29177.2" r="59.0551" /> 
<circle cx="73787.4" cy="29177.2" r="59.0551" /> 
<circle cx="72787.4" cy="30177.2" r="59.0551" /> 
<circle cx="73787.4" cy="30177.2" r="59.0551" /> 
<circle cx="72787.4" cy="31177.2" r="59.0551" /> 
<circle cx="73787.4" cy="31177.2" r="59.0551" /> 
<circle cx="72787.4" cy="32177.2" r="59.0551" /> 
<circle cx="73787.4" cy="32177.2" r="59.0551" /> 
<circle cx="72787.4" cy="33177.2" r="59.0551" /> 
<circle cx="73787.4" cy="33177.2" r="59.0551" /> 
<circle cx="72787.4" cy="34177.2" r="59.0551" /> 
<circle cx="73787.4" cy="34177.2" r="59.0551" /> 
<circle cx="72787.4" cy="35177.2" r="59.0551" /> 
<circle cx="73787.4" cy="35177.2" r="59.0551" /> 
<circle cx="72787.4" cy="36177.2" r="59.0551" /> 
<circle cx="73787.4" cy="36177.2" r="59.0551" /> 
<circle cx="72787.4" cy="37177.2" r="59.0551" /> 
<circle cx="73787.4" cy="37177.2" r="59.0551" /> 
<circle cx="72787.4" cy="38177.2" r="59.0551" /> 
<circle cx="73787.4" cy="38177.2" r="59.0551" /> 
<circle cx="72787.4" cy="39177.2" r="59.0551" /> 
<circle cx="73787.4" cy="39177.2" r="59.0551" /> 
<circle cx="72787.4" cy="40177.2" r="59.0551" /> 
<circle cx="73787.4" cy="40177.2" r="59.0551" /> 
<circle cx="72787.4" cy="41177.2" r="59.0551" /> 
<circle cx="73787.4" cy="41177.2" r="59.0551" /> 
<circle cx="72787.4" cy="42177.2" r="59.0551" /> 
<circle cx="73787.4" cy="42177.2" r="59.0551" /> 
<circle cx="72787.4" cy="43177.2" r="59.0551" /> 
<circle cx="73787.4" cy="43177.2" r="59.0551" /> 
<circle cx="72787.4" cy="44177.2" r="59.0551" /> 
<circle cx="73787.4" cy="44177.2" r="59.0551" /> 
<circle cx="72787.4" cy="45177.2" r="59.0551" /> 
<circle cx="73787.4" cy="45177.2" r="59.0551" /> 
<circle cx="72787.4" cy="46177.2" r="59.0551" /> 
<circle cx="73787.4" cy="46177.2" r="59.0551" /> 
<circle cx="72787.4" cy="47177.2" r="59.0551" /> 
<circle cx="73787.4" cy="47177.2" r="59.0551" /> 
<circle cx="70289.4" cy="13986.2" r="118.11" /> 
<circle cx="71289.4" cy="13986.2" r="118.11" /> 
<circle cx="72289.4" cy="13986.2" r="118.11" /> 
<circle cx="96958.7" cy="24470.5" r="118.11" /> 
<circle cx="96958.7" cy="25470.5" r="118.11" /> 
<circle cx="99852.4" cy="13551.2" r="59.0551" /> 
<circle cx="99852.4" cy="12551.2" r="59.0551" /> 
<circle cx="101100" cy="16771.7" r="59.0551" /> 
<circle cx="100100" cy="16771.7" r="59.0551" /> 
<circle cx="76683.1" cy="13978.3" r="59.0551" /> 
<circle cx="76683.1" cy="14978.3" r="59.0551" /> 
<circle cx="68750" cy="13978.3" r="59.0551" /> 
<circle cx="68750" cy="14978.3" r="59.0551" /> 
<circle cx="96820.9" cy="12596.5" r="59.0551" /> 
<circle cx="96820.9" cy="11596.5" r="59.0551" /> 
<circle cx="78740.2" cy="13978.3" r="59.0551" /> 
<circle cx="78740.2" cy="14978.3" r="59.0551" /> 
<circle cx="69655.5" cy="19566.9" r="59.0551" /> 
<circle cx="78750" cy="20905.5" r="59.0551" /> 
<circle cx="96535.4" cy="36063" r="59.0551" /> 
<circle cx="97096.5" cy="46348.4" r="59.0551" /> 
<circle cx="71023.6" cy="47116.1" r="59.0551" /> 
<circle cx="103632" cy="46378" r="59.0551" /> 
<circle cx="80098.4" cy="15226.4" r="59.0551" /> 
<circle cx="94744.1" cy="20698.8" r="59.0551" /> 
<circle cx="83643.7" cy="15362.2" r="59.0551" /> 
<circle cx="83643.7" cy="14362.2" r="59.0551" /> 
<circle cx="84643.7" cy="15362.2" r="59.0551" /> 
<circle cx="84643.7" cy="14362.2" r="59.0551" /> 
<circle cx="95442.9" cy="30974.4" r="59.0551" /> 
<circle cx="95334.6" cy="10639.8" r="59.0551" /> 
<circle cx="100594" cy="22279.5" r="118.11" /> 
<circle cx="102594" cy="22279.5" r="118.11" /> 
<circle cx="100594" cy="25279.5" r="118.11" /> 
<circle cx="102594" cy="25279.5" r="118.11" /> 
<circle cx="98722.4" cy="20716.5" r="59.0551" /> 
<circle cx="98722.4" cy="19716.5" r="59.0551" /> 
<circle cx="99722.4" cy="20716.5" r="59.0551" /> 
<circle cx="99722.4" cy="19716.5" r="59.0551" /> 
<circle cx="97962.6" cy="28285.4" r="59.0551" /> 
<circle cx="97962.6" cy="27285.4" r="59.0551" /> 
<circle cx="96565" cy="30352.4" r="59.0551" /> 
<circle cx="96565" cy="29352.4" r="59.0551" /> 
<circle cx="90816.9" cy="15236.2" r="59.0551" /> 
<circle cx="102717" cy="10472.4" r="177.165" /> 
<circle cx="102717" cy="17559.1" r="177.165" /> 
<circle cx="84645.7" cy="11899.6" r="177.165" /> 
<circle cx="66929.1" cy="11899.6" r="177.165" /> 
<circle cx="72293.3" cy="11840.6" r="59.0551" /> 
<circle cx="66889.8" cy="14212.6" r="59.0551" /> 
</g> 
</svg>
