<?xml version="1.0" standalone="no"?>
 <!DOCTYPE svg PUBLIC "-//W3C//DTD SVG 1.1//EN" 
 "http://www.w3.org/Graphics/SVG/1.1/DTD/svg11.dtd"> 
<svg xmlns="http://www.w3.org/2000/svg" version="1.1" 
    width="29.7002cm" height="21.0007cm" viewBox="0 0 116930 82680 ">
<title>SVG Picture created as poncho_rescatAR--brd.svg date 2015/12/04 10:01:05 </title>
  <desc>Picture generated by PCBNEW </desc>
<g style="fill:#000000; fill-opacity:1;stroke:#000000; stroke-opacity:1;
stroke-linecap:round; stroke-linejoin:round; "
 transform="translate(0 0) scale(1 1)">
</g>
<g style="fill:#000000; fill-opacity:0.0; 
stroke:#000000; stroke-width:98.4252; stroke-opacity:1; 
stroke-linecap:round; stroke-linejoin:round;">
<path d="M84360 35887
L84360 35625
" />
<path d="M84360 35700
L84378 35662
L84397 35643
L84435 35625
L84472 35625
" />
<path d="M84753 35868
L84716 35887
L84641 35887
L84603 35868
L84585 35831
L84585 35681
L84603 35643
L84641 35625
L84716 35625
L84753 35643
L84772 35681
L84772 35718
L84585 35756
" />
<path d="M84922 35868
L84960 35887
L85035 35887
L85072 35868
L85091 35831
L85091 35812
L85072 35775
L85035 35756
L84978 35756
L84941 35737
L84922 35700
L84922 35681
L84941 35643
L84978 35625
L85035 35625
L85072 35643
" />
<path d="M85428 35868
L85391 35887
L85316 35887
L85278 35868
L85260 35850
L85241 35812
L85241 35700
L85260 35662
L85278 35643
L85316 35625
L85391 35625
L85428 35643
" />
<path d="M85766 35887
L85766 35681
L85747 35643
L85710 35625
L85635 35625
L85597 35643
" />
<path d="M85766 35868
L85728 35887
L85635 35887
L85597 35868
L85578 35831
L85578 35793
L85597 35756
L85635 35737
L85728 35737
L85766 35718
" />
<path d="M85897 35625
L86047 35625
" />
<path d="M85953 35494
L85953 35831
L85972 35868
L86010 35887
L86047 35887
" />
<path d="M86160 35775
L86347 35775
" />
<path d="M86122 35887
L86253 35494
L86384 35887
" />
<path d="M86741 35887
L86609 35700
" />
<path d="M86516 35887
L86516 35494
L86666 35494
L86703 35512
L86722 35531
L86741 35568
L86741 35625
L86722 35662
L86703 35681
L86666 35700
L86516 35700
" />
</g>
<g style="fill:#000000; fill-opacity:0.0; 
stroke:#000000; stroke-width:80; stroke-opacity:1; 
stroke-linecap:round; stroke-linejoin:round;">
<path d="M101631 14074
L102116 14074
L102173 14055
L102202 14036
L102231 13998
L102231 13922
L102202 13883
L102173 13864
L102116 13845
L101631 13845
" />
<path d="M102231 13445
L102231 13674
" />
<path d="M102231 13560
L101631 13560
L101716 13598
L101773 13636
L101802 13674
" />
<path d="M102659 11512
L102469 11512
L102469 10912
" />
<path d="M102792 11512
L102792 10912
L102926 11341
L103059 10912
L103059 11512
" />
<path d="M103211 10912
L103459 10912
L103326 11141
L103383 11141
L103421 11169
L103440 11198
L103459 11255
L103459 11398
L103440 11455
L103421 11483
L103383 11512
L103269 11512
L103231 11483
L103211 11455
" />
<path d="M103840 11512
L103611 11512
" />
<path d="M103726 11512
L103726 10912
L103688 10998
L103650 11055
L103611 11083
" />
<path d="M103973 10912
L104240 10912
L104069 11512
" />
<path d="M104335 10912
L104564 10912
" />
<path d="M104450 11512
L104450 10912
" />
<path d="M89947 13214
L90004 13233
L90023 13252
L90042 13290
L90042 13347
L90023 13385
L90004 13404
L89966 13423
L89814 13423
L89814 13023
L89947 13023
L89985 13042
L90004 13061
L90023 13099
L90023 13138
L90004 13176
L89985 13195
L89947 13214
L89814 13214
" />
<path d="M90194 13309
L90385 13309
" />
<path d="M90156 13423
L90290 13023
L90423 13423
" />
<path d="M90499 13023
L90728 13023
" />
<path d="M90614 13423
L90614 13023
" />
<path d="M91071 13423
L90842 13423
" />
<path d="M90956 13423
L90956 13023
L90918 13080
L90880 13118
L90842 13138
" />
<path d="M100103 16826
L99937 16565
" />
<path d="M99817 16826
L99817 16276
L100008 16276
L100056 16303
L100079 16329
L100103 16381
L100103 16460
L100079 16512
L100056 16538
L100008 16565
L99817 16565
" />
<path d="M100532 16460
L100532 16826
" />
<path d="M100413 16250
L100294 16643
L100603 16643
" />
<path d="M97200 21067
L96939 21234
" />
<path d="M97200 21353
L96650 21353
L96650 21162
L96677 21115
L96703 21091
L96755 21067
L96834 21067
L96886 21091
L96912 21115
L96939 21162
L96939 21353
" />
<path d="M97200 20591
L97200 20877
" />
<path d="M97200 20734
L96650 20734
L96729 20781
L96781 20829
L96808 20877
" />
<path d="M99188 15360
L99021 15098
" />
<path d="M98902 15360
L98902 14810
L99093 14810
L99140 14836
L99164 14862
L99188 14915
L99188 14993
L99164 15046
L99140 15072
L99093 15098
L98902 15098
" />
<path d="M99640 14810
L99402 14810
L99378 15072
L99402 15046
L99450 15019
L99569 15019
L99616 15046
L99640 15072
L99664 15124
L99664 15255
L99640 15308
L99616 15334
L99569 15360
L99450 15360
L99402 15334
L99378 15308
" />
</g>
<g style="fill:#000000; fill-opacity:0.0; 
stroke:#000000; stroke-width:47.2441; stroke-opacity:1; 
stroke-linecap:round; stroke-linejoin:round;">
<path d="M70284 17407
L69970 17407
L69970 17287
L69985 17257
L70000 17242
L70029 17227
L70074 17227
L70104 17242
L70119 17257
L70134 17287
L70134 17407
" />
<path d="M70284 16927
L70284 17107
" />
<path d="M70284 17017
L69970 17017
L70014 17047
L70044 17077
L70059 17107
" />
<path d="M66934 17805
L66934 17955
L67084 17970
L67069 17955
L67054 17925
L67054 17850
L67069 17820
L67084 17805
L67114 17790
L67189 17790
L67219 17805
L67234 17820
L67249 17850
L67249 17925
L67234 17955
L67219 17970
" />
<path d="M66934 17700
L67249 17595
L66934 17490
" />
<path d="M67279 17460
L67279 17220
" />
<path d="M66934 17085
L66934 17025
L66949 16995
L66979 16965
L67039 16950
L67144 16950
L67204 16965
L67234 16995
L67249 17025
L67249 17085
L67234 17115
L67204 17145
L67144 17160
L67039 17160
L66979 17145
L66949 17115
L66934 17085
" />
<path d="M66934 16815
L67189 16815
L67219 16800
L67234 16785
L67249 16755
L67249 16695
L67234 16665
L67219 16650
L67189 16635
L66934 16635
" />
<path d="M66934 16530
L66934 16350
" />
<path d="M67249 16440
L66934 16440
" />
</g>
<g style="fill:#000000; fill-opacity:0.0; 
stroke:#000000; stroke-width:80; stroke-opacity:1; 
stroke-linecap:round; stroke-linejoin:round;">
<path d="M99171 33877
L98771 33877
L98771 33725
L98790 33687
L98809 33668
L98847 33649
L98904 33649
L98942 33668
L98961 33687
L98980 33725
L98980 33877
" />
<path d="M98809 33496
L98790 33477
L98771 33439
L98771 33344
L98790 33306
L98809 33287
L98847 33268
L98885 33268
L98942 33287
L99171 33516
L99171 33268
" />
<path d="M84269 45009
L84250 45028
L84193 45047
L84155 45047
L84098 45028
L84060 44990
L84041 44952
L84022 44876
L84022 44819
L84041 44742
L84060 44704
L84098 44666
L84155 44647
L84193 44647
L84250 44666
L84269 44685
" />
<path d="M84517 44647
L84593 44647
L84631 44666
L84669 44704
L84688 44781
L84688 44914
L84669 44990
L84631 45028
L84593 45047
L84517 45047
L84479 45028
L84441 44990
L84422 44914
L84422 44781
L84441 44704
L84479 44666
L84517 44647
" />
<path d="M84860 45047
L84860 44647
L85088 45047
L85088 44647
" />
<path d="M85184 45085
L85488 45085
" />
<path d="M85565 45028
L85622 45047
L85717 45047
L85755 45028
L85774 45009
L85793 44971
L85793 44933
L85774 44895
L85755 44876
L85717 44857
L85641 44838
L85603 44819
L85584 44800
L85565 44762
L85565 44723
L85584 44685
L85603 44666
L85641 44647
L85736 44647
L85793 44666
" />
<path d="M86041 44647
L86117 44647
L86155 44666
L86193 44704
L86212 44781
L86212 44914
L86193 44990
L86155 45028
L86117 45047
L86041 45047
L86003 45028
L85965 44990
L85946 44914
L85946 44781
L85965 44704
L86003 44666
L86041 44647
" />
<path d="M86593 45047
L86365 45047
" />
<path d="M86479 45047
L86479 44647
L86441 44704
L86403 44742
L86365 44762
" />
<path d="M86841 44647
L86879 44647
L86917 44666
L86936 44685
L86955 44723
L86974 44800
L86974 44895
L86955 44971
L86936 45009
L86917 45028
L86879 45047
L86841 45047
L86803 45028
L86784 45009
L86765 44971
L86746 44895
L86746 44800
L86765 44723
L86784 44685
L86803 44666
L86841 44647
" />
<path d="M87355 45047
L87127 45047
" />
<path d="M87241 45047
L87241 44647
L87203 44704
L87165 44742
L87127 44762
" />
<path d="M84269 17009
L84250 17028
L84193 17047
L84155 17047
L84098 17028
L84060 16990
L84041 16952
L84022 16876
L84022 16819
L84041 16742
L84060 16704
L84098 16666
L84155 16647
L84193 16647
L84250 16666
L84269 16685
" />
<path d="M84517 16647
L84593 16647
L84631 16666
L84669 16704
L84688 16781
L84688 16914
L84669 16990
L84631 17028
L84593 17047
L84517 17047
L84479 17028
L84441 16990
L84422 16914
L84422 16781
L84441 16704
L84479 16666
L84517 16647
" />
<path d="M84860 17047
L84860 16647
L85088 17047
L85088 16647
" />
<path d="M85184 17085
L85488 17085
" />
<path d="M85565 17028
L85622 17047
L85717 17047
L85755 17028
L85774 17009
L85793 16971
L85793 16933
L85774 16895
L85755 16876
L85717 16857
L85641 16838
L85603 16819
L85584 16800
L85565 16762
L85565 16723
L85584 16685
L85603 16666
L85641 16647
L85736 16647
L85793 16666
" />
<path d="M86041 16647
L86117 16647
L86155 16666
L86193 16704
L86212 16781
L86212 16914
L86193 16990
L86155 17028
L86117 17047
L86041 17047
L86003 17028
L85965 16990
L85946 16914
L85946 16781
L85965 16704
L86003 16666
L86041 16647
" />
<path d="M86593 17047
L86365 17047
" />
<path d="M86479 17047
L86479 16647
L86441 16704
L86403 16742
L86365 16762
" />
<path d="M86841 16647
L86879 16647
L86917 16666
L86936 16685
L86955 16723
L86974 16800
L86974 16895
L86955 16971
L86936 17009
L86917 17028
L86879 17047
L86841 17047
L86803 17028
L86784 17009
L86765 16971
L86746 16895
L86746 16800
L86765 16723
L86784 16685
L86803 16666
L86841 16647
" />
<path d="M87317 16781
L87317 17047
" />
<path d="M87222 16628
L87127 16914
L87374 16914
" />
<path d="M102911 39381
L102930 39400
L102949 39458
L102949 39496
L102930 39553
L102892 39591
L102854 39610
L102777 39629
L102720 39629
L102644 39610
L102606 39591
L102568 39553
L102549 39496
L102549 39458
L102568 39400
L102587 39381
" />
<path d="M102549 39134
L102549 39058
L102568 39020
L102606 38981
L102682 38962
L102815 38962
L102892 38981
L102930 39020
L102949 39058
L102949 39134
L102930 39172
L102892 39210
L102815 39229
L102682 39229
L102606 39210
L102568 39172
L102549 39134
" />
<path d="M102949 38791
L102549 38791
L102949 38562
L102549 38562
" />
<path d="M102987 38467
L102987 38162
" />
<path d="M102739 38067
L102739 37934
" />
<path d="M102949 37877
L102949 38067
L102549 38067
L102549 37877
" />
<path d="M102796 37705
L102796 37400
" />
<path d="M102911 36981
L102930 37000
L102949 37058
L102949 37096
L102930 37153
L102892 37191
L102854 37210
L102777 37229
L102720 37229
L102644 37210
L102606 37191
L102568 37153
L102549 37096
L102549 37058
L102568 37000
L102587 36981
" />
<path d="M102949 36810
L102549 36810
" />
<path d="M102835 36639
L102835 36448
" />
<path d="M102949 36677
L102549 36543
L102949 36410
" />
<path d="M102835 36296
L102835 36105
" />
<path d="M102949 36334
L102549 36200
L102949 36067
" />
<path d="M102949 35724
L102949 35953
" />
<path d="M102949 35839
L102549 35839
L102606 35877
L102644 35915
L102663 35953
" />
<path d="M74911 39381
L74930 39400
L74949 39458
L74949 39496
L74930 39553
L74892 39591
L74854 39610
L74777 39629
L74720 39629
L74644 39610
L74606 39591
L74568 39553
L74549 39496
L74549 39458
L74568 39400
L74587 39381
" />
<path d="M74549 39134
L74549 39058
L74568 39020
L74606 38981
L74682 38962
L74815 38962
L74892 38981
L74930 39020
L74949 39058
L74949 39134
L74930 39172
L74892 39210
L74815 39229
L74682 39229
L74606 39210
L74568 39172
L74549 39134
" />
<path d="M74949 38791
L74549 38791
L74949 38562
L74549 38562
" />
<path d="M74987 38467
L74987 38162
" />
<path d="M74739 38067
L74739 37934
" />
<path d="M74949 37877
L74949 38067
L74549 38067
L74549 37877
" />
<path d="M74796 37705
L74796 37400
" />
<path d="M74911 36981
L74930 37000
L74949 37058
L74949 37096
L74930 37153
L74892 37191
L74854 37210
L74777 37229
L74720 37229
L74644 37210
L74606 37191
L74568 37153
L74549 37096
L74549 37058
L74568 37000
L74587 36981
" />
<path d="M74949 36810
L74549 36810
" />
<path d="M74835 36639
L74835 36448
" />
<path d="M74949 36677
L74549 36543
L74949 36410
" />
<path d="M74835 36296
L74835 36105
" />
<path d="M74949 36334
L74549 36200
L74949 36067
" />
<path d="M74587 35953
L74568 35934
L74549 35896
L74549 35800
L74568 35762
L74587 35743
L74625 35724
L74663 35724
L74720 35743
L74949 35972
L74949 35724
" />
<path d="M72953 12129
L72953 12614
L72972 12671
L72991 12700
L73029 12729
L73105 12729
L73143 12700
L73162 12671
L73181 12614
L73181 12129
" />
<path d="M73353 12186
L73372 12157
L73410 12129
L73505 12129
L73543 12157
L73562 12186
L73581 12243
L73581 12300
L73562 12386
L73334 12729
L73581 12729
" />
<path d="M72141 15479
L71950 15479
L71950 14879
" />
<path d="M72274 15479
L72274 14879
L72407 15307
L72541 14879
L72541 15479
" />
<path d="M72693 14879
L72960 14879
L72788 15479
" />
<path d="M73169 15136
L73131 15107
L73112 15079
L73093 15021
L73093 14993
L73112 14936
L73131 14907
L73169 14879
L73245 14879
L73284 14907
L73303 14936
L73322 14993
L73322 15021
L73303 15079
L73284 15107
L73245 15136
L73169 15136
L73131 15164
L73112 15193
L73093 15250
L73093 15364
L73112 15421
L73131 15450
L73169 15479
L73245 15479
L73284 15450
L73303 15421
L73322 15364
L73322 15250
L73303 15193
L73284 15164
L73245 15136
" />
<path d="M73569 14879
L73607 14879
L73645 14907
L73665 14936
L73684 14993
L73703 15107
L73703 15250
L73684 15364
L73665 15421
L73645 15450
L73607 15479
L73569 15479
L73531 15450
L73512 15421
L73493 15364
L73474 15250
L73474 15107
L73493 14993
L73512 14936
L73531 14907
L73569 14879
" />
<path d="M74065 14879
L73874 14879
L73855 15164
L73874 15136
L73912 15107
L74007 15107
L74045 15136
L74065 15164
L74084 15221
L74084 15364
L74065 15421
L74045 15450
L74007 15479
L73912 15479
L73874 15450
L73855 15421
" />
</g>
<g style="fill:#000000; fill-opacity:0.0; 
stroke:#000000; stroke-width:35; stroke-opacity:1; 
stroke-linecap:round; stroke-linejoin:round;">
<path d="M98180 25891
L97880 25891
L97880 25820
L97894 25777
L97922 25749
L97951 25734
L98008 25720
L98051 25720
L98108 25734
L98137 25749
L98165 25777
L98180 25820
L98180 25891
" />
<path d="M98180 25434
L98180 25606
" />
<path d="M98180 25520
L97880 25520
L97922 25549
L97951 25577
L97965 25606
" />
<path d="M96080 25163
L96080 25306
L95780 25306
" />
<path d="M95922 25063
L95922 24963
" />
<path d="M96080 24920
L96080 25063
L95780 25063
L95780 24920
" />
<path d="M96080 24791
L95780 24791
L95780 24720
L95794 24677
L95822 24649
L95851 24634
L95908 24620
L95951 24620
L96008 24634
L96037 24649
L96065 24677
L96080 24720
L96080 24791
" />
</g>
<g style="fill:#000000; fill-opacity:0.0; 
stroke:#000000; stroke-width:80; stroke-opacity:1; 
stroke-linecap:round; stroke-linejoin:round;">
<path d="M96950 13165
L96969 13184
L96988 13241
L96988 13279
L96969 13336
L96931 13375
L96893 13394
L96816 13413
L96759 13413
L96683 13394
L96645 13375
L96607 13336
L96588 13279
L96588 13241
L96607 13184
L96626 13165
" />
<path d="M96721 12822
L96988 12822
" />
<path d="M96569 12917
L96854 13013
L96854 12765
" />
<path d="M100837 12240
L100857 12259
L100876 12316
L100876 12354
L100857 12411
L100818 12449
L100780 12468
L100704 12487
L100647 12487
L100571 12468
L100533 12449
L100495 12411
L100476 12354
L100476 12316
L100495 12259
L100514 12240
" />
<path d="M100476 12106
L100476 11859
L100628 11992
L100628 11935
L100647 11897
L100666 11878
L100704 11859
L100799 11859
L100837 11878
L100857 11897
L100876 11935
L100876 12049
L100857 12087
L100837 12106
" />
<path d="M77706 14645
L77725 14664
L77744 14721
L77744 14759
L77725 14816
L77687 14854
L77649 14873
L77573 14892
L77516 14892
L77440 14873
L77402 14854
L77364 14816
L77344 14759
L77344 14721
L77364 14664
L77383 14645
" />
<path d="M77344 14302
L77344 14378
L77364 14416
L77383 14435
L77440 14473
L77516 14492
L77668 14492
L77706 14473
L77725 14454
L77744 14416
L77744 14340
L77725 14302
L77706 14283
L77668 14264
L77573 14264
L77535 14283
L77516 14302
L77497 14340
L77497 14416
L77516 14454
L77535 14473
L77573 14492
" />
<path d="M70984 14645
L71003 14664
L71022 14721
L71022 14759
L71003 14816
L70965 14854
L70927 14873
L70851 14892
L70793 14892
L70717 14873
L70679 14854
L70641 14816
L70622 14759
L70622 14721
L70641 14664
L70660 14645
" />
<path d="M70622 14283
L70622 14473
L70813 14492
L70793 14473
L70774 14435
L70774 14340
L70793 14302
L70813 14283
L70851 14264
L70946 14264
L70984 14283
L71003 14302
L71022 14340
L71022 14435
L71003 14473
L70984 14492
" />
</g>
<g style="fill:#000000; fill-opacity:0.0; 
stroke:#000000; stroke-width:50; stroke-opacity:1; 
stroke-linecap:round; stroke-linejoin:round;">
<path d="M99426 13268
L99440 13282
L99455 13325
L99455 13354
L99440 13397
L99412 13425
L99383 13439
L99326 13454
L99283 13454
L99226 13439
L99197 13425
L99169 13397
L99155 13354
L99155 13325
L99169 13282
L99183 13268
" />
<path d="M99455 12982
L99455 13154
" />
<path d="M99455 13068
L99155 13068
L99197 13097
L99226 13125
L99240 13154
" />
<path d="M100454 13486
L100454 13629
" />
<path d="M100454 13557
L100154 13557
L100196 13581
L100225 13605
L100239 13629
" />
<path d="M100154 13331
L100154 13307
L100168 13283
L100182 13272
L100211 13260
L100268 13248
L100339 13248
L100396 13260
L100425 13272
L100439 13283
L100454 13307
L100454 13331
L100439 13355
L100425 13367
L100396 13379
L100339 13391
L100268 13391
L100211 13379
L100182 13367
L100168 13355
L100154 13331
" />
<path d="M100254 13033
L100454 13033
" />
<path d="M100254 13141
L100411 13141
L100439 13129
L100454 13105
L100454 13069
L100439 13045
L100425 13033
" />
<path d="M100296 12831
L100296 12914
" />
<path d="M100454 12914
L100154 12914
L100154 12795
" />
</g>
<g style="fill:#000000; fill-opacity:0.0; 
stroke:#000000; stroke-width:80; stroke-opacity:1; 
stroke-linecap:round; stroke-linejoin:round;">
</g>
<g style="fill:#000000; fill-opacity:0.0; 
stroke:#000000; stroke-width:75; stroke-opacity:1; 
stroke-linecap:round; stroke-linejoin:round;">
<path d="M99839 14232
L99839 14004
" />
<path d="M99954 14118
L99725 14118
" />
</g>
<g style="fill:#000000; fill-opacity:0.0; 
stroke:#000000; stroke-width:80; stroke-opacity:1; 
stroke-linecap:round; stroke-linejoin:round;">
</g>
<g style="fill:#000000; fill-opacity:0.0; 
stroke:#000000; stroke-width:50; stroke-opacity:1; 
stroke-linecap:round; stroke-linejoin:round;">
<path d="M79332 14528
L79346 14542
L79360 14585
L79360 14614
L79346 14656
L79317 14685
L79289 14699
L79232 14714
L79189 14714
L79132 14699
L79103 14685
L79074 14656
L79060 14614
L79060 14585
L79074 14542
L79089 14528
" />
<path d="M79089 14414
L79074 14399
L79060 14371
L79060 14299
L79074 14271
L79089 14256
L79117 14242
L79146 14242
L79189 14256
L79360 14428
L79360 14242
" />
<path d="M78361 14746
L78361 14889
" />
<path d="M78361 14817
L78061 14817
L78104 14841
L78133 14865
L78147 14889
" />
<path d="M78061 14591
L78061 14567
L78075 14543
L78090 14531
L78118 14520
L78175 14508
L78247 14508
L78304 14520
L78333 14531
L78347 14543
L78361 14567
L78361 14591
L78347 14615
L78333 14627
L78304 14639
L78247 14650
L78175 14650
L78118 14639
L78090 14627
L78075 14615
L78061 14591
" />
<path d="M78161 14293
L78361 14293
" />
<path d="M78161 14400
L78318 14400
L78347 14389
L78361 14365
L78361 14329
L78347 14305
L78333 14293
" />
<path d="M78204 14091
L78204 14174
" />
<path d="M78361 14174
L78061 14174
L78061 14055
" />
</g>
<g style="fill:#000000; fill-opacity:0.0; 
stroke:#000000; stroke-width:80; stroke-opacity:1; 
stroke-linecap:round; stroke-linejoin:round;">
</g>
<g style="fill:#000000; fill-opacity:0.0; 
stroke:#000000; stroke-width:75; stroke-opacity:1; 
stroke-linecap:round; stroke-linejoin:round;">
<path d="M78747 13692
L78747 13464
" />
<path d="M78861 13578
L78633 13578
" />
</g>
<g style="fill:#000000; fill-opacity:0.0; 
stroke:#000000; stroke-width:80; stroke-opacity:1; 
stroke-linecap:round; stroke-linejoin:round;">
</g>
<g style="fill:#000000; fill-opacity:0.0; 
stroke:#000000; stroke-width:100; stroke-opacity:1; 
stroke-linecap:round; stroke-linejoin:round;">
<path d="M70636 19871
L70617 19909
L70617 19966
L70636 20024
L70674 20062
L70712 20081
L70788 20100
L70845 20100
L70922 20081
L70960 20062
L70998 20024
L71017 19966
L71017 19928
L70998 19871
L70979 19852
L70845 19852
L70845 19928
" />
<path d="M71017 19681
L70617 19681
L71017 19452
L70617 19452
" />
<path d="M71017 19262
L70617 19262
L70617 19166
L70636 19109
L70674 19071
L70712 19052
L70788 19033
L70845 19033
L70922 19052
L70960 19071
L70998 19109
L71017 19166
L71017 19262
" />
<path d="M79730 21210
L79711 21248
L79711 21305
L79730 21362
L79769 21400
L79807 21419
L79883 21438
L79940 21438
L80016 21419
L80054 21400
L80092 21362
L80111 21305
L80111 21267
L80092 21210
L80073 21191
L79940 21191
L79940 21267
" />
<path d="M80111 21019
L79711 21019
L80111 20791
L79711 20791
" />
<path d="M80111 20600
L79711 20600
L79711 20505
L79730 20448
L79769 20410
L79807 20391
L79883 20372
L79940 20372
L80016 20391
L80054 20410
L80092 20448
L80111 20505
L80111 20600
" />
<path d="M95994 34653
L95956 34634
L95899 34634
L95842 34653
L95803 34691
L95784 34729
L95765 34806
L95765 34863
L95784 34939
L95803 34977
L95842 35015
L95899 35034
L95937 35034
L95994 35015
L96013 34996
L96013 34863
L95937 34863
" />
<path d="M96184 35034
L96184 34634
L96413 35034
L96413 34634
" />
<path d="M96603 35034
L96603 34634
L96699 34634
L96756 34653
L96794 34691
L96813 34729
L96832 34806
L96832 34863
L96813 34939
L96794 34977
L96756 35015
L96699 35034
L96603 35034
" />
<path d="M96791 44929
L96753 44910
L96696 44910
L96639 44929
L96601 44967
L96582 45005
L96563 45081
L96563 45138
L96582 45215
L96601 45253
L96639 45291
L96696 45310
L96734 45310
L96791 45291
L96810 45272
L96810 45138
L96734 45138
" />
<path d="M96982 45310
L96982 44910
L97210 45310
L97210 44910
" />
<path d="M97401 45310
L97401 44910
L97496 44910
L97553 44929
L97591 44967
L97610 45005
L97629 45081
L97629 45138
L97610 45215
L97591 45253
L97553 45291
L97496 45310
L97401 45310
" />
<path d="M70718 45697
L70680 45678
L70623 45678
L70566 45697
L70528 45735
L70509 45773
L70490 45849
L70490 45906
L70509 45982
L70528 46020
L70566 46058
L70623 46078
L70661 46078
L70718 46058
L70737 46039
L70737 45906
L70661 45906
" />
<path d="M70909 46078
L70909 45678
L71137 46078
L71137 45678
" />
<path d="M71328 46078
L71328 45678
L71423 45678
L71480 45697
L71518 45735
L71537 45773
L71556 45849
L71556 45906
L71537 45982
L71518 46020
L71480 46058
L71423 46078
L71328 46078
" />
<path d="M103327 44958
L103289 44939
L103231 44939
L103174 44958
L103136 44997
L103117 45035
L103098 45111
L103098 45168
L103117 45244
L103136 45282
L103174 45320
L103231 45339
L103269 45339
L103327 45320
L103346 45301
L103346 45168
L103269 45168
" />
<path d="M103517 45339
L103517 44939
L103746 45339
L103746 44939
" />
<path d="M103936 45339
L103936 44939
L104031 44939
L104089 44958
L104127 44997
L104146 45035
L104165 45111
L104165 45168
L104146 45244
L104127 45282
L104089 45320
L104031 45339
L103936 45339
" />
<path d="M82427 15442
L82408 15480
L82408 15537
L82427 15594
L82465 15633
L82503 15652
L82580 15671
L82637 15671
L82713 15652
L82751 15633
L82789 15594
L82808 15537
L82808 15499
L82789 15442
L82770 15423
L82637 15423
L82637 15499
" />
<path d="M82808 15252
L82408 15252
L82808 15023
L82408 15023
" />
<path d="M82808 14833
L82408 14833
L82408 14737
L82427 14680
L82465 14642
L82503 14623
L82580 14604
L82637 14604
L82713 14623
L82751 14642
L82789 14680
L82808 14737
L82808 14833
" />
<path d="M95725 21003
L95705 21041
L95705 21098
L95725 21155
L95763 21194
L95801 21213
L95877 21232
L95934 21232
L96010 21213
L96048 21194
L96086 21155
L96105 21098
L96105 21060
L96086 21003
L96067 20984
L95934 20984
L95934 21060
" />
<path d="M96105 20813
L95705 20813
L96105 20584
L95705 20584
" />
<path d="M96105 20394
L95705 20394
L95705 20298
L95725 20241
L95763 20203
L95801 20184
L95877 20165
L95934 20165
L96010 20184
L96048 20203
L96086 20241
L96105 20298
L96105 20394
" />
</g>
<g style="fill:#000000; fill-opacity:0.0; 
stroke:#000000; stroke-width:80; stroke-opacity:1; 
stroke-linecap:round; stroke-linejoin:round;">
<path d="M83095 13155
L82904 13155
L82885 13346
L82904 13327
L82942 13308
L83038 13308
L83076 13327
L83095 13346
L83114 13384
L83114 13479
L83095 13517
L83076 13536
L83038 13555
L82942 13555
L82904 13536
L82885 13517
" />
<path d="M83228 13155
L83361 13555
L83495 13155
" />
<path d="M83533 13594
L83838 13594
" />
<path d="M84009 13155
L84085 13155
L84123 13175
L84161 13213
L84180 13289
L84180 13422
L84161 13498
L84123 13536
L84085 13555
L84009 13555
L83971 13536
L83933 13498
L83914 13422
L83914 13289
L83933 13213
L83971 13175
L84009 13155
" />
<path d="M84352 13155
L84352 13479
L84371 13517
L84390 13536
L84428 13555
L84504 13555
L84542 13536
L84561 13517
L84580 13479
L84580 13155
" />
<path d="M84714 13155
L84942 13155
" />
<path d="M84828 13555
L84828 13155
" />
</g>
<g style="fill:#000000; fill-opacity:0.0; 
stroke:#000000; stroke-width:100; stroke-opacity:1; 
stroke-linecap:round; stroke-linejoin:round;">
<path d="M95138 29555
L95100 29536
L95042 29536
L94985 29555
L94947 29593
L94928 29631
L94909 29707
L94909 29764
L94928 29841
L94947 29879
L94985 29917
L95042 29936
L95081 29936
L95138 29917
L95157 29898
L95157 29764
L95081 29764
" />
<path d="M95328 29936
L95328 29536
L95557 29936
L95557 29536
" />
<path d="M95747 29936
L95747 29536
L95842 29536
L95900 29555
L95938 29593
L95957 29631
L95976 29707
L95976 29764
L95957 29841
L95938 29879
L95900 29917
L95842 29936
L95747 29936
" />
<path d="M95394 11317
L95355 11298
L95298 11298
L95241 11317
L95203 11355
L95184 11393
L95165 11469
L95165 11526
L95184 11602
L95203 11640
L95241 11679
L95298 11698
L95336 11698
L95394 11679
L95413 11660
L95413 11526
L95336 11526
" />
<path d="M95584 11698
L95584 11298
L95813 11698
L95813 11298
" />
<path d="M96003 11698
L96003 11298
L96098 11298
L96155 11317
L96194 11355
L96213 11393
L96232 11469
L96232 11526
L96213 11602
L96194 11640
L96155 11679
L96098 11698
L96003 11698
" />
</g>
<g style="fill:#000000; fill-opacity:0.0; 
stroke:#000000; stroke-width:80; stroke-opacity:1; 
stroke-linecap:round; stroke-linejoin:round;">
<path d="M101437 24312
L101456 24255
L101456 24160
L101437 24122
L101418 24103
L101380 24084
L101342 24084
L101304 24103
L101284 24122
L101265 24160
L101246 24236
L101227 24274
L101208 24293
L101170 24312
L101132 24312
L101094 24293
L101075 24274
L101056 24236
L101056 24141
L101075 24084
" />
<path d="M101056 23950
L101456 23855
L101170 23779
L101456 23703
L101056 23608
" />
<path d="M101456 23246
L101456 23474
" />
<path d="M101456 23360
L101056 23360
L101113 23398
L101151 23436
L101170 23474
" />
<path d="M102156 25055
L101965 25189
" />
<path d="M102156 25284
L101756 25284
L101756 25131
L101775 25093
L101794 25074
L101832 25055
L101889 25055
L101927 25074
L101946 25093
L101965 25131
L101965 25284
" />
<path d="M102137 24731
L102156 24770
L102156 24846
L102137 24884
L102099 24903
L101946 24903
L101908 24884
L101889 24846
L101889 24770
L101908 24731
L101946 24712
L101984 24712
L102023 24903
" />
<path d="M102137 24560
L102156 24522
L102156 24446
L102137 24408
L102099 24389
L102080 24389
L102042 24408
L102023 24446
L102023 24503
L102004 24541
L101965 24560
L101946 24560
L101908 24541
L101889 24503
L101889 24446
L101908 24408
" />
<path d="M102137 24065
L102156 24103
L102156 24179
L102137 24217
L102099 24236
L101946 24236
L101908 24217
L101889 24179
L101889 24103
L101908 24065
L101946 24046
L101984 24046
L102023 24236
" />
<path d="M101889 23931
L101889 23779
" />
<path d="M101756 23874
L102099 23874
L102137 23855
L102156 23817
L102156 23779
" />
<path d="M102194 23741
L102194 23436
" />
<path d="M102137 23170
L102156 23208
L102156 23284
L102137 23322
L102118 23341
L102080 23360
L101965 23360
L101927 23341
L101908 23322
L101889 23284
L101889 23208
L101908 23170
" />
<path d="M102156 22998
L101889 22998
" />
<path d="M101756 22998
L101775 23017
L101794 22998
L101775 22979
L101756 22998
L101794 22998
" />
<path d="M102156 22636
L101946 22636
L101908 22655
L101889 22693
L101889 22770
L101908 22808
" />
<path d="M102137 22636
L102156 22674
L102156 22770
L102137 22808
L102099 22827
L102061 22827
L102023 22808
L102004 22770
L102004 22674
L101984 22636
" />
<path d="M102156 22274
L101946 22274
L101908 22293
L101889 22331
L101889 22408
L101908 22446
" />
<path d="M102137 22274
L102156 22312
L102156 22408
L102137 22446
L102099 22465
L102061 22465
L102023 22446
L102004 22408
L102004 22312
L101984 22274
" />
<path d="M100327 17831
L100574 17831
L100441 17983
L100498 17983
L100536 18002
L100555 18021
L100574 18059
L100574 18155
L100555 18193
L100536 18212
L100498 18231
L100384 18231
L100346 18212
L100327 18193
" />
<path d="M100746 18193
L100765 18212
L100746 18231
L100727 18212
L100746 18193
L100746 18231
" />
<path d="M100993 18002
L100955 17983
L100936 17964
L100917 17926
L100917 17907
L100936 17869
L100955 17850
L100993 17831
L101069 17831
L101108 17850
L101127 17869
L101146 17907
L101146 17926
L101127 17964
L101108 17983
L101069 18002
L100993 18002
L100955 18021
L100936 18040
L100917 18078
L100917 18155
L100936 18193
L100955 18212
L100993 18231
L101069 18231
L101108 18212
L101127 18193
L101146 18155
L101146 18078
L101127 18040
L101108 18021
L101069 18002
" />
<path d="M101260 17831
L101393 18231
L101527 17831
" />
<path d="M101565 18269
L101869 18269
" />
<path d="M102041 17831
L102117 17831
L102155 17850
L102193 17888
L102212 17964
L102212 18097
L102193 18174
L102155 18212
L102117 18231
L102041 18231
L102003 18212
L101965 18174
L101946 18097
L101946 17964
L101965 17888
L102003 17850
L102041 17831
" />
<path d="M102384 17831
L102384 18155
L102403 18193
L102422 18212
L102460 18231
L102536 18231
L102574 18212
L102593 18193
L102612 18155
L102612 17831
" />
<path d="M102746 17831
L102974 17831
" />
<path d="M102860 18231
L102860 17831
" />
</g>
<g style="fill:#000000; fill-opacity:0.0; 
stroke:#000000; stroke-width:150; stroke-opacity:1; 
stroke-linecap:round; stroke-linejoin:round;">
<path d="M103988 11769
L104238 11769
" />
<path d="M104238 11769
L104238 15769
" />
<path d="M104238 15769
L103988 15769
" />
<path d="M102488 11769
L103988 11769
" />
<path d="M103988 11769
L103988 15769
" />
<path d="M103988 15769
L102488 15769
" />
<path d="M102488 15769
L102488 11769
" />
</g>
<g style="fill:#000000; fill-opacity:0.0; 
stroke:#000000; stroke-width:59.0551; stroke-opacity:1; 
stroke-linecap:round; stroke-linejoin:round;">
<path d="M90433 13671
L93661 13671
" />
<path d="M93661 13671
L93661 14852
" />
<path d="M93661 14852
L87204 14852
" />
<path d="M87204 14852
L87204 13671
" />
<path d="M87204 13671
L90433 13671
" />
</g>
<g style="fill:#000000; fill-opacity:0.0; 
stroke:#000000; stroke-width:120; stroke-opacity:1; 
stroke-linecap:round; stroke-linejoin:round;">
<path d="M98187 16604
L98587 16604
" />
<path d="M98587 16604
L98587 16204
" />
<path d="M98587 16204
L101787 16204
" />
<path d="M101787 16204
L101787 17004
" />
<path d="M101787 17004
L98587 17004
" />
<path d="M98587 17004
L98587 16604
" />
<path d="M98587 16404
L98787 16204
" />
<path d="M102187 16604
L101787 16604
" />
<path d="M96978 18984
L96978 19384
" />
<path d="M96978 19384
L97378 19384
" />
<path d="M97378 19384
L97378 22584
" />
<path d="M97378 22584
L96578 22584
" />
<path d="M96578 22584
L96578 19384
" />
<path d="M96578 19384
L96978 19384
" />
<path d="M97178 19384
L97378 19584
" />
<path d="M96978 22984
L96978 22584
" />
<path d="M97271 15137
L97671 15137
" />
<path d="M97671 15137
L97671 14737
" />
<path d="M97671 14737
L100871 14737
" />
<path d="M100871 14737
L100871 15537
" />
<path d="M100871 15537
L97671 15537
" />
<path d="M97671 15537
L97671 15137
" />
<path d="M97671 14937
L97871 14737
" />
<path d="M101271 15137
L100871 15137
" />
</g>
<g style="fill:#000000; fill-opacity:0.0; 
stroke:#000000; stroke-width:100; stroke-opacity:1; 
stroke-linecap:round; stroke-linejoin:round;">
<path d="M69122 18175
L69122 16175
" />
<path d="M67372 18175
L67372 16175
" />
<path d="M69872 16175
L69872 18175
" />
<path d="M69872 16175
L67372 16175
" />
<path d="M69872 18175
L67372 18175
" />
</g>
<g style="fill:#000000; fill-opacity:0.0; 
stroke:#000000; stroke-width:120; stroke-opacity:1; 
stroke-linecap:round; stroke-linejoin:round;">
<path d="M98659 30582
L97659 30582
" />
<path d="M98659 29582
L98659 37582
" />
<path d="M98659 37582
L97659 37582
" />
<path d="M97659 37582
L97659 29582
" />
<path d="M97659 29582
L98659 29582
" />
<path d="M95688 47385
L75688 47385
" />
<path d="M75688 45385
L95688 45385
" />
<path d="M75688 46385
L76688 46385
" />
<path d="M76688 46385
L76688 47385
" />
<path d="M75688 45385
L75688 47385
" />
<path d="M95688 47385
L95688 45385
" />
<path d="M95688 19385
L75688 19385
" />
<path d="M75688 17385
L95688 17385
" />
<path d="M75688 18385
L76688 18385
" />
<path d="M76688 18385
L76688 19385
" />
<path d="M75688 17385
L75688 19385
" />
<path d="M95688 19385
L95688 17385
" />
<path d="M100287 47677
L100287 27677
" />
<path d="M102287 27677
L102287 47677
" />
<path d="M101287 27677
L101287 28677
" />
<path d="M101287 28677
L100287 28677
" />
<path d="M102287 27677
L100287 27677
" />
<path d="M100287 47677
L102287 47677
" />
<path d="M72287 47677
L72287 27677
" />
<path d="M74287 27677
L74287 47677
" />
<path d="M73287 27677
L73287 28677
" />
<path d="M73287 28677
L72287 28677
" />
<path d="M74287 27677
L72287 27677
" />
<path d="M72287 47677
L74287 47677
" />
</g>
<g style="fill:#000000; fill-opacity:0.0; 
stroke:#000000; stroke-width:100; stroke-opacity:1; 
stroke-linecap:round; stroke-linejoin:round;">
<path d="M71507 13236
L71507 12986
" />
<path d="M71507 12986
L75007 12986
" />
<path d="M75007 12986
L75007 13236
" />
<path d="M71507 14736
L71507 13236
" />
<path d="M71507 13236
L75007 13236
" />
<path d="M75007 13236
L75007 14736
" />
<path d="M75007 14736
L71507 14736
" />
<path d="M96458 25690
L97458 25690
" />
</g>
<g style="fill:#000000; fill-opacity:0.0; 
stroke:#000000; stroke-width:60; stroke-opacity:1; 
stroke-linecap:round; stroke-linejoin:round;">
<path d="M97342.7 24609.5 A600 600 0.0 0 0 96958.7 24470.5 " />
<path d="M96958.7 24471.2 A599.256 599.256 0.0 0 0 96560.8 24622.4 " />
<path d="M96958.7 25669.7 A599.27 599.27 0.0 0 0 97348.7 25525.5 " />
<path d="M96574.6 25531.4 A600 600 0.0 0 0 96958.7 25670.5 " />
<path d="M97307.9 25558.3 A600 600 0.0 0 0 97558.7 25070.5 " />
<path d="M97558.7 25070.5 A600 600 0.0 0 0 97318.9 24590.7 " />
<path d="M96359.4 25070.5 A599.294 599.294 0.0 0 0 96590.5 25543.4 " />
<path d="M96590.1 24597 A600 600 0.0 0 0 96358.7 25070.5 " />
<path d="M97208.7 25070.5 A250 250 0.0 0 0 96958.7 24820.5 " />
<path d="M97358.7 25070.5 A400 400 0.0 0 0 96958.7 24670.5 " />
<path d="M96708.7 25070.5 A250 250 0.0 0 0 96958.7 25320.5 " />
<path d="M96558.7 25070.5 A400 400 0.0 0 0 96958.7 25470.5 " />
</g>
<g style="fill:#000000; fill-opacity:0.0; 
stroke:#000000; stroke-width:100; stroke-opacity:1; 
stroke-linecap:round; stroke-linejoin:round;">
<path d="M97471.8 25684.2 A800 800 0.0 0 0 97758.7 25070.5 " />
<path d="M97757.7 25070.5 A799 799 0.0 0 0 97335 24365.7 " />
<path d="M96159.7 25071.9 A798.972 798.972 0.0 0 0 96443 25680.7 " />
<path d="M96561.1 24376.3 A800 800 0.0 0 0 96158.7 25070.5 " />
<path d="M97337.9 24366.1 A800 800 0.0 0 0 96958.7 24270.5 " />
<path d="M96958.7 24270.9 A799.576 799.576 0.0 0 0 96539.7 24389.5 " />
</g>
<g style="fill:#000000; fill-opacity:0.0; 
stroke:#000000; stroke-width:120; stroke-opacity:1; 
stroke-linecap:round; stroke-linejoin:round;">
<path d="M97226 14178
L97226 12198
" />
<path d="M97226 12198
L98226 12198
" />
<path d="M98226 12198
L98226 14198
" />
<path d="M98226 14198
L97226 14198
" />
<path d="M97476 14198
L97226 13948
" />
<path d="M101114 13253
L101114 11273
" />
<path d="M101114 11273
L102114 11273
" />
<path d="M102114 11273
L102114 13273
" />
<path d="M102114 13273
L101114 13273
" />
<path d="M101364 13273
L101114 13023
" />
<path d="M77183 13498
L77183 15478
" />
<path d="M77183 15478
L76183 15478
" />
<path d="M76183 15478
L76183 13478
" />
<path d="M76183 13478
L77183 13478
" />
<path d="M76933 13478
L77183 13728
" />
<path d="M70460 13498
L70460 15478
" />
<path d="M70460 15478
L69460 15478
" />
<path d="M69460 15478
L69460 13478
" />
<path d="M69460 13478
L70460 13478
" />
<path d="M70210 13478
L70460 13728
" />
</g>
<g style="fill:#000000; fill-opacity:0.0; 
stroke:#000000; stroke-width:50; stroke-opacity:1; 
stroke-linecap:round; stroke-linejoin:round;">
<circle cx="99832.7" cy="13218.5" r="1001.25" /> 
<circle cx="78740.2" cy="14478.3" r="1001.25" /> 
</g>
<g style="fill:#000000; fill-opacity:0.0; 
stroke:#000000; stroke-width:150; stroke-opacity:1; 
stroke-linecap:round; stroke-linejoin:round;">
<circle cx="69655.5" cy="19566.9" r="900" /> 
<circle cx="78750" cy="20905.5" r="900" /> 
<circle cx="96299.2" cy="36072.8" r="900" /> 
<circle cx="97096.5" cy="46348.4" r="900" /> 
<circle cx="71023.6" cy="47116.1" r="900" /> 
<circle cx="103632" cy="46378" r="900" /> 
<circle cx="81446.9" cy="15137.8" r="900" /> 
<circle cx="94744.1" cy="20698.8" r="900" /> 
</g>
<g style="fill:#000000; fill-opacity:0.0; 
stroke:#000000; stroke-width:120; stroke-opacity:1; 
stroke-linecap:round; stroke-linejoin:round;">
<path d="M83045 13744
L85045 13744
" />
<path d="M85045 13744
L85045 15744
" />
<path d="M85045 15744
L83045 15744
" />
<path d="M83045 15744
L83045 13744
" />
</g>
<g style="fill:#000000; fill-opacity:0.0; 
stroke:#000000; stroke-width:150; stroke-opacity:1; 
stroke-linecap:round; stroke-linejoin:round;">
<circle cx="95442.9" cy="30974.4" r="900" /> 
<circle cx="95698.8" cy="12736.2" r="900" /> 
</g>
<g style="fill:#000000; fill-opacity:0.0; 
stroke:#000000; stroke-width:50; stroke-opacity:1; 
stroke-linecap:round; stroke-linejoin:round;">
<circle cx="101594" cy="23779.5" r="1000" /> 
<path d="M100094 25279
L100094 22279
" />
<path d="M100094 22279
L103094 22279
" />
<path d="M103094 22279
L103094 25279
" />
<path d="M100094 25279
L103094 25279
" />
</g>
<g style="fill:#000000; fill-opacity:0.0; 
stroke:#000000; stroke-width:120; stroke-opacity:1; 
stroke-linecap:round; stroke-linejoin:round;">
<path d="M100791 18419
L102791 18419
" />
<path d="M102791 18419
L102791 20419
" />
<path d="M102791 20419
L100791 20419
" />
<path d="M100791 20419
L100791 18419
" />
</g>
<g style="fill:#000000; fill-opacity:0.0; 
stroke:#000000; stroke-width:669.291; stroke-opacity:1; 
stroke-linecap:round; stroke-linejoin:round;">
<path d="M103080 12769
L103395 12769
" />
<path d="M103080 13769
L103395 13769
" />
<path d="M103080 14769
L103395 14769
" />
</g>
<g style="fill:#000000; fill-opacity:0.0; 
stroke:#000000; stroke-width:787.402; stroke-opacity:1; 
stroke-linecap:round; stroke-linejoin:round;">
<path d="M91210 14261
L91210 14261
" />
<path d="M89655 14261
L89655 14261
" />
<path d="M92765 14261
L92765 14261
" />
<path d="M88080 14261
L88080 14261
" />
<path d="M98187 16604
L98187 16604
" />
<path d="M102187 16604
L102187 16604
" />
<path d="M96978 18984
L96978 18984
" />
<path d="M96978 22984
L96978 22984
" />
<path d="M97271 15137
L97271 15137
" />
<path d="M101271 15137
L101271 15137
" />
<path d="M68622 16675
L68622 16675
" />
<path d="M68622 17675
L68622 17675
" />
<path d="M98159 30082
L98159 30082
" />
<path d="M98159 31082
L98159 31082
" />
<path d="M98159 32082
L98159 32082
" />
<path d="M98159 33082
L98159 33082
" />
<path d="M98159 34082
L98159 34082
" />
<path d="M98159 35082
L98159 35082
" />
<path d="M98159 36082
L98159 36082
" />
<path d="M98159 37082
L98159 37082
" />
<path d="M76188 46885
L76188 46885
" />
<path d="M76188 45885
L76188 45885
" />
<path d="M77188 46885
L77188 46885
" />
<path d="M77188 45885
L77188 45885
" />
<path d="M78188 46885
L78188 46885
" />
<path d="M78188 45885
L78188 45885
" />
<path d="M79188 46885
L79188 46885
" />
<path d="M79188 45885
L79188 45885
" />
<path d="M80188 46885
L80188 46885
" />
<path d="M80188 45885
L80188 45885
" />
<path d="M81188 46885
L81188 46885
" />
<path d="M81188 45885
L81188 45885
" />
<path d="M82188 46885
L82188 46885
" />
<path d="M82188 45885
L82188 45885
" />
<path d="M83188 46885
L83188 46885
" />
<path d="M83188 45885
L83188 45885
" />
<path d="M84188 46885
L84188 46885
" />
<path d="M84188 45885
L84188 45885
" />
<path d="M85188 46885
L85188 46885
" />
<path d="M85188 45885
L85188 45885
" />
<path d="M86188 46885
L86188 46885
" />
<path d="M86188 45885
L86188 45885
" />
<path d="M87188 46885
L87188 46885
" />
<path d="M87188 45885
L87188 45885
" />
<path d="M88188 46885
L88188 46885
" />
<path d="M88188 45885
L88188 45885
" />
<path d="M89188 46885
L89188 46885
" />
<path d="M89188 45885
L89188 45885
" />
<path d="M90188 46885
L90188 46885
" />
<path d="M90188 45885
L90188 45885
" />
<path d="M91188 46885
L91188 46885
" />
<path d="M91188 45885
L91188 45885
" />
<path d="M92188 46885
L92188 46885
" />
<path d="M92188 45885
L92188 45885
" />
<path d="M93188 46885
L93188 46885
" />
<path d="M93188 45885
L93188 45885
" />
<path d="M94188 46885
L94188 46885
" />
<path d="M94188 45885
L94188 45885
" />
<path d="M95188 46885
L95188 46885
" />
<path d="M95188 45885
L95188 45885
" />
<path d="M76188 18885
L76188 18885
" />
<path d="M76188 17885
L76188 17885
" />
<path d="M77188 18885
L77188 18885
" />
<path d="M77188 17885
L77188 17885
" />
<path d="M78188 18885
L78188 18885
" />
<path d="M78188 17885
L78188 17885
" />
<path d="M79188 18885
L79188 18885
" />
<path d="M79188 17885
L79188 17885
" />
<path d="M80188 18885
L80188 18885
" />
<path d="M80188 17885
L80188 17885
" />
<path d="M81188 18885
L81188 18885
" />
<path d="M81188 17885
L81188 17885
" />
<path d="M82188 18885
L82188 18885
" />
<path d="M82188 17885
L82188 17885
" />
<path d="M83188 18885
L83188 18885
" />
<path d="M83188 17885
L83188 17885
" />
<path d="M84188 18885
L84188 18885
" />
<path d="M84188 17885
L84188 17885
" />
<path d="M85188 18885
L85188 18885
" />
<path d="M85188 17885
L85188 17885
" />
<path d="M86188 18885
L86188 18885
" />
<path d="M86188 17885
L86188 17885
" />
<path d="M87188 18885
L87188 18885
" />
<path d="M87188 17885
L87188 17885
" />
<path d="M88188 18885
L88188 18885
" />
<path d="M88188 17885
L88188 17885
" />
<path d="M89188 18885
L89188 18885
" />
<path d="M89188 17885
L89188 17885
" />
<path d="M90188 18885
L90188 18885
" />
<path d="M90188 17885
L90188 17885
" />
<path d="M91188 18885
L91188 18885
" />
<path d="M91188 17885
L91188 17885
" />
<path d="M92188 18885
L92188 18885
" />
<path d="M92188 17885
L92188 17885
" />
<path d="M93188 18885
L93188 18885
" />
<path d="M93188 17885
L93188 17885
" />
<path d="M94188 18885
L94188 18885
" />
<path d="M94188 17885
L94188 17885
" />
<path d="M95188 18885
L95188 18885
" />
<path d="M95188 17885
L95188 17885
" />
<path d="M100787 28177
L100787 28177
" />
<path d="M101787 28177
L101787 28177
" />
<path d="M100787 29177
L100787 29177
" />
<path d="M101787 29177
L101787 29177
" />
<path d="M100787 30177
L100787 30177
" />
<path d="M101787 30177
L101787 30177
" />
<path d="M100787 31177
L100787 31177
" />
<path d="M101787 31177
L101787 31177
" />
<path d="M100787 32177
L100787 32177
" />
<path d="M101787 32177
L101787 32177
" />
<path d="M100787 33177
L100787 33177
" />
<path d="M101787 33177
L101787 33177
" />
<path d="M100787 34177
L100787 34177
" />
<path d="M101787 34177
L101787 34177
" />
<path d="M100787 35177
L100787 35177
" />
<path d="M101787 35177
L101787 35177
" />
<path d="M100787 36177
L100787 36177
" />
<path d="M101787 36177
L101787 36177
" />
<path d="M100787 37177
L100787 37177
" />
<path d="M101787 37177
L101787 37177
" />
<path d="M100787 38177
L100787 38177
" />
<path d="M101787 38177
L101787 38177
" />
<path d="M100787 39177
L100787 39177
" />
<path d="M101787 39177
L101787 39177
" />
<path d="M100787 40177
L100787 40177
" />
<path d="M101787 40177
L101787 40177
" />
<path d="M100787 41177
L100787 41177
" />
<path d="M101787 41177
L101787 41177
" />
<path d="M100787 42177
L100787 42177
" />
<path d="M101787 42177
L101787 42177
" />
<path d="M100787 43177
L100787 43177
" />
<path d="M101787 43177
L101787 43177
" />
<path d="M100787 44177
L100787 44177
" />
<path d="M101787 44177
L101787 44177
" />
<path d="M100787 45177
L100787 45177
" />
<path d="M101787 45177
L101787 45177
" />
<path d="M100787 46177
L100787 46177
" />
<path d="M101787 46177
L101787 46177
" />
<path d="M100787 47177
L100787 47177
" />
<path d="M101787 47177
L101787 47177
" />
<path d="M72787 28177
L72787 28177
" />
<path d="M73787 28177
L73787 28177
" />
<path d="M72787 29177
L72787 29177
" />
<path d="M73787 29177
L73787 29177
" />
<path d="M72787 30177
L72787 30177
" />
<path d="M73787 30177
L73787 30177
" />
<path d="M72787 31177
L72787 31177
" />
<path d="M73787 31177
L73787 31177
" />
<path d="M72787 32177
L72787 32177
" />
<path d="M73787 32177
L73787 32177
" />
<path d="M72787 33177
L72787 33177
" />
<path d="M73787 33177
L73787 33177
" />
<path d="M72787 34177
L72787 34177
" />
<path d="M73787 34177
L73787 34177
" />
<path d="M72787 35177
L72787 35177
" />
<path d="M73787 35177
L73787 35177
" />
<path d="M72787 36177
L72787 36177
" />
<path d="M73787 36177
L73787 36177
" />
<path d="M72787 37177
L72787 37177
" />
<path d="M73787 37177
L73787 37177
" />
<path d="M72787 38177
L72787 38177
" />
<path d="M73787 38177
L73787 38177
" />
<path d="M72787 39177
L72787 39177
" />
<path d="M73787 39177
L73787 39177
" />
<path d="M72787 40177
L72787 40177
" />
<path d="M73787 40177
L73787 40177
" />
<path d="M72787 41177
L72787 41177
" />
<path d="M73787 41177
L73787 41177
" />
<path d="M72787 42177
L72787 42177
" />
<path d="M73787 42177
L73787 42177
" />
<path d="M72787 43177
L72787 43177
" />
<path d="M73787 43177
L73787 43177
" />
<path d="M72787 44177
L72787 44177
" />
<path d="M73787 44177
L73787 44177
" />
<path d="M72787 45177
L72787 45177
" />
<path d="M73787 45177
L73787 45177
" />
<path d="M72787 46177
L72787 46177
" />
<path d="M73787 46177
L73787 46177
" />
<path d="M72787 47177
L72787 47177
" />
<path d="M73787 47177
L73787 47177
" />
</g>
<g style="fill:#000000; fill-opacity:0.0; 
stroke:#000000; stroke-width:669.291; stroke-opacity:1; 
stroke-linecap:round; stroke-linejoin:round;">
<path d="M72257 14143
L72257 13828
" />
<path d="M73257 14143
L73257 13828
" />
<path d="M74257 14143
L74257 13828
" />
</g>
<g style="fill:#000000; fill-opacity:0.0; 
stroke:#000000; stroke-width:787.402; stroke-opacity:1; 
stroke-linecap:round; stroke-linejoin:round;">
<path d="M96958 24470
L96958 24470
" />
<path d="M96958 25470
L96958 25470
" />
</g>
<g style="fill:#000000; fill-opacity:0.0; 
stroke:#000000; stroke-width:39.3701; stroke-opacity:1; 
stroke-linecap:round; stroke-linejoin:round;">
</g>
<g style="fill:#000000; fill-opacity:1.0; 
stroke:#000000; stroke-width:39.3701; stroke-opacity:1; 
stroke-linecap:round; stroke-linejoin:round;">
<circle cx="97726.4" cy="13698.8" r="374.016" /> 
<circle cx="97726.4" cy="12698.8" r="374.016" /> 
<circle cx="101614" cy="12773.6" r="374.016" /> 
<circle cx="101614" cy="11773.6" r="374.016" /> 
<circle cx="76683.1" cy="13978.3" r="374.016" /> 
<circle cx="76683.1" cy="14978.3" r="374.016" /> 
<circle cx="69960.6" cy="13978.3" r="374.016" /> 
<circle cx="69960.6" cy="14978.3" r="374.016" /> 
</g>
<g style="fill:#000000; fill-opacity:1.0; 
stroke:#000000; stroke-width:787.402; stroke-opacity:1; 
stroke-linecap:round; stroke-linejoin:round;">
<path d="M99832 13718
L99832 13718
" />
</g>
<g style="fill:#000000; fill-opacity:1.0; 
stroke:#000000; stroke-width:39.3701; stroke-opacity:1; 
stroke-linecap:round; stroke-linejoin:round;">
<circle cx="99832.7" cy="12718.5" r="374.016" /> 
</g>
<g style="fill:#000000; fill-opacity:1.0; 
stroke:#000000; stroke-width:787.402; stroke-opacity:1; 
stroke-linecap:round; stroke-linejoin:round;">
<path d="M78740 13978
L78740 13978
" />
</g>
<g style="fill:#000000; fill-opacity:1.0; 
stroke:#000000; stroke-width:39.3701; stroke-opacity:1; 
stroke-linecap:round; stroke-linejoin:round;">
<circle cx="78740.2" cy="14978.3" r="374.016" /> 
<circle cx="69655.5" cy="19566.9" r="570.866" /> 
<circle cx="78750" cy="20905.5" r="570.866" /> 
<circle cx="96299.2" cy="36072.8" r="570.866" /> 
<circle cx="97096.5" cy="46348.4" r="570.866" /> 
<circle cx="71023.6" cy="47116.1" r="570.866" /> 
<circle cx="103632" cy="46378" r="570.866" /> 
<circle cx="81446.9" cy="15137.8" r="570.866" /> 
<circle cx="94744.1" cy="20698.8" r="570.866" /> 
</g>
<g style="fill:#000000; fill-opacity:1.0; 
stroke:#000000; stroke-width:787.402; stroke-opacity:1; 
stroke-linecap:round; stroke-linejoin:round;">
<path d="M83545 15244
L83545 15244
" />
<path d="M83545 14244
L83545 14244
" />
<path d="M84545 15244
L84545 15244
" />
<path d="M84545 14244
L84545 14244
" />
</g>
<g style="fill:#000000; fill-opacity:1.0; 
stroke:#000000; stroke-width:39.3701; stroke-opacity:1; 
stroke-linecap:round; stroke-linejoin:round;">
<circle cx="95442.9" cy="30974.4" r="570.866" /> 
<circle cx="95698.8" cy="12736.2" r="570.866" /> 
<circle cx="100594" cy="22279.5" r="570.866" /> 
<circle cx="102594" cy="22279.5" r="570.866" /> 
<circle cx="100594" cy="25279.5" r="570.866" /> 
<circle cx="102594" cy="25279.5" r="570.866" /> 
<polyline style="fill-rule:evenodd;"
points="97243,31238
96732,31238
96732,30928
97243,30928
97243,31238
" /> 
<polyline style="fill-rule:evenodd;"
points="97243,30488
96732,30488
96732,30178
97243,30178
97243,30488
" /> 
<polyline style="fill-rule:evenodd;"
points="96996,29311
96996,29822
96686,29822
96686,29311
96996,29311
" /> 
<polyline style="fill-rule:evenodd;"
points="96246,29311
96246,29822
95936,29822
95936,29311
96246,29311
" /> 
</g>
<g style="fill:#000000; fill-opacity:1.0; 
stroke:#000000; stroke-width:787.402; stroke-opacity:1; 
stroke-linecap:round; stroke-linejoin:round;">
<path d="M101291 19919
L101291 19919
" />
<path d="M101291 18919
L101291 18919
" />
<path d="M102291 19919
L102291 19919
" />
<path d="M102291 18919
L102291 18919
" />
</g>
<g style="fill:#000000; fill-opacity:1.0; 
stroke:#000000; stroke-width:314.961; stroke-opacity:1; 
stroke-linecap:round; stroke-linejoin:round;">
<path d="M70334 44478
L70334 44576
" />
<path d="M70334 44576
L70954 45196
" />
<path d="M70334 26683
L71102 25915
" />
<path d="M71122 25915
L71122 25925
" />
<path d="M71102 25915
L71122 25915
" />
<path d="M71122 25925
L82952 25925
" />
<path d="M83188 18885
L83188 25688
" />
<path d="M83188 25688
L82952 25925
" />
<path d="M72787 45177
L72767 45196
" />
<path d="M72767 45196
L70954 45196
" />
<path d="M70334 44478
L70334 26683
" />
<path d="M71387 43750
L71820 44183
" />
<path d="M72781 44183
L72787 44177
" />
<path d="M84188 26332
L83710 26811
" />
<path d="M83710 26811
L72234 26811
" />
<path d="M84188 18885
L84188 26332
" />
<path d="M71387 27618
L71387 43750
" />
<path d="M71387 27657
L71387 27627
" />
<path d="M71387 27627
L71397 27618
" />
<path d="M71397 27618
L71387 27618
" />
<path d="M72234 26811
L71387 27657
" />
<path d="M71791 44183
L72781 44183
" />
<path d="M71820 44183
L71820 44153
" />
<path d="M71820 44153
L71791 44124
" />
<path d="M71791 44124
L71791 44183
" />
<path d="M99832 12718
L100777 11773
" />
<path d="M100777 11773
L101614 11773
" />
<path d="M96091 29566
L95442 30215
" />
<path d="M95442 30215
L95442 30974
" />
<path d="M101787 47177
L101787 46177
" />
<path d="M101787 46177
L103431 46177
" />
<path d="M103431 46177
L103631 46377
" />
<path d="M94188 45885
L95188 45885
" />
<path d="M95188 45885
L95188 46885
" />
<path d="M95188 46885
L96559 46885
" />
<path d="M96559 46885
L97096 46348
" />
<path d="M81188 46885
L81188 45885
" />
<path d="M81188 45885
L82188 45885
" />
<path d="M82188 45885
L82188 46885
" />
<path d="M82188 46885
L81188 46885
" />
<path d="M78188 46885
L78179 46895
" />
<path d="M78179 46895
L78179 48051
" />
<path d="M72787 46177
L72787 47177
" />
<path d="M72787 47177
L71084 47177
" />
<path d="M71084 47177
L71023 47116
" />
<path d="M88188 17885
L89188 17885
" />
<path d="M81188 18885
L82188 18885
" />
<path d="M79188 18885
L78188 18885
" />
<path d="M78188 18885
L78188 17885
" />
<path d="M78188 17885
L79188 17885
" />
<path d="M79188 17885
L79188 18885
" />
<path d="M81188 18885
L81188 17885
" />
<path d="M81188 17885
L82188 17885
" />
<path d="M82188 17885
L82188 18885
" />
<path d="M88188 17885
L88188 18885
" />
<path d="M88188 18885
L89188 18885
" />
<path d="M89188 18885
L89188 17885
" />
<path d="M94188 17885
L95188 17885
" />
<path d="M95188 17885
L95188 18885
" />
<path d="M95188 18885
L95188 20253
" />
<path d="M95188 20253
L94744 20698
" />
<path d="M98159 31082
L98158 31083
" />
<path d="M98158 31083
L96988 31083
" />
<path d="M95442 30974
L95552 31083
" />
<path d="M95552 31083
L96988 31083
" />
<path d="M68622 17675
L68486 17675
" />
<path d="M68486 17675
L67736 18425
" />
<path d="M98159 36082
L97125 36082
" />
<path d="M97125 36082
L97027 35984
" />
<path d="M101787 37177
L102600 37177
" />
<path d="M102600 37177
L102883 37460
" />
<path d="M101787 38177
L102783 38177
" />
<path d="M102783 38177
L102883 38277
" />
<path d="M101787 39177
L102681 39177
" />
<path d="M102681 39177
L102726 39222
" />
<path d="M101787 40177
L102627 40177
" />
<path d="M102627 40177
L102637 40167
" />
<path d="M101787 41177
L102653 41177
" />
<path d="M102653 41177
L102814 41338
" />
<path d="M101787 42177
L103210 42177
" />
<path d="M103210 42177
L103228 42194
" />
<path d="M101787 43177
L102620 43177
" />
<path d="M102620 43177
L102992 42805
" />
<path d="M101787 29177
L103124 29177
" />
<path d="M103124 29177
L103139 29192
" />
<path d="M97559 38188
L96318 38188
" />
<path d="M96440 32082
L98159 32082
" />
<path d="M95068 33454
L96440 32082
" />
<path d="M95068 36938
L95068 33454
" />
<path d="M96318 38188
L95068 36938
" />
<path d="M100787 38177
L100775 38188
" />
<path d="M100775 38188
L97559 38188
" />
<path d="M98159 33082
L98929 33082
" />
<path d="M99903 37177
L100787 37177
" />
<path d="M99458 36732
L99903 37177
" />
<path d="M99458 33612
L99458 36732
" />
<path d="M98929 33082
L99458 33612
" />
<path d="M100594 25279
L100594 22279
" />
<path d="M99301 26572
L100594 25279
" />
<path d="M99301 28395
L99301 26572
" />
<path d="M100082 29177
L99301 28395
" />
<path d="M100787 29177
L100082 29177
" />
<path d="M83188 45039
L83238 45039
" />
<path d="M83238 45039
L83681 44596
" />
<path d="M83188 45039
L83188 45885
" />
<path d="M97736 44596
L97736 44566
" />
<path d="M97736 44566
L98385 43917
" />
<path d="M98385 39980
L98385 39960
" />
<path d="M98385 39960
L99124 39222
" />
<path d="M84586 44596
L83681 44596
" />
<path d="M100742 39222
L100787 39177
" />
<path d="M99124 39222
L100742 39222
" />
<path d="M98385 43917
L98385 39980
" />
<path d="M84586 44596
L97736 44596
" />
<path d="M84222 47903
L84665 48346
" />
<path d="M84188 47903
L84222 47903
" />
<path d="M84188 47903
L84188 46885
" />
<path d="M98484 48346
L98513 48346
" />
<path d="M85541 48346
L84665 48346
" />
<path d="M98484 48346
L85541 48346
" />
<path d="M100787 40177
L100767 40196
" />
<path d="M100767 40196
L99822 40196
" />
<path d="M99468 40649
L99468 47391
" />
<path d="M99468 40551
L99822 40196
" />
<path d="M99468 40649
L99468 40551
" />
<path d="M98513 48346
L99468 47391
" />
<path d="M96958 25470
L89525 25470
" />
<path d="M86188 22133
L86188 18885
" />
<path d="M89525 25470
L86188 22133
" />
</g>
<g style="fill:#000000; fill-opacity:1.0; 
stroke:#000000; stroke-width:393.701; stroke-opacity:1; 
stroke-linecap:round; stroke-linejoin:round;">
<path d="M97293 17598
L99970 17598
" />
<path d="M99970 17598
L101291 18919
" />
<path d="M97096 17795
L97293 17598
" />
<path d="M97293 17598
L96909 17598
" />
<path d="M96909 17598
L95875 16564
" />
<path d="M95875 16564
L77194 16564
" />
<path d="M77194 16564
L77188 16570
" />
<path d="M77188 16570
L77188 17885
" />
<path d="M97271 15137
L97271 14153
" />
<path d="M97271 14153
L97726 13698
" />
<path d="M99832 13718
L97746 13718
" />
<path d="M97746 13718
L97726 13698
" />
<path d="M103238 13769
L99883 13769
" />
<path d="M99883 13769
L99832 13718
" />
<path d="M97096 17795
L97096 15312
" />
<path d="M97096 15312
L97271 15137
" />
<path d="M102291 18919
L101291 18919
" />
<path d="M96978 18984
L96978 17913
" />
<path d="M96978 17913
L97096 17795
" />
<path d="M76188 17885
L77188 18885
" />
<path d="M76188 18885
L76188 17885
" />
<path d="M76188 17885
L77188 17885
" />
<path d="M77188 17885
L77188 18885
" />
<path d="M77188 18885
L76188 18885
" />
<path d="M76188 18885
L77188 17885
" />
<path d="M96841 29566
L97357 30082
" />
<path d="M97357 30082
L98159 30082
" />
<path d="M96988 30333
L97239 30082
" />
<path d="M97239 30082
L98159 30082
" />
<path d="M98159 30082
L98159 29803
" />
<path d="M96533 28177
L73787 28177
" />
<path d="M98159 29803
L96533 28177
" />
<path d="M76683 13978
L78740 13978
" />
<path d="M74257 13986
L76675 13986
" />
<path d="M76675 13986
L76683 13978
" />
<path d="M68622 16675
L73954 16675
" />
<path d="M73954 16675
L74257 16372
" />
<path d="M78740 13978
L83171 13870
" />
<path d="M83171 13870
L83545 14244
" />
<path d="M83545 14244
L83545 15244
" />
<path d="M74257 16372
L74257 13986
" />
</g>
<g style="fill:#000000; fill-opacity:1.0; 
stroke:#000000; stroke-width:314.961; stroke-opacity:1; 
stroke-linecap:round; stroke-linejoin:round;">
<path d="M101271 15137
L102870 15137
" />
<path d="M102870 15137
L103238 14769
" />
<path d="M98187 16604
L99805 16604
" />
<path d="M99805 16604
L101271 15137
" />
<path d="M96978 22984
L96978 24450
" />
<path d="M96978 24450
L96958 24470
" />
</g>
<g style="fill:#000000; fill-opacity:1.0; 
stroke:#000000; stroke-width:393.701; stroke-opacity:1; 
stroke-linecap:round; stroke-linejoin:round;">
<path d="M69960 13978
L69968 13986
" />
<path d="M69968 13986
L72257 13986
" />
<path d="M103238 12769
L103238 11250
" />
<path d="M88070 13149
L88080 13159
" />
<path d="M88080 13159
L88080 13257
" />
<path d="M90816 10403
L88070 13149
" />
<path d="M102391 10403
L90816 10403
" />
<path d="M103238 11250
L102391 10403
" />
<path d="M88080 13257
L88080 14261
" />
<path d="M101614 12773
L103234 12773
" />
<path d="M103234 12773
L103238 12769
" />
</g>
<g style="fill:#FFFFFF; fill-opacity:1.0; 
stroke:#FFFFFF; stroke-width:39.3701; stroke-opacity:1; 
stroke-linecap:round; stroke-linejoin:round;">
<circle cx="103238" cy="12769.7" r="118.11" /> 
<circle cx="103238" cy="13769.7" r="118.11" /> 
<circle cx="103238" cy="14769.7" r="118.11" /> 
<circle cx="91210.6" cy="14261.8" r="118.11" /> 
<circle cx="89655.5" cy="14261.8" r="118.11" /> 
<circle cx="92765.7" cy="14261.8" r="118.11" /> 
<circle cx="88080.7" cy="14261.8" r="118.11" /> 
<circle cx="98187" cy="16604.3" r="118.11" /> 
<circle cx="102187" cy="16604.3" r="118.11" /> 
<circle cx="96978.3" cy="18984.3" r="118.11" /> 
<circle cx="96978.3" cy="22984.3" r="118.11" /> 
<circle cx="97271.7" cy="15137.8" r="118.11" /> 
<circle cx="101272" cy="15137.8" r="118.11" /> 
<circle cx="68622" cy="16675.2" r="118.11" /> 
<circle cx="68622" cy="17675.2" r="118.11" /> 
<circle cx="98159.4" cy="30082.7" r="118.11" /> 
<circle cx="98159.4" cy="31082.7" r="118.11" /> 
<circle cx="98159.4" cy="32082.7" r="118.11" /> 
<circle cx="98159.4" cy="33082.7" r="118.11" /> 
<circle cx="98159.4" cy="34082.7" r="118.11" /> 
<circle cx="98159.4" cy="35082.7" r="118.11" /> 
<circle cx="98159.4" cy="36082.7" r="118.11" /> 
<circle cx="98159.4" cy="37082.7" r="118.11" /> 
<circle cx="76189" cy="46885.8" r="118.11" /> 
<circle cx="76189" cy="45885.8" r="118.11" /> 
<circle cx="77189" cy="46885.8" r="118.11" /> 
<circle cx="77189" cy="45885.8" r="118.11" /> 
<circle cx="78189" cy="46885.8" r="118.11" /> 
<circle cx="78189" cy="45885.8" r="118.11" /> 
<circle cx="79189" cy="46885.8" r="118.11" /> 
<circle cx="79189" cy="45885.8" r="118.11" /> 
<circle cx="80189" cy="46885.8" r="118.11" /> 
<circle cx="80189" cy="45885.8" r="118.11" /> 
<circle cx="81189" cy="46885.8" r="118.11" /> 
<circle cx="81189" cy="45885.8" r="118.11" /> 
<circle cx="82189" cy="46885.8" r="118.11" /> 
<circle cx="82189" cy="45885.8" r="118.11" /> 
<circle cx="83189" cy="46885.8" r="118.11" /> 
<circle cx="83189" cy="45885.8" r="118.11" /> 
<circle cx="84189" cy="46885.8" r="118.11" /> 
<circle cx="84189" cy="45885.8" r="118.11" /> 
<circle cx="85189" cy="46885.8" r="118.11" /> 
<circle cx="85189" cy="45885.8" r="118.11" /> 
<circle cx="86189" cy="46885.8" r="118.11" /> 
<circle cx="86189" cy="45885.8" r="118.11" /> 
<circle cx="87189" cy="46885.8" r="118.11" /> 
<circle cx="87189" cy="45885.8" r="118.11" /> 
<circle cx="88189" cy="46885.8" r="118.11" /> 
<circle cx="88189" cy="45885.8" r="118.11" /> 
<circle cx="89189" cy="46885.8" r="118.11" /> 
<circle cx="89189" cy="45885.8" r="118.11" /> 
<circle cx="90189" cy="46885.8" r="118.11" /> 
<circle cx="90189" cy="45885.8" r="118.11" /> 
<circle cx="91189" cy="46885.8" r="118.11" /> 
<circle cx="91189" cy="45885.8" r="118.11" /> 
<circle cx="92189" cy="46885.8" r="118.11" /> 
<circle cx="92189" cy="45885.8" r="118.11" /> 
<circle cx="93189" cy="46885.8" r="118.11" /> 
<circle cx="93189" cy="45885.8" r="118.11" /> 
<circle cx="94189" cy="46885.8" r="118.11" /> 
<circle cx="94189" cy="45885.8" r="118.11" /> 
<circle cx="95189" cy="46885.8" r="118.11" /> 
<circle cx="95189" cy="45885.8" r="118.11" /> 
<circle cx="76189" cy="18885.8" r="118.11" /> 
<circle cx="76189" cy="17885.8" r="118.11" /> 
<circle cx="77189" cy="18885.8" r="118.11" /> 
<circle cx="77189" cy="17885.8" r="118.11" /> 
<circle cx="78189" cy="18885.8" r="118.11" /> 
<circle cx="78189" cy="17885.8" r="118.11" /> 
<circle cx="79189" cy="18885.8" r="118.11" /> 
<circle cx="79189" cy="17885.8" r="118.11" /> 
<circle cx="80189" cy="18885.8" r="118.11" /> 
<circle cx="80189" cy="17885.8" r="118.11" /> 
<circle cx="81189" cy="18885.8" r="118.11" /> 
<circle cx="81189" cy="17885.8" r="118.11" /> 
<circle cx="82189" cy="18885.8" r="118.11" /> 
<circle cx="82189" cy="17885.8" r="118.11" /> 
<circle cx="83189" cy="18885.8" r="118.11" /> 
<circle cx="83189" cy="17885.8" r="118.11" /> 
<circle cx="84189" cy="18885.8" r="118.11" /> 
<circle cx="84189" cy="17885.8" r="118.11" /> 
<circle cx="85189" cy="18885.8" r="118.11" /> 
<circle cx="85189" cy="17885.8" r="118.11" /> 
<circle cx="86189" cy="18885.8" r="118.11" /> 
<circle cx="86189" cy="17885.8" r="118.11" /> 
<circle cx="87189" cy="18885.8" r="118.11" /> 
<circle cx="87189" cy="17885.8" r="118.11" /> 
<circle cx="88189" cy="18885.8" r="118.11" /> 
<circle cx="88189" cy="17885.8" r="118.11" /> 
<circle cx="89189" cy="18885.8" r="118.11" /> 
<circle cx="89189" cy="17885.8" r="118.11" /> 
<circle cx="90189" cy="18885.8" r="118.11" /> 
<circle cx="90189" cy="17885.8" r="118.11" /> 
<circle cx="91189" cy="18885.8" r="118.11" /> 
<circle cx="91189" cy="17885.8" r="118.11" /> 
<circle cx="92189" cy="18885.8" r="118.11" /> 
<circle cx="92189" cy="17885.8" r="118.11" /> 
<circle cx="93189" cy="18885.8" r="118.11" /> 
<circle cx="93189" cy="17885.8" r="118.11" /> 
<circle cx="94189" cy="18885.8" r="118.11" /> 
<circle cx="94189" cy="17885.8" r="118.11" /> 
<circle cx="95189" cy="18885.8" r="118.11" /> 
<circle cx="95189" cy="17885.8" r="118.11" /> 
<circle cx="100787" cy="28177.2" r="118.11" /> 
<circle cx="101787" cy="28177.2" r="118.11" /> 
<circle cx="100787" cy="29177.2" r="118.11" /> 
<circle cx="101787" cy="29177.2" r="118.11" /> 
<circle cx="100787" cy="30177.2" r="118.11" /> 
<circle cx="101787" cy="30177.2" r="118.11" /> 
<circle cx="100787" cy="31177.2" r="118.11" /> 
<circle cx="101787" cy="31177.2" r="118.11" /> 
<circle cx="100787" cy="32177.2" r="118.11" /> 
<circle cx="101787" cy="32177.2" r="118.11" /> 
<circle cx="100787" cy="33177.2" r="118.11" /> 
<circle cx="101787" cy="33177.2" r="118.11" /> 
<circle cx="100787" cy="34177.2" r="118.11" /> 
<circle cx="101787" cy="34177.2" r="118.11" /> 
<circle cx="100787" cy="35177.2" r="118.11" /> 
<circle cx="101787" cy="35177.2" r="118.11" /> 
<circle cx="100787" cy="36177.2" r="118.11" /> 
<circle cx="101787" cy="36177.2" r="118.11" /> 
<circle cx="100787" cy="37177.2" r="118.11" /> 
<circle cx="101787" cy="37177.2" r="118.11" /> 
<circle cx="100787" cy="38177.2" r="118.11" /> 
<circle cx="101787" cy="38177.2" r="118.11" /> 
<circle cx="100787" cy="39177.2" r="118.11" /> 
<circle cx="101787" cy="39177.2" r="118.11" /> 
<circle cx="100787" cy="40177.2" r="118.11" /> 
<circle cx="101787" cy="40177.2" r="118.11" /> 
<circle cx="100787" cy="41177.2" r="118.11" /> 
<circle cx="101787" cy="41177.2" r="118.11" /> 
<circle cx="100787" cy="42177.2" r="118.11" /> 
<circle cx="101787" cy="42177.2" r="118.11" /> 
<circle cx="100787" cy="43177.2" r="118.11" /> 
<circle cx="101787" cy="43177.2" r="118.11" /> 
<circle cx="100787" cy="44177.2" r="118.11" /> 
<circle cx="101787" cy="44177.2" r="118.11" /> 
<circle cx="100787" cy="45177.2" r="118.11" /> 
<circle cx="101787" cy="45177.2" r="118.11" /> 
<circle cx="100787" cy="46177.2" r="118.11" /> 
<circle cx="101787" cy="46177.2" r="118.11" /> 
<circle cx="100787" cy="47177.2" r="118.11" /> 
<circle cx="101787" cy="47177.2" r="118.11" /> 
<circle cx="72787.4" cy="28177.2" r="118.11" /> 
<circle cx="73787.4" cy="28177.2" r="118.11" /> 
<circle cx="72787.4" cy="29177.2" r="118.11" /> 
<circle cx="73787.4" cy="29177.2" r="118.11" /> 
<circle cx="72787.4" cy="30177.2" r="118.11" /> 
<circle cx="73787.4" cy="30177.2" r="118.11" /> 
<circle cx="72787.4" cy="31177.2" r="118.11" /> 
<circle cx="73787.4" cy="31177.2" r="118.11" /> 
<circle cx="72787.4" cy="32177.2" r="118.11" /> 
<circle cx="73787.4" cy="32177.2" r="118.11" /> 
<circle cx="72787.4" cy="33177.2" r="118.11" /> 
<circle cx="73787.4" cy="33177.2" r="118.11" /> 
<circle cx="72787.4" cy="34177.2" r="118.11" /> 
<circle cx="73787.4" cy="34177.2" r="118.11" /> 
<circle cx="72787.4" cy="35177.2" r="118.11" /> 
<circle cx="73787.4" cy="35177.2" r="118.11" /> 
<circle cx="72787.4" cy="36177.2" r="118.11" /> 
<circle cx="73787.4" cy="36177.2" r="118.11" /> 
<circle cx="72787.4" cy="37177.2" r="118.11" /> 
<circle cx="73787.4" cy="37177.2" r="118.11" /> 
<circle cx="72787.4" cy="38177.2" r="118.11" /> 
<circle cx="73787.4" cy="38177.2" r="118.11" /> 
<circle cx="72787.4" cy="39177.2" r="118.11" /> 
<circle cx="73787.4" cy="39177.2" r="118.11" /> 
<circle cx="72787.4" cy="40177.2" r="118.11" /> 
<circle cx="73787.4" cy="40177.2" r="118.11" /> 
<circle cx="72787.4" cy="41177.2" r="118.11" /> 
<circle cx="73787.4" cy="41177.2" r="118.11" /> 
<circle cx="72787.4" cy="42177.2" r="118.11" /> 
<circle cx="73787.4" cy="42177.2" r="118.11" /> 
<circle cx="72787.4" cy="43177.2" r="118.11" /> 
<circle cx="73787.4" cy="43177.2" r="118.11" /> 
<circle cx="72787.4" cy="44177.2" r="118.11" /> 
<circle cx="73787.4" cy="44177.2" r="118.11" /> 
<circle cx="72787.4" cy="45177.2" r="118.11" /> 
<circle cx="73787.4" cy="45177.2" r="118.11" /> 
<circle cx="72787.4" cy="46177.2" r="118.11" /> 
<circle cx="73787.4" cy="46177.2" r="118.11" /> 
<circle cx="72787.4" cy="47177.2" r="118.11" /> 
<circle cx="73787.4" cy="47177.2" r="118.11" /> 
<circle cx="72257.9" cy="13986.2" r="118.11" /> 
<circle cx="73257.9" cy="13986.2" r="118.11" /> 
<circle cx="74257.9" cy="13986.2" r="118.11" /> 
<circle cx="96958.7" cy="24470.5" r="118.11" /> 
<circle cx="96958.7" cy="25470.5" r="118.11" /> 
<circle cx="97726.4" cy="13698.8" r="118.11" /> 
<circle cx="97726.4" cy="12698.8" r="118.11" /> 
<circle cx="101614" cy="12773.6" r="118.11" /> 
<circle cx="101614" cy="11773.6" r="118.11" /> 
<circle cx="76683.1" cy="13978.3" r="118.11" /> 
<circle cx="76683.1" cy="14978.3" r="118.11" /> 
<circle cx="69960.6" cy="13978.3" r="118.11" /> 
<circle cx="69960.6" cy="14978.3" r="118.11" /> 
<circle cx="99832.7" cy="13718.5" r="118.11" /> 
<circle cx="99832.7" cy="12718.5" r="118.11" /> 
<circle cx="78740.2" cy="13978.3" r="118.11" /> 
<circle cx="78740.2" cy="14978.3" r="118.11" /> 
<circle cx="69655.5" cy="19566.9" r="118.11" /> 
<circle cx="78750" cy="20905.5" r="118.11" /> 
<circle cx="96299.2" cy="36072.8" r="118.11" /> 
<circle cx="97096.5" cy="46348.4" r="118.11" /> 
<circle cx="71023.6" cy="47116.1" r="118.11" /> 
<circle cx="103632" cy="46378" r="118.11" /> 
<circle cx="81446.9" cy="15137.8" r="118.11" /> 
<circle cx="94744.1" cy="20698.8" r="118.11" /> 
<circle cx="83545.3" cy="15244.1" r="118.11" /> 
<circle cx="83545.3" cy="14244.1" r="118.11" /> 
<circle cx="84545.3" cy="15244.1" r="118.11" /> 
<circle cx="84545.3" cy="14244.1" r="118.11" /> 
<circle cx="95442.9" cy="30974.4" r="118.11" /> 
<circle cx="95698.8" cy="12736.2" r="118.11" /> 
<circle cx="100594" cy="22279.5" r="118.11" /> 
<circle cx="102594" cy="22279.5" r="118.11" /> 
<circle cx="100594" cy="25279.5" r="118.11" /> 
<circle cx="102594" cy="25279.5" r="118.11" /> 
<circle cx="101291" cy="19919.3" r="118.11" /> 
<circle cx="101291" cy="18919.3" r="118.11" /> 
<circle cx="102291" cy="19919.3" r="118.11" /> 
<circle cx="102291" cy="18919.3" r="118.11" /> 
</g> 
</svg>
